<svg xmlns="http://www.w3.org/2000/svg" viewBox="0 0 512 512" width="512" height="512" shape-rendering="crispEdges"><rect x="171" y="107" width="170" height="1" fill="#1737A4"/><rect x="171" y="108" width="170" height="1" fill="#1737A4"/><rect x="171" y="109" width="170" height="1" fill="#1737A4"/><rect x="171" y="110" width="170" height="1" fill="#1737A4"/><rect x="171" y="111" width="170" height="1" fill="#1737A4"/><rect x="171" y="112" width="170" height="1" fill="#1737A4"/><rect x="171" y="113" width="170" height="1" fill="#1737A4"/><rect x="171" y="114" width="170" height="1" fill="#1737A4"/><rect x="171" y="115" width="170" height="1" fill="#1737A4"/><rect x="171" y="116" width="170" height="1" fill="#1737A4"/><rect x="171" y="117" width="170" height="1" fill="#1737A4"/><rect x="171" y="118" width="170" height="1" fill="#1737A4"/><rect x="171" y="119" width="170" height="1" fill="#1737A4"/><rect x="171" y="120" width="170" height="1" fill="#1737A4"/><rect x="171" y="121" width="170" height="1" fill="#1737A4"/><rect x="171" y="122" width="170" height="1" fill="#1737A4"/><rect x="171" y="123" width="170" height="1" fill="#1737A4"/><rect x="171" y="124" width="170" height="1" fill="#1737A4"/><rect x="171" y="125" width="170" height="1" fill="#1737A4"/><rect x="171" y="126" width="170" height="1" fill="#1737A4"/><rect x="171" y="127" width="170" height="1" fill="#1737A4"/><rect x="149" y="128" width="22" height="1" fill="#1737A4"/><rect x="171" y="128" width="170" height="1" fill="#1B43C7"/><rect x="341" y="128" width="22" height="1" fill="#1737A4"/><rect x="149" y="129" width="22" height="1" fill="#1737A4"/><rect x="171" y="129" width="170" height="1" fill="#1B43C7"/><rect x="341" y="129" width="22" height="1" fill="#1737A4"/><rect x="149" y="130" width="22" height="1" fill="#1737A4"/><rect x="171" y="130" width="170" height="1" fill="#1B43C7"/><rect x="341" y="130" width="22" height="1" fill="#1737A4"/><rect x="149" y="131" width="22" height="1" fill="#1737A4"/><rect x="171" y="131" width="170" height="1" fill="#1B43C7"/><rect x="341" y="131" width="22" height="1" fill="#1737A4"/><rect x="149" y="132" width="22" height="1" fill="#1737A4"/><rect x="171" y="132" width="170" height="1" fill="#1B43C7"/><rect x="341" y="132" width="22" height="1" fill="#1737A4"/><rect x="149" y="133" width="22" height="1" fill="#1737A4"/><rect x="171" y="133" width="170" height="1" fill="#1B43C7"/><rect x="341" y="133" width="22" height="1" fill="#1737A4"/><rect x="149" y="134" width="22" height="1" fill="#1737A4"/><rect x="171" y="134" width="170" height="1" fill="#1B43C7"/><rect x="341" y="134" width="22" height="1" fill="#1737A4"/><rect x="149" y="135" width="22" height="1" fill="#1737A4"/><rect x="171" y="135" width="170" height="1" fill="#1B43C7"/><rect x="341" y="135" width="22" height="1" fill="#1737A4"/><rect x="149" y="136" width="22" height="1" fill="#1737A4"/><rect x="171" y="136" width="170" height="1" fill="#1B43C7"/><rect x="341" y="136" width="22" height="1" fill="#1737A4"/><rect x="149" y="137" width="22" height="1" fill="#1737A4"/><rect x="171" y="137" width="170" height="1" fill="#1B43C7"/><rect x="341" y="137" width="22" height="1" fill="#1737A4"/><rect x="149" y="138" width="22" height="1" fill="#1737A4"/><rect x="171" y="138" width="170" height="1" fill="#1B43C7"/><rect x="341" y="138" width="22" height="1" fill="#1737A4"/><rect x="149" y="139" width="22" height="1" fill="#1737A4"/><rect x="171" y="139" width="170" height="1" fill="#1B43C7"/><rect x="341" y="139" width="22" height="1" fill="#1737A4"/><rect x="149" y="140" width="22" height="1" fill="#1737A4"/><rect x="171" y="140" width="170" height="1" fill="#1B43C7"/><rect x="341" y="140" width="22" height="1" fill="#1737A4"/><rect x="149" y="141" width="22" height="1" fill="#1737A4"/><rect x="171" y="141" width="170" height="1" fill="#1B43C7"/><rect x="341" y="141" width="22" height="1" fill="#1737A4"/><rect x="149" y="142" width="22" height="1" fill="#1737A4"/><rect x="171" y="142" width="170" height="1" fill="#1B43C7"/><rect x="341" y="142" width="22" height="1" fill="#1737A4"/><rect x="149" y="143" width="22" height="1" fill="#1737A4"/><rect x="171" y="143" width="170" height="1" fill="#1B43C7"/><rect x="341" y="143" width="22" height="1" fill="#1737A4"/><rect x="149" y="144" width="22" height="1" fill="#1737A4"/><rect x="171" y="144" width="170" height="1" fill="#1B43C7"/><rect x="341" y="144" width="22" height="1" fill="#1737A4"/><rect x="149" y="145" width="22" height="1" fill="#1737A4"/><rect x="171" y="145" width="170" height="1" fill="#1B43C7"/><rect x="341" y="145" width="22" height="1" fill="#1737A4"/><rect x="149" y="146" width="22" height="1" fill="#1737A4"/><rect x="171" y="146" width="170" height="1" fill="#1B43C7"/><rect x="341" y="146" width="22" height="1" fill="#1737A4"/><rect x="149" y="147" width="22" height="1" fill="#1737A4"/><rect x="171" y="147" width="170" height="1" fill="#1B43C7"/><rect x="341" y="147" width="22" height="1" fill="#1737A4"/><rect x="149" y="148" width="22" height="1" fill="#1737A4"/><rect x="171" y="148" width="170" height="1" fill="#1B43C7"/><rect x="341" y="148" width="22" height="1" fill="#1737A4"/><rect x="128" y="149" width="21" height="1" fill="#1737A4"/><rect x="149" y="149" width="192" height="1" fill="#1B43C7"/><rect x="341" y="149" width="22" height="1" fill="#1737A4"/><rect x="128" y="150" width="21" height="1" fill="#1737A4"/><rect x="149" y="150" width="192" height="1" fill="#1B43C7"/><rect x="341" y="150" width="22" height="1" fill="#1737A4"/><rect x="128" y="151" width="21" height="1" fill="#1737A4"/><rect x="149" y="151" width="192" height="1" fill="#1B43C7"/><rect x="341" y="151" width="22" height="1" fill="#1737A4"/><rect x="128" y="152" width="21" height="1" fill="#1737A4"/><rect x="149" y="152" width="192" height="1" fill="#1B43C7"/><rect x="341" y="152" width="22" height="1" fill="#1737A4"/><rect x="128" y="153" width="21" height="1" fill="#1737A4"/><rect x="149" y="153" width="192" height="1" fill="#1B43C7"/><rect x="341" y="153" width="22" height="1" fill="#1737A4"/><rect x="128" y="154" width="21" height="1" fill="#1737A4"/><rect x="149" y="154" width="192" height="1" fill="#1B43C7"/><rect x="341" y="154" width="22" height="1" fill="#1737A4"/><rect x="128" y="155" width="21" height="1" fill="#1737A4"/><rect x="149" y="155" width="192" height="1" fill="#1B43C7"/><rect x="341" y="155" width="22" height="1" fill="#1737A4"/><rect x="128" y="156" width="21" height="1" fill="#1737A4"/><rect x="149" y="156" width="192" height="1" fill="#1B43C7"/><rect x="341" y="156" width="22" height="1" fill="#1737A4"/><rect x="128" y="157" width="21" height="1" fill="#1737A4"/><rect x="149" y="157" width="192" height="1" fill="#1B43C7"/><rect x="341" y="157" width="22" height="1" fill="#1737A4"/><rect x="128" y="158" width="21" height="1" fill="#1737A4"/><rect x="149" y="158" width="192" height="1" fill="#1B43C7"/><rect x="341" y="158" width="22" height="1" fill="#1737A4"/><rect x="128" y="159" width="21" height="1" fill="#1737A4"/><rect x="149" y="159" width="192" height="1" fill="#1B43C7"/><rect x="341" y="159" width="22" height="1" fill="#1737A4"/><rect x="128" y="160" width="21" height="1" fill="#1737A4"/><rect x="149" y="160" width="192" height="1" fill="#1B43C7"/><rect x="341" y="160" width="22" height="1" fill="#1737A4"/><rect x="128" y="161" width="21" height="1" fill="#1737A4"/><rect x="149" y="161" width="192" height="1" fill="#1B43C7"/><rect x="341" y="161" width="22" height="1" fill="#1737A4"/><rect x="128" y="162" width="21" height="1" fill="#1737A4"/><rect x="149" y="162" width="192" height="1" fill="#1B43C7"/><rect x="341" y="162" width="22" height="1" fill="#1737A4"/><rect x="128" y="163" width="21" height="1" fill="#1737A4"/><rect x="149" y="163" width="192" height="1" fill="#1B43C7"/><rect x="341" y="163" width="22" height="1" fill="#1737A4"/><rect x="128" y="164" width="21" height="1" fill="#1737A4"/><rect x="149" y="164" width="192" height="1" fill="#1B43C7"/><rect x="341" y="164" width="22" height="1" fill="#1737A4"/><rect x="128" y="165" width="21" height="1" fill="#1737A4"/><rect x="149" y="165" width="192" height="1" fill="#1B43C7"/><rect x="341" y="165" width="22" height="1" fill="#1737A4"/><rect x="128" y="166" width="21" height="1" fill="#1737A4"/><rect x="149" y="166" width="192" height="1" fill="#1B43C7"/><rect x="341" y="166" width="22" height="1" fill="#1737A4"/><rect x="128" y="167" width="21" height="1" fill="#1737A4"/><rect x="149" y="167" width="192" height="1" fill="#1B43C7"/><rect x="341" y="167" width="22" height="1" fill="#1737A4"/><rect x="128" y="168" width="21" height="1" fill="#1737A4"/><rect x="149" y="168" width="192" height="1" fill="#1B43C7"/><rect x="341" y="168" width="22" height="1" fill="#1737A4"/><rect x="128" y="169" width="21" height="1" fill="#1737A4"/><rect x="149" y="169" width="192" height="1" fill="#1B43C7"/><rect x="341" y="169" width="22" height="1" fill="#1737A4"/><rect x="128" y="170" width="21" height="1" fill="#1737A4"/><rect x="149" y="170" width="192" height="1" fill="#1B43C7"/><rect x="341" y="170" width="22" height="1" fill="#1737A4"/><rect x="43" y="171" width="21" height="1" fill="#1B43C7"/><rect x="64" y="171" width="21" height="1" fill="#1737A4"/><rect x="85" y="171" width="22" height="1" fill="#1B43C7"/><rect x="107" y="171" width="21" height="1" fill="#1737A4"/><rect x="128" y="171" width="21" height="1" fill="#152C7B"/><rect x="149" y="171" width="22" height="1" fill="#1B43C7"/><rect x="171" y="171" width="85" height="1" fill="#1737A4"/><rect x="256" y="171" width="64" height="1" fill="#1B43C7"/><rect x="320" y="171" width="21" height="1" fill="#1737A4"/><rect x="43" y="172" width="21" height="1" fill="#1B43C7"/><rect x="64" y="172" width="21" height="1" fill="#1737A4"/><rect x="85" y="172" width="22" height="1" fill="#1B43C7"/><rect x="107" y="172" width="21" height="1" fill="#1737A4"/><rect x="128" y="172" width="21" height="1" fill="#152C7B"/><rect x="149" y="172" width="22" height="1" fill="#1B43C7"/><rect x="171" y="172" width="85" height="1" fill="#1737A4"/><rect x="256" y="172" width="64" height="1" fill="#1B43C7"/><rect x="320" y="172" width="21" height="1" fill="#1737A4"/><rect x="43" y="173" width="21" height="1" fill="#1B43C7"/><rect x="64" y="173" width="21" height="1" fill="#1737A4"/><rect x="85" y="173" width="22" height="1" fill="#1B43C7"/><rect x="107" y="173" width="21" height="1" fill="#1737A4"/><rect x="128" y="173" width="21" height="1" fill="#152C7B"/><rect x="149" y="173" width="22" height="1" fill="#1B43C7"/><rect x="171" y="173" width="85" height="1" fill="#1737A4"/><rect x="256" y="173" width="64" height="1" fill="#1B43C7"/><rect x="320" y="173" width="21" height="1" fill="#1737A4"/><rect x="43" y="174" width="21" height="1" fill="#1B43C7"/><rect x="64" y="174" width="21" height="1" fill="#1737A4"/><rect x="85" y="174" width="22" height="1" fill="#1B43C7"/><rect x="107" y="174" width="21" height="1" fill="#1737A4"/><rect x="128" y="174" width="21" height="1" fill="#152C7B"/><rect x="149" y="174" width="22" height="1" fill="#1B43C7"/><rect x="171" y="174" width="85" height="1" fill="#1737A4"/><rect x="256" y="174" width="64" height="1" fill="#1B43C7"/><rect x="320" y="174" width="21" height="1" fill="#1737A4"/><rect x="43" y="175" width="21" height="1" fill="#1B43C7"/><rect x="64" y="175" width="21" height="1" fill="#1737A4"/><rect x="85" y="175" width="22" height="1" fill="#1B43C7"/><rect x="107" y="175" width="21" height="1" fill="#1737A4"/><rect x="128" y="175" width="21" height="1" fill="#152C7B"/><rect x="149" y="175" width="22" height="1" fill="#1B43C7"/><rect x="171" y="175" width="85" height="1" fill="#1737A4"/><rect x="256" y="175" width="64" height="1" fill="#1B43C7"/><rect x="320" y="175" width="21" height="1" fill="#1737A4"/><rect x="43" y="176" width="21" height="1" fill="#1B43C7"/><rect x="64" y="176" width="21" height="1" fill="#1737A4"/><rect x="85" y="176" width="22" height="1" fill="#1B43C7"/><rect x="107" y="176" width="21" height="1" fill="#1737A4"/><rect x="128" y="176" width="21" height="1" fill="#152C7B"/><rect x="149" y="176" width="22" height="1" fill="#1B43C7"/><rect x="171" y="176" width="85" height="1" fill="#1737A4"/><rect x="256" y="176" width="64" height="1" fill="#1B43C7"/><rect x="320" y="176" width="21" height="1" fill="#1737A4"/><rect x="43" y="177" width="21" height="1" fill="#1B43C7"/><rect x="64" y="177" width="21" height="1" fill="#1737A4"/><rect x="85" y="177" width="22" height="1" fill="#1B43C7"/><rect x="107" y="177" width="21" height="1" fill="#1737A4"/><rect x="128" y="177" width="21" height="1" fill="#152C7B"/><rect x="149" y="177" width="22" height="1" fill="#1B43C7"/><rect x="171" y="177" width="85" height="1" fill="#1737A4"/><rect x="256" y="177" width="64" height="1" fill="#1B43C7"/><rect x="320" y="177" width="21" height="1" fill="#1737A4"/><rect x="43" y="178" width="21" height="1" fill="#1B43C7"/><rect x="64" y="178" width="21" height="1" fill="#1737A4"/><rect x="85" y="178" width="22" height="1" fill="#1B43C7"/><rect x="107" y="178" width="21" height="1" fill="#1737A4"/><rect x="128" y="178" width="21" height="1" fill="#152C7B"/><rect x="149" y="178" width="22" height="1" fill="#1B43C7"/><rect x="171" y="178" width="85" height="1" fill="#1737A4"/><rect x="256" y="178" width="64" height="1" fill="#1B43C7"/><rect x="320" y="178" width="21" height="1" fill="#1737A4"/><rect x="43" y="179" width="21" height="1" fill="#1B43C7"/><rect x="64" y="179" width="21" height="1" fill="#1737A4"/><rect x="85" y="179" width="22" height="1" fill="#1B43C7"/><rect x="107" y="179" width="21" height="1" fill="#1737A4"/><rect x="128" y="179" width="21" height="1" fill="#152C7B"/><rect x="149" y="179" width="22" height="1" fill="#1B43C7"/><rect x="171" y="179" width="85" height="1" fill="#1737A4"/><rect x="256" y="179" width="64" height="1" fill="#1B43C7"/><rect x="320" y="179" width="21" height="1" fill="#1737A4"/><rect x="43" y="180" width="21" height="1" fill="#1B43C7"/><rect x="64" y="180" width="21" height="1" fill="#1737A4"/><rect x="85" y="180" width="22" height="1" fill="#1B43C7"/><rect x="107" y="180" width="21" height="1" fill="#1737A4"/><rect x="128" y="180" width="21" height="1" fill="#152C7B"/><rect x="149" y="180" width="22" height="1" fill="#1B43C7"/><rect x="171" y="180" width="85" height="1" fill="#1737A4"/><rect x="256" y="180" width="64" height="1" fill="#1B43C7"/><rect x="320" y="180" width="21" height="1" fill="#1737A4"/><rect x="43" y="181" width="21" height="1" fill="#1B43C7"/><rect x="64" y="181" width="21" height="1" fill="#1737A4"/><rect x="85" y="181" width="22" height="1" fill="#1B43C7"/><rect x="107" y="181" width="21" height="1" fill="#1737A4"/><rect x="128" y="181" width="21" height="1" fill="#152C7B"/><rect x="149" y="181" width="22" height="1" fill="#1B43C7"/><rect x="171" y="181" width="85" height="1" fill="#1737A4"/><rect x="256" y="181" width="64" height="1" fill="#1B43C7"/><rect x="320" y="181" width="21" height="1" fill="#1737A4"/><rect x="43" y="182" width="21" height="1" fill="#1B43C7"/><rect x="64" y="182" width="21" height="1" fill="#1737A4"/><rect x="85" y="182" width="22" height="1" fill="#1B43C7"/><rect x="107" y="182" width="21" height="1" fill="#1737A4"/><rect x="128" y="182" width="21" height="1" fill="#152C7B"/><rect x="149" y="182" width="22" height="1" fill="#1B43C7"/><rect x="171" y="182" width="85" height="1" fill="#1737A4"/><rect x="256" y="182" width="64" height="1" fill="#1B43C7"/><rect x="320" y="182" width="21" height="1" fill="#1737A4"/><rect x="43" y="183" width="21" height="1" fill="#1B43C7"/><rect x="64" y="183" width="21" height="1" fill="#1737A4"/><rect x="85" y="183" width="22" height="1" fill="#1B43C7"/><rect x="107" y="183" width="21" height="1" fill="#1737A4"/><rect x="128" y="183" width="21" height="1" fill="#152C7B"/><rect x="149" y="183" width="22" height="1" fill="#1B43C7"/><rect x="171" y="183" width="85" height="1" fill="#1737A4"/><rect x="256" y="183" width="64" height="1" fill="#1B43C7"/><rect x="320" y="183" width="21" height="1" fill="#1737A4"/><rect x="43" y="184" width="21" height="1" fill="#1B43C7"/><rect x="64" y="184" width="21" height="1" fill="#1737A4"/><rect x="85" y="184" width="22" height="1" fill="#1B43C7"/><rect x="107" y="184" width="21" height="1" fill="#1737A4"/><rect x="128" y="184" width="21" height="1" fill="#152C7B"/><rect x="149" y="184" width="22" height="1" fill="#1B43C7"/><rect x="171" y="184" width="85" height="1" fill="#1737A4"/><rect x="256" y="184" width="64" height="1" fill="#1B43C7"/><rect x="320" y="184" width="21" height="1" fill="#1737A4"/><rect x="43" y="185" width="21" height="1" fill="#1B43C7"/><rect x="64" y="185" width="21" height="1" fill="#1737A4"/><rect x="85" y="185" width="22" height="1" fill="#1B43C7"/><rect x="107" y="185" width="21" height="1" fill="#1737A4"/><rect x="128" y="185" width="21" height="1" fill="#152C7B"/><rect x="149" y="185" width="22" height="1" fill="#1B43C7"/><rect x="171" y="185" width="85" height="1" fill="#1737A4"/><rect x="256" y="185" width="64" height="1" fill="#1B43C7"/><rect x="320" y="185" width="21" height="1" fill="#1737A4"/><rect x="43" y="186" width="21" height="1" fill="#1B43C7"/><rect x="64" y="186" width="21" height="1" fill="#1737A4"/><rect x="85" y="186" width="22" height="1" fill="#1B43C7"/><rect x="107" y="186" width="21" height="1" fill="#1737A4"/><rect x="128" y="186" width="21" height="1" fill="#152C7B"/><rect x="149" y="186" width="22" height="1" fill="#1B43C7"/><rect x="171" y="186" width="85" height="1" fill="#1737A4"/><rect x="256" y="186" width="64" height="1" fill="#1B43C7"/><rect x="320" y="186" width="21" height="1" fill="#1737A4"/><rect x="43" y="187" width="21" height="1" fill="#1B43C7"/><rect x="64" y="187" width="21" height="1" fill="#1737A4"/><rect x="85" y="187" width="22" height="1" fill="#1B43C7"/><rect x="107" y="187" width="21" height="1" fill="#1737A4"/><rect x="128" y="187" width="21" height="1" fill="#152C7B"/><rect x="149" y="187" width="22" height="1" fill="#1B43C7"/><rect x="171" y="187" width="85" height="1" fill="#1737A4"/><rect x="256" y="187" width="64" height="1" fill="#1B43C7"/><rect x="320" y="187" width="21" height="1" fill="#1737A4"/><rect x="43" y="188" width="21" height="1" fill="#1B43C7"/><rect x="64" y="188" width="21" height="1" fill="#1737A4"/><rect x="85" y="188" width="22" height="1" fill="#1B43C7"/><rect x="107" y="188" width="21" height="1" fill="#1737A4"/><rect x="128" y="188" width="21" height="1" fill="#152C7B"/><rect x="149" y="188" width="22" height="1" fill="#1B43C7"/><rect x="171" y="188" width="85" height="1" fill="#1737A4"/><rect x="256" y="188" width="64" height="1" fill="#1B43C7"/><rect x="320" y="188" width="21" height="1" fill="#1737A4"/><rect x="43" y="189" width="21" height="1" fill="#1B43C7"/><rect x="64" y="189" width="21" height="1" fill="#1737A4"/><rect x="85" y="189" width="22" height="1" fill="#1B43C7"/><rect x="107" y="189" width="21" height="1" fill="#1737A4"/><rect x="128" y="189" width="21" height="1" fill="#152C7B"/><rect x="149" y="189" width="22" height="1" fill="#1B43C7"/><rect x="171" y="189" width="85" height="1" fill="#1737A4"/><rect x="256" y="189" width="64" height="1" fill="#1B43C7"/><rect x="320" y="189" width="21" height="1" fill="#1737A4"/><rect x="43" y="190" width="21" height="1" fill="#1B43C7"/><rect x="64" y="190" width="21" height="1" fill="#1737A4"/><rect x="85" y="190" width="22" height="1" fill="#1B43C7"/><rect x="107" y="190" width="21" height="1" fill="#1737A4"/><rect x="128" y="190" width="21" height="1" fill="#152C7B"/><rect x="149" y="190" width="22" height="1" fill="#1B43C7"/><rect x="171" y="190" width="85" height="1" fill="#1737A4"/><rect x="256" y="190" width="64" height="1" fill="#1B43C7"/><rect x="320" y="190" width="21" height="1" fill="#1737A4"/><rect x="43" y="191" width="21" height="1" fill="#1B43C7"/><rect x="64" y="191" width="21" height="1" fill="#1737A4"/><rect x="85" y="191" width="22" height="1" fill="#1B43C7"/><rect x="107" y="191" width="21" height="1" fill="#1737A4"/><rect x="128" y="191" width="21" height="1" fill="#152C7B"/><rect x="149" y="191" width="22" height="1" fill="#1B43C7"/><rect x="171" y="191" width="85" height="1" fill="#1737A4"/><rect x="256" y="191" width="64" height="1" fill="#1B43C7"/><rect x="320" y="191" width="21" height="1" fill="#1737A4"/><rect x="64" y="192" width="21" height="1" fill="#1B43C7"/><rect x="85" y="192" width="22" height="1" fill="#1737A4"/><rect x="107" y="192" width="21" height="1" fill="#152C7B"/><rect x="256" y="192" width="64" height="1" fill="#1737A4"/><rect x="64" y="193" width="21" height="1" fill="#1B43C7"/><rect x="85" y="193" width="22" height="1" fill="#1737A4"/><rect x="107" y="193" width="21" height="1" fill="#152C7B"/><rect x="256" y="193" width="64" height="1" fill="#1737A4"/><rect x="64" y="194" width="21" height="1" fill="#1B43C7"/><rect x="85" y="194" width="22" height="1" fill="#1737A4"/><rect x="107" y="194" width="21" height="1" fill="#152C7B"/><rect x="256" y="194" width="64" height="1" fill="#1737A4"/><rect x="64" y="195" width="21" height="1" fill="#1B43C7"/><rect x="85" y="195" width="22" height="1" fill="#1737A4"/><rect x="107" y="195" width="21" height="1" fill="#152C7B"/><rect x="256" y="195" width="64" height="1" fill="#1737A4"/><rect x="64" y="196" width="21" height="1" fill="#1B43C7"/><rect x="85" y="196" width="22" height="1" fill="#1737A4"/><rect x="107" y="196" width="21" height="1" fill="#152C7B"/><rect x="256" y="196" width="64" height="1" fill="#1737A4"/><rect x="64" y="197" width="21" height="1" fill="#1B43C7"/><rect x="85" y="197" width="22" height="1" fill="#1737A4"/><rect x="107" y="197" width="21" height="1" fill="#152C7B"/><rect x="256" y="197" width="64" height="1" fill="#1737A4"/><rect x="64" y="198" width="21" height="1" fill="#1B43C7"/><rect x="85" y="198" width="22" height="1" fill="#1737A4"/><rect x="107" y="198" width="21" height="1" fill="#152C7B"/><rect x="256" y="198" width="64" height="1" fill="#1737A4"/><rect x="64" y="199" width="21" height="1" fill="#1B43C7"/><rect x="85" y="199" width="22" height="1" fill="#1737A4"/><rect x="107" y="199" width="21" height="1" fill="#152C7B"/><rect x="256" y="199" width="64" height="1" fill="#1737A4"/><rect x="64" y="200" width="21" height="1" fill="#1B43C7"/><rect x="85" y="200" width="22" height="1" fill="#1737A4"/><rect x="107" y="200" width="21" height="1" fill="#152C7B"/><rect x="256" y="200" width="64" height="1" fill="#1737A4"/><rect x="64" y="201" width="21" height="1" fill="#1B43C7"/><rect x="85" y="201" width="22" height="1" fill="#1737A4"/><rect x="107" y="201" width="21" height="1" fill="#152C7B"/><rect x="256" y="201" width="64" height="1" fill="#1737A4"/><rect x="64" y="202" width="21" height="1" fill="#1B43C7"/><rect x="85" y="202" width="22" height="1" fill="#1737A4"/><rect x="107" y="202" width="21" height="1" fill="#152C7B"/><rect x="256" y="202" width="64" height="1" fill="#1737A4"/><rect x="64" y="203" width="21" height="1" fill="#1B43C7"/><rect x="85" y="203" width="22" height="1" fill="#1737A4"/><rect x="107" y="203" width="21" height="1" fill="#152C7B"/><rect x="256" y="203" width="64" height="1" fill="#1737A4"/><rect x="64" y="204" width="21" height="1" fill="#1B43C7"/><rect x="85" y="204" width="22" height="1" fill="#1737A4"/><rect x="107" y="204" width="21" height="1" fill="#152C7B"/><rect x="256" y="204" width="64" height="1" fill="#1737A4"/><rect x="64" y="205" width="21" height="1" fill="#1B43C7"/><rect x="85" y="205" width="22" height="1" fill="#1737A4"/><rect x="107" y="205" width="21" height="1" fill="#152C7B"/><rect x="256" y="205" width="64" height="1" fill="#1737A4"/><rect x="64" y="206" width="21" height="1" fill="#1B43C7"/><rect x="85" y="206" width="22" height="1" fill="#1737A4"/><rect x="107" y="206" width="21" height="1" fill="#152C7B"/><rect x="256" y="206" width="64" height="1" fill="#1737A4"/><rect x="64" y="207" width="21" height="1" fill="#1B43C7"/><rect x="85" y="207" width="22" height="1" fill="#1737A4"/><rect x="107" y="207" width="21" height="1" fill="#152C7B"/><rect x="256" y="207" width="64" height="1" fill="#1737A4"/><rect x="64" y="208" width="21" height="1" fill="#1B43C7"/><rect x="85" y="208" width="22" height="1" fill="#1737A4"/><rect x="107" y="208" width="21" height="1" fill="#152C7B"/><rect x="256" y="208" width="64" height="1" fill="#1737A4"/><rect x="64" y="209" width="21" height="1" fill="#1B43C7"/><rect x="85" y="209" width="22" height="1" fill="#1737A4"/><rect x="107" y="209" width="21" height="1" fill="#152C7B"/><rect x="256" y="209" width="64" height="1" fill="#1737A4"/><rect x="64" y="210" width="21" height="1" fill="#1B43C7"/><rect x="85" y="210" width="22" height="1" fill="#1737A4"/><rect x="107" y="210" width="21" height="1" fill="#152C7B"/><rect x="256" y="210" width="64" height="1" fill="#1737A4"/><rect x="64" y="211" width="21" height="1" fill="#1B43C7"/><rect x="85" y="211" width="22" height="1" fill="#1737A4"/><rect x="107" y="211" width="21" height="1" fill="#152C7B"/><rect x="256" y="211" width="64" height="1" fill="#1737A4"/><rect x="64" y="212" width="21" height="1" fill="#1B43C7"/><rect x="85" y="212" width="22" height="1" fill="#1737A4"/><rect x="107" y="212" width="21" height="1" fill="#152C7B"/><rect x="256" y="212" width="64" height="1" fill="#1737A4"/><rect x="64" y="213" width="21" height="1" fill="#1B43C7"/><rect x="85" y="213" width="22" height="1" fill="#152C7B"/><rect x="64" y="214" width="21" height="1" fill="#1B43C7"/><rect x="85" y="214" width="22" height="1" fill="#152C7B"/><rect x="64" y="215" width="21" height="1" fill="#1B43C7"/><rect x="85" y="215" width="22" height="1" fill="#152C7B"/><rect x="64" y="216" width="21" height="1" fill="#1B43C7"/><rect x="85" y="216" width="22" height="1" fill="#152C7B"/><rect x="64" y="217" width="21" height="1" fill="#1B43C7"/><rect x="85" y="217" width="22" height="1" fill="#152C7B"/><rect x="64" y="218" width="21" height="1" fill="#1B43C7"/><rect x="85" y="218" width="22" height="1" fill="#152C7B"/><rect x="64" y="219" width="21" height="1" fill="#1B43C7"/><rect x="85" y="219" width="22" height="1" fill="#152C7B"/><rect x="64" y="220" width="21" height="1" fill="#1B43C7"/><rect x="85" y="220" width="22" height="1" fill="#152C7B"/><rect x="64" y="221" width="21" height="1" fill="#1B43C7"/><rect x="85" y="221" width="22" height="1" fill="#152C7B"/><rect x="64" y="222" width="21" height="1" fill="#1B43C7"/><rect x="85" y="222" width="22" height="1" fill="#152C7B"/><rect x="64" y="223" width="21" height="1" fill="#1B43C7"/><rect x="85" y="223" width="22" height="1" fill="#152C7B"/><rect x="64" y="224" width="21" height="1" fill="#1B43C7"/><rect x="85" y="224" width="22" height="1" fill="#152C7B"/><rect x="64" y="225" width="21" height="1" fill="#1B43C7"/><rect x="85" y="225" width="22" height="1" fill="#152C7B"/><rect x="64" y="226" width="21" height="1" fill="#1B43C7"/><rect x="85" y="226" width="22" height="1" fill="#152C7B"/><rect x="64" y="227" width="21" height="1" fill="#1B43C7"/><rect x="85" y="227" width="22" height="1" fill="#152C7B"/><rect x="64" y="228" width="21" height="1" fill="#1B43C7"/><rect x="85" y="228" width="22" height="1" fill="#152C7B"/><rect x="64" y="229" width="21" height="1" fill="#1B43C7"/><rect x="85" y="229" width="22" height="1" fill="#152C7B"/><rect x="64" y="230" width="21" height="1" fill="#1B43C7"/><rect x="85" y="230" width="22" height="1" fill="#152C7B"/><rect x="64" y="231" width="21" height="1" fill="#1B43C7"/><rect x="85" y="231" width="22" height="1" fill="#152C7B"/><rect x="64" y="232" width="21" height="1" fill="#1B43C7"/><rect x="85" y="232" width="22" height="1" fill="#152C7B"/><rect x="64" y="233" width="21" height="1" fill="#1B43C7"/><rect x="85" y="233" width="22" height="1" fill="#152C7B"/><rect x="64" y="234" width="21" height="1" fill="#1B43C7"/><rect x="85" y="234" width="22" height="1" fill="#152C7B"/><rect x="64" y="235" width="21" height="1" fill="#152C7B"/><rect x="64" y="236" width="21" height="1" fill="#152C7B"/><rect x="64" y="237" width="21" height="1" fill="#152C7B"/><rect x="64" y="238" width="21" height="1" fill="#152C7B"/><rect x="64" y="239" width="21" height="1" fill="#152C7B"/><rect x="64" y="240" width="21" height="1" fill="#152C7B"/><rect x="64" y="241" width="21" height="1" fill="#152C7B"/><rect x="64" y="242" width="21" height="1" fill="#152C7B"/><rect x="64" y="243" width="21" height="1" fill="#152C7B"/><rect x="64" y="244" width="21" height="1" fill="#152C7B"/><rect x="64" y="245" width="21" height="1" fill="#152C7B"/><rect x="64" y="246" width="21" height="1" fill="#152C7B"/><rect x="64" y="247" width="21" height="1" fill="#152C7B"/><rect x="64" y="248" width="21" height="1" fill="#152C7B"/><rect x="64" y="249" width="21" height="1" fill="#152C7B"/><rect x="64" y="250" width="21" height="1" fill="#152C7B"/><rect x="64" y="251" width="21" height="1" fill="#152C7B"/><rect x="64" y="252" width="21" height="1" fill="#152C7B"/><rect x="64" y="253" width="21" height="1" fill="#152C7B"/><rect x="64" y="254" width="21" height="1" fill="#152C7B"/><rect x="64" y="255" width="21" height="1" fill="#152C7B"/></svg>