<svg xmlns="http://www.w3.org/2000/svg" viewBox="0 0 512 512" width="512" height="512" shape-rendering="crispEdges"><rect x="192" y="64" width="107" height="1" fill="#0060C3"/><rect x="192" y="65" width="107" height="1" fill="#0060C3"/><rect x="192" y="66" width="107" height="1" fill="#0060C3"/><rect x="192" y="67" width="107" height="1" fill="#0060C3"/><rect x="192" y="68" width="107" height="1" fill="#0060C3"/><rect x="192" y="69" width="107" height="1" fill="#0060C3"/><rect x="192" y="70" width="107" height="1" fill="#0060C3"/><rect x="192" y="71" width="107" height="1" fill="#0060C3"/><rect x="192" y="72" width="107" height="1" fill="#0060C3"/><rect x="192" y="73" width="107" height="1" fill="#0060C3"/><rect x="192" y="74" width="107" height="1" fill="#0060C3"/><rect x="192" y="75" width="107" height="1" fill="#0060C3"/><rect x="192" y="76" width="107" height="1" fill="#0060C3"/><rect x="192" y="77" width="107" height="1" fill="#0060C3"/><rect x="192" y="78" width="107" height="1" fill="#0060C3"/><rect x="192" y="79" width="107" height="1" fill="#0060C3"/><rect x="192" y="80" width="107" height="1" fill="#0060C3"/><rect x="192" y="81" width="107" height="1" fill="#0060C3"/><rect x="192" y="82" width="107" height="1" fill="#0060C3"/><rect x="192" y="83" width="107" height="1" fill="#0060C3"/><rect x="192" y="84" width="107" height="1" fill="#0060C3"/><rect x="235" y="85" width="21" height="1" fill="#000000"/><rect x="235" y="86" width="21" height="1" fill="#000000"/><rect x="235" y="87" width="21" height="1" fill="#000000"/><rect x="235" y="88" width="21" height="1" fill="#000000"/><rect x="235" y="89" width="21" height="1" fill="#000000"/><rect x="235" y="90" width="21" height="1" fill="#000000"/><rect x="235" y="91" width="21" height="1" fill="#000000"/><rect x="235" y="92" width="21" height="1" fill="#000000"/><rect x="235" y="93" width="21" height="1" fill="#000000"/><rect x="235" y="94" width="21" height="1" fill="#000000"/><rect x="235" y="95" width="21" height="1" fill="#000000"/><rect x="235" y="96" width="21" height="1" fill="#000000"/><rect x="235" y="97" width="21" height="1" fill="#000000"/><rect x="235" y="98" width="21" height="1" fill="#000000"/><rect x="235" y="99" width="21" height="1" fill="#000000"/><rect x="235" y="100" width="21" height="1" fill="#000000"/><rect x="235" y="101" width="21" height="1" fill="#000000"/><rect x="235" y="102" width="21" height="1" fill="#000000"/><rect x="235" y="103" width="21" height="1" fill="#000000"/><rect x="235" y="104" width="21" height="1" fill="#000000"/><rect x="235" y="105" width="21" height="1" fill="#000000"/><rect x="235" y="106" width="21" height="1" fill="#000000"/><rect x="171" y="107" width="42" height="1" fill="#0060C3"/><rect x="213" y="107" width="64" height="1" fill="#E4EB17"/><rect x="277" y="107" width="43" height="1" fill="#D60404"/><rect x="171" y="108" width="42" height="1" fill="#0060C3"/><rect x="213" y="108" width="64" height="1" fill="#E4EB17"/><rect x="277" y="108" width="43" height="1" fill="#D60404"/><rect x="171" y="109" width="42" height="1" fill="#0060C3"/><rect x="213" y="109" width="64" height="1" fill="#E4EB17"/><rect x="277" y="109" width="43" height="1" fill="#D60404"/><rect x="171" y="110" width="42" height="1" fill="#0060C3"/><rect x="213" y="110" width="64" height="1" fill="#E4EB17"/><rect x="277" y="110" width="43" height="1" fill="#D60404"/><rect x="171" y="111" width="42" height="1" fill="#0060C3"/><rect x="213" y="111" width="64" height="1" fill="#E4EB17"/><rect x="277" y="111" width="43" height="1" fill="#D60404"/><rect x="171" y="112" width="42" height="1" fill="#0060C3"/><rect x="213" y="112" width="64" height="1" fill="#E4EB17"/><rect x="277" y="112" width="43" height="1" fill="#D60404"/><rect x="171" y="113" width="42" height="1" fill="#0060C3"/><rect x="213" y="113" width="64" height="1" fill="#E4EB17"/><rect x="277" y="113" width="43" height="1" fill="#D60404"/><rect x="171" y="114" width="42" height="1" fill="#0060C3"/><rect x="213" y="114" width="64" height="1" fill="#E4EB17"/><rect x="277" y="114" width="43" height="1" fill="#D60404"/><rect x="171" y="115" width="42" height="1" fill="#0060C3"/><rect x="213" y="115" width="64" height="1" fill="#E4EB17"/><rect x="277" y="115" width="43" height="1" fill="#D60404"/><rect x="171" y="116" width="42" height="1" fill="#0060C3"/><rect x="213" y="116" width="64" height="1" fill="#E4EB17"/><rect x="277" y="116" width="43" height="1" fill="#D60404"/><rect x="171" y="117" width="42" height="1" fill="#0060C3"/><rect x="213" y="117" width="64" height="1" fill="#E4EB17"/><rect x="277" y="117" width="43" height="1" fill="#D60404"/><rect x="171" y="118" width="42" height="1" fill="#0060C3"/><rect x="213" y="118" width="64" height="1" fill="#E4EB17"/><rect x="277" y="118" width="43" height="1" fill="#D60404"/><rect x="171" y="119" width="42" height="1" fill="#0060C3"/><rect x="213" y="119" width="64" height="1" fill="#E4EB17"/><rect x="277" y="119" width="43" height="1" fill="#D60404"/><rect x="171" y="120" width="42" height="1" fill="#0060C3"/><rect x="213" y="120" width="64" height="1" fill="#E4EB17"/><rect x="277" y="120" width="43" height="1" fill="#D60404"/><rect x="171" y="121" width="42" height="1" fill="#0060C3"/><rect x="213" y="121" width="64" height="1" fill="#E4EB17"/><rect x="277" y="121" width="43" height="1" fill="#D60404"/><rect x="171" y="122" width="42" height="1" fill="#0060C3"/><rect x="213" y="122" width="64" height="1" fill="#E4EB17"/><rect x="277" y="122" width="43" height="1" fill="#D60404"/><rect x="171" y="123" width="42" height="1" fill="#0060C3"/><rect x="213" y="123" width="64" height="1" fill="#E4EB17"/><rect x="277" y="123" width="43" height="1" fill="#D60404"/><rect x="171" y="124" width="42" height="1" fill="#0060C3"/><rect x="213" y="124" width="64" height="1" fill="#E4EB17"/><rect x="277" y="124" width="43" height="1" fill="#D60404"/><rect x="171" y="125" width="42" height="1" fill="#0060C3"/><rect x="213" y="125" width="64" height="1" fill="#E4EB17"/><rect x="277" y="125" width="43" height="1" fill="#D60404"/><rect x="171" y="126" width="42" height="1" fill="#0060C3"/><rect x="213" y="126" width="64" height="1" fill="#E4EB17"/><rect x="277" y="126" width="43" height="1" fill="#D60404"/><rect x="171" y="127" width="42" height="1" fill="#0060C3"/><rect x="213" y="127" width="64" height="1" fill="#E4EB17"/><rect x="277" y="127" width="43" height="1" fill="#D60404"/><rect x="149" y="128" width="64" height="1" fill="#0060C3"/><rect x="213" y="128" width="64" height="1" fill="#E4EB17"/><rect x="277" y="128" width="64" height="1" fill="#D60404"/><rect x="149" y="129" width="64" height="1" fill="#0060C3"/><rect x="213" y="129" width="64" height="1" fill="#E4EB17"/><rect x="277" y="129" width="64" height="1" fill="#D60404"/><rect x="149" y="130" width="64" height="1" fill="#0060C3"/><rect x="213" y="130" width="64" height="1" fill="#E4EB17"/><rect x="277" y="130" width="64" height="1" fill="#D60404"/><rect x="149" y="131" width="64" height="1" fill="#0060C3"/><rect x="213" y="131" width="64" height="1" fill="#E4EB17"/><rect x="277" y="131" width="64" height="1" fill="#D60404"/><rect x="149" y="132" width="64" height="1" fill="#0060C3"/><rect x="213" y="132" width="64" height="1" fill="#E4EB17"/><rect x="277" y="132" width="64" height="1" fill="#D60404"/><rect x="149" y="133" width="64" height="1" fill="#0060C3"/><rect x="213" y="133" width="64" height="1" fill="#E4EB17"/><rect x="277" y="133" width="64" height="1" fill="#D60404"/><rect x="149" y="134" width="64" height="1" fill="#0060C3"/><rect x="213" y="134" width="64" height="1" fill="#E4EB17"/><rect x="277" y="134" width="64" height="1" fill="#D60404"/><rect x="149" y="135" width="64" height="1" fill="#0060C3"/><rect x="213" y="135" width="64" height="1" fill="#E4EB17"/><rect x="277" y="135" width="64" height="1" fill="#D60404"/><rect x="149" y="136" width="64" height="1" fill="#0060C3"/><rect x="213" y="136" width="64" height="1" fill="#E4EB17"/><rect x="277" y="136" width="64" height="1" fill="#D60404"/><rect x="149" y="137" width="64" height="1" fill="#0060C3"/><rect x="213" y="137" width="64" height="1" fill="#E4EB17"/><rect x="277" y="137" width="64" height="1" fill="#D60404"/><rect x="149" y="138" width="64" height="1" fill="#0060C3"/><rect x="213" y="138" width="64" height="1" fill="#E4EB17"/><rect x="277" y="138" width="64" height="1" fill="#D60404"/><rect x="149" y="139" width="64" height="1" fill="#0060C3"/><rect x="213" y="139" width="64" height="1" fill="#E4EB17"/><rect x="277" y="139" width="64" height="1" fill="#D60404"/><rect x="149" y="140" width="64" height="1" fill="#0060C3"/><rect x="213" y="140" width="64" height="1" fill="#E4EB17"/><rect x="277" y="140" width="64" height="1" fill="#D60404"/><rect x="149" y="141" width="64" height="1" fill="#0060C3"/><rect x="213" y="141" width="64" height="1" fill="#E4EB17"/><rect x="277" y="141" width="64" height="1" fill="#D60404"/><rect x="149" y="142" width="64" height="1" fill="#0060C3"/><rect x="213" y="142" width="64" height="1" fill="#E4EB17"/><rect x="277" y="142" width="64" height="1" fill="#D60404"/><rect x="149" y="143" width="64" height="1" fill="#0060C3"/><rect x="213" y="143" width="64" height="1" fill="#E4EB17"/><rect x="277" y="143" width="64" height="1" fill="#D60404"/><rect x="149" y="144" width="64" height="1" fill="#0060C3"/><rect x="213" y="144" width="64" height="1" fill="#E4EB17"/><rect x="277" y="144" width="64" height="1" fill="#D60404"/><rect x="149" y="145" width="64" height="1" fill="#0060C3"/><rect x="213" y="145" width="64" height="1" fill="#E4EB17"/><rect x="277" y="145" width="64" height="1" fill="#D60404"/><rect x="149" y="146" width="64" height="1" fill="#0060C3"/><rect x="213" y="146" width="64" height="1" fill="#E4EB17"/><rect x="277" y="146" width="64" height="1" fill="#D60404"/><rect x="149" y="147" width="64" height="1" fill="#0060C3"/><rect x="213" y="147" width="64" height="1" fill="#E4EB17"/><rect x="277" y="147" width="64" height="1" fill="#D60404"/><rect x="149" y="148" width="64" height="1" fill="#0060C3"/><rect x="213" y="148" width="64" height="1" fill="#E4EB17"/><rect x="277" y="148" width="64" height="1" fill="#D60404"/><rect x="128" y="149" width="64" height="1" fill="#0060C3"/><rect x="192" y="149" width="107" height="1" fill="#E4EB17"/><rect x="299" y="149" width="64" height="1" fill="#D60404"/><rect x="128" y="150" width="64" height="1" fill="#0060C3"/><rect x="192" y="150" width="107" height="1" fill="#E4EB17"/><rect x="299" y="150" width="64" height="1" fill="#D60404"/><rect x="128" y="151" width="64" height="1" fill="#0060C3"/><rect x="192" y="151" width="107" height="1" fill="#E4EB17"/><rect x="299" y="151" width="64" height="1" fill="#D60404"/><rect x="128" y="152" width="64" height="1" fill="#0060C3"/><rect x="192" y="152" width="107" height="1" fill="#E4EB17"/><rect x="299" y="152" width="64" height="1" fill="#D60404"/><rect x="128" y="153" width="64" height="1" fill="#0060C3"/><rect x="192" y="153" width="107" height="1" fill="#E4EB17"/><rect x="299" y="153" width="64" height="1" fill="#D60404"/><rect x="128" y="154" width="64" height="1" fill="#0060C3"/><rect x="192" y="154" width="107" height="1" fill="#E4EB17"/><rect x="299" y="154" width="64" height="1" fill="#D60404"/><rect x="128" y="155" width="64" height="1" fill="#0060C3"/><rect x="192" y="155" width="107" height="1" fill="#E4EB17"/><rect x="299" y="155" width="64" height="1" fill="#D60404"/><rect x="128" y="156" width="64" height="1" fill="#0060C3"/><rect x="192" y="156" width="107" height="1" fill="#E4EB17"/><rect x="299" y="156" width="64" height="1" fill="#D60404"/><rect x="128" y="157" width="64" height="1" fill="#0060C3"/><rect x="192" y="157" width="107" height="1" fill="#E4EB17"/><rect x="299" y="157" width="64" height="1" fill="#D60404"/><rect x="128" y="158" width="64" height="1" fill="#0060C3"/><rect x="192" y="158" width="107" height="1" fill="#E4EB17"/><rect x="299" y="158" width="64" height="1" fill="#D60404"/><rect x="128" y="159" width="64" height="1" fill="#0060C3"/><rect x="192" y="159" width="107" height="1" fill="#E4EB17"/><rect x="299" y="159" width="64" height="1" fill="#D60404"/><rect x="128" y="160" width="64" height="1" fill="#0060C3"/><rect x="192" y="160" width="107" height="1" fill="#E4EB17"/><rect x="299" y="160" width="64" height="1" fill="#D60404"/><rect x="128" y="161" width="64" height="1" fill="#0060C3"/><rect x="192" y="161" width="107" height="1" fill="#E4EB17"/><rect x="299" y="161" width="64" height="1" fill="#D60404"/><rect x="128" y="162" width="64" height="1" fill="#0060C3"/><rect x="192" y="162" width="107" height="1" fill="#E4EB17"/><rect x="299" y="162" width="64" height="1" fill="#D60404"/><rect x="128" y="163" width="64" height="1" fill="#0060C3"/><rect x="192" y="163" width="107" height="1" fill="#E4EB17"/><rect x="299" y="163" width="64" height="1" fill="#D60404"/><rect x="128" y="164" width="64" height="1" fill="#0060C3"/><rect x="192" y="164" width="107" height="1" fill="#E4EB17"/><rect x="299" y="164" width="64" height="1" fill="#D60404"/><rect x="128" y="165" width="64" height="1" fill="#0060C3"/><rect x="192" y="165" width="107" height="1" fill="#E4EB17"/><rect x="299" y="165" width="64" height="1" fill="#D60404"/><rect x="128" y="166" width="64" height="1" fill="#0060C3"/><rect x="192" y="166" width="107" height="1" fill="#E4EB17"/><rect x="299" y="166" width="64" height="1" fill="#D60404"/><rect x="128" y="167" width="64" height="1" fill="#0060C3"/><rect x="192" y="167" width="107" height="1" fill="#E4EB17"/><rect x="299" y="167" width="64" height="1" fill="#D60404"/><rect x="128" y="168" width="64" height="1" fill="#0060C3"/><rect x="192" y="168" width="107" height="1" fill="#E4EB17"/><rect x="299" y="168" width="64" height="1" fill="#D60404"/><rect x="128" y="169" width="64" height="1" fill="#0060C3"/><rect x="192" y="169" width="107" height="1" fill="#E4EB17"/><rect x="299" y="169" width="64" height="1" fill="#D60404"/><rect x="128" y="170" width="64" height="1" fill="#0060C3"/><rect x="192" y="170" width="107" height="1" fill="#E4EB17"/><rect x="299" y="170" width="64" height="1" fill="#D60404"/><rect x="128" y="171" width="43" height="1" fill="#0060C3"/><rect x="171" y="171" width="149" height="1" fill="#E4EB17"/><rect x="320" y="171" width="43" height="1" fill="#D60404"/><rect x="128" y="172" width="43" height="1" fill="#0060C3"/><rect x="171" y="172" width="149" height="1" fill="#E4EB17"/><rect x="320" y="172" width="43" height="1" fill="#D60404"/><rect x="128" y="173" width="43" height="1" fill="#0060C3"/><rect x="171" y="173" width="149" height="1" fill="#E4EB17"/><rect x="320" y="173" width="43" height="1" fill="#D60404"/><rect x="128" y="174" width="43" height="1" fill="#0060C3"/><rect x="171" y="174" width="149" height="1" fill="#E4EB17"/><rect x="320" y="174" width="43" height="1" fill="#D60404"/><rect x="128" y="175" width="43" height="1" fill="#0060C3"/><rect x="171" y="175" width="149" height="1" fill="#E4EB17"/><rect x="320" y="175" width="43" height="1" fill="#D60404"/><rect x="128" y="176" width="43" height="1" fill="#0060C3"/><rect x="171" y="176" width="149" height="1" fill="#E4EB17"/><rect x="320" y="176" width="43" height="1" fill="#D60404"/><rect x="128" y="177" width="43" height="1" fill="#0060C3"/><rect x="171" y="177" width="149" height="1" fill="#E4EB17"/><rect x="320" y="177" width="43" height="1" fill="#D60404"/><rect x="128" y="178" width="43" height="1" fill="#0060C3"/><rect x="171" y="178" width="149" height="1" fill="#E4EB17"/><rect x="320" y="178" width="43" height="1" fill="#D60404"/><rect x="128" y="179" width="43" height="1" fill="#0060C3"/><rect x="171" y="179" width="149" height="1" fill="#E4EB17"/><rect x="320" y="179" width="43" height="1" fill="#D60404"/><rect x="128" y="180" width="43" height="1" fill="#0060C3"/><rect x="171" y="180" width="149" height="1" fill="#E4EB17"/><rect x="320" y="180" width="43" height="1" fill="#D60404"/><rect x="128" y="181" width="43" height="1" fill="#0060C3"/><rect x="171" y="181" width="149" height="1" fill="#E4EB17"/><rect x="320" y="181" width="43" height="1" fill="#D60404"/><rect x="128" y="182" width="43" height="1" fill="#0060C3"/><rect x="171" y="182" width="149" height="1" fill="#E4EB17"/><rect x="320" y="182" width="43" height="1" fill="#D60404"/><rect x="128" y="183" width="43" height="1" fill="#0060C3"/><rect x="171" y="183" width="149" height="1" fill="#E4EB17"/><rect x="320" y="183" width="43" height="1" fill="#D60404"/><rect x="128" y="184" width="43" height="1" fill="#0060C3"/><rect x="171" y="184" width="149" height="1" fill="#E4EB17"/><rect x="320" y="184" width="43" height="1" fill="#D60404"/><rect x="128" y="185" width="43" height="1" fill="#0060C3"/><rect x="171" y="185" width="149" height="1" fill="#E4EB17"/><rect x="320" y="185" width="43" height="1" fill="#D60404"/><rect x="128" y="186" width="43" height="1" fill="#0060C3"/><rect x="171" y="186" width="149" height="1" fill="#E4EB17"/><rect x="320" y="186" width="43" height="1" fill="#D60404"/><rect x="128" y="187" width="43" height="1" fill="#0060C3"/><rect x="171" y="187" width="149" height="1" fill="#E4EB17"/><rect x="320" y="187" width="43" height="1" fill="#D60404"/><rect x="128" y="188" width="43" height="1" fill="#0060C3"/><rect x="171" y="188" width="149" height="1" fill="#E4EB17"/><rect x="320" y="188" width="43" height="1" fill="#D60404"/><rect x="128" y="189" width="43" height="1" fill="#0060C3"/><rect x="171" y="189" width="149" height="1" fill="#E4EB17"/><rect x="320" y="189" width="43" height="1" fill="#D60404"/><rect x="128" y="190" width="43" height="1" fill="#0060C3"/><rect x="171" y="190" width="149" height="1" fill="#E4EB17"/><rect x="320" y="190" width="43" height="1" fill="#D60404"/><rect x="128" y="191" width="43" height="1" fill="#0060C3"/><rect x="171" y="191" width="149" height="1" fill="#E4EB17"/><rect x="320" y="191" width="43" height="1" fill="#D60404"/><rect x="171" y="192" width="149" height="1" fill="#3CC300"/><rect x="171" y="193" width="149" height="1" fill="#3CC300"/><rect x="171" y="194" width="149" height="1" fill="#3CC300"/><rect x="171" y="195" width="149" height="1" fill="#3CC300"/><rect x="171" y="196" width="149" height="1" fill="#3CC300"/><rect x="171" y="197" width="149" height="1" fill="#3CC300"/><rect x="171" y="198" width="149" height="1" fill="#3CC300"/><rect x="171" y="199" width="149" height="1" fill="#3CC300"/><rect x="171" y="200" width="149" height="1" fill="#3CC300"/><rect x="171" y="201" width="149" height="1" fill="#3CC300"/><rect x="171" y="202" width="149" height="1" fill="#3CC300"/><rect x="171" y="203" width="149" height="1" fill="#3CC300"/><rect x="171" y="204" width="149" height="1" fill="#3CC300"/><rect x="171" y="205" width="149" height="1" fill="#3CC300"/><rect x="171" y="206" width="149" height="1" fill="#3CC300"/><rect x="171" y="207" width="149" height="1" fill="#3CC300"/><rect x="171" y="208" width="149" height="1" fill="#3CC300"/><rect x="171" y="209" width="149" height="1" fill="#3CC300"/><rect x="171" y="210" width="149" height="1" fill="#3CC300"/><rect x="171" y="211" width="149" height="1" fill="#3CC300"/><rect x="171" y="212" width="149" height="1" fill="#3CC300"/></svg>