<svg xmlns="http://www.w3.org/2000/svg" viewBox="0 0 512 512" width="512" height="512" shape-rendering="crispEdges"><rect x="171" y="85" width="149" height="1" fill="#8019B5"/><rect x="171" y="86" width="149" height="1" fill="#8019B5"/><rect x="171" y="87" width="149" height="1" fill="#8019B5"/><rect x="171" y="88" width="149" height="1" fill="#8019B5"/><rect x="171" y="89" width="149" height="1" fill="#8019B5"/><rect x="171" y="90" width="149" height="1" fill="#8019B5"/><rect x="171" y="91" width="149" height="1" fill="#8019B5"/><rect x="171" y="92" width="149" height="1" fill="#8019B5"/><rect x="171" y="93" width="149" height="1" fill="#8019B5"/><rect x="171" y="94" width="149" height="1" fill="#8019B5"/><rect x="171" y="95" width="149" height="1" fill="#8019B5"/><rect x="171" y="96" width="149" height="1" fill="#8019B5"/><rect x="171" y="97" width="149" height="1" fill="#8019B5"/><rect x="171" y="98" width="149" height="1" fill="#8019B5"/><rect x="171" y="99" width="149" height="1" fill="#8019B5"/><rect x="171" y="100" width="149" height="1" fill="#8019B5"/><rect x="171" y="101" width="149" height="1" fill="#8019B5"/><rect x="171" y="102" width="149" height="1" fill="#8019B5"/><rect x="171" y="103" width="149" height="1" fill="#8019B5"/><rect x="171" y="104" width="149" height="1" fill="#8019B5"/><rect x="171" y="105" width="149" height="1" fill="#8019B5"/><rect x="171" y="106" width="149" height="1" fill="#8019B5"/><rect x="149" y="107" width="128" height="1" fill="#8019B5"/><rect x="277" y="107" width="22" height="1" fill="#B45FE3"/><rect x="299" y="107" width="42" height="1" fill="#8019B5"/><rect x="149" y="108" width="128" height="1" fill="#8019B5"/><rect x="277" y="108" width="22" height="1" fill="#B45FE3"/><rect x="299" y="108" width="42" height="1" fill="#8019B5"/><rect x="149" y="109" width="128" height="1" fill="#8019B5"/><rect x="277" y="109" width="22" height="1" fill="#B45FE3"/><rect x="299" y="109" width="42" height="1" fill="#8019B5"/><rect x="149" y="110" width="128" height="1" fill="#8019B5"/><rect x="277" y="110" width="22" height="1" fill="#B45FE3"/><rect x="299" y="110" width="42" height="1" fill="#8019B5"/><rect x="149" y="111" width="128" height="1" fill="#8019B5"/><rect x="277" y="111" width="22" height="1" fill="#B45FE3"/><rect x="299" y="111" width="42" height="1" fill="#8019B5"/><rect x="149" y="112" width="128" height="1" fill="#8019B5"/><rect x="277" y="112" width="22" height="1" fill="#B45FE3"/><rect x="299" y="112" width="42" height="1" fill="#8019B5"/><rect x="149" y="113" width="128" height="1" fill="#8019B5"/><rect x="277" y="113" width="22" height="1" fill="#B45FE3"/><rect x="299" y="113" width="42" height="1" fill="#8019B5"/><rect x="149" y="114" width="128" height="1" fill="#8019B5"/><rect x="277" y="114" width="22" height="1" fill="#B45FE3"/><rect x="299" y="114" width="42" height="1" fill="#8019B5"/><rect x="149" y="115" width="128" height="1" fill="#8019B5"/><rect x="277" y="115" width="22" height="1" fill="#B45FE3"/><rect x="299" y="115" width="42" height="1" fill="#8019B5"/><rect x="149" y="116" width="128" height="1" fill="#8019B5"/><rect x="277" y="116" width="22" height="1" fill="#B45FE3"/><rect x="299" y="116" width="42" height="1" fill="#8019B5"/><rect x="149" y="117" width="128" height="1" fill="#8019B5"/><rect x="277" y="117" width="22" height="1" fill="#B45FE3"/><rect x="299" y="117" width="42" height="1" fill="#8019B5"/><rect x="149" y="118" width="128" height="1" fill="#8019B5"/><rect x="277" y="118" width="22" height="1" fill="#B45FE3"/><rect x="299" y="118" width="42" height="1" fill="#8019B5"/><rect x="149" y="119" width="128" height="1" fill="#8019B5"/><rect x="277" y="119" width="22" height="1" fill="#B45FE3"/><rect x="299" y="119" width="42" height="1" fill="#8019B5"/><rect x="149" y="120" width="128" height="1" fill="#8019B5"/><rect x="277" y="120" width="22" height="1" fill="#B45FE3"/><rect x="299" y="120" width="42" height="1" fill="#8019B5"/><rect x="149" y="121" width="128" height="1" fill="#8019B5"/><rect x="277" y="121" width="22" height="1" fill="#B45FE3"/><rect x="299" y="121" width="42" height="1" fill="#8019B5"/><rect x="149" y="122" width="128" height="1" fill="#8019B5"/><rect x="277" y="122" width="22" height="1" fill="#B45FE3"/><rect x="299" y="122" width="42" height="1" fill="#8019B5"/><rect x="149" y="123" width="128" height="1" fill="#8019B5"/><rect x="277" y="123" width="22" height="1" fill="#B45FE3"/><rect x="299" y="123" width="42" height="1" fill="#8019B5"/><rect x="149" y="124" width="128" height="1" fill="#8019B5"/><rect x="277" y="124" width="22" height="1" fill="#B45FE3"/><rect x="299" y="124" width="42" height="1" fill="#8019B5"/><rect x="149" y="125" width="128" height="1" fill="#8019B5"/><rect x="277" y="125" width="22" height="1" fill="#B45FE3"/><rect x="299" y="125" width="42" height="1" fill="#8019B5"/><rect x="149" y="126" width="128" height="1" fill="#8019B5"/><rect x="277" y="126" width="22" height="1" fill="#B45FE3"/><rect x="299" y="126" width="42" height="1" fill="#8019B5"/><rect x="149" y="127" width="128" height="1" fill="#8019B5"/><rect x="277" y="127" width="22" height="1" fill="#B45FE3"/><rect x="299" y="127" width="42" height="1" fill="#8019B5"/><rect x="128" y="128" width="171" height="1" fill="#8019B5"/><rect x="299" y="128" width="21" height="1" fill="#B45FE3"/><rect x="320" y="128" width="21" height="1" fill="#8019B5"/><rect x="128" y="129" width="171" height="1" fill="#8019B5"/><rect x="299" y="129" width="21" height="1" fill="#B45FE3"/><rect x="320" y="129" width="21" height="1" fill="#8019B5"/><rect x="128" y="130" width="171" height="1" fill="#8019B5"/><rect x="299" y="130" width="21" height="1" fill="#B45FE3"/><rect x="320" y="130" width="21" height="1" fill="#8019B5"/><rect x="128" y="131" width="171" height="1" fill="#8019B5"/><rect x="299" y="131" width="21" height="1" fill="#B45FE3"/><rect x="320" y="131" width="21" height="1" fill="#8019B5"/><rect x="128" y="132" width="171" height="1" fill="#8019B5"/><rect x="299" y="132" width="21" height="1" fill="#B45FE3"/><rect x="320" y="132" width="21" height="1" fill="#8019B5"/><rect x="128" y="133" width="171" height="1" fill="#8019B5"/><rect x="299" y="133" width="21" height="1" fill="#B45FE3"/><rect x="320" y="133" width="21" height="1" fill="#8019B5"/><rect x="128" y="134" width="171" height="1" fill="#8019B5"/><rect x="299" y="134" width="21" height="1" fill="#B45FE3"/><rect x="320" y="134" width="21" height="1" fill="#8019B5"/><rect x="128" y="135" width="171" height="1" fill="#8019B5"/><rect x="299" y="135" width="21" height="1" fill="#B45FE3"/><rect x="320" y="135" width="21" height="1" fill="#8019B5"/><rect x="128" y="136" width="171" height="1" fill="#8019B5"/><rect x="299" y="136" width="21" height="1" fill="#B45FE3"/><rect x="320" y="136" width="21" height="1" fill="#8019B5"/><rect x="128" y="137" width="171" height="1" fill="#8019B5"/><rect x="299" y="137" width="21" height="1" fill="#B45FE3"/><rect x="320" y="137" width="21" height="1" fill="#8019B5"/><rect x="128" y="138" width="171" height="1" fill="#8019B5"/><rect x="299" y="138" width="21" height="1" fill="#B45FE3"/><rect x="320" y="138" width="21" height="1" fill="#8019B5"/><rect x="128" y="139" width="171" height="1" fill="#8019B5"/><rect x="299" y="139" width="21" height="1" fill="#B45FE3"/><rect x="320" y="139" width="21" height="1" fill="#8019B5"/><rect x="128" y="140" width="171" height="1" fill="#8019B5"/><rect x="299" y="140" width="21" height="1" fill="#B45FE3"/><rect x="320" y="140" width="21" height="1" fill="#8019B5"/><rect x="128" y="141" width="171" height="1" fill="#8019B5"/><rect x="299" y="141" width="21" height="1" fill="#B45FE3"/><rect x="320" y="141" width="21" height="1" fill="#8019B5"/><rect x="128" y="142" width="171" height="1" fill="#8019B5"/><rect x="299" y="142" width="21" height="1" fill="#B45FE3"/><rect x="320" y="142" width="21" height="1" fill="#8019B5"/><rect x="128" y="143" width="171" height="1" fill="#8019B5"/><rect x="299" y="143" width="21" height="1" fill="#B45FE3"/><rect x="320" y="143" width="21" height="1" fill="#8019B5"/><rect x="128" y="144" width="171" height="1" fill="#8019B5"/><rect x="299" y="144" width="21" height="1" fill="#B45FE3"/><rect x="320" y="144" width="21" height="1" fill="#8019B5"/><rect x="128" y="145" width="171" height="1" fill="#8019B5"/><rect x="299" y="145" width="21" height="1" fill="#B45FE3"/><rect x="320" y="145" width="21" height="1" fill="#8019B5"/><rect x="128" y="146" width="171" height="1" fill="#8019B5"/><rect x="299" y="146" width="21" height="1" fill="#B45FE3"/><rect x="320" y="146" width="21" height="1" fill="#8019B5"/><rect x="128" y="147" width="171" height="1" fill="#8019B5"/><rect x="299" y="147" width="21" height="1" fill="#B45FE3"/><rect x="320" y="147" width="21" height="1" fill="#8019B5"/><rect x="128" y="148" width="171" height="1" fill="#8019B5"/><rect x="299" y="148" width="21" height="1" fill="#B45FE3"/><rect x="320" y="148" width="21" height="1" fill="#8019B5"/><rect x="128" y="149" width="277" height="1" fill="#8019B5"/><rect x="128" y="150" width="277" height="1" fill="#8019B5"/><rect x="128" y="151" width="277" height="1" fill="#8019B5"/><rect x="128" y="152" width="277" height="1" fill="#8019B5"/><rect x="128" y="153" width="277" height="1" fill="#8019B5"/><rect x="128" y="154" width="277" height="1" fill="#8019B5"/><rect x="128" y="155" width="277" height="1" fill="#8019B5"/><rect x="128" y="156" width="277" height="1" fill="#8019B5"/><rect x="128" y="157" width="277" height="1" fill="#8019B5"/><rect x="128" y="158" width="277" height="1" fill="#8019B5"/><rect x="128" y="159" width="277" height="1" fill="#8019B5"/><rect x="128" y="160" width="277" height="1" fill="#8019B5"/><rect x="128" y="161" width="277" height="1" fill="#8019B5"/><rect x="128" y="162" width="277" height="1" fill="#8019B5"/><rect x="128" y="163" width="277" height="1" fill="#8019B5"/><rect x="128" y="164" width="277" height="1" fill="#8019B5"/><rect x="128" y="165" width="277" height="1" fill="#8019B5"/><rect x="128" y="166" width="277" height="1" fill="#8019B5"/><rect x="128" y="167" width="277" height="1" fill="#8019B5"/><rect x="128" y="168" width="277" height="1" fill="#8019B5"/><rect x="128" y="169" width="277" height="1" fill="#8019B5"/><rect x="128" y="170" width="277" height="1" fill="#8019B5"/><rect x="128" y="171" width="107" height="1" fill="#8019B5"/><rect x="235" y="171" width="21" height="1" fill="#8218B7"/><rect x="256" y="171" width="21" height="1" fill="#8019B5"/><rect x="277" y="171" width="22" height="1" fill="#8218B7"/><rect x="299" y="171" width="21" height="1" fill="#8219B5"/><rect x="320" y="171" width="107" height="1" fill="#8019B5"/><rect x="128" y="172" width="107" height="1" fill="#8019B5"/><rect x="235" y="172" width="21" height="1" fill="#8218B7"/><rect x="256" y="172" width="21" height="1" fill="#8019B5"/><rect x="277" y="172" width="22" height="1" fill="#8218B7"/><rect x="299" y="172" width="21" height="1" fill="#8219B5"/><rect x="320" y="172" width="107" height="1" fill="#8019B5"/><rect x="128" y="173" width="107" height="1" fill="#8019B5"/><rect x="235" y="173" width="21" height="1" fill="#8218B7"/><rect x="256" y="173" width="21" height="1" fill="#8019B5"/><rect x="277" y="173" width="22" height="1" fill="#8218B7"/><rect x="299" y="173" width="21" height="1" fill="#8219B5"/><rect x="320" y="173" width="107" height="1" fill="#8019B5"/><rect x="128" y="174" width="107" height="1" fill="#8019B5"/><rect x="235" y="174" width="21" height="1" fill="#8218B7"/><rect x="256" y="174" width="21" height="1" fill="#8019B5"/><rect x="277" y="174" width="22" height="1" fill="#8218B7"/><rect x="299" y="174" width="21" height="1" fill="#8219B5"/><rect x="320" y="174" width="107" height="1" fill="#8019B5"/><rect x="128" y="175" width="107" height="1" fill="#8019B5"/><rect x="235" y="175" width="21" height="1" fill="#8218B7"/><rect x="256" y="175" width="21" height="1" fill="#8019B5"/><rect x="277" y="175" width="22" height="1" fill="#8218B7"/><rect x="299" y="175" width="21" height="1" fill="#8219B5"/><rect x="320" y="175" width="107" height="1" fill="#8019B5"/><rect x="128" y="176" width="107" height="1" fill="#8019B5"/><rect x="235" y="176" width="21" height="1" fill="#8218B7"/><rect x="256" y="176" width="21" height="1" fill="#8019B5"/><rect x="277" y="176" width="22" height="1" fill="#8218B7"/><rect x="299" y="176" width="21" height="1" fill="#8219B5"/><rect x="320" y="176" width="107" height="1" fill="#8019B5"/><rect x="128" y="177" width="107" height="1" fill="#8019B5"/><rect x="235" y="177" width="21" height="1" fill="#8218B7"/><rect x="256" y="177" width="21" height="1" fill="#8019B5"/><rect x="277" y="177" width="22" height="1" fill="#8218B7"/><rect x="299" y="177" width="21" height="1" fill="#8219B5"/><rect x="320" y="177" width="107" height="1" fill="#8019B5"/><rect x="128" y="178" width="107" height="1" fill="#8019B5"/><rect x="235" y="178" width="21" height="1" fill="#8218B7"/><rect x="256" y="178" width="21" height="1" fill="#8019B5"/><rect x="277" y="178" width="22" height="1" fill="#8218B7"/><rect x="299" y="178" width="21" height="1" fill="#8219B5"/><rect x="320" y="178" width="107" height="1" fill="#8019B5"/><rect x="128" y="179" width="107" height="1" fill="#8019B5"/><rect x="235" y="179" width="21" height="1" fill="#8218B7"/><rect x="256" y="179" width="21" height="1" fill="#8019B5"/><rect x="277" y="179" width="22" height="1" fill="#8218B7"/><rect x="299" y="179" width="21" height="1" fill="#8219B5"/><rect x="320" y="179" width="107" height="1" fill="#8019B5"/><rect x="128" y="180" width="107" height="1" fill="#8019B5"/><rect x="235" y="180" width="21" height="1" fill="#8218B7"/><rect x="256" y="180" width="21" height="1" fill="#8019B5"/><rect x="277" y="180" width="22" height="1" fill="#8218B7"/><rect x="299" y="180" width="21" height="1" fill="#8219B5"/><rect x="320" y="180" width="107" height="1" fill="#8019B5"/><rect x="128" y="181" width="107" height="1" fill="#8019B5"/><rect x="235" y="181" width="21" height="1" fill="#8218B7"/><rect x="256" y="181" width="21" height="1" fill="#8019B5"/><rect x="277" y="181" width="22" height="1" fill="#8218B7"/><rect x="299" y="181" width="21" height="1" fill="#8219B5"/><rect x="320" y="181" width="107" height="1" fill="#8019B5"/><rect x="128" y="182" width="107" height="1" fill="#8019B5"/><rect x="235" y="182" width="21" height="1" fill="#8218B7"/><rect x="256" y="182" width="21" height="1" fill="#8019B5"/><rect x="277" y="182" width="22" height="1" fill="#8218B7"/><rect x="299" y="182" width="21" height="1" fill="#8219B5"/><rect x="320" y="182" width="107" height="1" fill="#8019B5"/><rect x="128" y="183" width="107" height="1" fill="#8019B5"/><rect x="235" y="183" width="21" height="1" fill="#8218B7"/><rect x="256" y="183" width="21" height="1" fill="#8019B5"/><rect x="277" y="183" width="22" height="1" fill="#8218B7"/><rect x="299" y="183" width="21" height="1" fill="#8219B5"/><rect x="320" y="183" width="107" height="1" fill="#8019B5"/><rect x="128" y="184" width="107" height="1" fill="#8019B5"/><rect x="235" y="184" width="21" height="1" fill="#8218B7"/><rect x="256" y="184" width="21" height="1" fill="#8019B5"/><rect x="277" y="184" width="22" height="1" fill="#8218B7"/><rect x="299" y="184" width="21" height="1" fill="#8219B5"/><rect x="320" y="184" width="107" height="1" fill="#8019B5"/><rect x="128" y="185" width="107" height="1" fill="#8019B5"/><rect x="235" y="185" width="21" height="1" fill="#8218B7"/><rect x="256" y="185" width="21" height="1" fill="#8019B5"/><rect x="277" y="185" width="22" height="1" fill="#8218B7"/><rect x="299" y="185" width="21" height="1" fill="#8219B5"/><rect x="320" y="185" width="107" height="1" fill="#8019B5"/><rect x="128" y="186" width="107" height="1" fill="#8019B5"/><rect x="235" y="186" width="21" height="1" fill="#8218B7"/><rect x="256" y="186" width="21" height="1" fill="#8019B5"/><rect x="277" y="186" width="22" height="1" fill="#8218B7"/><rect x="299" y="186" width="21" height="1" fill="#8219B5"/><rect x="320" y="186" width="107" height="1" fill="#8019B5"/><rect x="128" y="187" width="107" height="1" fill="#8019B5"/><rect x="235" y="187" width="21" height="1" fill="#8218B7"/><rect x="256" y="187" width="21" height="1" fill="#8019B5"/><rect x="277" y="187" width="22" height="1" fill="#8218B7"/><rect x="299" y="187" width="21" height="1" fill="#8219B5"/><rect x="320" y="187" width="107" height="1" fill="#8019B5"/><rect x="128" y="188" width="107" height="1" fill="#8019B5"/><rect x="235" y="188" width="21" height="1" fill="#8218B7"/><rect x="256" y="188" width="21" height="1" fill="#8019B5"/><rect x="277" y="188" width="22" height="1" fill="#8218B7"/><rect x="299" y="188" width="21" height="1" fill="#8219B5"/><rect x="320" y="188" width="107" height="1" fill="#8019B5"/><rect x="128" y="189" width="107" height="1" fill="#8019B5"/><rect x="235" y="189" width="21" height="1" fill="#8218B7"/><rect x="256" y="189" width="21" height="1" fill="#8019B5"/><rect x="277" y="189" width="22" height="1" fill="#8218B7"/><rect x="299" y="189" width="21" height="1" fill="#8219B5"/><rect x="320" y="189" width="107" height="1" fill="#8019B5"/><rect x="128" y="190" width="107" height="1" fill="#8019B5"/><rect x="235" y="190" width="21" height="1" fill="#8218B7"/><rect x="256" y="190" width="21" height="1" fill="#8019B5"/><rect x="277" y="190" width="22" height="1" fill="#8218B7"/><rect x="299" y="190" width="21" height="1" fill="#8219B5"/><rect x="320" y="190" width="107" height="1" fill="#8019B5"/><rect x="128" y="191" width="107" height="1" fill="#8019B5"/><rect x="235" y="191" width="21" height="1" fill="#8218B7"/><rect x="256" y="191" width="21" height="1" fill="#8019B5"/><rect x="277" y="191" width="22" height="1" fill="#8218B7"/><rect x="299" y="191" width="21" height="1" fill="#8219B5"/><rect x="320" y="191" width="107" height="1" fill="#8019B5"/></svg>