<svg xmlns="http://www.w3.org/2000/svg" viewBox="0 0 512 512" width="512" height="512" shape-rendering="crispEdges"><rect x="171" y="85" width="149" height="1" fill="#000000"/><rect x="171" y="86" width="149" height="1" fill="#000000"/><rect x="171" y="87" width="149" height="1" fill="#000000"/><rect x="171" y="88" width="149" height="1" fill="#000000"/><rect x="171" y="89" width="149" height="1" fill="#000000"/><rect x="171" y="90" width="149" height="1" fill="#000000"/><rect x="171" y="91" width="149" height="1" fill="#000000"/><rect x="171" y="92" width="149" height="1" fill="#000000"/><rect x="171" y="93" width="149" height="1" fill="#000000"/><rect x="171" y="94" width="149" height="1" fill="#000000"/><rect x="171" y="95" width="149" height="1" fill="#000000"/><rect x="171" y="96" width="149" height="1" fill="#000000"/><rect x="171" y="97" width="149" height="1" fill="#000000"/><rect x="171" y="98" width="149" height="1" fill="#000000"/><rect x="171" y="99" width="149" height="1" fill="#000000"/><rect x="171" y="100" width="149" height="1" fill="#000000"/><rect x="171" y="101" width="149" height="1" fill="#000000"/><rect x="171" y="102" width="149" height="1" fill="#000000"/><rect x="171" y="103" width="149" height="1" fill="#000000"/><rect x="171" y="104" width="149" height="1" fill="#000000"/><rect x="171" y="105" width="149" height="1" fill="#000000"/><rect x="171" y="106" width="149" height="1" fill="#000000"/><rect x="149" y="107" width="22" height="1" fill="#000000"/><rect x="171" y="107" width="21" height="1" fill="#353535"/><rect x="192" y="107" width="128" height="1" fill="#515151"/><rect x="320" y="107" width="21" height="1" fill="#000000"/><rect x="149" y="108" width="22" height="1" fill="#000000"/><rect x="171" y="108" width="21" height="1" fill="#353535"/><rect x="192" y="108" width="128" height="1" fill="#515151"/><rect x="320" y="108" width="21" height="1" fill="#000000"/><rect x="149" y="109" width="22" height="1" fill="#000000"/><rect x="171" y="109" width="21" height="1" fill="#353535"/><rect x="192" y="109" width="128" height="1" fill="#515151"/><rect x="320" y="109" width="21" height="1" fill="#000000"/><rect x="149" y="110" width="22" height="1" fill="#000000"/><rect x="171" y="110" width="21" height="1" fill="#353535"/><rect x="192" y="110" width="128" height="1" fill="#515151"/><rect x="320" y="110" width="21" height="1" fill="#000000"/><rect x="149" y="111" width="22" height="1" fill="#000000"/><rect x="171" y="111" width="21" height="1" fill="#353535"/><rect x="192" y="111" width="128" height="1" fill="#515151"/><rect x="320" y="111" width="21" height="1" fill="#000000"/><rect x="149" y="112" width="22" height="1" fill="#000000"/><rect x="171" y="112" width="21" height="1" fill="#353535"/><rect x="192" y="112" width="128" height="1" fill="#515151"/><rect x="320" y="112" width="21" height="1" fill="#000000"/><rect x="149" y="113" width="22" height="1" fill="#000000"/><rect x="171" y="113" width="21" height="1" fill="#353535"/><rect x="192" y="113" width="128" height="1" fill="#515151"/><rect x="320" y="113" width="21" height="1" fill="#000000"/><rect x="149" y="114" width="22" height="1" fill="#000000"/><rect x="171" y="114" width="21" height="1" fill="#353535"/><rect x="192" y="114" width="128" height="1" fill="#515151"/><rect x="320" y="114" width="21" height="1" fill="#000000"/><rect x="149" y="115" width="22" height="1" fill="#000000"/><rect x="171" y="115" width="21" height="1" fill="#353535"/><rect x="192" y="115" width="128" height="1" fill="#515151"/><rect x="320" y="115" width="21" height="1" fill="#000000"/><rect x="149" y="116" width="22" height="1" fill="#000000"/><rect x="171" y="116" width="21" height="1" fill="#353535"/><rect x="192" y="116" width="128" height="1" fill="#515151"/><rect x="320" y="116" width="21" height="1" fill="#000000"/><rect x="149" y="117" width="22" height="1" fill="#000000"/><rect x="171" y="117" width="21" height="1" fill="#353535"/><rect x="192" y="117" width="128" height="1" fill="#515151"/><rect x="320" y="117" width="21" height="1" fill="#000000"/><rect x="149" y="118" width="22" height="1" fill="#000000"/><rect x="171" y="118" width="21" height="1" fill="#353535"/><rect x="192" y="118" width="128" height="1" fill="#515151"/><rect x="320" y="118" width="21" height="1" fill="#000000"/><rect x="149" y="119" width="22" height="1" fill="#000000"/><rect x="171" y="119" width="21" height="1" fill="#353535"/><rect x="192" y="119" width="128" height="1" fill="#515151"/><rect x="320" y="119" width="21" height="1" fill="#000000"/><rect x="149" y="120" width="22" height="1" fill="#000000"/><rect x="171" y="120" width="21" height="1" fill="#353535"/><rect x="192" y="120" width="128" height="1" fill="#515151"/><rect x="320" y="120" width="21" height="1" fill="#000000"/><rect x="149" y="121" width="22" height="1" fill="#000000"/><rect x="171" y="121" width="21" height="1" fill="#353535"/><rect x="192" y="121" width="128" height="1" fill="#515151"/><rect x="320" y="121" width="21" height="1" fill="#000000"/><rect x="149" y="122" width="22" height="1" fill="#000000"/><rect x="171" y="122" width="21" height="1" fill="#353535"/><rect x="192" y="122" width="128" height="1" fill="#515151"/><rect x="320" y="122" width="21" height="1" fill="#000000"/><rect x="149" y="123" width="22" height="1" fill="#000000"/><rect x="171" y="123" width="21" height="1" fill="#353535"/><rect x="192" y="123" width="128" height="1" fill="#515151"/><rect x="320" y="123" width="21" height="1" fill="#000000"/><rect x="149" y="124" width="22" height="1" fill="#000000"/><rect x="171" y="124" width="21" height="1" fill="#353535"/><rect x="192" y="124" width="128" height="1" fill="#515151"/><rect x="320" y="124" width="21" height="1" fill="#000000"/><rect x="149" y="125" width="22" height="1" fill="#000000"/><rect x="171" y="125" width="21" height="1" fill="#353535"/><rect x="192" y="125" width="128" height="1" fill="#515151"/><rect x="320" y="125" width="21" height="1" fill="#000000"/><rect x="149" y="126" width="22" height="1" fill="#000000"/><rect x="171" y="126" width="21" height="1" fill="#353535"/><rect x="192" y="126" width="128" height="1" fill="#515151"/><rect x="320" y="126" width="21" height="1" fill="#000000"/><rect x="149" y="127" width="22" height="1" fill="#000000"/><rect x="171" y="127" width="21" height="1" fill="#353535"/><rect x="192" y="127" width="128" height="1" fill="#515151"/><rect x="320" y="127" width="21" height="1" fill="#000000"/><rect x="128" y="128" width="21" height="1" fill="#000000"/><rect x="149" y="128" width="22" height="1" fill="#353535"/><rect x="171" y="128" width="170" height="1" fill="#515151"/><rect x="341" y="128" width="22" height="1" fill="#000000"/><rect x="128" y="129" width="21" height="1" fill="#000000"/><rect x="149" y="129" width="22" height="1" fill="#353535"/><rect x="171" y="129" width="170" height="1" fill="#515151"/><rect x="341" y="129" width="22" height="1" fill="#000000"/><rect x="128" y="130" width="21" height="1" fill="#000000"/><rect x="149" y="130" width="22" height="1" fill="#353535"/><rect x="171" y="130" width="170" height="1" fill="#515151"/><rect x="341" y="130" width="22" height="1" fill="#000000"/><rect x="128" y="131" width="21" height="1" fill="#000000"/><rect x="149" y="131" width="22" height="1" fill="#353535"/><rect x="171" y="131" width="170" height="1" fill="#515151"/><rect x="341" y="131" width="22" height="1" fill="#000000"/><rect x="128" y="132" width="21" height="1" fill="#000000"/><rect x="149" y="132" width="22" height="1" fill="#353535"/><rect x="171" y="132" width="170" height="1" fill="#515151"/><rect x="341" y="132" width="22" height="1" fill="#000000"/><rect x="128" y="133" width="21" height="1" fill="#000000"/><rect x="149" y="133" width="22" height="1" fill="#353535"/><rect x="171" y="133" width="170" height="1" fill="#515151"/><rect x="341" y="133" width="22" height="1" fill="#000000"/><rect x="128" y="134" width="21" height="1" fill="#000000"/><rect x="149" y="134" width="22" height="1" fill="#353535"/><rect x="171" y="134" width="170" height="1" fill="#515151"/><rect x="341" y="134" width="22" height="1" fill="#000000"/><rect x="128" y="135" width="21" height="1" fill="#000000"/><rect x="149" y="135" width="22" height="1" fill="#353535"/><rect x="171" y="135" width="170" height="1" fill="#515151"/><rect x="341" y="135" width="22" height="1" fill="#000000"/><rect x="128" y="136" width="21" height="1" fill="#000000"/><rect x="149" y="136" width="22" height="1" fill="#353535"/><rect x="171" y="136" width="170" height="1" fill="#515151"/><rect x="341" y="136" width="22" height="1" fill="#000000"/><rect x="128" y="137" width="21" height="1" fill="#000000"/><rect x="149" y="137" width="22" height="1" fill="#353535"/><rect x="171" y="137" width="170" height="1" fill="#515151"/><rect x="341" y="137" width="22" height="1" fill="#000000"/><rect x="128" y="138" width="21" height="1" fill="#000000"/><rect x="149" y="138" width="22" height="1" fill="#353535"/><rect x="171" y="138" width="170" height="1" fill="#515151"/><rect x="341" y="138" width="22" height="1" fill="#000000"/><rect x="128" y="139" width="21" height="1" fill="#000000"/><rect x="149" y="139" width="22" height="1" fill="#353535"/><rect x="171" y="139" width="170" height="1" fill="#515151"/><rect x="341" y="139" width="22" height="1" fill="#000000"/><rect x="128" y="140" width="21" height="1" fill="#000000"/><rect x="149" y="140" width="22" height="1" fill="#353535"/><rect x="171" y="140" width="170" height="1" fill="#515151"/><rect x="341" y="140" width="22" height="1" fill="#000000"/><rect x="128" y="141" width="21" height="1" fill="#000000"/><rect x="149" y="141" width="22" height="1" fill="#353535"/><rect x="171" y="141" width="170" height="1" fill="#515151"/><rect x="341" y="141" width="22" height="1" fill="#000000"/><rect x="128" y="142" width="21" height="1" fill="#000000"/><rect x="149" y="142" width="22" height="1" fill="#353535"/><rect x="171" y="142" width="170" height="1" fill="#515151"/><rect x="341" y="142" width="22" height="1" fill="#000000"/><rect x="128" y="143" width="21" height="1" fill="#000000"/><rect x="149" y="143" width="22" height="1" fill="#353535"/><rect x="171" y="143" width="170" height="1" fill="#515151"/><rect x="341" y="143" width="22" height="1" fill="#000000"/><rect x="128" y="144" width="21" height="1" fill="#000000"/><rect x="149" y="144" width="22" height="1" fill="#353535"/><rect x="171" y="144" width="170" height="1" fill="#515151"/><rect x="341" y="144" width="22" height="1" fill="#000000"/><rect x="128" y="145" width="21" height="1" fill="#000000"/><rect x="149" y="145" width="22" height="1" fill="#353535"/><rect x="171" y="145" width="170" height="1" fill="#515151"/><rect x="341" y="145" width="22" height="1" fill="#000000"/><rect x="128" y="146" width="21" height="1" fill="#000000"/><rect x="149" y="146" width="22" height="1" fill="#353535"/><rect x="171" y="146" width="170" height="1" fill="#515151"/><rect x="341" y="146" width="22" height="1" fill="#000000"/><rect x="128" y="147" width="21" height="1" fill="#000000"/><rect x="149" y="147" width="22" height="1" fill="#353535"/><rect x="171" y="147" width="170" height="1" fill="#515151"/><rect x="341" y="147" width="22" height="1" fill="#000000"/><rect x="128" y="148" width="21" height="1" fill="#000000"/><rect x="149" y="148" width="22" height="1" fill="#353535"/><rect x="171" y="148" width="170" height="1" fill="#515151"/><rect x="341" y="148" width="22" height="1" fill="#000000"/><rect x="128" y="149" width="21" height="1" fill="#000000"/><rect x="149" y="149" width="64" height="1" fill="#515151"/><rect x="213" y="149" width="171" height="1" fill="#000000"/><rect x="128" y="150" width="21" height="1" fill="#000000"/><rect x="149" y="150" width="64" height="1" fill="#515151"/><rect x="213" y="150" width="171" height="1" fill="#000000"/><rect x="128" y="151" width="21" height="1" fill="#000000"/><rect x="149" y="151" width="64" height="1" fill="#515151"/><rect x="213" y="151" width="171" height="1" fill="#000000"/><rect x="128" y="152" width="21" height="1" fill="#000000"/><rect x="149" y="152" width="64" height="1" fill="#515151"/><rect x="213" y="152" width="171" height="1" fill="#000000"/><rect x="128" y="153" width="21" height="1" fill="#000000"/><rect x="149" y="153" width="64" height="1" fill="#515151"/><rect x="213" y="153" width="171" height="1" fill="#000000"/><rect x="128" y="154" width="21" height="1" fill="#000000"/><rect x="149" y="154" width="64" height="1" fill="#515151"/><rect x="213" y="154" width="171" height="1" fill="#000000"/><rect x="128" y="155" width="21" height="1" fill="#000000"/><rect x="149" y="155" width="64" height="1" fill="#515151"/><rect x="213" y="155" width="171" height="1" fill="#000000"/><rect x="128" y="156" width="21" height="1" fill="#000000"/><rect x="149" y="156" width="64" height="1" fill="#515151"/><rect x="213" y="156" width="171" height="1" fill="#000000"/><rect x="128" y="157" width="21" height="1" fill="#000000"/><rect x="149" y="157" width="64" height="1" fill="#515151"/><rect x="213" y="157" width="171" height="1" fill="#000000"/><rect x="128" y="158" width="21" height="1" fill="#000000"/><rect x="149" y="158" width="64" height="1" fill="#515151"/><rect x="213" y="158" width="171" height="1" fill="#000000"/><rect x="128" y="159" width="21" height="1" fill="#000000"/><rect x="149" y="159" width="64" height="1" fill="#515151"/><rect x="213" y="159" width="171" height="1" fill="#000000"/><rect x="128" y="160" width="21" height="1" fill="#000000"/><rect x="149" y="160" width="64" height="1" fill="#515151"/><rect x="213" y="160" width="171" height="1" fill="#000000"/><rect x="128" y="161" width="21" height="1" fill="#000000"/><rect x="149" y="161" width="64" height="1" fill="#515151"/><rect x="213" y="161" width="171" height="1" fill="#000000"/><rect x="128" y="162" width="21" height="1" fill="#000000"/><rect x="149" y="162" width="64" height="1" fill="#515151"/><rect x="213" y="162" width="171" height="1" fill="#000000"/><rect x="128" y="163" width="21" height="1" fill="#000000"/><rect x="149" y="163" width="64" height="1" fill="#515151"/><rect x="213" y="163" width="171" height="1" fill="#000000"/><rect x="128" y="164" width="21" height="1" fill="#000000"/><rect x="149" y="164" width="64" height="1" fill="#515151"/><rect x="213" y="164" width="171" height="1" fill="#000000"/><rect x="128" y="165" width="21" height="1" fill="#000000"/><rect x="149" y="165" width="64" height="1" fill="#515151"/><rect x="213" y="165" width="171" height="1" fill="#000000"/><rect x="128" y="166" width="21" height="1" fill="#000000"/><rect x="149" y="166" width="64" height="1" fill="#515151"/><rect x="213" y="166" width="171" height="1" fill="#000000"/><rect x="128" y="167" width="21" height="1" fill="#000000"/><rect x="149" y="167" width="64" height="1" fill="#515151"/><rect x="213" y="167" width="171" height="1" fill="#000000"/><rect x="128" y="168" width="21" height="1" fill="#000000"/><rect x="149" y="168" width="64" height="1" fill="#515151"/><rect x="213" y="168" width="171" height="1" fill="#000000"/><rect x="128" y="169" width="21" height="1" fill="#000000"/><rect x="149" y="169" width="64" height="1" fill="#515151"/><rect x="213" y="169" width="171" height="1" fill="#000000"/><rect x="128" y="170" width="21" height="1" fill="#000000"/><rect x="149" y="170" width="64" height="1" fill="#515151"/><rect x="213" y="170" width="171" height="1" fill="#000000"/><rect x="128" y="171" width="21" height="1" fill="#000000"/><rect x="149" y="171" width="43" height="1" fill="#515151"/><rect x="192" y="171" width="21" height="1" fill="#000000"/><rect x="213" y="171" width="171" height="1" fill="#353535"/><rect x="384" y="171" width="21" height="1" fill="#000000"/><rect x="128" y="172" width="21" height="1" fill="#000000"/><rect x="149" y="172" width="43" height="1" fill="#515151"/><rect x="192" y="172" width="21" height="1" fill="#000000"/><rect x="213" y="172" width="171" height="1" fill="#353535"/><rect x="384" y="172" width="21" height="1" fill="#000000"/><rect x="128" y="173" width="21" height="1" fill="#000000"/><rect x="149" y="173" width="43" height="1" fill="#515151"/><rect x="192" y="173" width="21" height="1" fill="#000000"/><rect x="213" y="173" width="171" height="1" fill="#353535"/><rect x="384" y="173" width="21" height="1" fill="#000000"/><rect x="128" y="174" width="21" height="1" fill="#000000"/><rect x="149" y="174" width="43" height="1" fill="#515151"/><rect x="192" y="174" width="21" height="1" fill="#000000"/><rect x="213" y="174" width="171" height="1" fill="#353535"/><rect x="384" y="174" width="21" height="1" fill="#000000"/><rect x="128" y="175" width="21" height="1" fill="#000000"/><rect x="149" y="175" width="43" height="1" fill="#515151"/><rect x="192" y="175" width="21" height="1" fill="#000000"/><rect x="213" y="175" width="171" height="1" fill="#353535"/><rect x="384" y="175" width="21" height="1" fill="#000000"/><rect x="128" y="176" width="21" height="1" fill="#000000"/><rect x="149" y="176" width="43" height="1" fill="#515151"/><rect x="192" y="176" width="21" height="1" fill="#000000"/><rect x="213" y="176" width="171" height="1" fill="#353535"/><rect x="384" y="176" width="21" height="1" fill="#000000"/><rect x="128" y="177" width="21" height="1" fill="#000000"/><rect x="149" y="177" width="43" height="1" fill="#515151"/><rect x="192" y="177" width="21" height="1" fill="#000000"/><rect x="213" y="177" width="171" height="1" fill="#353535"/><rect x="384" y="177" width="21" height="1" fill="#000000"/><rect x="128" y="178" width="21" height="1" fill="#000000"/><rect x="149" y="178" width="43" height="1" fill="#515151"/><rect x="192" y="178" width="21" height="1" fill="#000000"/><rect x="213" y="178" width="171" height="1" fill="#353535"/><rect x="384" y="178" width="21" height="1" fill="#000000"/><rect x="128" y="179" width="21" height="1" fill="#000000"/><rect x="149" y="179" width="43" height="1" fill="#515151"/><rect x="192" y="179" width="21" height="1" fill="#000000"/><rect x="213" y="179" width="171" height="1" fill="#353535"/><rect x="384" y="179" width="21" height="1" fill="#000000"/><rect x="128" y="180" width="21" height="1" fill="#000000"/><rect x="149" y="180" width="43" height="1" fill="#515151"/><rect x="192" y="180" width="21" height="1" fill="#000000"/><rect x="213" y="180" width="171" height="1" fill="#353535"/><rect x="384" y="180" width="21" height="1" fill="#000000"/><rect x="128" y="181" width="21" height="1" fill="#000000"/><rect x="149" y="181" width="43" height="1" fill="#515151"/><rect x="192" y="181" width="21" height="1" fill="#000000"/><rect x="213" y="181" width="171" height="1" fill="#353535"/><rect x="384" y="181" width="21" height="1" fill="#000000"/><rect x="128" y="182" width="21" height="1" fill="#000000"/><rect x="149" y="182" width="43" height="1" fill="#515151"/><rect x="192" y="182" width="21" height="1" fill="#000000"/><rect x="213" y="182" width="171" height="1" fill="#353535"/><rect x="384" y="182" width="21" height="1" fill="#000000"/><rect x="128" y="183" width="21" height="1" fill="#000000"/><rect x="149" y="183" width="43" height="1" fill="#515151"/><rect x="192" y="183" width="21" height="1" fill="#000000"/><rect x="213" y="183" width="171" height="1" fill="#353535"/><rect x="384" y="183" width="21" height="1" fill="#000000"/><rect x="128" y="184" width="21" height="1" fill="#000000"/><rect x="149" y="184" width="43" height="1" fill="#515151"/><rect x="192" y="184" width="21" height="1" fill="#000000"/><rect x="213" y="184" width="171" height="1" fill="#353535"/><rect x="384" y="184" width="21" height="1" fill="#000000"/><rect x="128" y="185" width="21" height="1" fill="#000000"/><rect x="149" y="185" width="43" height="1" fill="#515151"/><rect x="192" y="185" width="21" height="1" fill="#000000"/><rect x="213" y="185" width="171" height="1" fill="#353535"/><rect x="384" y="185" width="21" height="1" fill="#000000"/><rect x="128" y="186" width="21" height="1" fill="#000000"/><rect x="149" y="186" width="43" height="1" fill="#515151"/><rect x="192" y="186" width="21" height="1" fill="#000000"/><rect x="213" y="186" width="171" height="1" fill="#353535"/><rect x="384" y="186" width="21" height="1" fill="#000000"/><rect x="128" y="187" width="21" height="1" fill="#000000"/><rect x="149" y="187" width="43" height="1" fill="#515151"/><rect x="192" y="187" width="21" height="1" fill="#000000"/><rect x="213" y="187" width="171" height="1" fill="#353535"/><rect x="384" y="187" width="21" height="1" fill="#000000"/><rect x="128" y="188" width="21" height="1" fill="#000000"/><rect x="149" y="188" width="43" height="1" fill="#515151"/><rect x="192" y="188" width="21" height="1" fill="#000000"/><rect x="213" y="188" width="171" height="1" fill="#353535"/><rect x="384" y="188" width="21" height="1" fill="#000000"/><rect x="128" y="189" width="21" height="1" fill="#000000"/><rect x="149" y="189" width="43" height="1" fill="#515151"/><rect x="192" y="189" width="21" height="1" fill="#000000"/><rect x="213" y="189" width="171" height="1" fill="#353535"/><rect x="384" y="189" width="21" height="1" fill="#000000"/><rect x="128" y="190" width="21" height="1" fill="#000000"/><rect x="149" y="190" width="43" height="1" fill="#515151"/><rect x="192" y="190" width="21" height="1" fill="#000000"/><rect x="213" y="190" width="171" height="1" fill="#353535"/><rect x="384" y="190" width="21" height="1" fill="#000000"/><rect x="128" y="191" width="21" height="1" fill="#000000"/><rect x="149" y="191" width="43" height="1" fill="#515151"/><rect x="192" y="191" width="21" height="1" fill="#000000"/><rect x="213" y="191" width="171" height="1" fill="#353535"/><rect x="384" y="191" width="21" height="1" fill="#000000"/><rect x="128" y="192" width="277" height="1" fill="#000000"/><rect x="128" y="193" width="277" height="1" fill="#000000"/><rect x="128" y="194" width="277" height="1" fill="#000000"/><rect x="128" y="195" width="277" height="1" fill="#000000"/><rect x="128" y="196" width="277" height="1" fill="#000000"/><rect x="128" y="197" width="277" height="1" fill="#000000"/><rect x="128" y="198" width="277" height="1" fill="#000000"/><rect x="128" y="199" width="277" height="1" fill="#000000"/><rect x="128" y="200" width="277" height="1" fill="#000000"/><rect x="128" y="201" width="277" height="1" fill="#000000"/><rect x="128" y="202" width="277" height="1" fill="#000000"/><rect x="128" y="203" width="277" height="1" fill="#000000"/><rect x="128" y="204" width="277" height="1" fill="#000000"/><rect x="128" y="205" width="277" height="1" fill="#000000"/><rect x="128" y="206" width="277" height="1" fill="#000000"/><rect x="128" y="207" width="277" height="1" fill="#000000"/><rect x="128" y="208" width="277" height="1" fill="#000000"/><rect x="128" y="209" width="277" height="1" fill="#000000"/><rect x="128" y="210" width="277" height="1" fill="#000000"/><rect x="128" y="211" width="277" height="1" fill="#000000"/><rect x="128" y="212" width="277" height="1" fill="#000000"/></svg>