<svg xmlns="http://www.w3.org/2000/svg" viewBox="0 0 512 512" width="512" height="512" shape-rendering="crispEdges"><rect x="149" y="85" width="43" height="1" fill="#27B142"/><rect x="299" y="85" width="42" height="1" fill="#27B142"/><rect x="149" y="86" width="43" height="1" fill="#27B142"/><rect x="299" y="86" width="42" height="1" fill="#27B142"/><rect x="149" y="87" width="43" height="1" fill="#27B142"/><rect x="299" y="87" width="42" height="1" fill="#27B142"/><rect x="149" y="88" width="43" height="1" fill="#27B142"/><rect x="299" y="88" width="42" height="1" fill="#27B142"/><rect x="149" y="89" width="43" height="1" fill="#27B142"/><rect x="299" y="89" width="42" height="1" fill="#27B142"/><rect x="149" y="90" width="43" height="1" fill="#27B142"/><rect x="299" y="90" width="42" height="1" fill="#27B142"/><rect x="149" y="91" width="43" height="1" fill="#27B142"/><rect x="299" y="91" width="42" height="1" fill="#27B142"/><rect x="149" y="92" width="43" height="1" fill="#27B142"/><rect x="299" y="92" width="42" height="1" fill="#27B142"/><rect x="149" y="93" width="43" height="1" fill="#27B142"/><rect x="299" y="93" width="42" height="1" fill="#27B142"/><rect x="149" y="94" width="43" height="1" fill="#27B142"/><rect x="299" y="94" width="42" height="1" fill="#27B142"/><rect x="149" y="95" width="43" height="1" fill="#27B142"/><rect x="299" y="95" width="42" height="1" fill="#27B142"/><rect x="149" y="96" width="43" height="1" fill="#27B142"/><rect x="299" y="96" width="42" height="1" fill="#27B142"/><rect x="149" y="97" width="43" height="1" fill="#27B142"/><rect x="299" y="97" width="42" height="1" fill="#27B142"/><rect x="149" y="98" width="43" height="1" fill="#27B142"/><rect x="299" y="98" width="42" height="1" fill="#27B142"/><rect x="149" y="99" width="43" height="1" fill="#27B142"/><rect x="299" y="99" width="42" height="1" fill="#27B142"/><rect x="149" y="100" width="43" height="1" fill="#27B142"/><rect x="299" y="100" width="42" height="1" fill="#27B142"/><rect x="149" y="101" width="43" height="1" fill="#27B142"/><rect x="299" y="101" width="42" height="1" fill="#27B142"/><rect x="149" y="102" width="43" height="1" fill="#27B142"/><rect x="299" y="102" width="42" height="1" fill="#27B142"/><rect x="149" y="103" width="43" height="1" fill="#27B142"/><rect x="299" y="103" width="42" height="1" fill="#27B142"/><rect x="149" y="104" width="43" height="1" fill="#27B142"/><rect x="299" y="104" width="42" height="1" fill="#27B142"/><rect x="149" y="105" width="43" height="1" fill="#27B142"/><rect x="299" y="105" width="42" height="1" fill="#27B142"/><rect x="149" y="106" width="43" height="1" fill="#27B142"/><rect x="299" y="106" width="42" height="1" fill="#27B142"/><rect x="128" y="107" width="43" height="1" fill="#27B142"/><rect x="320" y="107" width="43" height="1" fill="#27B142"/><rect x="128" y="108" width="43" height="1" fill="#27B142"/><rect x="320" y="108" width="43" height="1" fill="#27B142"/><rect x="128" y="109" width="43" height="1" fill="#27B142"/><rect x="320" y="109" width="43" height="1" fill="#27B142"/><rect x="128" y="110" width="43" height="1" fill="#27B142"/><rect x="320" y="110" width="43" height="1" fill="#27B142"/><rect x="128" y="111" width="43" height="1" fill="#27B142"/><rect x="320" y="111" width="43" height="1" fill="#27B142"/><rect x="128" y="112" width="43" height="1" fill="#27B142"/><rect x="320" y="112" width="43" height="1" fill="#27B142"/><rect x="128" y="113" width="43" height="1" fill="#27B142"/><rect x="320" y="113" width="43" height="1" fill="#27B142"/><rect x="128" y="114" width="43" height="1" fill="#27B142"/><rect x="320" y="114" width="43" height="1" fill="#27B142"/><rect x="128" y="115" width="43" height="1" fill="#27B142"/><rect x="320" y="115" width="43" height="1" fill="#27B142"/><rect x="128" y="116" width="43" height="1" fill="#27B142"/><rect x="320" y="116" width="43" height="1" fill="#27B142"/><rect x="128" y="117" width="43" height="1" fill="#27B142"/><rect x="320" y="117" width="43" height="1" fill="#27B142"/><rect x="128" y="118" width="43" height="1" fill="#27B142"/><rect x="320" y="118" width="43" height="1" fill="#27B142"/><rect x="128" y="119" width="43" height="1" fill="#27B142"/><rect x="320" y="119" width="43" height="1" fill="#27B142"/><rect x="128" y="120" width="43" height="1" fill="#27B142"/><rect x="320" y="120" width="43" height="1" fill="#27B142"/><rect x="128" y="121" width="43" height="1" fill="#27B142"/><rect x="320" y="121" width="43" height="1" fill="#27B142"/><rect x="128" y="122" width="43" height="1" fill="#27B142"/><rect x="320" y="122" width="43" height="1" fill="#27B142"/><rect x="128" y="123" width="43" height="1" fill="#27B142"/><rect x="320" y="123" width="43" height="1" fill="#27B142"/><rect x="128" y="124" width="43" height="1" fill="#27B142"/><rect x="320" y="124" width="43" height="1" fill="#27B142"/><rect x="128" y="125" width="43" height="1" fill="#27B142"/><rect x="320" y="125" width="43" height="1" fill="#27B142"/><rect x="128" y="126" width="43" height="1" fill="#27B142"/><rect x="320" y="126" width="43" height="1" fill="#27B142"/><rect x="128" y="127" width="43" height="1" fill="#27B142"/><rect x="320" y="127" width="43" height="1" fill="#27B142"/><rect x="107" y="128" width="64" height="1" fill="#27B142"/><rect x="320" y="128" width="64" height="1" fill="#27B142"/><rect x="107" y="129" width="64" height="1" fill="#27B142"/><rect x="320" y="129" width="64" height="1" fill="#27B142"/><rect x="107" y="130" width="64" height="1" fill="#27B142"/><rect x="320" y="130" width="64" height="1" fill="#27B142"/><rect x="107" y="131" width="64" height="1" fill="#27B142"/><rect x="320" y="131" width="64" height="1" fill="#27B142"/><rect x="107" y="132" width="64" height="1" fill="#27B142"/><rect x="320" y="132" width="64" height="1" fill="#27B142"/><rect x="107" y="133" width="64" height="1" fill="#27B142"/><rect x="320" y="133" width="64" height="1" fill="#27B142"/><rect x="107" y="134" width="64" height="1" fill="#27B142"/><rect x="320" y="134" width="64" height="1" fill="#27B142"/><rect x="107" y="135" width="64" height="1" fill="#27B142"/><rect x="320" y="135" width="64" height="1" fill="#27B142"/><rect x="107" y="136" width="64" height="1" fill="#27B142"/><rect x="320" y="136" width="64" height="1" fill="#27B142"/><rect x="107" y="137" width="64" height="1" fill="#27B142"/><rect x="320" y="137" width="64" height="1" fill="#27B142"/><rect x="107" y="138" width="64" height="1" fill="#27B142"/><rect x="320" y="138" width="64" height="1" fill="#27B142"/><rect x="107" y="139" width="64" height="1" fill="#27B142"/><rect x="320" y="139" width="64" height="1" fill="#27B142"/><rect x="107" y="140" width="64" height="1" fill="#27B142"/><rect x="320" y="140" width="64" height="1" fill="#27B142"/><rect x="107" y="141" width="64" height="1" fill="#27B142"/><rect x="320" y="141" width="64" height="1" fill="#27B142"/><rect x="107" y="142" width="64" height="1" fill="#27B142"/><rect x="320" y="142" width="64" height="1" fill="#27B142"/><rect x="107" y="143" width="64" height="1" fill="#27B142"/><rect x="320" y="143" width="64" height="1" fill="#27B142"/><rect x="107" y="144" width="64" height="1" fill="#27B142"/><rect x="320" y="144" width="64" height="1" fill="#27B142"/><rect x="107" y="145" width="64" height="1" fill="#27B142"/><rect x="320" y="145" width="64" height="1" fill="#27B142"/><rect x="107" y="146" width="64" height="1" fill="#27B142"/><rect x="320" y="146" width="64" height="1" fill="#27B142"/><rect x="107" y="147" width="64" height="1" fill="#27B142"/><rect x="320" y="147" width="64" height="1" fill="#27B142"/><rect x="107" y="148" width="64" height="1" fill="#27B142"/><rect x="320" y="148" width="64" height="1" fill="#27B142"/><rect x="85" y="149" width="64" height="1" fill="#27B142"/><rect x="341" y="149" width="64" height="1" fill="#27B142"/><rect x="85" y="150" width="64" height="1" fill="#27B142"/><rect x="341" y="150" width="64" height="1" fill="#27B142"/><rect x="85" y="151" width="64" height="1" fill="#27B142"/><rect x="341" y="151" width="64" height="1" fill="#27B142"/><rect x="85" y="152" width="64" height="1" fill="#27B142"/><rect x="341" y="152" width="64" height="1" fill="#27B142"/><rect x="85" y="153" width="64" height="1" fill="#27B142"/><rect x="341" y="153" width="64" height="1" fill="#27B142"/><rect x="85" y="154" width="64" height="1" fill="#27B142"/><rect x="341" y="154" width="64" height="1" fill="#27B142"/><rect x="85" y="155" width="64" height="1" fill="#27B142"/><rect x="341" y="155" width="64" height="1" fill="#27B142"/><rect x="85" y="156" width="64" height="1" fill="#27B142"/><rect x="341" y="156" width="64" height="1" fill="#27B142"/><rect x="85" y="157" width="64" height="1" fill="#27B142"/><rect x="341" y="157" width="64" height="1" fill="#27B142"/><rect x="85" y="158" width="64" height="1" fill="#27B142"/><rect x="341" y="158" width="64" height="1" fill="#27B142"/><rect x="85" y="159" width="64" height="1" fill="#27B142"/><rect x="341" y="159" width="64" height="1" fill="#27B142"/><rect x="85" y="160" width="64" height="1" fill="#27B142"/><rect x="341" y="160" width="64" height="1" fill="#27B142"/><rect x="85" y="161" width="64" height="1" fill="#27B142"/><rect x="341" y="161" width="64" height="1" fill="#27B142"/><rect x="85" y="162" width="64" height="1" fill="#27B142"/><rect x="341" y="162" width="64" height="1" fill="#27B142"/><rect x="85" y="163" width="64" height="1" fill="#27B142"/><rect x="341" y="163" width="64" height="1" fill="#27B142"/><rect x="85" y="164" width="64" height="1" fill="#27B142"/><rect x="341" y="164" width="64" height="1" fill="#27B142"/><rect x="85" y="165" width="64" height="1" fill="#27B142"/><rect x="341" y="165" width="64" height="1" fill="#27B142"/><rect x="85" y="166" width="64" height="1" fill="#27B142"/><rect x="341" y="166" width="64" height="1" fill="#27B142"/><rect x="85" y="167" width="64" height="1" fill="#27B142"/><rect x="341" y="167" width="64" height="1" fill="#27B142"/><rect x="85" y="168" width="64" height="1" fill="#27B142"/><rect x="341" y="168" width="64" height="1" fill="#27B142"/><rect x="85" y="169" width="64" height="1" fill="#27B142"/><rect x="341" y="169" width="64" height="1" fill="#27B142"/><rect x="85" y="170" width="64" height="1" fill="#27B142"/><rect x="341" y="170" width="64" height="1" fill="#27B142"/><rect x="85" y="171" width="64" height="1" fill="#27B142"/><rect x="341" y="171" width="64" height="1" fill="#27B142"/><rect x="85" y="172" width="64" height="1" fill="#27B142"/><rect x="341" y="172" width="64" height="1" fill="#27B142"/><rect x="85" y="173" width="64" height="1" fill="#27B142"/><rect x="341" y="173" width="64" height="1" fill="#27B142"/><rect x="85" y="174" width="64" height="1" fill="#27B142"/><rect x="341" y="174" width="64" height="1" fill="#27B142"/><rect x="85" y="175" width="64" height="1" fill="#27B142"/><rect x="341" y="175" width="64" height="1" fill="#27B142"/><rect x="85" y="176" width="64" height="1" fill="#27B142"/><rect x="341" y="176" width="64" height="1" fill="#27B142"/><rect x="85" y="177" width="64" height="1" fill="#27B142"/><rect x="341" y="177" width="64" height="1" fill="#27B142"/><rect x="85" y="178" width="64" height="1" fill="#27B142"/><rect x="341" y="178" width="64" height="1" fill="#27B142"/><rect x="85" y="179" width="64" height="1" fill="#27B142"/><rect x="341" y="179" width="64" height="1" fill="#27B142"/><rect x="85" y="180" width="64" height="1" fill="#27B142"/><rect x="341" y="180" width="64" height="1" fill="#27B142"/><rect x="85" y="181" width="64" height="1" fill="#27B142"/><rect x="341" y="181" width="64" height="1" fill="#27B142"/><rect x="85" y="182" width="64" height="1" fill="#27B142"/><rect x="341" y="182" width="64" height="1" fill="#27B142"/><rect x="85" y="183" width="64" height="1" fill="#27B142"/><rect x="341" y="183" width="64" height="1" fill="#27B142"/><rect x="85" y="184" width="64" height="1" fill="#27B142"/><rect x="341" y="184" width="64" height="1" fill="#27B142"/><rect x="85" y="185" width="64" height="1" fill="#27B142"/><rect x="341" y="185" width="64" height="1" fill="#27B142"/><rect x="85" y="186" width="64" height="1" fill="#27B142"/><rect x="341" y="186" width="64" height="1" fill="#27B142"/><rect x="85" y="187" width="64" height="1" fill="#27B142"/><rect x="341" y="187" width="64" height="1" fill="#27B142"/><rect x="85" y="188" width="64" height="1" fill="#27B142"/><rect x="341" y="188" width="64" height="1" fill="#27B142"/><rect x="85" y="189" width="64" height="1" fill="#27B142"/><rect x="341" y="189" width="64" height="1" fill="#27B142"/><rect x="85" y="190" width="64" height="1" fill="#27B142"/><rect x="341" y="190" width="64" height="1" fill="#27B142"/><rect x="85" y="191" width="64" height="1" fill="#27B142"/><rect x="341" y="191" width="64" height="1" fill="#27B142"/><rect x="43" y="192" width="106" height="1" fill="#27B142"/><rect x="341" y="192" width="107" height="1" fill="#27B142"/><rect x="43" y="193" width="106" height="1" fill="#27B142"/><rect x="341" y="193" width="107" height="1" fill="#27B142"/><rect x="43" y="194" width="106" height="1" fill="#27B142"/><rect x="341" y="194" width="107" height="1" fill="#27B142"/><rect x="43" y="195" width="106" height="1" fill="#27B142"/><rect x="341" y="195" width="107" height="1" fill="#27B142"/><rect x="43" y="196" width="106" height="1" fill="#27B142"/><rect x="341" y="196" width="107" height="1" fill="#27B142"/><rect x="43" y="197" width="106" height="1" fill="#27B142"/><rect x="341" y="197" width="107" height="1" fill="#27B142"/><rect x="43" y="198" width="106" height="1" fill="#27B142"/><rect x="341" y="198" width="107" height="1" fill="#27B142"/><rect x="43" y="199" width="106" height="1" fill="#27B142"/><rect x="341" y="199" width="107" height="1" fill="#27B142"/><rect x="43" y="200" width="106" height="1" fill="#27B142"/><rect x="341" y="200" width="107" height="1" fill="#27B142"/><rect x="43" y="201" width="106" height="1" fill="#27B142"/><rect x="341" y="201" width="107" height="1" fill="#27B142"/><rect x="43" y="202" width="106" height="1" fill="#27B142"/><rect x="341" y="202" width="107" height="1" fill="#27B142"/><rect x="43" y="203" width="106" height="1" fill="#27B142"/><rect x="341" y="203" width="107" height="1" fill="#27B142"/><rect x="43" y="204" width="106" height="1" fill="#27B142"/><rect x="341" y="204" width="107" height="1" fill="#27B142"/><rect x="43" y="205" width="106" height="1" fill="#27B142"/><rect x="341" y="205" width="107" height="1" fill="#27B142"/><rect x="43" y="206" width="106" height="1" fill="#27B142"/><rect x="341" y="206" width="107" height="1" fill="#27B142"/><rect x="43" y="207" width="106" height="1" fill="#27B142"/><rect x="341" y="207" width="107" height="1" fill="#27B142"/><rect x="43" y="208" width="106" height="1" fill="#27B142"/><rect x="341" y="208" width="107" height="1" fill="#27B142"/><rect x="43" y="209" width="106" height="1" fill="#27B142"/><rect x="341" y="209" width="107" height="1" fill="#27B142"/><rect x="43" y="210" width="106" height="1" fill="#27B142"/><rect x="341" y="210" width="107" height="1" fill="#27B142"/><rect x="43" y="211" width="106" height="1" fill="#27B142"/><rect x="341" y="211" width="107" height="1" fill="#27B142"/><rect x="43" y="212" width="106" height="1" fill="#27B142"/><rect x="341" y="212" width="107" height="1" fill="#27B142"/><rect x="43" y="213" width="106" height="1" fill="#27B142"/><rect x="341" y="213" width="107" height="1" fill="#27B142"/><rect x="43" y="214" width="106" height="1" fill="#27B142"/><rect x="341" y="214" width="107" height="1" fill="#27B142"/><rect x="43" y="215" width="106" height="1" fill="#27B142"/><rect x="341" y="215" width="107" height="1" fill="#27B142"/><rect x="43" y="216" width="106" height="1" fill="#27B142"/><rect x="341" y="216" width="107" height="1" fill="#27B142"/><rect x="43" y="217" width="106" height="1" fill="#27B142"/><rect x="341" y="217" width="107" height="1" fill="#27B142"/><rect x="43" y="218" width="106" height="1" fill="#27B142"/><rect x="341" y="218" width="107" height="1" fill="#27B142"/><rect x="43" y="219" width="106" height="1" fill="#27B142"/><rect x="341" y="219" width="107" height="1" fill="#27B142"/><rect x="43" y="220" width="106" height="1" fill="#27B142"/><rect x="341" y="220" width="107" height="1" fill="#27B142"/><rect x="43" y="221" width="106" height="1" fill="#27B142"/><rect x="341" y="221" width="107" height="1" fill="#27B142"/><rect x="43" y="222" width="106" height="1" fill="#27B142"/><rect x="341" y="222" width="107" height="1" fill="#27B142"/><rect x="43" y="223" width="106" height="1" fill="#27B142"/><rect x="341" y="223" width="107" height="1" fill="#27B142"/><rect x="43" y="224" width="106" height="1" fill="#27B142"/><rect x="341" y="224" width="107" height="1" fill="#27B142"/><rect x="43" y="225" width="106" height="1" fill="#27B142"/><rect x="341" y="225" width="107" height="1" fill="#27B142"/><rect x="43" y="226" width="106" height="1" fill="#27B142"/><rect x="341" y="226" width="107" height="1" fill="#27B142"/><rect x="43" y="227" width="106" height="1" fill="#27B142"/><rect x="341" y="227" width="107" height="1" fill="#27B142"/><rect x="43" y="228" width="106" height="1" fill="#27B142"/><rect x="341" y="228" width="107" height="1" fill="#27B142"/><rect x="43" y="229" width="106" height="1" fill="#27B142"/><rect x="341" y="229" width="107" height="1" fill="#27B142"/><rect x="43" y="230" width="106" height="1" fill="#27B142"/><rect x="341" y="230" width="107" height="1" fill="#27B142"/><rect x="43" y="231" width="106" height="1" fill="#27B142"/><rect x="341" y="231" width="107" height="1" fill="#27B142"/><rect x="43" y="232" width="106" height="1" fill="#27B142"/><rect x="341" y="232" width="107" height="1" fill="#27B142"/><rect x="43" y="233" width="106" height="1" fill="#27B142"/><rect x="341" y="233" width="107" height="1" fill="#27B142"/><rect x="43" y="234" width="106" height="1" fill="#27B142"/><rect x="341" y="234" width="107" height="1" fill="#27B142"/><rect x="64" y="235" width="85" height="1" fill="#27B142"/><rect x="341" y="235" width="86" height="1" fill="#27B142"/><rect x="64" y="236" width="85" height="1" fill="#27B142"/><rect x="341" y="236" width="86" height="1" fill="#27B142"/><rect x="64" y="237" width="85" height="1" fill="#27B142"/><rect x="341" y="237" width="86" height="1" fill="#27B142"/><rect x="64" y="238" width="85" height="1" fill="#27B142"/><rect x="341" y="238" width="86" height="1" fill="#27B142"/><rect x="64" y="239" width="85" height="1" fill="#27B142"/><rect x="341" y="239" width="86" height="1" fill="#27B142"/><rect x="64" y="240" width="85" height="1" fill="#27B142"/><rect x="341" y="240" width="86" height="1" fill="#27B142"/><rect x="64" y="241" width="85" height="1" fill="#27B142"/><rect x="341" y="241" width="86" height="1" fill="#27B142"/><rect x="64" y="242" width="85" height="1" fill="#27B142"/><rect x="341" y="242" width="86" height="1" fill="#27B142"/><rect x="64" y="243" width="85" height="1" fill="#27B142"/><rect x="341" y="243" width="86" height="1" fill="#27B142"/><rect x="64" y="244" width="85" height="1" fill="#27B142"/><rect x="341" y="244" width="86" height="1" fill="#27B142"/><rect x="64" y="245" width="85" height="1" fill="#27B142"/><rect x="341" y="245" width="86" height="1" fill="#27B142"/><rect x="64" y="246" width="85" height="1" fill="#27B142"/><rect x="341" y="246" width="86" height="1" fill="#27B142"/><rect x="64" y="247" width="85" height="1" fill="#27B142"/><rect x="341" y="247" width="86" height="1" fill="#27B142"/><rect x="64" y="248" width="85" height="1" fill="#27B142"/><rect x="341" y="248" width="86" height="1" fill="#27B142"/><rect x="64" y="249" width="85" height="1" fill="#27B142"/><rect x="341" y="249" width="86" height="1" fill="#27B142"/><rect x="64" y="250" width="85" height="1" fill="#27B142"/><rect x="341" y="250" width="86" height="1" fill="#27B142"/><rect x="64" y="251" width="85" height="1" fill="#27B142"/><rect x="341" y="251" width="86" height="1" fill="#27B142"/><rect x="64" y="252" width="85" height="1" fill="#27B142"/><rect x="341" y="252" width="86" height="1" fill="#27B142"/><rect x="64" y="253" width="85" height="1" fill="#27B142"/><rect x="341" y="253" width="86" height="1" fill="#27B142"/><rect x="64" y="254" width="85" height="1" fill="#27B142"/><rect x="341" y="254" width="86" height="1" fill="#27B142"/><rect x="64" y="255" width="85" height="1" fill="#27B142"/><rect x="341" y="255" width="86" height="1" fill="#27B142"/><rect x="85" y="256" width="43" height="1" fill="#27B142"/><rect x="341" y="256" width="64" height="1" fill="#27B142"/><rect x="85" y="257" width="43" height="1" fill="#27B142"/><rect x="341" y="257" width="64" height="1" fill="#27B142"/><rect x="85" y="258" width="43" height="1" fill="#27B142"/><rect x="341" y="258" width="64" height="1" fill="#27B142"/><rect x="85" y="259" width="43" height="1" fill="#27B142"/><rect x="341" y="259" width="64" height="1" fill="#27B142"/><rect x="85" y="260" width="43" height="1" fill="#27B142"/><rect x="341" y="260" width="64" height="1" fill="#27B142"/><rect x="85" y="261" width="43" height="1" fill="#27B142"/><rect x="341" y="261" width="64" height="1" fill="#27B142"/><rect x="85" y="262" width="43" height="1" fill="#27B142"/><rect x="341" y="262" width="64" height="1" fill="#27B142"/><rect x="85" y="263" width="43" height="1" fill="#27B142"/><rect x="341" y="263" width="64" height="1" fill="#27B142"/><rect x="85" y="264" width="43" height="1" fill="#27B142"/><rect x="341" y="264" width="64" height="1" fill="#27B142"/><rect x="85" y="265" width="43" height="1" fill="#27B142"/><rect x="341" y="265" width="64" height="1" fill="#27B142"/><rect x="85" y="266" width="43" height="1" fill="#27B142"/><rect x="341" y="266" width="64" height="1" fill="#27B142"/><rect x="85" y="267" width="43" height="1" fill="#27B142"/><rect x="341" y="267" width="64" height="1" fill="#27B142"/><rect x="85" y="268" width="43" height="1" fill="#27B142"/><rect x="341" y="268" width="64" height="1" fill="#27B142"/><rect x="85" y="269" width="43" height="1" fill="#27B142"/><rect x="341" y="269" width="64" height="1" fill="#27B142"/><rect x="85" y="270" width="43" height="1" fill="#27B142"/><rect x="341" y="270" width="64" height="1" fill="#27B142"/><rect x="85" y="271" width="43" height="1" fill="#27B142"/><rect x="341" y="271" width="64" height="1" fill="#27B142"/><rect x="85" y="272" width="43" height="1" fill="#27B142"/><rect x="341" y="272" width="64" height="1" fill="#27B142"/><rect x="85" y="273" width="43" height="1" fill="#27B142"/><rect x="341" y="273" width="64" height="1" fill="#27B142"/><rect x="85" y="274" width="43" height="1" fill="#27B142"/><rect x="341" y="274" width="64" height="1" fill="#27B142"/><rect x="85" y="275" width="43" height="1" fill="#27B142"/><rect x="341" y="275" width="64" height="1" fill="#27B142"/><rect x="85" y="276" width="43" height="1" fill="#27B142"/><rect x="341" y="276" width="64" height="1" fill="#27B142"/><rect x="107" y="277" width="21" height="1" fill="#27B142"/><rect x="363" y="277" width="21" height="1" fill="#27B142"/><rect x="107" y="278" width="21" height="1" fill="#27B142"/><rect x="363" y="278" width="21" height="1" fill="#27B142"/><rect x="107" y="279" width="21" height="1" fill="#27B142"/><rect x="363" y="279" width="21" height="1" fill="#27B142"/><rect x="107" y="280" width="21" height="1" fill="#27B142"/><rect x="363" y="280" width="21" height="1" fill="#27B142"/><rect x="107" y="281" width="21" height="1" fill="#27B142"/><rect x="363" y="281" width="21" height="1" fill="#27B142"/><rect x="107" y="282" width="21" height="1" fill="#27B142"/><rect x="363" y="282" width="21" height="1" fill="#27B142"/><rect x="107" y="283" width="21" height="1" fill="#27B142"/><rect x="363" y="283" width="21" height="1" fill="#27B142"/><rect x="107" y="284" width="21" height="1" fill="#27B142"/><rect x="363" y="284" width="21" height="1" fill="#27B142"/><rect x="107" y="285" width="21" height="1" fill="#27B142"/><rect x="363" y="285" width="21" height="1" fill="#27B142"/><rect x="107" y="286" width="21" height="1" fill="#27B142"/><rect x="363" y="286" width="21" height="1" fill="#27B142"/><rect x="107" y="287" width="21" height="1" fill="#27B142"/><rect x="363" y="287" width="21" height="1" fill="#27B142"/><rect x="107" y="288" width="21" height="1" fill="#27B142"/><rect x="363" y="288" width="21" height="1" fill="#27B142"/><rect x="107" y="289" width="21" height="1" fill="#27B142"/><rect x="363" y="289" width="21" height="1" fill="#27B142"/><rect x="107" y="290" width="21" height="1" fill="#27B142"/><rect x="363" y="290" width="21" height="1" fill="#27B142"/><rect x="107" y="291" width="21" height="1" fill="#27B142"/><rect x="363" y="291" width="21" height="1" fill="#27B142"/><rect x="107" y="292" width="21" height="1" fill="#27B142"/><rect x="363" y="292" width="21" height="1" fill="#27B142"/><rect x="107" y="293" width="21" height="1" fill="#27B142"/><rect x="363" y="293" width="21" height="1" fill="#27B142"/><rect x="107" y="294" width="21" height="1" fill="#27B142"/><rect x="363" y="294" width="21" height="1" fill="#27B142"/><rect x="107" y="295" width="21" height="1" fill="#27B142"/><rect x="363" y="295" width="21" height="1" fill="#27B142"/><rect x="107" y="296" width="21" height="1" fill="#27B142"/><rect x="363" y="296" width="21" height="1" fill="#27B142"/><rect x="107" y="297" width="21" height="1" fill="#27B142"/><rect x="363" y="297" width="21" height="1" fill="#27B142"/><rect x="107" y="298" width="21" height="1" fill="#27B142"/><rect x="363" y="298" width="21" height="1" fill="#27B142"/><rect x="363" y="299" width="21" height="1" fill="#000000"/><rect x="363" y="300" width="21" height="1" fill="#000000"/><rect x="363" y="301" width="21" height="1" fill="#000000"/><rect x="363" y="302" width="21" height="1" fill="#000000"/><rect x="363" y="303" width="21" height="1" fill="#000000"/><rect x="363" y="304" width="21" height="1" fill="#000000"/><rect x="363" y="305" width="21" height="1" fill="#000000"/><rect x="363" y="306" width="21" height="1" fill="#000000"/><rect x="363" y="307" width="21" height="1" fill="#000000"/><rect x="363" y="308" width="21" height="1" fill="#000000"/><rect x="363" y="309" width="21" height="1" fill="#000000"/><rect x="363" y="310" width="21" height="1" fill="#000000"/><rect x="363" y="311" width="21" height="1" fill="#000000"/><rect x="363" y="312" width="21" height="1" fill="#000000"/><rect x="363" y="313" width="21" height="1" fill="#000000"/><rect x="363" y="314" width="21" height="1" fill="#000000"/><rect x="363" y="315" width="21" height="1" fill="#000000"/><rect x="363" y="316" width="21" height="1" fill="#000000"/><rect x="363" y="317" width="21" height="1" fill="#000000"/><rect x="363" y="318" width="21" height="1" fill="#000000"/><rect x="363" y="319" width="21" height="1" fill="#000000"/></svg>