<svg xmlns="http://www.w3.org/2000/svg" viewBox="0 0 512 512" width="512" height="512" shape-rendering="crispEdges"><rect x="171" y="64" width="42" height="1" fill="#794B10"/><rect x="277" y="64" width="43" height="1" fill="#794B10"/><rect x="171" y="65" width="42" height="1" fill="#794B10"/><rect x="277" y="65" width="43" height="1" fill="#794B10"/><rect x="171" y="66" width="42" height="1" fill="#794B10"/><rect x="277" y="66" width="43" height="1" fill="#794B10"/><rect x="171" y="67" width="42" height="1" fill="#794B10"/><rect x="277" y="67" width="43" height="1" fill="#794B10"/><rect x="171" y="68" width="42" height="1" fill="#794B10"/><rect x="277" y="68" width="43" height="1" fill="#794B10"/><rect x="171" y="69" width="42" height="1" fill="#794B10"/><rect x="277" y="69" width="43" height="1" fill="#794B10"/><rect x="171" y="70" width="42" height="1" fill="#794B10"/><rect x="277" y="70" width="43" height="1" fill="#794B10"/><rect x="171" y="71" width="42" height="1" fill="#794B10"/><rect x="277" y="71" width="43" height="1" fill="#794B10"/><rect x="171" y="72" width="42" height="1" fill="#794B10"/><rect x="277" y="72" width="43" height="1" fill="#794B10"/><rect x="171" y="73" width="42" height="1" fill="#794B10"/><rect x="277" y="73" width="43" height="1" fill="#794B10"/><rect x="171" y="74" width="42" height="1" fill="#794B10"/><rect x="277" y="74" width="43" height="1" fill="#794B10"/><rect x="171" y="75" width="42" height="1" fill="#794B10"/><rect x="277" y="75" width="43" height="1" fill="#794B10"/><rect x="171" y="76" width="42" height="1" fill="#794B10"/><rect x="277" y="76" width="43" height="1" fill="#794B10"/><rect x="171" y="77" width="42" height="1" fill="#794B10"/><rect x="277" y="77" width="43" height="1" fill="#794B10"/><rect x="171" y="78" width="42" height="1" fill="#794B10"/><rect x="277" y="78" width="43" height="1" fill="#794B10"/><rect x="171" y="79" width="42" height="1" fill="#794B10"/><rect x="277" y="79" width="43" height="1" fill="#794B10"/><rect x="171" y="80" width="42" height="1" fill="#794B10"/><rect x="277" y="80" width="43" height="1" fill="#794B10"/><rect x="171" y="81" width="42" height="1" fill="#794B10"/><rect x="277" y="81" width="43" height="1" fill="#794B10"/><rect x="171" y="82" width="42" height="1" fill="#794B10"/><rect x="277" y="82" width="43" height="1" fill="#794B10"/><rect x="171" y="83" width="42" height="1" fill="#794B10"/><rect x="277" y="83" width="43" height="1" fill="#794B10"/><rect x="171" y="84" width="42" height="1" fill="#794B10"/><rect x="277" y="84" width="43" height="1" fill="#794B10"/><rect x="149" y="85" width="192" height="1" fill="#794B10"/><rect x="149" y="86" width="192" height="1" fill="#794B10"/><rect x="149" y="87" width="192" height="1" fill="#794B10"/><rect x="149" y="88" width="192" height="1" fill="#794B10"/><rect x="149" y="89" width="192" height="1" fill="#794B10"/><rect x="149" y="90" width="192" height="1" fill="#794B10"/><rect x="149" y="91" width="192" height="1" fill="#794B10"/><rect x="149" y="92" width="192" height="1" fill="#794B10"/><rect x="149" y="93" width="192" height="1" fill="#794B10"/><rect x="149" y="94" width="192" height="1" fill="#794B10"/><rect x="149" y="95" width="192" height="1" fill="#794B10"/><rect x="149" y="96" width="192" height="1" fill="#794B10"/><rect x="149" y="97" width="192" height="1" fill="#794B10"/><rect x="149" y="98" width="192" height="1" fill="#794B10"/><rect x="149" y="99" width="192" height="1" fill="#794B10"/><rect x="149" y="100" width="192" height="1" fill="#794B10"/><rect x="149" y="101" width="192" height="1" fill="#794B10"/><rect x="149" y="102" width="192" height="1" fill="#794B10"/><rect x="149" y="103" width="192" height="1" fill="#794B10"/><rect x="149" y="104" width="192" height="1" fill="#794B10"/><rect x="149" y="105" width="192" height="1" fill="#794B10"/><rect x="149" y="106" width="192" height="1" fill="#794B10"/><rect x="149" y="107" width="22" height="1" fill="#7A4A14"/><rect x="171" y="107" width="170" height="1" fill="#794B10"/><rect x="149" y="108" width="22" height="1" fill="#7A4A14"/><rect x="171" y="108" width="170" height="1" fill="#794B10"/><rect x="149" y="109" width="22" height="1" fill="#7A4A14"/><rect x="171" y="109" width="170" height="1" fill="#794B10"/><rect x="149" y="110" width="22" height="1" fill="#7A4A14"/><rect x="171" y="110" width="170" height="1" fill="#794B10"/><rect x="149" y="111" width="22" height="1" fill="#7A4A14"/><rect x="171" y="111" width="170" height="1" fill="#794B10"/><rect x="149" y="112" width="22" height="1" fill="#7A4A14"/><rect x="171" y="112" width="170" height="1" fill="#794B10"/><rect x="149" y="113" width="22" height="1" fill="#7A4A14"/><rect x="171" y="113" width="170" height="1" fill="#794B10"/><rect x="149" y="114" width="22" height="1" fill="#7A4A14"/><rect x="171" y="114" width="170" height="1" fill="#794B10"/><rect x="149" y="115" width="22" height="1" fill="#7A4A14"/><rect x="171" y="115" width="170" height="1" fill="#794B10"/><rect x="149" y="116" width="22" height="1" fill="#7A4A14"/><rect x="171" y="116" width="170" height="1" fill="#794B10"/><rect x="149" y="117" width="22" height="1" fill="#7A4A14"/><rect x="171" y="117" width="170" height="1" fill="#794B10"/><rect x="149" y="118" width="22" height="1" fill="#7A4A14"/><rect x="171" y="118" width="170" height="1" fill="#794B10"/><rect x="149" y="119" width="22" height="1" fill="#7A4A14"/><rect x="171" y="119" width="170" height="1" fill="#794B10"/><rect x="149" y="120" width="22" height="1" fill="#7A4A14"/><rect x="171" y="120" width="170" height="1" fill="#794B10"/><rect x="149" y="121" width="22" height="1" fill="#7A4A14"/><rect x="171" y="121" width="170" height="1" fill="#794B10"/><rect x="149" y="122" width="22" height="1" fill="#7A4A14"/><rect x="171" y="122" width="170" height="1" fill="#794B10"/><rect x="149" y="123" width="22" height="1" fill="#7A4A14"/><rect x="171" y="123" width="170" height="1" fill="#794B10"/><rect x="149" y="124" width="22" height="1" fill="#7A4A14"/><rect x="171" y="124" width="170" height="1" fill="#794B10"/><rect x="149" y="125" width="22" height="1" fill="#7A4A14"/><rect x="171" y="125" width="170" height="1" fill="#794B10"/><rect x="149" y="126" width="22" height="1" fill="#7A4A14"/><rect x="171" y="126" width="170" height="1" fill="#794B10"/><rect x="149" y="127" width="22" height="1" fill="#7A4A14"/><rect x="171" y="127" width="170" height="1" fill="#794B10"/><rect x="149" y="128" width="192" height="1" fill="#794B10"/><rect x="149" y="129" width="192" height="1" fill="#794B10"/><rect x="149" y="130" width="192" height="1" fill="#794B10"/><rect x="149" y="131" width="192" height="1" fill="#794B10"/><rect x="149" y="132" width="192" height="1" fill="#794B10"/><rect x="149" y="133" width="192" height="1" fill="#794B10"/><rect x="149" y="134" width="192" height="1" fill="#794B10"/><rect x="149" y="135" width="192" height="1" fill="#794B10"/><rect x="149" y="136" width="192" height="1" fill="#794B10"/><rect x="149" y="137" width="192" height="1" fill="#794B10"/><rect x="149" y="138" width="192" height="1" fill="#794B10"/><rect x="149" y="139" width="192" height="1" fill="#794B10"/><rect x="149" y="140" width="192" height="1" fill="#794B10"/><rect x="149" y="141" width="192" height="1" fill="#794B10"/><rect x="149" y="142" width="192" height="1" fill="#794B10"/><rect x="149" y="143" width="192" height="1" fill="#794B10"/><rect x="149" y="144" width="192" height="1" fill="#794B10"/><rect x="149" y="145" width="192" height="1" fill="#794B10"/><rect x="149" y="146" width="192" height="1" fill="#794B10"/><rect x="149" y="147" width="192" height="1" fill="#794B10"/><rect x="149" y="148" width="192" height="1" fill="#794B10"/><rect x="43" y="149" width="21" height="1" fill="#794B10"/><rect x="128" y="149" width="235" height="1" fill="#4C3104"/><rect x="427" y="149" width="21" height="1" fill="#794B10"/><rect x="43" y="150" width="21" height="1" fill="#794B10"/><rect x="128" y="150" width="235" height="1" fill="#4C3104"/><rect x="427" y="150" width="21" height="1" fill="#794B10"/><rect x="43" y="151" width="21" height="1" fill="#794B10"/><rect x="128" y="151" width="235" height="1" fill="#4C3104"/><rect x="427" y="151" width="21" height="1" fill="#794B10"/><rect x="43" y="152" width="21" height="1" fill="#794B10"/><rect x="128" y="152" width="235" height="1" fill="#4C3104"/><rect x="427" y="152" width="21" height="1" fill="#794B10"/><rect x="43" y="153" width="21" height="1" fill="#794B10"/><rect x="128" y="153" width="235" height="1" fill="#4C3104"/><rect x="427" y="153" width="21" height="1" fill="#794B10"/><rect x="43" y="154" width="21" height="1" fill="#794B10"/><rect x="128" y="154" width="235" height="1" fill="#4C3104"/><rect x="427" y="154" width="21" height="1" fill="#794B10"/><rect x="43" y="155" width="21" height="1" fill="#794B10"/><rect x="128" y="155" width="235" height="1" fill="#4C3104"/><rect x="427" y="155" width="21" height="1" fill="#794B10"/><rect x="43" y="156" width="21" height="1" fill="#794B10"/><rect x="128" y="156" width="235" height="1" fill="#4C3104"/><rect x="427" y="156" width="21" height="1" fill="#794B10"/><rect x="43" y="157" width="21" height="1" fill="#794B10"/><rect x="128" y="157" width="235" height="1" fill="#4C3104"/><rect x="427" y="157" width="21" height="1" fill="#794B10"/><rect x="43" y="158" width="21" height="1" fill="#794B10"/><rect x="128" y="158" width="235" height="1" fill="#4C3104"/><rect x="427" y="158" width="21" height="1" fill="#794B10"/><rect x="43" y="159" width="21" height="1" fill="#794B10"/><rect x="128" y="159" width="235" height="1" fill="#4C3104"/><rect x="427" y="159" width="21" height="1" fill="#794B10"/><rect x="43" y="160" width="21" height="1" fill="#794B10"/><rect x="128" y="160" width="235" height="1" fill="#4C3104"/><rect x="427" y="160" width="21" height="1" fill="#794B10"/><rect x="43" y="161" width="21" height="1" fill="#794B10"/><rect x="128" y="161" width="235" height="1" fill="#4C3104"/><rect x="427" y="161" width="21" height="1" fill="#794B10"/><rect x="43" y="162" width="21" height="1" fill="#794B10"/><rect x="128" y="162" width="235" height="1" fill="#4C3104"/><rect x="427" y="162" width="21" height="1" fill="#794B10"/><rect x="43" y="163" width="21" height="1" fill="#794B10"/><rect x="128" y="163" width="235" height="1" fill="#4C3104"/><rect x="427" y="163" width="21" height="1" fill="#794B10"/><rect x="43" y="164" width="21" height="1" fill="#794B10"/><rect x="128" y="164" width="235" height="1" fill="#4C3104"/><rect x="427" y="164" width="21" height="1" fill="#794B10"/><rect x="43" y="165" width="21" height="1" fill="#794B10"/><rect x="128" y="165" width="235" height="1" fill="#4C3104"/><rect x="427" y="165" width="21" height="1" fill="#794B10"/><rect x="43" y="166" width="21" height="1" fill="#794B10"/><rect x="128" y="166" width="235" height="1" fill="#4C3104"/><rect x="427" y="166" width="21" height="1" fill="#794B10"/><rect x="43" y="167" width="21" height="1" fill="#794B10"/><rect x="128" y="167" width="235" height="1" fill="#4C3104"/><rect x="427" y="167" width="21" height="1" fill="#794B10"/><rect x="43" y="168" width="21" height="1" fill="#794B10"/><rect x="128" y="168" width="235" height="1" fill="#4C3104"/><rect x="427" y="168" width="21" height="1" fill="#794B10"/><rect x="43" y="169" width="21" height="1" fill="#794B10"/><rect x="128" y="169" width="235" height="1" fill="#4C3104"/><rect x="427" y="169" width="21" height="1" fill="#794B10"/><rect x="43" y="170" width="21" height="1" fill="#794B10"/><rect x="128" y="170" width="235" height="1" fill="#4C3104"/><rect x="427" y="170" width="21" height="1" fill="#794B10"/><rect x="43" y="171" width="405" height="1" fill="#794B10"/><rect x="43" y="172" width="405" height="1" fill="#794B10"/><rect x="43" y="173" width="405" height="1" fill="#794B10"/><rect x="43" y="174" width="405" height="1" fill="#794B10"/><rect x="43" y="175" width="405" height="1" fill="#794B10"/><rect x="43" y="176" width="405" height="1" fill="#794B10"/><rect x="43" y="177" width="405" height="1" fill="#794B10"/><rect x="43" y="178" width="405" height="1" fill="#794B10"/><rect x="43" y="179" width="405" height="1" fill="#794B10"/><rect x="43" y="180" width="405" height="1" fill="#794B10"/><rect x="43" y="181" width="405" height="1" fill="#794B10"/><rect x="43" y="182" width="405" height="1" fill="#794B10"/><rect x="43" y="183" width="405" height="1" fill="#794B10"/><rect x="43" y="184" width="405" height="1" fill="#794B10"/><rect x="43" y="185" width="405" height="1" fill="#794B10"/><rect x="43" y="186" width="405" height="1" fill="#794B10"/><rect x="43" y="187" width="405" height="1" fill="#794B10"/><rect x="43" y="188" width="405" height="1" fill="#794B10"/><rect x="43" y="189" width="405" height="1" fill="#794B10"/><rect x="43" y="190" width="405" height="1" fill="#794B10"/><rect x="43" y="191" width="405" height="1" fill="#794B10"/><rect x="64" y="192" width="363" height="1" fill="#794B10"/><rect x="64" y="193" width="363" height="1" fill="#794B10"/><rect x="64" y="194" width="363" height="1" fill="#794B10"/><rect x="64" y="195" width="363" height="1" fill="#794B10"/><rect x="64" y="196" width="363" height="1" fill="#794B10"/><rect x="64" y="197" width="363" height="1" fill="#794B10"/><rect x="64" y="198" width="363" height="1" fill="#794B10"/><rect x="64" y="199" width="363" height="1" fill="#794B10"/><rect x="64" y="200" width="363" height="1" fill="#794B10"/><rect x="64" y="201" width="363" height="1" fill="#794B10"/><rect x="64" y="202" width="363" height="1" fill="#794B10"/><rect x="64" y="203" width="363" height="1" fill="#794B10"/><rect x="64" y="204" width="363" height="1" fill="#794B10"/><rect x="64" y="205" width="363" height="1" fill="#794B10"/><rect x="64" y="206" width="363" height="1" fill="#794B10"/><rect x="64" y="207" width="363" height="1" fill="#794B10"/><rect x="64" y="208" width="363" height="1" fill="#794B10"/><rect x="64" y="209" width="363" height="1" fill="#794B10"/><rect x="64" y="210" width="363" height="1" fill="#794B10"/><rect x="64" y="211" width="363" height="1" fill="#794B10"/><rect x="64" y="212" width="363" height="1" fill="#794B10"/></svg>