<svg xmlns="http://www.w3.org/2000/svg" viewBox="0 0 512 512" width="512" height="512" shape-rendering="crispEdges"><rect x="149" y="43" width="22" height="1" fill="#E12625"/><rect x="256" y="43" width="21" height="1" fill="#E12625"/><rect x="149" y="44" width="22" height="1" fill="#E12625"/><rect x="256" y="44" width="21" height="1" fill="#E12625"/><rect x="149" y="45" width="22" height="1" fill="#E12625"/><rect x="256" y="45" width="21" height="1" fill="#E12625"/><rect x="149" y="46" width="22" height="1" fill="#E12625"/><rect x="256" y="46" width="21" height="1" fill="#E12625"/><rect x="149" y="47" width="22" height="1" fill="#E12625"/><rect x="256" y="47" width="21" height="1" fill="#E12625"/><rect x="149" y="48" width="22" height="1" fill="#E12625"/><rect x="256" y="48" width="21" height="1" fill="#E12625"/><rect x="149" y="49" width="22" height="1" fill="#E12625"/><rect x="256" y="49" width="21" height="1" fill="#E12625"/><rect x="149" y="50" width="22" height="1" fill="#E12625"/><rect x="256" y="50" width="21" height="1" fill="#E12625"/><rect x="149" y="51" width="22" height="1" fill="#E12625"/><rect x="256" y="51" width="21" height="1" fill="#E12625"/><rect x="149" y="52" width="22" height="1" fill="#E12625"/><rect x="256" y="52" width="21" height="1" fill="#E12625"/><rect x="149" y="53" width="22" height="1" fill="#E12625"/><rect x="256" y="53" width="21" height="1" fill="#E12625"/><rect x="149" y="54" width="22" height="1" fill="#E12625"/><rect x="256" y="54" width="21" height="1" fill="#E12625"/><rect x="149" y="55" width="22" height="1" fill="#E12625"/><rect x="256" y="55" width="21" height="1" fill="#E12625"/><rect x="149" y="56" width="22" height="1" fill="#E12625"/><rect x="256" y="56" width="21" height="1" fill="#E12625"/><rect x="149" y="57" width="22" height="1" fill="#E12625"/><rect x="256" y="57" width="21" height="1" fill="#E12625"/><rect x="149" y="58" width="22" height="1" fill="#E12625"/><rect x="256" y="58" width="21" height="1" fill="#E12625"/><rect x="149" y="59" width="22" height="1" fill="#E12625"/><rect x="256" y="59" width="21" height="1" fill="#E12625"/><rect x="149" y="60" width="22" height="1" fill="#E12625"/><rect x="256" y="60" width="21" height="1" fill="#E12625"/><rect x="149" y="61" width="22" height="1" fill="#E12625"/><rect x="256" y="61" width="21" height="1" fill="#E12625"/><rect x="149" y="62" width="22" height="1" fill="#E12625"/><rect x="256" y="62" width="21" height="1" fill="#E12625"/><rect x="149" y="63" width="22" height="1" fill="#E12625"/><rect x="256" y="63" width="21" height="1" fill="#E12625"/><rect x="128" y="64" width="64" height="1" fill="#E12625"/><rect x="213" y="64" width="86" height="1" fill="#E12625"/><rect x="341" y="64" width="22" height="1" fill="#E12625"/><rect x="128" y="65" width="64" height="1" fill="#E12625"/><rect x="213" y="65" width="86" height="1" fill="#E12625"/><rect x="341" y="65" width="22" height="1" fill="#E12625"/><rect x="128" y="66" width="64" height="1" fill="#E12625"/><rect x="213" y="66" width="86" height="1" fill="#E12625"/><rect x="341" y="66" width="22" height="1" fill="#E12625"/><rect x="128" y="67" width="64" height="1" fill="#E12625"/><rect x="213" y="67" width="86" height="1" fill="#E12625"/><rect x="341" y="67" width="22" height="1" fill="#E12625"/><rect x="128" y="68" width="64" height="1" fill="#E12625"/><rect x="213" y="68" width="86" height="1" fill="#E12625"/><rect x="341" y="68" width="22" height="1" fill="#E12625"/><rect x="128" y="69" width="64" height="1" fill="#E12625"/><rect x="213" y="69" width="86" height="1" fill="#E12625"/><rect x="341" y="69" width="22" height="1" fill="#E12625"/><rect x="128" y="70" width="64" height="1" fill="#E12625"/><rect x="213" y="70" width="86" height="1" fill="#E12625"/><rect x="341" y="70" width="22" height="1" fill="#E12625"/><rect x="128" y="71" width="64" height="1" fill="#E12625"/><rect x="213" y="71" width="86" height="1" fill="#E12625"/><rect x="341" y="71" width="22" height="1" fill="#E12625"/><rect x="128" y="72" width="64" height="1" fill="#E12625"/><rect x="213" y="72" width="86" height="1" fill="#E12625"/><rect x="341" y="72" width="22" height="1" fill="#E12625"/><rect x="128" y="73" width="64" height="1" fill="#E12625"/><rect x="213" y="73" width="86" height="1" fill="#E12625"/><rect x="341" y="73" width="22" height="1" fill="#E12625"/><rect x="128" y="74" width="64" height="1" fill="#E12625"/><rect x="213" y="74" width="86" height="1" fill="#E12625"/><rect x="341" y="74" width="22" height="1" fill="#E12625"/><rect x="128" y="75" width="64" height="1" fill="#E12625"/><rect x="213" y="75" width="86" height="1" fill="#E12625"/><rect x="341" y="75" width="22" height="1" fill="#E12625"/><rect x="128" y="76" width="64" height="1" fill="#E12625"/><rect x="213" y="76" width="86" height="1" fill="#E12625"/><rect x="341" y="76" width="22" height="1" fill="#E12625"/><rect x="128" y="77" width="64" height="1" fill="#E12625"/><rect x="213" y="77" width="86" height="1" fill="#E12625"/><rect x="341" y="77" width="22" height="1" fill="#E12625"/><rect x="128" y="78" width="64" height="1" fill="#E12625"/><rect x="213" y="78" width="86" height="1" fill="#E12625"/><rect x="341" y="78" width="22" height="1" fill="#E12625"/><rect x="128" y="79" width="64" height="1" fill="#E12625"/><rect x="213" y="79" width="86" height="1" fill="#E12625"/><rect x="341" y="79" width="22" height="1" fill="#E12625"/><rect x="128" y="80" width="64" height="1" fill="#E12625"/><rect x="213" y="80" width="86" height="1" fill="#E12625"/><rect x="341" y="80" width="22" height="1" fill="#E12625"/><rect x="128" y="81" width="64" height="1" fill="#E12625"/><rect x="213" y="81" width="86" height="1" fill="#E12625"/><rect x="341" y="81" width="22" height="1" fill="#E12625"/><rect x="128" y="82" width="64" height="1" fill="#E12625"/><rect x="213" y="82" width="86" height="1" fill="#E12625"/><rect x="341" y="82" width="22" height="1" fill="#E12625"/><rect x="128" y="83" width="64" height="1" fill="#E12625"/><rect x="213" y="83" width="86" height="1" fill="#E12625"/><rect x="341" y="83" width="22" height="1" fill="#E12625"/><rect x="128" y="84" width="64" height="1" fill="#E12625"/><rect x="213" y="84" width="86" height="1" fill="#E12625"/><rect x="341" y="84" width="22" height="1" fill="#E12625"/><rect x="128" y="85" width="149" height="1" fill="#E12625"/><rect x="299" y="85" width="64" height="1" fill="#E12625"/><rect x="128" y="86" width="149" height="1" fill="#E12625"/><rect x="299" y="86" width="64" height="1" fill="#E12625"/><rect x="128" y="87" width="149" height="1" fill="#E12625"/><rect x="299" y="87" width="64" height="1" fill="#E12625"/><rect x="128" y="88" width="149" height="1" fill="#E12625"/><rect x="299" y="88" width="64" height="1" fill="#E12625"/><rect x="128" y="89" width="149" height="1" fill="#E12625"/><rect x="299" y="89" width="64" height="1" fill="#E12625"/><rect x="128" y="90" width="149" height="1" fill="#E12625"/><rect x="299" y="90" width="64" height="1" fill="#E12625"/><rect x="128" y="91" width="149" height="1" fill="#E12625"/><rect x="299" y="91" width="64" height="1" fill="#E12625"/><rect x="128" y="92" width="149" height="1" fill="#E12625"/><rect x="299" y="92" width="64" height="1" fill="#E12625"/><rect x="128" y="93" width="149" height="1" fill="#E12625"/><rect x="299" y="93" width="64" height="1" fill="#E12625"/><rect x="128" y="94" width="149" height="1" fill="#E12625"/><rect x="299" y="94" width="64" height="1" fill="#E12625"/><rect x="128" y="95" width="149" height="1" fill="#E12625"/><rect x="299" y="95" width="64" height="1" fill="#E12625"/><rect x="128" y="96" width="149" height="1" fill="#E12625"/><rect x="299" y="96" width="64" height="1" fill="#E12625"/><rect x="128" y="97" width="149" height="1" fill="#E12625"/><rect x="299" y="97" width="64" height="1" fill="#E12625"/><rect x="128" y="98" width="149" height="1" fill="#E12625"/><rect x="299" y="98" width="64" height="1" fill="#E12625"/><rect x="128" y="99" width="149" height="1" fill="#E12625"/><rect x="299" y="99" width="64" height="1" fill="#E12625"/><rect x="128" y="100" width="149" height="1" fill="#E12625"/><rect x="299" y="100" width="64" height="1" fill="#E12625"/><rect x="128" y="101" width="149" height="1" fill="#E12625"/><rect x="299" y="101" width="64" height="1" fill="#E12625"/><rect x="128" y="102" width="149" height="1" fill="#E12625"/><rect x="299" y="102" width="64" height="1" fill="#E12625"/><rect x="128" y="103" width="149" height="1" fill="#E12625"/><rect x="299" y="103" width="64" height="1" fill="#E12625"/><rect x="128" y="104" width="149" height="1" fill="#E12625"/><rect x="299" y="104" width="64" height="1" fill="#E12625"/><rect x="128" y="105" width="149" height="1" fill="#E12625"/><rect x="299" y="105" width="64" height="1" fill="#E12625"/><rect x="128" y="106" width="149" height="1" fill="#E12625"/><rect x="299" y="106" width="64" height="1" fill="#E12625"/><rect x="85" y="107" width="299" height="1" fill="#E12625"/><rect x="85" y="108" width="299" height="1" fill="#E12625"/><rect x="85" y="109" width="299" height="1" fill="#E12625"/><rect x="85" y="110" width="299" height="1" fill="#E12625"/><rect x="85" y="111" width="299" height="1" fill="#E12625"/><rect x="85" y="112" width="299" height="1" fill="#E12625"/><rect x="85" y="113" width="299" height="1" fill="#E12625"/><rect x="85" y="114" width="299" height="1" fill="#E12625"/><rect x="85" y="115" width="299" height="1" fill="#E12625"/><rect x="85" y="116" width="299" height="1" fill="#E12625"/><rect x="85" y="117" width="299" height="1" fill="#E12625"/><rect x="85" y="118" width="299" height="1" fill="#E12625"/><rect x="85" y="119" width="299" height="1" fill="#E12625"/><rect x="85" y="120" width="299" height="1" fill="#E12625"/><rect x="85" y="121" width="299" height="1" fill="#E12625"/><rect x="85" y="122" width="299" height="1" fill="#E12625"/><rect x="85" y="123" width="299" height="1" fill="#E12625"/><rect x="85" y="124" width="299" height="1" fill="#E12625"/><rect x="85" y="125" width="299" height="1" fill="#E12625"/><rect x="85" y="126" width="299" height="1" fill="#E12625"/><rect x="85" y="127" width="299" height="1" fill="#E12625"/><rect x="43" y="128" width="21" height="1" fill="#E12625"/><rect x="107" y="128" width="320" height="1" fill="#E12625"/><rect x="43" y="129" width="21" height="1" fill="#E12625"/><rect x="107" y="129" width="320" height="1" fill="#E12625"/><rect x="43" y="130" width="21" height="1" fill="#E12625"/><rect x="107" y="130" width="320" height="1" fill="#E12625"/><rect x="43" y="131" width="21" height="1" fill="#E12625"/><rect x="107" y="131" width="320" height="1" fill="#E12625"/><rect x="43" y="132" width="21" height="1" fill="#E12625"/><rect x="107" y="132" width="320" height="1" fill="#E12625"/><rect x="43" y="133" width="21" height="1" fill="#E12625"/><rect x="107" y="133" width="320" height="1" fill="#E12625"/><rect x="43" y="134" width="21" height="1" fill="#E12625"/><rect x="107" y="134" width="320" height="1" fill="#E12625"/><rect x="43" y="135" width="21" height="1" fill="#E12625"/><rect x="107" y="135" width="320" height="1" fill="#E12625"/><rect x="43" y="136" width="21" height="1" fill="#E12625"/><rect x="107" y="136" width="320" height="1" fill="#E12625"/><rect x="43" y="137" width="21" height="1" fill="#E12625"/><rect x="107" y="137" width="320" height="1" fill="#E12625"/><rect x="43" y="138" width="21" height="1" fill="#E12625"/><rect x="107" y="138" width="320" height="1" fill="#E12625"/><rect x="43" y="139" width="21" height="1" fill="#E12625"/><rect x="107" y="139" width="320" height="1" fill="#E12625"/><rect x="43" y="140" width="21" height="1" fill="#E12625"/><rect x="107" y="140" width="320" height="1" fill="#E12625"/><rect x="43" y="141" width="21" height="1" fill="#E12625"/><rect x="107" y="141" width="320" height="1" fill="#E12625"/><rect x="43" y="142" width="21" height="1" fill="#E12625"/><rect x="107" y="142" width="320" height="1" fill="#E12625"/><rect x="43" y="143" width="21" height="1" fill="#E12625"/><rect x="107" y="143" width="320" height="1" fill="#E12625"/><rect x="43" y="144" width="21" height="1" fill="#E12625"/><rect x="107" y="144" width="320" height="1" fill="#E12625"/><rect x="43" y="145" width="21" height="1" fill="#E12625"/><rect x="107" y="145" width="320" height="1" fill="#E12625"/><rect x="43" y="146" width="21" height="1" fill="#E12625"/><rect x="107" y="146" width="320" height="1" fill="#E12625"/><rect x="43" y="147" width="21" height="1" fill="#E12625"/><rect x="107" y="147" width="320" height="1" fill="#E12625"/><rect x="43" y="148" width="21" height="1" fill="#E12625"/><rect x="107" y="148" width="320" height="1" fill="#E12625"/><rect x="43" y="149" width="362" height="1" fill="#E12625"/><rect x="43" y="150" width="362" height="1" fill="#E12625"/><rect x="43" y="151" width="362" height="1" fill="#E12625"/><rect x="43" y="152" width="362" height="1" fill="#E12625"/><rect x="43" y="153" width="362" height="1" fill="#E12625"/><rect x="43" y="154" width="362" height="1" fill="#E12625"/><rect x="43" y="155" width="362" height="1" fill="#E12625"/><rect x="43" y="156" width="362" height="1" fill="#E12625"/><rect x="43" y="157" width="362" height="1" fill="#E12625"/><rect x="43" y="158" width="362" height="1" fill="#E12625"/><rect x="43" y="159" width="362" height="1" fill="#E12625"/><rect x="43" y="160" width="362" height="1" fill="#E12625"/><rect x="43" y="161" width="362" height="1" fill="#E12625"/><rect x="43" y="162" width="362" height="1" fill="#E12625"/><rect x="43" y="163" width="362" height="1" fill="#E12625"/><rect x="43" y="164" width="362" height="1" fill="#E12625"/><rect x="43" y="165" width="362" height="1" fill="#E12625"/><rect x="43" y="166" width="362" height="1" fill="#E12625"/><rect x="43" y="167" width="362" height="1" fill="#E12625"/><rect x="43" y="168" width="362" height="1" fill="#E12625"/><rect x="43" y="169" width="362" height="1" fill="#E12625"/><rect x="43" y="170" width="362" height="1" fill="#E12625"/><rect x="85" y="171" width="128" height="1" fill="#E12625"/><rect x="256" y="171" width="21" height="1" fill="#E12625"/><rect x="299" y="171" width="21" height="1" fill="#E12625"/><rect x="341" y="171" width="22" height="1" fill="#E12625"/><rect x="85" y="172" width="128" height="1" fill="#E12625"/><rect x="256" y="172" width="21" height="1" fill="#E12625"/><rect x="299" y="172" width="21" height="1" fill="#E12625"/><rect x="341" y="172" width="22" height="1" fill="#E12625"/><rect x="85" y="173" width="128" height="1" fill="#E12625"/><rect x="256" y="173" width="21" height="1" fill="#E12625"/><rect x="299" y="173" width="21" height="1" fill="#E12625"/><rect x="341" y="173" width="22" height="1" fill="#E12625"/><rect x="85" y="174" width="128" height="1" fill="#E12625"/><rect x="256" y="174" width="21" height="1" fill="#E12625"/><rect x="299" y="174" width="21" height="1" fill="#E12625"/><rect x="341" y="174" width="22" height="1" fill="#E12625"/><rect x="85" y="175" width="128" height="1" fill="#E12625"/><rect x="256" y="175" width="21" height="1" fill="#E12625"/><rect x="299" y="175" width="21" height="1" fill="#E12625"/><rect x="341" y="175" width="22" height="1" fill="#E12625"/><rect x="85" y="176" width="128" height="1" fill="#E12625"/><rect x="256" y="176" width="21" height="1" fill="#E12625"/><rect x="299" y="176" width="21" height="1" fill="#E12625"/><rect x="341" y="176" width="22" height="1" fill="#E12625"/><rect x="85" y="177" width="128" height="1" fill="#E12625"/><rect x="256" y="177" width="21" height="1" fill="#E12625"/><rect x="299" y="177" width="21" height="1" fill="#E12625"/><rect x="341" y="177" width="22" height="1" fill="#E12625"/><rect x="85" y="178" width="128" height="1" fill="#E12625"/><rect x="256" y="178" width="21" height="1" fill="#E12625"/><rect x="299" y="178" width="21" height="1" fill="#E12625"/><rect x="341" y="178" width="22" height="1" fill="#E12625"/><rect x="85" y="179" width="128" height="1" fill="#E12625"/><rect x="256" y="179" width="21" height="1" fill="#E12625"/><rect x="299" y="179" width="21" height="1" fill="#E12625"/><rect x="341" y="179" width="22" height="1" fill="#E12625"/><rect x="85" y="180" width="128" height="1" fill="#E12625"/><rect x="256" y="180" width="21" height="1" fill="#E12625"/><rect x="299" y="180" width="21" height="1" fill="#E12625"/><rect x="341" y="180" width="22" height="1" fill="#E12625"/><rect x="85" y="181" width="128" height="1" fill="#E12625"/><rect x="256" y="181" width="21" height="1" fill="#E12625"/><rect x="299" y="181" width="21" height="1" fill="#E12625"/><rect x="341" y="181" width="22" height="1" fill="#E12625"/><rect x="85" y="182" width="128" height="1" fill="#E12625"/><rect x="256" y="182" width="21" height="1" fill="#E12625"/><rect x="299" y="182" width="21" height="1" fill="#E12625"/><rect x="341" y="182" width="22" height="1" fill="#E12625"/><rect x="85" y="183" width="128" height="1" fill="#E12625"/><rect x="256" y="183" width="21" height="1" fill="#E12625"/><rect x="299" y="183" width="21" height="1" fill="#E12625"/><rect x="341" y="183" width="22" height="1" fill="#E12625"/><rect x="85" y="184" width="128" height="1" fill="#E12625"/><rect x="256" y="184" width="21" height="1" fill="#E12625"/><rect x="299" y="184" width="21" height="1" fill="#E12625"/><rect x="341" y="184" width="22" height="1" fill="#E12625"/><rect x="85" y="185" width="128" height="1" fill="#E12625"/><rect x="256" y="185" width="21" height="1" fill="#E12625"/><rect x="299" y="185" width="21" height="1" fill="#E12625"/><rect x="341" y="185" width="22" height="1" fill="#E12625"/><rect x="85" y="186" width="128" height="1" fill="#E12625"/><rect x="256" y="186" width="21" height="1" fill="#E12625"/><rect x="299" y="186" width="21" height="1" fill="#E12625"/><rect x="341" y="186" width="22" height="1" fill="#E12625"/><rect x="85" y="187" width="128" height="1" fill="#E12625"/><rect x="256" y="187" width="21" height="1" fill="#E12625"/><rect x="299" y="187" width="21" height="1" fill="#E12625"/><rect x="341" y="187" width="22" height="1" fill="#E12625"/><rect x="85" y="188" width="128" height="1" fill="#E12625"/><rect x="256" y="188" width="21" height="1" fill="#E12625"/><rect x="299" y="188" width="21" height="1" fill="#E12625"/><rect x="341" y="188" width="22" height="1" fill="#E12625"/><rect x="85" y="189" width="128" height="1" fill="#E12625"/><rect x="256" y="189" width="21" height="1" fill="#E12625"/><rect x="299" y="189" width="21" height="1" fill="#E12625"/><rect x="341" y="189" width="22" height="1" fill="#E12625"/><rect x="85" y="190" width="128" height="1" fill="#E12625"/><rect x="256" y="190" width="21" height="1" fill="#E12625"/><rect x="299" y="190" width="21" height="1" fill="#E12625"/><rect x="341" y="190" width="22" height="1" fill="#E12625"/><rect x="85" y="191" width="128" height="1" fill="#E12625"/><rect x="256" y="191" width="21" height="1" fill="#E12625"/><rect x="299" y="191" width="21" height="1" fill="#E12625"/><rect x="341" y="191" width="22" height="1" fill="#E12625"/><rect x="85" y="192" width="43" height="1" fill="#E12625"/><rect x="171" y="192" width="21" height="1" fill="#E12625"/><rect x="85" y="193" width="43" height="1" fill="#E12625"/><rect x="171" y="193" width="21" height="1" fill="#E12625"/><rect x="85" y="194" width="43" height="1" fill="#E12625"/><rect x="171" y="194" width="21" height="1" fill="#E12625"/><rect x="85" y="195" width="43" height="1" fill="#E12625"/><rect x="171" y="195" width="21" height="1" fill="#E12625"/><rect x="85" y="196" width="43" height="1" fill="#E12625"/><rect x="171" y="196" width="21" height="1" fill="#E12625"/><rect x="85" y="197" width="43" height="1" fill="#E12625"/><rect x="171" y="197" width="21" height="1" fill="#E12625"/><rect x="85" y="198" width="43" height="1" fill="#E12625"/><rect x="171" y="198" width="21" height="1" fill="#E12625"/><rect x="85" y="199" width="43" height="1" fill="#E12625"/><rect x="171" y="199" width="21" height="1" fill="#E12625"/><rect x="85" y="200" width="43" height="1" fill="#E12625"/><rect x="171" y="200" width="21" height="1" fill="#E12625"/><rect x="85" y="201" width="43" height="1" fill="#E12625"/><rect x="171" y="201" width="21" height="1" fill="#E12625"/><rect x="85" y="202" width="43" height="1" fill="#E12625"/><rect x="171" y="202" width="21" height="1" fill="#E12625"/><rect x="85" y="203" width="43" height="1" fill="#E12625"/><rect x="171" y="203" width="21" height="1" fill="#E12625"/><rect x="85" y="204" width="43" height="1" fill="#E12625"/><rect x="171" y="204" width="21" height="1" fill="#E12625"/><rect x="85" y="205" width="43" height="1" fill="#E12625"/><rect x="171" y="205" width="21" height="1" fill="#E12625"/><rect x="85" y="206" width="43" height="1" fill="#E12625"/><rect x="171" y="206" width="21" height="1" fill="#E12625"/><rect x="85" y="207" width="43" height="1" fill="#E12625"/><rect x="171" y="207" width="21" height="1" fill="#E12625"/><rect x="85" y="208" width="43" height="1" fill="#E12625"/><rect x="171" y="208" width="21" height="1" fill="#E12625"/><rect x="85" y="209" width="43" height="1" fill="#E12625"/><rect x="171" y="209" width="21" height="1" fill="#E12625"/><rect x="85" y="210" width="43" height="1" fill="#E12625"/><rect x="171" y="210" width="21" height="1" fill="#E12625"/><rect x="85" y="211" width="43" height="1" fill="#E12625"/><rect x="171" y="211" width="21" height="1" fill="#E12625"/><rect x="85" y="212" width="43" height="1" fill="#E12625"/><rect x="171" y="212" width="21" height="1" fill="#E12625"/><rect x="64" y="213" width="64" height="1" fill="#E12625"/><rect x="64" y="214" width="64" height="1" fill="#E12625"/><rect x="64" y="215" width="64" height="1" fill="#E12625"/><rect x="64" y="216" width="64" height="1" fill="#E12625"/><rect x="64" y="217" width="64" height="1" fill="#E12625"/><rect x="64" y="218" width="64" height="1" fill="#E12625"/><rect x="64" y="219" width="64" height="1" fill="#E12625"/><rect x="64" y="220" width="64" height="1" fill="#E12625"/><rect x="64" y="221" width="64" height="1" fill="#E12625"/><rect x="64" y="222" width="64" height="1" fill="#E12625"/><rect x="64" y="223" width="64" height="1" fill="#E12625"/><rect x="64" y="224" width="64" height="1" fill="#E12625"/><rect x="64" y="225" width="64" height="1" fill="#E12625"/><rect x="64" y="226" width="64" height="1" fill="#E12625"/><rect x="64" y="227" width="64" height="1" fill="#E12625"/><rect x="64" y="228" width="64" height="1" fill="#E12625"/><rect x="64" y="229" width="64" height="1" fill="#E12625"/><rect x="64" y="230" width="64" height="1" fill="#E12625"/><rect x="64" y="231" width="64" height="1" fill="#E12625"/><rect x="64" y="232" width="64" height="1" fill="#E12625"/><rect x="64" y="233" width="64" height="1" fill="#E12625"/><rect x="64" y="234" width="64" height="1" fill="#E12625"/><rect x="64" y="235" width="64" height="1" fill="#E12625"/><rect x="64" y="236" width="64" height="1" fill="#E12625"/><rect x="64" y="237" width="64" height="1" fill="#E12625"/><rect x="64" y="238" width="64" height="1" fill="#E12625"/><rect x="64" y="239" width="64" height="1" fill="#E12625"/><rect x="64" y="240" width="64" height="1" fill="#E12625"/><rect x="64" y="241" width="64" height="1" fill="#E12625"/><rect x="64" y="242" width="64" height="1" fill="#E12625"/><rect x="64" y="243" width="64" height="1" fill="#E12625"/><rect x="64" y="244" width="64" height="1" fill="#E12625"/><rect x="64" y="245" width="64" height="1" fill="#E12625"/><rect x="64" y="246" width="64" height="1" fill="#E12625"/><rect x="64" y="247" width="64" height="1" fill="#E12625"/><rect x="64" y="248" width="64" height="1" fill="#E12625"/><rect x="64" y="249" width="64" height="1" fill="#E12625"/><rect x="64" y="250" width="64" height="1" fill="#E12625"/><rect x="64" y="251" width="64" height="1" fill="#E12625"/><rect x="64" y="252" width="64" height="1" fill="#E12625"/><rect x="64" y="253" width="64" height="1" fill="#E12625"/><rect x="64" y="254" width="64" height="1" fill="#E12625"/><rect x="64" y="255" width="64" height="1" fill="#E12625"/><rect x="85" y="256" width="22" height="1" fill="#E12625"/><rect x="85" y="257" width="22" height="1" fill="#E12625"/><rect x="85" y="258" width="22" height="1" fill="#E12625"/><rect x="85" y="259" width="22" height="1" fill="#E12625"/><rect x="85" y="260" width="22" height="1" fill="#E12625"/><rect x="85" y="261" width="22" height="1" fill="#E12625"/><rect x="85" y="262" width="22" height="1" fill="#E12625"/><rect x="85" y="263" width="22" height="1" fill="#E12625"/><rect x="85" y="264" width="22" height="1" fill="#E12625"/><rect x="85" y="265" width="22" height="1" fill="#E12625"/><rect x="85" y="266" width="22" height="1" fill="#E12625"/><rect x="85" y="267" width="22" height="1" fill="#E12625"/><rect x="85" y="268" width="22" height="1" fill="#E12625"/><rect x="85" y="269" width="22" height="1" fill="#E12625"/><rect x="85" y="270" width="22" height="1" fill="#E12625"/><rect x="85" y="271" width="22" height="1" fill="#E12625"/><rect x="85" y="272" width="22" height="1" fill="#E12625"/><rect x="85" y="273" width="22" height="1" fill="#E12625"/><rect x="85" y="274" width="22" height="1" fill="#E12625"/><rect x="85" y="275" width="22" height="1" fill="#E12625"/><rect x="85" y="276" width="22" height="1" fill="#E12625"/><rect x="85" y="277" width="22" height="1" fill="#E12625"/><rect x="85" y="278" width="22" height="1" fill="#E12625"/><rect x="85" y="279" width="22" height="1" fill="#E12625"/><rect x="85" y="280" width="22" height="1" fill="#E12625"/><rect x="85" y="281" width="22" height="1" fill="#E12625"/><rect x="85" y="282" width="22" height="1" fill="#E12625"/><rect x="85" y="283" width="22" height="1" fill="#E12625"/><rect x="85" y="284" width="22" height="1" fill="#E12625"/><rect x="85" y="285" width="22" height="1" fill="#E12625"/><rect x="85" y="286" width="22" height="1" fill="#E12625"/><rect x="85" y="287" width="22" height="1" fill="#E12625"/><rect x="85" y="288" width="22" height="1" fill="#E12625"/><rect x="85" y="289" width="22" height="1" fill="#E12625"/><rect x="85" y="290" width="22" height="1" fill="#E12625"/><rect x="85" y="291" width="22" height="1" fill="#E12625"/><rect x="85" y="292" width="22" height="1" fill="#E12625"/><rect x="85" y="293" width="22" height="1" fill="#E12625"/><rect x="85" y="294" width="22" height="1" fill="#E12625"/><rect x="85" y="295" width="22" height="1" fill="#E12625"/><rect x="85" y="296" width="22" height="1" fill="#E12625"/><rect x="85" y="297" width="22" height="1" fill="#E12625"/><rect x="85" y="298" width="22" height="1" fill="#E12625"/><rect x="64" y="299" width="21" height="1" fill="#E12625"/><rect x="64" y="300" width="21" height="1" fill="#E12625"/><rect x="64" y="301" width="21" height="1" fill="#E12625"/><rect x="64" y="302" width="21" height="1" fill="#E12625"/><rect x="64" y="303" width="21" height="1" fill="#E12625"/><rect x="64" y="304" width="21" height="1" fill="#E12625"/><rect x="64" y="305" width="21" height="1" fill="#E12625"/><rect x="64" y="306" width="21" height="1" fill="#E12625"/><rect x="64" y="307" width="21" height="1" fill="#E12625"/><rect x="64" y="308" width="21" height="1" fill="#E12625"/><rect x="64" y="309" width="21" height="1" fill="#E12625"/><rect x="64" y="310" width="21" height="1" fill="#E12625"/><rect x="64" y="311" width="21" height="1" fill="#E12625"/><rect x="64" y="312" width="21" height="1" fill="#E12625"/><rect x="64" y="313" width="21" height="1" fill="#E12625"/><rect x="64" y="314" width="21" height="1" fill="#E12625"/><rect x="64" y="315" width="21" height="1" fill="#E12625"/><rect x="64" y="316" width="21" height="1" fill="#E12625"/><rect x="64" y="317" width="21" height="1" fill="#E12625"/><rect x="64" y="318" width="21" height="1" fill="#E12625"/><rect x="64" y="319" width="21" height="1" fill="#E12625"/></svg>