<svg xmlns="http://www.w3.org/2000/svg" viewBox="0 0 512 512" width="512" height="512" shape-rendering="crispEdges"><rect x="171" y="107" width="149" height="1" fill="#000000"/><rect x="171" y="108" width="149" height="1" fill="#000000"/><rect x="171" y="109" width="149" height="1" fill="#000000"/><rect x="171" y="110" width="149" height="1" fill="#000000"/><rect x="171" y="111" width="149" height="1" fill="#000000"/><rect x="171" y="112" width="149" height="1" fill="#000000"/><rect x="171" y="113" width="149" height="1" fill="#000000"/><rect x="171" y="114" width="149" height="1" fill="#000000"/><rect x="171" y="115" width="149" height="1" fill="#000000"/><rect x="171" y="116" width="149" height="1" fill="#000000"/><rect x="171" y="117" width="149" height="1" fill="#000000"/><rect x="171" y="118" width="149" height="1" fill="#000000"/><rect x="171" y="119" width="149" height="1" fill="#000000"/><rect x="171" y="120" width="149" height="1" fill="#000000"/><rect x="171" y="121" width="149" height="1" fill="#000000"/><rect x="171" y="122" width="149" height="1" fill="#000000"/><rect x="171" y="123" width="149" height="1" fill="#000000"/><rect x="171" y="124" width="149" height="1" fill="#000000"/><rect x="171" y="125" width="149" height="1" fill="#000000"/><rect x="171" y="126" width="149" height="1" fill="#000000"/><rect x="171" y="127" width="149" height="1" fill="#000000"/><rect x="149" y="128" width="22" height="1" fill="#000000"/><rect x="171" y="128" width="149" height="1" fill="#4C4C4C"/><rect x="320" y="128" width="21" height="1" fill="#000000"/><rect x="149" y="129" width="22" height="1" fill="#000000"/><rect x="171" y="129" width="149" height="1" fill="#4C4C4C"/><rect x="320" y="129" width="21" height="1" fill="#000000"/><rect x="149" y="130" width="22" height="1" fill="#000000"/><rect x="171" y="130" width="149" height="1" fill="#4C4C4C"/><rect x="320" y="130" width="21" height="1" fill="#000000"/><rect x="149" y="131" width="22" height="1" fill="#000000"/><rect x="171" y="131" width="149" height="1" fill="#4C4C4C"/><rect x="320" y="131" width="21" height="1" fill="#000000"/><rect x="149" y="132" width="22" height="1" fill="#000000"/><rect x="171" y="132" width="149" height="1" fill="#4C4C4C"/><rect x="320" y="132" width="21" height="1" fill="#000000"/><rect x="149" y="133" width="22" height="1" fill="#000000"/><rect x="171" y="133" width="149" height="1" fill="#4C4C4C"/><rect x="320" y="133" width="21" height="1" fill="#000000"/><rect x="149" y="134" width="22" height="1" fill="#000000"/><rect x="171" y="134" width="149" height="1" fill="#4C4C4C"/><rect x="320" y="134" width="21" height="1" fill="#000000"/><rect x="149" y="135" width="22" height="1" fill="#000000"/><rect x="171" y="135" width="149" height="1" fill="#4C4C4C"/><rect x="320" y="135" width="21" height="1" fill="#000000"/><rect x="149" y="136" width="22" height="1" fill="#000000"/><rect x="171" y="136" width="149" height="1" fill="#4C4C4C"/><rect x="320" y="136" width="21" height="1" fill="#000000"/><rect x="149" y="137" width="22" height="1" fill="#000000"/><rect x="171" y="137" width="149" height="1" fill="#4C4C4C"/><rect x="320" y="137" width="21" height="1" fill="#000000"/><rect x="149" y="138" width="22" height="1" fill="#000000"/><rect x="171" y="138" width="149" height="1" fill="#4C4C4C"/><rect x="320" y="138" width="21" height="1" fill="#000000"/><rect x="149" y="139" width="22" height="1" fill="#000000"/><rect x="171" y="139" width="149" height="1" fill="#4C4C4C"/><rect x="320" y="139" width="21" height="1" fill="#000000"/><rect x="149" y="140" width="22" height="1" fill="#000000"/><rect x="171" y="140" width="149" height="1" fill="#4C4C4C"/><rect x="320" y="140" width="21" height="1" fill="#000000"/><rect x="149" y="141" width="22" height="1" fill="#000000"/><rect x="171" y="141" width="149" height="1" fill="#4C4C4C"/><rect x="320" y="141" width="21" height="1" fill="#000000"/><rect x="149" y="142" width="22" height="1" fill="#000000"/><rect x="171" y="142" width="149" height="1" fill="#4C4C4C"/><rect x="320" y="142" width="21" height="1" fill="#000000"/><rect x="149" y="143" width="22" height="1" fill="#000000"/><rect x="171" y="143" width="149" height="1" fill="#4C4C4C"/><rect x="320" y="143" width="21" height="1" fill="#000000"/><rect x="149" y="144" width="22" height="1" fill="#000000"/><rect x="171" y="144" width="149" height="1" fill="#4C4C4C"/><rect x="320" y="144" width="21" height="1" fill="#000000"/><rect x="149" y="145" width="22" height="1" fill="#000000"/><rect x="171" y="145" width="149" height="1" fill="#4C4C4C"/><rect x="320" y="145" width="21" height="1" fill="#000000"/><rect x="149" y="146" width="22" height="1" fill="#000000"/><rect x="171" y="146" width="149" height="1" fill="#4C4C4C"/><rect x="320" y="146" width="21" height="1" fill="#000000"/><rect x="149" y="147" width="22" height="1" fill="#000000"/><rect x="171" y="147" width="149" height="1" fill="#4C4C4C"/><rect x="320" y="147" width="21" height="1" fill="#000000"/><rect x="149" y="148" width="22" height="1" fill="#000000"/><rect x="171" y="148" width="149" height="1" fill="#4C4C4C"/><rect x="320" y="148" width="21" height="1" fill="#000000"/><rect x="128" y="149" width="21" height="1" fill="#000000"/><rect x="149" y="149" width="22" height="1" fill="#4A4C4F"/><rect x="171" y="149" width="21" height="1" fill="#4C4C4C"/><rect x="192" y="149" width="21" height="1" fill="#636363"/><rect x="213" y="149" width="128" height="1" fill="#4C4C4C"/><rect x="341" y="149" width="22" height="1" fill="#000000"/><rect x="128" y="150" width="21" height="1" fill="#000000"/><rect x="149" y="150" width="22" height="1" fill="#4A4C4F"/><rect x="171" y="150" width="21" height="1" fill="#4C4C4C"/><rect x="192" y="150" width="21" height="1" fill="#636363"/><rect x="213" y="150" width="128" height="1" fill="#4C4C4C"/><rect x="341" y="150" width="22" height="1" fill="#000000"/><rect x="128" y="151" width="21" height="1" fill="#000000"/><rect x="149" y="151" width="22" height="1" fill="#4A4C4F"/><rect x="171" y="151" width="21" height="1" fill="#4C4C4C"/><rect x="192" y="151" width="21" height="1" fill="#636363"/><rect x="213" y="151" width="128" height="1" fill="#4C4C4C"/><rect x="341" y="151" width="22" height="1" fill="#000000"/><rect x="128" y="152" width="21" height="1" fill="#000000"/><rect x="149" y="152" width="22" height="1" fill="#4A4C4F"/><rect x="171" y="152" width="21" height="1" fill="#4C4C4C"/><rect x="192" y="152" width="21" height="1" fill="#636363"/><rect x="213" y="152" width="128" height="1" fill="#4C4C4C"/><rect x="341" y="152" width="22" height="1" fill="#000000"/><rect x="128" y="153" width="21" height="1" fill="#000000"/><rect x="149" y="153" width="22" height="1" fill="#4A4C4F"/><rect x="171" y="153" width="21" height="1" fill="#4C4C4C"/><rect x="192" y="153" width="21" height="1" fill="#636363"/><rect x="213" y="153" width="128" height="1" fill="#4C4C4C"/><rect x="341" y="153" width="22" height="1" fill="#000000"/><rect x="128" y="154" width="21" height="1" fill="#000000"/><rect x="149" y="154" width="22" height="1" fill="#4A4C4F"/><rect x="171" y="154" width="21" height="1" fill="#4C4C4C"/><rect x="192" y="154" width="21" height="1" fill="#636363"/><rect x="213" y="154" width="128" height="1" fill="#4C4C4C"/><rect x="341" y="154" width="22" height="1" fill="#000000"/><rect x="128" y="155" width="21" height="1" fill="#000000"/><rect x="149" y="155" width="22" height="1" fill="#4A4C4F"/><rect x="171" y="155" width="21" height="1" fill="#4C4C4C"/><rect x="192" y="155" width="21" height="1" fill="#636363"/><rect x="213" y="155" width="128" height="1" fill="#4C4C4C"/><rect x="341" y="155" width="22" height="1" fill="#000000"/><rect x="128" y="156" width="21" height="1" fill="#000000"/><rect x="149" y="156" width="22" height="1" fill="#4A4C4F"/><rect x="171" y="156" width="21" height="1" fill="#4C4C4C"/><rect x="192" y="156" width="21" height="1" fill="#636363"/><rect x="213" y="156" width="128" height="1" fill="#4C4C4C"/><rect x="341" y="156" width="22" height="1" fill="#000000"/><rect x="128" y="157" width="21" height="1" fill="#000000"/><rect x="149" y="157" width="22" height="1" fill="#4A4C4F"/><rect x="171" y="157" width="21" height="1" fill="#4C4C4C"/><rect x="192" y="157" width="21" height="1" fill="#636363"/><rect x="213" y="157" width="128" height="1" fill="#4C4C4C"/><rect x="341" y="157" width="22" height="1" fill="#000000"/><rect x="128" y="158" width="21" height="1" fill="#000000"/><rect x="149" y="158" width="22" height="1" fill="#4A4C4F"/><rect x="171" y="158" width="21" height="1" fill="#4C4C4C"/><rect x="192" y="158" width="21" height="1" fill="#636363"/><rect x="213" y="158" width="128" height="1" fill="#4C4C4C"/><rect x="341" y="158" width="22" height="1" fill="#000000"/><rect x="128" y="159" width="21" height="1" fill="#000000"/><rect x="149" y="159" width="22" height="1" fill="#4A4C4F"/><rect x="171" y="159" width="21" height="1" fill="#4C4C4C"/><rect x="192" y="159" width="21" height="1" fill="#636363"/><rect x="213" y="159" width="128" height="1" fill="#4C4C4C"/><rect x="341" y="159" width="22" height="1" fill="#000000"/><rect x="128" y="160" width="21" height="1" fill="#000000"/><rect x="149" y="160" width="22" height="1" fill="#4A4C4F"/><rect x="171" y="160" width="21" height="1" fill="#4C4C4C"/><rect x="192" y="160" width="21" height="1" fill="#636363"/><rect x="213" y="160" width="128" height="1" fill="#4C4C4C"/><rect x="341" y="160" width="22" height="1" fill="#000000"/><rect x="128" y="161" width="21" height="1" fill="#000000"/><rect x="149" y="161" width="22" height="1" fill="#4A4C4F"/><rect x="171" y="161" width="21" height="1" fill="#4C4C4C"/><rect x="192" y="161" width="21" height="1" fill="#636363"/><rect x="213" y="161" width="128" height="1" fill="#4C4C4C"/><rect x="341" y="161" width="22" height="1" fill="#000000"/><rect x="128" y="162" width="21" height="1" fill="#000000"/><rect x="149" y="162" width="22" height="1" fill="#4A4C4F"/><rect x="171" y="162" width="21" height="1" fill="#4C4C4C"/><rect x="192" y="162" width="21" height="1" fill="#636363"/><rect x="213" y="162" width="128" height="1" fill="#4C4C4C"/><rect x="341" y="162" width="22" height="1" fill="#000000"/><rect x="128" y="163" width="21" height="1" fill="#000000"/><rect x="149" y="163" width="22" height="1" fill="#4A4C4F"/><rect x="171" y="163" width="21" height="1" fill="#4C4C4C"/><rect x="192" y="163" width="21" height="1" fill="#636363"/><rect x="213" y="163" width="128" height="1" fill="#4C4C4C"/><rect x="341" y="163" width="22" height="1" fill="#000000"/><rect x="128" y="164" width="21" height="1" fill="#000000"/><rect x="149" y="164" width="22" height="1" fill="#4A4C4F"/><rect x="171" y="164" width="21" height="1" fill="#4C4C4C"/><rect x="192" y="164" width="21" height="1" fill="#636363"/><rect x="213" y="164" width="128" height="1" fill="#4C4C4C"/><rect x="341" y="164" width="22" height="1" fill="#000000"/><rect x="128" y="165" width="21" height="1" fill="#000000"/><rect x="149" y="165" width="22" height="1" fill="#4A4C4F"/><rect x="171" y="165" width="21" height="1" fill="#4C4C4C"/><rect x="192" y="165" width="21" height="1" fill="#636363"/><rect x="213" y="165" width="128" height="1" fill="#4C4C4C"/><rect x="341" y="165" width="22" height="1" fill="#000000"/><rect x="128" y="166" width="21" height="1" fill="#000000"/><rect x="149" y="166" width="22" height="1" fill="#4A4C4F"/><rect x="171" y="166" width="21" height="1" fill="#4C4C4C"/><rect x="192" y="166" width="21" height="1" fill="#636363"/><rect x="213" y="166" width="128" height="1" fill="#4C4C4C"/><rect x="341" y="166" width="22" height="1" fill="#000000"/><rect x="128" y="167" width="21" height="1" fill="#000000"/><rect x="149" y="167" width="22" height="1" fill="#4A4C4F"/><rect x="171" y="167" width="21" height="1" fill="#4C4C4C"/><rect x="192" y="167" width="21" height="1" fill="#636363"/><rect x="213" y="167" width="128" height="1" fill="#4C4C4C"/><rect x="341" y="167" width="22" height="1" fill="#000000"/><rect x="128" y="168" width="21" height="1" fill="#000000"/><rect x="149" y="168" width="22" height="1" fill="#4A4C4F"/><rect x="171" y="168" width="21" height="1" fill="#4C4C4C"/><rect x="192" y="168" width="21" height="1" fill="#636363"/><rect x="213" y="168" width="128" height="1" fill="#4C4C4C"/><rect x="341" y="168" width="22" height="1" fill="#000000"/><rect x="128" y="169" width="21" height="1" fill="#000000"/><rect x="149" y="169" width="22" height="1" fill="#4A4C4F"/><rect x="171" y="169" width="21" height="1" fill="#4C4C4C"/><rect x="192" y="169" width="21" height="1" fill="#636363"/><rect x="213" y="169" width="128" height="1" fill="#4C4C4C"/><rect x="341" y="169" width="22" height="1" fill="#000000"/><rect x="128" y="170" width="21" height="1" fill="#000000"/><rect x="149" y="170" width="22" height="1" fill="#4A4C4F"/><rect x="171" y="170" width="21" height="1" fill="#4C4C4C"/><rect x="192" y="170" width="21" height="1" fill="#636363"/><rect x="213" y="170" width="128" height="1" fill="#4C4C4C"/><rect x="341" y="170" width="22" height="1" fill="#000000"/><rect x="128" y="171" width="21" height="1" fill="#000000"/><rect x="149" y="171" width="22" height="1" fill="#4C4C4C"/><rect x="171" y="171" width="21" height="1" fill="#636363"/><rect x="192" y="171" width="149" height="1" fill="#4C4C4C"/><rect x="341" y="171" width="22" height="1" fill="#000000"/><rect x="128" y="172" width="21" height="1" fill="#000000"/><rect x="149" y="172" width="22" height="1" fill="#4C4C4C"/><rect x="171" y="172" width="21" height="1" fill="#636363"/><rect x="192" y="172" width="149" height="1" fill="#4C4C4C"/><rect x="341" y="172" width="22" height="1" fill="#000000"/><rect x="128" y="173" width="21" height="1" fill="#000000"/><rect x="149" y="173" width="22" height="1" fill="#4C4C4C"/><rect x="171" y="173" width="21" height="1" fill="#636363"/><rect x="192" y="173" width="149" height="1" fill="#4C4C4C"/><rect x="341" y="173" width="22" height="1" fill="#000000"/><rect x="128" y="174" width="21" height="1" fill="#000000"/><rect x="149" y="174" width="22" height="1" fill="#4C4C4C"/><rect x="171" y="174" width="21" height="1" fill="#636363"/><rect x="192" y="174" width="149" height="1" fill="#4C4C4C"/><rect x="341" y="174" width="22" height="1" fill="#000000"/><rect x="128" y="175" width="21" height="1" fill="#000000"/><rect x="149" y="175" width="22" height="1" fill="#4C4C4C"/><rect x="171" y="175" width="21" height="1" fill="#636363"/><rect x="192" y="175" width="149" height="1" fill="#4C4C4C"/><rect x="341" y="175" width="22" height="1" fill="#000000"/><rect x="128" y="176" width="21" height="1" fill="#000000"/><rect x="149" y="176" width="22" height="1" fill="#4C4C4C"/><rect x="171" y="176" width="21" height="1" fill="#636363"/><rect x="192" y="176" width="149" height="1" fill="#4C4C4C"/><rect x="341" y="176" width="22" height="1" fill="#000000"/><rect x="128" y="177" width="21" height="1" fill="#000000"/><rect x="149" y="177" width="22" height="1" fill="#4C4C4C"/><rect x="171" y="177" width="21" height="1" fill="#636363"/><rect x="192" y="177" width="149" height="1" fill="#4C4C4C"/><rect x="341" y="177" width="22" height="1" fill="#000000"/><rect x="128" y="178" width="21" height="1" fill="#000000"/><rect x="149" y="178" width="22" height="1" fill="#4C4C4C"/><rect x="171" y="178" width="21" height="1" fill="#636363"/><rect x="192" y="178" width="149" height="1" fill="#4C4C4C"/><rect x="341" y="178" width="22" height="1" fill="#000000"/><rect x="128" y="179" width="21" height="1" fill="#000000"/><rect x="149" y="179" width="22" height="1" fill="#4C4C4C"/><rect x="171" y="179" width="21" height="1" fill="#636363"/><rect x="192" y="179" width="149" height="1" fill="#4C4C4C"/><rect x="341" y="179" width="22" height="1" fill="#000000"/><rect x="128" y="180" width="21" height="1" fill="#000000"/><rect x="149" y="180" width="22" height="1" fill="#4C4C4C"/><rect x="171" y="180" width="21" height="1" fill="#636363"/><rect x="192" y="180" width="149" height="1" fill="#4C4C4C"/><rect x="341" y="180" width="22" height="1" fill="#000000"/><rect x="128" y="181" width="21" height="1" fill="#000000"/><rect x="149" y="181" width="22" height="1" fill="#4C4C4C"/><rect x="171" y="181" width="21" height="1" fill="#636363"/><rect x="192" y="181" width="149" height="1" fill="#4C4C4C"/><rect x="341" y="181" width="22" height="1" fill="#000000"/><rect x="128" y="182" width="21" height="1" fill="#000000"/><rect x="149" y="182" width="22" height="1" fill="#4C4C4C"/><rect x="171" y="182" width="21" height="1" fill="#636363"/><rect x="192" y="182" width="149" height="1" fill="#4C4C4C"/><rect x="341" y="182" width="22" height="1" fill="#000000"/><rect x="128" y="183" width="21" height="1" fill="#000000"/><rect x="149" y="183" width="22" height="1" fill="#4C4C4C"/><rect x="171" y="183" width="21" height="1" fill="#636363"/><rect x="192" y="183" width="149" height="1" fill="#4C4C4C"/><rect x="341" y="183" width="22" height="1" fill="#000000"/><rect x="128" y="184" width="21" height="1" fill="#000000"/><rect x="149" y="184" width="22" height="1" fill="#4C4C4C"/><rect x="171" y="184" width="21" height="1" fill="#636363"/><rect x="192" y="184" width="149" height="1" fill="#4C4C4C"/><rect x="341" y="184" width="22" height="1" fill="#000000"/><rect x="128" y="185" width="21" height="1" fill="#000000"/><rect x="149" y="185" width="22" height="1" fill="#4C4C4C"/><rect x="171" y="185" width="21" height="1" fill="#636363"/><rect x="192" y="185" width="149" height="1" fill="#4C4C4C"/><rect x="341" y="185" width="22" height="1" fill="#000000"/><rect x="128" y="186" width="21" height="1" fill="#000000"/><rect x="149" y="186" width="22" height="1" fill="#4C4C4C"/><rect x="171" y="186" width="21" height="1" fill="#636363"/><rect x="192" y="186" width="149" height="1" fill="#4C4C4C"/><rect x="341" y="186" width="22" height="1" fill="#000000"/><rect x="128" y="187" width="21" height="1" fill="#000000"/><rect x="149" y="187" width="22" height="1" fill="#4C4C4C"/><rect x="171" y="187" width="21" height="1" fill="#636363"/><rect x="192" y="187" width="149" height="1" fill="#4C4C4C"/><rect x="341" y="187" width="22" height="1" fill="#000000"/><rect x="128" y="188" width="21" height="1" fill="#000000"/><rect x="149" y="188" width="22" height="1" fill="#4C4C4C"/><rect x="171" y="188" width="21" height="1" fill="#636363"/><rect x="192" y="188" width="149" height="1" fill="#4C4C4C"/><rect x="341" y="188" width="22" height="1" fill="#000000"/><rect x="128" y="189" width="21" height="1" fill="#000000"/><rect x="149" y="189" width="22" height="1" fill="#4C4C4C"/><rect x="171" y="189" width="21" height="1" fill="#636363"/><rect x="192" y="189" width="149" height="1" fill="#4C4C4C"/><rect x="341" y="189" width="22" height="1" fill="#000000"/><rect x="128" y="190" width="21" height="1" fill="#000000"/><rect x="149" y="190" width="22" height="1" fill="#4C4C4C"/><rect x="171" y="190" width="21" height="1" fill="#636363"/><rect x="192" y="190" width="149" height="1" fill="#4C4C4C"/><rect x="341" y="190" width="22" height="1" fill="#000000"/><rect x="128" y="191" width="21" height="1" fill="#000000"/><rect x="149" y="191" width="22" height="1" fill="#4C4C4C"/><rect x="171" y="191" width="21" height="1" fill="#636363"/><rect x="192" y="191" width="149" height="1" fill="#4C4C4C"/><rect x="341" y="191" width="22" height="1" fill="#000000"/><rect x="128" y="192" width="21" height="1" fill="#000000"/><rect x="149" y="192" width="22" height="1" fill="#4C4D48"/><rect x="171" y="192" width="170" height="1" fill="#4C4C4C"/><rect x="341" y="192" width="22" height="1" fill="#000000"/><rect x="128" y="193" width="21" height="1" fill="#000000"/><rect x="149" y="193" width="22" height="1" fill="#4C4D48"/><rect x="171" y="193" width="170" height="1" fill="#4C4C4C"/><rect x="341" y="193" width="22" height="1" fill="#000000"/><rect x="128" y="194" width="21" height="1" fill="#000000"/><rect x="149" y="194" width="22" height="1" fill="#4C4D48"/><rect x="171" y="194" width="170" height="1" fill="#4C4C4C"/><rect x="341" y="194" width="22" height="1" fill="#000000"/><rect x="128" y="195" width="21" height="1" fill="#000000"/><rect x="149" y="195" width="22" height="1" fill="#4C4D48"/><rect x="171" y="195" width="170" height="1" fill="#4C4C4C"/><rect x="341" y="195" width="22" height="1" fill="#000000"/><rect x="128" y="196" width="21" height="1" fill="#000000"/><rect x="149" y="196" width="22" height="1" fill="#4C4D48"/><rect x="171" y="196" width="170" height="1" fill="#4C4C4C"/><rect x="341" y="196" width="22" height="1" fill="#000000"/><rect x="128" y="197" width="21" height="1" fill="#000000"/><rect x="149" y="197" width="22" height="1" fill="#4C4D48"/><rect x="171" y="197" width="170" height="1" fill="#4C4C4C"/><rect x="341" y="197" width="22" height="1" fill="#000000"/><rect x="128" y="198" width="21" height="1" fill="#000000"/><rect x="149" y="198" width="22" height="1" fill="#4C4D48"/><rect x="171" y="198" width="170" height="1" fill="#4C4C4C"/><rect x="341" y="198" width="22" height="1" fill="#000000"/><rect x="128" y="199" width="21" height="1" fill="#000000"/><rect x="149" y="199" width="22" height="1" fill="#4C4D48"/><rect x="171" y="199" width="170" height="1" fill="#4C4C4C"/><rect x="341" y="199" width="22" height="1" fill="#000000"/><rect x="128" y="200" width="21" height="1" fill="#000000"/><rect x="149" y="200" width="22" height="1" fill="#4C4D48"/><rect x="171" y="200" width="170" height="1" fill="#4C4C4C"/><rect x="341" y="200" width="22" height="1" fill="#000000"/><rect x="128" y="201" width="21" height="1" fill="#000000"/><rect x="149" y="201" width="22" height="1" fill="#4C4D48"/><rect x="171" y="201" width="170" height="1" fill="#4C4C4C"/><rect x="341" y="201" width="22" height="1" fill="#000000"/><rect x="128" y="202" width="21" height="1" fill="#000000"/><rect x="149" y="202" width="22" height="1" fill="#4C4D48"/><rect x="171" y="202" width="170" height="1" fill="#4C4C4C"/><rect x="341" y="202" width="22" height="1" fill="#000000"/><rect x="128" y="203" width="21" height="1" fill="#000000"/><rect x="149" y="203" width="22" height="1" fill="#4C4D48"/><rect x="171" y="203" width="170" height="1" fill="#4C4C4C"/><rect x="341" y="203" width="22" height="1" fill="#000000"/><rect x="128" y="204" width="21" height="1" fill="#000000"/><rect x="149" y="204" width="22" height="1" fill="#4C4D48"/><rect x="171" y="204" width="170" height="1" fill="#4C4C4C"/><rect x="341" y="204" width="22" height="1" fill="#000000"/><rect x="128" y="205" width="21" height="1" fill="#000000"/><rect x="149" y="205" width="22" height="1" fill="#4C4D48"/><rect x="171" y="205" width="170" height="1" fill="#4C4C4C"/><rect x="341" y="205" width="22" height="1" fill="#000000"/><rect x="128" y="206" width="21" height="1" fill="#000000"/><rect x="149" y="206" width="22" height="1" fill="#4C4D48"/><rect x="171" y="206" width="170" height="1" fill="#4C4C4C"/><rect x="341" y="206" width="22" height="1" fill="#000000"/><rect x="128" y="207" width="21" height="1" fill="#000000"/><rect x="149" y="207" width="22" height="1" fill="#4C4D48"/><rect x="171" y="207" width="170" height="1" fill="#4C4C4C"/><rect x="341" y="207" width="22" height="1" fill="#000000"/><rect x="128" y="208" width="21" height="1" fill="#000000"/><rect x="149" y="208" width="22" height="1" fill="#4C4D48"/><rect x="171" y="208" width="170" height="1" fill="#4C4C4C"/><rect x="341" y="208" width="22" height="1" fill="#000000"/><rect x="128" y="209" width="21" height="1" fill="#000000"/><rect x="149" y="209" width="22" height="1" fill="#4C4D48"/><rect x="171" y="209" width="170" height="1" fill="#4C4C4C"/><rect x="341" y="209" width="22" height="1" fill="#000000"/><rect x="128" y="210" width="21" height="1" fill="#000000"/><rect x="149" y="210" width="22" height="1" fill="#4C4D48"/><rect x="171" y="210" width="170" height="1" fill="#4C4C4C"/><rect x="341" y="210" width="22" height="1" fill="#000000"/><rect x="128" y="211" width="21" height="1" fill="#000000"/><rect x="149" y="211" width="22" height="1" fill="#4C4D48"/><rect x="171" y="211" width="170" height="1" fill="#4C4C4C"/><rect x="341" y="211" width="22" height="1" fill="#000000"/><rect x="128" y="212" width="21" height="1" fill="#000000"/><rect x="149" y="212" width="22" height="1" fill="#4C4D48"/><rect x="171" y="212" width="170" height="1" fill="#4C4C4C"/><rect x="341" y="212" width="22" height="1" fill="#000000"/></svg>