<svg xmlns="http://www.w3.org/2000/svg" viewBox="0 0 512 512" width="512" height="512" shape-rendering="crispEdges"><rect x="192" y="64" width="107" height="1" fill="#3C301C"/><rect x="192" y="65" width="107" height="1" fill="#3C301C"/><rect x="192" y="66" width="107" height="1" fill="#3C301C"/><rect x="192" y="67" width="107" height="1" fill="#3C301C"/><rect x="192" y="68" width="107" height="1" fill="#3C301C"/><rect x="192" y="69" width="107" height="1" fill="#3C301C"/><rect x="192" y="70" width="107" height="1" fill="#3C301C"/><rect x="192" y="71" width="107" height="1" fill="#3C301C"/><rect x="192" y="72" width="107" height="1" fill="#3C301C"/><rect x="192" y="73" width="107" height="1" fill="#3C301C"/><rect x="192" y="74" width="107" height="1" fill="#3C301C"/><rect x="192" y="75" width="107" height="1" fill="#3C301C"/><rect x="192" y="76" width="107" height="1" fill="#3C301C"/><rect x="192" y="77" width="107" height="1" fill="#3C301C"/><rect x="192" y="78" width="107" height="1" fill="#3C301C"/><rect x="192" y="79" width="107" height="1" fill="#3C301C"/><rect x="192" y="80" width="107" height="1" fill="#3C301C"/><rect x="192" y="81" width="107" height="1" fill="#3C301C"/><rect x="192" y="82" width="107" height="1" fill="#3C301C"/><rect x="192" y="83" width="107" height="1" fill="#3C301C"/><rect x="192" y="84" width="107" height="1" fill="#3C301C"/><rect x="171" y="85" width="149" height="1" fill="#3C301C"/><rect x="171" y="86" width="149" height="1" fill="#3C301C"/><rect x="171" y="87" width="149" height="1" fill="#3C301C"/><rect x="171" y="88" width="149" height="1" fill="#3C301C"/><rect x="171" y="89" width="149" height="1" fill="#3C301C"/><rect x="171" y="90" width="149" height="1" fill="#3C301C"/><rect x="171" y="91" width="149" height="1" fill="#3C301C"/><rect x="171" y="92" width="149" height="1" fill="#3C301C"/><rect x="171" y="93" width="149" height="1" fill="#3C301C"/><rect x="171" y="94" width="149" height="1" fill="#3C301C"/><rect x="171" y="95" width="149" height="1" fill="#3C301C"/><rect x="171" y="96" width="149" height="1" fill="#3C301C"/><rect x="171" y="97" width="149" height="1" fill="#3C301C"/><rect x="171" y="98" width="149" height="1" fill="#3C301C"/><rect x="171" y="99" width="149" height="1" fill="#3C301C"/><rect x="171" y="100" width="149" height="1" fill="#3C301C"/><rect x="171" y="101" width="149" height="1" fill="#3C301C"/><rect x="171" y="102" width="149" height="1" fill="#3C301C"/><rect x="171" y="103" width="149" height="1" fill="#3C301C"/><rect x="171" y="104" width="149" height="1" fill="#3C301C"/><rect x="171" y="105" width="149" height="1" fill="#3C301C"/><rect x="171" y="106" width="149" height="1" fill="#3C301C"/><rect x="171" y="107" width="149" height="1" fill="#3C301C"/><rect x="171" y="108" width="149" height="1" fill="#3C301C"/><rect x="171" y="109" width="149" height="1" fill="#3C301C"/><rect x="171" y="110" width="149" height="1" fill="#3C301C"/><rect x="171" y="111" width="149" height="1" fill="#3C301C"/><rect x="171" y="112" width="149" height="1" fill="#3C301C"/><rect x="171" y="113" width="149" height="1" fill="#3C301C"/><rect x="171" y="114" width="149" height="1" fill="#3C301C"/><rect x="171" y="115" width="149" height="1" fill="#3C301C"/><rect x="171" y="116" width="149" height="1" fill="#3C301C"/><rect x="171" y="117" width="149" height="1" fill="#3C301C"/><rect x="171" y="118" width="149" height="1" fill="#3C301C"/><rect x="171" y="119" width="149" height="1" fill="#3C301C"/><rect x="171" y="120" width="149" height="1" fill="#3C301C"/><rect x="171" y="121" width="149" height="1" fill="#3C301C"/><rect x="171" y="122" width="149" height="1" fill="#3C301C"/><rect x="171" y="123" width="149" height="1" fill="#3C301C"/><rect x="171" y="124" width="149" height="1" fill="#3C301C"/><rect x="171" y="125" width="149" height="1" fill="#3C301C"/><rect x="171" y="126" width="149" height="1" fill="#3C301C"/><rect x="171" y="127" width="149" height="1" fill="#3C301C"/><rect x="149" y="128" width="192" height="1" fill="#3C301C"/><rect x="149" y="129" width="192" height="1" fill="#3C301C"/><rect x="149" y="130" width="192" height="1" fill="#3C301C"/><rect x="149" y="131" width="192" height="1" fill="#3C301C"/><rect x="149" y="132" width="192" height="1" fill="#3C301C"/><rect x="149" y="133" width="192" height="1" fill="#3C301C"/><rect x="149" y="134" width="192" height="1" fill="#3C301C"/><rect x="149" y="135" width="192" height="1" fill="#3C301C"/><rect x="149" y="136" width="192" height="1" fill="#3C301C"/><rect x="149" y="137" width="192" height="1" fill="#3C301C"/><rect x="149" y="138" width="192" height="1" fill="#3C301C"/><rect x="149" y="139" width="192" height="1" fill="#3C301C"/><rect x="149" y="140" width="192" height="1" fill="#3C301C"/><rect x="149" y="141" width="192" height="1" fill="#3C301C"/><rect x="149" y="142" width="192" height="1" fill="#3C301C"/><rect x="149" y="143" width="192" height="1" fill="#3C301C"/><rect x="149" y="144" width="192" height="1" fill="#3C301C"/><rect x="149" y="145" width="192" height="1" fill="#3C301C"/><rect x="149" y="146" width="192" height="1" fill="#3C301C"/><rect x="149" y="147" width="192" height="1" fill="#3C301C"/><rect x="149" y="148" width="192" height="1" fill="#3C301C"/><rect x="128" y="149" width="235" height="1" fill="#000000"/><rect x="128" y="150" width="235" height="1" fill="#000000"/><rect x="128" y="151" width="235" height="1" fill="#000000"/><rect x="128" y="152" width="235" height="1" fill="#000000"/><rect x="128" y="153" width="235" height="1" fill="#000000"/><rect x="128" y="154" width="235" height="1" fill="#000000"/><rect x="128" y="155" width="235" height="1" fill="#000000"/><rect x="128" y="156" width="235" height="1" fill="#000000"/><rect x="128" y="157" width="235" height="1" fill="#000000"/><rect x="128" y="158" width="235" height="1" fill="#000000"/><rect x="128" y="159" width="235" height="1" fill="#000000"/><rect x="128" y="160" width="235" height="1" fill="#000000"/><rect x="128" y="161" width="235" height="1" fill="#000000"/><rect x="128" y="162" width="235" height="1" fill="#000000"/><rect x="128" y="163" width="235" height="1" fill="#000000"/><rect x="128" y="164" width="235" height="1" fill="#000000"/><rect x="128" y="165" width="235" height="1" fill="#000000"/><rect x="128" y="166" width="235" height="1" fill="#000000"/><rect x="128" y="167" width="235" height="1" fill="#000000"/><rect x="128" y="168" width="235" height="1" fill="#000000"/><rect x="128" y="169" width="235" height="1" fill="#000000"/><rect x="128" y="170" width="235" height="1" fill="#000000"/><rect x="85" y="171" width="320" height="1" fill="#3C301C"/><rect x="85" y="172" width="320" height="1" fill="#3C301C"/><rect x="85" y="173" width="320" height="1" fill="#3C301C"/><rect x="85" y="174" width="320" height="1" fill="#3C301C"/><rect x="85" y="175" width="320" height="1" fill="#3C301C"/><rect x="85" y="176" width="320" height="1" fill="#3C301C"/><rect x="85" y="177" width="320" height="1" fill="#3C301C"/><rect x="85" y="178" width="320" height="1" fill="#3C301C"/><rect x="85" y="179" width="320" height="1" fill="#3C301C"/><rect x="85" y="180" width="320" height="1" fill="#3C301C"/><rect x="85" y="181" width="320" height="1" fill="#3C301C"/><rect x="85" y="182" width="320" height="1" fill="#3C301C"/><rect x="85" y="183" width="320" height="1" fill="#3C301C"/><rect x="85" y="184" width="320" height="1" fill="#3C301C"/><rect x="85" y="185" width="320" height="1" fill="#3C301C"/><rect x="85" y="186" width="320" height="1" fill="#3C301C"/><rect x="85" y="187" width="320" height="1" fill="#3C301C"/><rect x="85" y="188" width="320" height="1" fill="#3C301C"/><rect x="85" y="189" width="320" height="1" fill="#3C301C"/><rect x="85" y="190" width="320" height="1" fill="#3C301C"/><rect x="85" y="191" width="320" height="1" fill="#3C301C"/><rect x="64" y="192" width="341" height="1" fill="#3C301C"/><rect x="405" y="192" width="22" height="1" fill="#393021"/><rect x="64" y="193" width="341" height="1" fill="#3C301C"/><rect x="405" y="193" width="22" height="1" fill="#393021"/><rect x="64" y="194" width="341" height="1" fill="#3C301C"/><rect x="405" y="194" width="22" height="1" fill="#393021"/><rect x="64" y="195" width="341" height="1" fill="#3C301C"/><rect x="405" y="195" width="22" height="1" fill="#393021"/><rect x="64" y="196" width="341" height="1" fill="#3C301C"/><rect x="405" y="196" width="22" height="1" fill="#393021"/><rect x="64" y="197" width="341" height="1" fill="#3C301C"/><rect x="405" y="197" width="22" height="1" fill="#393021"/><rect x="64" y="198" width="341" height="1" fill="#3C301C"/><rect x="405" y="198" width="22" height="1" fill="#393021"/><rect x="64" y="199" width="341" height="1" fill="#3C301C"/><rect x="405" y="199" width="22" height="1" fill="#393021"/><rect x="64" y="200" width="341" height="1" fill="#3C301C"/><rect x="405" y="200" width="22" height="1" fill="#393021"/><rect x="64" y="201" width="341" height="1" fill="#3C301C"/><rect x="405" y="201" width="22" height="1" fill="#393021"/><rect x="64" y="202" width="341" height="1" fill="#3C301C"/><rect x="405" y="202" width="22" height="1" fill="#393021"/><rect x="64" y="203" width="341" height="1" fill="#3C301C"/><rect x="405" y="203" width="22" height="1" fill="#393021"/><rect x="64" y="204" width="341" height="1" fill="#3C301C"/><rect x="405" y="204" width="22" height="1" fill="#393021"/><rect x="64" y="205" width="341" height="1" fill="#3C301C"/><rect x="405" y="205" width="22" height="1" fill="#393021"/><rect x="64" y="206" width="341" height="1" fill="#3C301C"/><rect x="405" y="206" width="22" height="1" fill="#393021"/><rect x="64" y="207" width="341" height="1" fill="#3C301C"/><rect x="405" y="207" width="22" height="1" fill="#393021"/><rect x="64" y="208" width="341" height="1" fill="#3C301C"/><rect x="405" y="208" width="22" height="1" fill="#393021"/><rect x="64" y="209" width="341" height="1" fill="#3C301C"/><rect x="405" y="209" width="22" height="1" fill="#393021"/><rect x="64" y="210" width="341" height="1" fill="#3C301C"/><rect x="405" y="210" width="22" height="1" fill="#393021"/><rect x="64" y="211" width="341" height="1" fill="#3C301C"/><rect x="405" y="211" width="22" height="1" fill="#393021"/><rect x="64" y="212" width="341" height="1" fill="#3C301C"/><rect x="405" y="212" width="22" height="1" fill="#393021"/></svg>