<svg xmlns="http://www.w3.org/2000/svg" viewBox="0 0 512 512" width="512" height="512" shape-rendering="crispEdges"><rect x="171" y="64" width="149" height="1" fill="#000000"/><rect x="171" y="65" width="149" height="1" fill="#000000"/><rect x="171" y="66" width="149" height="1" fill="#000000"/><rect x="171" y="67" width="149" height="1" fill="#000000"/><rect x="171" y="68" width="149" height="1" fill="#000000"/><rect x="171" y="69" width="149" height="1" fill="#000000"/><rect x="171" y="70" width="149" height="1" fill="#000000"/><rect x="171" y="71" width="149" height="1" fill="#000000"/><rect x="171" y="72" width="149" height="1" fill="#000000"/><rect x="171" y="73" width="149" height="1" fill="#000000"/><rect x="171" y="74" width="149" height="1" fill="#000000"/><rect x="171" y="75" width="149" height="1" fill="#000000"/><rect x="171" y="76" width="149" height="1" fill="#000000"/><rect x="171" y="77" width="149" height="1" fill="#000000"/><rect x="171" y="78" width="149" height="1" fill="#000000"/><rect x="171" y="79" width="149" height="1" fill="#000000"/><rect x="171" y="80" width="149" height="1" fill="#000000"/><rect x="171" y="81" width="149" height="1" fill="#000000"/><rect x="171" y="82" width="149" height="1" fill="#000000"/><rect x="171" y="83" width="149" height="1" fill="#000000"/><rect x="171" y="84" width="149" height="1" fill="#000000"/><rect x="149" y="85" width="43" height="1" fill="#000000"/><rect x="192" y="85" width="21" height="1" fill="#1A1A1A"/><rect x="213" y="85" width="128" height="1" fill="#000000"/><rect x="149" y="86" width="43" height="1" fill="#000000"/><rect x="192" y="86" width="21" height="1" fill="#1A1A1A"/><rect x="213" y="86" width="128" height="1" fill="#000000"/><rect x="149" y="87" width="43" height="1" fill="#000000"/><rect x="192" y="87" width="21" height="1" fill="#1A1A1A"/><rect x="213" y="87" width="128" height="1" fill="#000000"/><rect x="149" y="88" width="43" height="1" fill="#000000"/><rect x="192" y="88" width="21" height="1" fill="#1A1A1A"/><rect x="213" y="88" width="128" height="1" fill="#000000"/><rect x="149" y="89" width="43" height="1" fill="#000000"/><rect x="192" y="89" width="21" height="1" fill="#1A1A1A"/><rect x="213" y="89" width="128" height="1" fill="#000000"/><rect x="149" y="90" width="43" height="1" fill="#000000"/><rect x="192" y="90" width="21" height="1" fill="#1A1A1A"/><rect x="213" y="90" width="128" height="1" fill="#000000"/><rect x="149" y="91" width="43" height="1" fill="#000000"/><rect x="192" y="91" width="21" height="1" fill="#1A1A1A"/><rect x="213" y="91" width="128" height="1" fill="#000000"/><rect x="149" y="92" width="43" height="1" fill="#000000"/><rect x="192" y="92" width="21" height="1" fill="#1A1A1A"/><rect x="213" y="92" width="128" height="1" fill="#000000"/><rect x="149" y="93" width="43" height="1" fill="#000000"/><rect x="192" y="93" width="21" height="1" fill="#1A1A1A"/><rect x="213" y="93" width="128" height="1" fill="#000000"/><rect x="149" y="94" width="43" height="1" fill="#000000"/><rect x="192" y="94" width="21" height="1" fill="#1A1A1A"/><rect x="213" y="94" width="128" height="1" fill="#000000"/><rect x="149" y="95" width="43" height="1" fill="#000000"/><rect x="192" y="95" width="21" height="1" fill="#1A1A1A"/><rect x="213" y="95" width="128" height="1" fill="#000000"/><rect x="149" y="96" width="43" height="1" fill="#000000"/><rect x="192" y="96" width="21" height="1" fill="#1A1A1A"/><rect x="213" y="96" width="128" height="1" fill="#000000"/><rect x="149" y="97" width="43" height="1" fill="#000000"/><rect x="192" y="97" width="21" height="1" fill="#1A1A1A"/><rect x="213" y="97" width="128" height="1" fill="#000000"/><rect x="149" y="98" width="43" height="1" fill="#000000"/><rect x="192" y="98" width="21" height="1" fill="#1A1A1A"/><rect x="213" y="98" width="128" height="1" fill="#000000"/><rect x="149" y="99" width="43" height="1" fill="#000000"/><rect x="192" y="99" width="21" height="1" fill="#1A1A1A"/><rect x="213" y="99" width="128" height="1" fill="#000000"/><rect x="149" y="100" width="43" height="1" fill="#000000"/><rect x="192" y="100" width="21" height="1" fill="#1A1A1A"/><rect x="213" y="100" width="128" height="1" fill="#000000"/><rect x="149" y="101" width="43" height="1" fill="#000000"/><rect x="192" y="101" width="21" height="1" fill="#1A1A1A"/><rect x="213" y="101" width="128" height="1" fill="#000000"/><rect x="149" y="102" width="43" height="1" fill="#000000"/><rect x="192" y="102" width="21" height="1" fill="#1A1A1A"/><rect x="213" y="102" width="128" height="1" fill="#000000"/><rect x="149" y="103" width="43" height="1" fill="#000000"/><rect x="192" y="103" width="21" height="1" fill="#1A1A1A"/><rect x="213" y="103" width="128" height="1" fill="#000000"/><rect x="149" y="104" width="43" height="1" fill="#000000"/><rect x="192" y="104" width="21" height="1" fill="#1A1A1A"/><rect x="213" y="104" width="128" height="1" fill="#000000"/><rect x="149" y="105" width="43" height="1" fill="#000000"/><rect x="192" y="105" width="21" height="1" fill="#1A1A1A"/><rect x="213" y="105" width="128" height="1" fill="#000000"/><rect x="149" y="106" width="43" height="1" fill="#000000"/><rect x="192" y="106" width="21" height="1" fill="#1A1A1A"/><rect x="213" y="106" width="128" height="1" fill="#000000"/><rect x="128" y="107" width="43" height="1" fill="#000000"/><rect x="171" y="107" width="21" height="1" fill="#1A1A1A"/><rect x="192" y="107" width="171" height="1" fill="#000000"/><rect x="128" y="108" width="43" height="1" fill="#000000"/><rect x="171" y="108" width="21" height="1" fill="#1A1A1A"/><rect x="192" y="108" width="171" height="1" fill="#000000"/><rect x="128" y="109" width="43" height="1" fill="#000000"/><rect x="171" y="109" width="21" height="1" fill="#1A1A1A"/><rect x="192" y="109" width="171" height="1" fill="#000000"/><rect x="128" y="110" width="43" height="1" fill="#000000"/><rect x="171" y="110" width="21" height="1" fill="#1A1A1A"/><rect x="192" y="110" width="171" height="1" fill="#000000"/><rect x="128" y="111" width="43" height="1" fill="#000000"/><rect x="171" y="111" width="21" height="1" fill="#1A1A1A"/><rect x="192" y="111" width="171" height="1" fill="#000000"/><rect x="128" y="112" width="43" height="1" fill="#000000"/><rect x="171" y="112" width="21" height="1" fill="#1A1A1A"/><rect x="192" y="112" width="171" height="1" fill="#000000"/><rect x="128" y="113" width="43" height="1" fill="#000000"/><rect x="171" y="113" width="21" height="1" fill="#1A1A1A"/><rect x="192" y="113" width="171" height="1" fill="#000000"/><rect x="128" y="114" width="43" height="1" fill="#000000"/><rect x="171" y="114" width="21" height="1" fill="#1A1A1A"/><rect x="192" y="114" width="171" height="1" fill="#000000"/><rect x="128" y="115" width="43" height="1" fill="#000000"/><rect x="171" y="115" width="21" height="1" fill="#1A1A1A"/><rect x="192" y="115" width="171" height="1" fill="#000000"/><rect x="128" y="116" width="43" height="1" fill="#000000"/><rect x="171" y="116" width="21" height="1" fill="#1A1A1A"/><rect x="192" y="116" width="171" height="1" fill="#000000"/><rect x="128" y="117" width="43" height="1" fill="#000000"/><rect x="171" y="117" width="21" height="1" fill="#1A1A1A"/><rect x="192" y="117" width="171" height="1" fill="#000000"/><rect x="128" y="118" width="43" height="1" fill="#000000"/><rect x="171" y="118" width="21" height="1" fill="#1A1A1A"/><rect x="192" y="118" width="171" height="1" fill="#000000"/><rect x="128" y="119" width="43" height="1" fill="#000000"/><rect x="171" y="119" width="21" height="1" fill="#1A1A1A"/><rect x="192" y="119" width="171" height="1" fill="#000000"/><rect x="128" y="120" width="43" height="1" fill="#000000"/><rect x="171" y="120" width="21" height="1" fill="#1A1A1A"/><rect x="192" y="120" width="171" height="1" fill="#000000"/><rect x="128" y="121" width="43" height="1" fill="#000000"/><rect x="171" y="121" width="21" height="1" fill="#1A1A1A"/><rect x="192" y="121" width="171" height="1" fill="#000000"/><rect x="128" y="122" width="43" height="1" fill="#000000"/><rect x="171" y="122" width="21" height="1" fill="#1A1A1A"/><rect x="192" y="122" width="171" height="1" fill="#000000"/><rect x="128" y="123" width="43" height="1" fill="#000000"/><rect x="171" y="123" width="21" height="1" fill="#1A1A1A"/><rect x="192" y="123" width="171" height="1" fill="#000000"/><rect x="128" y="124" width="43" height="1" fill="#000000"/><rect x="171" y="124" width="21" height="1" fill="#1A1A1A"/><rect x="192" y="124" width="171" height="1" fill="#000000"/><rect x="128" y="125" width="43" height="1" fill="#000000"/><rect x="171" y="125" width="21" height="1" fill="#1A1A1A"/><rect x="192" y="125" width="171" height="1" fill="#000000"/><rect x="128" y="126" width="43" height="1" fill="#000000"/><rect x="171" y="126" width="21" height="1" fill="#1A1A1A"/><rect x="192" y="126" width="171" height="1" fill="#000000"/><rect x="128" y="127" width="43" height="1" fill="#000000"/><rect x="171" y="127" width="21" height="1" fill="#1A1A1A"/><rect x="192" y="127" width="171" height="1" fill="#000000"/><rect x="107" y="128" width="277" height="1" fill="#000000"/><rect x="107" y="129" width="277" height="1" fill="#000000"/><rect x="107" y="130" width="277" height="1" fill="#000000"/><rect x="107" y="131" width="277" height="1" fill="#000000"/><rect x="107" y="132" width="277" height="1" fill="#000000"/><rect x="107" y="133" width="277" height="1" fill="#000000"/><rect x="107" y="134" width="277" height="1" fill="#000000"/><rect x="107" y="135" width="277" height="1" fill="#000000"/><rect x="107" y="136" width="277" height="1" fill="#000000"/><rect x="107" y="137" width="277" height="1" fill="#000000"/><rect x="107" y="138" width="277" height="1" fill="#000000"/><rect x="107" y="139" width="277" height="1" fill="#000000"/><rect x="107" y="140" width="277" height="1" fill="#000000"/><rect x="107" y="141" width="277" height="1" fill="#000000"/><rect x="107" y="142" width="277" height="1" fill="#000000"/><rect x="107" y="143" width="277" height="1" fill="#000000"/><rect x="107" y="144" width="277" height="1" fill="#000000"/><rect x="107" y="145" width="277" height="1" fill="#000000"/><rect x="107" y="146" width="277" height="1" fill="#000000"/><rect x="107" y="147" width="277" height="1" fill="#000000"/><rect x="107" y="148" width="277" height="1" fill="#000000"/><rect x="107" y="149" width="277" height="1" fill="#000000"/><rect x="107" y="150" width="277" height="1" fill="#000000"/><rect x="107" y="151" width="277" height="1" fill="#000000"/><rect x="107" y="152" width="277" height="1" fill="#000000"/><rect x="107" y="153" width="277" height="1" fill="#000000"/><rect x="107" y="154" width="277" height="1" fill="#000000"/><rect x="107" y="155" width="277" height="1" fill="#000000"/><rect x="107" y="156" width="277" height="1" fill="#000000"/><rect x="107" y="157" width="277" height="1" fill="#000000"/><rect x="107" y="158" width="277" height="1" fill="#000000"/><rect x="107" y="159" width="277" height="1" fill="#000000"/><rect x="107" y="160" width="277" height="1" fill="#000000"/><rect x="107" y="161" width="277" height="1" fill="#000000"/><rect x="107" y="162" width="277" height="1" fill="#000000"/><rect x="107" y="163" width="277" height="1" fill="#000000"/><rect x="107" y="164" width="277" height="1" fill="#000000"/><rect x="107" y="165" width="277" height="1" fill="#000000"/><rect x="107" y="166" width="277" height="1" fill="#000000"/><rect x="107" y="167" width="277" height="1" fill="#000000"/><rect x="107" y="168" width="277" height="1" fill="#000000"/><rect x="107" y="169" width="277" height="1" fill="#000000"/><rect x="107" y="170" width="277" height="1" fill="#000000"/><rect x="107" y="171" width="277" height="1" fill="#000000"/><rect x="107" y="172" width="277" height="1" fill="#000000"/><rect x="107" y="173" width="277" height="1" fill="#000000"/><rect x="107" y="174" width="277" height="1" fill="#000000"/><rect x="107" y="175" width="277" height="1" fill="#000000"/><rect x="107" y="176" width="277" height="1" fill="#000000"/><rect x="107" y="177" width="277" height="1" fill="#000000"/><rect x="107" y="178" width="277" height="1" fill="#000000"/><rect x="107" y="179" width="277" height="1" fill="#000000"/><rect x="107" y="180" width="277" height="1" fill="#000000"/><rect x="107" y="181" width="277" height="1" fill="#000000"/><rect x="107" y="182" width="277" height="1" fill="#000000"/><rect x="107" y="183" width="277" height="1" fill="#000000"/><rect x="107" y="184" width="277" height="1" fill="#000000"/><rect x="107" y="185" width="277" height="1" fill="#000000"/><rect x="107" y="186" width="277" height="1" fill="#000000"/><rect x="107" y="187" width="277" height="1" fill="#000000"/><rect x="107" y="188" width="277" height="1" fill="#000000"/><rect x="107" y="189" width="277" height="1" fill="#000000"/><rect x="107" y="190" width="277" height="1" fill="#000000"/><rect x="107" y="191" width="277" height="1" fill="#000000"/><rect x="107" y="192" width="106" height="1" fill="#000000"/><rect x="235" y="192" width="149" height="1" fill="#000000"/><rect x="107" y="193" width="106" height="1" fill="#000000"/><rect x="235" y="193" width="149" height="1" fill="#000000"/><rect x="107" y="194" width="106" height="1" fill="#000000"/><rect x="235" y="194" width="149" height="1" fill="#000000"/><rect x="107" y="195" width="106" height="1" fill="#000000"/><rect x="235" y="195" width="149" height="1" fill="#000000"/><rect x="107" y="196" width="106" height="1" fill="#000000"/><rect x="235" y="196" width="149" height="1" fill="#000000"/><rect x="107" y="197" width="106" height="1" fill="#000000"/><rect x="235" y="197" width="149" height="1" fill="#000000"/><rect x="107" y="198" width="106" height="1" fill="#000000"/><rect x="235" y="198" width="149" height="1" fill="#000000"/><rect x="107" y="199" width="106" height="1" fill="#000000"/><rect x="235" y="199" width="149" height="1" fill="#000000"/><rect x="107" y="200" width="106" height="1" fill="#000000"/><rect x="235" y="200" width="149" height="1" fill="#000000"/><rect x="107" y="201" width="106" height="1" fill="#000000"/><rect x="235" y="201" width="149" height="1" fill="#000000"/><rect x="107" y="202" width="106" height="1" fill="#000000"/><rect x="235" y="202" width="149" height="1" fill="#000000"/><rect x="107" y="203" width="106" height="1" fill="#000000"/><rect x="235" y="203" width="149" height="1" fill="#000000"/><rect x="107" y="204" width="106" height="1" fill="#000000"/><rect x="235" y="204" width="149" height="1" fill="#000000"/><rect x="107" y="205" width="106" height="1" fill="#000000"/><rect x="235" y="205" width="149" height="1" fill="#000000"/><rect x="107" y="206" width="106" height="1" fill="#000000"/><rect x="235" y="206" width="149" height="1" fill="#000000"/><rect x="107" y="207" width="106" height="1" fill="#000000"/><rect x="235" y="207" width="149" height="1" fill="#000000"/><rect x="107" y="208" width="106" height="1" fill="#000000"/><rect x="235" y="208" width="149" height="1" fill="#000000"/><rect x="107" y="209" width="106" height="1" fill="#000000"/><rect x="235" y="209" width="149" height="1" fill="#000000"/><rect x="107" y="210" width="106" height="1" fill="#000000"/><rect x="235" y="210" width="149" height="1" fill="#000000"/><rect x="107" y="211" width="106" height="1" fill="#000000"/><rect x="235" y="211" width="149" height="1" fill="#000000"/><rect x="107" y="212" width="106" height="1" fill="#000000"/><rect x="235" y="212" width="149" height="1" fill="#000000"/><rect x="107" y="213" width="85" height="1" fill="#000000"/><rect x="235" y="213" width="64" height="1" fill="#000000"/><rect x="363" y="213" width="21" height="1" fill="#000000"/><rect x="107" y="214" width="85" height="1" fill="#000000"/><rect x="235" y="214" width="64" height="1" fill="#000000"/><rect x="363" y="214" width="21" height="1" fill="#000000"/><rect x="107" y="215" width="85" height="1" fill="#000000"/><rect x="235" y="215" width="64" height="1" fill="#000000"/><rect x="363" y="215" width="21" height="1" fill="#000000"/><rect x="107" y="216" width="85" height="1" fill="#000000"/><rect x="235" y="216" width="64" height="1" fill="#000000"/><rect x="363" y="216" width="21" height="1" fill="#000000"/><rect x="107" y="217" width="85" height="1" fill="#000000"/><rect x="235" y="217" width="64" height="1" fill="#000000"/><rect x="363" y="217" width="21" height="1" fill="#000000"/><rect x="107" y="218" width="85" height="1" fill="#000000"/><rect x="235" y="218" width="64" height="1" fill="#000000"/><rect x="363" y="218" width="21" height="1" fill="#000000"/><rect x="107" y="219" width="85" height="1" fill="#000000"/><rect x="235" y="219" width="64" height="1" fill="#000000"/><rect x="363" y="219" width="21" height="1" fill="#000000"/><rect x="107" y="220" width="85" height="1" fill="#000000"/><rect x="235" y="220" width="64" height="1" fill="#000000"/><rect x="363" y="220" width="21" height="1" fill="#000000"/><rect x="107" y="221" width="85" height="1" fill="#000000"/><rect x="235" y="221" width="64" height="1" fill="#000000"/><rect x="363" y="221" width="21" height="1" fill="#000000"/><rect x="107" y="222" width="85" height="1" fill="#000000"/><rect x="235" y="222" width="64" height="1" fill="#000000"/><rect x="363" y="222" width="21" height="1" fill="#000000"/><rect x="107" y="223" width="85" height="1" fill="#000000"/><rect x="235" y="223" width="64" height="1" fill="#000000"/><rect x="363" y="223" width="21" height="1" fill="#000000"/><rect x="107" y="224" width="85" height="1" fill="#000000"/><rect x="235" y="224" width="64" height="1" fill="#000000"/><rect x="363" y="224" width="21" height="1" fill="#000000"/><rect x="107" y="225" width="85" height="1" fill="#000000"/><rect x="235" y="225" width="64" height="1" fill="#000000"/><rect x="363" y="225" width="21" height="1" fill="#000000"/><rect x="107" y="226" width="85" height="1" fill="#000000"/><rect x="235" y="226" width="64" height="1" fill="#000000"/><rect x="363" y="226" width="21" height="1" fill="#000000"/><rect x="107" y="227" width="85" height="1" fill="#000000"/><rect x="235" y="227" width="64" height="1" fill="#000000"/><rect x="363" y="227" width="21" height="1" fill="#000000"/><rect x="107" y="228" width="85" height="1" fill="#000000"/><rect x="235" y="228" width="64" height="1" fill="#000000"/><rect x="363" y="228" width="21" height="1" fill="#000000"/><rect x="107" y="229" width="85" height="1" fill="#000000"/><rect x="235" y="229" width="64" height="1" fill="#000000"/><rect x="363" y="229" width="21" height="1" fill="#000000"/><rect x="107" y="230" width="85" height="1" fill="#000000"/><rect x="235" y="230" width="64" height="1" fill="#000000"/><rect x="363" y="230" width="21" height="1" fill="#000000"/><rect x="107" y="231" width="85" height="1" fill="#000000"/><rect x="235" y="231" width="64" height="1" fill="#000000"/><rect x="363" y="231" width="21" height="1" fill="#000000"/><rect x="107" y="232" width="85" height="1" fill="#000000"/><rect x="235" y="232" width="64" height="1" fill="#000000"/><rect x="363" y="232" width="21" height="1" fill="#000000"/><rect x="107" y="233" width="85" height="1" fill="#000000"/><rect x="235" y="233" width="64" height="1" fill="#000000"/><rect x="363" y="233" width="21" height="1" fill="#000000"/><rect x="107" y="234" width="85" height="1" fill="#000000"/><rect x="235" y="234" width="64" height="1" fill="#000000"/><rect x="363" y="234" width="21" height="1" fill="#000000"/><rect x="107" y="235" width="64" height="1" fill="#000000"/><rect x="256" y="235" width="21" height="1" fill="#000000"/><rect x="363" y="235" width="21" height="1" fill="#000000"/><rect x="107" y="236" width="64" height="1" fill="#000000"/><rect x="256" y="236" width="21" height="1" fill="#000000"/><rect x="363" y="236" width="21" height="1" fill="#000000"/><rect x="107" y="237" width="64" height="1" fill="#000000"/><rect x="256" y="237" width="21" height="1" fill="#000000"/><rect x="363" y="237" width="21" height="1" fill="#000000"/><rect x="107" y="238" width="64" height="1" fill="#000000"/><rect x="256" y="238" width="21" height="1" fill="#000000"/><rect x="363" y="238" width="21" height="1" fill="#000000"/><rect x="107" y="239" width="64" height="1" fill="#000000"/><rect x="256" y="239" width="21" height="1" fill="#000000"/><rect x="363" y="239" width="21" height="1" fill="#000000"/><rect x="107" y="240" width="64" height="1" fill="#000000"/><rect x="256" y="240" width="21" height="1" fill="#000000"/><rect x="363" y="240" width="21" height="1" fill="#000000"/><rect x="107" y="241" width="64" height="1" fill="#000000"/><rect x="256" y="241" width="21" height="1" fill="#000000"/><rect x="363" y="241" width="21" height="1" fill="#000000"/><rect x="107" y="242" width="64" height="1" fill="#000000"/><rect x="256" y="242" width="21" height="1" fill="#000000"/><rect x="363" y="242" width="21" height="1" fill="#000000"/><rect x="107" y="243" width="64" height="1" fill="#000000"/><rect x="256" y="243" width="21" height="1" fill="#000000"/><rect x="363" y="243" width="21" height="1" fill="#000000"/><rect x="107" y="244" width="64" height="1" fill="#000000"/><rect x="256" y="244" width="21" height="1" fill="#000000"/><rect x="363" y="244" width="21" height="1" fill="#000000"/><rect x="107" y="245" width="64" height="1" fill="#000000"/><rect x="256" y="245" width="21" height="1" fill="#000000"/><rect x="363" y="245" width="21" height="1" fill="#000000"/><rect x="107" y="246" width="64" height="1" fill="#000000"/><rect x="256" y="246" width="21" height="1" fill="#000000"/><rect x="363" y="246" width="21" height="1" fill="#000000"/><rect x="107" y="247" width="64" height="1" fill="#000000"/><rect x="256" y="247" width="21" height="1" fill="#000000"/><rect x="363" y="247" width="21" height="1" fill="#000000"/><rect x="107" y="248" width="64" height="1" fill="#000000"/><rect x="256" y="248" width="21" height="1" fill="#000000"/><rect x="363" y="248" width="21" height="1" fill="#000000"/><rect x="107" y="249" width="64" height="1" fill="#000000"/><rect x="256" y="249" width="21" height="1" fill="#000000"/><rect x="363" y="249" width="21" height="1" fill="#000000"/><rect x="107" y="250" width="64" height="1" fill="#000000"/><rect x="256" y="250" width="21" height="1" fill="#000000"/><rect x="363" y="250" width="21" height="1" fill="#000000"/><rect x="107" y="251" width="64" height="1" fill="#000000"/><rect x="256" y="251" width="21" height="1" fill="#000000"/><rect x="363" y="251" width="21" height="1" fill="#000000"/><rect x="107" y="252" width="64" height="1" fill="#000000"/><rect x="256" y="252" width="21" height="1" fill="#000000"/><rect x="363" y="252" width="21" height="1" fill="#000000"/><rect x="107" y="253" width="64" height="1" fill="#000000"/><rect x="256" y="253" width="21" height="1" fill="#000000"/><rect x="363" y="253" width="21" height="1" fill="#000000"/><rect x="107" y="254" width="64" height="1" fill="#000000"/><rect x="256" y="254" width="21" height="1" fill="#000000"/><rect x="363" y="254" width="21" height="1" fill="#000000"/><rect x="107" y="255" width="64" height="1" fill="#000000"/><rect x="256" y="255" width="21" height="1" fill="#000000"/><rect x="363" y="255" width="21" height="1" fill="#000000"/><rect x="107" y="256" width="64" height="1" fill="#000000"/><rect x="107" y="257" width="64" height="1" fill="#000000"/><rect x="107" y="258" width="64" height="1" fill="#000000"/><rect x="107" y="259" width="64" height="1" fill="#000000"/><rect x="107" y="260" width="64" height="1" fill="#000000"/><rect x="107" y="261" width="64" height="1" fill="#000000"/><rect x="107" y="262" width="64" height="1" fill="#000000"/><rect x="107" y="263" width="64" height="1" fill="#000000"/><rect x="107" y="264" width="64" height="1" fill="#000000"/><rect x="107" y="265" width="64" height="1" fill="#000000"/><rect x="107" y="266" width="64" height="1" fill="#000000"/><rect x="107" y="267" width="64" height="1" fill="#000000"/><rect x="107" y="268" width="64" height="1" fill="#000000"/><rect x="107" y="269" width="64" height="1" fill="#000000"/><rect x="107" y="270" width="64" height="1" fill="#000000"/><rect x="107" y="271" width="64" height="1" fill="#000000"/><rect x="107" y="272" width="64" height="1" fill="#000000"/><rect x="107" y="273" width="64" height="1" fill="#000000"/><rect x="107" y="274" width="64" height="1" fill="#000000"/><rect x="107" y="275" width="64" height="1" fill="#000000"/><rect x="107" y="276" width="64" height="1" fill="#000000"/><rect x="128" y="277" width="43" height="1" fill="#000000"/><rect x="128" y="278" width="43" height="1" fill="#000000"/><rect x="128" y="279" width="43" height="1" fill="#000000"/><rect x="128" y="280" width="43" height="1" fill="#000000"/><rect x="128" y="281" width="43" height="1" fill="#000000"/><rect x="128" y="282" width="43" height="1" fill="#000000"/><rect x="128" y="283" width="43" height="1" fill="#000000"/><rect x="128" y="284" width="43" height="1" fill="#000000"/><rect x="128" y="285" width="43" height="1" fill="#000000"/><rect x="128" y="286" width="43" height="1" fill="#000000"/><rect x="128" y="287" width="43" height="1" fill="#000000"/><rect x="128" y="288" width="43" height="1" fill="#000000"/><rect x="128" y="289" width="43" height="1" fill="#000000"/><rect x="128" y="290" width="43" height="1" fill="#000000"/><rect x="128" y="291" width="43" height="1" fill="#000000"/><rect x="128" y="292" width="43" height="1" fill="#000000"/><rect x="128" y="293" width="43" height="1" fill="#000000"/><rect x="128" y="294" width="43" height="1" fill="#000000"/><rect x="128" y="295" width="43" height="1" fill="#000000"/><rect x="128" y="296" width="43" height="1" fill="#000000"/><rect x="128" y="297" width="43" height="1" fill="#000000"/><rect x="128" y="298" width="43" height="1" fill="#000000"/></svg>