<svg xmlns="http://www.w3.org/2000/svg" viewBox="0 0 512 512" width="512" height="512" shape-rendering="crispEdges"><rect x="171" y="107" width="106" height="1" fill="#010002"/><rect x="277" y="107" width="43" height="1" fill="#010000"/><rect x="171" y="108" width="106" height="1" fill="#010002"/><rect x="277" y="108" width="43" height="1" fill="#010000"/><rect x="171" y="109" width="106" height="1" fill="#010002"/><rect x="277" y="109" width="43" height="1" fill="#010000"/><rect x="171" y="110" width="106" height="1" fill="#010002"/><rect x="277" y="110" width="43" height="1" fill="#010000"/><rect x="171" y="111" width="106" height="1" fill="#010002"/><rect x="277" y="111" width="43" height="1" fill="#010000"/><rect x="171" y="112" width="106" height="1" fill="#010002"/><rect x="277" y="112" width="43" height="1" fill="#010000"/><rect x="171" y="113" width="106" height="1" fill="#010002"/><rect x="277" y="113" width="43" height="1" fill="#010000"/><rect x="171" y="114" width="106" height="1" fill="#010002"/><rect x="277" y="114" width="43" height="1" fill="#010000"/><rect x="171" y="115" width="106" height="1" fill="#010002"/><rect x="277" y="115" width="43" height="1" fill="#010000"/><rect x="171" y="116" width="106" height="1" fill="#010002"/><rect x="277" y="116" width="43" height="1" fill="#010000"/><rect x="171" y="117" width="106" height="1" fill="#010002"/><rect x="277" y="117" width="43" height="1" fill="#010000"/><rect x="171" y="118" width="106" height="1" fill="#010002"/><rect x="277" y="118" width="43" height="1" fill="#010000"/><rect x="171" y="119" width="106" height="1" fill="#010002"/><rect x="277" y="119" width="43" height="1" fill="#010000"/><rect x="171" y="120" width="106" height="1" fill="#010002"/><rect x="277" y="120" width="43" height="1" fill="#010000"/><rect x="171" y="121" width="106" height="1" fill="#010002"/><rect x="277" y="121" width="43" height="1" fill="#010000"/><rect x="171" y="122" width="106" height="1" fill="#010002"/><rect x="277" y="122" width="43" height="1" fill="#010000"/><rect x="171" y="123" width="106" height="1" fill="#010002"/><rect x="277" y="123" width="43" height="1" fill="#010000"/><rect x="171" y="124" width="106" height="1" fill="#010002"/><rect x="277" y="124" width="43" height="1" fill="#010000"/><rect x="171" y="125" width="106" height="1" fill="#010002"/><rect x="277" y="125" width="43" height="1" fill="#010000"/><rect x="171" y="126" width="106" height="1" fill="#010002"/><rect x="277" y="126" width="43" height="1" fill="#010000"/><rect x="171" y="127" width="106" height="1" fill="#010002"/><rect x="277" y="127" width="43" height="1" fill="#010000"/><rect x="149" y="128" width="22" height="1" fill="#010002"/><rect x="171" y="128" width="149" height="1" fill="#C94E12"/><rect x="320" y="128" width="21" height="1" fill="#040005"/><rect x="149" y="129" width="22" height="1" fill="#010002"/><rect x="171" y="129" width="149" height="1" fill="#C94E12"/><rect x="320" y="129" width="21" height="1" fill="#040005"/><rect x="149" y="130" width="22" height="1" fill="#010002"/><rect x="171" y="130" width="149" height="1" fill="#C94E12"/><rect x="320" y="130" width="21" height="1" fill="#040005"/><rect x="149" y="131" width="22" height="1" fill="#010002"/><rect x="171" y="131" width="149" height="1" fill="#C94E12"/><rect x="320" y="131" width="21" height="1" fill="#040005"/><rect x="149" y="132" width="22" height="1" fill="#010002"/><rect x="171" y="132" width="149" height="1" fill="#C94E12"/><rect x="320" y="132" width="21" height="1" fill="#040005"/><rect x="149" y="133" width="22" height="1" fill="#010002"/><rect x="171" y="133" width="149" height="1" fill="#C94E12"/><rect x="320" y="133" width="21" height="1" fill="#040005"/><rect x="149" y="134" width="22" height="1" fill="#010002"/><rect x="171" y="134" width="149" height="1" fill="#C94E12"/><rect x="320" y="134" width="21" height="1" fill="#040005"/><rect x="149" y="135" width="22" height="1" fill="#010002"/><rect x="171" y="135" width="149" height="1" fill="#C94E12"/><rect x="320" y="135" width="21" height="1" fill="#040005"/><rect x="149" y="136" width="22" height="1" fill="#010002"/><rect x="171" y="136" width="149" height="1" fill="#C94E12"/><rect x="320" y="136" width="21" height="1" fill="#040005"/><rect x="149" y="137" width="22" height="1" fill="#010002"/><rect x="171" y="137" width="149" height="1" fill="#C94E12"/><rect x="320" y="137" width="21" height="1" fill="#040005"/><rect x="149" y="138" width="22" height="1" fill="#010002"/><rect x="171" y="138" width="149" height="1" fill="#C94E12"/><rect x="320" y="138" width="21" height="1" fill="#040005"/><rect x="149" y="139" width="22" height="1" fill="#010002"/><rect x="171" y="139" width="149" height="1" fill="#C94E12"/><rect x="320" y="139" width="21" height="1" fill="#040005"/><rect x="149" y="140" width="22" height="1" fill="#010002"/><rect x="171" y="140" width="149" height="1" fill="#C94E12"/><rect x="320" y="140" width="21" height="1" fill="#040005"/><rect x="149" y="141" width="22" height="1" fill="#010002"/><rect x="171" y="141" width="149" height="1" fill="#C94E12"/><rect x="320" y="141" width="21" height="1" fill="#040005"/><rect x="149" y="142" width="22" height="1" fill="#010002"/><rect x="171" y="142" width="149" height="1" fill="#C94E12"/><rect x="320" y="142" width="21" height="1" fill="#040005"/><rect x="149" y="143" width="22" height="1" fill="#010002"/><rect x="171" y="143" width="149" height="1" fill="#C94E12"/><rect x="320" y="143" width="21" height="1" fill="#040005"/><rect x="149" y="144" width="22" height="1" fill="#010002"/><rect x="171" y="144" width="149" height="1" fill="#C94E12"/><rect x="320" y="144" width="21" height="1" fill="#040005"/><rect x="149" y="145" width="22" height="1" fill="#010002"/><rect x="171" y="145" width="149" height="1" fill="#C94E12"/><rect x="320" y="145" width="21" height="1" fill="#040005"/><rect x="149" y="146" width="22" height="1" fill="#010002"/><rect x="171" y="146" width="149" height="1" fill="#C94E12"/><rect x="320" y="146" width="21" height="1" fill="#040005"/><rect x="149" y="147" width="22" height="1" fill="#010002"/><rect x="171" y="147" width="149" height="1" fill="#C94E12"/><rect x="320" y="147" width="21" height="1" fill="#040005"/><rect x="149" y="148" width="22" height="1" fill="#010002"/><rect x="171" y="148" width="149" height="1" fill="#C94E12"/><rect x="320" y="148" width="21" height="1" fill="#040005"/><rect x="128" y="149" width="21" height="1" fill="#010002"/><rect x="149" y="149" width="171" height="1" fill="#C94E12"/><rect x="320" y="149" width="21" height="1" fill="#CB4E10"/><rect x="341" y="149" width="22" height="1" fill="#000100"/><rect x="128" y="150" width="21" height="1" fill="#010002"/><rect x="149" y="150" width="171" height="1" fill="#C94E12"/><rect x="320" y="150" width="21" height="1" fill="#CB4E10"/><rect x="341" y="150" width="22" height="1" fill="#000100"/><rect x="128" y="151" width="21" height="1" fill="#010002"/><rect x="149" y="151" width="171" height="1" fill="#C94E12"/><rect x="320" y="151" width="21" height="1" fill="#CB4E10"/><rect x="341" y="151" width="22" height="1" fill="#000100"/><rect x="128" y="152" width="21" height="1" fill="#010002"/><rect x="149" y="152" width="171" height="1" fill="#C94E12"/><rect x="320" y="152" width="21" height="1" fill="#CB4E10"/><rect x="341" y="152" width="22" height="1" fill="#000100"/><rect x="128" y="153" width="21" height="1" fill="#010002"/><rect x="149" y="153" width="171" height="1" fill="#C94E12"/><rect x="320" y="153" width="21" height="1" fill="#CB4E10"/><rect x="341" y="153" width="22" height="1" fill="#000100"/><rect x="128" y="154" width="21" height="1" fill="#010002"/><rect x="149" y="154" width="171" height="1" fill="#C94E12"/><rect x="320" y="154" width="21" height="1" fill="#CB4E10"/><rect x="341" y="154" width="22" height="1" fill="#000100"/><rect x="128" y="155" width="21" height="1" fill="#010002"/><rect x="149" y="155" width="171" height="1" fill="#C94E12"/><rect x="320" y="155" width="21" height="1" fill="#CB4E10"/><rect x="341" y="155" width="22" height="1" fill="#000100"/><rect x="128" y="156" width="21" height="1" fill="#010002"/><rect x="149" y="156" width="171" height="1" fill="#C94E12"/><rect x="320" y="156" width="21" height="1" fill="#CB4E10"/><rect x="341" y="156" width="22" height="1" fill="#000100"/><rect x="128" y="157" width="21" height="1" fill="#010002"/><rect x="149" y="157" width="171" height="1" fill="#C94E12"/><rect x="320" y="157" width="21" height="1" fill="#CB4E10"/><rect x="341" y="157" width="22" height="1" fill="#000100"/><rect x="128" y="158" width="21" height="1" fill="#010002"/><rect x="149" y="158" width="171" height="1" fill="#C94E12"/><rect x="320" y="158" width="21" height="1" fill="#CB4E10"/><rect x="341" y="158" width="22" height="1" fill="#000100"/><rect x="128" y="159" width="21" height="1" fill="#010002"/><rect x="149" y="159" width="171" height="1" fill="#C94E12"/><rect x="320" y="159" width="21" height="1" fill="#CB4E10"/><rect x="341" y="159" width="22" height="1" fill="#000100"/><rect x="128" y="160" width="21" height="1" fill="#010002"/><rect x="149" y="160" width="171" height="1" fill="#C94E12"/><rect x="320" y="160" width="21" height="1" fill="#CB4E10"/><rect x="341" y="160" width="22" height="1" fill="#000100"/><rect x="128" y="161" width="21" height="1" fill="#010002"/><rect x="149" y="161" width="171" height="1" fill="#C94E12"/><rect x="320" y="161" width="21" height="1" fill="#CB4E10"/><rect x="341" y="161" width="22" height="1" fill="#000100"/><rect x="128" y="162" width="21" height="1" fill="#010002"/><rect x="149" y="162" width="171" height="1" fill="#C94E12"/><rect x="320" y="162" width="21" height="1" fill="#CB4E10"/><rect x="341" y="162" width="22" height="1" fill="#000100"/><rect x="128" y="163" width="21" height="1" fill="#010002"/><rect x="149" y="163" width="171" height="1" fill="#C94E12"/><rect x="320" y="163" width="21" height="1" fill="#CB4E10"/><rect x="341" y="163" width="22" height="1" fill="#000100"/><rect x="128" y="164" width="21" height="1" fill="#010002"/><rect x="149" y="164" width="171" height="1" fill="#C94E12"/><rect x="320" y="164" width="21" height="1" fill="#CB4E10"/><rect x="341" y="164" width="22" height="1" fill="#000100"/><rect x="128" y="165" width="21" height="1" fill="#010002"/><rect x="149" y="165" width="171" height="1" fill="#C94E12"/><rect x="320" y="165" width="21" height="1" fill="#CB4E10"/><rect x="341" y="165" width="22" height="1" fill="#000100"/><rect x="128" y="166" width="21" height="1" fill="#010002"/><rect x="149" y="166" width="171" height="1" fill="#C94E12"/><rect x="320" y="166" width="21" height="1" fill="#CB4E10"/><rect x="341" y="166" width="22" height="1" fill="#000100"/><rect x="128" y="167" width="21" height="1" fill="#010002"/><rect x="149" y="167" width="171" height="1" fill="#C94E12"/><rect x="320" y="167" width="21" height="1" fill="#CB4E10"/><rect x="341" y="167" width="22" height="1" fill="#000100"/><rect x="128" y="168" width="21" height="1" fill="#010002"/><rect x="149" y="168" width="171" height="1" fill="#C94E12"/><rect x="320" y="168" width="21" height="1" fill="#CB4E10"/><rect x="341" y="168" width="22" height="1" fill="#000100"/><rect x="128" y="169" width="21" height="1" fill="#010002"/><rect x="149" y="169" width="171" height="1" fill="#C94E12"/><rect x="320" y="169" width="21" height="1" fill="#CB4E10"/><rect x="341" y="169" width="22" height="1" fill="#000100"/><rect x="128" y="170" width="21" height="1" fill="#010002"/><rect x="149" y="170" width="171" height="1" fill="#C94E12"/><rect x="320" y="170" width="21" height="1" fill="#CB4E10"/><rect x="341" y="170" width="22" height="1" fill="#000100"/><rect x="107" y="171" width="21" height="1" fill="#010002"/><rect x="128" y="171" width="21" height="1" fill="#90380A"/><rect x="149" y="171" width="64" height="1" fill="#93370A"/><rect x="213" y="171" width="22" height="1" fill="#94360B"/><rect x="235" y="171" width="21" height="1" fill="#913903"/><rect x="256" y="171" width="21" height="1" fill="#90380A"/><rect x="277" y="171" width="43" height="1" fill="#913808"/><rect x="320" y="171" width="21" height="1" fill="#91370A"/><rect x="341" y="171" width="22" height="1" fill="#90380A"/><rect x="363" y="171" width="21" height="1" fill="#010000"/><rect x="107" y="172" width="21" height="1" fill="#010002"/><rect x="128" y="172" width="21" height="1" fill="#90380A"/><rect x="149" y="172" width="64" height="1" fill="#93370A"/><rect x="213" y="172" width="22" height="1" fill="#94360B"/><rect x="235" y="172" width="21" height="1" fill="#913903"/><rect x="256" y="172" width="21" height="1" fill="#90380A"/><rect x="277" y="172" width="43" height="1" fill="#913808"/><rect x="320" y="172" width="21" height="1" fill="#91370A"/><rect x="341" y="172" width="22" height="1" fill="#90380A"/><rect x="363" y="172" width="21" height="1" fill="#010000"/><rect x="107" y="173" width="21" height="1" fill="#010002"/><rect x="128" y="173" width="21" height="1" fill="#90380A"/><rect x="149" y="173" width="64" height="1" fill="#93370A"/><rect x="213" y="173" width="22" height="1" fill="#94360B"/><rect x="235" y="173" width="21" height="1" fill="#913903"/><rect x="256" y="173" width="21" height="1" fill="#90380A"/><rect x="277" y="173" width="43" height="1" fill="#913808"/><rect x="320" y="173" width="21" height="1" fill="#91370A"/><rect x="341" y="173" width="22" height="1" fill="#90380A"/><rect x="363" y="173" width="21" height="1" fill="#010000"/><rect x="107" y="174" width="21" height="1" fill="#010002"/><rect x="128" y="174" width="21" height="1" fill="#90380A"/><rect x="149" y="174" width="64" height="1" fill="#93370A"/><rect x="213" y="174" width="22" height="1" fill="#94360B"/><rect x="235" y="174" width="21" height="1" fill="#913903"/><rect x="256" y="174" width="21" height="1" fill="#90380A"/><rect x="277" y="174" width="43" height="1" fill="#913808"/><rect x="320" y="174" width="21" height="1" fill="#91370A"/><rect x="341" y="174" width="22" height="1" fill="#90380A"/><rect x="363" y="174" width="21" height="1" fill="#010000"/><rect x="107" y="175" width="21" height="1" fill="#010002"/><rect x="128" y="175" width="21" height="1" fill="#90380A"/><rect x="149" y="175" width="64" height="1" fill="#93370A"/><rect x="213" y="175" width="22" height="1" fill="#94360B"/><rect x="235" y="175" width="21" height="1" fill="#913903"/><rect x="256" y="175" width="21" height="1" fill="#90380A"/><rect x="277" y="175" width="43" height="1" fill="#913808"/><rect x="320" y="175" width="21" height="1" fill="#91370A"/><rect x="341" y="175" width="22" height="1" fill="#90380A"/><rect x="363" y="175" width="21" height="1" fill="#010000"/><rect x="107" y="176" width="21" height="1" fill="#010002"/><rect x="128" y="176" width="21" height="1" fill="#90380A"/><rect x="149" y="176" width="64" height="1" fill="#93370A"/><rect x="213" y="176" width="22" height="1" fill="#94360B"/><rect x="235" y="176" width="21" height="1" fill="#913903"/><rect x="256" y="176" width="21" height="1" fill="#90380A"/><rect x="277" y="176" width="43" height="1" fill="#913808"/><rect x="320" y="176" width="21" height="1" fill="#91370A"/><rect x="341" y="176" width="22" height="1" fill="#90380A"/><rect x="363" y="176" width="21" height="1" fill="#010000"/><rect x="107" y="177" width="21" height="1" fill="#010002"/><rect x="128" y="177" width="21" height="1" fill="#90380A"/><rect x="149" y="177" width="64" height="1" fill="#93370A"/><rect x="213" y="177" width="22" height="1" fill="#94360B"/><rect x="235" y="177" width="21" height="1" fill="#913903"/><rect x="256" y="177" width="21" height="1" fill="#90380A"/><rect x="277" y="177" width="43" height="1" fill="#913808"/><rect x="320" y="177" width="21" height="1" fill="#91370A"/><rect x="341" y="177" width="22" height="1" fill="#90380A"/><rect x="363" y="177" width="21" height="1" fill="#010000"/><rect x="107" y="178" width="21" height="1" fill="#010002"/><rect x="128" y="178" width="21" height="1" fill="#90380A"/><rect x="149" y="178" width="64" height="1" fill="#93370A"/><rect x="213" y="178" width="22" height="1" fill="#94360B"/><rect x="235" y="178" width="21" height="1" fill="#913903"/><rect x="256" y="178" width="21" height="1" fill="#90380A"/><rect x="277" y="178" width="43" height="1" fill="#913808"/><rect x="320" y="178" width="21" height="1" fill="#91370A"/><rect x="341" y="178" width="22" height="1" fill="#90380A"/><rect x="363" y="178" width="21" height="1" fill="#010000"/><rect x="107" y="179" width="21" height="1" fill="#010002"/><rect x="128" y="179" width="21" height="1" fill="#90380A"/><rect x="149" y="179" width="64" height="1" fill="#93370A"/><rect x="213" y="179" width="22" height="1" fill="#94360B"/><rect x="235" y="179" width="21" height="1" fill="#913903"/><rect x="256" y="179" width="21" height="1" fill="#90380A"/><rect x="277" y="179" width="43" height="1" fill="#913808"/><rect x="320" y="179" width="21" height="1" fill="#91370A"/><rect x="341" y="179" width="22" height="1" fill="#90380A"/><rect x="363" y="179" width="21" height="1" fill="#010000"/><rect x="107" y="180" width="21" height="1" fill="#010002"/><rect x="128" y="180" width="21" height="1" fill="#90380A"/><rect x="149" y="180" width="64" height="1" fill="#93370A"/><rect x="213" y="180" width="22" height="1" fill="#94360B"/><rect x="235" y="180" width="21" height="1" fill="#913903"/><rect x="256" y="180" width="21" height="1" fill="#90380A"/><rect x="277" y="180" width="43" height="1" fill="#913808"/><rect x="320" y="180" width="21" height="1" fill="#91370A"/><rect x="341" y="180" width="22" height="1" fill="#90380A"/><rect x="363" y="180" width="21" height="1" fill="#010000"/><rect x="107" y="181" width="21" height="1" fill="#010002"/><rect x="128" y="181" width="21" height="1" fill="#90380A"/><rect x="149" y="181" width="64" height="1" fill="#93370A"/><rect x="213" y="181" width="22" height="1" fill="#94360B"/><rect x="235" y="181" width="21" height="1" fill="#913903"/><rect x="256" y="181" width="21" height="1" fill="#90380A"/><rect x="277" y="181" width="43" height="1" fill="#913808"/><rect x="320" y="181" width="21" height="1" fill="#91370A"/><rect x="341" y="181" width="22" height="1" fill="#90380A"/><rect x="363" y="181" width="21" height="1" fill="#010000"/><rect x="107" y="182" width="21" height="1" fill="#010002"/><rect x="128" y="182" width="21" height="1" fill="#90380A"/><rect x="149" y="182" width="64" height="1" fill="#93370A"/><rect x="213" y="182" width="22" height="1" fill="#94360B"/><rect x="235" y="182" width="21" height="1" fill="#913903"/><rect x="256" y="182" width="21" height="1" fill="#90380A"/><rect x="277" y="182" width="43" height="1" fill="#913808"/><rect x="320" y="182" width="21" height="1" fill="#91370A"/><rect x="341" y="182" width="22" height="1" fill="#90380A"/><rect x="363" y="182" width="21" height="1" fill="#010000"/><rect x="107" y="183" width="21" height="1" fill="#010002"/><rect x="128" y="183" width="21" height="1" fill="#90380A"/><rect x="149" y="183" width="64" height="1" fill="#93370A"/><rect x="213" y="183" width="22" height="1" fill="#94360B"/><rect x="235" y="183" width="21" height="1" fill="#913903"/><rect x="256" y="183" width="21" height="1" fill="#90380A"/><rect x="277" y="183" width="43" height="1" fill="#913808"/><rect x="320" y="183" width="21" height="1" fill="#91370A"/><rect x="341" y="183" width="22" height="1" fill="#90380A"/><rect x="363" y="183" width="21" height="1" fill="#010000"/><rect x="107" y="184" width="21" height="1" fill="#010002"/><rect x="128" y="184" width="21" height="1" fill="#90380A"/><rect x="149" y="184" width="64" height="1" fill="#93370A"/><rect x="213" y="184" width="22" height="1" fill="#94360B"/><rect x="235" y="184" width="21" height="1" fill="#913903"/><rect x="256" y="184" width="21" height="1" fill="#90380A"/><rect x="277" y="184" width="43" height="1" fill="#913808"/><rect x="320" y="184" width="21" height="1" fill="#91370A"/><rect x="341" y="184" width="22" height="1" fill="#90380A"/><rect x="363" y="184" width="21" height="1" fill="#010000"/><rect x="107" y="185" width="21" height="1" fill="#010002"/><rect x="128" y="185" width="21" height="1" fill="#90380A"/><rect x="149" y="185" width="64" height="1" fill="#93370A"/><rect x="213" y="185" width="22" height="1" fill="#94360B"/><rect x="235" y="185" width="21" height="1" fill="#913903"/><rect x="256" y="185" width="21" height="1" fill="#90380A"/><rect x="277" y="185" width="43" height="1" fill="#913808"/><rect x="320" y="185" width="21" height="1" fill="#91370A"/><rect x="341" y="185" width="22" height="1" fill="#90380A"/><rect x="363" y="185" width="21" height="1" fill="#010000"/><rect x="107" y="186" width="21" height="1" fill="#010002"/><rect x="128" y="186" width="21" height="1" fill="#90380A"/><rect x="149" y="186" width="64" height="1" fill="#93370A"/><rect x="213" y="186" width="22" height="1" fill="#94360B"/><rect x="235" y="186" width="21" height="1" fill="#913903"/><rect x="256" y="186" width="21" height="1" fill="#90380A"/><rect x="277" y="186" width="43" height="1" fill="#913808"/><rect x="320" y="186" width="21" height="1" fill="#91370A"/><rect x="341" y="186" width="22" height="1" fill="#90380A"/><rect x="363" y="186" width="21" height="1" fill="#010000"/><rect x="107" y="187" width="21" height="1" fill="#010002"/><rect x="128" y="187" width="21" height="1" fill="#90380A"/><rect x="149" y="187" width="64" height="1" fill="#93370A"/><rect x="213" y="187" width="22" height="1" fill="#94360B"/><rect x="235" y="187" width="21" height="1" fill="#913903"/><rect x="256" y="187" width="21" height="1" fill="#90380A"/><rect x="277" y="187" width="43" height="1" fill="#913808"/><rect x="320" y="187" width="21" height="1" fill="#91370A"/><rect x="341" y="187" width="22" height="1" fill="#90380A"/><rect x="363" y="187" width="21" height="1" fill="#010000"/><rect x="107" y="188" width="21" height="1" fill="#010002"/><rect x="128" y="188" width="21" height="1" fill="#90380A"/><rect x="149" y="188" width="64" height="1" fill="#93370A"/><rect x="213" y="188" width="22" height="1" fill="#94360B"/><rect x="235" y="188" width="21" height="1" fill="#913903"/><rect x="256" y="188" width="21" height="1" fill="#90380A"/><rect x="277" y="188" width="43" height="1" fill="#913808"/><rect x="320" y="188" width="21" height="1" fill="#91370A"/><rect x="341" y="188" width="22" height="1" fill="#90380A"/><rect x="363" y="188" width="21" height="1" fill="#010000"/><rect x="107" y="189" width="21" height="1" fill="#010002"/><rect x="128" y="189" width="21" height="1" fill="#90380A"/><rect x="149" y="189" width="64" height="1" fill="#93370A"/><rect x="213" y="189" width="22" height="1" fill="#94360B"/><rect x="235" y="189" width="21" height="1" fill="#913903"/><rect x="256" y="189" width="21" height="1" fill="#90380A"/><rect x="277" y="189" width="43" height="1" fill="#913808"/><rect x="320" y="189" width="21" height="1" fill="#91370A"/><rect x="341" y="189" width="22" height="1" fill="#90380A"/><rect x="363" y="189" width="21" height="1" fill="#010000"/><rect x="107" y="190" width="21" height="1" fill="#010002"/><rect x="128" y="190" width="21" height="1" fill="#90380A"/><rect x="149" y="190" width="64" height="1" fill="#93370A"/><rect x="213" y="190" width="22" height="1" fill="#94360B"/><rect x="235" y="190" width="21" height="1" fill="#913903"/><rect x="256" y="190" width="21" height="1" fill="#90380A"/><rect x="277" y="190" width="43" height="1" fill="#913808"/><rect x="320" y="190" width="21" height="1" fill="#91370A"/><rect x="341" y="190" width="22" height="1" fill="#90380A"/><rect x="363" y="190" width="21" height="1" fill="#010000"/><rect x="107" y="191" width="21" height="1" fill="#010002"/><rect x="128" y="191" width="21" height="1" fill="#90380A"/><rect x="149" y="191" width="64" height="1" fill="#93370A"/><rect x="213" y="191" width="22" height="1" fill="#94360B"/><rect x="235" y="191" width="21" height="1" fill="#913903"/><rect x="256" y="191" width="21" height="1" fill="#90380A"/><rect x="277" y="191" width="43" height="1" fill="#913808"/><rect x="320" y="191" width="21" height="1" fill="#91370A"/><rect x="341" y="191" width="22" height="1" fill="#90380A"/><rect x="363" y="191" width="21" height="1" fill="#010000"/><rect x="107" y="192" width="21" height="1" fill="#010000"/><rect x="128" y="192" width="21" height="1" fill="#90380A"/><rect x="149" y="192" width="22" height="1" fill="#C94E12"/><rect x="171" y="192" width="21" height="1" fill="#93370A"/><rect x="192" y="192" width="21" height="1" fill="#C94E12"/><rect x="213" y="192" width="22" height="1" fill="#90380A"/><rect x="235" y="192" width="21" height="1" fill="#C94E12"/><rect x="256" y="192" width="21" height="1" fill="#90380A"/><rect x="277" y="192" width="22" height="1" fill="#C94E12"/><rect x="299" y="192" width="21" height="1" fill="#90380A"/><rect x="320" y="192" width="21" height="1" fill="#C94E12"/><rect x="341" y="192" width="22" height="1" fill="#93370A"/><rect x="363" y="192" width="21" height="1" fill="#000102"/><rect x="107" y="193" width="21" height="1" fill="#010000"/><rect x="128" y="193" width="21" height="1" fill="#90380A"/><rect x="149" y="193" width="22" height="1" fill="#C94E12"/><rect x="171" y="193" width="21" height="1" fill="#93370A"/><rect x="192" y="193" width="21" height="1" fill="#C94E12"/><rect x="213" y="193" width="22" height="1" fill="#90380A"/><rect x="235" y="193" width="21" height="1" fill="#C94E12"/><rect x="256" y="193" width="21" height="1" fill="#90380A"/><rect x="277" y="193" width="22" height="1" fill="#C94E12"/><rect x="299" y="193" width="21" height="1" fill="#90380A"/><rect x="320" y="193" width="21" height="1" fill="#C94E12"/><rect x="341" y="193" width="22" height="1" fill="#93370A"/><rect x="363" y="193" width="21" height="1" fill="#000102"/><rect x="107" y="194" width="21" height="1" fill="#010000"/><rect x="128" y="194" width="21" height="1" fill="#90380A"/><rect x="149" y="194" width="22" height="1" fill="#C94E12"/><rect x="171" y="194" width="21" height="1" fill="#93370A"/><rect x="192" y="194" width="21" height="1" fill="#C94E12"/><rect x="213" y="194" width="22" height="1" fill="#90380A"/><rect x="235" y="194" width="21" height="1" fill="#C94E12"/><rect x="256" y="194" width="21" height="1" fill="#90380A"/><rect x="277" y="194" width="22" height="1" fill="#C94E12"/><rect x="299" y="194" width="21" height="1" fill="#90380A"/><rect x="320" y="194" width="21" height="1" fill="#C94E12"/><rect x="341" y="194" width="22" height="1" fill="#93370A"/><rect x="363" y="194" width="21" height="1" fill="#000102"/><rect x="107" y="195" width="21" height="1" fill="#010000"/><rect x="128" y="195" width="21" height="1" fill="#90380A"/><rect x="149" y="195" width="22" height="1" fill="#C94E12"/><rect x="171" y="195" width="21" height="1" fill="#93370A"/><rect x="192" y="195" width="21" height="1" fill="#C94E12"/><rect x="213" y="195" width="22" height="1" fill="#90380A"/><rect x="235" y="195" width="21" height="1" fill="#C94E12"/><rect x="256" y="195" width="21" height="1" fill="#90380A"/><rect x="277" y="195" width="22" height="1" fill="#C94E12"/><rect x="299" y="195" width="21" height="1" fill="#90380A"/><rect x="320" y="195" width="21" height="1" fill="#C94E12"/><rect x="341" y="195" width="22" height="1" fill="#93370A"/><rect x="363" y="195" width="21" height="1" fill="#000102"/><rect x="107" y="196" width="21" height="1" fill="#010000"/><rect x="128" y="196" width="21" height="1" fill="#90380A"/><rect x="149" y="196" width="22" height="1" fill="#C94E12"/><rect x="171" y="196" width="21" height="1" fill="#93370A"/><rect x="192" y="196" width="21" height="1" fill="#C94E12"/><rect x="213" y="196" width="22" height="1" fill="#90380A"/><rect x="235" y="196" width="21" height="1" fill="#C94E12"/><rect x="256" y="196" width="21" height="1" fill="#90380A"/><rect x="277" y="196" width="22" height="1" fill="#C94E12"/><rect x="299" y="196" width="21" height="1" fill="#90380A"/><rect x="320" y="196" width="21" height="1" fill="#C94E12"/><rect x="341" y="196" width="22" height="1" fill="#93370A"/><rect x="363" y="196" width="21" height="1" fill="#000102"/><rect x="107" y="197" width="21" height="1" fill="#010000"/><rect x="128" y="197" width="21" height="1" fill="#90380A"/><rect x="149" y="197" width="22" height="1" fill="#C94E12"/><rect x="171" y="197" width="21" height="1" fill="#93370A"/><rect x="192" y="197" width="21" height="1" fill="#C94E12"/><rect x="213" y="197" width="22" height="1" fill="#90380A"/><rect x="235" y="197" width="21" height="1" fill="#C94E12"/><rect x="256" y="197" width="21" height="1" fill="#90380A"/><rect x="277" y="197" width="22" height="1" fill="#C94E12"/><rect x="299" y="197" width="21" height="1" fill="#90380A"/><rect x="320" y="197" width="21" height="1" fill="#C94E12"/><rect x="341" y="197" width="22" height="1" fill="#93370A"/><rect x="363" y="197" width="21" height="1" fill="#000102"/><rect x="107" y="198" width="21" height="1" fill="#010000"/><rect x="128" y="198" width="21" height="1" fill="#90380A"/><rect x="149" y="198" width="22" height="1" fill="#C94E12"/><rect x="171" y="198" width="21" height="1" fill="#93370A"/><rect x="192" y="198" width="21" height="1" fill="#C94E12"/><rect x="213" y="198" width="22" height="1" fill="#90380A"/><rect x="235" y="198" width="21" height="1" fill="#C94E12"/><rect x="256" y="198" width="21" height="1" fill="#90380A"/><rect x="277" y="198" width="22" height="1" fill="#C94E12"/><rect x="299" y="198" width="21" height="1" fill="#90380A"/><rect x="320" y="198" width="21" height="1" fill="#C94E12"/><rect x="341" y="198" width="22" height="1" fill="#93370A"/><rect x="363" y="198" width="21" height="1" fill="#000102"/><rect x="107" y="199" width="21" height="1" fill="#010000"/><rect x="128" y="199" width="21" height="1" fill="#90380A"/><rect x="149" y="199" width="22" height="1" fill="#C94E12"/><rect x="171" y="199" width="21" height="1" fill="#93370A"/><rect x="192" y="199" width="21" height="1" fill="#C94E12"/><rect x="213" y="199" width="22" height="1" fill="#90380A"/><rect x="235" y="199" width="21" height="1" fill="#C94E12"/><rect x="256" y="199" width="21" height="1" fill="#90380A"/><rect x="277" y="199" width="22" height="1" fill="#C94E12"/><rect x="299" y="199" width="21" height="1" fill="#90380A"/><rect x="320" y="199" width="21" height="1" fill="#C94E12"/><rect x="341" y="199" width="22" height="1" fill="#93370A"/><rect x="363" y="199" width="21" height="1" fill="#000102"/><rect x="107" y="200" width="21" height="1" fill="#010000"/><rect x="128" y="200" width="21" height="1" fill="#90380A"/><rect x="149" y="200" width="22" height="1" fill="#C94E12"/><rect x="171" y="200" width="21" height="1" fill="#93370A"/><rect x="192" y="200" width="21" height="1" fill="#C94E12"/><rect x="213" y="200" width="22" height="1" fill="#90380A"/><rect x="235" y="200" width="21" height="1" fill="#C94E12"/><rect x="256" y="200" width="21" height="1" fill="#90380A"/><rect x="277" y="200" width="22" height="1" fill="#C94E12"/><rect x="299" y="200" width="21" height="1" fill="#90380A"/><rect x="320" y="200" width="21" height="1" fill="#C94E12"/><rect x="341" y="200" width="22" height="1" fill="#93370A"/><rect x="363" y="200" width="21" height="1" fill="#000102"/><rect x="107" y="201" width="21" height="1" fill="#010000"/><rect x="128" y="201" width="21" height="1" fill="#90380A"/><rect x="149" y="201" width="22" height="1" fill="#C94E12"/><rect x="171" y="201" width="21" height="1" fill="#93370A"/><rect x="192" y="201" width="21" height="1" fill="#C94E12"/><rect x="213" y="201" width="22" height="1" fill="#90380A"/><rect x="235" y="201" width="21" height="1" fill="#C94E12"/><rect x="256" y="201" width="21" height="1" fill="#90380A"/><rect x="277" y="201" width="22" height="1" fill="#C94E12"/><rect x="299" y="201" width="21" height="1" fill="#90380A"/><rect x="320" y="201" width="21" height="1" fill="#C94E12"/><rect x="341" y="201" width="22" height="1" fill="#93370A"/><rect x="363" y="201" width="21" height="1" fill="#000102"/><rect x="107" y="202" width="21" height="1" fill="#010000"/><rect x="128" y="202" width="21" height="1" fill="#90380A"/><rect x="149" y="202" width="22" height="1" fill="#C94E12"/><rect x="171" y="202" width="21" height="1" fill="#93370A"/><rect x="192" y="202" width="21" height="1" fill="#C94E12"/><rect x="213" y="202" width="22" height="1" fill="#90380A"/><rect x="235" y="202" width="21" height="1" fill="#C94E12"/><rect x="256" y="202" width="21" height="1" fill="#90380A"/><rect x="277" y="202" width="22" height="1" fill="#C94E12"/><rect x="299" y="202" width="21" height="1" fill="#90380A"/><rect x="320" y="202" width="21" height="1" fill="#C94E12"/><rect x="341" y="202" width="22" height="1" fill="#93370A"/><rect x="363" y="202" width="21" height="1" fill="#000102"/><rect x="107" y="203" width="21" height="1" fill="#010000"/><rect x="128" y="203" width="21" height="1" fill="#90380A"/><rect x="149" y="203" width="22" height="1" fill="#C94E12"/><rect x="171" y="203" width="21" height="1" fill="#93370A"/><rect x="192" y="203" width="21" height="1" fill="#C94E12"/><rect x="213" y="203" width="22" height="1" fill="#90380A"/><rect x="235" y="203" width="21" height="1" fill="#C94E12"/><rect x="256" y="203" width="21" height="1" fill="#90380A"/><rect x="277" y="203" width="22" height="1" fill="#C94E12"/><rect x="299" y="203" width="21" height="1" fill="#90380A"/><rect x="320" y="203" width="21" height="1" fill="#C94E12"/><rect x="341" y="203" width="22" height="1" fill="#93370A"/><rect x="363" y="203" width="21" height="1" fill="#000102"/><rect x="107" y="204" width="21" height="1" fill="#010000"/><rect x="128" y="204" width="21" height="1" fill="#90380A"/><rect x="149" y="204" width="22" height="1" fill="#C94E12"/><rect x="171" y="204" width="21" height="1" fill="#93370A"/><rect x="192" y="204" width="21" height="1" fill="#C94E12"/><rect x="213" y="204" width="22" height="1" fill="#90380A"/><rect x="235" y="204" width="21" height="1" fill="#C94E12"/><rect x="256" y="204" width="21" height="1" fill="#90380A"/><rect x="277" y="204" width="22" height="1" fill="#C94E12"/><rect x="299" y="204" width="21" height="1" fill="#90380A"/><rect x="320" y="204" width="21" height="1" fill="#C94E12"/><rect x="341" y="204" width="22" height="1" fill="#93370A"/><rect x="363" y="204" width="21" height="1" fill="#000102"/><rect x="107" y="205" width="21" height="1" fill="#010000"/><rect x="128" y="205" width="21" height="1" fill="#90380A"/><rect x="149" y="205" width="22" height="1" fill="#C94E12"/><rect x="171" y="205" width="21" height="1" fill="#93370A"/><rect x="192" y="205" width="21" height="1" fill="#C94E12"/><rect x="213" y="205" width="22" height="1" fill="#90380A"/><rect x="235" y="205" width="21" height="1" fill="#C94E12"/><rect x="256" y="205" width="21" height="1" fill="#90380A"/><rect x="277" y="205" width="22" height="1" fill="#C94E12"/><rect x="299" y="205" width="21" height="1" fill="#90380A"/><rect x="320" y="205" width="21" height="1" fill="#C94E12"/><rect x="341" y="205" width="22" height="1" fill="#93370A"/><rect x="363" y="205" width="21" height="1" fill="#000102"/><rect x="107" y="206" width="21" height="1" fill="#010000"/><rect x="128" y="206" width="21" height="1" fill="#90380A"/><rect x="149" y="206" width="22" height="1" fill="#C94E12"/><rect x="171" y="206" width="21" height="1" fill="#93370A"/><rect x="192" y="206" width="21" height="1" fill="#C94E12"/><rect x="213" y="206" width="22" height="1" fill="#90380A"/><rect x="235" y="206" width="21" height="1" fill="#C94E12"/><rect x="256" y="206" width="21" height="1" fill="#90380A"/><rect x="277" y="206" width="22" height="1" fill="#C94E12"/><rect x="299" y="206" width="21" height="1" fill="#90380A"/><rect x="320" y="206" width="21" height="1" fill="#C94E12"/><rect x="341" y="206" width="22" height="1" fill="#93370A"/><rect x="363" y="206" width="21" height="1" fill="#000102"/><rect x="107" y="207" width="21" height="1" fill="#010000"/><rect x="128" y="207" width="21" height="1" fill="#90380A"/><rect x="149" y="207" width="22" height="1" fill="#C94E12"/><rect x="171" y="207" width="21" height="1" fill="#93370A"/><rect x="192" y="207" width="21" height="1" fill="#C94E12"/><rect x="213" y="207" width="22" height="1" fill="#90380A"/><rect x="235" y="207" width="21" height="1" fill="#C94E12"/><rect x="256" y="207" width="21" height="1" fill="#90380A"/><rect x="277" y="207" width="22" height="1" fill="#C94E12"/><rect x="299" y="207" width="21" height="1" fill="#90380A"/><rect x="320" y="207" width="21" height="1" fill="#C94E12"/><rect x="341" y="207" width="22" height="1" fill="#93370A"/><rect x="363" y="207" width="21" height="1" fill="#000102"/><rect x="107" y="208" width="21" height="1" fill="#010000"/><rect x="128" y="208" width="21" height="1" fill="#90380A"/><rect x="149" y="208" width="22" height="1" fill="#C94E12"/><rect x="171" y="208" width="21" height="1" fill="#93370A"/><rect x="192" y="208" width="21" height="1" fill="#C94E12"/><rect x="213" y="208" width="22" height="1" fill="#90380A"/><rect x="235" y="208" width="21" height="1" fill="#C94E12"/><rect x="256" y="208" width="21" height="1" fill="#90380A"/><rect x="277" y="208" width="22" height="1" fill="#C94E12"/><rect x="299" y="208" width="21" height="1" fill="#90380A"/><rect x="320" y="208" width="21" height="1" fill="#C94E12"/><rect x="341" y="208" width="22" height="1" fill="#93370A"/><rect x="363" y="208" width="21" height="1" fill="#000102"/><rect x="107" y="209" width="21" height="1" fill="#010000"/><rect x="128" y="209" width="21" height="1" fill="#90380A"/><rect x="149" y="209" width="22" height="1" fill="#C94E12"/><rect x="171" y="209" width="21" height="1" fill="#93370A"/><rect x="192" y="209" width="21" height="1" fill="#C94E12"/><rect x="213" y="209" width="22" height="1" fill="#90380A"/><rect x="235" y="209" width="21" height="1" fill="#C94E12"/><rect x="256" y="209" width="21" height="1" fill="#90380A"/><rect x="277" y="209" width="22" height="1" fill="#C94E12"/><rect x="299" y="209" width="21" height="1" fill="#90380A"/><rect x="320" y="209" width="21" height="1" fill="#C94E12"/><rect x="341" y="209" width="22" height="1" fill="#93370A"/><rect x="363" y="209" width="21" height="1" fill="#000102"/><rect x="107" y="210" width="21" height="1" fill="#010000"/><rect x="128" y="210" width="21" height="1" fill="#90380A"/><rect x="149" y="210" width="22" height="1" fill="#C94E12"/><rect x="171" y="210" width="21" height="1" fill="#93370A"/><rect x="192" y="210" width="21" height="1" fill="#C94E12"/><rect x="213" y="210" width="22" height="1" fill="#90380A"/><rect x="235" y="210" width="21" height="1" fill="#C94E12"/><rect x="256" y="210" width="21" height="1" fill="#90380A"/><rect x="277" y="210" width="22" height="1" fill="#C94E12"/><rect x="299" y="210" width="21" height="1" fill="#90380A"/><rect x="320" y="210" width="21" height="1" fill="#C94E12"/><rect x="341" y="210" width="22" height="1" fill="#93370A"/><rect x="363" y="210" width="21" height="1" fill="#000102"/><rect x="107" y="211" width="21" height="1" fill="#010000"/><rect x="128" y="211" width="21" height="1" fill="#90380A"/><rect x="149" y="211" width="22" height="1" fill="#C94E12"/><rect x="171" y="211" width="21" height="1" fill="#93370A"/><rect x="192" y="211" width="21" height="1" fill="#C94E12"/><rect x="213" y="211" width="22" height="1" fill="#90380A"/><rect x="235" y="211" width="21" height="1" fill="#C94E12"/><rect x="256" y="211" width="21" height="1" fill="#90380A"/><rect x="277" y="211" width="22" height="1" fill="#C94E12"/><rect x="299" y="211" width="21" height="1" fill="#90380A"/><rect x="320" y="211" width="21" height="1" fill="#C94E12"/><rect x="341" y="211" width="22" height="1" fill="#93370A"/><rect x="363" y="211" width="21" height="1" fill="#000102"/><rect x="107" y="212" width="21" height="1" fill="#010000"/><rect x="128" y="212" width="21" height="1" fill="#90380A"/><rect x="149" y="212" width="22" height="1" fill="#C94E12"/><rect x="171" y="212" width="21" height="1" fill="#93370A"/><rect x="192" y="212" width="21" height="1" fill="#C94E12"/><rect x="213" y="212" width="22" height="1" fill="#90380A"/><rect x="235" y="212" width="21" height="1" fill="#C94E12"/><rect x="256" y="212" width="21" height="1" fill="#90380A"/><rect x="277" y="212" width="22" height="1" fill="#C94E12"/><rect x="299" y="212" width="21" height="1" fill="#90380A"/><rect x="320" y="212" width="21" height="1" fill="#C94E12"/><rect x="341" y="212" width="22" height="1" fill="#93370A"/><rect x="363" y="212" width="21" height="1" fill="#000102"/></svg>