<svg xmlns="http://www.w3.org/2000/svg" viewBox="0 0 512 512" width="512" height="512" shape-rendering="crispEdges"><rect x="256" y="21" width="43" height="1" fill="#000000"/><rect x="256" y="22" width="43" height="1" fill="#000000"/><rect x="256" y="23" width="43" height="1" fill="#000000"/><rect x="256" y="24" width="43" height="1" fill="#000000"/><rect x="256" y="25" width="43" height="1" fill="#000000"/><rect x="256" y="26" width="43" height="1" fill="#000000"/><rect x="256" y="27" width="43" height="1" fill="#000000"/><rect x="256" y="28" width="43" height="1" fill="#000000"/><rect x="256" y="29" width="43" height="1" fill="#000000"/><rect x="256" y="30" width="43" height="1" fill="#000000"/><rect x="256" y="31" width="43" height="1" fill="#000000"/><rect x="256" y="32" width="43" height="1" fill="#000000"/><rect x="256" y="33" width="43" height="1" fill="#000000"/><rect x="256" y="34" width="43" height="1" fill="#000000"/><rect x="256" y="35" width="43" height="1" fill="#000000"/><rect x="256" y="36" width="43" height="1" fill="#000000"/><rect x="256" y="37" width="43" height="1" fill="#000000"/><rect x="256" y="38" width="43" height="1" fill="#000000"/><rect x="256" y="39" width="43" height="1" fill="#000000"/><rect x="256" y="40" width="43" height="1" fill="#000000"/><rect x="256" y="41" width="43" height="1" fill="#000000"/><rect x="256" y="42" width="43" height="1" fill="#000000"/><rect x="235" y="43" width="21" height="1" fill="#000000"/><rect x="256" y="43" width="21" height="1" fill="#A56E2D"/><rect x="277" y="43" width="22" height="1" fill="#000000"/><rect x="235" y="44" width="21" height="1" fill="#000000"/><rect x="256" y="44" width="21" height="1" fill="#A56E2D"/><rect x="277" y="44" width="22" height="1" fill="#000000"/><rect x="235" y="45" width="21" height="1" fill="#000000"/><rect x="256" y="45" width="21" height="1" fill="#A56E2D"/><rect x="277" y="45" width="22" height="1" fill="#000000"/><rect x="235" y="46" width="21" height="1" fill="#000000"/><rect x="256" y="46" width="21" height="1" fill="#A56E2D"/><rect x="277" y="46" width="22" height="1" fill="#000000"/><rect x="235" y="47" width="21" height="1" fill="#000000"/><rect x="256" y="47" width="21" height="1" fill="#A56E2D"/><rect x="277" y="47" width="22" height="1" fill="#000000"/><rect x="235" y="48" width="21" height="1" fill="#000000"/><rect x="256" y="48" width="21" height="1" fill="#A56E2D"/><rect x="277" y="48" width="22" height="1" fill="#000000"/><rect x="235" y="49" width="21" height="1" fill="#000000"/><rect x="256" y="49" width="21" height="1" fill="#A56E2D"/><rect x="277" y="49" width="22" height="1" fill="#000000"/><rect x="235" y="50" width="21" height="1" fill="#000000"/><rect x="256" y="50" width="21" height="1" fill="#A56E2D"/><rect x="277" y="50" width="22" height="1" fill="#000000"/><rect x="235" y="51" width="21" height="1" fill="#000000"/><rect x="256" y="51" width="21" height="1" fill="#A56E2D"/><rect x="277" y="51" width="22" height="1" fill="#000000"/><rect x="235" y="52" width="21" height="1" fill="#000000"/><rect x="256" y="52" width="21" height="1" fill="#A56E2D"/><rect x="277" y="52" width="22" height="1" fill="#000000"/><rect x="235" y="53" width="21" height="1" fill="#000000"/><rect x="256" y="53" width="21" height="1" fill="#A56E2D"/><rect x="277" y="53" width="22" height="1" fill="#000000"/><rect x="235" y="54" width="21" height="1" fill="#000000"/><rect x="256" y="54" width="21" height="1" fill="#A56E2D"/><rect x="277" y="54" width="22" height="1" fill="#000000"/><rect x="235" y="55" width="21" height="1" fill="#000000"/><rect x="256" y="55" width="21" height="1" fill="#A56E2D"/><rect x="277" y="55" width="22" height="1" fill="#000000"/><rect x="235" y="56" width="21" height="1" fill="#000000"/><rect x="256" y="56" width="21" height="1" fill="#A56E2D"/><rect x="277" y="56" width="22" height="1" fill="#000000"/><rect x="235" y="57" width="21" height="1" fill="#000000"/><rect x="256" y="57" width="21" height="1" fill="#A56E2D"/><rect x="277" y="57" width="22" height="1" fill="#000000"/><rect x="235" y="58" width="21" height="1" fill="#000000"/><rect x="256" y="58" width="21" height="1" fill="#A56E2D"/><rect x="277" y="58" width="22" height="1" fill="#000000"/><rect x="235" y="59" width="21" height="1" fill="#000000"/><rect x="256" y="59" width="21" height="1" fill="#A56E2D"/><rect x="277" y="59" width="22" height="1" fill="#000000"/><rect x="235" y="60" width="21" height="1" fill="#000000"/><rect x="256" y="60" width="21" height="1" fill="#A56E2D"/><rect x="277" y="60" width="22" height="1" fill="#000000"/><rect x="235" y="61" width="21" height="1" fill="#000000"/><rect x="256" y="61" width="21" height="1" fill="#A56E2D"/><rect x="277" y="61" width="22" height="1" fill="#000000"/><rect x="235" y="62" width="21" height="1" fill="#000000"/><rect x="256" y="62" width="21" height="1" fill="#A56E2D"/><rect x="277" y="62" width="22" height="1" fill="#000000"/><rect x="235" y="63" width="21" height="1" fill="#000000"/><rect x="256" y="63" width="21" height="1" fill="#A56E2D"/><rect x="277" y="63" width="22" height="1" fill="#000000"/><rect x="213" y="64" width="22" height="1" fill="#000000"/><rect x="235" y="64" width="42" height="1" fill="#A56E2D"/><rect x="277" y="64" width="22" height="1" fill="#000000"/><rect x="213" y="65" width="22" height="1" fill="#000000"/><rect x="235" y="65" width="42" height="1" fill="#A56E2D"/><rect x="277" y="65" width="22" height="1" fill="#000000"/><rect x="213" y="66" width="22" height="1" fill="#000000"/><rect x="235" y="66" width="42" height="1" fill="#A56E2D"/><rect x="277" y="66" width="22" height="1" fill="#000000"/><rect x="213" y="67" width="22" height="1" fill="#000000"/><rect x="235" y="67" width="42" height="1" fill="#A56E2D"/><rect x="277" y="67" width="22" height="1" fill="#000000"/><rect x="213" y="68" width="22" height="1" fill="#000000"/><rect x="235" y="68" width="42" height="1" fill="#A56E2D"/><rect x="277" y="68" width="22" height="1" fill="#000000"/><rect x="213" y="69" width="22" height="1" fill="#000000"/><rect x="235" y="69" width="42" height="1" fill="#A56E2D"/><rect x="277" y="69" width="22" height="1" fill="#000000"/><rect x="213" y="70" width="22" height="1" fill="#000000"/><rect x="235" y="70" width="42" height="1" fill="#A56E2D"/><rect x="277" y="70" width="22" height="1" fill="#000000"/><rect x="213" y="71" width="22" height="1" fill="#000000"/><rect x="235" y="71" width="42" height="1" fill="#A56E2D"/><rect x="277" y="71" width="22" height="1" fill="#000000"/><rect x="213" y="72" width="22" height="1" fill="#000000"/><rect x="235" y="72" width="42" height="1" fill="#A56E2D"/><rect x="277" y="72" width="22" height="1" fill="#000000"/><rect x="213" y="73" width="22" height="1" fill="#000000"/><rect x="235" y="73" width="42" height="1" fill="#A56E2D"/><rect x="277" y="73" width="22" height="1" fill="#000000"/><rect x="213" y="74" width="22" height="1" fill="#000000"/><rect x="235" y="74" width="42" height="1" fill="#A56E2D"/><rect x="277" y="74" width="22" height="1" fill="#000000"/><rect x="213" y="75" width="22" height="1" fill="#000000"/><rect x="235" y="75" width="42" height="1" fill="#A56E2D"/><rect x="277" y="75" width="22" height="1" fill="#000000"/><rect x="213" y="76" width="22" height="1" fill="#000000"/><rect x="235" y="76" width="42" height="1" fill="#A56E2D"/><rect x="277" y="76" width="22" height="1" fill="#000000"/><rect x="213" y="77" width="22" height="1" fill="#000000"/><rect x="235" y="77" width="42" height="1" fill="#A56E2D"/><rect x="277" y="77" width="22" height="1" fill="#000000"/><rect x="213" y="78" width="22" height="1" fill="#000000"/><rect x="235" y="78" width="42" height="1" fill="#A56E2D"/><rect x="277" y="78" width="22" height="1" fill="#000000"/><rect x="213" y="79" width="22" height="1" fill="#000000"/><rect x="235" y="79" width="42" height="1" fill="#A56E2D"/><rect x="277" y="79" width="22" height="1" fill="#000000"/><rect x="213" y="80" width="22" height="1" fill="#000000"/><rect x="235" y="80" width="42" height="1" fill="#A56E2D"/><rect x="277" y="80" width="22" height="1" fill="#000000"/><rect x="213" y="81" width="22" height="1" fill="#000000"/><rect x="235" y="81" width="42" height="1" fill="#A56E2D"/><rect x="277" y="81" width="22" height="1" fill="#000000"/><rect x="213" y="82" width="22" height="1" fill="#000000"/><rect x="235" y="82" width="42" height="1" fill="#A56E2D"/><rect x="277" y="82" width="22" height="1" fill="#000000"/><rect x="213" y="83" width="22" height="1" fill="#000000"/><rect x="235" y="83" width="42" height="1" fill="#A56E2D"/><rect x="277" y="83" width="22" height="1" fill="#000000"/><rect x="213" y="84" width="22" height="1" fill="#000000"/><rect x="235" y="84" width="42" height="1" fill="#A56E2D"/><rect x="277" y="84" width="22" height="1" fill="#000000"/><rect x="192" y="85" width="21" height="1" fill="#000000"/><rect x="213" y="85" width="22" height="1" fill="#805723"/><rect x="235" y="85" width="42" height="1" fill="#A56E2D"/><rect x="277" y="85" width="22" height="1" fill="#000000"/><rect x="192" y="86" width="21" height="1" fill="#000000"/><rect x="213" y="86" width="22" height="1" fill="#805723"/><rect x="235" y="86" width="42" height="1" fill="#A56E2D"/><rect x="277" y="86" width="22" height="1" fill="#000000"/><rect x="192" y="87" width="21" height="1" fill="#000000"/><rect x="213" y="87" width="22" height="1" fill="#805723"/><rect x="235" y="87" width="42" height="1" fill="#A56E2D"/><rect x="277" y="87" width="22" height="1" fill="#000000"/><rect x="192" y="88" width="21" height="1" fill="#000000"/><rect x="213" y="88" width="22" height="1" fill="#805723"/><rect x="235" y="88" width="42" height="1" fill="#A56E2D"/><rect x="277" y="88" width="22" height="1" fill="#000000"/><rect x="192" y="89" width="21" height="1" fill="#000000"/><rect x="213" y="89" width="22" height="1" fill="#805723"/><rect x="235" y="89" width="42" height="1" fill="#A56E2D"/><rect x="277" y="89" width="22" height="1" fill="#000000"/><rect x="192" y="90" width="21" height="1" fill="#000000"/><rect x="213" y="90" width="22" height="1" fill="#805723"/><rect x="235" y="90" width="42" height="1" fill="#A56E2D"/><rect x="277" y="90" width="22" height="1" fill="#000000"/><rect x="192" y="91" width="21" height="1" fill="#000000"/><rect x="213" y="91" width="22" height="1" fill="#805723"/><rect x="235" y="91" width="42" height="1" fill="#A56E2D"/><rect x="277" y="91" width="22" height="1" fill="#000000"/><rect x="192" y="92" width="21" height="1" fill="#000000"/><rect x="213" y="92" width="22" height="1" fill="#805723"/><rect x="235" y="92" width="42" height="1" fill="#A56E2D"/><rect x="277" y="92" width="22" height="1" fill="#000000"/><rect x="192" y="93" width="21" height="1" fill="#000000"/><rect x="213" y="93" width="22" height="1" fill="#805723"/><rect x="235" y="93" width="42" height="1" fill="#A56E2D"/><rect x="277" y="93" width="22" height="1" fill="#000000"/><rect x="192" y="94" width="21" height="1" fill="#000000"/><rect x="213" y="94" width="22" height="1" fill="#805723"/><rect x="235" y="94" width="42" height="1" fill="#A56E2D"/><rect x="277" y="94" width="22" height="1" fill="#000000"/><rect x="192" y="95" width="21" height="1" fill="#000000"/><rect x="213" y="95" width="22" height="1" fill="#805723"/><rect x="235" y="95" width="42" height="1" fill="#A56E2D"/><rect x="277" y="95" width="22" height="1" fill="#000000"/><rect x="192" y="96" width="21" height="1" fill="#000000"/><rect x="213" y="96" width="22" height="1" fill="#805723"/><rect x="235" y="96" width="42" height="1" fill="#A56E2D"/><rect x="277" y="96" width="22" height="1" fill="#000000"/><rect x="192" y="97" width="21" height="1" fill="#000000"/><rect x="213" y="97" width="22" height="1" fill="#805723"/><rect x="235" y="97" width="42" height="1" fill="#A56E2D"/><rect x="277" y="97" width="22" height="1" fill="#000000"/><rect x="192" y="98" width="21" height="1" fill="#000000"/><rect x="213" y="98" width="22" height="1" fill="#805723"/><rect x="235" y="98" width="42" height="1" fill="#A56E2D"/><rect x="277" y="98" width="22" height="1" fill="#000000"/><rect x="192" y="99" width="21" height="1" fill="#000000"/><rect x="213" y="99" width="22" height="1" fill="#805723"/><rect x="235" y="99" width="42" height="1" fill="#A56E2D"/><rect x="277" y="99" width="22" height="1" fill="#000000"/><rect x="192" y="100" width="21" height="1" fill="#000000"/><rect x="213" y="100" width="22" height="1" fill="#805723"/><rect x="235" y="100" width="42" height="1" fill="#A56E2D"/><rect x="277" y="100" width="22" height="1" fill="#000000"/><rect x="192" y="101" width="21" height="1" fill="#000000"/><rect x="213" y="101" width="22" height="1" fill="#805723"/><rect x="235" y="101" width="42" height="1" fill="#A56E2D"/><rect x="277" y="101" width="22" height="1" fill="#000000"/><rect x="192" y="102" width="21" height="1" fill="#000000"/><rect x="213" y="102" width="22" height="1" fill="#805723"/><rect x="235" y="102" width="42" height="1" fill="#A56E2D"/><rect x="277" y="102" width="22" height="1" fill="#000000"/><rect x="192" y="103" width="21" height="1" fill="#000000"/><rect x="213" y="103" width="22" height="1" fill="#805723"/><rect x="235" y="103" width="42" height="1" fill="#A56E2D"/><rect x="277" y="103" width="22" height="1" fill="#000000"/><rect x="192" y="104" width="21" height="1" fill="#000000"/><rect x="213" y="104" width="22" height="1" fill="#805723"/><rect x="235" y="104" width="42" height="1" fill="#A56E2D"/><rect x="277" y="104" width="22" height="1" fill="#000000"/><rect x="192" y="105" width="21" height="1" fill="#000000"/><rect x="213" y="105" width="22" height="1" fill="#805723"/><rect x="235" y="105" width="42" height="1" fill="#A56E2D"/><rect x="277" y="105" width="22" height="1" fill="#000000"/><rect x="192" y="106" width="21" height="1" fill="#000000"/><rect x="213" y="106" width="22" height="1" fill="#805723"/><rect x="235" y="106" width="42" height="1" fill="#A56E2D"/><rect x="277" y="106" width="22" height="1" fill="#000000"/><rect x="171" y="107" width="21" height="1" fill="#000000"/><rect x="192" y="107" width="21" height="1" fill="#805723"/><rect x="213" y="107" width="64" height="1" fill="#A56E2D"/><rect x="277" y="107" width="22" height="1" fill="#000000"/><rect x="171" y="108" width="21" height="1" fill="#000000"/><rect x="192" y="108" width="21" height="1" fill="#805723"/><rect x="213" y="108" width="64" height="1" fill="#A56E2D"/><rect x="277" y="108" width="22" height="1" fill="#000000"/><rect x="171" y="109" width="21" height="1" fill="#000000"/><rect x="192" y="109" width="21" height="1" fill="#805723"/><rect x="213" y="109" width="64" height="1" fill="#A56E2D"/><rect x="277" y="109" width="22" height="1" fill="#000000"/><rect x="171" y="110" width="21" height="1" fill="#000000"/><rect x="192" y="110" width="21" height="1" fill="#805723"/><rect x="213" y="110" width="64" height="1" fill="#A56E2D"/><rect x="277" y="110" width="22" height="1" fill="#000000"/><rect x="171" y="111" width="21" height="1" fill="#000000"/><rect x="192" y="111" width="21" height="1" fill="#805723"/><rect x="213" y="111" width="64" height="1" fill="#A56E2D"/><rect x="277" y="111" width="22" height="1" fill="#000000"/><rect x="171" y="112" width="21" height="1" fill="#000000"/><rect x="192" y="112" width="21" height="1" fill="#805723"/><rect x="213" y="112" width="64" height="1" fill="#A56E2D"/><rect x="277" y="112" width="22" height="1" fill="#000000"/><rect x="171" y="113" width="21" height="1" fill="#000000"/><rect x="192" y="113" width="21" height="1" fill="#805723"/><rect x="213" y="113" width="64" height="1" fill="#A56E2D"/><rect x="277" y="113" width="22" height="1" fill="#000000"/><rect x="171" y="114" width="21" height="1" fill="#000000"/><rect x="192" y="114" width="21" height="1" fill="#805723"/><rect x="213" y="114" width="64" height="1" fill="#A56E2D"/><rect x="277" y="114" width="22" height="1" fill="#000000"/><rect x="171" y="115" width="21" height="1" fill="#000000"/><rect x="192" y="115" width="21" height="1" fill="#805723"/><rect x="213" y="115" width="64" height="1" fill="#A56E2D"/><rect x="277" y="115" width="22" height="1" fill="#000000"/><rect x="171" y="116" width="21" height="1" fill="#000000"/><rect x="192" y="116" width="21" height="1" fill="#805723"/><rect x="213" y="116" width="64" height="1" fill="#A56E2D"/><rect x="277" y="116" width="22" height="1" fill="#000000"/><rect x="171" y="117" width="21" height="1" fill="#000000"/><rect x="192" y="117" width="21" height="1" fill="#805723"/><rect x="213" y="117" width="64" height="1" fill="#A56E2D"/><rect x="277" y="117" width="22" height="1" fill="#000000"/><rect x="171" y="118" width="21" height="1" fill="#000000"/><rect x="192" y="118" width="21" height="1" fill="#805723"/><rect x="213" y="118" width="64" height="1" fill="#A56E2D"/><rect x="277" y="118" width="22" height="1" fill="#000000"/><rect x="171" y="119" width="21" height="1" fill="#000000"/><rect x="192" y="119" width="21" height="1" fill="#805723"/><rect x="213" y="119" width="64" height="1" fill="#A56E2D"/><rect x="277" y="119" width="22" height="1" fill="#000000"/><rect x="171" y="120" width="21" height="1" fill="#000000"/><rect x="192" y="120" width="21" height="1" fill="#805723"/><rect x="213" y="120" width="64" height="1" fill="#A56E2D"/><rect x="277" y="120" width="22" height="1" fill="#000000"/><rect x="171" y="121" width="21" height="1" fill="#000000"/><rect x="192" y="121" width="21" height="1" fill="#805723"/><rect x="213" y="121" width="64" height="1" fill="#A56E2D"/><rect x="277" y="121" width="22" height="1" fill="#000000"/><rect x="171" y="122" width="21" height="1" fill="#000000"/><rect x="192" y="122" width="21" height="1" fill="#805723"/><rect x="213" y="122" width="64" height="1" fill="#A56E2D"/><rect x="277" y="122" width="22" height="1" fill="#000000"/><rect x="171" y="123" width="21" height="1" fill="#000000"/><rect x="192" y="123" width="21" height="1" fill="#805723"/><rect x="213" y="123" width="64" height="1" fill="#A56E2D"/><rect x="277" y="123" width="22" height="1" fill="#000000"/><rect x="171" y="124" width="21" height="1" fill="#000000"/><rect x="192" y="124" width="21" height="1" fill="#805723"/><rect x="213" y="124" width="64" height="1" fill="#A56E2D"/><rect x="277" y="124" width="22" height="1" fill="#000000"/><rect x="171" y="125" width="21" height="1" fill="#000000"/><rect x="192" y="125" width="21" height="1" fill="#805723"/><rect x="213" y="125" width="64" height="1" fill="#A56E2D"/><rect x="277" y="125" width="22" height="1" fill="#000000"/><rect x="171" y="126" width="21" height="1" fill="#000000"/><rect x="192" y="126" width="21" height="1" fill="#805723"/><rect x="213" y="126" width="64" height="1" fill="#A56E2D"/><rect x="277" y="126" width="22" height="1" fill="#000000"/><rect x="171" y="127" width="21" height="1" fill="#000000"/><rect x="192" y="127" width="21" height="1" fill="#805723"/><rect x="213" y="127" width="64" height="1" fill="#A56E2D"/><rect x="277" y="127" width="22" height="1" fill="#000000"/><rect x="235" y="128" width="42" height="1" fill="#A56E2D"/><rect x="235" y="129" width="42" height="1" fill="#A56E2D"/><rect x="235" y="130" width="42" height="1" fill="#A56E2D"/><rect x="235" y="131" width="42" height="1" fill="#A56E2D"/><rect x="235" y="132" width="42" height="1" fill="#A56E2D"/><rect x="235" y="133" width="42" height="1" fill="#A56E2D"/><rect x="235" y="134" width="42" height="1" fill="#A56E2D"/><rect x="235" y="135" width="42" height="1" fill="#A56E2D"/><rect x="235" y="136" width="42" height="1" fill="#A56E2D"/><rect x="235" y="137" width="42" height="1" fill="#A56E2D"/><rect x="235" y="138" width="42" height="1" fill="#A56E2D"/><rect x="235" y="139" width="42" height="1" fill="#A56E2D"/><rect x="235" y="140" width="42" height="1" fill="#A56E2D"/><rect x="235" y="141" width="42" height="1" fill="#A56E2D"/><rect x="235" y="142" width="42" height="1" fill="#A56E2D"/><rect x="235" y="143" width="42" height="1" fill="#A56E2D"/><rect x="235" y="144" width="42" height="1" fill="#A56E2D"/><rect x="235" y="145" width="42" height="1" fill="#A56E2D"/><rect x="235" y="146" width="42" height="1" fill="#A56E2D"/><rect x="235" y="147" width="42" height="1" fill="#A56E2D"/><rect x="235" y="148" width="42" height="1" fill="#A56E2D"/><rect x="256" y="149" width="21" height="1" fill="#A56E2D"/><rect x="256" y="150" width="21" height="1" fill="#A56E2D"/><rect x="256" y="151" width="21" height="1" fill="#A56E2D"/><rect x="256" y="152" width="21" height="1" fill="#A56E2D"/><rect x="256" y="153" width="21" height="1" fill="#A56E2D"/><rect x="256" y="154" width="21" height="1" fill="#A56E2D"/><rect x="256" y="155" width="21" height="1" fill="#A56E2D"/><rect x="256" y="156" width="21" height="1" fill="#A56E2D"/><rect x="256" y="157" width="21" height="1" fill="#A56E2D"/><rect x="256" y="158" width="21" height="1" fill="#A56E2D"/><rect x="256" y="159" width="21" height="1" fill="#A56E2D"/><rect x="256" y="160" width="21" height="1" fill="#A56E2D"/><rect x="256" y="161" width="21" height="1" fill="#A56E2D"/><rect x="256" y="162" width="21" height="1" fill="#A56E2D"/><rect x="256" y="163" width="21" height="1" fill="#A56E2D"/><rect x="256" y="164" width="21" height="1" fill="#A56E2D"/><rect x="256" y="165" width="21" height="1" fill="#A56E2D"/><rect x="256" y="166" width="21" height="1" fill="#A56E2D"/><rect x="256" y="167" width="21" height="1" fill="#A56E2D"/><rect x="256" y="168" width="21" height="1" fill="#A56E2D"/><rect x="256" y="169" width="21" height="1" fill="#A56E2D"/><rect x="256" y="170" width="21" height="1" fill="#A56E2D"/></svg>