<svg xmlns="http://www.w3.org/2000/svg" viewBox="0 0 512 512" width="512" height="512" shape-rendering="crispEdges"><rect x="256" y="21" width="43" height="1" fill="#000000"/><rect x="256" y="22" width="43" height="1" fill="#000000"/><rect x="256" y="23" width="43" height="1" fill="#000000"/><rect x="256" y="24" width="43" height="1" fill="#000000"/><rect x="256" y="25" width="43" height="1" fill="#000000"/><rect x="256" y="26" width="43" height="1" fill="#000000"/><rect x="256" y="27" width="43" height="1" fill="#000000"/><rect x="256" y="28" width="43" height="1" fill="#000000"/><rect x="256" y="29" width="43" height="1" fill="#000000"/><rect x="256" y="30" width="43" height="1" fill="#000000"/><rect x="256" y="31" width="43" height="1" fill="#000000"/><rect x="256" y="32" width="43" height="1" fill="#000000"/><rect x="256" y="33" width="43" height="1" fill="#000000"/><rect x="256" y="34" width="43" height="1" fill="#000000"/><rect x="256" y="35" width="43" height="1" fill="#000000"/><rect x="256" y="36" width="43" height="1" fill="#000000"/><rect x="256" y="37" width="43" height="1" fill="#000000"/><rect x="256" y="38" width="43" height="1" fill="#000000"/><rect x="256" y="39" width="43" height="1" fill="#000000"/><rect x="256" y="40" width="43" height="1" fill="#000000"/><rect x="256" y="41" width="43" height="1" fill="#000000"/><rect x="256" y="42" width="43" height="1" fill="#000000"/><rect x="235" y="43" width="64" height="1" fill="#000000"/><rect x="235" y="44" width="64" height="1" fill="#000000"/><rect x="235" y="45" width="64" height="1" fill="#000000"/><rect x="235" y="46" width="64" height="1" fill="#000000"/><rect x="235" y="47" width="64" height="1" fill="#000000"/><rect x="235" y="48" width="64" height="1" fill="#000000"/><rect x="235" y="49" width="64" height="1" fill="#000000"/><rect x="235" y="50" width="64" height="1" fill="#000000"/><rect x="235" y="51" width="64" height="1" fill="#000000"/><rect x="235" y="52" width="64" height="1" fill="#000000"/><rect x="235" y="53" width="64" height="1" fill="#000000"/><rect x="235" y="54" width="64" height="1" fill="#000000"/><rect x="235" y="55" width="64" height="1" fill="#000000"/><rect x="235" y="56" width="64" height="1" fill="#000000"/><rect x="235" y="57" width="64" height="1" fill="#000000"/><rect x="235" y="58" width="64" height="1" fill="#000000"/><rect x="235" y="59" width="64" height="1" fill="#000000"/><rect x="235" y="60" width="64" height="1" fill="#000000"/><rect x="235" y="61" width="64" height="1" fill="#000000"/><rect x="235" y="62" width="64" height="1" fill="#000000"/><rect x="235" y="63" width="64" height="1" fill="#000000"/><rect x="213" y="64" width="86" height="1" fill="#000000"/><rect x="213" y="65" width="86" height="1" fill="#000000"/><rect x="213" y="66" width="86" height="1" fill="#000000"/><rect x="213" y="67" width="86" height="1" fill="#000000"/><rect x="213" y="68" width="86" height="1" fill="#000000"/><rect x="213" y="69" width="86" height="1" fill="#000000"/><rect x="213" y="70" width="86" height="1" fill="#000000"/><rect x="213" y="71" width="86" height="1" fill="#000000"/><rect x="213" y="72" width="86" height="1" fill="#000000"/><rect x="213" y="73" width="86" height="1" fill="#000000"/><rect x="213" y="74" width="86" height="1" fill="#000000"/><rect x="213" y="75" width="86" height="1" fill="#000000"/><rect x="213" y="76" width="86" height="1" fill="#000000"/><rect x="213" y="77" width="86" height="1" fill="#000000"/><rect x="213" y="78" width="86" height="1" fill="#000000"/><rect x="213" y="79" width="86" height="1" fill="#000000"/><rect x="213" y="80" width="86" height="1" fill="#000000"/><rect x="213" y="81" width="86" height="1" fill="#000000"/><rect x="213" y="82" width="86" height="1" fill="#000000"/><rect x="213" y="83" width="86" height="1" fill="#000000"/><rect x="213" y="84" width="86" height="1" fill="#000000"/><rect x="192" y="85" width="107" height="1" fill="#000000"/><rect x="192" y="86" width="107" height="1" fill="#000000"/><rect x="192" y="87" width="107" height="1" fill="#000000"/><rect x="192" y="88" width="107" height="1" fill="#000000"/><rect x="192" y="89" width="107" height="1" fill="#000000"/><rect x="192" y="90" width="107" height="1" fill="#000000"/><rect x="192" y="91" width="107" height="1" fill="#000000"/><rect x="192" y="92" width="107" height="1" fill="#000000"/><rect x="192" y="93" width="107" height="1" fill="#000000"/><rect x="192" y="94" width="107" height="1" fill="#000000"/><rect x="192" y="95" width="107" height="1" fill="#000000"/><rect x="192" y="96" width="107" height="1" fill="#000000"/><rect x="192" y="97" width="107" height="1" fill="#000000"/><rect x="192" y="98" width="107" height="1" fill="#000000"/><rect x="192" y="99" width="107" height="1" fill="#000000"/><rect x="192" y="100" width="107" height="1" fill="#000000"/><rect x="192" y="101" width="107" height="1" fill="#000000"/><rect x="192" y="102" width="107" height="1" fill="#000000"/><rect x="192" y="103" width="107" height="1" fill="#000000"/><rect x="192" y="104" width="107" height="1" fill="#000000"/><rect x="192" y="105" width="107" height="1" fill="#000000"/><rect x="192" y="106" width="107" height="1" fill="#000000"/><rect x="171" y="107" width="128" height="1" fill="#000000"/><rect x="171" y="108" width="128" height="1" fill="#000000"/><rect x="171" y="109" width="128" height="1" fill="#000000"/><rect x="171" y="110" width="128" height="1" fill="#000000"/><rect x="171" y="111" width="128" height="1" fill="#000000"/><rect x="171" y="112" width="128" height="1" fill="#000000"/><rect x="171" y="113" width="128" height="1" fill="#000000"/><rect x="171" y="114" width="128" height="1" fill="#000000"/><rect x="171" y="115" width="128" height="1" fill="#000000"/><rect x="171" y="116" width="128" height="1" fill="#000000"/><rect x="171" y="117" width="128" height="1" fill="#000000"/><rect x="171" y="118" width="128" height="1" fill="#000000"/><rect x="171" y="119" width="128" height="1" fill="#000000"/><rect x="171" y="120" width="128" height="1" fill="#000000"/><rect x="171" y="121" width="128" height="1" fill="#000000"/><rect x="171" y="122" width="128" height="1" fill="#000000"/><rect x="171" y="123" width="128" height="1" fill="#000000"/><rect x="171" y="124" width="128" height="1" fill="#000000"/><rect x="171" y="125" width="128" height="1" fill="#000000"/><rect x="171" y="126" width="128" height="1" fill="#000000"/><rect x="171" y="127" width="128" height="1" fill="#000000"/><rect x="235" y="128" width="42" height="1" fill="#000000"/><rect x="235" y="129" width="42" height="1" fill="#000000"/><rect x="235" y="130" width="42" height="1" fill="#000000"/><rect x="235" y="131" width="42" height="1" fill="#000000"/><rect x="235" y="132" width="42" height="1" fill="#000000"/><rect x="235" y="133" width="42" height="1" fill="#000000"/><rect x="235" y="134" width="42" height="1" fill="#000000"/><rect x="235" y="135" width="42" height="1" fill="#000000"/><rect x="235" y="136" width="42" height="1" fill="#000000"/><rect x="235" y="137" width="42" height="1" fill="#000000"/><rect x="235" y="138" width="42" height="1" fill="#000000"/><rect x="235" y="139" width="42" height="1" fill="#000000"/><rect x="235" y="140" width="42" height="1" fill="#000000"/><rect x="235" y="141" width="42" height="1" fill="#000000"/><rect x="235" y="142" width="42" height="1" fill="#000000"/><rect x="235" y="143" width="42" height="1" fill="#000000"/><rect x="235" y="144" width="42" height="1" fill="#000000"/><rect x="235" y="145" width="42" height="1" fill="#000000"/><rect x="235" y="146" width="42" height="1" fill="#000000"/><rect x="235" y="147" width="42" height="1" fill="#000000"/><rect x="235" y="148" width="42" height="1" fill="#000000"/><rect x="256" y="149" width="21" height="1" fill="#000000"/><rect x="256" y="150" width="21" height="1" fill="#000000"/><rect x="256" y="151" width="21" height="1" fill="#000000"/><rect x="256" y="152" width="21" height="1" fill="#000000"/><rect x="256" y="153" width="21" height="1" fill="#000000"/><rect x="256" y="154" width="21" height="1" fill="#000000"/><rect x="256" y="155" width="21" height="1" fill="#000000"/><rect x="256" y="156" width="21" height="1" fill="#000000"/><rect x="256" y="157" width="21" height="1" fill="#000000"/><rect x="256" y="158" width="21" height="1" fill="#000000"/><rect x="256" y="159" width="21" height="1" fill="#000000"/><rect x="256" y="160" width="21" height="1" fill="#000000"/><rect x="256" y="161" width="21" height="1" fill="#000000"/><rect x="256" y="162" width="21" height="1" fill="#000000"/><rect x="256" y="163" width="21" height="1" fill="#000000"/><rect x="256" y="164" width="21" height="1" fill="#000000"/><rect x="256" y="165" width="21" height="1" fill="#000000"/><rect x="256" y="166" width="21" height="1" fill="#000000"/><rect x="256" y="167" width="21" height="1" fill="#000000"/><rect x="256" y="168" width="21" height="1" fill="#000000"/><rect x="256" y="169" width="21" height="1" fill="#000000"/><rect x="256" y="170" width="21" height="1" fill="#000000"/></svg>