<svg xmlns="http://www.w3.org/2000/svg" viewBox="0 0 512 512" width="512" height="512" shape-rendering="crispEdges"><rect x="192" y="21" width="21" height="1" fill="#000000"/><rect x="235" y="21" width="21" height="1" fill="#000000"/><rect x="277" y="21" width="22" height="1" fill="#000000"/><rect x="192" y="22" width="21" height="1" fill="#000000"/><rect x="235" y="22" width="21" height="1" fill="#000000"/><rect x="277" y="22" width="22" height="1" fill="#000000"/><rect x="192" y="23" width="21" height="1" fill="#000000"/><rect x="235" y="23" width="21" height="1" fill="#000000"/><rect x="277" y="23" width="22" height="1" fill="#000000"/><rect x="192" y="24" width="21" height="1" fill="#000000"/><rect x="235" y="24" width="21" height="1" fill="#000000"/><rect x="277" y="24" width="22" height="1" fill="#000000"/><rect x="192" y="25" width="21" height="1" fill="#000000"/><rect x="235" y="25" width="21" height="1" fill="#000000"/><rect x="277" y="25" width="22" height="1" fill="#000000"/><rect x="192" y="26" width="21" height="1" fill="#000000"/><rect x="235" y="26" width="21" height="1" fill="#000000"/><rect x="277" y="26" width="22" height="1" fill="#000000"/><rect x="192" y="27" width="21" height="1" fill="#000000"/><rect x="235" y="27" width="21" height="1" fill="#000000"/><rect x="277" y="27" width="22" height="1" fill="#000000"/><rect x="192" y="28" width="21" height="1" fill="#000000"/><rect x="235" y="28" width="21" height="1" fill="#000000"/><rect x="277" y="28" width="22" height="1" fill="#000000"/><rect x="192" y="29" width="21" height="1" fill="#000000"/><rect x="235" y="29" width="21" height="1" fill="#000000"/><rect x="277" y="29" width="22" height="1" fill="#000000"/><rect x="192" y="30" width="21" height="1" fill="#000000"/><rect x="235" y="30" width="21" height="1" fill="#000000"/><rect x="277" y="30" width="22" height="1" fill="#000000"/><rect x="192" y="31" width="21" height="1" fill="#000000"/><rect x="235" y="31" width="21" height="1" fill="#000000"/><rect x="277" y="31" width="22" height="1" fill="#000000"/><rect x="192" y="32" width="21" height="1" fill="#000000"/><rect x="235" y="32" width="21" height="1" fill="#000000"/><rect x="277" y="32" width="22" height="1" fill="#000000"/><rect x="192" y="33" width="21" height="1" fill="#000000"/><rect x="235" y="33" width="21" height="1" fill="#000000"/><rect x="277" y="33" width="22" height="1" fill="#000000"/><rect x="192" y="34" width="21" height="1" fill="#000000"/><rect x="235" y="34" width="21" height="1" fill="#000000"/><rect x="277" y="34" width="22" height="1" fill="#000000"/><rect x="192" y="35" width="21" height="1" fill="#000000"/><rect x="235" y="35" width="21" height="1" fill="#000000"/><rect x="277" y="35" width="22" height="1" fill="#000000"/><rect x="192" y="36" width="21" height="1" fill="#000000"/><rect x="235" y="36" width="21" height="1" fill="#000000"/><rect x="277" y="36" width="22" height="1" fill="#000000"/><rect x="192" y="37" width="21" height="1" fill="#000000"/><rect x="235" y="37" width="21" height="1" fill="#000000"/><rect x="277" y="37" width="22" height="1" fill="#000000"/><rect x="192" y="38" width="21" height="1" fill="#000000"/><rect x="235" y="38" width="21" height="1" fill="#000000"/><rect x="277" y="38" width="22" height="1" fill="#000000"/><rect x="192" y="39" width="21" height="1" fill="#000000"/><rect x="235" y="39" width="21" height="1" fill="#000000"/><rect x="277" y="39" width="22" height="1" fill="#000000"/><rect x="192" y="40" width="21" height="1" fill="#000000"/><rect x="235" y="40" width="21" height="1" fill="#000000"/><rect x="277" y="40" width="22" height="1" fill="#000000"/><rect x="192" y="41" width="21" height="1" fill="#000000"/><rect x="235" y="41" width="21" height="1" fill="#000000"/><rect x="277" y="41" width="22" height="1" fill="#000000"/><rect x="192" y="42" width="21" height="1" fill="#000000"/><rect x="235" y="42" width="21" height="1" fill="#000000"/><rect x="277" y="42" width="22" height="1" fill="#000000"/><rect x="171" y="43" width="149" height="1" fill="#000000"/><rect x="171" y="44" width="149" height="1" fill="#000000"/><rect x="171" y="45" width="149" height="1" fill="#000000"/><rect x="171" y="46" width="149" height="1" fill="#000000"/><rect x="171" y="47" width="149" height="1" fill="#000000"/><rect x="171" y="48" width="149" height="1" fill="#000000"/><rect x="171" y="49" width="149" height="1" fill="#000000"/><rect x="171" y="50" width="149" height="1" fill="#000000"/><rect x="171" y="51" width="149" height="1" fill="#000000"/><rect x="171" y="52" width="149" height="1" fill="#000000"/><rect x="171" y="53" width="149" height="1" fill="#000000"/><rect x="171" y="54" width="149" height="1" fill="#000000"/><rect x="171" y="55" width="149" height="1" fill="#000000"/><rect x="171" y="56" width="149" height="1" fill="#000000"/><rect x="171" y="57" width="149" height="1" fill="#000000"/><rect x="171" y="58" width="149" height="1" fill="#000000"/><rect x="171" y="59" width="149" height="1" fill="#000000"/><rect x="171" y="60" width="149" height="1" fill="#000000"/><rect x="171" y="61" width="149" height="1" fill="#000000"/><rect x="171" y="62" width="149" height="1" fill="#000000"/><rect x="171" y="63" width="149" height="1" fill="#000000"/><rect x="171" y="64" width="149" height="1" fill="#000000"/><rect x="171" y="65" width="149" height="1" fill="#000000"/><rect x="171" y="66" width="149" height="1" fill="#000000"/><rect x="171" y="67" width="149" height="1" fill="#000000"/><rect x="171" y="68" width="149" height="1" fill="#000000"/><rect x="171" y="69" width="149" height="1" fill="#000000"/><rect x="171" y="70" width="149" height="1" fill="#000000"/><rect x="171" y="71" width="149" height="1" fill="#000000"/><rect x="171" y="72" width="149" height="1" fill="#000000"/><rect x="171" y="73" width="149" height="1" fill="#000000"/><rect x="171" y="74" width="149" height="1" fill="#000000"/><rect x="171" y="75" width="149" height="1" fill="#000000"/><rect x="171" y="76" width="149" height="1" fill="#000000"/><rect x="171" y="77" width="149" height="1" fill="#000000"/><rect x="171" y="78" width="149" height="1" fill="#000000"/><rect x="171" y="79" width="149" height="1" fill="#000000"/><rect x="171" y="80" width="149" height="1" fill="#000000"/><rect x="171" y="81" width="149" height="1" fill="#000000"/><rect x="171" y="82" width="149" height="1" fill="#000000"/><rect x="171" y="83" width="149" height="1" fill="#000000"/><rect x="171" y="84" width="149" height="1" fill="#000000"/><rect x="149" y="85" width="192" height="1" fill="#000000"/><rect x="149" y="86" width="192" height="1" fill="#000000"/><rect x="149" y="87" width="192" height="1" fill="#000000"/><rect x="149" y="88" width="192" height="1" fill="#000000"/><rect x="149" y="89" width="192" height="1" fill="#000000"/><rect x="149" y="90" width="192" height="1" fill="#000000"/><rect x="149" y="91" width="192" height="1" fill="#000000"/><rect x="149" y="92" width="192" height="1" fill="#000000"/><rect x="149" y="93" width="192" height="1" fill="#000000"/><rect x="149" y="94" width="192" height="1" fill="#000000"/><rect x="149" y="95" width="192" height="1" fill="#000000"/><rect x="149" y="96" width="192" height="1" fill="#000000"/><rect x="149" y="97" width="192" height="1" fill="#000000"/><rect x="149" y="98" width="192" height="1" fill="#000000"/><rect x="149" y="99" width="192" height="1" fill="#000000"/><rect x="149" y="100" width="192" height="1" fill="#000000"/><rect x="149" y="101" width="192" height="1" fill="#000000"/><rect x="149" y="102" width="192" height="1" fill="#000000"/><rect x="149" y="103" width="192" height="1" fill="#000000"/><rect x="149" y="104" width="192" height="1" fill="#000000"/><rect x="149" y="105" width="192" height="1" fill="#000000"/><rect x="149" y="106" width="192" height="1" fill="#000000"/><rect x="149" y="107" width="192" height="1" fill="#000000"/><rect x="149" y="108" width="192" height="1" fill="#000000"/><rect x="149" y="109" width="192" height="1" fill="#000000"/><rect x="149" y="110" width="192" height="1" fill="#000000"/><rect x="149" y="111" width="192" height="1" fill="#000000"/><rect x="149" y="112" width="192" height="1" fill="#000000"/><rect x="149" y="113" width="192" height="1" fill="#000000"/><rect x="149" y="114" width="192" height="1" fill="#000000"/><rect x="149" y="115" width="192" height="1" fill="#000000"/><rect x="149" y="116" width="192" height="1" fill="#000000"/><rect x="149" y="117" width="192" height="1" fill="#000000"/><rect x="149" y="118" width="192" height="1" fill="#000000"/><rect x="149" y="119" width="192" height="1" fill="#000000"/><rect x="149" y="120" width="192" height="1" fill="#000000"/><rect x="149" y="121" width="192" height="1" fill="#000000"/><rect x="149" y="122" width="192" height="1" fill="#000000"/><rect x="149" y="123" width="192" height="1" fill="#000000"/><rect x="149" y="124" width="192" height="1" fill="#000000"/><rect x="149" y="125" width="192" height="1" fill="#000000"/><rect x="149" y="126" width="192" height="1" fill="#000000"/><rect x="149" y="127" width="192" height="1" fill="#000000"/><rect x="128" y="128" width="43" height="1" fill="#000000"/><rect x="213" y="128" width="64" height="1" fill="#000000"/><rect x="320" y="128" width="43" height="1" fill="#000000"/><rect x="128" y="129" width="43" height="1" fill="#000000"/><rect x="213" y="129" width="64" height="1" fill="#000000"/><rect x="320" y="129" width="43" height="1" fill="#000000"/><rect x="128" y="130" width="43" height="1" fill="#000000"/><rect x="213" y="130" width="64" height="1" fill="#000000"/><rect x="320" y="130" width="43" height="1" fill="#000000"/><rect x="128" y="131" width="43" height="1" fill="#000000"/><rect x="213" y="131" width="64" height="1" fill="#000000"/><rect x="320" y="131" width="43" height="1" fill="#000000"/><rect x="128" y="132" width="43" height="1" fill="#000000"/><rect x="213" y="132" width="64" height="1" fill="#000000"/><rect x="320" y="132" width="43" height="1" fill="#000000"/><rect x="128" y="133" width="43" height="1" fill="#000000"/><rect x="213" y="133" width="64" height="1" fill="#000000"/><rect x="320" y="133" width="43" height="1" fill="#000000"/><rect x="128" y="134" width="43" height="1" fill="#000000"/><rect x="213" y="134" width="64" height="1" fill="#000000"/><rect x="320" y="134" width="43" height="1" fill="#000000"/><rect x="128" y="135" width="43" height="1" fill="#000000"/><rect x="213" y="135" width="64" height="1" fill="#000000"/><rect x="320" y="135" width="43" height="1" fill="#000000"/><rect x="128" y="136" width="43" height="1" fill="#000000"/><rect x="213" y="136" width="64" height="1" fill="#000000"/><rect x="320" y="136" width="43" height="1" fill="#000000"/><rect x="128" y="137" width="43" height="1" fill="#000000"/><rect x="213" y="137" width="64" height="1" fill="#000000"/><rect x="320" y="137" width="43" height="1" fill="#000000"/><rect x="128" y="138" width="43" height="1" fill="#000000"/><rect x="213" y="138" width="64" height="1" fill="#000000"/><rect x="320" y="138" width="43" height="1" fill="#000000"/><rect x="128" y="139" width="43" height="1" fill="#000000"/><rect x="213" y="139" width="64" height="1" fill="#000000"/><rect x="320" y="139" width="43" height="1" fill="#000000"/><rect x="128" y="140" width="43" height="1" fill="#000000"/><rect x="213" y="140" width="64" height="1" fill="#000000"/><rect x="320" y="140" width="43" height="1" fill="#000000"/><rect x="128" y="141" width="43" height="1" fill="#000000"/><rect x="213" y="141" width="64" height="1" fill="#000000"/><rect x="320" y="141" width="43" height="1" fill="#000000"/><rect x="128" y="142" width="43" height="1" fill="#000000"/><rect x="213" y="142" width="64" height="1" fill="#000000"/><rect x="320" y="142" width="43" height="1" fill="#000000"/><rect x="128" y="143" width="43" height="1" fill="#000000"/><rect x="213" y="143" width="64" height="1" fill="#000000"/><rect x="320" y="143" width="43" height="1" fill="#000000"/><rect x="128" y="144" width="43" height="1" fill="#000000"/><rect x="213" y="144" width="64" height="1" fill="#000000"/><rect x="320" y="144" width="43" height="1" fill="#000000"/><rect x="128" y="145" width="43" height="1" fill="#000000"/><rect x="213" y="145" width="64" height="1" fill="#000000"/><rect x="320" y="145" width="43" height="1" fill="#000000"/><rect x="128" y="146" width="43" height="1" fill="#000000"/><rect x="213" y="146" width="64" height="1" fill="#000000"/><rect x="320" y="146" width="43" height="1" fill="#000000"/><rect x="128" y="147" width="43" height="1" fill="#000000"/><rect x="213" y="147" width="64" height="1" fill="#000000"/><rect x="320" y="147" width="43" height="1" fill="#000000"/><rect x="128" y="148" width="43" height="1" fill="#000000"/><rect x="213" y="148" width="64" height="1" fill="#000000"/><rect x="320" y="148" width="43" height="1" fill="#000000"/><rect x="128" y="149" width="21" height="1" fill="#000000"/><rect x="235" y="149" width="21" height="1" fill="#000000"/><rect x="341" y="149" width="22" height="1" fill="#000000"/><rect x="128" y="150" width="21" height="1" fill="#000000"/><rect x="235" y="150" width="21" height="1" fill="#000000"/><rect x="341" y="150" width="22" height="1" fill="#000000"/><rect x="128" y="151" width="21" height="1" fill="#000000"/><rect x="235" y="151" width="21" height="1" fill="#000000"/><rect x="341" y="151" width="22" height="1" fill="#000000"/><rect x="128" y="152" width="21" height="1" fill="#000000"/><rect x="235" y="152" width="21" height="1" fill="#000000"/><rect x="341" y="152" width="22" height="1" fill="#000000"/><rect x="128" y="153" width="21" height="1" fill="#000000"/><rect x="235" y="153" width="21" height="1" fill="#000000"/><rect x="341" y="153" width="22" height="1" fill="#000000"/><rect x="128" y="154" width="21" height="1" fill="#000000"/><rect x="235" y="154" width="21" height="1" fill="#000000"/><rect x="341" y="154" width="22" height="1" fill="#000000"/><rect x="128" y="155" width="21" height="1" fill="#000000"/><rect x="235" y="155" width="21" height="1" fill="#000000"/><rect x="341" y="155" width="22" height="1" fill="#000000"/><rect x="128" y="156" width="21" height="1" fill="#000000"/><rect x="235" y="156" width="21" height="1" fill="#000000"/><rect x="341" y="156" width="22" height="1" fill="#000000"/><rect x="128" y="157" width="21" height="1" fill="#000000"/><rect x="235" y="157" width="21" height="1" fill="#000000"/><rect x="341" y="157" width="22" height="1" fill="#000000"/><rect x="128" y="158" width="21" height="1" fill="#000000"/><rect x="235" y="158" width="21" height="1" fill="#000000"/><rect x="341" y="158" width="22" height="1" fill="#000000"/><rect x="128" y="159" width="21" height="1" fill="#000000"/><rect x="235" y="159" width="21" height="1" fill="#000000"/><rect x="341" y="159" width="22" height="1" fill="#000000"/><rect x="128" y="160" width="21" height="1" fill="#000000"/><rect x="235" y="160" width="21" height="1" fill="#000000"/><rect x="341" y="160" width="22" height="1" fill="#000000"/><rect x="128" y="161" width="21" height="1" fill="#000000"/><rect x="235" y="161" width="21" height="1" fill="#000000"/><rect x="341" y="161" width="22" height="1" fill="#000000"/><rect x="128" y="162" width="21" height="1" fill="#000000"/><rect x="235" y="162" width="21" height="1" fill="#000000"/><rect x="341" y="162" width="22" height="1" fill="#000000"/><rect x="128" y="163" width="21" height="1" fill="#000000"/><rect x="235" y="163" width="21" height="1" fill="#000000"/><rect x="341" y="163" width="22" height="1" fill="#000000"/><rect x="128" y="164" width="21" height="1" fill="#000000"/><rect x="235" y="164" width="21" height="1" fill="#000000"/><rect x="341" y="164" width="22" height="1" fill="#000000"/><rect x="128" y="165" width="21" height="1" fill="#000000"/><rect x="235" y="165" width="21" height="1" fill="#000000"/><rect x="341" y="165" width="22" height="1" fill="#000000"/><rect x="128" y="166" width="21" height="1" fill="#000000"/><rect x="235" y="166" width="21" height="1" fill="#000000"/><rect x="341" y="166" width="22" height="1" fill="#000000"/><rect x="128" y="167" width="21" height="1" fill="#000000"/><rect x="235" y="167" width="21" height="1" fill="#000000"/><rect x="341" y="167" width="22" height="1" fill="#000000"/><rect x="128" y="168" width="21" height="1" fill="#000000"/><rect x="235" y="168" width="21" height="1" fill="#000000"/><rect x="341" y="168" width="22" height="1" fill="#000000"/><rect x="128" y="169" width="21" height="1" fill="#000000"/><rect x="235" y="169" width="21" height="1" fill="#000000"/><rect x="341" y="169" width="22" height="1" fill="#000000"/><rect x="128" y="170" width="21" height="1" fill="#000000"/><rect x="235" y="170" width="21" height="1" fill="#000000"/><rect x="341" y="170" width="22" height="1" fill="#000000"/></svg>