<svg xmlns="http://www.w3.org/2000/svg" viewBox="0 0 512 512" width="512" height="512" shape-rendering="crispEdges"><rect x="213" y="64" width="64" height="1" fill="#000000"/><rect x="213" y="65" width="64" height="1" fill="#000000"/><rect x="213" y="66" width="64" height="1" fill="#000000"/><rect x="213" y="67" width="64" height="1" fill="#000000"/><rect x="213" y="68" width="64" height="1" fill="#000000"/><rect x="213" y="69" width="64" height="1" fill="#000000"/><rect x="213" y="70" width="64" height="1" fill="#000000"/><rect x="213" y="71" width="64" height="1" fill="#000000"/><rect x="213" y="72" width="64" height="1" fill="#000000"/><rect x="213" y="73" width="64" height="1" fill="#000000"/><rect x="213" y="74" width="64" height="1" fill="#000000"/><rect x="213" y="75" width="64" height="1" fill="#000000"/><rect x="213" y="76" width="64" height="1" fill="#000000"/><rect x="213" y="77" width="64" height="1" fill="#000000"/><rect x="213" y="78" width="64" height="1" fill="#000000"/><rect x="213" y="79" width="64" height="1" fill="#000000"/><rect x="213" y="80" width="64" height="1" fill="#000000"/><rect x="213" y="81" width="64" height="1" fill="#000000"/><rect x="213" y="82" width="64" height="1" fill="#000000"/><rect x="213" y="83" width="64" height="1" fill="#000000"/><rect x="213" y="84" width="64" height="1" fill="#000000"/><rect x="128" y="85" width="21" height="1" fill="#030000"/><rect x="149" y="85" width="43" height="1" fill="#000000"/><rect x="192" y="85" width="21" height="1" fill="#000102"/><rect x="213" y="85" width="43" height="1" fill="#243349"/><rect x="256" y="85" width="21" height="1" fill="#27314B"/><rect x="277" y="85" width="22" height="1" fill="#030002"/><rect x="299" y="85" width="42" height="1" fill="#000000"/><rect x="341" y="85" width="22" height="1" fill="#010000"/><rect x="128" y="86" width="21" height="1" fill="#030000"/><rect x="149" y="86" width="43" height="1" fill="#000000"/><rect x="192" y="86" width="21" height="1" fill="#000102"/><rect x="213" y="86" width="43" height="1" fill="#243349"/><rect x="256" y="86" width="21" height="1" fill="#27314B"/><rect x="277" y="86" width="22" height="1" fill="#030002"/><rect x="299" y="86" width="42" height="1" fill="#000000"/><rect x="341" y="86" width="22" height="1" fill="#010000"/><rect x="128" y="87" width="21" height="1" fill="#030000"/><rect x="149" y="87" width="43" height="1" fill="#000000"/><rect x="192" y="87" width="21" height="1" fill="#000102"/><rect x="213" y="87" width="43" height="1" fill="#243349"/><rect x="256" y="87" width="21" height="1" fill="#27314B"/><rect x="277" y="87" width="22" height="1" fill="#030002"/><rect x="299" y="87" width="42" height="1" fill="#000000"/><rect x="341" y="87" width="22" height="1" fill="#010000"/><rect x="128" y="88" width="21" height="1" fill="#030000"/><rect x="149" y="88" width="43" height="1" fill="#000000"/><rect x="192" y="88" width="21" height="1" fill="#000102"/><rect x="213" y="88" width="43" height="1" fill="#243349"/><rect x="256" y="88" width="21" height="1" fill="#27314B"/><rect x="277" y="88" width="22" height="1" fill="#030002"/><rect x="299" y="88" width="42" height="1" fill="#000000"/><rect x="341" y="88" width="22" height="1" fill="#010000"/><rect x="128" y="89" width="21" height="1" fill="#030000"/><rect x="149" y="89" width="43" height="1" fill="#000000"/><rect x="192" y="89" width="21" height="1" fill="#000102"/><rect x="213" y="89" width="43" height="1" fill="#243349"/><rect x="256" y="89" width="21" height="1" fill="#27314B"/><rect x="277" y="89" width="22" height="1" fill="#030002"/><rect x="299" y="89" width="42" height="1" fill="#000000"/><rect x="341" y="89" width="22" height="1" fill="#010000"/><rect x="128" y="90" width="21" height="1" fill="#030000"/><rect x="149" y="90" width="43" height="1" fill="#000000"/><rect x="192" y="90" width="21" height="1" fill="#000102"/><rect x="213" y="90" width="43" height="1" fill="#243349"/><rect x="256" y="90" width="21" height="1" fill="#27314B"/><rect x="277" y="90" width="22" height="1" fill="#030002"/><rect x="299" y="90" width="42" height="1" fill="#000000"/><rect x="341" y="90" width="22" height="1" fill="#010000"/><rect x="128" y="91" width="21" height="1" fill="#030000"/><rect x="149" y="91" width="43" height="1" fill="#000000"/><rect x="192" y="91" width="21" height="1" fill="#000102"/><rect x="213" y="91" width="43" height="1" fill="#243349"/><rect x="256" y="91" width="21" height="1" fill="#27314B"/><rect x="277" y="91" width="22" height="1" fill="#030002"/><rect x="299" y="91" width="42" height="1" fill="#000000"/><rect x="341" y="91" width="22" height="1" fill="#010000"/><rect x="128" y="92" width="21" height="1" fill="#030000"/><rect x="149" y="92" width="43" height="1" fill="#000000"/><rect x="192" y="92" width="21" height="1" fill="#000102"/><rect x="213" y="92" width="43" height="1" fill="#243349"/><rect x="256" y="92" width="21" height="1" fill="#27314B"/><rect x="277" y="92" width="22" height="1" fill="#030002"/><rect x="299" y="92" width="42" height="1" fill="#000000"/><rect x="341" y="92" width="22" height="1" fill="#010000"/><rect x="128" y="93" width="21" height="1" fill="#030000"/><rect x="149" y="93" width="43" height="1" fill="#000000"/><rect x="192" y="93" width="21" height="1" fill="#000102"/><rect x="213" y="93" width="43" height="1" fill="#243349"/><rect x="256" y="93" width="21" height="1" fill="#27314B"/><rect x="277" y="93" width="22" height="1" fill="#030002"/><rect x="299" y="93" width="42" height="1" fill="#000000"/><rect x="341" y="93" width="22" height="1" fill="#010000"/><rect x="128" y="94" width="21" height="1" fill="#030000"/><rect x="149" y="94" width="43" height="1" fill="#000000"/><rect x="192" y="94" width="21" height="1" fill="#000102"/><rect x="213" y="94" width="43" height="1" fill="#243349"/><rect x="256" y="94" width="21" height="1" fill="#27314B"/><rect x="277" y="94" width="22" height="1" fill="#030002"/><rect x="299" y="94" width="42" height="1" fill="#000000"/><rect x="341" y="94" width="22" height="1" fill="#010000"/><rect x="128" y="95" width="21" height="1" fill="#030000"/><rect x="149" y="95" width="43" height="1" fill="#000000"/><rect x="192" y="95" width="21" height="1" fill="#000102"/><rect x="213" y="95" width="43" height="1" fill="#243349"/><rect x="256" y="95" width="21" height="1" fill="#27314B"/><rect x="277" y="95" width="22" height="1" fill="#030002"/><rect x="299" y="95" width="42" height="1" fill="#000000"/><rect x="341" y="95" width="22" height="1" fill="#010000"/><rect x="128" y="96" width="21" height="1" fill="#030000"/><rect x="149" y="96" width="43" height="1" fill="#000000"/><rect x="192" y="96" width="21" height="1" fill="#000102"/><rect x="213" y="96" width="43" height="1" fill="#243349"/><rect x="256" y="96" width="21" height="1" fill="#27314B"/><rect x="277" y="96" width="22" height="1" fill="#030002"/><rect x="299" y="96" width="42" height="1" fill="#000000"/><rect x="341" y="96" width="22" height="1" fill="#010000"/><rect x="128" y="97" width="21" height="1" fill="#030000"/><rect x="149" y="97" width="43" height="1" fill="#000000"/><rect x="192" y="97" width="21" height="1" fill="#000102"/><rect x="213" y="97" width="43" height="1" fill="#243349"/><rect x="256" y="97" width="21" height="1" fill="#27314B"/><rect x="277" y="97" width="22" height="1" fill="#030002"/><rect x="299" y="97" width="42" height="1" fill="#000000"/><rect x="341" y="97" width="22" height="1" fill="#010000"/><rect x="128" y="98" width="21" height="1" fill="#030000"/><rect x="149" y="98" width="43" height="1" fill="#000000"/><rect x="192" y="98" width="21" height="1" fill="#000102"/><rect x="213" y="98" width="43" height="1" fill="#243349"/><rect x="256" y="98" width="21" height="1" fill="#27314B"/><rect x="277" y="98" width="22" height="1" fill="#030002"/><rect x="299" y="98" width="42" height="1" fill="#000000"/><rect x="341" y="98" width="22" height="1" fill="#010000"/><rect x="128" y="99" width="21" height="1" fill="#030000"/><rect x="149" y="99" width="43" height="1" fill="#000000"/><rect x="192" y="99" width="21" height="1" fill="#000102"/><rect x="213" y="99" width="43" height="1" fill="#243349"/><rect x="256" y="99" width="21" height="1" fill="#27314B"/><rect x="277" y="99" width="22" height="1" fill="#030002"/><rect x="299" y="99" width="42" height="1" fill="#000000"/><rect x="341" y="99" width="22" height="1" fill="#010000"/><rect x="128" y="100" width="21" height="1" fill="#030000"/><rect x="149" y="100" width="43" height="1" fill="#000000"/><rect x="192" y="100" width="21" height="1" fill="#000102"/><rect x="213" y="100" width="43" height="1" fill="#243349"/><rect x="256" y="100" width="21" height="1" fill="#27314B"/><rect x="277" y="100" width="22" height="1" fill="#030002"/><rect x="299" y="100" width="42" height="1" fill="#000000"/><rect x="341" y="100" width="22" height="1" fill="#010000"/><rect x="128" y="101" width="21" height="1" fill="#030000"/><rect x="149" y="101" width="43" height="1" fill="#000000"/><rect x="192" y="101" width="21" height="1" fill="#000102"/><rect x="213" y="101" width="43" height="1" fill="#243349"/><rect x="256" y="101" width="21" height="1" fill="#27314B"/><rect x="277" y="101" width="22" height="1" fill="#030002"/><rect x="299" y="101" width="42" height="1" fill="#000000"/><rect x="341" y="101" width="22" height="1" fill="#010000"/><rect x="128" y="102" width="21" height="1" fill="#030000"/><rect x="149" y="102" width="43" height="1" fill="#000000"/><rect x="192" y="102" width="21" height="1" fill="#000102"/><rect x="213" y="102" width="43" height="1" fill="#243349"/><rect x="256" y="102" width="21" height="1" fill="#27314B"/><rect x="277" y="102" width="22" height="1" fill="#030002"/><rect x="299" y="102" width="42" height="1" fill="#000000"/><rect x="341" y="102" width="22" height="1" fill="#010000"/><rect x="128" y="103" width="21" height="1" fill="#030000"/><rect x="149" y="103" width="43" height="1" fill="#000000"/><rect x="192" y="103" width="21" height="1" fill="#000102"/><rect x="213" y="103" width="43" height="1" fill="#243349"/><rect x="256" y="103" width="21" height="1" fill="#27314B"/><rect x="277" y="103" width="22" height="1" fill="#030002"/><rect x="299" y="103" width="42" height="1" fill="#000000"/><rect x="341" y="103" width="22" height="1" fill="#010000"/><rect x="128" y="104" width="21" height="1" fill="#030000"/><rect x="149" y="104" width="43" height="1" fill="#000000"/><rect x="192" y="104" width="21" height="1" fill="#000102"/><rect x="213" y="104" width="43" height="1" fill="#243349"/><rect x="256" y="104" width="21" height="1" fill="#27314B"/><rect x="277" y="104" width="22" height="1" fill="#030002"/><rect x="299" y="104" width="42" height="1" fill="#000000"/><rect x="341" y="104" width="22" height="1" fill="#010000"/><rect x="128" y="105" width="21" height="1" fill="#030000"/><rect x="149" y="105" width="43" height="1" fill="#000000"/><rect x="192" y="105" width="21" height="1" fill="#000102"/><rect x="213" y="105" width="43" height="1" fill="#243349"/><rect x="256" y="105" width="21" height="1" fill="#27314B"/><rect x="277" y="105" width="22" height="1" fill="#030002"/><rect x="299" y="105" width="42" height="1" fill="#000000"/><rect x="341" y="105" width="22" height="1" fill="#010000"/><rect x="128" y="106" width="21" height="1" fill="#030000"/><rect x="149" y="106" width="43" height="1" fill="#000000"/><rect x="192" y="106" width="21" height="1" fill="#000102"/><rect x="213" y="106" width="43" height="1" fill="#243349"/><rect x="256" y="106" width="21" height="1" fill="#27314B"/><rect x="277" y="106" width="22" height="1" fill="#030002"/><rect x="299" y="106" width="42" height="1" fill="#000000"/><rect x="341" y="106" width="22" height="1" fill="#010000"/><rect x="107" y="107" width="21" height="1" fill="#000103"/><rect x="128" y="107" width="107" height="1" fill="#27314B"/><rect x="235" y="107" width="21" height="1" fill="#FFD600"/><rect x="256" y="107" width="107" height="1" fill="#27314B"/><rect x="363" y="107" width="21" height="1" fill="#000000"/><rect x="107" y="108" width="21" height="1" fill="#000103"/><rect x="128" y="108" width="107" height="1" fill="#27314B"/><rect x="235" y="108" width="21" height="1" fill="#FFD600"/><rect x="256" y="108" width="107" height="1" fill="#27314B"/><rect x="363" y="108" width="21" height="1" fill="#000000"/><rect x="107" y="109" width="21" height="1" fill="#000103"/><rect x="128" y="109" width="107" height="1" fill="#27314B"/><rect x="235" y="109" width="21" height="1" fill="#FFD600"/><rect x="256" y="109" width="107" height="1" fill="#27314B"/><rect x="363" y="109" width="21" height="1" fill="#000000"/><rect x="107" y="110" width="21" height="1" fill="#000103"/><rect x="128" y="110" width="107" height="1" fill="#27314B"/><rect x="235" y="110" width="21" height="1" fill="#FFD600"/><rect x="256" y="110" width="107" height="1" fill="#27314B"/><rect x="363" y="110" width="21" height="1" fill="#000000"/><rect x="107" y="111" width="21" height="1" fill="#000103"/><rect x="128" y="111" width="107" height="1" fill="#27314B"/><rect x="235" y="111" width="21" height="1" fill="#FFD600"/><rect x="256" y="111" width="107" height="1" fill="#27314B"/><rect x="363" y="111" width="21" height="1" fill="#000000"/><rect x="107" y="112" width="21" height="1" fill="#000103"/><rect x="128" y="112" width="107" height="1" fill="#27314B"/><rect x="235" y="112" width="21" height="1" fill="#FFD600"/><rect x="256" y="112" width="107" height="1" fill="#27314B"/><rect x="363" y="112" width="21" height="1" fill="#000000"/><rect x="107" y="113" width="21" height="1" fill="#000103"/><rect x="128" y="113" width="107" height="1" fill="#27314B"/><rect x="235" y="113" width="21" height="1" fill="#FFD600"/><rect x="256" y="113" width="107" height="1" fill="#27314B"/><rect x="363" y="113" width="21" height="1" fill="#000000"/><rect x="107" y="114" width="21" height="1" fill="#000103"/><rect x="128" y="114" width="107" height="1" fill="#27314B"/><rect x="235" y="114" width="21" height="1" fill="#FFD600"/><rect x="256" y="114" width="107" height="1" fill="#27314B"/><rect x="363" y="114" width="21" height="1" fill="#000000"/><rect x="107" y="115" width="21" height="1" fill="#000103"/><rect x="128" y="115" width="107" height="1" fill="#27314B"/><rect x="235" y="115" width="21" height="1" fill="#FFD600"/><rect x="256" y="115" width="107" height="1" fill="#27314B"/><rect x="363" y="115" width="21" height="1" fill="#000000"/><rect x="107" y="116" width="21" height="1" fill="#000103"/><rect x="128" y="116" width="107" height="1" fill="#27314B"/><rect x="235" y="116" width="21" height="1" fill="#FFD600"/><rect x="256" y="116" width="107" height="1" fill="#27314B"/><rect x="363" y="116" width="21" height="1" fill="#000000"/><rect x="107" y="117" width="21" height="1" fill="#000103"/><rect x="128" y="117" width="107" height="1" fill="#27314B"/><rect x="235" y="117" width="21" height="1" fill="#FFD600"/><rect x="256" y="117" width="107" height="1" fill="#27314B"/><rect x="363" y="117" width="21" height="1" fill="#000000"/><rect x="107" y="118" width="21" height="1" fill="#000103"/><rect x="128" y="118" width="107" height="1" fill="#27314B"/><rect x="235" y="118" width="21" height="1" fill="#FFD600"/><rect x="256" y="118" width="107" height="1" fill="#27314B"/><rect x="363" y="118" width="21" height="1" fill="#000000"/><rect x="107" y="119" width="21" height="1" fill="#000103"/><rect x="128" y="119" width="107" height="1" fill="#27314B"/><rect x="235" y="119" width="21" height="1" fill="#FFD600"/><rect x="256" y="119" width="107" height="1" fill="#27314B"/><rect x="363" y="119" width="21" height="1" fill="#000000"/><rect x="107" y="120" width="21" height="1" fill="#000103"/><rect x="128" y="120" width="107" height="1" fill="#27314B"/><rect x="235" y="120" width="21" height="1" fill="#FFD600"/><rect x="256" y="120" width="107" height="1" fill="#27314B"/><rect x="363" y="120" width="21" height="1" fill="#000000"/><rect x="107" y="121" width="21" height="1" fill="#000103"/><rect x="128" y="121" width="107" height="1" fill="#27314B"/><rect x="235" y="121" width="21" height="1" fill="#FFD600"/><rect x="256" y="121" width="107" height="1" fill="#27314B"/><rect x="363" y="121" width="21" height="1" fill="#000000"/><rect x="107" y="122" width="21" height="1" fill="#000103"/><rect x="128" y="122" width="107" height="1" fill="#27314B"/><rect x="235" y="122" width="21" height="1" fill="#FFD600"/><rect x="256" y="122" width="107" height="1" fill="#27314B"/><rect x="363" y="122" width="21" height="1" fill="#000000"/><rect x="107" y="123" width="21" height="1" fill="#000103"/><rect x="128" y="123" width="107" height="1" fill="#27314B"/><rect x="235" y="123" width="21" height="1" fill="#FFD600"/><rect x="256" y="123" width="107" height="1" fill="#27314B"/><rect x="363" y="123" width="21" height="1" fill="#000000"/><rect x="107" y="124" width="21" height="1" fill="#000103"/><rect x="128" y="124" width="107" height="1" fill="#27314B"/><rect x="235" y="124" width="21" height="1" fill="#FFD600"/><rect x="256" y="124" width="107" height="1" fill="#27314B"/><rect x="363" y="124" width="21" height="1" fill="#000000"/><rect x="107" y="125" width="21" height="1" fill="#000103"/><rect x="128" y="125" width="107" height="1" fill="#27314B"/><rect x="235" y="125" width="21" height="1" fill="#FFD600"/><rect x="256" y="125" width="107" height="1" fill="#27314B"/><rect x="363" y="125" width="21" height="1" fill="#000000"/><rect x="107" y="126" width="21" height="1" fill="#000103"/><rect x="128" y="126" width="107" height="1" fill="#27314B"/><rect x="235" y="126" width="21" height="1" fill="#FFD600"/><rect x="256" y="126" width="107" height="1" fill="#27314B"/><rect x="363" y="126" width="21" height="1" fill="#000000"/><rect x="107" y="127" width="21" height="1" fill="#000103"/><rect x="128" y="127" width="107" height="1" fill="#27314B"/><rect x="235" y="127" width="21" height="1" fill="#FFD600"/><rect x="256" y="127" width="107" height="1" fill="#27314B"/><rect x="363" y="127" width="21" height="1" fill="#000000"/><rect x="107" y="128" width="21" height="1" fill="#010000"/><rect x="128" y="128" width="235" height="1" fill="#27314B"/><rect x="363" y="128" width="21" height="1" fill="#000000"/><rect x="107" y="129" width="21" height="1" fill="#010000"/><rect x="128" y="129" width="235" height="1" fill="#27314B"/><rect x="363" y="129" width="21" height="1" fill="#000000"/><rect x="107" y="130" width="21" height="1" fill="#010000"/><rect x="128" y="130" width="235" height="1" fill="#27314B"/><rect x="363" y="130" width="21" height="1" fill="#000000"/><rect x="107" y="131" width="21" height="1" fill="#010000"/><rect x="128" y="131" width="235" height="1" fill="#27314B"/><rect x="363" y="131" width="21" height="1" fill="#000000"/><rect x="107" y="132" width="21" height="1" fill="#010000"/><rect x="128" y="132" width="235" height="1" fill="#27314B"/><rect x="363" y="132" width="21" height="1" fill="#000000"/><rect x="107" y="133" width="21" height="1" fill="#010000"/><rect x="128" y="133" width="235" height="1" fill="#27314B"/><rect x="363" y="133" width="21" height="1" fill="#000000"/><rect x="107" y="134" width="21" height="1" fill="#010000"/><rect x="128" y="134" width="235" height="1" fill="#27314B"/><rect x="363" y="134" width="21" height="1" fill="#000000"/><rect x="107" y="135" width="21" height="1" fill="#010000"/><rect x="128" y="135" width="235" height="1" fill="#27314B"/><rect x="363" y="135" width="21" height="1" fill="#000000"/><rect x="107" y="136" width="21" height="1" fill="#010000"/><rect x="128" y="136" width="235" height="1" fill="#27314B"/><rect x="363" y="136" width="21" height="1" fill="#000000"/><rect x="107" y="137" width="21" height="1" fill="#010000"/><rect x="128" y="137" width="235" height="1" fill="#27314B"/><rect x="363" y="137" width="21" height="1" fill="#000000"/><rect x="107" y="138" width="21" height="1" fill="#010000"/><rect x="128" y="138" width="235" height="1" fill="#27314B"/><rect x="363" y="138" width="21" height="1" fill="#000000"/><rect x="107" y="139" width="21" height="1" fill="#010000"/><rect x="128" y="139" width="235" height="1" fill="#27314B"/><rect x="363" y="139" width="21" height="1" fill="#000000"/><rect x="107" y="140" width="21" height="1" fill="#010000"/><rect x="128" y="140" width="235" height="1" fill="#27314B"/><rect x="363" y="140" width="21" height="1" fill="#000000"/><rect x="107" y="141" width="21" height="1" fill="#010000"/><rect x="128" y="141" width="235" height="1" fill="#27314B"/><rect x="363" y="141" width="21" height="1" fill="#000000"/><rect x="107" y="142" width="21" height="1" fill="#010000"/><rect x="128" y="142" width="235" height="1" fill="#27314B"/><rect x="363" y="142" width="21" height="1" fill="#000000"/><rect x="107" y="143" width="21" height="1" fill="#010000"/><rect x="128" y="143" width="235" height="1" fill="#27314B"/><rect x="363" y="143" width="21" height="1" fill="#000000"/><rect x="107" y="144" width="21" height="1" fill="#010000"/><rect x="128" y="144" width="235" height="1" fill="#27314B"/><rect x="363" y="144" width="21" height="1" fill="#000000"/><rect x="107" y="145" width="21" height="1" fill="#010000"/><rect x="128" y="145" width="235" height="1" fill="#27314B"/><rect x="363" y="145" width="21" height="1" fill="#000000"/><rect x="107" y="146" width="21" height="1" fill="#010000"/><rect x="128" y="146" width="235" height="1" fill="#27314B"/><rect x="363" y="146" width="21" height="1" fill="#000000"/><rect x="107" y="147" width="21" height="1" fill="#010000"/><rect x="128" y="147" width="235" height="1" fill="#27314B"/><rect x="363" y="147" width="21" height="1" fill="#000000"/><rect x="107" y="148" width="21" height="1" fill="#010000"/><rect x="128" y="148" width="235" height="1" fill="#27314B"/><rect x="363" y="148" width="21" height="1" fill="#000000"/><rect x="128" y="149" width="21" height="1" fill="#000000"/><rect x="149" y="149" width="22" height="1" fill="#FFFFFF"/><rect x="171" y="149" width="21" height="1" fill="#000000"/><rect x="192" y="149" width="21" height="1" fill="#FFFFFF"/><rect x="213" y="149" width="22" height="1" fill="#000000"/><rect x="235" y="149" width="21" height="1" fill="#FFFFFF"/><rect x="256" y="149" width="21" height="1" fill="#000000"/><rect x="277" y="149" width="22" height="1" fill="#FFFFFF"/><rect x="299" y="149" width="21" height="1" fill="#000000"/><rect x="320" y="149" width="21" height="1" fill="#FFFFFF"/><rect x="341" y="149" width="22" height="1" fill="#000103"/><rect x="128" y="150" width="21" height="1" fill="#000000"/><rect x="149" y="150" width="22" height="1" fill="#FFFFFF"/><rect x="171" y="150" width="21" height="1" fill="#000000"/><rect x="192" y="150" width="21" height="1" fill="#FFFFFF"/><rect x="213" y="150" width="22" height="1" fill="#000000"/><rect x="235" y="150" width="21" height="1" fill="#FFFFFF"/><rect x="256" y="150" width="21" height="1" fill="#000000"/><rect x="277" y="150" width="22" height="1" fill="#FFFFFF"/><rect x="299" y="150" width="21" height="1" fill="#000000"/><rect x="320" y="150" width="21" height="1" fill="#FFFFFF"/><rect x="341" y="150" width="22" height="1" fill="#000103"/><rect x="128" y="151" width="21" height="1" fill="#000000"/><rect x="149" y="151" width="22" height="1" fill="#FFFFFF"/><rect x="171" y="151" width="21" height="1" fill="#000000"/><rect x="192" y="151" width="21" height="1" fill="#FFFFFF"/><rect x="213" y="151" width="22" height="1" fill="#000000"/><rect x="235" y="151" width="21" height="1" fill="#FFFFFF"/><rect x="256" y="151" width="21" height="1" fill="#000000"/><rect x="277" y="151" width="22" height="1" fill="#FFFFFF"/><rect x="299" y="151" width="21" height="1" fill="#000000"/><rect x="320" y="151" width="21" height="1" fill="#FFFFFF"/><rect x="341" y="151" width="22" height="1" fill="#000103"/><rect x="128" y="152" width="21" height="1" fill="#000000"/><rect x="149" y="152" width="22" height="1" fill="#FFFFFF"/><rect x="171" y="152" width="21" height="1" fill="#000000"/><rect x="192" y="152" width="21" height="1" fill="#FFFFFF"/><rect x="213" y="152" width="22" height="1" fill="#000000"/><rect x="235" y="152" width="21" height="1" fill="#FFFFFF"/><rect x="256" y="152" width="21" height="1" fill="#000000"/><rect x="277" y="152" width="22" height="1" fill="#FFFFFF"/><rect x="299" y="152" width="21" height="1" fill="#000000"/><rect x="320" y="152" width="21" height="1" fill="#FFFFFF"/><rect x="341" y="152" width="22" height="1" fill="#000103"/><rect x="128" y="153" width="21" height="1" fill="#000000"/><rect x="149" y="153" width="22" height="1" fill="#FFFFFF"/><rect x="171" y="153" width="21" height="1" fill="#000000"/><rect x="192" y="153" width="21" height="1" fill="#FFFFFF"/><rect x="213" y="153" width="22" height="1" fill="#000000"/><rect x="235" y="153" width="21" height="1" fill="#FFFFFF"/><rect x="256" y="153" width="21" height="1" fill="#000000"/><rect x="277" y="153" width="22" height="1" fill="#FFFFFF"/><rect x="299" y="153" width="21" height="1" fill="#000000"/><rect x="320" y="153" width="21" height="1" fill="#FFFFFF"/><rect x="341" y="153" width="22" height="1" fill="#000103"/><rect x="128" y="154" width="21" height="1" fill="#000000"/><rect x="149" y="154" width="22" height="1" fill="#FFFFFF"/><rect x="171" y="154" width="21" height="1" fill="#000000"/><rect x="192" y="154" width="21" height="1" fill="#FFFFFF"/><rect x="213" y="154" width="22" height="1" fill="#000000"/><rect x="235" y="154" width="21" height="1" fill="#FFFFFF"/><rect x="256" y="154" width="21" height="1" fill="#000000"/><rect x="277" y="154" width="22" height="1" fill="#FFFFFF"/><rect x="299" y="154" width="21" height="1" fill="#000000"/><rect x="320" y="154" width="21" height="1" fill="#FFFFFF"/><rect x="341" y="154" width="22" height="1" fill="#000103"/><rect x="128" y="155" width="21" height="1" fill="#000000"/><rect x="149" y="155" width="22" height="1" fill="#FFFFFF"/><rect x="171" y="155" width="21" height="1" fill="#000000"/><rect x="192" y="155" width="21" height="1" fill="#FFFFFF"/><rect x="213" y="155" width="22" height="1" fill="#000000"/><rect x="235" y="155" width="21" height="1" fill="#FFFFFF"/><rect x="256" y="155" width="21" height="1" fill="#000000"/><rect x="277" y="155" width="22" height="1" fill="#FFFFFF"/><rect x="299" y="155" width="21" height="1" fill="#000000"/><rect x="320" y="155" width="21" height="1" fill="#FFFFFF"/><rect x="341" y="155" width="22" height="1" fill="#000103"/><rect x="128" y="156" width="21" height="1" fill="#000000"/><rect x="149" y="156" width="22" height="1" fill="#FFFFFF"/><rect x="171" y="156" width="21" height="1" fill="#000000"/><rect x="192" y="156" width="21" height="1" fill="#FFFFFF"/><rect x="213" y="156" width="22" height="1" fill="#000000"/><rect x="235" y="156" width="21" height="1" fill="#FFFFFF"/><rect x="256" y="156" width="21" height="1" fill="#000000"/><rect x="277" y="156" width="22" height="1" fill="#FFFFFF"/><rect x="299" y="156" width="21" height="1" fill="#000000"/><rect x="320" y="156" width="21" height="1" fill="#FFFFFF"/><rect x="341" y="156" width="22" height="1" fill="#000103"/><rect x="128" y="157" width="21" height="1" fill="#000000"/><rect x="149" y="157" width="22" height="1" fill="#FFFFFF"/><rect x="171" y="157" width="21" height="1" fill="#000000"/><rect x="192" y="157" width="21" height="1" fill="#FFFFFF"/><rect x="213" y="157" width="22" height="1" fill="#000000"/><rect x="235" y="157" width="21" height="1" fill="#FFFFFF"/><rect x="256" y="157" width="21" height="1" fill="#000000"/><rect x="277" y="157" width="22" height="1" fill="#FFFFFF"/><rect x="299" y="157" width="21" height="1" fill="#000000"/><rect x="320" y="157" width="21" height="1" fill="#FFFFFF"/><rect x="341" y="157" width="22" height="1" fill="#000103"/><rect x="128" y="158" width="21" height="1" fill="#000000"/><rect x="149" y="158" width="22" height="1" fill="#FFFFFF"/><rect x="171" y="158" width="21" height="1" fill="#000000"/><rect x="192" y="158" width="21" height="1" fill="#FFFFFF"/><rect x="213" y="158" width="22" height="1" fill="#000000"/><rect x="235" y="158" width="21" height="1" fill="#FFFFFF"/><rect x="256" y="158" width="21" height="1" fill="#000000"/><rect x="277" y="158" width="22" height="1" fill="#FFFFFF"/><rect x="299" y="158" width="21" height="1" fill="#000000"/><rect x="320" y="158" width="21" height="1" fill="#FFFFFF"/><rect x="341" y="158" width="22" height="1" fill="#000103"/><rect x="128" y="159" width="21" height="1" fill="#000000"/><rect x="149" y="159" width="22" height="1" fill="#FFFFFF"/><rect x="171" y="159" width="21" height="1" fill="#000000"/><rect x="192" y="159" width="21" height="1" fill="#FFFFFF"/><rect x="213" y="159" width="22" height="1" fill="#000000"/><rect x="235" y="159" width="21" height="1" fill="#FFFFFF"/><rect x="256" y="159" width="21" height="1" fill="#000000"/><rect x="277" y="159" width="22" height="1" fill="#FFFFFF"/><rect x="299" y="159" width="21" height="1" fill="#000000"/><rect x="320" y="159" width="21" height="1" fill="#FFFFFF"/><rect x="341" y="159" width="22" height="1" fill="#000103"/><rect x="128" y="160" width="21" height="1" fill="#000000"/><rect x="149" y="160" width="22" height="1" fill="#FFFFFF"/><rect x="171" y="160" width="21" height="1" fill="#000000"/><rect x="192" y="160" width="21" height="1" fill="#FFFFFF"/><rect x="213" y="160" width="22" height="1" fill="#000000"/><rect x="235" y="160" width="21" height="1" fill="#FFFFFF"/><rect x="256" y="160" width="21" height="1" fill="#000000"/><rect x="277" y="160" width="22" height="1" fill="#FFFFFF"/><rect x="299" y="160" width="21" height="1" fill="#000000"/><rect x="320" y="160" width="21" height="1" fill="#FFFFFF"/><rect x="341" y="160" width="22" height="1" fill="#000103"/><rect x="128" y="161" width="21" height="1" fill="#000000"/><rect x="149" y="161" width="22" height="1" fill="#FFFFFF"/><rect x="171" y="161" width="21" height="1" fill="#000000"/><rect x="192" y="161" width="21" height="1" fill="#FFFFFF"/><rect x="213" y="161" width="22" height="1" fill="#000000"/><rect x="235" y="161" width="21" height="1" fill="#FFFFFF"/><rect x="256" y="161" width="21" height="1" fill="#000000"/><rect x="277" y="161" width="22" height="1" fill="#FFFFFF"/><rect x="299" y="161" width="21" height="1" fill="#000000"/><rect x="320" y="161" width="21" height="1" fill="#FFFFFF"/><rect x="341" y="161" width="22" height="1" fill="#000103"/><rect x="128" y="162" width="21" height="1" fill="#000000"/><rect x="149" y="162" width="22" height="1" fill="#FFFFFF"/><rect x="171" y="162" width="21" height="1" fill="#000000"/><rect x="192" y="162" width="21" height="1" fill="#FFFFFF"/><rect x="213" y="162" width="22" height="1" fill="#000000"/><rect x="235" y="162" width="21" height="1" fill="#FFFFFF"/><rect x="256" y="162" width="21" height="1" fill="#000000"/><rect x="277" y="162" width="22" height="1" fill="#FFFFFF"/><rect x="299" y="162" width="21" height="1" fill="#000000"/><rect x="320" y="162" width="21" height="1" fill="#FFFFFF"/><rect x="341" y="162" width="22" height="1" fill="#000103"/><rect x="128" y="163" width="21" height="1" fill="#000000"/><rect x="149" y="163" width="22" height="1" fill="#FFFFFF"/><rect x="171" y="163" width="21" height="1" fill="#000000"/><rect x="192" y="163" width="21" height="1" fill="#FFFFFF"/><rect x="213" y="163" width="22" height="1" fill="#000000"/><rect x="235" y="163" width="21" height="1" fill="#FFFFFF"/><rect x="256" y="163" width="21" height="1" fill="#000000"/><rect x="277" y="163" width="22" height="1" fill="#FFFFFF"/><rect x="299" y="163" width="21" height="1" fill="#000000"/><rect x="320" y="163" width="21" height="1" fill="#FFFFFF"/><rect x="341" y="163" width="22" height="1" fill="#000103"/><rect x="128" y="164" width="21" height="1" fill="#000000"/><rect x="149" y="164" width="22" height="1" fill="#FFFFFF"/><rect x="171" y="164" width="21" height="1" fill="#000000"/><rect x="192" y="164" width="21" height="1" fill="#FFFFFF"/><rect x="213" y="164" width="22" height="1" fill="#000000"/><rect x="235" y="164" width="21" height="1" fill="#FFFFFF"/><rect x="256" y="164" width="21" height="1" fill="#000000"/><rect x="277" y="164" width="22" height="1" fill="#FFFFFF"/><rect x="299" y="164" width="21" height="1" fill="#000000"/><rect x="320" y="164" width="21" height="1" fill="#FFFFFF"/><rect x="341" y="164" width="22" height="1" fill="#000103"/><rect x="128" y="165" width="21" height="1" fill="#000000"/><rect x="149" y="165" width="22" height="1" fill="#FFFFFF"/><rect x="171" y="165" width="21" height="1" fill="#000000"/><rect x="192" y="165" width="21" height="1" fill="#FFFFFF"/><rect x="213" y="165" width="22" height="1" fill="#000000"/><rect x="235" y="165" width="21" height="1" fill="#FFFFFF"/><rect x="256" y="165" width="21" height="1" fill="#000000"/><rect x="277" y="165" width="22" height="1" fill="#FFFFFF"/><rect x="299" y="165" width="21" height="1" fill="#000000"/><rect x="320" y="165" width="21" height="1" fill="#FFFFFF"/><rect x="341" y="165" width="22" height="1" fill="#000103"/><rect x="128" y="166" width="21" height="1" fill="#000000"/><rect x="149" y="166" width="22" height="1" fill="#FFFFFF"/><rect x="171" y="166" width="21" height="1" fill="#000000"/><rect x="192" y="166" width="21" height="1" fill="#FFFFFF"/><rect x="213" y="166" width="22" height="1" fill="#000000"/><rect x="235" y="166" width="21" height="1" fill="#FFFFFF"/><rect x="256" y="166" width="21" height="1" fill="#000000"/><rect x="277" y="166" width="22" height="1" fill="#FFFFFF"/><rect x="299" y="166" width="21" height="1" fill="#000000"/><rect x="320" y="166" width="21" height="1" fill="#FFFFFF"/><rect x="341" y="166" width="22" height="1" fill="#000103"/><rect x="128" y="167" width="21" height="1" fill="#000000"/><rect x="149" y="167" width="22" height="1" fill="#FFFFFF"/><rect x="171" y="167" width="21" height="1" fill="#000000"/><rect x="192" y="167" width="21" height="1" fill="#FFFFFF"/><rect x="213" y="167" width="22" height="1" fill="#000000"/><rect x="235" y="167" width="21" height="1" fill="#FFFFFF"/><rect x="256" y="167" width="21" height="1" fill="#000000"/><rect x="277" y="167" width="22" height="1" fill="#FFFFFF"/><rect x="299" y="167" width="21" height="1" fill="#000000"/><rect x="320" y="167" width="21" height="1" fill="#FFFFFF"/><rect x="341" y="167" width="22" height="1" fill="#000103"/><rect x="128" y="168" width="21" height="1" fill="#000000"/><rect x="149" y="168" width="22" height="1" fill="#FFFFFF"/><rect x="171" y="168" width="21" height="1" fill="#000000"/><rect x="192" y="168" width="21" height="1" fill="#FFFFFF"/><rect x="213" y="168" width="22" height="1" fill="#000000"/><rect x="235" y="168" width="21" height="1" fill="#FFFFFF"/><rect x="256" y="168" width="21" height="1" fill="#000000"/><rect x="277" y="168" width="22" height="1" fill="#FFFFFF"/><rect x="299" y="168" width="21" height="1" fill="#000000"/><rect x="320" y="168" width="21" height="1" fill="#FFFFFF"/><rect x="341" y="168" width="22" height="1" fill="#000103"/><rect x="128" y="169" width="21" height="1" fill="#000000"/><rect x="149" y="169" width="22" height="1" fill="#FFFFFF"/><rect x="171" y="169" width="21" height="1" fill="#000000"/><rect x="192" y="169" width="21" height="1" fill="#FFFFFF"/><rect x="213" y="169" width="22" height="1" fill="#000000"/><rect x="235" y="169" width="21" height="1" fill="#FFFFFF"/><rect x="256" y="169" width="21" height="1" fill="#000000"/><rect x="277" y="169" width="22" height="1" fill="#FFFFFF"/><rect x="299" y="169" width="21" height="1" fill="#000000"/><rect x="320" y="169" width="21" height="1" fill="#FFFFFF"/><rect x="341" y="169" width="22" height="1" fill="#000103"/><rect x="128" y="170" width="21" height="1" fill="#000000"/><rect x="149" y="170" width="22" height="1" fill="#FFFFFF"/><rect x="171" y="170" width="21" height="1" fill="#000000"/><rect x="192" y="170" width="21" height="1" fill="#FFFFFF"/><rect x="213" y="170" width="22" height="1" fill="#000000"/><rect x="235" y="170" width="21" height="1" fill="#FFFFFF"/><rect x="256" y="170" width="21" height="1" fill="#000000"/><rect x="277" y="170" width="22" height="1" fill="#FFFFFF"/><rect x="299" y="170" width="21" height="1" fill="#000000"/><rect x="320" y="170" width="21" height="1" fill="#FFFFFF"/><rect x="341" y="170" width="22" height="1" fill="#000103"/><rect x="128" y="171" width="64" height="1" fill="#000000"/><rect x="192" y="171" width="171" height="1" fill="#27314B"/><rect x="363" y="171" width="21" height="1" fill="#010000"/><rect x="128" y="172" width="64" height="1" fill="#000000"/><rect x="192" y="172" width="171" height="1" fill="#27314B"/><rect x="363" y="172" width="21" height="1" fill="#010000"/><rect x="128" y="173" width="64" height="1" fill="#000000"/><rect x="192" y="173" width="171" height="1" fill="#27314B"/><rect x="363" y="173" width="21" height="1" fill="#010000"/><rect x="128" y="174" width="64" height="1" fill="#000000"/><rect x="192" y="174" width="171" height="1" fill="#27314B"/><rect x="363" y="174" width="21" height="1" fill="#010000"/><rect x="128" y="175" width="64" height="1" fill="#000000"/><rect x="192" y="175" width="171" height="1" fill="#27314B"/><rect x="363" y="175" width="21" height="1" fill="#010000"/><rect x="128" y="176" width="64" height="1" fill="#000000"/><rect x="192" y="176" width="171" height="1" fill="#27314B"/><rect x="363" y="176" width="21" height="1" fill="#010000"/><rect x="128" y="177" width="64" height="1" fill="#000000"/><rect x="192" y="177" width="171" height="1" fill="#27314B"/><rect x="363" y="177" width="21" height="1" fill="#010000"/><rect x="128" y="178" width="64" height="1" fill="#000000"/><rect x="192" y="178" width="171" height="1" fill="#27314B"/><rect x="363" y="178" width="21" height="1" fill="#010000"/><rect x="128" y="179" width="64" height="1" fill="#000000"/><rect x="192" y="179" width="171" height="1" fill="#27314B"/><rect x="363" y="179" width="21" height="1" fill="#010000"/><rect x="128" y="180" width="64" height="1" fill="#000000"/><rect x="192" y="180" width="171" height="1" fill="#27314B"/><rect x="363" y="180" width="21" height="1" fill="#010000"/><rect x="128" y="181" width="64" height="1" fill="#000000"/><rect x="192" y="181" width="171" height="1" fill="#27314B"/><rect x="363" y="181" width="21" height="1" fill="#010000"/><rect x="128" y="182" width="64" height="1" fill="#000000"/><rect x="192" y="182" width="171" height="1" fill="#27314B"/><rect x="363" y="182" width="21" height="1" fill="#010000"/><rect x="128" y="183" width="64" height="1" fill="#000000"/><rect x="192" y="183" width="171" height="1" fill="#27314B"/><rect x="363" y="183" width="21" height="1" fill="#010000"/><rect x="128" y="184" width="64" height="1" fill="#000000"/><rect x="192" y="184" width="171" height="1" fill="#27314B"/><rect x="363" y="184" width="21" height="1" fill="#010000"/><rect x="128" y="185" width="64" height="1" fill="#000000"/><rect x="192" y="185" width="171" height="1" fill="#27314B"/><rect x="363" y="185" width="21" height="1" fill="#010000"/><rect x="128" y="186" width="64" height="1" fill="#000000"/><rect x="192" y="186" width="171" height="1" fill="#27314B"/><rect x="363" y="186" width="21" height="1" fill="#010000"/><rect x="128" y="187" width="64" height="1" fill="#000000"/><rect x="192" y="187" width="171" height="1" fill="#27314B"/><rect x="363" y="187" width="21" height="1" fill="#010000"/><rect x="128" y="188" width="64" height="1" fill="#000000"/><rect x="192" y="188" width="171" height="1" fill="#27314B"/><rect x="363" y="188" width="21" height="1" fill="#010000"/><rect x="128" y="189" width="64" height="1" fill="#000000"/><rect x="192" y="189" width="171" height="1" fill="#27314B"/><rect x="363" y="189" width="21" height="1" fill="#010000"/><rect x="128" y="190" width="64" height="1" fill="#000000"/><rect x="192" y="190" width="171" height="1" fill="#27314B"/><rect x="363" y="190" width="21" height="1" fill="#010000"/><rect x="128" y="191" width="64" height="1" fill="#000000"/><rect x="192" y="191" width="171" height="1" fill="#27314B"/><rect x="363" y="191" width="21" height="1" fill="#010000"/><rect x="192" y="192" width="43" height="1" fill="#000000"/><rect x="235" y="192" width="21" height="1" fill="#000002"/><rect x="256" y="192" width="21" height="1" fill="#000100"/><rect x="277" y="192" width="22" height="1" fill="#000200"/><rect x="299" y="192" width="64" height="1" fill="#000000"/><rect x="363" y="192" width="21" height="1" fill="#000102"/><rect x="192" y="193" width="43" height="1" fill="#000000"/><rect x="235" y="193" width="21" height="1" fill="#000002"/><rect x="256" y="193" width="21" height="1" fill="#000100"/><rect x="277" y="193" width="22" height="1" fill="#000200"/><rect x="299" y="193" width="64" height="1" fill="#000000"/><rect x="363" y="193" width="21" height="1" fill="#000102"/><rect x="192" y="194" width="43" height="1" fill="#000000"/><rect x="235" y="194" width="21" height="1" fill="#000002"/><rect x="256" y="194" width="21" height="1" fill="#000100"/><rect x="277" y="194" width="22" height="1" fill="#000200"/><rect x="299" y="194" width="64" height="1" fill="#000000"/><rect x="363" y="194" width="21" height="1" fill="#000102"/><rect x="192" y="195" width="43" height="1" fill="#000000"/><rect x="235" y="195" width="21" height="1" fill="#000002"/><rect x="256" y="195" width="21" height="1" fill="#000100"/><rect x="277" y="195" width="22" height="1" fill="#000200"/><rect x="299" y="195" width="64" height="1" fill="#000000"/><rect x="363" y="195" width="21" height="1" fill="#000102"/><rect x="192" y="196" width="43" height="1" fill="#000000"/><rect x="235" y="196" width="21" height="1" fill="#000002"/><rect x="256" y="196" width="21" height="1" fill="#000100"/><rect x="277" y="196" width="22" height="1" fill="#000200"/><rect x="299" y="196" width="64" height="1" fill="#000000"/><rect x="363" y="196" width="21" height="1" fill="#000102"/><rect x="192" y="197" width="43" height="1" fill="#000000"/><rect x="235" y="197" width="21" height="1" fill="#000002"/><rect x="256" y="197" width="21" height="1" fill="#000100"/><rect x="277" y="197" width="22" height="1" fill="#000200"/><rect x="299" y="197" width="64" height="1" fill="#000000"/><rect x="363" y="197" width="21" height="1" fill="#000102"/><rect x="192" y="198" width="43" height="1" fill="#000000"/><rect x="235" y="198" width="21" height="1" fill="#000002"/><rect x="256" y="198" width="21" height="1" fill="#000100"/><rect x="277" y="198" width="22" height="1" fill="#000200"/><rect x="299" y="198" width="64" height="1" fill="#000000"/><rect x="363" y="198" width="21" height="1" fill="#000102"/><rect x="192" y="199" width="43" height="1" fill="#000000"/><rect x="235" y="199" width="21" height="1" fill="#000002"/><rect x="256" y="199" width="21" height="1" fill="#000100"/><rect x="277" y="199" width="22" height="1" fill="#000200"/><rect x="299" y="199" width="64" height="1" fill="#000000"/><rect x="363" y="199" width="21" height="1" fill="#000102"/><rect x="192" y="200" width="43" height="1" fill="#000000"/><rect x="235" y="200" width="21" height="1" fill="#000002"/><rect x="256" y="200" width="21" height="1" fill="#000100"/><rect x="277" y="200" width="22" height="1" fill="#000200"/><rect x="299" y="200" width="64" height="1" fill="#000000"/><rect x="363" y="200" width="21" height="1" fill="#000102"/><rect x="192" y="201" width="43" height="1" fill="#000000"/><rect x="235" y="201" width="21" height="1" fill="#000002"/><rect x="256" y="201" width="21" height="1" fill="#000100"/><rect x="277" y="201" width="22" height="1" fill="#000200"/><rect x="299" y="201" width="64" height="1" fill="#000000"/><rect x="363" y="201" width="21" height="1" fill="#000102"/><rect x="192" y="202" width="43" height="1" fill="#000000"/><rect x="235" y="202" width="21" height="1" fill="#000002"/><rect x="256" y="202" width="21" height="1" fill="#000100"/><rect x="277" y="202" width="22" height="1" fill="#000200"/><rect x="299" y="202" width="64" height="1" fill="#000000"/><rect x="363" y="202" width="21" height="1" fill="#000102"/><rect x="192" y="203" width="43" height="1" fill="#000000"/><rect x="235" y="203" width="21" height="1" fill="#000002"/><rect x="256" y="203" width="21" height="1" fill="#000100"/><rect x="277" y="203" width="22" height="1" fill="#000200"/><rect x="299" y="203" width="64" height="1" fill="#000000"/><rect x="363" y="203" width="21" height="1" fill="#000102"/><rect x="192" y="204" width="43" height="1" fill="#000000"/><rect x="235" y="204" width="21" height="1" fill="#000002"/><rect x="256" y="204" width="21" height="1" fill="#000100"/><rect x="277" y="204" width="22" height="1" fill="#000200"/><rect x="299" y="204" width="64" height="1" fill="#000000"/><rect x="363" y="204" width="21" height="1" fill="#000102"/><rect x="192" y="205" width="43" height="1" fill="#000000"/><rect x="235" y="205" width="21" height="1" fill="#000002"/><rect x="256" y="205" width="21" height="1" fill="#000100"/><rect x="277" y="205" width="22" height="1" fill="#000200"/><rect x="299" y="205" width="64" height="1" fill="#000000"/><rect x="363" y="205" width="21" height="1" fill="#000102"/><rect x="192" y="206" width="43" height="1" fill="#000000"/><rect x="235" y="206" width="21" height="1" fill="#000002"/><rect x="256" y="206" width="21" height="1" fill="#000100"/><rect x="277" y="206" width="22" height="1" fill="#000200"/><rect x="299" y="206" width="64" height="1" fill="#000000"/><rect x="363" y="206" width="21" height="1" fill="#000102"/><rect x="192" y="207" width="43" height="1" fill="#000000"/><rect x="235" y="207" width="21" height="1" fill="#000002"/><rect x="256" y="207" width="21" height="1" fill="#000100"/><rect x="277" y="207" width="22" height="1" fill="#000200"/><rect x="299" y="207" width="64" height="1" fill="#000000"/><rect x="363" y="207" width="21" height="1" fill="#000102"/><rect x="192" y="208" width="43" height="1" fill="#000000"/><rect x="235" y="208" width="21" height="1" fill="#000002"/><rect x="256" y="208" width="21" height="1" fill="#000100"/><rect x="277" y="208" width="22" height="1" fill="#000200"/><rect x="299" y="208" width="64" height="1" fill="#000000"/><rect x="363" y="208" width="21" height="1" fill="#000102"/><rect x="192" y="209" width="43" height="1" fill="#000000"/><rect x="235" y="209" width="21" height="1" fill="#000002"/><rect x="256" y="209" width="21" height="1" fill="#000100"/><rect x="277" y="209" width="22" height="1" fill="#000200"/><rect x="299" y="209" width="64" height="1" fill="#000000"/><rect x="363" y="209" width="21" height="1" fill="#000102"/><rect x="192" y="210" width="43" height="1" fill="#000000"/><rect x="235" y="210" width="21" height="1" fill="#000002"/><rect x="256" y="210" width="21" height="1" fill="#000100"/><rect x="277" y="210" width="22" height="1" fill="#000200"/><rect x="299" y="210" width="64" height="1" fill="#000000"/><rect x="363" y="210" width="21" height="1" fill="#000102"/><rect x="192" y="211" width="43" height="1" fill="#000000"/><rect x="235" y="211" width="21" height="1" fill="#000002"/><rect x="256" y="211" width="21" height="1" fill="#000100"/><rect x="277" y="211" width="22" height="1" fill="#000200"/><rect x="299" y="211" width="64" height="1" fill="#000000"/><rect x="363" y="211" width="21" height="1" fill="#000102"/><rect x="192" y="212" width="43" height="1" fill="#000000"/><rect x="235" y="212" width="21" height="1" fill="#000002"/><rect x="256" y="212" width="21" height="1" fill="#000100"/><rect x="277" y="212" width="22" height="1" fill="#000200"/><rect x="299" y="212" width="64" height="1" fill="#000000"/><rect x="363" y="212" width="21" height="1" fill="#000102"/></svg>