<svg xmlns="http://www.w3.org/2000/svg" viewBox="0 0 512 512" width="512" height="512" shape-rendering="crispEdges"><rect x="192" y="64" width="21" height="1" fill="#710CC7"/><rect x="235" y="64" width="21" height="1" fill="#710CC7"/><rect x="192" y="65" width="21" height="1" fill="#710CC7"/><rect x="235" y="65" width="21" height="1" fill="#710CC7"/><rect x="192" y="66" width="21" height="1" fill="#710CC7"/><rect x="235" y="66" width="21" height="1" fill="#710CC7"/><rect x="192" y="67" width="21" height="1" fill="#710CC7"/><rect x="235" y="67" width="21" height="1" fill="#710CC7"/><rect x="192" y="68" width="21" height="1" fill="#710CC7"/><rect x="235" y="68" width="21" height="1" fill="#710CC7"/><rect x="192" y="69" width="21" height="1" fill="#710CC7"/><rect x="235" y="69" width="21" height="1" fill="#710CC7"/><rect x="192" y="70" width="21" height="1" fill="#710CC7"/><rect x="235" y="70" width="21" height="1" fill="#710CC7"/><rect x="192" y="71" width="21" height="1" fill="#710CC7"/><rect x="235" y="71" width="21" height="1" fill="#710CC7"/><rect x="192" y="72" width="21" height="1" fill="#710CC7"/><rect x="235" y="72" width="21" height="1" fill="#710CC7"/><rect x="192" y="73" width="21" height="1" fill="#710CC7"/><rect x="235" y="73" width="21" height="1" fill="#710CC7"/><rect x="192" y="74" width="21" height="1" fill="#710CC7"/><rect x="235" y="74" width="21" height="1" fill="#710CC7"/><rect x="192" y="75" width="21" height="1" fill="#710CC7"/><rect x="235" y="75" width="21" height="1" fill="#710CC7"/><rect x="192" y="76" width="21" height="1" fill="#710CC7"/><rect x="235" y="76" width="21" height="1" fill="#710CC7"/><rect x="192" y="77" width="21" height="1" fill="#710CC7"/><rect x="235" y="77" width="21" height="1" fill="#710CC7"/><rect x="192" y="78" width="21" height="1" fill="#710CC7"/><rect x="235" y="78" width="21" height="1" fill="#710CC7"/><rect x="192" y="79" width="21" height="1" fill="#710CC7"/><rect x="235" y="79" width="21" height="1" fill="#710CC7"/><rect x="192" y="80" width="21" height="1" fill="#710CC7"/><rect x="235" y="80" width="21" height="1" fill="#710CC7"/><rect x="192" y="81" width="21" height="1" fill="#710CC7"/><rect x="235" y="81" width="21" height="1" fill="#710CC7"/><rect x="192" y="82" width="21" height="1" fill="#710CC7"/><rect x="235" y="82" width="21" height="1" fill="#710CC7"/><rect x="192" y="83" width="21" height="1" fill="#710CC7"/><rect x="235" y="83" width="21" height="1" fill="#710CC7"/><rect x="192" y="84" width="21" height="1" fill="#710CC7"/><rect x="235" y="84" width="21" height="1" fill="#710CC7"/><rect x="128" y="85" width="21" height="1" fill="#710CC7"/><rect x="171" y="85" width="128" height="1" fill="#710CC7"/><rect x="128" y="86" width="21" height="1" fill="#710CC7"/><rect x="171" y="86" width="128" height="1" fill="#710CC7"/><rect x="128" y="87" width="21" height="1" fill="#710CC7"/><rect x="171" y="87" width="128" height="1" fill="#710CC7"/><rect x="128" y="88" width="21" height="1" fill="#710CC7"/><rect x="171" y="88" width="128" height="1" fill="#710CC7"/><rect x="128" y="89" width="21" height="1" fill="#710CC7"/><rect x="171" y="89" width="128" height="1" fill="#710CC7"/><rect x="128" y="90" width="21" height="1" fill="#710CC7"/><rect x="171" y="90" width="128" height="1" fill="#710CC7"/><rect x="128" y="91" width="21" height="1" fill="#710CC7"/><rect x="171" y="91" width="128" height="1" fill="#710CC7"/><rect x="128" y="92" width="21" height="1" fill="#710CC7"/><rect x="171" y="92" width="128" height="1" fill="#710CC7"/><rect x="128" y="93" width="21" height="1" fill="#710CC7"/><rect x="171" y="93" width="128" height="1" fill="#710CC7"/><rect x="128" y="94" width="21" height="1" fill="#710CC7"/><rect x="171" y="94" width="128" height="1" fill="#710CC7"/><rect x="128" y="95" width="21" height="1" fill="#710CC7"/><rect x="171" y="95" width="128" height="1" fill="#710CC7"/><rect x="128" y="96" width="21" height="1" fill="#710CC7"/><rect x="171" y="96" width="128" height="1" fill="#710CC7"/><rect x="128" y="97" width="21" height="1" fill="#710CC7"/><rect x="171" y="97" width="128" height="1" fill="#710CC7"/><rect x="128" y="98" width="21" height="1" fill="#710CC7"/><rect x="171" y="98" width="128" height="1" fill="#710CC7"/><rect x="128" y="99" width="21" height="1" fill="#710CC7"/><rect x="171" y="99" width="128" height="1" fill="#710CC7"/><rect x="128" y="100" width="21" height="1" fill="#710CC7"/><rect x="171" y="100" width="128" height="1" fill="#710CC7"/><rect x="128" y="101" width="21" height="1" fill="#710CC7"/><rect x="171" y="101" width="128" height="1" fill="#710CC7"/><rect x="128" y="102" width="21" height="1" fill="#710CC7"/><rect x="171" y="102" width="128" height="1" fill="#710CC7"/><rect x="128" y="103" width="21" height="1" fill="#710CC7"/><rect x="171" y="103" width="128" height="1" fill="#710CC7"/><rect x="128" y="104" width="21" height="1" fill="#710CC7"/><rect x="171" y="104" width="128" height="1" fill="#710CC7"/><rect x="128" y="105" width="21" height="1" fill="#710CC7"/><rect x="171" y="105" width="128" height="1" fill="#710CC7"/><rect x="128" y="106" width="21" height="1" fill="#710CC7"/><rect x="171" y="106" width="128" height="1" fill="#710CC7"/><rect x="85" y="107" width="235" height="1" fill="#710CC7"/><rect x="85" y="108" width="235" height="1" fill="#710CC7"/><rect x="85" y="109" width="235" height="1" fill="#710CC7"/><rect x="85" y="110" width="235" height="1" fill="#710CC7"/><rect x="85" y="111" width="235" height="1" fill="#710CC7"/><rect x="85" y="112" width="235" height="1" fill="#710CC7"/><rect x="85" y="113" width="235" height="1" fill="#710CC7"/><rect x="85" y="114" width="235" height="1" fill="#710CC7"/><rect x="85" y="115" width="235" height="1" fill="#710CC7"/><rect x="85" y="116" width="235" height="1" fill="#710CC7"/><rect x="85" y="117" width="235" height="1" fill="#710CC7"/><rect x="85" y="118" width="235" height="1" fill="#710CC7"/><rect x="85" y="119" width="235" height="1" fill="#710CC7"/><rect x="85" y="120" width="235" height="1" fill="#710CC7"/><rect x="85" y="121" width="235" height="1" fill="#710CC7"/><rect x="85" y="122" width="235" height="1" fill="#710CC7"/><rect x="85" y="123" width="235" height="1" fill="#710CC7"/><rect x="85" y="124" width="235" height="1" fill="#710CC7"/><rect x="85" y="125" width="235" height="1" fill="#710CC7"/><rect x="85" y="126" width="235" height="1" fill="#710CC7"/><rect x="85" y="127" width="235" height="1" fill="#710CC7"/><rect x="107" y="128" width="234" height="1" fill="#710CC7"/><rect x="107" y="129" width="234" height="1" fill="#710CC7"/><rect x="107" y="130" width="234" height="1" fill="#710CC7"/><rect x="107" y="131" width="234" height="1" fill="#710CC7"/><rect x="107" y="132" width="234" height="1" fill="#710CC7"/><rect x="107" y="133" width="234" height="1" fill="#710CC7"/><rect x="107" y="134" width="234" height="1" fill="#710CC7"/><rect x="107" y="135" width="234" height="1" fill="#710CC7"/><rect x="107" y="136" width="234" height="1" fill="#710CC7"/><rect x="107" y="137" width="234" height="1" fill="#710CC7"/><rect x="107" y="138" width="234" height="1" fill="#710CC7"/><rect x="107" y="139" width="234" height="1" fill="#710CC7"/><rect x="107" y="140" width="234" height="1" fill="#710CC7"/><rect x="107" y="141" width="234" height="1" fill="#710CC7"/><rect x="107" y="142" width="234" height="1" fill="#710CC7"/><rect x="107" y="143" width="234" height="1" fill="#710CC7"/><rect x="107" y="144" width="234" height="1" fill="#710CC7"/><rect x="107" y="145" width="234" height="1" fill="#710CC7"/><rect x="107" y="146" width="234" height="1" fill="#710CC7"/><rect x="107" y="147" width="234" height="1" fill="#710CC7"/><rect x="107" y="148" width="234" height="1" fill="#710CC7"/><rect x="64" y="149" width="299" height="1" fill="#710CC7"/><rect x="64" y="150" width="299" height="1" fill="#710CC7"/><rect x="64" y="151" width="299" height="1" fill="#710CC7"/><rect x="64" y="152" width="299" height="1" fill="#710CC7"/><rect x="64" y="153" width="299" height="1" fill="#710CC7"/><rect x="64" y="154" width="299" height="1" fill="#710CC7"/><rect x="64" y="155" width="299" height="1" fill="#710CC7"/><rect x="64" y="156" width="299" height="1" fill="#710CC7"/><rect x="64" y="157" width="299" height="1" fill="#710CC7"/><rect x="64" y="158" width="299" height="1" fill="#710CC7"/><rect x="64" y="159" width="299" height="1" fill="#710CC7"/><rect x="64" y="160" width="299" height="1" fill="#710CC7"/><rect x="64" y="161" width="299" height="1" fill="#710CC7"/><rect x="64" y="162" width="299" height="1" fill="#710CC7"/><rect x="64" y="163" width="299" height="1" fill="#710CC7"/><rect x="64" y="164" width="299" height="1" fill="#710CC7"/><rect x="64" y="165" width="299" height="1" fill="#710CC7"/><rect x="64" y="166" width="299" height="1" fill="#710CC7"/><rect x="64" y="167" width="299" height="1" fill="#710CC7"/><rect x="64" y="168" width="299" height="1" fill="#710CC7"/><rect x="64" y="169" width="299" height="1" fill="#710CC7"/><rect x="64" y="170" width="299" height="1" fill="#710CC7"/><rect x="85" y="171" width="107" height="1" fill="#710CC7"/><rect x="320" y="171" width="43" height="1" fill="#710CC7"/><rect x="85" y="172" width="107" height="1" fill="#710CC7"/><rect x="320" y="172" width="43" height="1" fill="#710CC7"/><rect x="85" y="173" width="107" height="1" fill="#710CC7"/><rect x="320" y="173" width="43" height="1" fill="#710CC7"/><rect x="85" y="174" width="107" height="1" fill="#710CC7"/><rect x="320" y="174" width="43" height="1" fill="#710CC7"/><rect x="85" y="175" width="107" height="1" fill="#710CC7"/><rect x="320" y="175" width="43" height="1" fill="#710CC7"/><rect x="85" y="176" width="107" height="1" fill="#710CC7"/><rect x="320" y="176" width="43" height="1" fill="#710CC7"/><rect x="85" y="177" width="107" height="1" fill="#710CC7"/><rect x="320" y="177" width="43" height="1" fill="#710CC7"/><rect x="85" y="178" width="107" height="1" fill="#710CC7"/><rect x="320" y="178" width="43" height="1" fill="#710CC7"/><rect x="85" y="179" width="107" height="1" fill="#710CC7"/><rect x="320" y="179" width="43" height="1" fill="#710CC7"/><rect x="85" y="180" width="107" height="1" fill="#710CC7"/><rect x="320" y="180" width="43" height="1" fill="#710CC7"/><rect x="85" y="181" width="107" height="1" fill="#710CC7"/><rect x="320" y="181" width="43" height="1" fill="#710CC7"/><rect x="85" y="182" width="107" height="1" fill="#710CC7"/><rect x="320" y="182" width="43" height="1" fill="#710CC7"/><rect x="85" y="183" width="107" height="1" fill="#710CC7"/><rect x="320" y="183" width="43" height="1" fill="#710CC7"/><rect x="85" y="184" width="107" height="1" fill="#710CC7"/><rect x="320" y="184" width="43" height="1" fill="#710CC7"/><rect x="85" y="185" width="107" height="1" fill="#710CC7"/><rect x="320" y="185" width="43" height="1" fill="#710CC7"/><rect x="85" y="186" width="107" height="1" fill="#710CC7"/><rect x="320" y="186" width="43" height="1" fill="#710CC7"/><rect x="85" y="187" width="107" height="1" fill="#710CC7"/><rect x="320" y="187" width="43" height="1" fill="#710CC7"/><rect x="85" y="188" width="107" height="1" fill="#710CC7"/><rect x="320" y="188" width="43" height="1" fill="#710CC7"/><rect x="85" y="189" width="107" height="1" fill="#710CC7"/><rect x="320" y="189" width="43" height="1" fill="#710CC7"/><rect x="85" y="190" width="107" height="1" fill="#710CC7"/><rect x="320" y="190" width="43" height="1" fill="#710CC7"/><rect x="85" y="191" width="107" height="1" fill="#710CC7"/><rect x="320" y="191" width="43" height="1" fill="#710CC7"/><rect x="43" y="192" width="128" height="1" fill="#710CC7"/><rect x="341" y="192" width="22" height="1" fill="#710CC7"/><rect x="43" y="193" width="128" height="1" fill="#710CC7"/><rect x="341" y="193" width="22" height="1" fill="#710CC7"/><rect x="43" y="194" width="128" height="1" fill="#710CC7"/><rect x="341" y="194" width="22" height="1" fill="#710CC7"/><rect x="43" y="195" width="128" height="1" fill="#710CC7"/><rect x="341" y="195" width="22" height="1" fill="#710CC7"/><rect x="43" y="196" width="128" height="1" fill="#710CC7"/><rect x="341" y="196" width="22" height="1" fill="#710CC7"/><rect x="43" y="197" width="128" height="1" fill="#710CC7"/><rect x="341" y="197" width="22" height="1" fill="#710CC7"/><rect x="43" y="198" width="128" height="1" fill="#710CC7"/><rect x="341" y="198" width="22" height="1" fill="#710CC7"/><rect x="43" y="199" width="128" height="1" fill="#710CC7"/><rect x="341" y="199" width="22" height="1" fill="#710CC7"/><rect x="43" y="200" width="128" height="1" fill="#710CC7"/><rect x="341" y="200" width="22" height="1" fill="#710CC7"/><rect x="43" y="201" width="128" height="1" fill="#710CC7"/><rect x="341" y="201" width="22" height="1" fill="#710CC7"/><rect x="43" y="202" width="128" height="1" fill="#710CC7"/><rect x="341" y="202" width="22" height="1" fill="#710CC7"/><rect x="43" y="203" width="128" height="1" fill="#710CC7"/><rect x="341" y="203" width="22" height="1" fill="#710CC7"/><rect x="43" y="204" width="128" height="1" fill="#710CC7"/><rect x="341" y="204" width="22" height="1" fill="#710CC7"/><rect x="43" y="205" width="128" height="1" fill="#710CC7"/><rect x="341" y="205" width="22" height="1" fill="#710CC7"/><rect x="43" y="206" width="128" height="1" fill="#710CC7"/><rect x="341" y="206" width="22" height="1" fill="#710CC7"/><rect x="43" y="207" width="128" height="1" fill="#710CC7"/><rect x="341" y="207" width="22" height="1" fill="#710CC7"/><rect x="43" y="208" width="128" height="1" fill="#710CC7"/><rect x="341" y="208" width="22" height="1" fill="#710CC7"/><rect x="43" y="209" width="128" height="1" fill="#710CC7"/><rect x="341" y="209" width="22" height="1" fill="#710CC7"/><rect x="43" y="210" width="128" height="1" fill="#710CC7"/><rect x="341" y="210" width="22" height="1" fill="#710CC7"/><rect x="43" y="211" width="128" height="1" fill="#710CC7"/><rect x="341" y="211" width="22" height="1" fill="#710CC7"/><rect x="43" y="212" width="128" height="1" fill="#710CC7"/><rect x="341" y="212" width="22" height="1" fill="#710CC7"/><rect x="85" y="213" width="64" height="1" fill="#710CC7"/><rect x="85" y="214" width="64" height="1" fill="#710CC7"/><rect x="85" y="215" width="64" height="1" fill="#710CC7"/><rect x="85" y="216" width="64" height="1" fill="#710CC7"/><rect x="85" y="217" width="64" height="1" fill="#710CC7"/><rect x="85" y="218" width="64" height="1" fill="#710CC7"/><rect x="85" y="219" width="64" height="1" fill="#710CC7"/><rect x="85" y="220" width="64" height="1" fill="#710CC7"/><rect x="85" y="221" width="64" height="1" fill="#710CC7"/><rect x="85" y="222" width="64" height="1" fill="#710CC7"/><rect x="85" y="223" width="64" height="1" fill="#710CC7"/><rect x="85" y="224" width="64" height="1" fill="#710CC7"/><rect x="85" y="225" width="64" height="1" fill="#710CC7"/><rect x="85" y="226" width="64" height="1" fill="#710CC7"/><rect x="85" y="227" width="64" height="1" fill="#710CC7"/><rect x="85" y="228" width="64" height="1" fill="#710CC7"/><rect x="85" y="229" width="64" height="1" fill="#710CC7"/><rect x="85" y="230" width="64" height="1" fill="#710CC7"/><rect x="85" y="231" width="64" height="1" fill="#710CC7"/><rect x="85" y="232" width="64" height="1" fill="#710CC7"/><rect x="85" y="233" width="64" height="1" fill="#710CC7"/><rect x="85" y="234" width="64" height="1" fill="#710CC7"/><rect x="43" y="235" width="106" height="1" fill="#710CC7"/><rect x="43" y="236" width="106" height="1" fill="#710CC7"/><rect x="43" y="237" width="106" height="1" fill="#710CC7"/><rect x="43" y="238" width="106" height="1" fill="#710CC7"/><rect x="43" y="239" width="106" height="1" fill="#710CC7"/><rect x="43" y="240" width="106" height="1" fill="#710CC7"/><rect x="43" y="241" width="106" height="1" fill="#710CC7"/><rect x="43" y="242" width="106" height="1" fill="#710CC7"/><rect x="43" y="243" width="106" height="1" fill="#710CC7"/><rect x="43" y="244" width="106" height="1" fill="#710CC7"/><rect x="43" y="245" width="106" height="1" fill="#710CC7"/><rect x="43" y="246" width="106" height="1" fill="#710CC7"/><rect x="43" y="247" width="106" height="1" fill="#710CC7"/><rect x="43" y="248" width="106" height="1" fill="#710CC7"/><rect x="43" y="249" width="106" height="1" fill="#710CC7"/><rect x="43" y="250" width="106" height="1" fill="#710CC7"/><rect x="43" y="251" width="106" height="1" fill="#710CC7"/><rect x="43" y="252" width="106" height="1" fill="#710CC7"/><rect x="43" y="253" width="106" height="1" fill="#710CC7"/><rect x="43" y="254" width="106" height="1" fill="#710CC7"/><rect x="43" y="255" width="106" height="1" fill="#710CC7"/><rect x="64" y="256" width="43" height="1" fill="#710CC7"/><rect x="64" y="257" width="43" height="1" fill="#710CC7"/><rect x="64" y="258" width="43" height="1" fill="#710CC7"/><rect x="64" y="259" width="43" height="1" fill="#710CC7"/><rect x="64" y="260" width="43" height="1" fill="#710CC7"/><rect x="64" y="261" width="43" height="1" fill="#710CC7"/><rect x="64" y="262" width="43" height="1" fill="#710CC7"/><rect x="64" y="263" width="43" height="1" fill="#710CC7"/><rect x="64" y="264" width="43" height="1" fill="#710CC7"/><rect x="64" y="265" width="43" height="1" fill="#710CC7"/><rect x="64" y="266" width="43" height="1" fill="#710CC7"/><rect x="64" y="267" width="43" height="1" fill="#710CC7"/><rect x="64" y="268" width="43" height="1" fill="#710CC7"/><rect x="64" y="269" width="43" height="1" fill="#710CC7"/><rect x="64" y="270" width="43" height="1" fill="#710CC7"/><rect x="64" y="271" width="43" height="1" fill="#710CC7"/><rect x="64" y="272" width="43" height="1" fill="#710CC7"/><rect x="64" y="273" width="43" height="1" fill="#710CC7"/><rect x="64" y="274" width="43" height="1" fill="#710CC7"/><rect x="64" y="275" width="43" height="1" fill="#710CC7"/><rect x="64" y="276" width="43" height="1" fill="#710CC7"/><rect x="43" y="277" width="64" height="1" fill="#710CC7"/><rect x="43" y="278" width="64" height="1" fill="#710CC7"/><rect x="43" y="279" width="64" height="1" fill="#710CC7"/><rect x="43" y="280" width="64" height="1" fill="#710CC7"/><rect x="43" y="281" width="64" height="1" fill="#710CC7"/><rect x="43" y="282" width="64" height="1" fill="#710CC7"/><rect x="43" y="283" width="64" height="1" fill="#710CC7"/><rect x="43" y="284" width="64" height="1" fill="#710CC7"/><rect x="43" y="285" width="64" height="1" fill="#710CC7"/><rect x="43" y="286" width="64" height="1" fill="#710CC7"/><rect x="43" y="287" width="64" height="1" fill="#710CC7"/><rect x="43" y="288" width="64" height="1" fill="#710CC7"/><rect x="43" y="289" width="64" height="1" fill="#710CC7"/><rect x="43" y="290" width="64" height="1" fill="#710CC7"/><rect x="43" y="291" width="64" height="1" fill="#710CC7"/><rect x="43" y="292" width="64" height="1" fill="#710CC7"/><rect x="43" y="293" width="64" height="1" fill="#710CC7"/><rect x="43" y="294" width="64" height="1" fill="#710CC7"/><rect x="43" y="295" width="64" height="1" fill="#710CC7"/><rect x="43" y="296" width="64" height="1" fill="#710CC7"/><rect x="43" y="297" width="64" height="1" fill="#710CC7"/><rect x="43" y="298" width="64" height="1" fill="#710CC7"/><rect x="85" y="299" width="43" height="1" fill="#710CC7"/><rect x="85" y="300" width="43" height="1" fill="#710CC7"/><rect x="85" y="301" width="43" height="1" fill="#710CC7"/><rect x="85" y="302" width="43" height="1" fill="#710CC7"/><rect x="85" y="303" width="43" height="1" fill="#710CC7"/><rect x="85" y="304" width="43" height="1" fill="#710CC7"/><rect x="85" y="305" width="43" height="1" fill="#710CC7"/><rect x="85" y="306" width="43" height="1" fill="#710CC7"/><rect x="85" y="307" width="43" height="1" fill="#710CC7"/><rect x="85" y="308" width="43" height="1" fill="#710CC7"/><rect x="85" y="309" width="43" height="1" fill="#710CC7"/><rect x="85" y="310" width="43" height="1" fill="#710CC7"/><rect x="85" y="311" width="43" height="1" fill="#710CC7"/><rect x="85" y="312" width="43" height="1" fill="#710CC7"/><rect x="85" y="313" width="43" height="1" fill="#710CC7"/><rect x="85" y="314" width="43" height="1" fill="#710CC7"/><rect x="85" y="315" width="43" height="1" fill="#710CC7"/><rect x="85" y="316" width="43" height="1" fill="#710CC7"/><rect x="85" y="317" width="43" height="1" fill="#710CC7"/><rect x="85" y="318" width="43" height="1" fill="#710CC7"/><rect x="85" y="319" width="43" height="1" fill="#710CC7"/><rect x="64" y="320" width="64" height="1" fill="#710CC7"/><rect x="64" y="321" width="64" height="1" fill="#710CC7"/><rect x="64" y="322" width="64" height="1" fill="#710CC7"/><rect x="64" y="323" width="64" height="1" fill="#710CC7"/><rect x="64" y="324" width="64" height="1" fill="#710CC7"/><rect x="64" y="325" width="64" height="1" fill="#710CC7"/><rect x="64" y="326" width="64" height="1" fill="#710CC7"/><rect x="64" y="327" width="64" height="1" fill="#710CC7"/><rect x="64" y="328" width="64" height="1" fill="#710CC7"/><rect x="64" y="329" width="64" height="1" fill="#710CC7"/><rect x="64" y="330" width="64" height="1" fill="#710CC7"/><rect x="64" y="331" width="64" height="1" fill="#710CC7"/><rect x="64" y="332" width="64" height="1" fill="#710CC7"/><rect x="64" y="333" width="64" height="1" fill="#710CC7"/><rect x="64" y="334" width="64" height="1" fill="#710CC7"/><rect x="64" y="335" width="64" height="1" fill="#710CC7"/><rect x="64" y="336" width="64" height="1" fill="#710CC7"/><rect x="64" y="337" width="64" height="1" fill="#710CC7"/><rect x="64" y="338" width="64" height="1" fill="#710CC7"/><rect x="64" y="339" width="64" height="1" fill="#710CC7"/><rect x="64" y="340" width="64" height="1" fill="#710CC7"/><rect x="107" y="341" width="21" height="1" fill="#710CC7"/><rect x="107" y="342" width="21" height="1" fill="#710CC7"/><rect x="107" y="343" width="21" height="1" fill="#710CC7"/><rect x="107" y="344" width="21" height="1" fill="#710CC7"/><rect x="107" y="345" width="21" height="1" fill="#710CC7"/><rect x="107" y="346" width="21" height="1" fill="#710CC7"/><rect x="107" y="347" width="21" height="1" fill="#710CC7"/><rect x="107" y="348" width="21" height="1" fill="#710CC7"/><rect x="107" y="349" width="21" height="1" fill="#710CC7"/><rect x="107" y="350" width="21" height="1" fill="#710CC7"/><rect x="107" y="351" width="21" height="1" fill="#710CC7"/><rect x="107" y="352" width="21" height="1" fill="#710CC7"/><rect x="107" y="353" width="21" height="1" fill="#710CC7"/><rect x="107" y="354" width="21" height="1" fill="#710CC7"/><rect x="107" y="355" width="21" height="1" fill="#710CC7"/><rect x="107" y="356" width="21" height="1" fill="#710CC7"/><rect x="107" y="357" width="21" height="1" fill="#710CC7"/><rect x="107" y="358" width="21" height="1" fill="#710CC7"/><rect x="107" y="359" width="21" height="1" fill="#710CC7"/><rect x="107" y="360" width="21" height="1" fill="#710CC7"/><rect x="107" y="361" width="21" height="1" fill="#710CC7"/><rect x="107" y="362" width="21" height="1" fill="#710CC7"/><rect x="85" y="363" width="43" height="1" fill="#710CC7"/><rect x="85" y="364" width="43" height="1" fill="#710CC7"/><rect x="85" y="365" width="43" height="1" fill="#710CC7"/><rect x="85" y="366" width="43" height="1" fill="#710CC7"/><rect x="85" y="367" width="43" height="1" fill="#710CC7"/><rect x="85" y="368" width="43" height="1" fill="#710CC7"/><rect x="85" y="369" width="43" height="1" fill="#710CC7"/><rect x="85" y="370" width="43" height="1" fill="#710CC7"/><rect x="85" y="371" width="43" height="1" fill="#710CC7"/><rect x="85" y="372" width="43" height="1" fill="#710CC7"/><rect x="85" y="373" width="43" height="1" fill="#710CC7"/><rect x="85" y="374" width="43" height="1" fill="#710CC7"/><rect x="85" y="375" width="43" height="1" fill="#710CC7"/><rect x="85" y="376" width="43" height="1" fill="#710CC7"/><rect x="85" y="377" width="43" height="1" fill="#710CC7"/><rect x="85" y="378" width="43" height="1" fill="#710CC7"/><rect x="85" y="379" width="43" height="1" fill="#710CC7"/><rect x="85" y="380" width="43" height="1" fill="#710CC7"/><rect x="85" y="381" width="43" height="1" fill="#710CC7"/><rect x="85" y="382" width="43" height="1" fill="#710CC7"/><rect x="85" y="383" width="43" height="1" fill="#710CC7"/><rect x="107" y="384" width="21" height="1" fill="#710CC7"/><rect x="107" y="385" width="21" height="1" fill="#710CC7"/><rect x="107" y="386" width="21" height="1" fill="#710CC7"/><rect x="107" y="387" width="21" height="1" fill="#710CC7"/><rect x="107" y="388" width="21" height="1" fill="#710CC7"/><rect x="107" y="389" width="21" height="1" fill="#710CC7"/><rect x="107" y="390" width="21" height="1" fill="#710CC7"/><rect x="107" y="391" width="21" height="1" fill="#710CC7"/><rect x="107" y="392" width="21" height="1" fill="#710CC7"/><rect x="107" y="393" width="21" height="1" fill="#710CC7"/><rect x="107" y="394" width="21" height="1" fill="#710CC7"/><rect x="107" y="395" width="21" height="1" fill="#710CC7"/><rect x="107" y="396" width="21" height="1" fill="#710CC7"/><rect x="107" y="397" width="21" height="1" fill="#710CC7"/><rect x="107" y="398" width="21" height="1" fill="#710CC7"/><rect x="107" y="399" width="21" height="1" fill="#710CC7"/><rect x="107" y="400" width="21" height="1" fill="#710CC7"/><rect x="107" y="401" width="21" height="1" fill="#710CC7"/><rect x="107" y="402" width="21" height="1" fill="#710CC7"/><rect x="107" y="403" width="21" height="1" fill="#710CC7"/><rect x="107" y="404" width="21" height="1" fill="#710CC7"/></svg>