<svg xmlns="http://www.w3.org/2000/svg" viewBox="0 0 512 512" width="512" height="512" shape-rendering="crispEdges"><rect x="171" y="107" width="149" height="1" fill="#000000"/><rect x="171" y="108" width="149" height="1" fill="#000000"/><rect x="171" y="109" width="149" height="1" fill="#000000"/><rect x="171" y="110" width="149" height="1" fill="#000000"/><rect x="171" y="111" width="149" height="1" fill="#000000"/><rect x="171" y="112" width="149" height="1" fill="#000000"/><rect x="171" y="113" width="149" height="1" fill="#000000"/><rect x="171" y="114" width="149" height="1" fill="#000000"/><rect x="171" y="115" width="149" height="1" fill="#000000"/><rect x="171" y="116" width="149" height="1" fill="#000000"/><rect x="171" y="117" width="149" height="1" fill="#000000"/><rect x="171" y="118" width="149" height="1" fill="#000000"/><rect x="171" y="119" width="149" height="1" fill="#000000"/><rect x="171" y="120" width="149" height="1" fill="#000000"/><rect x="171" y="121" width="149" height="1" fill="#000000"/><rect x="171" y="122" width="149" height="1" fill="#000000"/><rect x="171" y="123" width="149" height="1" fill="#000000"/><rect x="171" y="124" width="149" height="1" fill="#000000"/><rect x="171" y="125" width="149" height="1" fill="#000000"/><rect x="171" y="126" width="149" height="1" fill="#000000"/><rect x="171" y="127" width="149" height="1" fill="#000000"/><rect x="149" y="128" width="192" height="1" fill="#000000"/><rect x="149" y="129" width="192" height="1" fill="#000000"/><rect x="149" y="130" width="192" height="1" fill="#000000"/><rect x="149" y="131" width="192" height="1" fill="#000000"/><rect x="149" y="132" width="192" height="1" fill="#000000"/><rect x="149" y="133" width="192" height="1" fill="#000000"/><rect x="149" y="134" width="192" height="1" fill="#000000"/><rect x="149" y="135" width="192" height="1" fill="#000000"/><rect x="149" y="136" width="192" height="1" fill="#000000"/><rect x="149" y="137" width="192" height="1" fill="#000000"/><rect x="149" y="138" width="192" height="1" fill="#000000"/><rect x="149" y="139" width="192" height="1" fill="#000000"/><rect x="149" y="140" width="192" height="1" fill="#000000"/><rect x="149" y="141" width="192" height="1" fill="#000000"/><rect x="149" y="142" width="192" height="1" fill="#000000"/><rect x="149" y="143" width="192" height="1" fill="#000000"/><rect x="149" y="144" width="192" height="1" fill="#000000"/><rect x="149" y="145" width="192" height="1" fill="#000000"/><rect x="149" y="146" width="192" height="1" fill="#000000"/><rect x="149" y="147" width="192" height="1" fill="#000000"/><rect x="149" y="148" width="192" height="1" fill="#000000"/><rect x="128" y="149" width="235" height="1" fill="#000000"/><rect x="128" y="150" width="235" height="1" fill="#000000"/><rect x="128" y="151" width="235" height="1" fill="#000000"/><rect x="128" y="152" width="235" height="1" fill="#000000"/><rect x="128" y="153" width="235" height="1" fill="#000000"/><rect x="128" y="154" width="235" height="1" fill="#000000"/><rect x="128" y="155" width="235" height="1" fill="#000000"/><rect x="128" y="156" width="235" height="1" fill="#000000"/><rect x="128" y="157" width="235" height="1" fill="#000000"/><rect x="128" y="158" width="235" height="1" fill="#000000"/><rect x="128" y="159" width="235" height="1" fill="#000000"/><rect x="128" y="160" width="235" height="1" fill="#000000"/><rect x="128" y="161" width="235" height="1" fill="#000000"/><rect x="128" y="162" width="235" height="1" fill="#000000"/><rect x="128" y="163" width="235" height="1" fill="#000000"/><rect x="128" y="164" width="235" height="1" fill="#000000"/><rect x="128" y="165" width="235" height="1" fill="#000000"/><rect x="128" y="166" width="235" height="1" fill="#000000"/><rect x="128" y="167" width="235" height="1" fill="#000000"/><rect x="128" y="168" width="235" height="1" fill="#000000"/><rect x="128" y="169" width="235" height="1" fill="#000000"/><rect x="128" y="170" width="235" height="1" fill="#000000"/><rect x="128" y="171" width="235" height="1" fill="#000000"/><rect x="128" y="172" width="235" height="1" fill="#000000"/><rect x="128" y="173" width="235" height="1" fill="#000000"/><rect x="128" y="174" width="235" height="1" fill="#000000"/><rect x="128" y="175" width="235" height="1" fill="#000000"/><rect x="128" y="176" width="235" height="1" fill="#000000"/><rect x="128" y="177" width="235" height="1" fill="#000000"/><rect x="128" y="178" width="235" height="1" fill="#000000"/><rect x="128" y="179" width="235" height="1" fill="#000000"/><rect x="128" y="180" width="235" height="1" fill="#000000"/><rect x="128" y="181" width="235" height="1" fill="#000000"/><rect x="128" y="182" width="235" height="1" fill="#000000"/><rect x="128" y="183" width="235" height="1" fill="#000000"/><rect x="128" y="184" width="235" height="1" fill="#000000"/><rect x="128" y="185" width="235" height="1" fill="#000000"/><rect x="128" y="186" width="235" height="1" fill="#000000"/><rect x="128" y="187" width="235" height="1" fill="#000000"/><rect x="128" y="188" width="235" height="1" fill="#000000"/><rect x="128" y="189" width="235" height="1" fill="#000000"/><rect x="128" y="190" width="235" height="1" fill="#000000"/><rect x="128" y="191" width="235" height="1" fill="#000000"/><rect x="128" y="192" width="43" height="1" fill="#000000"/><rect x="320" y="192" width="43" height="1" fill="#000000" opacity="0.549"/><rect x="128" y="193" width="43" height="1" fill="#000000"/><rect x="320" y="193" width="43" height="1" fill="#000000" opacity="0.549"/><rect x="128" y="194" width="43" height="1" fill="#000000"/><rect x="320" y="194" width="43" height="1" fill="#000000" opacity="0.549"/><rect x="128" y="195" width="43" height="1" fill="#000000"/><rect x="320" y="195" width="43" height="1" fill="#000000" opacity="0.549"/><rect x="128" y="196" width="43" height="1" fill="#000000"/><rect x="320" y="196" width="43" height="1" fill="#000000" opacity="0.549"/><rect x="128" y="197" width="43" height="1" fill="#000000"/><rect x="320" y="197" width="43" height="1" fill="#000000" opacity="0.549"/><rect x="128" y="198" width="43" height="1" fill="#000000"/><rect x="320" y="198" width="43" height="1" fill="#000000" opacity="0.549"/><rect x="128" y="199" width="43" height="1" fill="#000000"/><rect x="320" y="199" width="43" height="1" fill="#000000" opacity="0.549"/><rect x="128" y="200" width="43" height="1" fill="#000000"/><rect x="320" y="200" width="43" height="1" fill="#000000" opacity="0.549"/><rect x="128" y="201" width="43" height="1" fill="#000000"/><rect x="320" y="201" width="43" height="1" fill="#000000" opacity="0.549"/><rect x="128" y="202" width="43" height="1" fill="#000000"/><rect x="320" y="202" width="43" height="1" fill="#000000" opacity="0.549"/><rect x="128" y="203" width="43" height="1" fill="#000000"/><rect x="320" y="203" width="43" height="1" fill="#000000" opacity="0.549"/><rect x="128" y="204" width="43" height="1" fill="#000000"/><rect x="320" y="204" width="43" height="1" fill="#000000" opacity="0.549"/><rect x="128" y="205" width="43" height="1" fill="#000000"/><rect x="320" y="205" width="43" height="1" fill="#000000" opacity="0.549"/><rect x="128" y="206" width="43" height="1" fill="#000000"/><rect x="320" y="206" width="43" height="1" fill="#000000" opacity="0.549"/><rect x="128" y="207" width="43" height="1" fill="#000000"/><rect x="320" y="207" width="43" height="1" fill="#000000" opacity="0.549"/><rect x="128" y="208" width="43" height="1" fill="#000000"/><rect x="320" y="208" width="43" height="1" fill="#000000" opacity="0.549"/><rect x="128" y="209" width="43" height="1" fill="#000000"/><rect x="320" y="209" width="43" height="1" fill="#000000" opacity="0.549"/><rect x="128" y="210" width="43" height="1" fill="#000000"/><rect x="320" y="210" width="43" height="1" fill="#000000" opacity="0.549"/><rect x="128" y="211" width="43" height="1" fill="#000000"/><rect x="320" y="211" width="43" height="1" fill="#000000" opacity="0.549"/><rect x="128" y="212" width="43" height="1" fill="#000000"/><rect x="320" y="212" width="43" height="1" fill="#000000" opacity="0.549"/></svg>