<svg xmlns="http://www.w3.org/2000/svg" viewBox="0 0 512 512" width="512" height="512" shape-rendering="crispEdges"><rect x="149" y="21" width="22" height="1" fill="#030000"/><rect x="171" y="21" width="170" height="1" fill="#000000"/><rect x="149" y="22" width="22" height="1" fill="#030000"/><rect x="171" y="22" width="170" height="1" fill="#000000"/><rect x="149" y="23" width="22" height="1" fill="#030000"/><rect x="171" y="23" width="170" height="1" fill="#000000"/><rect x="149" y="24" width="22" height="1" fill="#030000"/><rect x="171" y="24" width="170" height="1" fill="#000000"/><rect x="149" y="25" width="22" height="1" fill="#030000"/><rect x="171" y="25" width="170" height="1" fill="#000000"/><rect x="149" y="26" width="22" height="1" fill="#030000"/><rect x="171" y="26" width="170" height="1" fill="#000000"/><rect x="149" y="27" width="22" height="1" fill="#030000"/><rect x="171" y="27" width="170" height="1" fill="#000000"/><rect x="149" y="28" width="22" height="1" fill="#030000"/><rect x="171" y="28" width="170" height="1" fill="#000000"/><rect x="149" y="29" width="22" height="1" fill="#030000"/><rect x="171" y="29" width="170" height="1" fill="#000000"/><rect x="149" y="30" width="22" height="1" fill="#030000"/><rect x="171" y="30" width="170" height="1" fill="#000000"/><rect x="149" y="31" width="22" height="1" fill="#030000"/><rect x="171" y="31" width="170" height="1" fill="#000000"/><rect x="149" y="32" width="22" height="1" fill="#030000"/><rect x="171" y="32" width="170" height="1" fill="#000000"/><rect x="149" y="33" width="22" height="1" fill="#030000"/><rect x="171" y="33" width="170" height="1" fill="#000000"/><rect x="149" y="34" width="22" height="1" fill="#030000"/><rect x="171" y="34" width="170" height="1" fill="#000000"/><rect x="149" y="35" width="22" height="1" fill="#030000"/><rect x="171" y="35" width="170" height="1" fill="#000000"/><rect x="149" y="36" width="22" height="1" fill="#030000"/><rect x="171" y="36" width="170" height="1" fill="#000000"/><rect x="149" y="37" width="22" height="1" fill="#030000"/><rect x="171" y="37" width="170" height="1" fill="#000000"/><rect x="149" y="38" width="22" height="1" fill="#030000"/><rect x="171" y="38" width="170" height="1" fill="#000000"/><rect x="149" y="39" width="22" height="1" fill="#030000"/><rect x="171" y="39" width="170" height="1" fill="#000000"/><rect x="149" y="40" width="22" height="1" fill="#030000"/><rect x="171" y="40" width="170" height="1" fill="#000000"/><rect x="149" y="41" width="22" height="1" fill="#030000"/><rect x="171" y="41" width="170" height="1" fill="#000000"/><rect x="149" y="42" width="22" height="1" fill="#030000"/><rect x="171" y="42" width="170" height="1" fill="#000000"/><rect x="128" y="43" width="21" height="1" fill="#010000"/><rect x="149" y="43" width="214" height="1" fill="#000000"/><rect x="128" y="44" width="21" height="1" fill="#010000"/><rect x="149" y="44" width="214" height="1" fill="#000000"/><rect x="128" y="45" width="21" height="1" fill="#010000"/><rect x="149" y="45" width="214" height="1" fill="#000000"/><rect x="128" y="46" width="21" height="1" fill="#010000"/><rect x="149" y="46" width="214" height="1" fill="#000000"/><rect x="128" y="47" width="21" height="1" fill="#010000"/><rect x="149" y="47" width="214" height="1" fill="#000000"/><rect x="128" y="48" width="21" height="1" fill="#010000"/><rect x="149" y="48" width="214" height="1" fill="#000000"/><rect x="128" y="49" width="21" height="1" fill="#010000"/><rect x="149" y="49" width="214" height="1" fill="#000000"/><rect x="128" y="50" width="21" height="1" fill="#010000"/><rect x="149" y="50" width="214" height="1" fill="#000000"/><rect x="128" y="51" width="21" height="1" fill="#010000"/><rect x="149" y="51" width="214" height="1" fill="#000000"/><rect x="128" y="52" width="21" height="1" fill="#010000"/><rect x="149" y="52" width="214" height="1" fill="#000000"/><rect x="128" y="53" width="21" height="1" fill="#010000"/><rect x="149" y="53" width="214" height="1" fill="#000000"/><rect x="128" y="54" width="21" height="1" fill="#010000"/><rect x="149" y="54" width="214" height="1" fill="#000000"/><rect x="128" y="55" width="21" height="1" fill="#010000"/><rect x="149" y="55" width="214" height="1" fill="#000000"/><rect x="128" y="56" width="21" height="1" fill="#010000"/><rect x="149" y="56" width="214" height="1" fill="#000000"/><rect x="128" y="57" width="21" height="1" fill="#010000"/><rect x="149" y="57" width="214" height="1" fill="#000000"/><rect x="128" y="58" width="21" height="1" fill="#010000"/><rect x="149" y="58" width="214" height="1" fill="#000000"/><rect x="128" y="59" width="21" height="1" fill="#010000"/><rect x="149" y="59" width="214" height="1" fill="#000000"/><rect x="128" y="60" width="21" height="1" fill="#010000"/><rect x="149" y="60" width="214" height="1" fill="#000000"/><rect x="128" y="61" width="21" height="1" fill="#010000"/><rect x="149" y="61" width="214" height="1" fill="#000000"/><rect x="128" y="62" width="21" height="1" fill="#010000"/><rect x="149" y="62" width="214" height="1" fill="#000000"/><rect x="128" y="63" width="21" height="1" fill="#010000"/><rect x="149" y="63" width="214" height="1" fill="#000000"/><rect x="128" y="64" width="21" height="1" fill="#010000"/><rect x="149" y="64" width="214" height="1" fill="#000000"/><rect x="128" y="65" width="21" height="1" fill="#010000"/><rect x="149" y="65" width="214" height="1" fill="#000000"/><rect x="128" y="66" width="21" height="1" fill="#010000"/><rect x="149" y="66" width="214" height="1" fill="#000000"/><rect x="128" y="67" width="21" height="1" fill="#010000"/><rect x="149" y="67" width="214" height="1" fill="#000000"/><rect x="128" y="68" width="21" height="1" fill="#010000"/><rect x="149" y="68" width="214" height="1" fill="#000000"/><rect x="128" y="69" width="21" height="1" fill="#010000"/><rect x="149" y="69" width="214" height="1" fill="#000000"/><rect x="128" y="70" width="21" height="1" fill="#010000"/><rect x="149" y="70" width="214" height="1" fill="#000000"/><rect x="128" y="71" width="21" height="1" fill="#010000"/><rect x="149" y="71" width="214" height="1" fill="#000000"/><rect x="128" y="72" width="21" height="1" fill="#010000"/><rect x="149" y="72" width="214" height="1" fill="#000000"/><rect x="128" y="73" width="21" height="1" fill="#010000"/><rect x="149" y="73" width="214" height="1" fill="#000000"/><rect x="128" y="74" width="21" height="1" fill="#010000"/><rect x="149" y="74" width="214" height="1" fill="#000000"/><rect x="128" y="75" width="21" height="1" fill="#010000"/><rect x="149" y="75" width="214" height="1" fill="#000000"/><rect x="128" y="76" width="21" height="1" fill="#010000"/><rect x="149" y="76" width="214" height="1" fill="#000000"/><rect x="128" y="77" width="21" height="1" fill="#010000"/><rect x="149" y="77" width="214" height="1" fill="#000000"/><rect x="128" y="78" width="21" height="1" fill="#010000"/><rect x="149" y="78" width="214" height="1" fill="#000000"/><rect x="128" y="79" width="21" height="1" fill="#010000"/><rect x="149" y="79" width="214" height="1" fill="#000000"/><rect x="128" y="80" width="21" height="1" fill="#010000"/><rect x="149" y="80" width="214" height="1" fill="#000000"/><rect x="128" y="81" width="21" height="1" fill="#010000"/><rect x="149" y="81" width="214" height="1" fill="#000000"/><rect x="128" y="82" width="21" height="1" fill="#010000"/><rect x="149" y="82" width="214" height="1" fill="#000000"/><rect x="128" y="83" width="21" height="1" fill="#010000"/><rect x="149" y="83" width="214" height="1" fill="#000000"/><rect x="128" y="84" width="21" height="1" fill="#010000"/><rect x="149" y="84" width="214" height="1" fill="#000000"/><rect x="128" y="85" width="21" height="1" fill="#010000"/><rect x="149" y="85" width="214" height="1" fill="#000000"/><rect x="128" y="86" width="21" height="1" fill="#010000"/><rect x="149" y="86" width="214" height="1" fill="#000000"/><rect x="128" y="87" width="21" height="1" fill="#010000"/><rect x="149" y="87" width="214" height="1" fill="#000000"/><rect x="128" y="88" width="21" height="1" fill="#010000"/><rect x="149" y="88" width="214" height="1" fill="#000000"/><rect x="128" y="89" width="21" height="1" fill="#010000"/><rect x="149" y="89" width="214" height="1" fill="#000000"/><rect x="128" y="90" width="21" height="1" fill="#010000"/><rect x="149" y="90" width="214" height="1" fill="#000000"/><rect x="128" y="91" width="21" height="1" fill="#010000"/><rect x="149" y="91" width="214" height="1" fill="#000000"/><rect x="128" y="92" width="21" height="1" fill="#010000"/><rect x="149" y="92" width="214" height="1" fill="#000000"/><rect x="128" y="93" width="21" height="1" fill="#010000"/><rect x="149" y="93" width="214" height="1" fill="#000000"/><rect x="128" y="94" width="21" height="1" fill="#010000"/><rect x="149" y="94" width="214" height="1" fill="#000000"/><rect x="128" y="95" width="21" height="1" fill="#010000"/><rect x="149" y="95" width="214" height="1" fill="#000000"/><rect x="128" y="96" width="21" height="1" fill="#010000"/><rect x="149" y="96" width="214" height="1" fill="#000000"/><rect x="128" y="97" width="21" height="1" fill="#010000"/><rect x="149" y="97" width="214" height="1" fill="#000000"/><rect x="128" y="98" width="21" height="1" fill="#010000"/><rect x="149" y="98" width="214" height="1" fill="#000000"/><rect x="128" y="99" width="21" height="1" fill="#010000"/><rect x="149" y="99" width="214" height="1" fill="#000000"/><rect x="128" y="100" width="21" height="1" fill="#010000"/><rect x="149" y="100" width="214" height="1" fill="#000000"/><rect x="128" y="101" width="21" height="1" fill="#010000"/><rect x="149" y="101" width="214" height="1" fill="#000000"/><rect x="128" y="102" width="21" height="1" fill="#010000"/><rect x="149" y="102" width="214" height="1" fill="#000000"/><rect x="128" y="103" width="21" height="1" fill="#010000"/><rect x="149" y="103" width="214" height="1" fill="#000000"/><rect x="128" y="104" width="21" height="1" fill="#010000"/><rect x="149" y="104" width="214" height="1" fill="#000000"/><rect x="128" y="105" width="21" height="1" fill="#010000"/><rect x="149" y="105" width="214" height="1" fill="#000000"/><rect x="128" y="106" width="21" height="1" fill="#010000"/><rect x="149" y="106" width="214" height="1" fill="#000000"/><rect x="128" y="107" width="21" height="1" fill="#010000"/><rect x="149" y="107" width="214" height="1" fill="#000000"/><rect x="128" y="108" width="21" height="1" fill="#010000"/><rect x="149" y="108" width="214" height="1" fill="#000000"/><rect x="128" y="109" width="21" height="1" fill="#010000"/><rect x="149" y="109" width="214" height="1" fill="#000000"/><rect x="128" y="110" width="21" height="1" fill="#010000"/><rect x="149" y="110" width="214" height="1" fill="#000000"/><rect x="128" y="111" width="21" height="1" fill="#010000"/><rect x="149" y="111" width="214" height="1" fill="#000000"/><rect x="128" y="112" width="21" height="1" fill="#010000"/><rect x="149" y="112" width="214" height="1" fill="#000000"/><rect x="128" y="113" width="21" height="1" fill="#010000"/><rect x="149" y="113" width="214" height="1" fill="#000000"/><rect x="128" y="114" width="21" height="1" fill="#010000"/><rect x="149" y="114" width="214" height="1" fill="#000000"/><rect x="128" y="115" width="21" height="1" fill="#010000"/><rect x="149" y="115" width="214" height="1" fill="#000000"/><rect x="128" y="116" width="21" height="1" fill="#010000"/><rect x="149" y="116" width="214" height="1" fill="#000000"/><rect x="128" y="117" width="21" height="1" fill="#010000"/><rect x="149" y="117" width="214" height="1" fill="#000000"/><rect x="128" y="118" width="21" height="1" fill="#010000"/><rect x="149" y="118" width="214" height="1" fill="#000000"/><rect x="128" y="119" width="21" height="1" fill="#010000"/><rect x="149" y="119" width="214" height="1" fill="#000000"/><rect x="128" y="120" width="21" height="1" fill="#010000"/><rect x="149" y="120" width="214" height="1" fill="#000000"/><rect x="128" y="121" width="21" height="1" fill="#010000"/><rect x="149" y="121" width="214" height="1" fill="#000000"/><rect x="128" y="122" width="21" height="1" fill="#010000"/><rect x="149" y="122" width="214" height="1" fill="#000000"/><rect x="128" y="123" width="21" height="1" fill="#010000"/><rect x="149" y="123" width="214" height="1" fill="#000000"/><rect x="128" y="124" width="21" height="1" fill="#010000"/><rect x="149" y="124" width="214" height="1" fill="#000000"/><rect x="128" y="125" width="21" height="1" fill="#010000"/><rect x="149" y="125" width="214" height="1" fill="#000000"/><rect x="128" y="126" width="21" height="1" fill="#010000"/><rect x="149" y="126" width="214" height="1" fill="#000000"/><rect x="128" y="127" width="21" height="1" fill="#010000"/><rect x="149" y="127" width="214" height="1" fill="#000000"/><rect x="128" y="128" width="21" height="1" fill="#DD1C1C"/><rect x="149" y="128" width="192" height="1" fill="#DC1D1D"/><rect x="341" y="128" width="22" height="1" fill="#D81E21"/><rect x="128" y="129" width="21" height="1" fill="#DD1C1C"/><rect x="149" y="129" width="192" height="1" fill="#DC1D1D"/><rect x="341" y="129" width="22" height="1" fill="#D81E21"/><rect x="128" y="130" width="21" height="1" fill="#DD1C1C"/><rect x="149" y="130" width="192" height="1" fill="#DC1D1D"/><rect x="341" y="130" width="22" height="1" fill="#D81E21"/><rect x="128" y="131" width="21" height="1" fill="#DD1C1C"/><rect x="149" y="131" width="192" height="1" fill="#DC1D1D"/><rect x="341" y="131" width="22" height="1" fill="#D81E21"/><rect x="128" y="132" width="21" height="1" fill="#DD1C1C"/><rect x="149" y="132" width="192" height="1" fill="#DC1D1D"/><rect x="341" y="132" width="22" height="1" fill="#D81E21"/><rect x="128" y="133" width="21" height="1" fill="#DD1C1C"/><rect x="149" y="133" width="192" height="1" fill="#DC1D1D"/><rect x="341" y="133" width="22" height="1" fill="#D81E21"/><rect x="128" y="134" width="21" height="1" fill="#DD1C1C"/><rect x="149" y="134" width="192" height="1" fill="#DC1D1D"/><rect x="341" y="134" width="22" height="1" fill="#D81E21"/><rect x="128" y="135" width="21" height="1" fill="#DD1C1C"/><rect x="149" y="135" width="192" height="1" fill="#DC1D1D"/><rect x="341" y="135" width="22" height="1" fill="#D81E21"/><rect x="128" y="136" width="21" height="1" fill="#DD1C1C"/><rect x="149" y="136" width="192" height="1" fill="#DC1D1D"/><rect x="341" y="136" width="22" height="1" fill="#D81E21"/><rect x="128" y="137" width="21" height="1" fill="#DD1C1C"/><rect x="149" y="137" width="192" height="1" fill="#DC1D1D"/><rect x="341" y="137" width="22" height="1" fill="#D81E21"/><rect x="128" y="138" width="21" height="1" fill="#DD1C1C"/><rect x="149" y="138" width="192" height="1" fill="#DC1D1D"/><rect x="341" y="138" width="22" height="1" fill="#D81E21"/><rect x="128" y="139" width="21" height="1" fill="#DD1C1C"/><rect x="149" y="139" width="192" height="1" fill="#DC1D1D"/><rect x="341" y="139" width="22" height="1" fill="#D81E21"/><rect x="128" y="140" width="21" height="1" fill="#DD1C1C"/><rect x="149" y="140" width="192" height="1" fill="#DC1D1D"/><rect x="341" y="140" width="22" height="1" fill="#D81E21"/><rect x="128" y="141" width="21" height="1" fill="#DD1C1C"/><rect x="149" y="141" width="192" height="1" fill="#DC1D1D"/><rect x="341" y="141" width="22" height="1" fill="#D81E21"/><rect x="128" y="142" width="21" height="1" fill="#DD1C1C"/><rect x="149" y="142" width="192" height="1" fill="#DC1D1D"/><rect x="341" y="142" width="22" height="1" fill="#D81E21"/><rect x="128" y="143" width="21" height="1" fill="#DD1C1C"/><rect x="149" y="143" width="192" height="1" fill="#DC1D1D"/><rect x="341" y="143" width="22" height="1" fill="#D81E21"/><rect x="128" y="144" width="21" height="1" fill="#DD1C1C"/><rect x="149" y="144" width="192" height="1" fill="#DC1D1D"/><rect x="341" y="144" width="22" height="1" fill="#D81E21"/><rect x="128" y="145" width="21" height="1" fill="#DD1C1C"/><rect x="149" y="145" width="192" height="1" fill="#DC1D1D"/><rect x="341" y="145" width="22" height="1" fill="#D81E21"/><rect x="128" y="146" width="21" height="1" fill="#DD1C1C"/><rect x="149" y="146" width="192" height="1" fill="#DC1D1D"/><rect x="341" y="146" width="22" height="1" fill="#D81E21"/><rect x="128" y="147" width="21" height="1" fill="#DD1C1C"/><rect x="149" y="147" width="192" height="1" fill="#DC1D1D"/><rect x="341" y="147" width="22" height="1" fill="#D81E21"/><rect x="128" y="148" width="21" height="1" fill="#DD1C1C"/><rect x="149" y="148" width="192" height="1" fill="#DC1D1D"/><rect x="341" y="148" width="22" height="1" fill="#D81E21"/><rect x="107" y="149" width="21" height="1" fill="#030000"/><rect x="128" y="149" width="21" height="1" fill="#000005"/><rect x="149" y="149" width="192" height="1" fill="#000000"/><rect x="341" y="149" width="22" height="1" fill="#000302"/><rect x="363" y="149" width="21" height="1" fill="#010000"/><rect x="107" y="150" width="21" height="1" fill="#030000"/><rect x="128" y="150" width="21" height="1" fill="#000005"/><rect x="149" y="150" width="192" height="1" fill="#000000"/><rect x="341" y="150" width="22" height="1" fill="#000302"/><rect x="363" y="150" width="21" height="1" fill="#010000"/><rect x="107" y="151" width="21" height="1" fill="#030000"/><rect x="128" y="151" width="21" height="1" fill="#000005"/><rect x="149" y="151" width="192" height="1" fill="#000000"/><rect x="341" y="151" width="22" height="1" fill="#000302"/><rect x="363" y="151" width="21" height="1" fill="#010000"/><rect x="107" y="152" width="21" height="1" fill="#030000"/><rect x="128" y="152" width="21" height="1" fill="#000005"/><rect x="149" y="152" width="192" height="1" fill="#000000"/><rect x="341" y="152" width="22" height="1" fill="#000302"/><rect x="363" y="152" width="21" height="1" fill="#010000"/><rect x="107" y="153" width="21" height="1" fill="#030000"/><rect x="128" y="153" width="21" height="1" fill="#000005"/><rect x="149" y="153" width="192" height="1" fill="#000000"/><rect x="341" y="153" width="22" height="1" fill="#000302"/><rect x="363" y="153" width="21" height="1" fill="#010000"/><rect x="107" y="154" width="21" height="1" fill="#030000"/><rect x="128" y="154" width="21" height="1" fill="#000005"/><rect x="149" y="154" width="192" height="1" fill="#000000"/><rect x="341" y="154" width="22" height="1" fill="#000302"/><rect x="363" y="154" width="21" height="1" fill="#010000"/><rect x="107" y="155" width="21" height="1" fill="#030000"/><rect x="128" y="155" width="21" height="1" fill="#000005"/><rect x="149" y="155" width="192" height="1" fill="#000000"/><rect x="341" y="155" width="22" height="1" fill="#000302"/><rect x="363" y="155" width="21" height="1" fill="#010000"/><rect x="107" y="156" width="21" height="1" fill="#030000"/><rect x="128" y="156" width="21" height="1" fill="#000005"/><rect x="149" y="156" width="192" height="1" fill="#000000"/><rect x="341" y="156" width="22" height="1" fill="#000302"/><rect x="363" y="156" width="21" height="1" fill="#010000"/><rect x="107" y="157" width="21" height="1" fill="#030000"/><rect x="128" y="157" width="21" height="1" fill="#000005"/><rect x="149" y="157" width="192" height="1" fill="#000000"/><rect x="341" y="157" width="22" height="1" fill="#000302"/><rect x="363" y="157" width="21" height="1" fill="#010000"/><rect x="107" y="158" width="21" height="1" fill="#030000"/><rect x="128" y="158" width="21" height="1" fill="#000005"/><rect x="149" y="158" width="192" height="1" fill="#000000"/><rect x="341" y="158" width="22" height="1" fill="#000302"/><rect x="363" y="158" width="21" height="1" fill="#010000"/><rect x="107" y="159" width="21" height="1" fill="#030000"/><rect x="128" y="159" width="21" height="1" fill="#000005"/><rect x="149" y="159" width="192" height="1" fill="#000000"/><rect x="341" y="159" width="22" height="1" fill="#000302"/><rect x="363" y="159" width="21" height="1" fill="#010000"/><rect x="107" y="160" width="21" height="1" fill="#030000"/><rect x="128" y="160" width="21" height="1" fill="#000005"/><rect x="149" y="160" width="192" height="1" fill="#000000"/><rect x="341" y="160" width="22" height="1" fill="#000302"/><rect x="363" y="160" width="21" height="1" fill="#010000"/><rect x="107" y="161" width="21" height="1" fill="#030000"/><rect x="128" y="161" width="21" height="1" fill="#000005"/><rect x="149" y="161" width="192" height="1" fill="#000000"/><rect x="341" y="161" width="22" height="1" fill="#000302"/><rect x="363" y="161" width="21" height="1" fill="#010000"/><rect x="107" y="162" width="21" height="1" fill="#030000"/><rect x="128" y="162" width="21" height="1" fill="#000005"/><rect x="149" y="162" width="192" height="1" fill="#000000"/><rect x="341" y="162" width="22" height="1" fill="#000302"/><rect x="363" y="162" width="21" height="1" fill="#010000"/><rect x="107" y="163" width="21" height="1" fill="#030000"/><rect x="128" y="163" width="21" height="1" fill="#000005"/><rect x="149" y="163" width="192" height="1" fill="#000000"/><rect x="341" y="163" width="22" height="1" fill="#000302"/><rect x="363" y="163" width="21" height="1" fill="#010000"/><rect x="107" y="164" width="21" height="1" fill="#030000"/><rect x="128" y="164" width="21" height="1" fill="#000005"/><rect x="149" y="164" width="192" height="1" fill="#000000"/><rect x="341" y="164" width="22" height="1" fill="#000302"/><rect x="363" y="164" width="21" height="1" fill="#010000"/><rect x="107" y="165" width="21" height="1" fill="#030000"/><rect x="128" y="165" width="21" height="1" fill="#000005"/><rect x="149" y="165" width="192" height="1" fill="#000000"/><rect x="341" y="165" width="22" height="1" fill="#000302"/><rect x="363" y="165" width="21" height="1" fill="#010000"/><rect x="107" y="166" width="21" height="1" fill="#030000"/><rect x="128" y="166" width="21" height="1" fill="#000005"/><rect x="149" y="166" width="192" height="1" fill="#000000"/><rect x="341" y="166" width="22" height="1" fill="#000302"/><rect x="363" y="166" width="21" height="1" fill="#010000"/><rect x="107" y="167" width="21" height="1" fill="#030000"/><rect x="128" y="167" width="21" height="1" fill="#000005"/><rect x="149" y="167" width="192" height="1" fill="#000000"/><rect x="341" y="167" width="22" height="1" fill="#000302"/><rect x="363" y="167" width="21" height="1" fill="#010000"/><rect x="107" y="168" width="21" height="1" fill="#030000"/><rect x="128" y="168" width="21" height="1" fill="#000005"/><rect x="149" y="168" width="192" height="1" fill="#000000"/><rect x="341" y="168" width="22" height="1" fill="#000302"/><rect x="363" y="168" width="21" height="1" fill="#010000"/><rect x="107" y="169" width="21" height="1" fill="#030000"/><rect x="128" y="169" width="21" height="1" fill="#000005"/><rect x="149" y="169" width="192" height="1" fill="#000000"/><rect x="341" y="169" width="22" height="1" fill="#000302"/><rect x="363" y="169" width="21" height="1" fill="#010000"/><rect x="107" y="170" width="21" height="1" fill="#030000"/><rect x="128" y="170" width="21" height="1" fill="#000005"/><rect x="149" y="170" width="192" height="1" fill="#000000"/><rect x="341" y="170" width="22" height="1" fill="#000302"/><rect x="363" y="170" width="21" height="1" fill="#010000"/><rect x="85" y="171" width="22" height="1" fill="#010000"/><rect x="107" y="171" width="21" height="1" fill="#030000"/><rect x="128" y="171" width="21" height="1" fill="#000100"/><rect x="149" y="171" width="22" height="1" fill="#030000"/><rect x="171" y="171" width="170" height="1" fill="#010000"/><rect x="341" y="171" width="22" height="1" fill="#000102"/><rect x="363" y="171" width="21" height="1" fill="#000000"/><rect x="384" y="171" width="21" height="1" fill="#030002"/><rect x="85" y="172" width="22" height="1" fill="#010000"/><rect x="107" y="172" width="21" height="1" fill="#030000"/><rect x="128" y="172" width="21" height="1" fill="#000100"/><rect x="149" y="172" width="22" height="1" fill="#030000"/><rect x="171" y="172" width="170" height="1" fill="#010000"/><rect x="341" y="172" width="22" height="1" fill="#000102"/><rect x="363" y="172" width="21" height="1" fill="#000000"/><rect x="384" y="172" width="21" height="1" fill="#030002"/><rect x="85" y="173" width="22" height="1" fill="#010000"/><rect x="107" y="173" width="21" height="1" fill="#030000"/><rect x="128" y="173" width="21" height="1" fill="#000100"/><rect x="149" y="173" width="22" height="1" fill="#030000"/><rect x="171" y="173" width="170" height="1" fill="#010000"/><rect x="341" y="173" width="22" height="1" fill="#000102"/><rect x="363" y="173" width="21" height="1" fill="#000000"/><rect x="384" y="173" width="21" height="1" fill="#030002"/><rect x="85" y="174" width="22" height="1" fill="#010000"/><rect x="107" y="174" width="21" height="1" fill="#030000"/><rect x="128" y="174" width="21" height="1" fill="#000100"/><rect x="149" y="174" width="22" height="1" fill="#030000"/><rect x="171" y="174" width="170" height="1" fill="#010000"/><rect x="341" y="174" width="22" height="1" fill="#000102"/><rect x="363" y="174" width="21" height="1" fill="#000000"/><rect x="384" y="174" width="21" height="1" fill="#030002"/><rect x="85" y="175" width="22" height="1" fill="#010000"/><rect x="107" y="175" width="21" height="1" fill="#030000"/><rect x="128" y="175" width="21" height="1" fill="#000100"/><rect x="149" y="175" width="22" height="1" fill="#030000"/><rect x="171" y="175" width="170" height="1" fill="#010000"/><rect x="341" y="175" width="22" height="1" fill="#000102"/><rect x="363" y="175" width="21" height="1" fill="#000000"/><rect x="384" y="175" width="21" height="1" fill="#030002"/><rect x="85" y="176" width="22" height="1" fill="#010000"/><rect x="107" y="176" width="21" height="1" fill="#030000"/><rect x="128" y="176" width="21" height="1" fill="#000100"/><rect x="149" y="176" width="22" height="1" fill="#030000"/><rect x="171" y="176" width="170" height="1" fill="#010000"/><rect x="341" y="176" width="22" height="1" fill="#000102"/><rect x="363" y="176" width="21" height="1" fill="#000000"/><rect x="384" y="176" width="21" height="1" fill="#030002"/><rect x="85" y="177" width="22" height="1" fill="#010000"/><rect x="107" y="177" width="21" height="1" fill="#030000"/><rect x="128" y="177" width="21" height="1" fill="#000100"/><rect x="149" y="177" width="22" height="1" fill="#030000"/><rect x="171" y="177" width="170" height="1" fill="#010000"/><rect x="341" y="177" width="22" height="1" fill="#000102"/><rect x="363" y="177" width="21" height="1" fill="#000000"/><rect x="384" y="177" width="21" height="1" fill="#030002"/><rect x="85" y="178" width="22" height="1" fill="#010000"/><rect x="107" y="178" width="21" height="1" fill="#030000"/><rect x="128" y="178" width="21" height="1" fill="#000100"/><rect x="149" y="178" width="22" height="1" fill="#030000"/><rect x="171" y="178" width="170" height="1" fill="#010000"/><rect x="341" y="178" width="22" height="1" fill="#000102"/><rect x="363" y="178" width="21" height="1" fill="#000000"/><rect x="384" y="178" width="21" height="1" fill="#030002"/><rect x="85" y="179" width="22" height="1" fill="#010000"/><rect x="107" y="179" width="21" height="1" fill="#030000"/><rect x="128" y="179" width="21" height="1" fill="#000100"/><rect x="149" y="179" width="22" height="1" fill="#030000"/><rect x="171" y="179" width="170" height="1" fill="#010000"/><rect x="341" y="179" width="22" height="1" fill="#000102"/><rect x="363" y="179" width="21" height="1" fill="#000000"/><rect x="384" y="179" width="21" height="1" fill="#030002"/><rect x="85" y="180" width="22" height="1" fill="#010000"/><rect x="107" y="180" width="21" height="1" fill="#030000"/><rect x="128" y="180" width="21" height="1" fill="#000100"/><rect x="149" y="180" width="22" height="1" fill="#030000"/><rect x="171" y="180" width="170" height="1" fill="#010000"/><rect x="341" y="180" width="22" height="1" fill="#000102"/><rect x="363" y="180" width="21" height="1" fill="#000000"/><rect x="384" y="180" width="21" height="1" fill="#030002"/><rect x="85" y="181" width="22" height="1" fill="#010000"/><rect x="107" y="181" width="21" height="1" fill="#030000"/><rect x="128" y="181" width="21" height="1" fill="#000100"/><rect x="149" y="181" width="22" height="1" fill="#030000"/><rect x="171" y="181" width="170" height="1" fill="#010000"/><rect x="341" y="181" width="22" height="1" fill="#000102"/><rect x="363" y="181" width="21" height="1" fill="#000000"/><rect x="384" y="181" width="21" height="1" fill="#030002"/><rect x="85" y="182" width="22" height="1" fill="#010000"/><rect x="107" y="182" width="21" height="1" fill="#030000"/><rect x="128" y="182" width="21" height="1" fill="#000100"/><rect x="149" y="182" width="22" height="1" fill="#030000"/><rect x="171" y="182" width="170" height="1" fill="#010000"/><rect x="341" y="182" width="22" height="1" fill="#000102"/><rect x="363" y="182" width="21" height="1" fill="#000000"/><rect x="384" y="182" width="21" height="1" fill="#030002"/><rect x="85" y="183" width="22" height="1" fill="#010000"/><rect x="107" y="183" width="21" height="1" fill="#030000"/><rect x="128" y="183" width="21" height="1" fill="#000100"/><rect x="149" y="183" width="22" height="1" fill="#030000"/><rect x="171" y="183" width="170" height="1" fill="#010000"/><rect x="341" y="183" width="22" height="1" fill="#000102"/><rect x="363" y="183" width="21" height="1" fill="#000000"/><rect x="384" y="183" width="21" height="1" fill="#030002"/><rect x="85" y="184" width="22" height="1" fill="#010000"/><rect x="107" y="184" width="21" height="1" fill="#030000"/><rect x="128" y="184" width="21" height="1" fill="#000100"/><rect x="149" y="184" width="22" height="1" fill="#030000"/><rect x="171" y="184" width="170" height="1" fill="#010000"/><rect x="341" y="184" width="22" height="1" fill="#000102"/><rect x="363" y="184" width="21" height="1" fill="#000000"/><rect x="384" y="184" width="21" height="1" fill="#030002"/><rect x="85" y="185" width="22" height="1" fill="#010000"/><rect x="107" y="185" width="21" height="1" fill="#030000"/><rect x="128" y="185" width="21" height="1" fill="#000100"/><rect x="149" y="185" width="22" height="1" fill="#030000"/><rect x="171" y="185" width="170" height="1" fill="#010000"/><rect x="341" y="185" width="22" height="1" fill="#000102"/><rect x="363" y="185" width="21" height="1" fill="#000000"/><rect x="384" y="185" width="21" height="1" fill="#030002"/><rect x="85" y="186" width="22" height="1" fill="#010000"/><rect x="107" y="186" width="21" height="1" fill="#030000"/><rect x="128" y="186" width="21" height="1" fill="#000100"/><rect x="149" y="186" width="22" height="1" fill="#030000"/><rect x="171" y="186" width="170" height="1" fill="#010000"/><rect x="341" y="186" width="22" height="1" fill="#000102"/><rect x="363" y="186" width="21" height="1" fill="#000000"/><rect x="384" y="186" width="21" height="1" fill="#030002"/><rect x="85" y="187" width="22" height="1" fill="#010000"/><rect x="107" y="187" width="21" height="1" fill="#030000"/><rect x="128" y="187" width="21" height="1" fill="#000100"/><rect x="149" y="187" width="22" height="1" fill="#030000"/><rect x="171" y="187" width="170" height="1" fill="#010000"/><rect x="341" y="187" width="22" height="1" fill="#000102"/><rect x="363" y="187" width="21" height="1" fill="#000000"/><rect x="384" y="187" width="21" height="1" fill="#030002"/><rect x="85" y="188" width="22" height="1" fill="#010000"/><rect x="107" y="188" width="21" height="1" fill="#030000"/><rect x="128" y="188" width="21" height="1" fill="#000100"/><rect x="149" y="188" width="22" height="1" fill="#030000"/><rect x="171" y="188" width="170" height="1" fill="#010000"/><rect x="341" y="188" width="22" height="1" fill="#000102"/><rect x="363" y="188" width="21" height="1" fill="#000000"/><rect x="384" y="188" width="21" height="1" fill="#030002"/><rect x="85" y="189" width="22" height="1" fill="#010000"/><rect x="107" y="189" width="21" height="1" fill="#030000"/><rect x="128" y="189" width="21" height="1" fill="#000100"/><rect x="149" y="189" width="22" height="1" fill="#030000"/><rect x="171" y="189" width="170" height="1" fill="#010000"/><rect x="341" y="189" width="22" height="1" fill="#000102"/><rect x="363" y="189" width="21" height="1" fill="#000000"/><rect x="384" y="189" width="21" height="1" fill="#030002"/><rect x="85" y="190" width="22" height="1" fill="#010000"/><rect x="107" y="190" width="21" height="1" fill="#030000"/><rect x="128" y="190" width="21" height="1" fill="#000100"/><rect x="149" y="190" width="22" height="1" fill="#030000"/><rect x="171" y="190" width="170" height="1" fill="#010000"/><rect x="341" y="190" width="22" height="1" fill="#000102"/><rect x="363" y="190" width="21" height="1" fill="#000000"/><rect x="384" y="190" width="21" height="1" fill="#030002"/><rect x="85" y="191" width="22" height="1" fill="#010000"/><rect x="107" y="191" width="21" height="1" fill="#030000"/><rect x="128" y="191" width="21" height="1" fill="#000100"/><rect x="149" y="191" width="22" height="1" fill="#030000"/><rect x="171" y="191" width="170" height="1" fill="#010000"/><rect x="341" y="191" width="22" height="1" fill="#000102"/><rect x="363" y="191" width="21" height="1" fill="#000000"/><rect x="384" y="191" width="21" height="1" fill="#030002"/></svg>