<svg xmlns="http://www.w3.org/2000/svg" viewBox="0 0 512 512" width="512" height="512" shape-rendering="crispEdges"><rect x="171" y="107" width="149" height="1" fill="#000000"/><rect x="171" y="108" width="149" height="1" fill="#000000"/><rect x="171" y="109" width="149" height="1" fill="#000000"/><rect x="171" y="110" width="149" height="1" fill="#000000"/><rect x="171" y="111" width="149" height="1" fill="#000000"/><rect x="171" y="112" width="149" height="1" fill="#000000"/><rect x="171" y="113" width="149" height="1" fill="#000000"/><rect x="171" y="114" width="149" height="1" fill="#000000"/><rect x="171" y="115" width="149" height="1" fill="#000000"/><rect x="171" y="116" width="149" height="1" fill="#000000"/><rect x="171" y="117" width="149" height="1" fill="#000000"/><rect x="171" y="118" width="149" height="1" fill="#000000"/><rect x="171" y="119" width="149" height="1" fill="#000000"/><rect x="171" y="120" width="149" height="1" fill="#000000"/><rect x="171" y="121" width="149" height="1" fill="#000000"/><rect x="171" y="122" width="149" height="1" fill="#000000"/><rect x="171" y="123" width="149" height="1" fill="#000000"/><rect x="171" y="124" width="149" height="1" fill="#000000"/><rect x="171" y="125" width="149" height="1" fill="#000000"/><rect x="171" y="126" width="149" height="1" fill="#000000"/><rect x="171" y="127" width="149" height="1" fill="#000000"/><rect x="149" y="128" width="192" height="1" fill="#000000"/><rect x="149" y="129" width="192" height="1" fill="#000000"/><rect x="149" y="130" width="192" height="1" fill="#000000"/><rect x="149" y="131" width="192" height="1" fill="#000000"/><rect x="149" y="132" width="192" height="1" fill="#000000"/><rect x="149" y="133" width="192" height="1" fill="#000000"/><rect x="149" y="134" width="192" height="1" fill="#000000"/><rect x="149" y="135" width="192" height="1" fill="#000000"/><rect x="149" y="136" width="192" height="1" fill="#000000"/><rect x="149" y="137" width="192" height="1" fill="#000000"/><rect x="149" y="138" width="192" height="1" fill="#000000"/><rect x="149" y="139" width="192" height="1" fill="#000000"/><rect x="149" y="140" width="192" height="1" fill="#000000"/><rect x="149" y="141" width="192" height="1" fill="#000000"/><rect x="149" y="142" width="192" height="1" fill="#000000"/><rect x="149" y="143" width="192" height="1" fill="#000000"/><rect x="149" y="144" width="192" height="1" fill="#000000"/><rect x="149" y="145" width="192" height="1" fill="#000000"/><rect x="149" y="146" width="192" height="1" fill="#000000"/><rect x="149" y="147" width="192" height="1" fill="#000000"/><rect x="149" y="148" width="192" height="1" fill="#000000"/><rect x="128" y="149" width="64" height="1" fill="#000000"/><rect x="235" y="149" width="64" height="1" fill="#000000"/><rect x="320" y="149" width="43" height="1" fill="#000000"/><rect x="128" y="150" width="64" height="1" fill="#000000"/><rect x="235" y="150" width="64" height="1" fill="#000000"/><rect x="320" y="150" width="43" height="1" fill="#000000"/><rect x="128" y="151" width="64" height="1" fill="#000000"/><rect x="235" y="151" width="64" height="1" fill="#000000"/><rect x="320" y="151" width="43" height="1" fill="#000000"/><rect x="128" y="152" width="64" height="1" fill="#000000"/><rect x="235" y="152" width="64" height="1" fill="#000000"/><rect x="320" y="152" width="43" height="1" fill="#000000"/><rect x="128" y="153" width="64" height="1" fill="#000000"/><rect x="235" y="153" width="64" height="1" fill="#000000"/><rect x="320" y="153" width="43" height="1" fill="#000000"/><rect x="128" y="154" width="64" height="1" fill="#000000"/><rect x="235" y="154" width="64" height="1" fill="#000000"/><rect x="320" y="154" width="43" height="1" fill="#000000"/><rect x="128" y="155" width="64" height="1" fill="#000000"/><rect x="235" y="155" width="64" height="1" fill="#000000"/><rect x="320" y="155" width="43" height="1" fill="#000000"/><rect x="128" y="156" width="64" height="1" fill="#000000"/><rect x="235" y="156" width="64" height="1" fill="#000000"/><rect x="320" y="156" width="43" height="1" fill="#000000"/><rect x="128" y="157" width="64" height="1" fill="#000000"/><rect x="235" y="157" width="64" height="1" fill="#000000"/><rect x="320" y="157" width="43" height="1" fill="#000000"/><rect x="128" y="158" width="64" height="1" fill="#000000"/><rect x="235" y="158" width="64" height="1" fill="#000000"/><rect x="320" y="158" width="43" height="1" fill="#000000"/><rect x="128" y="159" width="64" height="1" fill="#000000"/><rect x="235" y="159" width="64" height="1" fill="#000000"/><rect x="320" y="159" width="43" height="1" fill="#000000"/><rect x="128" y="160" width="64" height="1" fill="#000000"/><rect x="235" y="160" width="64" height="1" fill="#000000"/><rect x="320" y="160" width="43" height="1" fill="#000000"/><rect x="128" y="161" width="64" height="1" fill="#000000"/><rect x="235" y="161" width="64" height="1" fill="#000000"/><rect x="320" y="161" width="43" height="1" fill="#000000"/><rect x="128" y="162" width="64" height="1" fill="#000000"/><rect x="235" y="162" width="64" height="1" fill="#000000"/><rect x="320" y="162" width="43" height="1" fill="#000000"/><rect x="128" y="163" width="64" height="1" fill="#000000"/><rect x="235" y="163" width="64" height="1" fill="#000000"/><rect x="320" y="163" width="43" height="1" fill="#000000"/><rect x="128" y="164" width="64" height="1" fill="#000000"/><rect x="235" y="164" width="64" height="1" fill="#000000"/><rect x="320" y="164" width="43" height="1" fill="#000000"/><rect x="128" y="165" width="64" height="1" fill="#000000"/><rect x="235" y="165" width="64" height="1" fill="#000000"/><rect x="320" y="165" width="43" height="1" fill="#000000"/><rect x="128" y="166" width="64" height="1" fill="#000000"/><rect x="235" y="166" width="64" height="1" fill="#000000"/><rect x="320" y="166" width="43" height="1" fill="#000000"/><rect x="128" y="167" width="64" height="1" fill="#000000"/><rect x="235" y="167" width="64" height="1" fill="#000000"/><rect x="320" y="167" width="43" height="1" fill="#000000"/><rect x="128" y="168" width="64" height="1" fill="#000000"/><rect x="235" y="168" width="64" height="1" fill="#000000"/><rect x="320" y="168" width="43" height="1" fill="#000000"/><rect x="128" y="169" width="64" height="1" fill="#000000"/><rect x="235" y="169" width="64" height="1" fill="#000000"/><rect x="320" y="169" width="43" height="1" fill="#000000"/><rect x="128" y="170" width="64" height="1" fill="#000000"/><rect x="235" y="170" width="64" height="1" fill="#000000"/><rect x="320" y="170" width="43" height="1" fill="#000000"/><rect x="128" y="171" width="43" height="1" fill="#000000"/><rect x="256" y="171" width="21" height="1" fill="#000000"/><rect x="341" y="171" width="22" height="1" fill="#000000"/><rect x="128" y="172" width="43" height="1" fill="#000000"/><rect x="256" y="172" width="21" height="1" fill="#000000"/><rect x="341" y="172" width="22" height="1" fill="#000000"/><rect x="128" y="173" width="43" height="1" fill="#000000"/><rect x="256" y="173" width="21" height="1" fill="#000000"/><rect x="341" y="173" width="22" height="1" fill="#000000"/><rect x="128" y="174" width="43" height="1" fill="#000000"/><rect x="256" y="174" width="21" height="1" fill="#000000"/><rect x="341" y="174" width="22" height="1" fill="#000000"/><rect x="128" y="175" width="43" height="1" fill="#000000"/><rect x="256" y="175" width="21" height="1" fill="#000000"/><rect x="341" y="175" width="22" height="1" fill="#000000"/><rect x="128" y="176" width="43" height="1" fill="#000000"/><rect x="256" y="176" width="21" height="1" fill="#000000"/><rect x="341" y="176" width="22" height="1" fill="#000000"/><rect x="128" y="177" width="43" height="1" fill="#000000"/><rect x="256" y="177" width="21" height="1" fill="#000000"/><rect x="341" y="177" width="22" height="1" fill="#000000"/><rect x="128" y="178" width="43" height="1" fill="#000000"/><rect x="256" y="178" width="21" height="1" fill="#000000"/><rect x="341" y="178" width="22" height="1" fill="#000000"/><rect x="128" y="179" width="43" height="1" fill="#000000"/><rect x="256" y="179" width="21" height="1" fill="#000000"/><rect x="341" y="179" width="22" height="1" fill="#000000"/><rect x="128" y="180" width="43" height="1" fill="#000000"/><rect x="256" y="180" width="21" height="1" fill="#000000"/><rect x="341" y="180" width="22" height="1" fill="#000000"/><rect x="128" y="181" width="43" height="1" fill="#000000"/><rect x="256" y="181" width="21" height="1" fill="#000000"/><rect x="341" y="181" width="22" height="1" fill="#000000"/><rect x="128" y="182" width="43" height="1" fill="#000000"/><rect x="256" y="182" width="21" height="1" fill="#000000"/><rect x="341" y="182" width="22" height="1" fill="#000000"/><rect x="128" y="183" width="43" height="1" fill="#000000"/><rect x="256" y="183" width="21" height="1" fill="#000000"/><rect x="341" y="183" width="22" height="1" fill="#000000"/><rect x="128" y="184" width="43" height="1" fill="#000000"/><rect x="256" y="184" width="21" height="1" fill="#000000"/><rect x="341" y="184" width="22" height="1" fill="#000000"/><rect x="128" y="185" width="43" height="1" fill="#000000"/><rect x="256" y="185" width="21" height="1" fill="#000000"/><rect x="341" y="185" width="22" height="1" fill="#000000"/><rect x="128" y="186" width="43" height="1" fill="#000000"/><rect x="256" y="186" width="21" height="1" fill="#000000"/><rect x="341" y="186" width="22" height="1" fill="#000000"/><rect x="128" y="187" width="43" height="1" fill="#000000"/><rect x="256" y="187" width="21" height="1" fill="#000000"/><rect x="341" y="187" width="22" height="1" fill="#000000"/><rect x="128" y="188" width="43" height="1" fill="#000000"/><rect x="256" y="188" width="21" height="1" fill="#000000"/><rect x="341" y="188" width="22" height="1" fill="#000000"/><rect x="128" y="189" width="43" height="1" fill="#000000"/><rect x="256" y="189" width="21" height="1" fill="#000000"/><rect x="341" y="189" width="22" height="1" fill="#000000"/><rect x="128" y="190" width="43" height="1" fill="#000000"/><rect x="256" y="190" width="21" height="1" fill="#000000"/><rect x="341" y="190" width="22" height="1" fill="#000000"/><rect x="128" y="191" width="43" height="1" fill="#000000"/><rect x="256" y="191" width="21" height="1" fill="#000000"/><rect x="341" y="191" width="22" height="1" fill="#000000"/><rect x="128" y="192" width="43" height="1" fill="#000000"/><rect x="256" y="192" width="21" height="1" fill="#000000"/><rect x="341" y="192" width="22" height="1" fill="#000000"/><rect x="128" y="193" width="43" height="1" fill="#000000"/><rect x="256" y="193" width="21" height="1" fill="#000000"/><rect x="341" y="193" width="22" height="1" fill="#000000"/><rect x="128" y="194" width="43" height="1" fill="#000000"/><rect x="256" y="194" width="21" height="1" fill="#000000"/><rect x="341" y="194" width="22" height="1" fill="#000000"/><rect x="128" y="195" width="43" height="1" fill="#000000"/><rect x="256" y="195" width="21" height="1" fill="#000000"/><rect x="341" y="195" width="22" height="1" fill="#000000"/><rect x="128" y="196" width="43" height="1" fill="#000000"/><rect x="256" y="196" width="21" height="1" fill="#000000"/><rect x="341" y="196" width="22" height="1" fill="#000000"/><rect x="128" y="197" width="43" height="1" fill="#000000"/><rect x="256" y="197" width="21" height="1" fill="#000000"/><rect x="341" y="197" width="22" height="1" fill="#000000"/><rect x="128" y="198" width="43" height="1" fill="#000000"/><rect x="256" y="198" width="21" height="1" fill="#000000"/><rect x="341" y="198" width="22" height="1" fill="#000000"/><rect x="128" y="199" width="43" height="1" fill="#000000"/><rect x="256" y="199" width="21" height="1" fill="#000000"/><rect x="341" y="199" width="22" height="1" fill="#000000"/><rect x="128" y="200" width="43" height="1" fill="#000000"/><rect x="256" y="200" width="21" height="1" fill="#000000"/><rect x="341" y="200" width="22" height="1" fill="#000000"/><rect x="128" y="201" width="43" height="1" fill="#000000"/><rect x="256" y="201" width="21" height="1" fill="#000000"/><rect x="341" y="201" width="22" height="1" fill="#000000"/><rect x="128" y="202" width="43" height="1" fill="#000000"/><rect x="256" y="202" width="21" height="1" fill="#000000"/><rect x="341" y="202" width="22" height="1" fill="#000000"/><rect x="128" y="203" width="43" height="1" fill="#000000"/><rect x="256" y="203" width="21" height="1" fill="#000000"/><rect x="341" y="203" width="22" height="1" fill="#000000"/><rect x="128" y="204" width="43" height="1" fill="#000000"/><rect x="256" y="204" width="21" height="1" fill="#000000"/><rect x="341" y="204" width="22" height="1" fill="#000000"/><rect x="128" y="205" width="43" height="1" fill="#000000"/><rect x="256" y="205" width="21" height="1" fill="#000000"/><rect x="341" y="205" width="22" height="1" fill="#000000"/><rect x="128" y="206" width="43" height="1" fill="#000000"/><rect x="256" y="206" width="21" height="1" fill="#000000"/><rect x="341" y="206" width="22" height="1" fill="#000000"/><rect x="128" y="207" width="43" height="1" fill="#000000"/><rect x="256" y="207" width="21" height="1" fill="#000000"/><rect x="341" y="207" width="22" height="1" fill="#000000"/><rect x="128" y="208" width="43" height="1" fill="#000000"/><rect x="256" y="208" width="21" height="1" fill="#000000"/><rect x="341" y="208" width="22" height="1" fill="#000000"/><rect x="128" y="209" width="43" height="1" fill="#000000"/><rect x="256" y="209" width="21" height="1" fill="#000000"/><rect x="341" y="209" width="22" height="1" fill="#000000"/><rect x="128" y="210" width="43" height="1" fill="#000000"/><rect x="256" y="210" width="21" height="1" fill="#000000"/><rect x="341" y="210" width="22" height="1" fill="#000000"/><rect x="128" y="211" width="43" height="1" fill="#000000"/><rect x="256" y="211" width="21" height="1" fill="#000000"/><rect x="341" y="211" width="22" height="1" fill="#000000"/><rect x="128" y="212" width="43" height="1" fill="#000000"/><rect x="256" y="212" width="21" height="1" fill="#000000"/><rect x="341" y="212" width="22" height="1" fill="#000000"/><rect x="149" y="341" width="22" height="1" fill="#000000"/><rect x="149" y="342" width="22" height="1" fill="#000000"/><rect x="149" y="343" width="22" height="1" fill="#000000"/><rect x="149" y="344" width="22" height="1" fill="#000000"/><rect x="149" y="345" width="22" height="1" fill="#000000"/><rect x="149" y="346" width="22" height="1" fill="#000000"/><rect x="149" y="347" width="22" height="1" fill="#000000"/><rect x="149" y="348" width="22" height="1" fill="#000000"/><rect x="149" y="349" width="22" height="1" fill="#000000"/><rect x="149" y="350" width="22" height="1" fill="#000000"/><rect x="149" y="351" width="22" height="1" fill="#000000"/><rect x="149" y="352" width="22" height="1" fill="#000000"/><rect x="149" y="353" width="22" height="1" fill="#000000"/><rect x="149" y="354" width="22" height="1" fill="#000000"/><rect x="149" y="355" width="22" height="1" fill="#000000"/><rect x="149" y="356" width="22" height="1" fill="#000000"/><rect x="149" y="357" width="22" height="1" fill="#000000"/><rect x="149" y="358" width="22" height="1" fill="#000000"/><rect x="149" y="359" width="22" height="1" fill="#000000"/><rect x="149" y="360" width="22" height="1" fill="#000000"/><rect x="149" y="361" width="22" height="1" fill="#000000"/><rect x="149" y="362" width="22" height="1" fill="#000000"/><rect x="149" y="363" width="22" height="1" fill="#000000"/><rect x="149" y="364" width="22" height="1" fill="#000000"/><rect x="149" y="365" width="22" height="1" fill="#000000"/><rect x="149" y="366" width="22" height="1" fill="#000000"/><rect x="149" y="367" width="22" height="1" fill="#000000"/><rect x="149" y="368" width="22" height="1" fill="#000000"/><rect x="149" y="369" width="22" height="1" fill="#000000"/><rect x="149" y="370" width="22" height="1" fill="#000000"/><rect x="149" y="371" width="22" height="1" fill="#000000"/><rect x="149" y="372" width="22" height="1" fill="#000000"/><rect x="149" y="373" width="22" height="1" fill="#000000"/><rect x="149" y="374" width="22" height="1" fill="#000000"/><rect x="149" y="375" width="22" height="1" fill="#000000"/><rect x="149" y="376" width="22" height="1" fill="#000000"/><rect x="149" y="377" width="22" height="1" fill="#000000"/><rect x="149" y="378" width="22" height="1" fill="#000000"/><rect x="149" y="379" width="22" height="1" fill="#000000"/><rect x="149" y="380" width="22" height="1" fill="#000000"/><rect x="149" y="381" width="22" height="1" fill="#000000"/><rect x="149" y="382" width="22" height="1" fill="#000000"/><rect x="149" y="383" width="22" height="1" fill="#000000"/><rect x="149" y="384" width="43" height="1" fill="#000000"/><rect x="149" y="385" width="43" height="1" fill="#000000"/><rect x="149" y="386" width="43" height="1" fill="#000000"/><rect x="149" y="387" width="43" height="1" fill="#000000"/><rect x="149" y="388" width="43" height="1" fill="#000000"/><rect x="149" y="389" width="43" height="1" fill="#000000"/><rect x="149" y="390" width="43" height="1" fill="#000000"/><rect x="149" y="391" width="43" height="1" fill="#000000"/><rect x="149" y="392" width="43" height="1" fill="#000000"/><rect x="149" y="393" width="43" height="1" fill="#000000"/><rect x="149" y="394" width="43" height="1" fill="#000000"/><rect x="149" y="395" width="43" height="1" fill="#000000"/><rect x="149" y="396" width="43" height="1" fill="#000000"/><rect x="149" y="397" width="43" height="1" fill="#000000"/><rect x="149" y="398" width="43" height="1" fill="#000000"/><rect x="149" y="399" width="43" height="1" fill="#000000"/><rect x="149" y="400" width="43" height="1" fill="#000000"/><rect x="149" y="401" width="43" height="1" fill="#000000"/><rect x="149" y="402" width="43" height="1" fill="#000000"/><rect x="149" y="403" width="43" height="1" fill="#000000"/><rect x="149" y="404" width="43" height="1" fill="#000000"/></svg>