<svg xmlns="http://www.w3.org/2000/svg" viewBox="0 0 512 512" width="512" height="512" shape-rendering="crispEdges"><rect x="128" y="64" width="43" height="1" fill="#000000"/><rect x="256" y="64" width="107" height="1" fill="#000000"/><rect x="128" y="65" width="43" height="1" fill="#000000"/><rect x="256" y="65" width="107" height="1" fill="#000000"/><rect x="128" y="66" width="43" height="1" fill="#000000"/><rect x="256" y="66" width="107" height="1" fill="#000000"/><rect x="128" y="67" width="43" height="1" fill="#000000"/><rect x="256" y="67" width="107" height="1" fill="#000000"/><rect x="128" y="68" width="43" height="1" fill="#000000"/><rect x="256" y="68" width="107" height="1" fill="#000000"/><rect x="128" y="69" width="43" height="1" fill="#000000"/><rect x="256" y="69" width="107" height="1" fill="#000000"/><rect x="128" y="70" width="43" height="1" fill="#000000"/><rect x="256" y="70" width="107" height="1" fill="#000000"/><rect x="128" y="71" width="43" height="1" fill="#000000"/><rect x="256" y="71" width="107" height="1" fill="#000000"/><rect x="128" y="72" width="43" height="1" fill="#000000"/><rect x="256" y="72" width="107" height="1" fill="#000000"/><rect x="128" y="73" width="43" height="1" fill="#000000"/><rect x="256" y="73" width="107" height="1" fill="#000000"/><rect x="128" y="74" width="43" height="1" fill="#000000"/><rect x="256" y="74" width="107" height="1" fill="#000000"/><rect x="128" y="75" width="43" height="1" fill="#000000"/><rect x="256" y="75" width="107" height="1" fill="#000000"/><rect x="128" y="76" width="43" height="1" fill="#000000"/><rect x="256" y="76" width="107" height="1" fill="#000000"/><rect x="128" y="77" width="43" height="1" fill="#000000"/><rect x="256" y="77" width="107" height="1" fill="#000000"/><rect x="128" y="78" width="43" height="1" fill="#000000"/><rect x="256" y="78" width="107" height="1" fill="#000000"/><rect x="128" y="79" width="43" height="1" fill="#000000"/><rect x="256" y="79" width="107" height="1" fill="#000000"/><rect x="128" y="80" width="43" height="1" fill="#000000"/><rect x="256" y="80" width="107" height="1" fill="#000000"/><rect x="128" y="81" width="43" height="1" fill="#000000"/><rect x="256" y="81" width="107" height="1" fill="#000000"/><rect x="128" y="82" width="43" height="1" fill="#000000"/><rect x="256" y="82" width="107" height="1" fill="#000000"/><rect x="128" y="83" width="43" height="1" fill="#000000"/><rect x="256" y="83" width="107" height="1" fill="#000000"/><rect x="128" y="84" width="43" height="1" fill="#000000"/><rect x="256" y="84" width="107" height="1" fill="#000000"/><rect x="64" y="85" width="21" height="1" fill="#000000"/><rect x="128" y="85" width="213" height="1" fill="#000000"/><rect x="384" y="85" width="43" height="1" fill="#000000"/><rect x="64" y="86" width="21" height="1" fill="#000000"/><rect x="128" y="86" width="213" height="1" fill="#000000"/><rect x="384" y="86" width="43" height="1" fill="#000000"/><rect x="64" y="87" width="21" height="1" fill="#000000"/><rect x="128" y="87" width="213" height="1" fill="#000000"/><rect x="384" y="87" width="43" height="1" fill="#000000"/><rect x="64" y="88" width="21" height="1" fill="#000000"/><rect x="128" y="88" width="213" height="1" fill="#000000"/><rect x="384" y="88" width="43" height="1" fill="#000000"/><rect x="64" y="89" width="21" height="1" fill="#000000"/><rect x="128" y="89" width="213" height="1" fill="#000000"/><rect x="384" y="89" width="43" height="1" fill="#000000"/><rect x="64" y="90" width="21" height="1" fill="#000000"/><rect x="128" y="90" width="213" height="1" fill="#000000"/><rect x="384" y="90" width="43" height="1" fill="#000000"/><rect x="64" y="91" width="21" height="1" fill="#000000"/><rect x="128" y="91" width="213" height="1" fill="#000000"/><rect x="384" y="91" width="43" height="1" fill="#000000"/><rect x="64" y="92" width="21" height="1" fill="#000000"/><rect x="128" y="92" width="213" height="1" fill="#000000"/><rect x="384" y="92" width="43" height="1" fill="#000000"/><rect x="64" y="93" width="21" height="1" fill="#000000"/><rect x="128" y="93" width="213" height="1" fill="#000000"/><rect x="384" y="93" width="43" height="1" fill="#000000"/><rect x="64" y="94" width="21" height="1" fill="#000000"/><rect x="128" y="94" width="213" height="1" fill="#000000"/><rect x="384" y="94" width="43" height="1" fill="#000000"/><rect x="64" y="95" width="21" height="1" fill="#000000"/><rect x="128" y="95" width="213" height="1" fill="#000000"/><rect x="384" y="95" width="43" height="1" fill="#000000"/><rect x="64" y="96" width="21" height="1" fill="#000000"/><rect x="128" y="96" width="213" height="1" fill="#000000"/><rect x="384" y="96" width="43" height="1" fill="#000000"/><rect x="64" y="97" width="21" height="1" fill="#000000"/><rect x="128" y="97" width="213" height="1" fill="#000000"/><rect x="384" y="97" width="43" height="1" fill="#000000"/><rect x="64" y="98" width="21" height="1" fill="#000000"/><rect x="128" y="98" width="213" height="1" fill="#000000"/><rect x="384" y="98" width="43" height="1" fill="#000000"/><rect x="64" y="99" width="21" height="1" fill="#000000"/><rect x="128" y="99" width="213" height="1" fill="#000000"/><rect x="384" y="99" width="43" height="1" fill="#000000"/><rect x="64" y="100" width="21" height="1" fill="#000000"/><rect x="128" y="100" width="213" height="1" fill="#000000"/><rect x="384" y="100" width="43" height="1" fill="#000000"/><rect x="64" y="101" width="21" height="1" fill="#000000"/><rect x="128" y="101" width="213" height="1" fill="#000000"/><rect x="384" y="101" width="43" height="1" fill="#000000"/><rect x="64" y="102" width="21" height="1" fill="#000000"/><rect x="128" y="102" width="213" height="1" fill="#000000"/><rect x="384" y="102" width="43" height="1" fill="#000000"/><rect x="64" y="103" width="21" height="1" fill="#000000"/><rect x="128" y="103" width="213" height="1" fill="#000000"/><rect x="384" y="103" width="43" height="1" fill="#000000"/><rect x="64" y="104" width="21" height="1" fill="#000000"/><rect x="128" y="104" width="213" height="1" fill="#000000"/><rect x="384" y="104" width="43" height="1" fill="#000000"/><rect x="64" y="105" width="21" height="1" fill="#000000"/><rect x="128" y="105" width="213" height="1" fill="#000000"/><rect x="384" y="105" width="43" height="1" fill="#000000"/><rect x="64" y="106" width="21" height="1" fill="#000000"/><rect x="128" y="106" width="213" height="1" fill="#000000"/><rect x="384" y="106" width="43" height="1" fill="#000000"/><rect x="64" y="107" width="341" height="1" fill="#000000"/><rect x="64" y="108" width="341" height="1" fill="#000000"/><rect x="64" y="109" width="341" height="1" fill="#000000"/><rect x="64" y="110" width="341" height="1" fill="#000000"/><rect x="64" y="111" width="341" height="1" fill="#000000"/><rect x="64" y="112" width="341" height="1" fill="#000000"/><rect x="64" y="113" width="341" height="1" fill="#000000"/><rect x="64" y="114" width="341" height="1" fill="#000000"/><rect x="64" y="115" width="341" height="1" fill="#000000"/><rect x="64" y="116" width="341" height="1" fill="#000000"/><rect x="64" y="117" width="341" height="1" fill="#000000"/><rect x="64" y="118" width="341" height="1" fill="#000000"/><rect x="64" y="119" width="341" height="1" fill="#000000"/><rect x="64" y="120" width="341" height="1" fill="#000000"/><rect x="64" y="121" width="341" height="1" fill="#000000"/><rect x="64" y="122" width="341" height="1" fill="#000000"/><rect x="64" y="123" width="341" height="1" fill="#000000"/><rect x="64" y="124" width="341" height="1" fill="#000000"/><rect x="64" y="125" width="341" height="1" fill="#000000"/><rect x="64" y="126" width="341" height="1" fill="#000000"/><rect x="64" y="127" width="341" height="1" fill="#000000"/><rect x="64" y="128" width="363" height="1" fill="#000000"/><rect x="64" y="129" width="363" height="1" fill="#000000"/><rect x="64" y="130" width="363" height="1" fill="#000000"/><rect x="64" y="131" width="363" height="1" fill="#000000"/><rect x="64" y="132" width="363" height="1" fill="#000000"/><rect x="64" y="133" width="363" height="1" fill="#000000"/><rect x="64" y="134" width="363" height="1" fill="#000000"/><rect x="64" y="135" width="363" height="1" fill="#000000"/><rect x="64" y="136" width="363" height="1" fill="#000000"/><rect x="64" y="137" width="363" height="1" fill="#000000"/><rect x="64" y="138" width="363" height="1" fill="#000000"/><rect x="64" y="139" width="363" height="1" fill="#000000"/><rect x="64" y="140" width="363" height="1" fill="#000000"/><rect x="64" y="141" width="363" height="1" fill="#000000"/><rect x="64" y="142" width="363" height="1" fill="#000000"/><rect x="64" y="143" width="363" height="1" fill="#000000"/><rect x="64" y="144" width="363" height="1" fill="#000000"/><rect x="64" y="145" width="363" height="1" fill="#000000"/><rect x="64" y="146" width="363" height="1" fill="#000000"/><rect x="64" y="147" width="363" height="1" fill="#000000"/><rect x="64" y="148" width="363" height="1" fill="#000000"/><rect x="85" y="149" width="320" height="1" fill="#000000"/><rect x="85" y="150" width="320" height="1" fill="#000000"/><rect x="85" y="151" width="320" height="1" fill="#000000"/><rect x="85" y="152" width="320" height="1" fill="#000000"/><rect x="85" y="153" width="320" height="1" fill="#000000"/><rect x="85" y="154" width="320" height="1" fill="#000000"/><rect x="85" y="155" width="320" height="1" fill="#000000"/><rect x="85" y="156" width="320" height="1" fill="#000000"/><rect x="85" y="157" width="320" height="1" fill="#000000"/><rect x="85" y="158" width="320" height="1" fill="#000000"/><rect x="85" y="159" width="320" height="1" fill="#000000"/><rect x="85" y="160" width="320" height="1" fill="#000000"/><rect x="85" y="161" width="320" height="1" fill="#000000"/><rect x="85" y="162" width="320" height="1" fill="#000000"/><rect x="85" y="163" width="320" height="1" fill="#000000"/><rect x="85" y="164" width="320" height="1" fill="#000000"/><rect x="85" y="165" width="320" height="1" fill="#000000"/><rect x="85" y="166" width="320" height="1" fill="#000000"/><rect x="85" y="167" width="320" height="1" fill="#000000"/><rect x="85" y="168" width="320" height="1" fill="#000000"/><rect x="85" y="169" width="320" height="1" fill="#000000"/><rect x="85" y="170" width="320" height="1" fill="#000000"/><rect x="64" y="171" width="192" height="1" fill="#000000"/><rect x="299" y="171" width="106" height="1" fill="#000000"/><rect x="64" y="172" width="192" height="1" fill="#000000"/><rect x="299" y="172" width="106" height="1" fill="#000000"/><rect x="64" y="173" width="192" height="1" fill="#000000"/><rect x="299" y="173" width="106" height="1" fill="#000000"/><rect x="64" y="174" width="192" height="1" fill="#000000"/><rect x="299" y="174" width="106" height="1" fill="#000000"/><rect x="64" y="175" width="192" height="1" fill="#000000"/><rect x="299" y="175" width="106" height="1" fill="#000000"/><rect x="64" y="176" width="192" height="1" fill="#000000"/><rect x="299" y="176" width="106" height="1" fill="#000000"/><rect x="64" y="177" width="192" height="1" fill="#000000"/><rect x="299" y="177" width="106" height="1" fill="#000000"/><rect x="64" y="178" width="192" height="1" fill="#000000"/><rect x="299" y="178" width="106" height="1" fill="#000000"/><rect x="64" y="179" width="192" height="1" fill="#000000"/><rect x="299" y="179" width="106" height="1" fill="#000000"/><rect x="64" y="180" width="192" height="1" fill="#000000"/><rect x="299" y="180" width="106" height="1" fill="#000000"/><rect x="64" y="181" width="192" height="1" fill="#000000"/><rect x="299" y="181" width="106" height="1" fill="#000000"/><rect x="64" y="182" width="192" height="1" fill="#000000"/><rect x="299" y="182" width="106" height="1" fill="#000000"/><rect x="64" y="183" width="192" height="1" fill="#000000"/><rect x="299" y="183" width="106" height="1" fill="#000000"/><rect x="64" y="184" width="192" height="1" fill="#000000"/><rect x="299" y="184" width="106" height="1" fill="#000000"/><rect x="64" y="185" width="192" height="1" fill="#000000"/><rect x="299" y="185" width="106" height="1" fill="#000000"/><rect x="64" y="186" width="192" height="1" fill="#000000"/><rect x="299" y="186" width="106" height="1" fill="#000000"/><rect x="64" y="187" width="192" height="1" fill="#000000"/><rect x="299" y="187" width="106" height="1" fill="#000000"/><rect x="64" y="188" width="192" height="1" fill="#000000"/><rect x="299" y="188" width="106" height="1" fill="#000000"/><rect x="64" y="189" width="192" height="1" fill="#000000"/><rect x="299" y="189" width="106" height="1" fill="#000000"/><rect x="64" y="190" width="192" height="1" fill="#000000"/><rect x="299" y="190" width="106" height="1" fill="#000000"/><rect x="64" y="191" width="192" height="1" fill="#000000"/><rect x="299" y="191" width="106" height="1" fill="#000000"/><rect x="43" y="192" width="149" height="1" fill="#000000"/><rect x="235" y="192" width="42" height="1" fill="#000000"/><rect x="320" y="192" width="64" height="1" fill="#000000"/><rect x="43" y="193" width="149" height="1" fill="#000000"/><rect x="235" y="193" width="42" height="1" fill="#000000"/><rect x="320" y="193" width="64" height="1" fill="#000000"/><rect x="43" y="194" width="149" height="1" fill="#000000"/><rect x="235" y="194" width="42" height="1" fill="#000000"/><rect x="320" y="194" width="64" height="1" fill="#000000"/><rect x="43" y="195" width="149" height="1" fill="#000000"/><rect x="235" y="195" width="42" height="1" fill="#000000"/><rect x="320" y="195" width="64" height="1" fill="#000000"/><rect x="43" y="196" width="149" height="1" fill="#000000"/><rect x="235" y="196" width="42" height="1" fill="#000000"/><rect x="320" y="196" width="64" height="1" fill="#000000"/><rect x="43" y="197" width="149" height="1" fill="#000000"/><rect x="235" y="197" width="42" height="1" fill="#000000"/><rect x="320" y="197" width="64" height="1" fill="#000000"/><rect x="43" y="198" width="149" height="1" fill="#000000"/><rect x="235" y="198" width="42" height="1" fill="#000000"/><rect x="320" y="198" width="64" height="1" fill="#000000"/><rect x="43" y="199" width="149" height="1" fill="#000000"/><rect x="235" y="199" width="42" height="1" fill="#000000"/><rect x="320" y="199" width="64" height="1" fill="#000000"/><rect x="43" y="200" width="149" height="1" fill="#000000"/><rect x="235" y="200" width="42" height="1" fill="#000000"/><rect x="320" y="200" width="64" height="1" fill="#000000"/><rect x="43" y="201" width="149" height="1" fill="#000000"/><rect x="235" y="201" width="42" height="1" fill="#000000"/><rect x="320" y="201" width="64" height="1" fill="#000000"/><rect x="43" y="202" width="149" height="1" fill="#000000"/><rect x="235" y="202" width="42" height="1" fill="#000000"/><rect x="320" y="202" width="64" height="1" fill="#000000"/><rect x="43" y="203" width="149" height="1" fill="#000000"/><rect x="235" y="203" width="42" height="1" fill="#000000"/><rect x="320" y="203" width="64" height="1" fill="#000000"/><rect x="43" y="204" width="149" height="1" fill="#000000"/><rect x="235" y="204" width="42" height="1" fill="#000000"/><rect x="320" y="204" width="64" height="1" fill="#000000"/><rect x="43" y="205" width="149" height="1" fill="#000000"/><rect x="235" y="205" width="42" height="1" fill="#000000"/><rect x="320" y="205" width="64" height="1" fill="#000000"/><rect x="43" y="206" width="149" height="1" fill="#000000"/><rect x="235" y="206" width="42" height="1" fill="#000000"/><rect x="320" y="206" width="64" height="1" fill="#000000"/><rect x="43" y="207" width="149" height="1" fill="#000000"/><rect x="235" y="207" width="42" height="1" fill="#000000"/><rect x="320" y="207" width="64" height="1" fill="#000000"/><rect x="43" y="208" width="149" height="1" fill="#000000"/><rect x="235" y="208" width="42" height="1" fill="#000000"/><rect x="320" y="208" width="64" height="1" fill="#000000"/><rect x="43" y="209" width="149" height="1" fill="#000000"/><rect x="235" y="209" width="42" height="1" fill="#000000"/><rect x="320" y="209" width="64" height="1" fill="#000000"/><rect x="43" y="210" width="149" height="1" fill="#000000"/><rect x="235" y="210" width="42" height="1" fill="#000000"/><rect x="320" y="210" width="64" height="1" fill="#000000"/><rect x="43" y="211" width="149" height="1" fill="#000000"/><rect x="235" y="211" width="42" height="1" fill="#000000"/><rect x="320" y="211" width="64" height="1" fill="#000000"/><rect x="43" y="212" width="149" height="1" fill="#000000"/><rect x="235" y="212" width="42" height="1" fill="#000000"/><rect x="320" y="212" width="64" height="1" fill="#000000"/><rect x="85" y="213" width="86" height="1" fill="#000000"/><rect x="341" y="213" width="64" height="1" fill="#000000"/><rect x="85" y="214" width="86" height="1" fill="#000000"/><rect x="341" y="214" width="64" height="1" fill="#000000"/><rect x="85" y="215" width="86" height="1" fill="#000000"/><rect x="341" y="215" width="64" height="1" fill="#000000"/><rect x="85" y="216" width="86" height="1" fill="#000000"/><rect x="341" y="216" width="64" height="1" fill="#000000"/><rect x="85" y="217" width="86" height="1" fill="#000000"/><rect x="341" y="217" width="64" height="1" fill="#000000"/><rect x="85" y="218" width="86" height="1" fill="#000000"/><rect x="341" y="218" width="64" height="1" fill="#000000"/><rect x="85" y="219" width="86" height="1" fill="#000000"/><rect x="341" y="219" width="64" height="1" fill="#000000"/><rect x="85" y="220" width="86" height="1" fill="#000000"/><rect x="341" y="220" width="64" height="1" fill="#000000"/><rect x="85" y="221" width="86" height="1" fill="#000000"/><rect x="341" y="221" width="64" height="1" fill="#000000"/><rect x="85" y="222" width="86" height="1" fill="#000000"/><rect x="341" y="222" width="64" height="1" fill="#000000"/><rect x="85" y="223" width="86" height="1" fill="#000000"/><rect x="341" y="223" width="64" height="1" fill="#000000"/><rect x="85" y="224" width="86" height="1" fill="#000000"/><rect x="341" y="224" width="64" height="1" fill="#000000"/><rect x="85" y="225" width="86" height="1" fill="#000000"/><rect x="341" y="225" width="64" height="1" fill="#000000"/><rect x="85" y="226" width="86" height="1" fill="#000000"/><rect x="341" y="226" width="64" height="1" fill="#000000"/><rect x="85" y="227" width="86" height="1" fill="#000000"/><rect x="341" y="227" width="64" height="1" fill="#000000"/><rect x="85" y="228" width="86" height="1" fill="#000000"/><rect x="341" y="228" width="64" height="1" fill="#000000"/><rect x="85" y="229" width="86" height="1" fill="#000000"/><rect x="341" y="229" width="64" height="1" fill="#000000"/><rect x="85" y="230" width="86" height="1" fill="#000000"/><rect x="341" y="230" width="64" height="1" fill="#000000"/><rect x="85" y="231" width="86" height="1" fill="#000000"/><rect x="341" y="231" width="64" height="1" fill="#000000"/><rect x="85" y="232" width="86" height="1" fill="#000000"/><rect x="341" y="232" width="64" height="1" fill="#000000"/><rect x="85" y="233" width="86" height="1" fill="#000000"/><rect x="341" y="233" width="64" height="1" fill="#000000"/><rect x="85" y="234" width="86" height="1" fill="#000000"/><rect x="341" y="234" width="64" height="1" fill="#000000"/><rect x="64" y="235" width="107" height="1" fill="#000000"/><rect x="341" y="235" width="64" height="1" fill="#000000"/><rect x="64" y="236" width="107" height="1" fill="#000000"/><rect x="341" y="236" width="64" height="1" fill="#000000"/><rect x="64" y="237" width="107" height="1" fill="#000000"/><rect x="341" y="237" width="64" height="1" fill="#000000"/><rect x="64" y="238" width="107" height="1" fill="#000000"/><rect x="341" y="238" width="64" height="1" fill="#000000"/><rect x="64" y="239" width="107" height="1" fill="#000000"/><rect x="341" y="239" width="64" height="1" fill="#000000"/><rect x="64" y="240" width="107" height="1" fill="#000000"/><rect x="341" y="240" width="64" height="1" fill="#000000"/><rect x="64" y="241" width="107" height="1" fill="#000000"/><rect x="341" y="241" width="64" height="1" fill="#000000"/><rect x="64" y="242" width="107" height="1" fill="#000000"/><rect x="341" y="242" width="64" height="1" fill="#000000"/><rect x="64" y="243" width="107" height="1" fill="#000000"/><rect x="341" y="243" width="64" height="1" fill="#000000"/><rect x="64" y="244" width="107" height="1" fill="#000000"/><rect x="341" y="244" width="64" height="1" fill="#000000"/><rect x="64" y="245" width="107" height="1" fill="#000000"/><rect x="341" y="245" width="64" height="1" fill="#000000"/><rect x="64" y="246" width="107" height="1" fill="#000000"/><rect x="341" y="246" width="64" height="1" fill="#000000"/><rect x="64" y="247" width="107" height="1" fill="#000000"/><rect x="341" y="247" width="64" height="1" fill="#000000"/><rect x="64" y="248" width="107" height="1" fill="#000000"/><rect x="341" y="248" width="64" height="1" fill="#000000"/><rect x="64" y="249" width="107" height="1" fill="#000000"/><rect x="341" y="249" width="64" height="1" fill="#000000"/><rect x="64" y="250" width="107" height="1" fill="#000000"/><rect x="341" y="250" width="64" height="1" fill="#000000"/><rect x="64" y="251" width="107" height="1" fill="#000000"/><rect x="341" y="251" width="64" height="1" fill="#000000"/><rect x="64" y="252" width="107" height="1" fill="#000000"/><rect x="341" y="252" width="64" height="1" fill="#000000"/><rect x="64" y="253" width="107" height="1" fill="#000000"/><rect x="341" y="253" width="64" height="1" fill="#000000"/><rect x="64" y="254" width="107" height="1" fill="#000000"/><rect x="341" y="254" width="64" height="1" fill="#000000"/><rect x="64" y="255" width="107" height="1" fill="#000000"/><rect x="341" y="255" width="64" height="1" fill="#000000"/><rect x="64" y="256" width="21" height="1" fill="#000000"/><rect x="107" y="256" width="64" height="1" fill="#000000"/><rect x="341" y="256" width="43" height="1" fill="#000000"/><rect x="64" y="257" width="21" height="1" fill="#000000"/><rect x="107" y="257" width="64" height="1" fill="#000000"/><rect x="341" y="257" width="43" height="1" fill="#000000"/><rect x="64" y="258" width="21" height="1" fill="#000000"/><rect x="107" y="258" width="64" height="1" fill="#000000"/><rect x="341" y="258" width="43" height="1" fill="#000000"/><rect x="64" y="259" width="21" height="1" fill="#000000"/><rect x="107" y="259" width="64" height="1" fill="#000000"/><rect x="341" y="259" width="43" height="1" fill="#000000"/><rect x="64" y="260" width="21" height="1" fill="#000000"/><rect x="107" y="260" width="64" height="1" fill="#000000"/><rect x="341" y="260" width="43" height="1" fill="#000000"/><rect x="64" y="261" width="21" height="1" fill="#000000"/><rect x="107" y="261" width="64" height="1" fill="#000000"/><rect x="341" y="261" width="43" height="1" fill="#000000"/><rect x="64" y="262" width="21" height="1" fill="#000000"/><rect x="107" y="262" width="64" height="1" fill="#000000"/><rect x="341" y="262" width="43" height="1" fill="#000000"/><rect x="64" y="263" width="21" height="1" fill="#000000"/><rect x="107" y="263" width="64" height="1" fill="#000000"/><rect x="341" y="263" width="43" height="1" fill="#000000"/><rect x="64" y="264" width="21" height="1" fill="#000000"/><rect x="107" y="264" width="64" height="1" fill="#000000"/><rect x="341" y="264" width="43" height="1" fill="#000000"/><rect x="64" y="265" width="21" height="1" fill="#000000"/><rect x="107" y="265" width="64" height="1" fill="#000000"/><rect x="341" y="265" width="43" height="1" fill="#000000"/><rect x="64" y="266" width="21" height="1" fill="#000000"/><rect x="107" y="266" width="64" height="1" fill="#000000"/><rect x="341" y="266" width="43" height="1" fill="#000000"/><rect x="64" y="267" width="21" height="1" fill="#000000"/><rect x="107" y="267" width="64" height="1" fill="#000000"/><rect x="341" y="267" width="43" height="1" fill="#000000"/><rect x="64" y="268" width="21" height="1" fill="#000000"/><rect x="107" y="268" width="64" height="1" fill="#000000"/><rect x="341" y="268" width="43" height="1" fill="#000000"/><rect x="64" y="269" width="21" height="1" fill="#000000"/><rect x="107" y="269" width="64" height="1" fill="#000000"/><rect x="341" y="269" width="43" height="1" fill="#000000"/><rect x="64" y="270" width="21" height="1" fill="#000000"/><rect x="107" y="270" width="64" height="1" fill="#000000"/><rect x="341" y="270" width="43" height="1" fill="#000000"/><rect x="64" y="271" width="21" height="1" fill="#000000"/><rect x="107" y="271" width="64" height="1" fill="#000000"/><rect x="341" y="271" width="43" height="1" fill="#000000"/><rect x="64" y="272" width="21" height="1" fill="#000000"/><rect x="107" y="272" width="64" height="1" fill="#000000"/><rect x="341" y="272" width="43" height="1" fill="#000000"/><rect x="64" y="273" width="21" height="1" fill="#000000"/><rect x="107" y="273" width="64" height="1" fill="#000000"/><rect x="341" y="273" width="43" height="1" fill="#000000"/><rect x="64" y="274" width="21" height="1" fill="#000000"/><rect x="107" y="274" width="64" height="1" fill="#000000"/><rect x="341" y="274" width="43" height="1" fill="#000000"/><rect x="64" y="275" width="21" height="1" fill="#000000"/><rect x="107" y="275" width="64" height="1" fill="#000000"/><rect x="341" y="275" width="43" height="1" fill="#000000"/><rect x="64" y="276" width="21" height="1" fill="#000000"/><rect x="107" y="276" width="64" height="1" fill="#000000"/><rect x="341" y="276" width="43" height="1" fill="#000000"/><rect x="85" y="277" width="86" height="1" fill="#000000"/><rect x="341" y="277" width="43" height="1" fill="#000000"/><rect x="85" y="278" width="86" height="1" fill="#000000"/><rect x="341" y="278" width="43" height="1" fill="#000000"/><rect x="85" y="279" width="86" height="1" fill="#000000"/><rect x="341" y="279" width="43" height="1" fill="#000000"/><rect x="85" y="280" width="86" height="1" fill="#000000"/><rect x="341" y="280" width="43" height="1" fill="#000000"/><rect x="85" y="281" width="86" height="1" fill="#000000"/><rect x="341" y="281" width="43" height="1" fill="#000000"/><rect x="85" y="282" width="86" height="1" fill="#000000"/><rect x="341" y="282" width="43" height="1" fill="#000000"/><rect x="85" y="283" width="86" height="1" fill="#000000"/><rect x="341" y="283" width="43" height="1" fill="#000000"/><rect x="85" y="284" width="86" height="1" fill="#000000"/><rect x="341" y="284" width="43" height="1" fill="#000000"/><rect x="85" y="285" width="86" height="1" fill="#000000"/><rect x="341" y="285" width="43" height="1" fill="#000000"/><rect x="85" y="286" width="86" height="1" fill="#000000"/><rect x="341" y="286" width="43" height="1" fill="#000000"/><rect x="85" y="287" width="86" height="1" fill="#000000"/><rect x="341" y="287" width="43" height="1" fill="#000000"/><rect x="85" y="288" width="86" height="1" fill="#000000"/><rect x="341" y="288" width="43" height="1" fill="#000000"/><rect x="85" y="289" width="86" height="1" fill="#000000"/><rect x="341" y="289" width="43" height="1" fill="#000000"/><rect x="85" y="290" width="86" height="1" fill="#000000"/><rect x="341" y="290" width="43" height="1" fill="#000000"/><rect x="85" y="291" width="86" height="1" fill="#000000"/><rect x="341" y="291" width="43" height="1" fill="#000000"/><rect x="85" y="292" width="86" height="1" fill="#000000"/><rect x="341" y="292" width="43" height="1" fill="#000000"/><rect x="85" y="293" width="86" height="1" fill="#000000"/><rect x="341" y="293" width="43" height="1" fill="#000000"/><rect x="85" y="294" width="86" height="1" fill="#000000"/><rect x="341" y="294" width="43" height="1" fill="#000000"/><rect x="85" y="295" width="86" height="1" fill="#000000"/><rect x="341" y="295" width="43" height="1" fill="#000000"/><rect x="85" y="296" width="86" height="1" fill="#000000"/><rect x="341" y="296" width="43" height="1" fill="#000000"/><rect x="85" y="297" width="86" height="1" fill="#000000"/><rect x="341" y="297" width="43" height="1" fill="#000000"/><rect x="85" y="298" width="86" height="1" fill="#000000"/><rect x="341" y="298" width="43" height="1" fill="#000000"/><rect x="85" y="299" width="22" height="1" fill="#000000"/><rect x="363" y="299" width="21" height="1" fill="#000000"/><rect x="85" y="300" width="22" height="1" fill="#000000"/><rect x="363" y="300" width="21" height="1" fill="#000000"/><rect x="85" y="301" width="22" height="1" fill="#000000"/><rect x="363" y="301" width="21" height="1" fill="#000000"/><rect x="85" y="302" width="22" height="1" fill="#000000"/><rect x="363" y="302" width="21" height="1" fill="#000000"/><rect x="85" y="303" width="22" height="1" fill="#000000"/><rect x="363" y="303" width="21" height="1" fill="#000000"/><rect x="85" y="304" width="22" height="1" fill="#000000"/><rect x="363" y="304" width="21" height="1" fill="#000000"/><rect x="85" y="305" width="22" height="1" fill="#000000"/><rect x="363" y="305" width="21" height="1" fill="#000000"/><rect x="85" y="306" width="22" height="1" fill="#000000"/><rect x="363" y="306" width="21" height="1" fill="#000000"/><rect x="85" y="307" width="22" height="1" fill="#000000"/><rect x="363" y="307" width="21" height="1" fill="#000000"/><rect x="85" y="308" width="22" height="1" fill="#000000"/><rect x="363" y="308" width="21" height="1" fill="#000000"/><rect x="85" y="309" width="22" height="1" fill="#000000"/><rect x="363" y="309" width="21" height="1" fill="#000000"/><rect x="85" y="310" width="22" height="1" fill="#000000"/><rect x="363" y="310" width="21" height="1" fill="#000000"/><rect x="85" y="311" width="22" height="1" fill="#000000"/><rect x="363" y="311" width="21" height="1" fill="#000000"/><rect x="85" y="312" width="22" height="1" fill="#000000"/><rect x="363" y="312" width="21" height="1" fill="#000000"/><rect x="85" y="313" width="22" height="1" fill="#000000"/><rect x="363" y="313" width="21" height="1" fill="#000000"/><rect x="85" y="314" width="22" height="1" fill="#000000"/><rect x="363" y="314" width="21" height="1" fill="#000000"/><rect x="85" y="315" width="22" height="1" fill="#000000"/><rect x="363" y="315" width="21" height="1" fill="#000000"/><rect x="85" y="316" width="22" height="1" fill="#000000"/><rect x="363" y="316" width="21" height="1" fill="#000000"/><rect x="85" y="317" width="22" height="1" fill="#000000"/><rect x="363" y="317" width="21" height="1" fill="#000000"/><rect x="85" y="318" width="22" height="1" fill="#000000"/><rect x="363" y="318" width="21" height="1" fill="#000000"/><rect x="85" y="319" width="22" height="1" fill="#000000"/><rect x="363" y="319" width="21" height="1" fill="#000000"/></svg>