<svg xmlns="http://www.w3.org/2000/svg" viewBox="0 0 512 512" width="512" height="512" shape-rendering="crispEdges"><rect x="128" y="213" width="235" height="1" fill="#FFFFFF"/><rect x="128" y="214" width="235" height="1" fill="#FFFFFF"/><rect x="128" y="215" width="235" height="1" fill="#FFFFFF"/><rect x="128" y="216" width="235" height="1" fill="#FFFFFF"/><rect x="128" y="217" width="235" height="1" fill="#FFFFFF"/><rect x="128" y="218" width="235" height="1" fill="#FFFFFF"/><rect x="128" y="219" width="235" height="1" fill="#FFFFFF"/><rect x="128" y="220" width="235" height="1" fill="#FFFFFF"/><rect x="128" y="221" width="235" height="1" fill="#FFFFFF"/><rect x="128" y="222" width="235" height="1" fill="#FFFFFF"/><rect x="128" y="223" width="235" height="1" fill="#FFFFFF"/><rect x="128" y="224" width="235" height="1" fill="#FFFFFF"/><rect x="128" y="225" width="235" height="1" fill="#FFFFFF"/><rect x="128" y="226" width="235" height="1" fill="#FFFFFF"/><rect x="128" y="227" width="235" height="1" fill="#FFFFFF"/><rect x="128" y="228" width="235" height="1" fill="#FFFFFF"/><rect x="128" y="229" width="235" height="1" fill="#FFFFFF"/><rect x="128" y="230" width="235" height="1" fill="#FFFFFF"/><rect x="128" y="231" width="235" height="1" fill="#FFFFFF"/><rect x="128" y="232" width="235" height="1" fill="#FFFFFF"/><rect x="128" y="233" width="235" height="1" fill="#FFFFFF"/><rect x="128" y="234" width="235" height="1" fill="#FFFFFF"/><rect x="149" y="235" width="43" height="1" fill="#FFFFFF"/><rect x="192" y="235" width="64" height="1" fill="#328EFC"/><rect x="256" y="235" width="21" height="1" fill="#FFFFFF"/><rect x="277" y="235" width="64" height="1" fill="#FD3233"/><rect x="341" y="235" width="22" height="1" fill="#FFFFFF"/><rect x="149" y="236" width="43" height="1" fill="#FFFFFF"/><rect x="192" y="236" width="64" height="1" fill="#328EFC"/><rect x="256" y="236" width="21" height="1" fill="#FFFFFF"/><rect x="277" y="236" width="64" height="1" fill="#FD3233"/><rect x="341" y="236" width="22" height="1" fill="#FFFFFF"/><rect x="149" y="237" width="43" height="1" fill="#FFFFFF"/><rect x="192" y="237" width="64" height="1" fill="#328EFC"/><rect x="256" y="237" width="21" height="1" fill="#FFFFFF"/><rect x="277" y="237" width="64" height="1" fill="#FD3233"/><rect x="341" y="237" width="22" height="1" fill="#FFFFFF"/><rect x="149" y="238" width="43" height="1" fill="#FFFFFF"/><rect x="192" y="238" width="64" height="1" fill="#328EFC"/><rect x="256" y="238" width="21" height="1" fill="#FFFFFF"/><rect x="277" y="238" width="64" height="1" fill="#FD3233"/><rect x="341" y="238" width="22" height="1" fill="#FFFFFF"/><rect x="149" y="239" width="43" height="1" fill="#FFFFFF"/><rect x="192" y="239" width="64" height="1" fill="#328EFC"/><rect x="256" y="239" width="21" height="1" fill="#FFFFFF"/><rect x="277" y="239" width="64" height="1" fill="#FD3233"/><rect x="341" y="239" width="22" height="1" fill="#FFFFFF"/><rect x="149" y="240" width="43" height="1" fill="#FFFFFF"/><rect x="192" y="240" width="64" height="1" fill="#328EFC"/><rect x="256" y="240" width="21" height="1" fill="#FFFFFF"/><rect x="277" y="240" width="64" height="1" fill="#FD3233"/><rect x="341" y="240" width="22" height="1" fill="#FFFFFF"/><rect x="149" y="241" width="43" height="1" fill="#FFFFFF"/><rect x="192" y="241" width="64" height="1" fill="#328EFC"/><rect x="256" y="241" width="21" height="1" fill="#FFFFFF"/><rect x="277" y="241" width="64" height="1" fill="#FD3233"/><rect x="341" y="241" width="22" height="1" fill="#FFFFFF"/><rect x="149" y="242" width="43" height="1" fill="#FFFFFF"/><rect x="192" y="242" width="64" height="1" fill="#328EFC"/><rect x="256" y="242" width="21" height="1" fill="#FFFFFF"/><rect x="277" y="242" width="64" height="1" fill="#FD3233"/><rect x="341" y="242" width="22" height="1" fill="#FFFFFF"/><rect x="149" y="243" width="43" height="1" fill="#FFFFFF"/><rect x="192" y="243" width="64" height="1" fill="#328EFC"/><rect x="256" y="243" width="21" height="1" fill="#FFFFFF"/><rect x="277" y="243" width="64" height="1" fill="#FD3233"/><rect x="341" y="243" width="22" height="1" fill="#FFFFFF"/><rect x="149" y="244" width="43" height="1" fill="#FFFFFF"/><rect x="192" y="244" width="64" height="1" fill="#328EFC"/><rect x="256" y="244" width="21" height="1" fill="#FFFFFF"/><rect x="277" y="244" width="64" height="1" fill="#FD3233"/><rect x="341" y="244" width="22" height="1" fill="#FFFFFF"/><rect x="149" y="245" width="43" height="1" fill="#FFFFFF"/><rect x="192" y="245" width="64" height="1" fill="#328EFC"/><rect x="256" y="245" width="21" height="1" fill="#FFFFFF"/><rect x="277" y="245" width="64" height="1" fill="#FD3233"/><rect x="341" y="245" width="22" height="1" fill="#FFFFFF"/><rect x="149" y="246" width="43" height="1" fill="#FFFFFF"/><rect x="192" y="246" width="64" height="1" fill="#328EFC"/><rect x="256" y="246" width="21" height="1" fill="#FFFFFF"/><rect x="277" y="246" width="64" height="1" fill="#FD3233"/><rect x="341" y="246" width="22" height="1" fill="#FFFFFF"/><rect x="149" y="247" width="43" height="1" fill="#FFFFFF"/><rect x="192" y="247" width="64" height="1" fill="#328EFC"/><rect x="256" y="247" width="21" height="1" fill="#FFFFFF"/><rect x="277" y="247" width="64" height="1" fill="#FD3233"/><rect x="341" y="247" width="22" height="1" fill="#FFFFFF"/><rect x="149" y="248" width="43" height="1" fill="#FFFFFF"/><rect x="192" y="248" width="64" height="1" fill="#328EFC"/><rect x="256" y="248" width="21" height="1" fill="#FFFFFF"/><rect x="277" y="248" width="64" height="1" fill="#FD3233"/><rect x="341" y="248" width="22" height="1" fill="#FFFFFF"/><rect x="149" y="249" width="43" height="1" fill="#FFFFFF"/><rect x="192" y="249" width="64" height="1" fill="#328EFC"/><rect x="256" y="249" width="21" height="1" fill="#FFFFFF"/><rect x="277" y="249" width="64" height="1" fill="#FD3233"/><rect x="341" y="249" width="22" height="1" fill="#FFFFFF"/><rect x="149" y="250" width="43" height="1" fill="#FFFFFF"/><rect x="192" y="250" width="64" height="1" fill="#328EFC"/><rect x="256" y="250" width="21" height="1" fill="#FFFFFF"/><rect x="277" y="250" width="64" height="1" fill="#FD3233"/><rect x="341" y="250" width="22" height="1" fill="#FFFFFF"/><rect x="149" y="251" width="43" height="1" fill="#FFFFFF"/><rect x="192" y="251" width="64" height="1" fill="#328EFC"/><rect x="256" y="251" width="21" height="1" fill="#FFFFFF"/><rect x="277" y="251" width="64" height="1" fill="#FD3233"/><rect x="341" y="251" width="22" height="1" fill="#FFFFFF"/><rect x="149" y="252" width="43" height="1" fill="#FFFFFF"/><rect x="192" y="252" width="64" height="1" fill="#328EFC"/><rect x="256" y="252" width="21" height="1" fill="#FFFFFF"/><rect x="277" y="252" width="64" height="1" fill="#FD3233"/><rect x="341" y="252" width="22" height="1" fill="#FFFFFF"/><rect x="149" y="253" width="43" height="1" fill="#FFFFFF"/><rect x="192" y="253" width="64" height="1" fill="#328EFC"/><rect x="256" y="253" width="21" height="1" fill="#FFFFFF"/><rect x="277" y="253" width="64" height="1" fill="#FD3233"/><rect x="341" y="253" width="22" height="1" fill="#FFFFFF"/><rect x="149" y="254" width="43" height="1" fill="#FFFFFF"/><rect x="192" y="254" width="64" height="1" fill="#328EFC"/><rect x="256" y="254" width="21" height="1" fill="#FFFFFF"/><rect x="277" y="254" width="64" height="1" fill="#FD3233"/><rect x="341" y="254" width="22" height="1" fill="#FFFFFF"/><rect x="149" y="255" width="43" height="1" fill="#FFFFFF"/><rect x="192" y="255" width="64" height="1" fill="#328EFC"/><rect x="256" y="255" width="21" height="1" fill="#FFFFFF"/><rect x="277" y="255" width="64" height="1" fill="#FD3233"/><rect x="341" y="255" width="22" height="1" fill="#FFFFFF"/><rect x="171" y="256" width="21" height="1" fill="#FFFFFF"/><rect x="192" y="256" width="64" height="1" fill="#328EFC"/><rect x="256" y="256" width="21" height="1" fill="#FFFFFF"/><rect x="277" y="256" width="64" height="1" fill="#FD3233"/><rect x="341" y="256" width="22" height="1" fill="#FFFFFF"/><rect x="171" y="257" width="21" height="1" fill="#FFFFFF"/><rect x="192" y="257" width="64" height="1" fill="#328EFC"/><rect x="256" y="257" width="21" height="1" fill="#FFFFFF"/><rect x="277" y="257" width="64" height="1" fill="#FD3233"/><rect x="341" y="257" width="22" height="1" fill="#FFFFFF"/><rect x="171" y="258" width="21" height="1" fill="#FFFFFF"/><rect x="192" y="258" width="64" height="1" fill="#328EFC"/><rect x="256" y="258" width="21" height="1" fill="#FFFFFF"/><rect x="277" y="258" width="64" height="1" fill="#FD3233"/><rect x="341" y="258" width="22" height="1" fill="#FFFFFF"/><rect x="171" y="259" width="21" height="1" fill="#FFFFFF"/><rect x="192" y="259" width="64" height="1" fill="#328EFC"/><rect x="256" y="259" width="21" height="1" fill="#FFFFFF"/><rect x="277" y="259" width="64" height="1" fill="#FD3233"/><rect x="341" y="259" width="22" height="1" fill="#FFFFFF"/><rect x="171" y="260" width="21" height="1" fill="#FFFFFF"/><rect x="192" y="260" width="64" height="1" fill="#328EFC"/><rect x="256" y="260" width="21" height="1" fill="#FFFFFF"/><rect x="277" y="260" width="64" height="1" fill="#FD3233"/><rect x="341" y="260" width="22" height="1" fill="#FFFFFF"/><rect x="171" y="261" width="21" height="1" fill="#FFFFFF"/><rect x="192" y="261" width="64" height="1" fill="#328EFC"/><rect x="256" y="261" width="21" height="1" fill="#FFFFFF"/><rect x="277" y="261" width="64" height="1" fill="#FD3233"/><rect x="341" y="261" width="22" height="1" fill="#FFFFFF"/><rect x="171" y="262" width="21" height="1" fill="#FFFFFF"/><rect x="192" y="262" width="64" height="1" fill="#328EFC"/><rect x="256" y="262" width="21" height="1" fill="#FFFFFF"/><rect x="277" y="262" width="64" height="1" fill="#FD3233"/><rect x="341" y="262" width="22" height="1" fill="#FFFFFF"/><rect x="171" y="263" width="21" height="1" fill="#FFFFFF"/><rect x="192" y="263" width="64" height="1" fill="#328EFC"/><rect x="256" y="263" width="21" height="1" fill="#FFFFFF"/><rect x="277" y="263" width="64" height="1" fill="#FD3233"/><rect x="341" y="263" width="22" height="1" fill="#FFFFFF"/><rect x="171" y="264" width="21" height="1" fill="#FFFFFF"/><rect x="192" y="264" width="64" height="1" fill="#328EFC"/><rect x="256" y="264" width="21" height="1" fill="#FFFFFF"/><rect x="277" y="264" width="64" height="1" fill="#FD3233"/><rect x="341" y="264" width="22" height="1" fill="#FFFFFF"/><rect x="171" y="265" width="21" height="1" fill="#FFFFFF"/><rect x="192" y="265" width="64" height="1" fill="#328EFC"/><rect x="256" y="265" width="21" height="1" fill="#FFFFFF"/><rect x="277" y="265" width="64" height="1" fill="#FD3233"/><rect x="341" y="265" width="22" height="1" fill="#FFFFFF"/><rect x="171" y="266" width="21" height="1" fill="#FFFFFF"/><rect x="192" y="266" width="64" height="1" fill="#328EFC"/><rect x="256" y="266" width="21" height="1" fill="#FFFFFF"/><rect x="277" y="266" width="64" height="1" fill="#FD3233"/><rect x="341" y="266" width="22" height="1" fill="#FFFFFF"/><rect x="171" y="267" width="21" height="1" fill="#FFFFFF"/><rect x="192" y="267" width="64" height="1" fill="#328EFC"/><rect x="256" y="267" width="21" height="1" fill="#FFFFFF"/><rect x="277" y="267" width="64" height="1" fill="#FD3233"/><rect x="341" y="267" width="22" height="1" fill="#FFFFFF"/><rect x="171" y="268" width="21" height="1" fill="#FFFFFF"/><rect x="192" y="268" width="64" height="1" fill="#328EFC"/><rect x="256" y="268" width="21" height="1" fill="#FFFFFF"/><rect x="277" y="268" width="64" height="1" fill="#FD3233"/><rect x="341" y="268" width="22" height="1" fill="#FFFFFF"/><rect x="171" y="269" width="21" height="1" fill="#FFFFFF"/><rect x="192" y="269" width="64" height="1" fill="#328EFC"/><rect x="256" y="269" width="21" height="1" fill="#FFFFFF"/><rect x="277" y="269" width="64" height="1" fill="#FD3233"/><rect x="341" y="269" width="22" height="1" fill="#FFFFFF"/><rect x="171" y="270" width="21" height="1" fill="#FFFFFF"/><rect x="192" y="270" width="64" height="1" fill="#328EFC"/><rect x="256" y="270" width="21" height="1" fill="#FFFFFF"/><rect x="277" y="270" width="64" height="1" fill="#FD3233"/><rect x="341" y="270" width="22" height="1" fill="#FFFFFF"/><rect x="171" y="271" width="21" height="1" fill="#FFFFFF"/><rect x="192" y="271" width="64" height="1" fill="#328EFC"/><rect x="256" y="271" width="21" height="1" fill="#FFFFFF"/><rect x="277" y="271" width="64" height="1" fill="#FD3233"/><rect x="341" y="271" width="22" height="1" fill="#FFFFFF"/><rect x="171" y="272" width="21" height="1" fill="#FFFFFF"/><rect x="192" y="272" width="64" height="1" fill="#328EFC"/><rect x="256" y="272" width="21" height="1" fill="#FFFFFF"/><rect x="277" y="272" width="64" height="1" fill="#FD3233"/><rect x="341" y="272" width="22" height="1" fill="#FFFFFF"/><rect x="171" y="273" width="21" height="1" fill="#FFFFFF"/><rect x="192" y="273" width="64" height="1" fill="#328EFC"/><rect x="256" y="273" width="21" height="1" fill="#FFFFFF"/><rect x="277" y="273" width="64" height="1" fill="#FD3233"/><rect x="341" y="273" width="22" height="1" fill="#FFFFFF"/><rect x="171" y="274" width="21" height="1" fill="#FFFFFF"/><rect x="192" y="274" width="64" height="1" fill="#328EFC"/><rect x="256" y="274" width="21" height="1" fill="#FFFFFF"/><rect x="277" y="274" width="64" height="1" fill="#FD3233"/><rect x="341" y="274" width="22" height="1" fill="#FFFFFF"/><rect x="171" y="275" width="21" height="1" fill="#FFFFFF"/><rect x="192" y="275" width="64" height="1" fill="#328EFC"/><rect x="256" y="275" width="21" height="1" fill="#FFFFFF"/><rect x="277" y="275" width="64" height="1" fill="#FD3233"/><rect x="341" y="275" width="22" height="1" fill="#FFFFFF"/><rect x="171" y="276" width="21" height="1" fill="#FFFFFF"/><rect x="192" y="276" width="64" height="1" fill="#328EFC"/><rect x="256" y="276" width="21" height="1" fill="#FFFFFF"/><rect x="277" y="276" width="64" height="1" fill="#FD3233"/><rect x="341" y="276" width="22" height="1" fill="#FFFFFF"/><rect x="171" y="277" width="192" height="1" fill="#FFFFFF"/><rect x="171" y="278" width="192" height="1" fill="#FFFFFF"/><rect x="171" y="279" width="192" height="1" fill="#FFFFFF"/><rect x="171" y="280" width="192" height="1" fill="#FFFFFF"/><rect x="171" y="281" width="192" height="1" fill="#FFFFFF"/><rect x="171" y="282" width="192" height="1" fill="#FFFFFF"/><rect x="171" y="283" width="192" height="1" fill="#FFFFFF"/><rect x="171" y="284" width="192" height="1" fill="#FFFFFF"/><rect x="171" y="285" width="192" height="1" fill="#FFFFFF"/><rect x="171" y="286" width="192" height="1" fill="#FFFFFF"/><rect x="171" y="287" width="192" height="1" fill="#FFFFFF"/><rect x="171" y="288" width="192" height="1" fill="#FFFFFF"/><rect x="171" y="289" width="192" height="1" fill="#FFFFFF"/><rect x="171" y="290" width="192" height="1" fill="#FFFFFF"/><rect x="171" y="291" width="192" height="1" fill="#FFFFFF"/><rect x="171" y="292" width="192" height="1" fill="#FFFFFF"/><rect x="171" y="293" width="192" height="1" fill="#FFFFFF"/><rect x="171" y="294" width="192" height="1" fill="#FFFFFF"/><rect x="171" y="295" width="192" height="1" fill="#FFFFFF"/><rect x="171" y="296" width="192" height="1" fill="#FFFFFF"/><rect x="171" y="297" width="192" height="1" fill="#FFFFFF"/><rect x="171" y="298" width="192" height="1" fill="#FFFFFF"/></svg>