<svg xmlns="http://www.w3.org/2000/svg" viewBox="0 0 512 512" width="512" height="512" shape-rendering="crispEdges"><rect x="149" y="192" width="107" height="1" fill="#000000"/><rect x="277" y="192" width="107" height="1" fill="#000000"/><rect x="149" y="193" width="107" height="1" fill="#000000"/><rect x="277" y="193" width="107" height="1" fill="#000000"/><rect x="149" y="194" width="107" height="1" fill="#000000"/><rect x="277" y="194" width="107" height="1" fill="#000000"/><rect x="149" y="195" width="107" height="1" fill="#000000"/><rect x="277" y="195" width="107" height="1" fill="#000000"/><rect x="149" y="196" width="107" height="1" fill="#000000"/><rect x="277" y="196" width="107" height="1" fill="#000000"/><rect x="149" y="197" width="107" height="1" fill="#000000"/><rect x="277" y="197" width="107" height="1" fill="#000000"/><rect x="149" y="198" width="107" height="1" fill="#000000"/><rect x="277" y="198" width="107" height="1" fill="#000000"/><rect x="149" y="199" width="107" height="1" fill="#000000"/><rect x="277" y="199" width="107" height="1" fill="#000000"/><rect x="149" y="200" width="107" height="1" fill="#000000"/><rect x="277" y="200" width="107" height="1" fill="#000000"/><rect x="149" y="201" width="107" height="1" fill="#000000"/><rect x="277" y="201" width="107" height="1" fill="#000000"/><rect x="149" y="202" width="107" height="1" fill="#000000"/><rect x="277" y="202" width="107" height="1" fill="#000000"/><rect x="149" y="203" width="107" height="1" fill="#000000"/><rect x="277" y="203" width="107" height="1" fill="#000000"/><rect x="149" y="204" width="107" height="1" fill="#000000"/><rect x="277" y="204" width="107" height="1" fill="#000000"/><rect x="149" y="205" width="107" height="1" fill="#000000"/><rect x="277" y="205" width="107" height="1" fill="#000000"/><rect x="149" y="206" width="107" height="1" fill="#000000"/><rect x="277" y="206" width="107" height="1" fill="#000000"/><rect x="149" y="207" width="107" height="1" fill="#000000"/><rect x="277" y="207" width="107" height="1" fill="#000000"/><rect x="149" y="208" width="107" height="1" fill="#000000"/><rect x="277" y="208" width="107" height="1" fill="#000000"/><rect x="149" y="209" width="107" height="1" fill="#000000"/><rect x="277" y="209" width="107" height="1" fill="#000000"/><rect x="149" y="210" width="107" height="1" fill="#000000"/><rect x="277" y="210" width="107" height="1" fill="#000000"/><rect x="149" y="211" width="107" height="1" fill="#000000"/><rect x="277" y="211" width="107" height="1" fill="#000000"/><rect x="149" y="212" width="107" height="1" fill="#000000"/><rect x="277" y="212" width="107" height="1" fill="#000000"/><rect x="149" y="213" width="22" height="1" fill="#000000"/><rect x="171" y="213" width="64" height="1" fill="#670D45"/><rect x="235" y="213" width="64" height="1" fill="#000000"/><rect x="299" y="213" width="64" height="1" fill="#670D45"/><rect x="363" y="213" width="21" height="1" fill="#000000"/><rect x="149" y="214" width="22" height="1" fill="#000000"/><rect x="171" y="214" width="64" height="1" fill="#670D45"/><rect x="235" y="214" width="64" height="1" fill="#000000"/><rect x="299" y="214" width="64" height="1" fill="#670D45"/><rect x="363" y="214" width="21" height="1" fill="#000000"/><rect x="149" y="215" width="22" height="1" fill="#000000"/><rect x="171" y="215" width="64" height="1" fill="#670D45"/><rect x="235" y="215" width="64" height="1" fill="#000000"/><rect x="299" y="215" width="64" height="1" fill="#670D45"/><rect x="363" y="215" width="21" height="1" fill="#000000"/><rect x="149" y="216" width="22" height="1" fill="#000000"/><rect x="171" y="216" width="64" height="1" fill="#670D45"/><rect x="235" y="216" width="64" height="1" fill="#000000"/><rect x="299" y="216" width="64" height="1" fill="#670D45"/><rect x="363" y="216" width="21" height="1" fill="#000000"/><rect x="149" y="217" width="22" height="1" fill="#000000"/><rect x="171" y="217" width="64" height="1" fill="#670D45"/><rect x="235" y="217" width="64" height="1" fill="#000000"/><rect x="299" y="217" width="64" height="1" fill="#670D45"/><rect x="363" y="217" width="21" height="1" fill="#000000"/><rect x="149" y="218" width="22" height="1" fill="#000000"/><rect x="171" y="218" width="64" height="1" fill="#670D45"/><rect x="235" y="218" width="64" height="1" fill="#000000"/><rect x="299" y="218" width="64" height="1" fill="#670D45"/><rect x="363" y="218" width="21" height="1" fill="#000000"/><rect x="149" y="219" width="22" height="1" fill="#000000"/><rect x="171" y="219" width="64" height="1" fill="#670D45"/><rect x="235" y="219" width="64" height="1" fill="#000000"/><rect x="299" y="219" width="64" height="1" fill="#670D45"/><rect x="363" y="219" width="21" height="1" fill="#000000"/><rect x="149" y="220" width="22" height="1" fill="#000000"/><rect x="171" y="220" width="64" height="1" fill="#670D45"/><rect x="235" y="220" width="64" height="1" fill="#000000"/><rect x="299" y="220" width="64" height="1" fill="#670D45"/><rect x="363" y="220" width="21" height="1" fill="#000000"/><rect x="149" y="221" width="22" height="1" fill="#000000"/><rect x="171" y="221" width="64" height="1" fill="#670D45"/><rect x="235" y="221" width="64" height="1" fill="#000000"/><rect x="299" y="221" width="64" height="1" fill="#670D45"/><rect x="363" y="221" width="21" height="1" fill="#000000"/><rect x="149" y="222" width="22" height="1" fill="#000000"/><rect x="171" y="222" width="64" height="1" fill="#670D45"/><rect x="235" y="222" width="64" height="1" fill="#000000"/><rect x="299" y="222" width="64" height="1" fill="#670D45"/><rect x="363" y="222" width="21" height="1" fill="#000000"/><rect x="149" y="223" width="22" height="1" fill="#000000"/><rect x="171" y="223" width="64" height="1" fill="#670D45"/><rect x="235" y="223" width="64" height="1" fill="#000000"/><rect x="299" y="223" width="64" height="1" fill="#670D45"/><rect x="363" y="223" width="21" height="1" fill="#000000"/><rect x="149" y="224" width="22" height="1" fill="#000000"/><rect x="171" y="224" width="64" height="1" fill="#670D45"/><rect x="235" y="224" width="64" height="1" fill="#000000"/><rect x="299" y="224" width="64" height="1" fill="#670D45"/><rect x="363" y="224" width="21" height="1" fill="#000000"/><rect x="149" y="225" width="22" height="1" fill="#000000"/><rect x="171" y="225" width="64" height="1" fill="#670D45"/><rect x="235" y="225" width="64" height="1" fill="#000000"/><rect x="299" y="225" width="64" height="1" fill="#670D45"/><rect x="363" y="225" width="21" height="1" fill="#000000"/><rect x="149" y="226" width="22" height="1" fill="#000000"/><rect x="171" y="226" width="64" height="1" fill="#670D45"/><rect x="235" y="226" width="64" height="1" fill="#000000"/><rect x="299" y="226" width="64" height="1" fill="#670D45"/><rect x="363" y="226" width="21" height="1" fill="#000000"/><rect x="149" y="227" width="22" height="1" fill="#000000"/><rect x="171" y="227" width="64" height="1" fill="#670D45"/><rect x="235" y="227" width="64" height="1" fill="#000000"/><rect x="299" y="227" width="64" height="1" fill="#670D45"/><rect x="363" y="227" width="21" height="1" fill="#000000"/><rect x="149" y="228" width="22" height="1" fill="#000000"/><rect x="171" y="228" width="64" height="1" fill="#670D45"/><rect x="235" y="228" width="64" height="1" fill="#000000"/><rect x="299" y="228" width="64" height="1" fill="#670D45"/><rect x="363" y="228" width="21" height="1" fill="#000000"/><rect x="149" y="229" width="22" height="1" fill="#000000"/><rect x="171" y="229" width="64" height="1" fill="#670D45"/><rect x="235" y="229" width="64" height="1" fill="#000000"/><rect x="299" y="229" width="64" height="1" fill="#670D45"/><rect x="363" y="229" width="21" height="1" fill="#000000"/><rect x="149" y="230" width="22" height="1" fill="#000000"/><rect x="171" y="230" width="64" height="1" fill="#670D45"/><rect x="235" y="230" width="64" height="1" fill="#000000"/><rect x="299" y="230" width="64" height="1" fill="#670D45"/><rect x="363" y="230" width="21" height="1" fill="#000000"/><rect x="149" y="231" width="22" height="1" fill="#000000"/><rect x="171" y="231" width="64" height="1" fill="#670D45"/><rect x="235" y="231" width="64" height="1" fill="#000000"/><rect x="299" y="231" width="64" height="1" fill="#670D45"/><rect x="363" y="231" width="21" height="1" fill="#000000"/><rect x="149" y="232" width="22" height="1" fill="#000000"/><rect x="171" y="232" width="64" height="1" fill="#670D45"/><rect x="235" y="232" width="64" height="1" fill="#000000"/><rect x="299" y="232" width="64" height="1" fill="#670D45"/><rect x="363" y="232" width="21" height="1" fill="#000000"/><rect x="149" y="233" width="22" height="1" fill="#000000"/><rect x="171" y="233" width="64" height="1" fill="#670D45"/><rect x="235" y="233" width="64" height="1" fill="#000000"/><rect x="299" y="233" width="64" height="1" fill="#670D45"/><rect x="363" y="233" width="21" height="1" fill="#000000"/><rect x="149" y="234" width="22" height="1" fill="#000000"/><rect x="171" y="234" width="64" height="1" fill="#670D45"/><rect x="235" y="234" width="64" height="1" fill="#000000"/><rect x="299" y="234" width="64" height="1" fill="#670D45"/><rect x="363" y="234" width="21" height="1" fill="#000000"/><rect x="128" y="235" width="43" height="1" fill="#000000"/><rect x="171" y="235" width="64" height="1" fill="#8B0D5C"/><rect x="235" y="235" width="21" height="1" fill="#000000"/><rect x="277" y="235" width="22" height="1" fill="#000000"/><rect x="299" y="235" width="64" height="1" fill="#8B0D5C"/><rect x="363" y="235" width="21" height="1" fill="#000000"/><rect x="128" y="236" width="43" height="1" fill="#000000"/><rect x="171" y="236" width="64" height="1" fill="#8B0D5C"/><rect x="235" y="236" width="21" height="1" fill="#000000"/><rect x="277" y="236" width="22" height="1" fill="#000000"/><rect x="299" y="236" width="64" height="1" fill="#8B0D5C"/><rect x="363" y="236" width="21" height="1" fill="#000000"/><rect x="128" y="237" width="43" height="1" fill="#000000"/><rect x="171" y="237" width="64" height="1" fill="#8B0D5C"/><rect x="235" y="237" width="21" height="1" fill="#000000"/><rect x="277" y="237" width="22" height="1" fill="#000000"/><rect x="299" y="237" width="64" height="1" fill="#8B0D5C"/><rect x="363" y="237" width="21" height="1" fill="#000000"/><rect x="128" y="238" width="43" height="1" fill="#000000"/><rect x="171" y="238" width="64" height="1" fill="#8B0D5C"/><rect x="235" y="238" width="21" height="1" fill="#000000"/><rect x="277" y="238" width="22" height="1" fill="#000000"/><rect x="299" y="238" width="64" height="1" fill="#8B0D5C"/><rect x="363" y="238" width="21" height="1" fill="#000000"/><rect x="128" y="239" width="43" height="1" fill="#000000"/><rect x="171" y="239" width="64" height="1" fill="#8B0D5C"/><rect x="235" y="239" width="21" height="1" fill="#000000"/><rect x="277" y="239" width="22" height="1" fill="#000000"/><rect x="299" y="239" width="64" height="1" fill="#8B0D5C"/><rect x="363" y="239" width="21" height="1" fill="#000000"/><rect x="128" y="240" width="43" height="1" fill="#000000"/><rect x="171" y="240" width="64" height="1" fill="#8B0D5C"/><rect x="235" y="240" width="21" height="1" fill="#000000"/><rect x="277" y="240" width="22" height="1" fill="#000000"/><rect x="299" y="240" width="64" height="1" fill="#8B0D5C"/><rect x="363" y="240" width="21" height="1" fill="#000000"/><rect x="128" y="241" width="43" height="1" fill="#000000"/><rect x="171" y="241" width="64" height="1" fill="#8B0D5C"/><rect x="235" y="241" width="21" height="1" fill="#000000"/><rect x="277" y="241" width="22" height="1" fill="#000000"/><rect x="299" y="241" width="64" height="1" fill="#8B0D5C"/><rect x="363" y="241" width="21" height="1" fill="#000000"/><rect x="128" y="242" width="43" height="1" fill="#000000"/><rect x="171" y="242" width="64" height="1" fill="#8B0D5C"/><rect x="235" y="242" width="21" height="1" fill="#000000"/><rect x="277" y="242" width="22" height="1" fill="#000000"/><rect x="299" y="242" width="64" height="1" fill="#8B0D5C"/><rect x="363" y="242" width="21" height="1" fill="#000000"/><rect x="128" y="243" width="43" height="1" fill="#000000"/><rect x="171" y="243" width="64" height="1" fill="#8B0D5C"/><rect x="235" y="243" width="21" height="1" fill="#000000"/><rect x="277" y="243" width="22" height="1" fill="#000000"/><rect x="299" y="243" width="64" height="1" fill="#8B0D5C"/><rect x="363" y="243" width="21" height="1" fill="#000000"/><rect x="128" y="244" width="43" height="1" fill="#000000"/><rect x="171" y="244" width="64" height="1" fill="#8B0D5C"/><rect x="235" y="244" width="21" height="1" fill="#000000"/><rect x="277" y="244" width="22" height="1" fill="#000000"/><rect x="299" y="244" width="64" height="1" fill="#8B0D5C"/><rect x="363" y="244" width="21" height="1" fill="#000000"/><rect x="128" y="245" width="43" height="1" fill="#000000"/><rect x="171" y="245" width="64" height="1" fill="#8B0D5C"/><rect x="235" y="245" width="21" height="1" fill="#000000"/><rect x="277" y="245" width="22" height="1" fill="#000000"/><rect x="299" y="245" width="64" height="1" fill="#8B0D5C"/><rect x="363" y="245" width="21" height="1" fill="#000000"/><rect x="128" y="246" width="43" height="1" fill="#000000"/><rect x="171" y="246" width="64" height="1" fill="#8B0D5C"/><rect x="235" y="246" width="21" height="1" fill="#000000"/><rect x="277" y="246" width="22" height="1" fill="#000000"/><rect x="299" y="246" width="64" height="1" fill="#8B0D5C"/><rect x="363" y="246" width="21" height="1" fill="#000000"/><rect x="128" y="247" width="43" height="1" fill="#000000"/><rect x="171" y="247" width="64" height="1" fill="#8B0D5C"/><rect x="235" y="247" width="21" height="1" fill="#000000"/><rect x="277" y="247" width="22" height="1" fill="#000000"/><rect x="299" y="247" width="64" height="1" fill="#8B0D5C"/><rect x="363" y="247" width="21" height="1" fill="#000000"/><rect x="128" y="248" width="43" height="1" fill="#000000"/><rect x="171" y="248" width="64" height="1" fill="#8B0D5C"/><rect x="235" y="248" width="21" height="1" fill="#000000"/><rect x="277" y="248" width="22" height="1" fill="#000000"/><rect x="299" y="248" width="64" height="1" fill="#8B0D5C"/><rect x="363" y="248" width="21" height="1" fill="#000000"/><rect x="128" y="249" width="43" height="1" fill="#000000"/><rect x="171" y="249" width="64" height="1" fill="#8B0D5C"/><rect x="235" y="249" width="21" height="1" fill="#000000"/><rect x="277" y="249" width="22" height="1" fill="#000000"/><rect x="299" y="249" width="64" height="1" fill="#8B0D5C"/><rect x="363" y="249" width="21" height="1" fill="#000000"/><rect x="128" y="250" width="43" height="1" fill="#000000"/><rect x="171" y="250" width="64" height="1" fill="#8B0D5C"/><rect x="235" y="250" width="21" height="1" fill="#000000"/><rect x="277" y="250" width="22" height="1" fill="#000000"/><rect x="299" y="250" width="64" height="1" fill="#8B0D5C"/><rect x="363" y="250" width="21" height="1" fill="#000000"/><rect x="128" y="251" width="43" height="1" fill="#000000"/><rect x="171" y="251" width="64" height="1" fill="#8B0D5C"/><rect x="235" y="251" width="21" height="1" fill="#000000"/><rect x="277" y="251" width="22" height="1" fill="#000000"/><rect x="299" y="251" width="64" height="1" fill="#8B0D5C"/><rect x="363" y="251" width="21" height="1" fill="#000000"/><rect x="128" y="252" width="43" height="1" fill="#000000"/><rect x="171" y="252" width="64" height="1" fill="#8B0D5C"/><rect x="235" y="252" width="21" height="1" fill="#000000"/><rect x="277" y="252" width="22" height="1" fill="#000000"/><rect x="299" y="252" width="64" height="1" fill="#8B0D5C"/><rect x="363" y="252" width="21" height="1" fill="#000000"/><rect x="128" y="253" width="43" height="1" fill="#000000"/><rect x="171" y="253" width="64" height="1" fill="#8B0D5C"/><rect x="235" y="253" width="21" height="1" fill="#000000"/><rect x="277" y="253" width="22" height="1" fill="#000000"/><rect x="299" y="253" width="64" height="1" fill="#8B0D5C"/><rect x="363" y="253" width="21" height="1" fill="#000000"/><rect x="128" y="254" width="43" height="1" fill="#000000"/><rect x="171" y="254" width="64" height="1" fill="#8B0D5C"/><rect x="235" y="254" width="21" height="1" fill="#000000"/><rect x="277" y="254" width="22" height="1" fill="#000000"/><rect x="299" y="254" width="64" height="1" fill="#8B0D5C"/><rect x="363" y="254" width="21" height="1" fill="#000000"/><rect x="128" y="255" width="43" height="1" fill="#000000"/><rect x="171" y="255" width="64" height="1" fill="#8B0D5C"/><rect x="235" y="255" width="21" height="1" fill="#000000"/><rect x="277" y="255" width="22" height="1" fill="#000000"/><rect x="299" y="255" width="64" height="1" fill="#8B0D5C"/><rect x="363" y="255" width="21" height="1" fill="#000000"/><rect x="149" y="256" width="22" height="1" fill="#000000"/><rect x="171" y="256" width="64" height="1" fill="#AD2160"/><rect x="235" y="256" width="21" height="1" fill="#000000"/><rect x="277" y="256" width="22" height="1" fill="#000000"/><rect x="299" y="256" width="64" height="1" fill="#AD2160"/><rect x="363" y="256" width="21" height="1" fill="#000000"/><rect x="149" y="257" width="22" height="1" fill="#000000"/><rect x="171" y="257" width="64" height="1" fill="#AD2160"/><rect x="235" y="257" width="21" height="1" fill="#000000"/><rect x="277" y="257" width="22" height="1" fill="#000000"/><rect x="299" y="257" width="64" height="1" fill="#AD2160"/><rect x="363" y="257" width="21" height="1" fill="#000000"/><rect x="149" y="258" width="22" height="1" fill="#000000"/><rect x="171" y="258" width="64" height="1" fill="#AD2160"/><rect x="235" y="258" width="21" height="1" fill="#000000"/><rect x="277" y="258" width="22" height="1" fill="#000000"/><rect x="299" y="258" width="64" height="1" fill="#AD2160"/><rect x="363" y="258" width="21" height="1" fill="#000000"/><rect x="149" y="259" width="22" height="1" fill="#000000"/><rect x="171" y="259" width="64" height="1" fill="#AD2160"/><rect x="235" y="259" width="21" height="1" fill="#000000"/><rect x="277" y="259" width="22" height="1" fill="#000000"/><rect x="299" y="259" width="64" height="1" fill="#AD2160"/><rect x="363" y="259" width="21" height="1" fill="#000000"/><rect x="149" y="260" width="22" height="1" fill="#000000"/><rect x="171" y="260" width="64" height="1" fill="#AD2160"/><rect x="235" y="260" width="21" height="1" fill="#000000"/><rect x="277" y="260" width="22" height="1" fill="#000000"/><rect x="299" y="260" width="64" height="1" fill="#AD2160"/><rect x="363" y="260" width="21" height="1" fill="#000000"/><rect x="149" y="261" width="22" height="1" fill="#000000"/><rect x="171" y="261" width="64" height="1" fill="#AD2160"/><rect x="235" y="261" width="21" height="1" fill="#000000"/><rect x="277" y="261" width="22" height="1" fill="#000000"/><rect x="299" y="261" width="64" height="1" fill="#AD2160"/><rect x="363" y="261" width="21" height="1" fill="#000000"/><rect x="149" y="262" width="22" height="1" fill="#000000"/><rect x="171" y="262" width="64" height="1" fill="#AD2160"/><rect x="235" y="262" width="21" height="1" fill="#000000"/><rect x="277" y="262" width="22" height="1" fill="#000000"/><rect x="299" y="262" width="64" height="1" fill="#AD2160"/><rect x="363" y="262" width="21" height="1" fill="#000000"/><rect x="149" y="263" width="22" height="1" fill="#000000"/><rect x="171" y="263" width="64" height="1" fill="#AD2160"/><rect x="235" y="263" width="21" height="1" fill="#000000"/><rect x="277" y="263" width="22" height="1" fill="#000000"/><rect x="299" y="263" width="64" height="1" fill="#AD2160"/><rect x="363" y="263" width="21" height="1" fill="#000000"/><rect x="149" y="264" width="22" height="1" fill="#000000"/><rect x="171" y="264" width="64" height="1" fill="#AD2160"/><rect x="235" y="264" width="21" height="1" fill="#000000"/><rect x="277" y="264" width="22" height="1" fill="#000000"/><rect x="299" y="264" width="64" height="1" fill="#AD2160"/><rect x="363" y="264" width="21" height="1" fill="#000000"/><rect x="149" y="265" width="22" height="1" fill="#000000"/><rect x="171" y="265" width="64" height="1" fill="#AD2160"/><rect x="235" y="265" width="21" height="1" fill="#000000"/><rect x="277" y="265" width="22" height="1" fill="#000000"/><rect x="299" y="265" width="64" height="1" fill="#AD2160"/><rect x="363" y="265" width="21" height="1" fill="#000000"/><rect x="149" y="266" width="22" height="1" fill="#000000"/><rect x="171" y="266" width="64" height="1" fill="#AD2160"/><rect x="235" y="266" width="21" height="1" fill="#000000"/><rect x="277" y="266" width="22" height="1" fill="#000000"/><rect x="299" y="266" width="64" height="1" fill="#AD2160"/><rect x="363" y="266" width="21" height="1" fill="#000000"/><rect x="149" y="267" width="22" height="1" fill="#000000"/><rect x="171" y="267" width="64" height="1" fill="#AD2160"/><rect x="235" y="267" width="21" height="1" fill="#000000"/><rect x="277" y="267" width="22" height="1" fill="#000000"/><rect x="299" y="267" width="64" height="1" fill="#AD2160"/><rect x="363" y="267" width="21" height="1" fill="#000000"/><rect x="149" y="268" width="22" height="1" fill="#000000"/><rect x="171" y="268" width="64" height="1" fill="#AD2160"/><rect x="235" y="268" width="21" height="1" fill="#000000"/><rect x="277" y="268" width="22" height="1" fill="#000000"/><rect x="299" y="268" width="64" height="1" fill="#AD2160"/><rect x="363" y="268" width="21" height="1" fill="#000000"/><rect x="149" y="269" width="22" height="1" fill="#000000"/><rect x="171" y="269" width="64" height="1" fill="#AD2160"/><rect x="235" y="269" width="21" height="1" fill="#000000"/><rect x="277" y="269" width="22" height="1" fill="#000000"/><rect x="299" y="269" width="64" height="1" fill="#AD2160"/><rect x="363" y="269" width="21" height="1" fill="#000000"/><rect x="149" y="270" width="22" height="1" fill="#000000"/><rect x="171" y="270" width="64" height="1" fill="#AD2160"/><rect x="235" y="270" width="21" height="1" fill="#000000"/><rect x="277" y="270" width="22" height="1" fill="#000000"/><rect x="299" y="270" width="64" height="1" fill="#AD2160"/><rect x="363" y="270" width="21" height="1" fill="#000000"/><rect x="149" y="271" width="22" height="1" fill="#000000"/><rect x="171" y="271" width="64" height="1" fill="#AD2160"/><rect x="235" y="271" width="21" height="1" fill="#000000"/><rect x="277" y="271" width="22" height="1" fill="#000000"/><rect x="299" y="271" width="64" height="1" fill="#AD2160"/><rect x="363" y="271" width="21" height="1" fill="#000000"/><rect x="149" y="272" width="22" height="1" fill="#000000"/><rect x="171" y="272" width="64" height="1" fill="#AD2160"/><rect x="235" y="272" width="21" height="1" fill="#000000"/><rect x="277" y="272" width="22" height="1" fill="#000000"/><rect x="299" y="272" width="64" height="1" fill="#AD2160"/><rect x="363" y="272" width="21" height="1" fill="#000000"/><rect x="149" y="273" width="22" height="1" fill="#000000"/><rect x="171" y="273" width="64" height="1" fill="#AD2160"/><rect x="235" y="273" width="21" height="1" fill="#000000"/><rect x="277" y="273" width="22" height="1" fill="#000000"/><rect x="299" y="273" width="64" height="1" fill="#AD2160"/><rect x="363" y="273" width="21" height="1" fill="#000000"/><rect x="149" y="274" width="22" height="1" fill="#000000"/><rect x="171" y="274" width="64" height="1" fill="#AD2160"/><rect x="235" y="274" width="21" height="1" fill="#000000"/><rect x="277" y="274" width="22" height="1" fill="#000000"/><rect x="299" y="274" width="64" height="1" fill="#AD2160"/><rect x="363" y="274" width="21" height="1" fill="#000000"/><rect x="149" y="275" width="22" height="1" fill="#000000"/><rect x="171" y="275" width="64" height="1" fill="#AD2160"/><rect x="235" y="275" width="21" height="1" fill="#000000"/><rect x="277" y="275" width="22" height="1" fill="#000000"/><rect x="299" y="275" width="64" height="1" fill="#AD2160"/><rect x="363" y="275" width="21" height="1" fill="#000000"/><rect x="149" y="276" width="22" height="1" fill="#000000"/><rect x="171" y="276" width="64" height="1" fill="#AD2160"/><rect x="235" y="276" width="21" height="1" fill="#000000"/><rect x="277" y="276" width="22" height="1" fill="#000000"/><rect x="299" y="276" width="64" height="1" fill="#AD2160"/><rect x="363" y="276" width="21" height="1" fill="#000000"/><rect x="171" y="277" width="64" height="1" fill="#000000"/><rect x="299" y="277" width="64" height="1" fill="#000000"/><rect x="171" y="278" width="64" height="1" fill="#000000"/><rect x="299" y="278" width="64" height="1" fill="#000000"/><rect x="171" y="279" width="64" height="1" fill="#000000"/><rect x="299" y="279" width="64" height="1" fill="#000000"/><rect x="171" y="280" width="64" height="1" fill="#000000"/><rect x="299" y="280" width="64" height="1" fill="#000000"/><rect x="171" y="281" width="64" height="1" fill="#000000"/><rect x="299" y="281" width="64" height="1" fill="#000000"/><rect x="171" y="282" width="64" height="1" fill="#000000"/><rect x="299" y="282" width="64" height="1" fill="#000000"/><rect x="171" y="283" width="64" height="1" fill="#000000"/><rect x="299" y="283" width="64" height="1" fill="#000000"/><rect x="171" y="284" width="64" height="1" fill="#000000"/><rect x="299" y="284" width="64" height="1" fill="#000000"/><rect x="171" y="285" width="64" height="1" fill="#000000"/><rect x="299" y="285" width="64" height="1" fill="#000000"/><rect x="171" y="286" width="64" height="1" fill="#000000"/><rect x="299" y="286" width="64" height="1" fill="#000000"/><rect x="171" y="287" width="64" height="1" fill="#000000"/><rect x="299" y="287" width="64" height="1" fill="#000000"/><rect x="171" y="288" width="64" height="1" fill="#000000"/><rect x="299" y="288" width="64" height="1" fill="#000000"/><rect x="171" y="289" width="64" height="1" fill="#000000"/><rect x="299" y="289" width="64" height="1" fill="#000000"/><rect x="171" y="290" width="64" height="1" fill="#000000"/><rect x="299" y="290" width="64" height="1" fill="#000000"/><rect x="171" y="291" width="64" height="1" fill="#000000"/><rect x="299" y="291" width="64" height="1" fill="#000000"/><rect x="171" y="292" width="64" height="1" fill="#000000"/><rect x="299" y="292" width="64" height="1" fill="#000000"/><rect x="171" y="293" width="64" height="1" fill="#000000"/><rect x="299" y="293" width="64" height="1" fill="#000000"/><rect x="171" y="294" width="64" height="1" fill="#000000"/><rect x="299" y="294" width="64" height="1" fill="#000000"/><rect x="171" y="295" width="64" height="1" fill="#000000"/><rect x="299" y="295" width="64" height="1" fill="#000000"/><rect x="171" y="296" width="64" height="1" fill="#000000"/><rect x="299" y="296" width="64" height="1" fill="#000000"/><rect x="171" y="297" width="64" height="1" fill="#000000"/><rect x="299" y="297" width="64" height="1" fill="#000000"/><rect x="171" y="298" width="64" height="1" fill="#000000"/><rect x="299" y="298" width="64" height="1" fill="#000000"/></svg>