<svg xmlns="http://www.w3.org/2000/svg" viewBox="0 0 512 512" width="512" height="512" shape-rendering="crispEdges"><rect x="149" y="213" width="214" height="1" fill="#000000"/><rect x="149" y="214" width="214" height="1" fill="#000000"/><rect x="149" y="215" width="214" height="1" fill="#000000"/><rect x="149" y="216" width="214" height="1" fill="#000000"/><rect x="149" y="217" width="214" height="1" fill="#000000"/><rect x="149" y="218" width="214" height="1" fill="#000000"/><rect x="149" y="219" width="214" height="1" fill="#000000"/><rect x="149" y="220" width="214" height="1" fill="#000000"/><rect x="149" y="221" width="214" height="1" fill="#000000"/><rect x="149" y="222" width="214" height="1" fill="#000000"/><rect x="149" y="223" width="214" height="1" fill="#000000"/><rect x="149" y="224" width="214" height="1" fill="#000000"/><rect x="149" y="225" width="214" height="1" fill="#000000"/><rect x="149" y="226" width="214" height="1" fill="#000000"/><rect x="149" y="227" width="214" height="1" fill="#000000"/><rect x="149" y="228" width="214" height="1" fill="#000000"/><rect x="149" y="229" width="214" height="1" fill="#000000"/><rect x="149" y="230" width="214" height="1" fill="#000000"/><rect x="149" y="231" width="214" height="1" fill="#000000"/><rect x="149" y="232" width="214" height="1" fill="#000000"/><rect x="149" y="233" width="214" height="1" fill="#000000"/><rect x="149" y="234" width="214" height="1" fill="#000000"/><rect x="171" y="235" width="21" height="1" fill="#000000"/><rect x="192" y="235" width="43" height="1" fill="#5B3A0F"/><rect x="235" y="235" width="21" height="1" fill="#000000"/><rect x="277" y="235" width="22" height="1" fill="#000000"/><rect x="299" y="235" width="42" height="1" fill="#5B3A0F"/><rect x="341" y="235" width="22" height="1" fill="#000000"/><rect x="171" y="236" width="21" height="1" fill="#000000"/><rect x="192" y="236" width="43" height="1" fill="#5B3A0F"/><rect x="235" y="236" width="21" height="1" fill="#000000"/><rect x="277" y="236" width="22" height="1" fill="#000000"/><rect x="299" y="236" width="42" height="1" fill="#5B3A0F"/><rect x="341" y="236" width="22" height="1" fill="#000000"/><rect x="171" y="237" width="21" height="1" fill="#000000"/><rect x="192" y="237" width="43" height="1" fill="#5B3A0F"/><rect x="235" y="237" width="21" height="1" fill="#000000"/><rect x="277" y="237" width="22" height="1" fill="#000000"/><rect x="299" y="237" width="42" height="1" fill="#5B3A0F"/><rect x="341" y="237" width="22" height="1" fill="#000000"/><rect x="171" y="238" width="21" height="1" fill="#000000"/><rect x="192" y="238" width="43" height="1" fill="#5B3A0F"/><rect x="235" y="238" width="21" height="1" fill="#000000"/><rect x="277" y="238" width="22" height="1" fill="#000000"/><rect x="299" y="238" width="42" height="1" fill="#5B3A0F"/><rect x="341" y="238" width="22" height="1" fill="#000000"/><rect x="171" y="239" width="21" height="1" fill="#000000"/><rect x="192" y="239" width="43" height="1" fill="#5B3A0F"/><rect x="235" y="239" width="21" height="1" fill="#000000"/><rect x="277" y="239" width="22" height="1" fill="#000000"/><rect x="299" y="239" width="42" height="1" fill="#5B3A0F"/><rect x="341" y="239" width="22" height="1" fill="#000000"/><rect x="171" y="240" width="21" height="1" fill="#000000"/><rect x="192" y="240" width="43" height="1" fill="#5B3A0F"/><rect x="235" y="240" width="21" height="1" fill="#000000"/><rect x="277" y="240" width="22" height="1" fill="#000000"/><rect x="299" y="240" width="42" height="1" fill="#5B3A0F"/><rect x="341" y="240" width="22" height="1" fill="#000000"/><rect x="171" y="241" width="21" height="1" fill="#000000"/><rect x="192" y="241" width="43" height="1" fill="#5B3A0F"/><rect x="235" y="241" width="21" height="1" fill="#000000"/><rect x="277" y="241" width="22" height="1" fill="#000000"/><rect x="299" y="241" width="42" height="1" fill="#5B3A0F"/><rect x="341" y="241" width="22" height="1" fill="#000000"/><rect x="171" y="242" width="21" height="1" fill="#000000"/><rect x="192" y="242" width="43" height="1" fill="#5B3A0F"/><rect x="235" y="242" width="21" height="1" fill="#000000"/><rect x="277" y="242" width="22" height="1" fill="#000000"/><rect x="299" y="242" width="42" height="1" fill="#5B3A0F"/><rect x="341" y="242" width="22" height="1" fill="#000000"/><rect x="171" y="243" width="21" height="1" fill="#000000"/><rect x="192" y="243" width="43" height="1" fill="#5B3A0F"/><rect x="235" y="243" width="21" height="1" fill="#000000"/><rect x="277" y="243" width="22" height="1" fill="#000000"/><rect x="299" y="243" width="42" height="1" fill="#5B3A0F"/><rect x="341" y="243" width="22" height="1" fill="#000000"/><rect x="171" y="244" width="21" height="1" fill="#000000"/><rect x="192" y="244" width="43" height="1" fill="#5B3A0F"/><rect x="235" y="244" width="21" height="1" fill="#000000"/><rect x="277" y="244" width="22" height="1" fill="#000000"/><rect x="299" y="244" width="42" height="1" fill="#5B3A0F"/><rect x="341" y="244" width="22" height="1" fill="#000000"/><rect x="171" y="245" width="21" height="1" fill="#000000"/><rect x="192" y="245" width="43" height="1" fill="#5B3A0F"/><rect x="235" y="245" width="21" height="1" fill="#000000"/><rect x="277" y="245" width="22" height="1" fill="#000000"/><rect x="299" y="245" width="42" height="1" fill="#5B3A0F"/><rect x="341" y="245" width="22" height="1" fill="#000000"/><rect x="171" y="246" width="21" height="1" fill="#000000"/><rect x="192" y="246" width="43" height="1" fill="#5B3A0F"/><rect x="235" y="246" width="21" height="1" fill="#000000"/><rect x="277" y="246" width="22" height="1" fill="#000000"/><rect x="299" y="246" width="42" height="1" fill="#5B3A0F"/><rect x="341" y="246" width="22" height="1" fill="#000000"/><rect x="171" y="247" width="21" height="1" fill="#000000"/><rect x="192" y="247" width="43" height="1" fill="#5B3A0F"/><rect x="235" y="247" width="21" height="1" fill="#000000"/><rect x="277" y="247" width="22" height="1" fill="#000000"/><rect x="299" y="247" width="42" height="1" fill="#5B3A0F"/><rect x="341" y="247" width="22" height="1" fill="#000000"/><rect x="171" y="248" width="21" height="1" fill="#000000"/><rect x="192" y="248" width="43" height="1" fill="#5B3A0F"/><rect x="235" y="248" width="21" height="1" fill="#000000"/><rect x="277" y="248" width="22" height="1" fill="#000000"/><rect x="299" y="248" width="42" height="1" fill="#5B3A0F"/><rect x="341" y="248" width="22" height="1" fill="#000000"/><rect x="171" y="249" width="21" height="1" fill="#000000"/><rect x="192" y="249" width="43" height="1" fill="#5B3A0F"/><rect x="235" y="249" width="21" height="1" fill="#000000"/><rect x="277" y="249" width="22" height="1" fill="#000000"/><rect x="299" y="249" width="42" height="1" fill="#5B3A0F"/><rect x="341" y="249" width="22" height="1" fill="#000000"/><rect x="171" y="250" width="21" height="1" fill="#000000"/><rect x="192" y="250" width="43" height="1" fill="#5B3A0F"/><rect x="235" y="250" width="21" height="1" fill="#000000"/><rect x="277" y="250" width="22" height="1" fill="#000000"/><rect x="299" y="250" width="42" height="1" fill="#5B3A0F"/><rect x="341" y="250" width="22" height="1" fill="#000000"/><rect x="171" y="251" width="21" height="1" fill="#000000"/><rect x="192" y="251" width="43" height="1" fill="#5B3A0F"/><rect x="235" y="251" width="21" height="1" fill="#000000"/><rect x="277" y="251" width="22" height="1" fill="#000000"/><rect x="299" y="251" width="42" height="1" fill="#5B3A0F"/><rect x="341" y="251" width="22" height="1" fill="#000000"/><rect x="171" y="252" width="21" height="1" fill="#000000"/><rect x="192" y="252" width="43" height="1" fill="#5B3A0F"/><rect x="235" y="252" width="21" height="1" fill="#000000"/><rect x="277" y="252" width="22" height="1" fill="#000000"/><rect x="299" y="252" width="42" height="1" fill="#5B3A0F"/><rect x="341" y="252" width="22" height="1" fill="#000000"/><rect x="171" y="253" width="21" height="1" fill="#000000"/><rect x="192" y="253" width="43" height="1" fill="#5B3A0F"/><rect x="235" y="253" width="21" height="1" fill="#000000"/><rect x="277" y="253" width="22" height="1" fill="#000000"/><rect x="299" y="253" width="42" height="1" fill="#5B3A0F"/><rect x="341" y="253" width="22" height="1" fill="#000000"/><rect x="171" y="254" width="21" height="1" fill="#000000"/><rect x="192" y="254" width="43" height="1" fill="#5B3A0F"/><rect x="235" y="254" width="21" height="1" fill="#000000"/><rect x="277" y="254" width="22" height="1" fill="#000000"/><rect x="299" y="254" width="42" height="1" fill="#5B3A0F"/><rect x="341" y="254" width="22" height="1" fill="#000000"/><rect x="171" y="255" width="21" height="1" fill="#000000"/><rect x="192" y="255" width="43" height="1" fill="#5B3A0F"/><rect x="235" y="255" width="21" height="1" fill="#000000"/><rect x="277" y="255" width="22" height="1" fill="#000000"/><rect x="299" y="255" width="42" height="1" fill="#5B3A0F"/><rect x="341" y="255" width="22" height="1" fill="#000000"/><rect x="171" y="256" width="21" height="1" fill="#000000"/><rect x="192" y="256" width="43" height="1" fill="#C57613"/><rect x="235" y="256" width="21" height="1" fill="#000000"/><rect x="277" y="256" width="22" height="1" fill="#000000"/><rect x="299" y="256" width="42" height="1" fill="#C57613"/><rect x="341" y="256" width="22" height="1" fill="#000000"/><rect x="171" y="257" width="21" height="1" fill="#000000"/><rect x="192" y="257" width="43" height="1" fill="#C57613"/><rect x="235" y="257" width="21" height="1" fill="#000000"/><rect x="277" y="257" width="22" height="1" fill="#000000"/><rect x="299" y="257" width="42" height="1" fill="#C57613"/><rect x="341" y="257" width="22" height="1" fill="#000000"/><rect x="171" y="258" width="21" height="1" fill="#000000"/><rect x="192" y="258" width="43" height="1" fill="#C57613"/><rect x="235" y="258" width="21" height="1" fill="#000000"/><rect x="277" y="258" width="22" height="1" fill="#000000"/><rect x="299" y="258" width="42" height="1" fill="#C57613"/><rect x="341" y="258" width="22" height="1" fill="#000000"/><rect x="171" y="259" width="21" height="1" fill="#000000"/><rect x="192" y="259" width="43" height="1" fill="#C57613"/><rect x="235" y="259" width="21" height="1" fill="#000000"/><rect x="277" y="259" width="22" height="1" fill="#000000"/><rect x="299" y="259" width="42" height="1" fill="#C57613"/><rect x="341" y="259" width="22" height="1" fill="#000000"/><rect x="171" y="260" width="21" height="1" fill="#000000"/><rect x="192" y="260" width="43" height="1" fill="#C57613"/><rect x="235" y="260" width="21" height="1" fill="#000000"/><rect x="277" y="260" width="22" height="1" fill="#000000"/><rect x="299" y="260" width="42" height="1" fill="#C57613"/><rect x="341" y="260" width="22" height="1" fill="#000000"/><rect x="171" y="261" width="21" height="1" fill="#000000"/><rect x="192" y="261" width="43" height="1" fill="#C57613"/><rect x="235" y="261" width="21" height="1" fill="#000000"/><rect x="277" y="261" width="22" height="1" fill="#000000"/><rect x="299" y="261" width="42" height="1" fill="#C57613"/><rect x="341" y="261" width="22" height="1" fill="#000000"/><rect x="171" y="262" width="21" height="1" fill="#000000"/><rect x="192" y="262" width="43" height="1" fill="#C57613"/><rect x="235" y="262" width="21" height="1" fill="#000000"/><rect x="277" y="262" width="22" height="1" fill="#000000"/><rect x="299" y="262" width="42" height="1" fill="#C57613"/><rect x="341" y="262" width="22" height="1" fill="#000000"/><rect x="171" y="263" width="21" height="1" fill="#000000"/><rect x="192" y="263" width="43" height="1" fill="#C57613"/><rect x="235" y="263" width="21" height="1" fill="#000000"/><rect x="277" y="263" width="22" height="1" fill="#000000"/><rect x="299" y="263" width="42" height="1" fill="#C57613"/><rect x="341" y="263" width="22" height="1" fill="#000000"/><rect x="171" y="264" width="21" height="1" fill="#000000"/><rect x="192" y="264" width="43" height="1" fill="#C57613"/><rect x="235" y="264" width="21" height="1" fill="#000000"/><rect x="277" y="264" width="22" height="1" fill="#000000"/><rect x="299" y="264" width="42" height="1" fill="#C57613"/><rect x="341" y="264" width="22" height="1" fill="#000000"/><rect x="171" y="265" width="21" height="1" fill="#000000"/><rect x="192" y="265" width="43" height="1" fill="#C57613"/><rect x="235" y="265" width="21" height="1" fill="#000000"/><rect x="277" y="265" width="22" height="1" fill="#000000"/><rect x="299" y="265" width="42" height="1" fill="#C57613"/><rect x="341" y="265" width="22" height="1" fill="#000000"/><rect x="171" y="266" width="21" height="1" fill="#000000"/><rect x="192" y="266" width="43" height="1" fill="#C57613"/><rect x="235" y="266" width="21" height="1" fill="#000000"/><rect x="277" y="266" width="22" height="1" fill="#000000"/><rect x="299" y="266" width="42" height="1" fill="#C57613"/><rect x="341" y="266" width="22" height="1" fill="#000000"/><rect x="171" y="267" width="21" height="1" fill="#000000"/><rect x="192" y="267" width="43" height="1" fill="#C57613"/><rect x="235" y="267" width="21" height="1" fill="#000000"/><rect x="277" y="267" width="22" height="1" fill="#000000"/><rect x="299" y="267" width="42" height="1" fill="#C57613"/><rect x="341" y="267" width="22" height="1" fill="#000000"/><rect x="171" y="268" width="21" height="1" fill="#000000"/><rect x="192" y="268" width="43" height="1" fill="#C57613"/><rect x="235" y="268" width="21" height="1" fill="#000000"/><rect x="277" y="268" width="22" height="1" fill="#000000"/><rect x="299" y="268" width="42" height="1" fill="#C57613"/><rect x="341" y="268" width="22" height="1" fill="#000000"/><rect x="171" y="269" width="21" height="1" fill="#000000"/><rect x="192" y="269" width="43" height="1" fill="#C57613"/><rect x="235" y="269" width="21" height="1" fill="#000000"/><rect x="277" y="269" width="22" height="1" fill="#000000"/><rect x="299" y="269" width="42" height="1" fill="#C57613"/><rect x="341" y="269" width="22" height="1" fill="#000000"/><rect x="171" y="270" width="21" height="1" fill="#000000"/><rect x="192" y="270" width="43" height="1" fill="#C57613"/><rect x="235" y="270" width="21" height="1" fill="#000000"/><rect x="277" y="270" width="22" height="1" fill="#000000"/><rect x="299" y="270" width="42" height="1" fill="#C57613"/><rect x="341" y="270" width="22" height="1" fill="#000000"/><rect x="171" y="271" width="21" height="1" fill="#000000"/><rect x="192" y="271" width="43" height="1" fill="#C57613"/><rect x="235" y="271" width="21" height="1" fill="#000000"/><rect x="277" y="271" width="22" height="1" fill="#000000"/><rect x="299" y="271" width="42" height="1" fill="#C57613"/><rect x="341" y="271" width="22" height="1" fill="#000000"/><rect x="171" y="272" width="21" height="1" fill="#000000"/><rect x="192" y="272" width="43" height="1" fill="#C57613"/><rect x="235" y="272" width="21" height="1" fill="#000000"/><rect x="277" y="272" width="22" height="1" fill="#000000"/><rect x="299" y="272" width="42" height="1" fill="#C57613"/><rect x="341" y="272" width="22" height="1" fill="#000000"/><rect x="171" y="273" width="21" height="1" fill="#000000"/><rect x="192" y="273" width="43" height="1" fill="#C57613"/><rect x="235" y="273" width="21" height="1" fill="#000000"/><rect x="277" y="273" width="22" height="1" fill="#000000"/><rect x="299" y="273" width="42" height="1" fill="#C57613"/><rect x="341" y="273" width="22" height="1" fill="#000000"/><rect x="171" y="274" width="21" height="1" fill="#000000"/><rect x="192" y="274" width="43" height="1" fill="#C57613"/><rect x="235" y="274" width="21" height="1" fill="#000000"/><rect x="277" y="274" width="22" height="1" fill="#000000"/><rect x="299" y="274" width="42" height="1" fill="#C57613"/><rect x="341" y="274" width="22" height="1" fill="#000000"/><rect x="171" y="275" width="21" height="1" fill="#000000"/><rect x="192" y="275" width="43" height="1" fill="#C57613"/><rect x="235" y="275" width="21" height="1" fill="#000000"/><rect x="277" y="275" width="22" height="1" fill="#000000"/><rect x="299" y="275" width="42" height="1" fill="#C57613"/><rect x="341" y="275" width="22" height="1" fill="#000000"/><rect x="171" y="276" width="21" height="1" fill="#000000"/><rect x="192" y="276" width="43" height="1" fill="#C57613"/><rect x="235" y="276" width="21" height="1" fill="#000000"/><rect x="277" y="276" width="22" height="1" fill="#000000"/><rect x="299" y="276" width="42" height="1" fill="#C57613"/><rect x="341" y="276" width="22" height="1" fill="#000000"/><rect x="192" y="277" width="43" height="1" fill="#000000"/><rect x="299" y="277" width="42" height="1" fill="#000000"/><rect x="192" y="278" width="43" height="1" fill="#000000"/><rect x="299" y="278" width="42" height="1" fill="#000000"/><rect x="192" y="279" width="43" height="1" fill="#000000"/><rect x="299" y="279" width="42" height="1" fill="#000000"/><rect x="192" y="280" width="43" height="1" fill="#000000"/><rect x="299" y="280" width="42" height="1" fill="#000000"/><rect x="192" y="281" width="43" height="1" fill="#000000"/><rect x="299" y="281" width="42" height="1" fill="#000000"/><rect x="192" y="282" width="43" height="1" fill="#000000"/><rect x="299" y="282" width="42" height="1" fill="#000000"/><rect x="192" y="283" width="43" height="1" fill="#000000"/><rect x="299" y="283" width="42" height="1" fill="#000000"/><rect x="192" y="284" width="43" height="1" fill="#000000"/><rect x="299" y="284" width="42" height="1" fill="#000000"/><rect x="192" y="285" width="43" height="1" fill="#000000"/><rect x="299" y="285" width="42" height="1" fill="#000000"/><rect x="192" y="286" width="43" height="1" fill="#000000"/><rect x="299" y="286" width="42" height="1" fill="#000000"/><rect x="192" y="287" width="43" height="1" fill="#000000"/><rect x="299" y="287" width="42" height="1" fill="#000000"/><rect x="192" y="288" width="43" height="1" fill="#000000"/><rect x="299" y="288" width="42" height="1" fill="#000000"/><rect x="192" y="289" width="43" height="1" fill="#000000"/><rect x="299" y="289" width="42" height="1" fill="#000000"/><rect x="192" y="290" width="43" height="1" fill="#000000"/><rect x="299" y="290" width="42" height="1" fill="#000000"/><rect x="192" y="291" width="43" height="1" fill="#000000"/><rect x="299" y="291" width="42" height="1" fill="#000000"/><rect x="192" y="292" width="43" height="1" fill="#000000"/><rect x="299" y="292" width="42" height="1" fill="#000000"/><rect x="192" y="293" width="43" height="1" fill="#000000"/><rect x="299" y="293" width="42" height="1" fill="#000000"/><rect x="192" y="294" width="43" height="1" fill="#000000"/><rect x="299" y="294" width="42" height="1" fill="#000000"/><rect x="192" y="295" width="43" height="1" fill="#000000"/><rect x="299" y="295" width="42" height="1" fill="#000000"/><rect x="192" y="296" width="43" height="1" fill="#000000"/><rect x="299" y="296" width="42" height="1" fill="#000000"/><rect x="192" y="297" width="43" height="1" fill="#000000"/><rect x="299" y="297" width="42" height="1" fill="#000000"/><rect x="192" y="298" width="43" height="1" fill="#000000"/><rect x="299" y="298" width="42" height="1" fill="#000000"/></svg>