<svg xmlns="http://www.w3.org/2000/svg" viewBox="0 0 512 512" width="512" height="512" shape-rendering="crispEdges"><rect x="192" y="213" width="21" height="1" fill="#2A57B1"/><rect x="299" y="213" width="21" height="1" fill="#2A57B1"/><rect x="192" y="214" width="21" height="1" fill="#2A57B1"/><rect x="299" y="214" width="21" height="1" fill="#2A57B1"/><rect x="192" y="215" width="21" height="1" fill="#2A57B1"/><rect x="299" y="215" width="21" height="1" fill="#2A57B1"/><rect x="192" y="216" width="21" height="1" fill="#2A57B1"/><rect x="299" y="216" width="21" height="1" fill="#2A57B1"/><rect x="192" y="217" width="21" height="1" fill="#2A57B1"/><rect x="299" y="217" width="21" height="1" fill="#2A57B1"/><rect x="192" y="218" width="21" height="1" fill="#2A57B1"/><rect x="299" y="218" width="21" height="1" fill="#2A57B1"/><rect x="192" y="219" width="21" height="1" fill="#2A57B1"/><rect x="299" y="219" width="21" height="1" fill="#2A57B1"/><rect x="192" y="220" width="21" height="1" fill="#2A57B1"/><rect x="299" y="220" width="21" height="1" fill="#2A57B1"/><rect x="192" y="221" width="21" height="1" fill="#2A57B1"/><rect x="299" y="221" width="21" height="1" fill="#2A57B1"/><rect x="192" y="222" width="21" height="1" fill="#2A57B1"/><rect x="299" y="222" width="21" height="1" fill="#2A57B1"/><rect x="192" y="223" width="21" height="1" fill="#2A57B1"/><rect x="299" y="223" width="21" height="1" fill="#2A57B1"/><rect x="192" y="224" width="21" height="1" fill="#2A57B1"/><rect x="299" y="224" width="21" height="1" fill="#2A57B1"/><rect x="192" y="225" width="21" height="1" fill="#2A57B1"/><rect x="299" y="225" width="21" height="1" fill="#2A57B1"/><rect x="192" y="226" width="21" height="1" fill="#2A57B1"/><rect x="299" y="226" width="21" height="1" fill="#2A57B1"/><rect x="192" y="227" width="21" height="1" fill="#2A57B1"/><rect x="299" y="227" width="21" height="1" fill="#2A57B1"/><rect x="192" y="228" width="21" height="1" fill="#2A57B1"/><rect x="299" y="228" width="21" height="1" fill="#2A57B1"/><rect x="192" y="229" width="21" height="1" fill="#2A57B1"/><rect x="299" y="229" width="21" height="1" fill="#2A57B1"/><rect x="192" y="230" width="21" height="1" fill="#2A57B1"/><rect x="299" y="230" width="21" height="1" fill="#2A57B1"/><rect x="192" y="231" width="21" height="1" fill="#2A57B1"/><rect x="299" y="231" width="21" height="1" fill="#2A57B1"/><rect x="192" y="232" width="21" height="1" fill="#2A57B1"/><rect x="299" y="232" width="21" height="1" fill="#2A57B1"/><rect x="192" y="233" width="21" height="1" fill="#2A57B1"/><rect x="299" y="233" width="21" height="1" fill="#2A57B1"/><rect x="192" y="234" width="21" height="1" fill="#2A57B1"/><rect x="299" y="234" width="21" height="1" fill="#2A57B1"/><rect x="192" y="235" width="43" height="1" fill="#2B5393"/><rect x="299" y="235" width="42" height="1" fill="#2B5393"/><rect x="192" y="236" width="43" height="1" fill="#2B5393"/><rect x="299" y="236" width="42" height="1" fill="#2B5393"/><rect x="192" y="237" width="43" height="1" fill="#2B5393"/><rect x="299" y="237" width="42" height="1" fill="#2B5393"/><rect x="192" y="238" width="43" height="1" fill="#2B5393"/><rect x="299" y="238" width="42" height="1" fill="#2B5393"/><rect x="192" y="239" width="43" height="1" fill="#2B5393"/><rect x="299" y="239" width="42" height="1" fill="#2B5393"/><rect x="192" y="240" width="43" height="1" fill="#2B5393"/><rect x="299" y="240" width="42" height="1" fill="#2B5393"/><rect x="192" y="241" width="43" height="1" fill="#2B5393"/><rect x="299" y="241" width="42" height="1" fill="#2B5393"/><rect x="192" y="242" width="43" height="1" fill="#2B5393"/><rect x="299" y="242" width="42" height="1" fill="#2B5393"/><rect x="192" y="243" width="43" height="1" fill="#2B5393"/><rect x="299" y="243" width="42" height="1" fill="#2B5393"/><rect x="192" y="244" width="43" height="1" fill="#2B5393"/><rect x="299" y="244" width="42" height="1" fill="#2B5393"/><rect x="192" y="245" width="43" height="1" fill="#2B5393"/><rect x="299" y="245" width="42" height="1" fill="#2B5393"/><rect x="192" y="246" width="43" height="1" fill="#2B5393"/><rect x="299" y="246" width="42" height="1" fill="#2B5393"/><rect x="192" y="247" width="43" height="1" fill="#2B5393"/><rect x="299" y="247" width="42" height="1" fill="#2B5393"/><rect x="192" y="248" width="43" height="1" fill="#2B5393"/><rect x="299" y="248" width="42" height="1" fill="#2B5393"/><rect x="192" y="249" width="43" height="1" fill="#2B5393"/><rect x="299" y="249" width="42" height="1" fill="#2B5393"/><rect x="192" y="250" width="43" height="1" fill="#2B5393"/><rect x="299" y="250" width="42" height="1" fill="#2B5393"/><rect x="192" y="251" width="43" height="1" fill="#2B5393"/><rect x="299" y="251" width="42" height="1" fill="#2B5393"/><rect x="192" y="252" width="43" height="1" fill="#2B5393"/><rect x="299" y="252" width="42" height="1" fill="#2B5393"/><rect x="192" y="253" width="43" height="1" fill="#2B5393"/><rect x="299" y="253" width="42" height="1" fill="#2B5393"/><rect x="192" y="254" width="43" height="1" fill="#2B5393"/><rect x="299" y="254" width="42" height="1" fill="#2B5393"/><rect x="192" y="255" width="43" height="1" fill="#2B5393"/><rect x="299" y="255" width="42" height="1" fill="#2B5393"/><rect x="213" y="256" width="22" height="1" fill="#243F6B"/><rect x="320" y="256" width="21" height="1" fill="#243F6B"/><rect x="213" y="257" width="22" height="1" fill="#243F6B"/><rect x="320" y="257" width="21" height="1" fill="#243F6B"/><rect x="213" y="258" width="22" height="1" fill="#243F6B"/><rect x="320" y="258" width="21" height="1" fill="#243F6B"/><rect x="213" y="259" width="22" height="1" fill="#243F6B"/><rect x="320" y="259" width="21" height="1" fill="#243F6B"/><rect x="213" y="260" width="22" height="1" fill="#243F6B"/><rect x="320" y="260" width="21" height="1" fill="#243F6B"/><rect x="213" y="261" width="22" height="1" fill="#243F6B"/><rect x="320" y="261" width="21" height="1" fill="#243F6B"/><rect x="213" y="262" width="22" height="1" fill="#243F6B"/><rect x="320" y="262" width="21" height="1" fill="#243F6B"/><rect x="213" y="263" width="22" height="1" fill="#243F6B"/><rect x="320" y="263" width="21" height="1" fill="#243F6B"/><rect x="213" y="264" width="22" height="1" fill="#243F6B"/><rect x="320" y="264" width="21" height="1" fill="#243F6B"/><rect x="213" y="265" width="22" height="1" fill="#243F6B"/><rect x="320" y="265" width="21" height="1" fill="#243F6B"/><rect x="213" y="266" width="22" height="1" fill="#243F6B"/><rect x="320" y="266" width="21" height="1" fill="#243F6B"/><rect x="213" y="267" width="22" height="1" fill="#243F6B"/><rect x="320" y="267" width="21" height="1" fill="#243F6B"/><rect x="213" y="268" width="22" height="1" fill="#243F6B"/><rect x="320" y="268" width="21" height="1" fill="#243F6B"/><rect x="213" y="269" width="22" height="1" fill="#243F6B"/><rect x="320" y="269" width="21" height="1" fill="#243F6B"/><rect x="213" y="270" width="22" height="1" fill="#243F6B"/><rect x="320" y="270" width="21" height="1" fill="#243F6B"/><rect x="213" y="271" width="22" height="1" fill="#243F6B"/><rect x="320" y="271" width="21" height="1" fill="#243F6B"/><rect x="213" y="272" width="22" height="1" fill="#243F6B"/><rect x="320" y="272" width="21" height="1" fill="#243F6B"/><rect x="213" y="273" width="22" height="1" fill="#243F6B"/><rect x="320" y="273" width="21" height="1" fill="#243F6B"/><rect x="213" y="274" width="22" height="1" fill="#243F6B"/><rect x="320" y="274" width="21" height="1" fill="#243F6B"/><rect x="213" y="275" width="22" height="1" fill="#243F6B"/><rect x="320" y="275" width="21" height="1" fill="#243F6B"/><rect x="213" y="276" width="22" height="1" fill="#243F6B"/><rect x="320" y="276" width="21" height="1" fill="#243F6B"/><rect x="192" y="277" width="21" height="1" fill="#2A57B1"/><rect x="299" y="277" width="21" height="1" fill="#2A57B1"/><rect x="192" y="278" width="21" height="1" fill="#2A57B1"/><rect x="299" y="278" width="21" height="1" fill="#2A57B1"/><rect x="192" y="279" width="21" height="1" fill="#2A57B1"/><rect x="299" y="279" width="21" height="1" fill="#2A57B1"/><rect x="192" y="280" width="21" height="1" fill="#2A57B1"/><rect x="299" y="280" width="21" height="1" fill="#2A57B1"/><rect x="192" y="281" width="21" height="1" fill="#2A57B1"/><rect x="299" y="281" width="21" height="1" fill="#2A57B1"/><rect x="192" y="282" width="21" height="1" fill="#2A57B1"/><rect x="299" y="282" width="21" height="1" fill="#2A57B1"/><rect x="192" y="283" width="21" height="1" fill="#2A57B1"/><rect x="299" y="283" width="21" height="1" fill="#2A57B1"/><rect x="192" y="284" width="21" height="1" fill="#2A57B1"/><rect x="299" y="284" width="21" height="1" fill="#2A57B1"/><rect x="192" y="285" width="21" height="1" fill="#2A57B1"/><rect x="299" y="285" width="21" height="1" fill="#2A57B1"/><rect x="192" y="286" width="21" height="1" fill="#2A57B1"/><rect x="299" y="286" width="21" height="1" fill="#2A57B1"/><rect x="192" y="287" width="21" height="1" fill="#2A57B1"/><rect x="299" y="287" width="21" height="1" fill="#2A57B1"/><rect x="192" y="288" width="21" height="1" fill="#2A57B1"/><rect x="299" y="288" width="21" height="1" fill="#2A57B1"/><rect x="192" y="289" width="21" height="1" fill="#2A57B1"/><rect x="299" y="289" width="21" height="1" fill="#2A57B1"/><rect x="192" y="290" width="21" height="1" fill="#2A57B1"/><rect x="299" y="290" width="21" height="1" fill="#2A57B1"/><rect x="192" y="291" width="21" height="1" fill="#2A57B1"/><rect x="299" y="291" width="21" height="1" fill="#2A57B1"/><rect x="192" y="292" width="21" height="1" fill="#2A57B1"/><rect x="299" y="292" width="21" height="1" fill="#2A57B1"/><rect x="192" y="293" width="21" height="1" fill="#2A57B1"/><rect x="299" y="293" width="21" height="1" fill="#2A57B1"/><rect x="192" y="294" width="21" height="1" fill="#2A57B1"/><rect x="299" y="294" width="21" height="1" fill="#2A57B1"/><rect x="192" y="295" width="21" height="1" fill="#2A57B1"/><rect x="299" y="295" width="21" height="1" fill="#2A57B1"/><rect x="192" y="296" width="21" height="1" fill="#2A57B1"/><rect x="299" y="296" width="21" height="1" fill="#2A57B1"/><rect x="192" y="297" width="21" height="1" fill="#2A57B1"/><rect x="299" y="297" width="21" height="1" fill="#2A57B1"/><rect x="192" y="298" width="21" height="1" fill="#2A57B1"/><rect x="299" y="298" width="21" height="1" fill="#2A57B1"/></svg>