<svg xmlns="http://www.w3.org/2000/svg" viewBox="0 0 512 512" width="512" height="512" shape-rendering="crispEdges"><rect x="128" y="213" width="235" height="1" fill="#000000"/><rect x="128" y="214" width="235" height="1" fill="#000000"/><rect x="128" y="215" width="235" height="1" fill="#000000"/><rect x="128" y="216" width="235" height="1" fill="#000000"/><rect x="128" y="217" width="235" height="1" fill="#000000"/><rect x="128" y="218" width="235" height="1" fill="#000000"/><rect x="128" y="219" width="235" height="1" fill="#000000"/><rect x="128" y="220" width="235" height="1" fill="#000000"/><rect x="128" y="221" width="235" height="1" fill="#000000"/><rect x="128" y="222" width="235" height="1" fill="#000000"/><rect x="128" y="223" width="235" height="1" fill="#000000"/><rect x="128" y="224" width="235" height="1" fill="#000000"/><rect x="128" y="225" width="235" height="1" fill="#000000"/><rect x="128" y="226" width="235" height="1" fill="#000000"/><rect x="128" y="227" width="235" height="1" fill="#000000"/><rect x="128" y="228" width="235" height="1" fill="#000000"/><rect x="128" y="229" width="235" height="1" fill="#000000"/><rect x="128" y="230" width="235" height="1" fill="#000000"/><rect x="128" y="231" width="235" height="1" fill="#000000"/><rect x="128" y="232" width="235" height="1" fill="#000000"/><rect x="128" y="233" width="235" height="1" fill="#000000"/><rect x="128" y="234" width="235" height="1" fill="#000000"/><rect x="128" y="235" width="64" height="1" fill="#000000"/><rect x="235" y="235" width="64" height="1" fill="#000000"/><rect x="341" y="235" width="22" height="1" fill="#000000"/><rect x="128" y="236" width="64" height="1" fill="#000000"/><rect x="235" y="236" width="64" height="1" fill="#000000"/><rect x="341" y="236" width="22" height="1" fill="#000000"/><rect x="128" y="237" width="64" height="1" fill="#000000"/><rect x="235" y="237" width="64" height="1" fill="#000000"/><rect x="341" y="237" width="22" height="1" fill="#000000"/><rect x="128" y="238" width="64" height="1" fill="#000000"/><rect x="235" y="238" width="64" height="1" fill="#000000"/><rect x="341" y="238" width="22" height="1" fill="#000000"/><rect x="128" y="239" width="64" height="1" fill="#000000"/><rect x="235" y="239" width="64" height="1" fill="#000000"/><rect x="341" y="239" width="22" height="1" fill="#000000"/><rect x="128" y="240" width="64" height="1" fill="#000000"/><rect x="235" y="240" width="64" height="1" fill="#000000"/><rect x="341" y="240" width="22" height="1" fill="#000000"/><rect x="128" y="241" width="64" height="1" fill="#000000"/><rect x="235" y="241" width="64" height="1" fill="#000000"/><rect x="341" y="241" width="22" height="1" fill="#000000"/><rect x="128" y="242" width="64" height="1" fill="#000000"/><rect x="235" y="242" width="64" height="1" fill="#000000"/><rect x="341" y="242" width="22" height="1" fill="#000000"/><rect x="128" y="243" width="64" height="1" fill="#000000"/><rect x="235" y="243" width="64" height="1" fill="#000000"/><rect x="341" y="243" width="22" height="1" fill="#000000"/><rect x="128" y="244" width="64" height="1" fill="#000000"/><rect x="235" y="244" width="64" height="1" fill="#000000"/><rect x="341" y="244" width="22" height="1" fill="#000000"/><rect x="128" y="245" width="64" height="1" fill="#000000"/><rect x="235" y="245" width="64" height="1" fill="#000000"/><rect x="341" y="245" width="22" height="1" fill="#000000"/><rect x="128" y="246" width="64" height="1" fill="#000000"/><rect x="235" y="246" width="64" height="1" fill="#000000"/><rect x="341" y="246" width="22" height="1" fill="#000000"/><rect x="128" y="247" width="64" height="1" fill="#000000"/><rect x="235" y="247" width="64" height="1" fill="#000000"/><rect x="341" y="247" width="22" height="1" fill="#000000"/><rect x="128" y="248" width="64" height="1" fill="#000000"/><rect x="235" y="248" width="64" height="1" fill="#000000"/><rect x="341" y="248" width="22" height="1" fill="#000000"/><rect x="128" y="249" width="64" height="1" fill="#000000"/><rect x="235" y="249" width="64" height="1" fill="#000000"/><rect x="341" y="249" width="22" height="1" fill="#000000"/><rect x="128" y="250" width="64" height="1" fill="#000000"/><rect x="235" y="250" width="64" height="1" fill="#000000"/><rect x="341" y="250" width="22" height="1" fill="#000000"/><rect x="128" y="251" width="64" height="1" fill="#000000"/><rect x="235" y="251" width="64" height="1" fill="#000000"/><rect x="341" y="251" width="22" height="1" fill="#000000"/><rect x="128" y="252" width="64" height="1" fill="#000000"/><rect x="235" y="252" width="64" height="1" fill="#000000"/><rect x="341" y="252" width="22" height="1" fill="#000000"/><rect x="128" y="253" width="64" height="1" fill="#000000"/><rect x="235" y="253" width="64" height="1" fill="#000000"/><rect x="341" y="253" width="22" height="1" fill="#000000"/><rect x="128" y="254" width="64" height="1" fill="#000000"/><rect x="235" y="254" width="64" height="1" fill="#000000"/><rect x="341" y="254" width="22" height="1" fill="#000000"/><rect x="128" y="255" width="64" height="1" fill="#000000"/><rect x="235" y="255" width="64" height="1" fill="#000000"/><rect x="341" y="255" width="22" height="1" fill="#000000"/><rect x="107" y="256" width="85" height="1" fill="#000000"/><rect x="192" y="256" width="21" height="1" fill="#FFFFFF"/><rect x="235" y="256" width="64" height="1" fill="#000000"/><rect x="299" y="256" width="21" height="1" fill="#FFFFFF"/><rect x="341" y="256" width="22" height="1" fill="#000000"/><rect x="107" y="257" width="85" height="1" fill="#000000"/><rect x="192" y="257" width="21" height="1" fill="#FFFFFF"/><rect x="235" y="257" width="64" height="1" fill="#000000"/><rect x="299" y="257" width="21" height="1" fill="#FFFFFF"/><rect x="341" y="257" width="22" height="1" fill="#000000"/><rect x="107" y="258" width="85" height="1" fill="#000000"/><rect x="192" y="258" width="21" height="1" fill="#FFFFFF"/><rect x="235" y="258" width="64" height="1" fill="#000000"/><rect x="299" y="258" width="21" height="1" fill="#FFFFFF"/><rect x="341" y="258" width="22" height="1" fill="#000000"/><rect x="107" y="259" width="85" height="1" fill="#000000"/><rect x="192" y="259" width="21" height="1" fill="#FFFFFF"/><rect x="235" y="259" width="64" height="1" fill="#000000"/><rect x="299" y="259" width="21" height="1" fill="#FFFFFF"/><rect x="341" y="259" width="22" height="1" fill="#000000"/><rect x="107" y="260" width="85" height="1" fill="#000000"/><rect x="192" y="260" width="21" height="1" fill="#FFFFFF"/><rect x="235" y="260" width="64" height="1" fill="#000000"/><rect x="299" y="260" width="21" height="1" fill="#FFFFFF"/><rect x="341" y="260" width="22" height="1" fill="#000000"/><rect x="107" y="261" width="85" height="1" fill="#000000"/><rect x="192" y="261" width="21" height="1" fill="#FFFFFF"/><rect x="235" y="261" width="64" height="1" fill="#000000"/><rect x="299" y="261" width="21" height="1" fill="#FFFFFF"/><rect x="341" y="261" width="22" height="1" fill="#000000"/><rect x="107" y="262" width="85" height="1" fill="#000000"/><rect x="192" y="262" width="21" height="1" fill="#FFFFFF"/><rect x="235" y="262" width="64" height="1" fill="#000000"/><rect x="299" y="262" width="21" height="1" fill="#FFFFFF"/><rect x="341" y="262" width="22" height="1" fill="#000000"/><rect x="107" y="263" width="85" height="1" fill="#000000"/><rect x="192" y="263" width="21" height="1" fill="#FFFFFF"/><rect x="235" y="263" width="64" height="1" fill="#000000"/><rect x="299" y="263" width="21" height="1" fill="#FFFFFF"/><rect x="341" y="263" width="22" height="1" fill="#000000"/><rect x="107" y="264" width="85" height="1" fill="#000000"/><rect x="192" y="264" width="21" height="1" fill="#FFFFFF"/><rect x="235" y="264" width="64" height="1" fill="#000000"/><rect x="299" y="264" width="21" height="1" fill="#FFFFFF"/><rect x="341" y="264" width="22" height="1" fill="#000000"/><rect x="107" y="265" width="85" height="1" fill="#000000"/><rect x="192" y="265" width="21" height="1" fill="#FFFFFF"/><rect x="235" y="265" width="64" height="1" fill="#000000"/><rect x="299" y="265" width="21" height="1" fill="#FFFFFF"/><rect x="341" y="265" width="22" height="1" fill="#000000"/><rect x="107" y="266" width="85" height="1" fill="#000000"/><rect x="192" y="266" width="21" height="1" fill="#FFFFFF"/><rect x="235" y="266" width="64" height="1" fill="#000000"/><rect x="299" y="266" width="21" height="1" fill="#FFFFFF"/><rect x="341" y="266" width="22" height="1" fill="#000000"/><rect x="107" y="267" width="85" height="1" fill="#000000"/><rect x="192" y="267" width="21" height="1" fill="#FFFFFF"/><rect x="235" y="267" width="64" height="1" fill="#000000"/><rect x="299" y="267" width="21" height="1" fill="#FFFFFF"/><rect x="341" y="267" width="22" height="1" fill="#000000"/><rect x="107" y="268" width="85" height="1" fill="#000000"/><rect x="192" y="268" width="21" height="1" fill="#FFFFFF"/><rect x="235" y="268" width="64" height="1" fill="#000000"/><rect x="299" y="268" width="21" height="1" fill="#FFFFFF"/><rect x="341" y="268" width="22" height="1" fill="#000000"/><rect x="107" y="269" width="85" height="1" fill="#000000"/><rect x="192" y="269" width="21" height="1" fill="#FFFFFF"/><rect x="235" y="269" width="64" height="1" fill="#000000"/><rect x="299" y="269" width="21" height="1" fill="#FFFFFF"/><rect x="341" y="269" width="22" height="1" fill="#000000"/><rect x="107" y="270" width="85" height="1" fill="#000000"/><rect x="192" y="270" width="21" height="1" fill="#FFFFFF"/><rect x="235" y="270" width="64" height="1" fill="#000000"/><rect x="299" y="270" width="21" height="1" fill="#FFFFFF"/><rect x="341" y="270" width="22" height="1" fill="#000000"/><rect x="107" y="271" width="85" height="1" fill="#000000"/><rect x="192" y="271" width="21" height="1" fill="#FFFFFF"/><rect x="235" y="271" width="64" height="1" fill="#000000"/><rect x="299" y="271" width="21" height="1" fill="#FFFFFF"/><rect x="341" y="271" width="22" height="1" fill="#000000"/><rect x="107" y="272" width="85" height="1" fill="#000000"/><rect x="192" y="272" width="21" height="1" fill="#FFFFFF"/><rect x="235" y="272" width="64" height="1" fill="#000000"/><rect x="299" y="272" width="21" height="1" fill="#FFFFFF"/><rect x="341" y="272" width="22" height="1" fill="#000000"/><rect x="107" y="273" width="85" height="1" fill="#000000"/><rect x="192" y="273" width="21" height="1" fill="#FFFFFF"/><rect x="235" y="273" width="64" height="1" fill="#000000"/><rect x="299" y="273" width="21" height="1" fill="#FFFFFF"/><rect x="341" y="273" width="22" height="1" fill="#000000"/><rect x="107" y="274" width="85" height="1" fill="#000000"/><rect x="192" y="274" width="21" height="1" fill="#FFFFFF"/><rect x="235" y="274" width="64" height="1" fill="#000000"/><rect x="299" y="274" width="21" height="1" fill="#FFFFFF"/><rect x="341" y="274" width="22" height="1" fill="#000000"/><rect x="107" y="275" width="85" height="1" fill="#000000"/><rect x="192" y="275" width="21" height="1" fill="#FFFFFF"/><rect x="235" y="275" width="64" height="1" fill="#000000"/><rect x="299" y="275" width="21" height="1" fill="#FFFFFF"/><rect x="341" y="275" width="22" height="1" fill="#000000"/><rect x="107" y="276" width="85" height="1" fill="#000000"/><rect x="192" y="276" width="21" height="1" fill="#FFFFFF"/><rect x="235" y="276" width="64" height="1" fill="#000000"/><rect x="299" y="276" width="21" height="1" fill="#FFFFFF"/><rect x="341" y="276" width="22" height="1" fill="#000000"/><rect x="128" y="277" width="235" height="1" fill="#000000"/><rect x="128" y="278" width="235" height="1" fill="#000000"/><rect x="128" y="279" width="235" height="1" fill="#000000"/><rect x="128" y="280" width="235" height="1" fill="#000000"/><rect x="128" y="281" width="235" height="1" fill="#000000"/><rect x="128" y="282" width="235" height="1" fill="#000000"/><rect x="128" y="283" width="235" height="1" fill="#000000"/><rect x="128" y="284" width="235" height="1" fill="#000000"/><rect x="128" y="285" width="235" height="1" fill="#000000"/><rect x="128" y="286" width="235" height="1" fill="#000000"/><rect x="128" y="287" width="235" height="1" fill="#000000"/><rect x="128" y="288" width="235" height="1" fill="#000000"/><rect x="128" y="289" width="235" height="1" fill="#000000"/><rect x="128" y="290" width="235" height="1" fill="#000000"/><rect x="128" y="291" width="235" height="1" fill="#000000"/><rect x="128" y="292" width="235" height="1" fill="#000000"/><rect x="128" y="293" width="235" height="1" fill="#000000"/><rect x="128" y="294" width="235" height="1" fill="#000000"/><rect x="128" y="295" width="235" height="1" fill="#000000"/><rect x="128" y="296" width="235" height="1" fill="#000000"/><rect x="128" y="297" width="235" height="1" fill="#000000"/><rect x="128" y="298" width="235" height="1" fill="#000000"/></svg>