<svg xmlns="http://www.w3.org/2000/svg" viewBox="0 0 512 512" width="512" height="512" shape-rendering="crispEdges"><rect x="149" y="213" width="192" height="1" fill="#000000"/><rect x="149" y="214" width="192" height="1" fill="#000000"/><rect x="149" y="215" width="192" height="1" fill="#000000"/><rect x="149" y="216" width="192" height="1" fill="#000000"/><rect x="149" y="217" width="192" height="1" fill="#000000"/><rect x="149" y="218" width="192" height="1" fill="#000000"/><rect x="149" y="219" width="192" height="1" fill="#000000"/><rect x="149" y="220" width="192" height="1" fill="#000000"/><rect x="149" y="221" width="192" height="1" fill="#000000"/><rect x="149" y="222" width="192" height="1" fill="#000000"/><rect x="149" y="223" width="192" height="1" fill="#000000"/><rect x="149" y="224" width="192" height="1" fill="#000000"/><rect x="149" y="225" width="192" height="1" fill="#000000"/><rect x="149" y="226" width="192" height="1" fill="#000000"/><rect x="149" y="227" width="192" height="1" fill="#000000"/><rect x="149" y="228" width="192" height="1" fill="#000000"/><rect x="149" y="229" width="192" height="1" fill="#000000"/><rect x="149" y="230" width="192" height="1" fill="#000000"/><rect x="149" y="231" width="192" height="1" fill="#000000"/><rect x="149" y="232" width="192" height="1" fill="#000000"/><rect x="149" y="233" width="192" height="1" fill="#000000"/><rect x="149" y="234" width="192" height="1" fill="#000000"/><rect x="171" y="235" width="85" height="1" fill="#000000"/><rect x="171" y="236" width="85" height="1" fill="#000000"/><rect x="171" y="237" width="85" height="1" fill="#000000"/><rect x="171" y="238" width="85" height="1" fill="#000000"/><rect x="171" y="239" width="85" height="1" fill="#000000"/><rect x="171" y="240" width="85" height="1" fill="#000000"/><rect x="171" y="241" width="85" height="1" fill="#000000"/><rect x="171" y="242" width="85" height="1" fill="#000000"/><rect x="171" y="243" width="85" height="1" fill="#000000"/><rect x="171" y="244" width="85" height="1" fill="#000000"/><rect x="171" y="245" width="85" height="1" fill="#000000"/><rect x="171" y="246" width="85" height="1" fill="#000000"/><rect x="171" y="247" width="85" height="1" fill="#000000"/><rect x="171" y="248" width="85" height="1" fill="#000000"/><rect x="171" y="249" width="85" height="1" fill="#000000"/><rect x="171" y="250" width="85" height="1" fill="#000000"/><rect x="171" y="251" width="85" height="1" fill="#000000"/><rect x="171" y="252" width="85" height="1" fill="#000000"/><rect x="171" y="253" width="85" height="1" fill="#000000"/><rect x="171" y="254" width="85" height="1" fill="#000000"/><rect x="171" y="255" width="85" height="1" fill="#000000"/><rect x="171" y="256" width="85" height="1" fill="#000000"/><rect x="171" y="257" width="85" height="1" fill="#000000"/><rect x="171" y="258" width="85" height="1" fill="#000000"/><rect x="171" y="259" width="85" height="1" fill="#000000"/><rect x="171" y="260" width="85" height="1" fill="#000000"/><rect x="171" y="261" width="85" height="1" fill="#000000"/><rect x="171" y="262" width="85" height="1" fill="#000000"/><rect x="171" y="263" width="85" height="1" fill="#000000"/><rect x="171" y="264" width="85" height="1" fill="#000000"/><rect x="171" y="265" width="85" height="1" fill="#000000"/><rect x="171" y="266" width="85" height="1" fill="#000000"/><rect x="171" y="267" width="85" height="1" fill="#000000"/><rect x="171" y="268" width="85" height="1" fill="#000000"/><rect x="171" y="269" width="85" height="1" fill="#000000"/><rect x="171" y="270" width="85" height="1" fill="#000000"/><rect x="171" y="271" width="85" height="1" fill="#000000"/><rect x="171" y="272" width="85" height="1" fill="#000000"/><rect x="171" y="273" width="85" height="1" fill="#000000"/><rect x="171" y="274" width="85" height="1" fill="#000000"/><rect x="171" y="275" width="85" height="1" fill="#000000"/><rect x="171" y="276" width="85" height="1" fill="#000000"/><rect x="192" y="277" width="43" height="1" fill="#000000"/><rect x="192" y="278" width="43" height="1" fill="#000000"/><rect x="192" y="279" width="43" height="1" fill="#000000"/><rect x="192" y="280" width="43" height="1" fill="#000000"/><rect x="192" y="281" width="43" height="1" fill="#000000"/><rect x="192" y="282" width="43" height="1" fill="#000000"/><rect x="192" y="283" width="43" height="1" fill="#000000"/><rect x="192" y="284" width="43" height="1" fill="#000000"/><rect x="192" y="285" width="43" height="1" fill="#000000"/><rect x="192" y="286" width="43" height="1" fill="#000000"/><rect x="192" y="287" width="43" height="1" fill="#000000"/><rect x="192" y="288" width="43" height="1" fill="#000000"/><rect x="192" y="289" width="43" height="1" fill="#000000"/><rect x="192" y="290" width="43" height="1" fill="#000000"/><rect x="192" y="291" width="43" height="1" fill="#000000"/><rect x="192" y="292" width="43" height="1" fill="#000000"/><rect x="192" y="293" width="43" height="1" fill="#000000"/><rect x="192" y="294" width="43" height="1" fill="#000000"/><rect x="192" y="295" width="43" height="1" fill="#000000"/><rect x="192" y="296" width="43" height="1" fill="#000000"/><rect x="192" y="297" width="43" height="1" fill="#000000"/><rect x="192" y="298" width="43" height="1" fill="#000000"/></svg>