<svg xmlns="http://www.w3.org/2000/svg" viewBox="0 0 512 512" width="512" height="512" shape-rendering="crispEdges"><rect x="128" y="213" width="256" height="1" fill="#000000"/><rect x="128" y="214" width="256" height="1" fill="#000000"/><rect x="128" y="215" width="256" height="1" fill="#000000"/><rect x="128" y="216" width="256" height="1" fill="#000000"/><rect x="128" y="217" width="256" height="1" fill="#000000"/><rect x="128" y="218" width="256" height="1" fill="#000000"/><rect x="128" y="219" width="256" height="1" fill="#000000"/><rect x="128" y="220" width="256" height="1" fill="#000000"/><rect x="128" y="221" width="256" height="1" fill="#000000"/><rect x="128" y="222" width="256" height="1" fill="#000000"/><rect x="128" y="223" width="256" height="1" fill="#000000"/><rect x="128" y="224" width="256" height="1" fill="#000000"/><rect x="128" y="225" width="256" height="1" fill="#000000"/><rect x="128" y="226" width="256" height="1" fill="#000000"/><rect x="128" y="227" width="256" height="1" fill="#000000"/><rect x="128" y="228" width="256" height="1" fill="#000000"/><rect x="128" y="229" width="256" height="1" fill="#000000"/><rect x="128" y="230" width="256" height="1" fill="#000000"/><rect x="128" y="231" width="256" height="1" fill="#000000"/><rect x="128" y="232" width="256" height="1" fill="#000000"/><rect x="128" y="233" width="256" height="1" fill="#000000"/><rect x="128" y="234" width="256" height="1" fill="#000000"/><rect x="128" y="235" width="43" height="1" fill="#000000"/><rect x="171" y="235" width="64" height="1" fill="#FFFFFF" opacity="0.439"/><rect x="235" y="235" width="42" height="1" fill="#000000"/><rect x="277" y="235" width="64" height="1" fill="#FFFFFF" opacity="0.439"/><rect x="341" y="235" width="43" height="1" fill="#000000"/><rect x="128" y="236" width="43" height="1" fill="#000000"/><rect x="171" y="236" width="64" height="1" fill="#FFFFFF" opacity="0.439"/><rect x="235" y="236" width="42" height="1" fill="#000000"/><rect x="277" y="236" width="64" height="1" fill="#FFFFFF" opacity="0.439"/><rect x="341" y="236" width="43" height="1" fill="#000000"/><rect x="128" y="237" width="43" height="1" fill="#000000"/><rect x="171" y="237" width="64" height="1" fill="#FFFFFF" opacity="0.439"/><rect x="235" y="237" width="42" height="1" fill="#000000"/><rect x="277" y="237" width="64" height="1" fill="#FFFFFF" opacity="0.439"/><rect x="341" y="237" width="43" height="1" fill="#000000"/><rect x="128" y="238" width="43" height="1" fill="#000000"/><rect x="171" y="238" width="64" height="1" fill="#FFFFFF" opacity="0.439"/><rect x="235" y="238" width="42" height="1" fill="#000000"/><rect x="277" y="238" width="64" height="1" fill="#FFFFFF" opacity="0.439"/><rect x="341" y="238" width="43" height="1" fill="#000000"/><rect x="128" y="239" width="43" height="1" fill="#000000"/><rect x="171" y="239" width="64" height="1" fill="#FFFFFF" opacity="0.439"/><rect x="235" y="239" width="42" height="1" fill="#000000"/><rect x="277" y="239" width="64" height="1" fill="#FFFFFF" opacity="0.439"/><rect x="341" y="239" width="43" height="1" fill="#000000"/><rect x="128" y="240" width="43" height="1" fill="#000000"/><rect x="171" y="240" width="64" height="1" fill="#FFFFFF" opacity="0.439"/><rect x="235" y="240" width="42" height="1" fill="#000000"/><rect x="277" y="240" width="64" height="1" fill="#FFFFFF" opacity="0.439"/><rect x="341" y="240" width="43" height="1" fill="#000000"/><rect x="128" y="241" width="43" height="1" fill="#000000"/><rect x="171" y="241" width="64" height="1" fill="#FFFFFF" opacity="0.439"/><rect x="235" y="241" width="42" height="1" fill="#000000"/><rect x="277" y="241" width="64" height="1" fill="#FFFFFF" opacity="0.439"/><rect x="341" y="241" width="43" height="1" fill="#000000"/><rect x="128" y="242" width="43" height="1" fill="#000000"/><rect x="171" y="242" width="64" height="1" fill="#FFFFFF" opacity="0.439"/><rect x="235" y="242" width="42" height="1" fill="#000000"/><rect x="277" y="242" width="64" height="1" fill="#FFFFFF" opacity="0.439"/><rect x="341" y="242" width="43" height="1" fill="#000000"/><rect x="128" y="243" width="43" height="1" fill="#000000"/><rect x="171" y="243" width="64" height="1" fill="#FFFFFF" opacity="0.439"/><rect x="235" y="243" width="42" height="1" fill="#000000"/><rect x="277" y="243" width="64" height="1" fill="#FFFFFF" opacity="0.439"/><rect x="341" y="243" width="43" height="1" fill="#000000"/><rect x="128" y="244" width="43" height="1" fill="#000000"/><rect x="171" y="244" width="64" height="1" fill="#FFFFFF" opacity="0.439"/><rect x="235" y="244" width="42" height="1" fill="#000000"/><rect x="277" y="244" width="64" height="1" fill="#FFFFFF" opacity="0.439"/><rect x="341" y="244" width="43" height="1" fill="#000000"/><rect x="128" y="245" width="43" height="1" fill="#000000"/><rect x="171" y="245" width="64" height="1" fill="#FFFFFF" opacity="0.439"/><rect x="235" y="245" width="42" height="1" fill="#000000"/><rect x="277" y="245" width="64" height="1" fill="#FFFFFF" opacity="0.439"/><rect x="341" y="245" width="43" height="1" fill="#000000"/><rect x="128" y="246" width="43" height="1" fill="#000000"/><rect x="171" y="246" width="64" height="1" fill="#FFFFFF" opacity="0.439"/><rect x="235" y="246" width="42" height="1" fill="#000000"/><rect x="277" y="246" width="64" height="1" fill="#FFFFFF" opacity="0.439"/><rect x="341" y="246" width="43" height="1" fill="#000000"/><rect x="128" y="247" width="43" height="1" fill="#000000"/><rect x="171" y="247" width="64" height="1" fill="#FFFFFF" opacity="0.439"/><rect x="235" y="247" width="42" height="1" fill="#000000"/><rect x="277" y="247" width="64" height="1" fill="#FFFFFF" opacity="0.439"/><rect x="341" y="247" width="43" height="1" fill="#000000"/><rect x="128" y="248" width="43" height="1" fill="#000000"/><rect x="171" y="248" width="64" height="1" fill="#FFFFFF" opacity="0.439"/><rect x="235" y="248" width="42" height="1" fill="#000000"/><rect x="277" y="248" width="64" height="1" fill="#FFFFFF" opacity="0.439"/><rect x="341" y="248" width="43" height="1" fill="#000000"/><rect x="128" y="249" width="43" height="1" fill="#000000"/><rect x="171" y="249" width="64" height="1" fill="#FFFFFF" opacity="0.439"/><rect x="235" y="249" width="42" height="1" fill="#000000"/><rect x="277" y="249" width="64" height="1" fill="#FFFFFF" opacity="0.439"/><rect x="341" y="249" width="43" height="1" fill="#000000"/><rect x="128" y="250" width="43" height="1" fill="#000000"/><rect x="171" y="250" width="64" height="1" fill="#FFFFFF" opacity="0.439"/><rect x="235" y="250" width="42" height="1" fill="#000000"/><rect x="277" y="250" width="64" height="1" fill="#FFFFFF" opacity="0.439"/><rect x="341" y="250" width="43" height="1" fill="#000000"/><rect x="128" y="251" width="43" height="1" fill="#000000"/><rect x="171" y="251" width="64" height="1" fill="#FFFFFF" opacity="0.439"/><rect x="235" y="251" width="42" height="1" fill="#000000"/><rect x="277" y="251" width="64" height="1" fill="#FFFFFF" opacity="0.439"/><rect x="341" y="251" width="43" height="1" fill="#000000"/><rect x="128" y="252" width="43" height="1" fill="#000000"/><rect x="171" y="252" width="64" height="1" fill="#FFFFFF" opacity="0.439"/><rect x="235" y="252" width="42" height="1" fill="#000000"/><rect x="277" y="252" width="64" height="1" fill="#FFFFFF" opacity="0.439"/><rect x="341" y="252" width="43" height="1" fill="#000000"/><rect x="128" y="253" width="43" height="1" fill="#000000"/><rect x="171" y="253" width="64" height="1" fill="#FFFFFF" opacity="0.439"/><rect x="235" y="253" width="42" height="1" fill="#000000"/><rect x="277" y="253" width="64" height="1" fill="#FFFFFF" opacity="0.439"/><rect x="341" y="253" width="43" height="1" fill="#000000"/><rect x="128" y="254" width="43" height="1" fill="#000000"/><rect x="171" y="254" width="64" height="1" fill="#FFFFFF" opacity="0.439"/><rect x="235" y="254" width="42" height="1" fill="#000000"/><rect x="277" y="254" width="64" height="1" fill="#FFFFFF" opacity="0.439"/><rect x="341" y="254" width="43" height="1" fill="#000000"/><rect x="128" y="255" width="43" height="1" fill="#000000"/><rect x="171" y="255" width="64" height="1" fill="#FFFFFF" opacity="0.439"/><rect x="235" y="255" width="42" height="1" fill="#000000"/><rect x="277" y="255" width="64" height="1" fill="#FFFFFF" opacity="0.439"/><rect x="341" y="255" width="43" height="1" fill="#000000"/><rect x="171" y="256" width="64" height="1" fill="#FFFFFF" opacity="0.439"/><rect x="277" y="256" width="64" height="1" fill="#FFFFFF" opacity="0.439"/><rect x="171" y="257" width="64" height="1" fill="#FFFFFF" opacity="0.439"/><rect x="277" y="257" width="64" height="1" fill="#FFFFFF" opacity="0.439"/><rect x="171" y="258" width="64" height="1" fill="#FFFFFF" opacity="0.439"/><rect x="277" y="258" width="64" height="1" fill="#FFFFFF" opacity="0.439"/><rect x="171" y="259" width="64" height="1" fill="#FFFFFF" opacity="0.439"/><rect x="277" y="259" width="64" height="1" fill="#FFFFFF" opacity="0.439"/><rect x="171" y="260" width="64" height="1" fill="#FFFFFF" opacity="0.439"/><rect x="277" y="260" width="64" height="1" fill="#FFFFFF" opacity="0.439"/><rect x="171" y="261" width="64" height="1" fill="#FFFFFF" opacity="0.439"/><rect x="277" y="261" width="64" height="1" fill="#FFFFFF" opacity="0.439"/><rect x="171" y="262" width="64" height="1" fill="#FFFFFF" opacity="0.439"/><rect x="277" y="262" width="64" height="1" fill="#FFFFFF" opacity="0.439"/><rect x="171" y="263" width="64" height="1" fill="#FFFFFF" opacity="0.439"/><rect x="277" y="263" width="64" height="1" fill="#FFFFFF" opacity="0.439"/><rect x="171" y="264" width="64" height="1" fill="#FFFFFF" opacity="0.439"/><rect x="277" y="264" width="64" height="1" fill="#FFFFFF" opacity="0.439"/><rect x="171" y="265" width="64" height="1" fill="#FFFFFF" opacity="0.439"/><rect x="277" y="265" width="64" height="1" fill="#FFFFFF" opacity="0.439"/><rect x="171" y="266" width="64" height="1" fill="#FFFFFF" opacity="0.439"/><rect x="277" y="266" width="64" height="1" fill="#FFFFFF" opacity="0.439"/><rect x="171" y="267" width="64" height="1" fill="#FFFFFF" opacity="0.439"/><rect x="277" y="267" width="64" height="1" fill="#FFFFFF" opacity="0.439"/><rect x="171" y="268" width="64" height="1" fill="#FFFFFF" opacity="0.439"/><rect x="277" y="268" width="64" height="1" fill="#FFFFFF" opacity="0.439"/><rect x="171" y="269" width="64" height="1" fill="#FFFFFF" opacity="0.439"/><rect x="277" y="269" width="64" height="1" fill="#FFFFFF" opacity="0.439"/><rect x="171" y="270" width="64" height="1" fill="#FFFFFF" opacity="0.439"/><rect x="277" y="270" width="64" height="1" fill="#FFFFFF" opacity="0.439"/><rect x="171" y="271" width="64" height="1" fill="#FFFFFF" opacity="0.439"/><rect x="277" y="271" width="64" height="1" fill="#FFFFFF" opacity="0.439"/><rect x="171" y="272" width="64" height="1" fill="#FFFFFF" opacity="0.439"/><rect x="277" y="272" width="64" height="1" fill="#FFFFFF" opacity="0.439"/><rect x="171" y="273" width="64" height="1" fill="#FFFFFF" opacity="0.439"/><rect x="277" y="273" width="64" height="1" fill="#FFFFFF" opacity="0.439"/><rect x="171" y="274" width="64" height="1" fill="#FFFFFF" opacity="0.439"/><rect x="277" y="274" width="64" height="1" fill="#FFFFFF" opacity="0.439"/><rect x="171" y="275" width="64" height="1" fill="#FFFFFF" opacity="0.439"/><rect x="277" y="275" width="64" height="1" fill="#FFFFFF" opacity="0.439"/><rect x="171" y="276" width="64" height="1" fill="#FFFFFF" opacity="0.439"/><rect x="277" y="276" width="64" height="1" fill="#FFFFFF" opacity="0.439"/><rect x="171" y="277" width="64" height="1" fill="#FFFFFF" opacity="0.439"/><rect x="277" y="277" width="64" height="1" fill="#FFFFFF" opacity="0.439"/><rect x="171" y="278" width="64" height="1" fill="#FFFFFF" opacity="0.439"/><rect x="277" y="278" width="64" height="1" fill="#FFFFFF" opacity="0.439"/><rect x="171" y="279" width="64" height="1" fill="#FFFFFF" opacity="0.439"/><rect x="277" y="279" width="64" height="1" fill="#FFFFFF" opacity="0.439"/><rect x="171" y="280" width="64" height="1" fill="#FFFFFF" opacity="0.439"/><rect x="277" y="280" width="64" height="1" fill="#FFFFFF" opacity="0.439"/><rect x="171" y="281" width="64" height="1" fill="#FFFFFF" opacity="0.439"/><rect x="277" y="281" width="64" height="1" fill="#FFFFFF" opacity="0.439"/><rect x="171" y="282" width="64" height="1" fill="#FFFFFF" opacity="0.439"/><rect x="277" y="282" width="64" height="1" fill="#FFFFFF" opacity="0.439"/><rect x="171" y="283" width="64" height="1" fill="#FFFFFF" opacity="0.439"/><rect x="277" y="283" width="64" height="1" fill="#FFFFFF" opacity="0.439"/><rect x="171" y="284" width="64" height="1" fill="#FFFFFF" opacity="0.439"/><rect x="277" y="284" width="64" height="1" fill="#FFFFFF" opacity="0.439"/><rect x="171" y="285" width="64" height="1" fill="#FFFFFF" opacity="0.439"/><rect x="277" y="285" width="64" height="1" fill="#FFFFFF" opacity="0.439"/><rect x="171" y="286" width="64" height="1" fill="#FFFFFF" opacity="0.439"/><rect x="277" y="286" width="64" height="1" fill="#FFFFFF" opacity="0.439"/><rect x="171" y="287" width="64" height="1" fill="#FFFFFF" opacity="0.439"/><rect x="277" y="287" width="64" height="1" fill="#FFFFFF" opacity="0.439"/><rect x="171" y="288" width="64" height="1" fill="#FFFFFF" opacity="0.439"/><rect x="277" y="288" width="64" height="1" fill="#FFFFFF" opacity="0.439"/><rect x="171" y="289" width="64" height="1" fill="#FFFFFF" opacity="0.439"/><rect x="277" y="289" width="64" height="1" fill="#FFFFFF" opacity="0.439"/><rect x="171" y="290" width="64" height="1" fill="#FFFFFF" opacity="0.439"/><rect x="277" y="290" width="64" height="1" fill="#FFFFFF" opacity="0.439"/><rect x="171" y="291" width="64" height="1" fill="#FFFFFF" opacity="0.439"/><rect x="277" y="291" width="64" height="1" fill="#FFFFFF" opacity="0.439"/><rect x="171" y="292" width="64" height="1" fill="#FFFFFF" opacity="0.439"/><rect x="277" y="292" width="64" height="1" fill="#FFFFFF" opacity="0.439"/><rect x="171" y="293" width="64" height="1" fill="#FFFFFF" opacity="0.439"/><rect x="277" y="293" width="64" height="1" fill="#FFFFFF" opacity="0.439"/><rect x="171" y="294" width="64" height="1" fill="#FFFFFF" opacity="0.439"/><rect x="277" y="294" width="64" height="1" fill="#FFFFFF" opacity="0.439"/><rect x="171" y="295" width="64" height="1" fill="#FFFFFF" opacity="0.439"/><rect x="277" y="295" width="64" height="1" fill="#FFFFFF" opacity="0.439"/><rect x="171" y="296" width="64" height="1" fill="#FFFFFF" opacity="0.439"/><rect x="277" y="296" width="64" height="1" fill="#FFFFFF" opacity="0.439"/><rect x="171" y="297" width="64" height="1" fill="#FFFFFF" opacity="0.439"/><rect x="277" y="297" width="64" height="1" fill="#FFFFFF" opacity="0.439"/><rect x="171" y="298" width="64" height="1" fill="#FFFFFF" opacity="0.439"/><rect x="277" y="298" width="64" height="1" fill="#FFFFFF" opacity="0.439"/></svg>