<svg xmlns="http://www.w3.org/2000/svg" viewBox="0 0 512 512" width="512" height="512" shape-rendering="crispEdges"><rect x="171" y="213" width="21" height="1" fill="#000102"/><rect x="192" y="213" width="21" height="1" fill="#010000"/><rect x="213" y="213" width="22" height="1" fill="#070003"/><rect x="235" y="213" width="21" height="1" fill="#000003"/><rect x="277" y="213" width="22" height="1" fill="#000102"/><rect x="299" y="213" width="21" height="1" fill="#040000"/><rect x="320" y="213" width="21" height="1" fill="#010000"/><rect x="341" y="213" width="22" height="1" fill="#000000"/><rect x="171" y="214" width="21" height="1" fill="#000102"/><rect x="192" y="214" width="21" height="1" fill="#010000"/><rect x="213" y="214" width="22" height="1" fill="#070003"/><rect x="235" y="214" width="21" height="1" fill="#000003"/><rect x="277" y="214" width="22" height="1" fill="#000102"/><rect x="299" y="214" width="21" height="1" fill="#040000"/><rect x="320" y="214" width="21" height="1" fill="#010000"/><rect x="341" y="214" width="22" height="1" fill="#000000"/><rect x="171" y="215" width="21" height="1" fill="#000102"/><rect x="192" y="215" width="21" height="1" fill="#010000"/><rect x="213" y="215" width="22" height="1" fill="#070003"/><rect x="235" y="215" width="21" height="1" fill="#000003"/><rect x="277" y="215" width="22" height="1" fill="#000102"/><rect x="299" y="215" width="21" height="1" fill="#040000"/><rect x="320" y="215" width="21" height="1" fill="#010000"/><rect x="341" y="215" width="22" height="1" fill="#000000"/><rect x="171" y="216" width="21" height="1" fill="#000102"/><rect x="192" y="216" width="21" height="1" fill="#010000"/><rect x="213" y="216" width="22" height="1" fill="#070003"/><rect x="235" y="216" width="21" height="1" fill="#000003"/><rect x="277" y="216" width="22" height="1" fill="#000102"/><rect x="299" y="216" width="21" height="1" fill="#040000"/><rect x="320" y="216" width="21" height="1" fill="#010000"/><rect x="341" y="216" width="22" height="1" fill="#000000"/><rect x="171" y="217" width="21" height="1" fill="#000102"/><rect x="192" y="217" width="21" height="1" fill="#010000"/><rect x="213" y="217" width="22" height="1" fill="#070003"/><rect x="235" y="217" width="21" height="1" fill="#000003"/><rect x="277" y="217" width="22" height="1" fill="#000102"/><rect x="299" y="217" width="21" height="1" fill="#040000"/><rect x="320" y="217" width="21" height="1" fill="#010000"/><rect x="341" y="217" width="22" height="1" fill="#000000"/><rect x="171" y="218" width="21" height="1" fill="#000102"/><rect x="192" y="218" width="21" height="1" fill="#010000"/><rect x="213" y="218" width="22" height="1" fill="#070003"/><rect x="235" y="218" width="21" height="1" fill="#000003"/><rect x="277" y="218" width="22" height="1" fill="#000102"/><rect x="299" y="218" width="21" height="1" fill="#040000"/><rect x="320" y="218" width="21" height="1" fill="#010000"/><rect x="341" y="218" width="22" height="1" fill="#000000"/><rect x="171" y="219" width="21" height="1" fill="#000102"/><rect x="192" y="219" width="21" height="1" fill="#010000"/><rect x="213" y="219" width="22" height="1" fill="#070003"/><rect x="235" y="219" width="21" height="1" fill="#000003"/><rect x="277" y="219" width="22" height="1" fill="#000102"/><rect x="299" y="219" width="21" height="1" fill="#040000"/><rect x="320" y="219" width="21" height="1" fill="#010000"/><rect x="341" y="219" width="22" height="1" fill="#000000"/><rect x="171" y="220" width="21" height="1" fill="#000102"/><rect x="192" y="220" width="21" height="1" fill="#010000"/><rect x="213" y="220" width="22" height="1" fill="#070003"/><rect x="235" y="220" width="21" height="1" fill="#000003"/><rect x="277" y="220" width="22" height="1" fill="#000102"/><rect x="299" y="220" width="21" height="1" fill="#040000"/><rect x="320" y="220" width="21" height="1" fill="#010000"/><rect x="341" y="220" width="22" height="1" fill="#000000"/><rect x="171" y="221" width="21" height="1" fill="#000102"/><rect x="192" y="221" width="21" height="1" fill="#010000"/><rect x="213" y="221" width="22" height="1" fill="#070003"/><rect x="235" y="221" width="21" height="1" fill="#000003"/><rect x="277" y="221" width="22" height="1" fill="#000102"/><rect x="299" y="221" width="21" height="1" fill="#040000"/><rect x="320" y="221" width="21" height="1" fill="#010000"/><rect x="341" y="221" width="22" height="1" fill="#000000"/><rect x="171" y="222" width="21" height="1" fill="#000102"/><rect x="192" y="222" width="21" height="1" fill="#010000"/><rect x="213" y="222" width="22" height="1" fill="#070003"/><rect x="235" y="222" width="21" height="1" fill="#000003"/><rect x="277" y="222" width="22" height="1" fill="#000102"/><rect x="299" y="222" width="21" height="1" fill="#040000"/><rect x="320" y="222" width="21" height="1" fill="#010000"/><rect x="341" y="222" width="22" height="1" fill="#000000"/><rect x="171" y="223" width="21" height="1" fill="#000102"/><rect x="192" y="223" width="21" height="1" fill="#010000"/><rect x="213" y="223" width="22" height="1" fill="#070003"/><rect x="235" y="223" width="21" height="1" fill="#000003"/><rect x="277" y="223" width="22" height="1" fill="#000102"/><rect x="299" y="223" width="21" height="1" fill="#040000"/><rect x="320" y="223" width="21" height="1" fill="#010000"/><rect x="341" y="223" width="22" height="1" fill="#000000"/><rect x="171" y="224" width="21" height="1" fill="#000102"/><rect x="192" y="224" width="21" height="1" fill="#010000"/><rect x="213" y="224" width="22" height="1" fill="#070003"/><rect x="235" y="224" width="21" height="1" fill="#000003"/><rect x="277" y="224" width="22" height="1" fill="#000102"/><rect x="299" y="224" width="21" height="1" fill="#040000"/><rect x="320" y="224" width="21" height="1" fill="#010000"/><rect x="341" y="224" width="22" height="1" fill="#000000"/><rect x="171" y="225" width="21" height="1" fill="#000102"/><rect x="192" y="225" width="21" height="1" fill="#010000"/><rect x="213" y="225" width="22" height="1" fill="#070003"/><rect x="235" y="225" width="21" height="1" fill="#000003"/><rect x="277" y="225" width="22" height="1" fill="#000102"/><rect x="299" y="225" width="21" height="1" fill="#040000"/><rect x="320" y="225" width="21" height="1" fill="#010000"/><rect x="341" y="225" width="22" height="1" fill="#000000"/><rect x="171" y="226" width="21" height="1" fill="#000102"/><rect x="192" y="226" width="21" height="1" fill="#010000"/><rect x="213" y="226" width="22" height="1" fill="#070003"/><rect x="235" y="226" width="21" height="1" fill="#000003"/><rect x="277" y="226" width="22" height="1" fill="#000102"/><rect x="299" y="226" width="21" height="1" fill="#040000"/><rect x="320" y="226" width="21" height="1" fill="#010000"/><rect x="341" y="226" width="22" height="1" fill="#000000"/><rect x="171" y="227" width="21" height="1" fill="#000102"/><rect x="192" y="227" width="21" height="1" fill="#010000"/><rect x="213" y="227" width="22" height="1" fill="#070003"/><rect x="235" y="227" width="21" height="1" fill="#000003"/><rect x="277" y="227" width="22" height="1" fill="#000102"/><rect x="299" y="227" width="21" height="1" fill="#040000"/><rect x="320" y="227" width="21" height="1" fill="#010000"/><rect x="341" y="227" width="22" height="1" fill="#000000"/><rect x="171" y="228" width="21" height="1" fill="#000102"/><rect x="192" y="228" width="21" height="1" fill="#010000"/><rect x="213" y="228" width="22" height="1" fill="#070003"/><rect x="235" y="228" width="21" height="1" fill="#000003"/><rect x="277" y="228" width="22" height="1" fill="#000102"/><rect x="299" y="228" width="21" height="1" fill="#040000"/><rect x="320" y="228" width="21" height="1" fill="#010000"/><rect x="341" y="228" width="22" height="1" fill="#000000"/><rect x="171" y="229" width="21" height="1" fill="#000102"/><rect x="192" y="229" width="21" height="1" fill="#010000"/><rect x="213" y="229" width="22" height="1" fill="#070003"/><rect x="235" y="229" width="21" height="1" fill="#000003"/><rect x="277" y="229" width="22" height="1" fill="#000102"/><rect x="299" y="229" width="21" height="1" fill="#040000"/><rect x="320" y="229" width="21" height="1" fill="#010000"/><rect x="341" y="229" width="22" height="1" fill="#000000"/><rect x="171" y="230" width="21" height="1" fill="#000102"/><rect x="192" y="230" width="21" height="1" fill="#010000"/><rect x="213" y="230" width="22" height="1" fill="#070003"/><rect x="235" y="230" width="21" height="1" fill="#000003"/><rect x="277" y="230" width="22" height="1" fill="#000102"/><rect x="299" y="230" width="21" height="1" fill="#040000"/><rect x="320" y="230" width="21" height="1" fill="#010000"/><rect x="341" y="230" width="22" height="1" fill="#000000"/><rect x="171" y="231" width="21" height="1" fill="#000102"/><rect x="192" y="231" width="21" height="1" fill="#010000"/><rect x="213" y="231" width="22" height="1" fill="#070003"/><rect x="235" y="231" width="21" height="1" fill="#000003"/><rect x="277" y="231" width="22" height="1" fill="#000102"/><rect x="299" y="231" width="21" height="1" fill="#040000"/><rect x="320" y="231" width="21" height="1" fill="#010000"/><rect x="341" y="231" width="22" height="1" fill="#000000"/><rect x="171" y="232" width="21" height="1" fill="#000102"/><rect x="192" y="232" width="21" height="1" fill="#010000"/><rect x="213" y="232" width="22" height="1" fill="#070003"/><rect x="235" y="232" width="21" height="1" fill="#000003"/><rect x="277" y="232" width="22" height="1" fill="#000102"/><rect x="299" y="232" width="21" height="1" fill="#040000"/><rect x="320" y="232" width="21" height="1" fill="#010000"/><rect x="341" y="232" width="22" height="1" fill="#000000"/><rect x="171" y="233" width="21" height="1" fill="#000102"/><rect x="192" y="233" width="21" height="1" fill="#010000"/><rect x="213" y="233" width="22" height="1" fill="#070003"/><rect x="235" y="233" width="21" height="1" fill="#000003"/><rect x="277" y="233" width="22" height="1" fill="#000102"/><rect x="299" y="233" width="21" height="1" fill="#040000"/><rect x="320" y="233" width="21" height="1" fill="#010000"/><rect x="341" y="233" width="22" height="1" fill="#000000"/><rect x="171" y="234" width="21" height="1" fill="#000102"/><rect x="192" y="234" width="21" height="1" fill="#010000"/><rect x="213" y="234" width="22" height="1" fill="#070003"/><rect x="235" y="234" width="21" height="1" fill="#000003"/><rect x="277" y="234" width="22" height="1" fill="#000102"/><rect x="299" y="234" width="21" height="1" fill="#040000"/><rect x="320" y="234" width="21" height="1" fill="#010000"/><rect x="341" y="234" width="22" height="1" fill="#000000"/><rect x="128" y="235" width="21" height="1" fill="#010000"/><rect x="149" y="235" width="22" height="1" fill="#000002"/><rect x="171" y="235" width="21" height="1" fill="#010000"/><rect x="192" y="235" width="43" height="1" fill="#2CE8F5"/><rect x="235" y="235" width="21" height="1" fill="#000100"/><rect x="256" y="235" width="43" height="1" fill="#000000"/><rect x="299" y="235" width="42" height="1" fill="#2CE8F5"/><rect x="341" y="235" width="22" height="1" fill="#000100"/><rect x="128" y="236" width="21" height="1" fill="#010000"/><rect x="149" y="236" width="22" height="1" fill="#000002"/><rect x="171" y="236" width="21" height="1" fill="#010000"/><rect x="192" y="236" width="43" height="1" fill="#2CE8F5"/><rect x="235" y="236" width="21" height="1" fill="#000100"/><rect x="256" y="236" width="43" height="1" fill="#000000"/><rect x="299" y="236" width="42" height="1" fill="#2CE8F5"/><rect x="341" y="236" width="22" height="1" fill="#000100"/><rect x="128" y="237" width="21" height="1" fill="#010000"/><rect x="149" y="237" width="22" height="1" fill="#000002"/><rect x="171" y="237" width="21" height="1" fill="#010000"/><rect x="192" y="237" width="43" height="1" fill="#2CE8F5"/><rect x="235" y="237" width="21" height="1" fill="#000100"/><rect x="256" y="237" width="43" height="1" fill="#000000"/><rect x="299" y="237" width="42" height="1" fill="#2CE8F5"/><rect x="341" y="237" width="22" height="1" fill="#000100"/><rect x="128" y="238" width="21" height="1" fill="#010000"/><rect x="149" y="238" width="22" height="1" fill="#000002"/><rect x="171" y="238" width="21" height="1" fill="#010000"/><rect x="192" y="238" width="43" height="1" fill="#2CE8F5"/><rect x="235" y="238" width="21" height="1" fill="#000100"/><rect x="256" y="238" width="43" height="1" fill="#000000"/><rect x="299" y="238" width="42" height="1" fill="#2CE8F5"/><rect x="341" y="238" width="22" height="1" fill="#000100"/><rect x="128" y="239" width="21" height="1" fill="#010000"/><rect x="149" y="239" width="22" height="1" fill="#000002"/><rect x="171" y="239" width="21" height="1" fill="#010000"/><rect x="192" y="239" width="43" height="1" fill="#2CE8F5"/><rect x="235" y="239" width="21" height="1" fill="#000100"/><rect x="256" y="239" width="43" height="1" fill="#000000"/><rect x="299" y="239" width="42" height="1" fill="#2CE8F5"/><rect x="341" y="239" width="22" height="1" fill="#000100"/><rect x="128" y="240" width="21" height="1" fill="#010000"/><rect x="149" y="240" width="22" height="1" fill="#000002"/><rect x="171" y="240" width="21" height="1" fill="#010000"/><rect x="192" y="240" width="43" height="1" fill="#2CE8F5"/><rect x="235" y="240" width="21" height="1" fill="#000100"/><rect x="256" y="240" width="43" height="1" fill="#000000"/><rect x="299" y="240" width="42" height="1" fill="#2CE8F5"/><rect x="341" y="240" width="22" height="1" fill="#000100"/><rect x="128" y="241" width="21" height="1" fill="#010000"/><rect x="149" y="241" width="22" height="1" fill="#000002"/><rect x="171" y="241" width="21" height="1" fill="#010000"/><rect x="192" y="241" width="43" height="1" fill="#2CE8F5"/><rect x="235" y="241" width="21" height="1" fill="#000100"/><rect x="256" y="241" width="43" height="1" fill="#000000"/><rect x="299" y="241" width="42" height="1" fill="#2CE8F5"/><rect x="341" y="241" width="22" height="1" fill="#000100"/><rect x="128" y="242" width="21" height="1" fill="#010000"/><rect x="149" y="242" width="22" height="1" fill="#000002"/><rect x="171" y="242" width="21" height="1" fill="#010000"/><rect x="192" y="242" width="43" height="1" fill="#2CE8F5"/><rect x="235" y="242" width="21" height="1" fill="#000100"/><rect x="256" y="242" width="43" height="1" fill="#000000"/><rect x="299" y="242" width="42" height="1" fill="#2CE8F5"/><rect x="341" y="242" width="22" height="1" fill="#000100"/><rect x="128" y="243" width="21" height="1" fill="#010000"/><rect x="149" y="243" width="22" height="1" fill="#000002"/><rect x="171" y="243" width="21" height="1" fill="#010000"/><rect x="192" y="243" width="43" height="1" fill="#2CE8F5"/><rect x="235" y="243" width="21" height="1" fill="#000100"/><rect x="256" y="243" width="43" height="1" fill="#000000"/><rect x="299" y="243" width="42" height="1" fill="#2CE8F5"/><rect x="341" y="243" width="22" height="1" fill="#000100"/><rect x="128" y="244" width="21" height="1" fill="#010000"/><rect x="149" y="244" width="22" height="1" fill="#000002"/><rect x="171" y="244" width="21" height="1" fill="#010000"/><rect x="192" y="244" width="43" height="1" fill="#2CE8F5"/><rect x="235" y="244" width="21" height="1" fill="#000100"/><rect x="256" y="244" width="43" height="1" fill="#000000"/><rect x="299" y="244" width="42" height="1" fill="#2CE8F5"/><rect x="341" y="244" width="22" height="1" fill="#000100"/><rect x="128" y="245" width="21" height="1" fill="#010000"/><rect x="149" y="245" width="22" height="1" fill="#000002"/><rect x="171" y="245" width="21" height="1" fill="#010000"/><rect x="192" y="245" width="43" height="1" fill="#2CE8F5"/><rect x="235" y="245" width="21" height="1" fill="#000100"/><rect x="256" y="245" width="43" height="1" fill="#000000"/><rect x="299" y="245" width="42" height="1" fill="#2CE8F5"/><rect x="341" y="245" width="22" height="1" fill="#000100"/><rect x="128" y="246" width="21" height="1" fill="#010000"/><rect x="149" y="246" width="22" height="1" fill="#000002"/><rect x="171" y="246" width="21" height="1" fill="#010000"/><rect x="192" y="246" width="43" height="1" fill="#2CE8F5"/><rect x="235" y="246" width="21" height="1" fill="#000100"/><rect x="256" y="246" width="43" height="1" fill="#000000"/><rect x="299" y="246" width="42" height="1" fill="#2CE8F5"/><rect x="341" y="246" width="22" height="1" fill="#000100"/><rect x="128" y="247" width="21" height="1" fill="#010000"/><rect x="149" y="247" width="22" height="1" fill="#000002"/><rect x="171" y="247" width="21" height="1" fill="#010000"/><rect x="192" y="247" width="43" height="1" fill="#2CE8F5"/><rect x="235" y="247" width="21" height="1" fill="#000100"/><rect x="256" y="247" width="43" height="1" fill="#000000"/><rect x="299" y="247" width="42" height="1" fill="#2CE8F5"/><rect x="341" y="247" width="22" height="1" fill="#000100"/><rect x="128" y="248" width="21" height="1" fill="#010000"/><rect x="149" y="248" width="22" height="1" fill="#000002"/><rect x="171" y="248" width="21" height="1" fill="#010000"/><rect x="192" y="248" width="43" height="1" fill="#2CE8F5"/><rect x="235" y="248" width="21" height="1" fill="#000100"/><rect x="256" y="248" width="43" height="1" fill="#000000"/><rect x="299" y="248" width="42" height="1" fill="#2CE8F5"/><rect x="341" y="248" width="22" height="1" fill="#000100"/><rect x="128" y="249" width="21" height="1" fill="#010000"/><rect x="149" y="249" width="22" height="1" fill="#000002"/><rect x="171" y="249" width="21" height="1" fill="#010000"/><rect x="192" y="249" width="43" height="1" fill="#2CE8F5"/><rect x="235" y="249" width="21" height="1" fill="#000100"/><rect x="256" y="249" width="43" height="1" fill="#000000"/><rect x="299" y="249" width="42" height="1" fill="#2CE8F5"/><rect x="341" y="249" width="22" height="1" fill="#000100"/><rect x="128" y="250" width="21" height="1" fill="#010000"/><rect x="149" y="250" width="22" height="1" fill="#000002"/><rect x="171" y="250" width="21" height="1" fill="#010000"/><rect x="192" y="250" width="43" height="1" fill="#2CE8F5"/><rect x="235" y="250" width="21" height="1" fill="#000100"/><rect x="256" y="250" width="43" height="1" fill="#000000"/><rect x="299" y="250" width="42" height="1" fill="#2CE8F5"/><rect x="341" y="250" width="22" height="1" fill="#000100"/><rect x="128" y="251" width="21" height="1" fill="#010000"/><rect x="149" y="251" width="22" height="1" fill="#000002"/><rect x="171" y="251" width="21" height="1" fill="#010000"/><rect x="192" y="251" width="43" height="1" fill="#2CE8F5"/><rect x="235" y="251" width="21" height="1" fill="#000100"/><rect x="256" y="251" width="43" height="1" fill="#000000"/><rect x="299" y="251" width="42" height="1" fill="#2CE8F5"/><rect x="341" y="251" width="22" height="1" fill="#000100"/><rect x="128" y="252" width="21" height="1" fill="#010000"/><rect x="149" y="252" width="22" height="1" fill="#000002"/><rect x="171" y="252" width="21" height="1" fill="#010000"/><rect x="192" y="252" width="43" height="1" fill="#2CE8F5"/><rect x="235" y="252" width="21" height="1" fill="#000100"/><rect x="256" y="252" width="43" height="1" fill="#000000"/><rect x="299" y="252" width="42" height="1" fill="#2CE8F5"/><rect x="341" y="252" width="22" height="1" fill="#000100"/><rect x="128" y="253" width="21" height="1" fill="#010000"/><rect x="149" y="253" width="22" height="1" fill="#000002"/><rect x="171" y="253" width="21" height="1" fill="#010000"/><rect x="192" y="253" width="43" height="1" fill="#2CE8F5"/><rect x="235" y="253" width="21" height="1" fill="#000100"/><rect x="256" y="253" width="43" height="1" fill="#000000"/><rect x="299" y="253" width="42" height="1" fill="#2CE8F5"/><rect x="341" y="253" width="22" height="1" fill="#000100"/><rect x="128" y="254" width="21" height="1" fill="#010000"/><rect x="149" y="254" width="22" height="1" fill="#000002"/><rect x="171" y="254" width="21" height="1" fill="#010000"/><rect x="192" y="254" width="43" height="1" fill="#2CE8F5"/><rect x="235" y="254" width="21" height="1" fill="#000100"/><rect x="256" y="254" width="43" height="1" fill="#000000"/><rect x="299" y="254" width="42" height="1" fill="#2CE8F5"/><rect x="341" y="254" width="22" height="1" fill="#000100"/><rect x="128" y="255" width="21" height="1" fill="#010000"/><rect x="149" y="255" width="22" height="1" fill="#000002"/><rect x="171" y="255" width="21" height="1" fill="#010000"/><rect x="192" y="255" width="43" height="1" fill="#2CE8F5"/><rect x="235" y="255" width="21" height="1" fill="#000100"/><rect x="256" y="255" width="43" height="1" fill="#000000"/><rect x="299" y="255" width="42" height="1" fill="#2CE8F5"/><rect x="341" y="255" width="22" height="1" fill="#000100"/><rect x="171" y="256" width="21" height="1" fill="#010000"/><rect x="192" y="256" width="43" height="1" fill="#2CE8F5"/><rect x="235" y="256" width="21" height="1" fill="#000000"/><rect x="277" y="256" width="22" height="1" fill="#010000"/><rect x="299" y="256" width="42" height="1" fill="#2CE8F5"/><rect x="341" y="256" width="22" height="1" fill="#000000"/><rect x="171" y="257" width="21" height="1" fill="#010000"/><rect x="192" y="257" width="43" height="1" fill="#2CE8F5"/><rect x="235" y="257" width="21" height="1" fill="#000000"/><rect x="277" y="257" width="22" height="1" fill="#010000"/><rect x="299" y="257" width="42" height="1" fill="#2CE8F5"/><rect x="341" y="257" width="22" height="1" fill="#000000"/><rect x="171" y="258" width="21" height="1" fill="#010000"/><rect x="192" y="258" width="43" height="1" fill="#2CE8F5"/><rect x="235" y="258" width="21" height="1" fill="#000000"/><rect x="277" y="258" width="22" height="1" fill="#010000"/><rect x="299" y="258" width="42" height="1" fill="#2CE8F5"/><rect x="341" y="258" width="22" height="1" fill="#000000"/><rect x="171" y="259" width="21" height="1" fill="#010000"/><rect x="192" y="259" width="43" height="1" fill="#2CE8F5"/><rect x="235" y="259" width="21" height="1" fill="#000000"/><rect x="277" y="259" width="22" height="1" fill="#010000"/><rect x="299" y="259" width="42" height="1" fill="#2CE8F5"/><rect x="341" y="259" width="22" height="1" fill="#000000"/><rect x="171" y="260" width="21" height="1" fill="#010000"/><rect x="192" y="260" width="43" height="1" fill="#2CE8F5"/><rect x="235" y="260" width="21" height="1" fill="#000000"/><rect x="277" y="260" width="22" height="1" fill="#010000"/><rect x="299" y="260" width="42" height="1" fill="#2CE8F5"/><rect x="341" y="260" width="22" height="1" fill="#000000"/><rect x="171" y="261" width="21" height="1" fill="#010000"/><rect x="192" y="261" width="43" height="1" fill="#2CE8F5"/><rect x="235" y="261" width="21" height="1" fill="#000000"/><rect x="277" y="261" width="22" height="1" fill="#010000"/><rect x="299" y="261" width="42" height="1" fill="#2CE8F5"/><rect x="341" y="261" width="22" height="1" fill="#000000"/><rect x="171" y="262" width="21" height="1" fill="#010000"/><rect x="192" y="262" width="43" height="1" fill="#2CE8F5"/><rect x="235" y="262" width="21" height="1" fill="#000000"/><rect x="277" y="262" width="22" height="1" fill="#010000"/><rect x="299" y="262" width="42" height="1" fill="#2CE8F5"/><rect x="341" y="262" width="22" height="1" fill="#000000"/><rect x="171" y="263" width="21" height="1" fill="#010000"/><rect x="192" y="263" width="43" height="1" fill="#2CE8F5"/><rect x="235" y="263" width="21" height="1" fill="#000000"/><rect x="277" y="263" width="22" height="1" fill="#010000"/><rect x="299" y="263" width="42" height="1" fill="#2CE8F5"/><rect x="341" y="263" width="22" height="1" fill="#000000"/><rect x="171" y="264" width="21" height="1" fill="#010000"/><rect x="192" y="264" width="43" height="1" fill="#2CE8F5"/><rect x="235" y="264" width="21" height="1" fill="#000000"/><rect x="277" y="264" width="22" height="1" fill="#010000"/><rect x="299" y="264" width="42" height="1" fill="#2CE8F5"/><rect x="341" y="264" width="22" height="1" fill="#000000"/><rect x="171" y="265" width="21" height="1" fill="#010000"/><rect x="192" y="265" width="43" height="1" fill="#2CE8F5"/><rect x="235" y="265" width="21" height="1" fill="#000000"/><rect x="277" y="265" width="22" height="1" fill="#010000"/><rect x="299" y="265" width="42" height="1" fill="#2CE8F5"/><rect x="341" y="265" width="22" height="1" fill="#000000"/><rect x="171" y="266" width="21" height="1" fill="#010000"/><rect x="192" y="266" width="43" height="1" fill="#2CE8F5"/><rect x="235" y="266" width="21" height="1" fill="#000000"/><rect x="277" y="266" width="22" height="1" fill="#010000"/><rect x="299" y="266" width="42" height="1" fill="#2CE8F5"/><rect x="341" y="266" width="22" height="1" fill="#000000"/><rect x="171" y="267" width="21" height="1" fill="#010000"/><rect x="192" y="267" width="43" height="1" fill="#2CE8F5"/><rect x="235" y="267" width="21" height="1" fill="#000000"/><rect x="277" y="267" width="22" height="1" fill="#010000"/><rect x="299" y="267" width="42" height="1" fill="#2CE8F5"/><rect x="341" y="267" width="22" height="1" fill="#000000"/><rect x="171" y="268" width="21" height="1" fill="#010000"/><rect x="192" y="268" width="43" height="1" fill="#2CE8F5"/><rect x="235" y="268" width="21" height="1" fill="#000000"/><rect x="277" y="268" width="22" height="1" fill="#010000"/><rect x="299" y="268" width="42" height="1" fill="#2CE8F5"/><rect x="341" y="268" width="22" height="1" fill="#000000"/><rect x="171" y="269" width="21" height="1" fill="#010000"/><rect x="192" y="269" width="43" height="1" fill="#2CE8F5"/><rect x="235" y="269" width="21" height="1" fill="#000000"/><rect x="277" y="269" width="22" height="1" fill="#010000"/><rect x="299" y="269" width="42" height="1" fill="#2CE8F5"/><rect x="341" y="269" width="22" height="1" fill="#000000"/><rect x="171" y="270" width="21" height="1" fill="#010000"/><rect x="192" y="270" width="43" height="1" fill="#2CE8F5"/><rect x="235" y="270" width="21" height="1" fill="#000000"/><rect x="277" y="270" width="22" height="1" fill="#010000"/><rect x="299" y="270" width="42" height="1" fill="#2CE8F5"/><rect x="341" y="270" width="22" height="1" fill="#000000"/><rect x="171" y="271" width="21" height="1" fill="#010000"/><rect x="192" y="271" width="43" height="1" fill="#2CE8F5"/><rect x="235" y="271" width="21" height="1" fill="#000000"/><rect x="277" y="271" width="22" height="1" fill="#010000"/><rect x="299" y="271" width="42" height="1" fill="#2CE8F5"/><rect x="341" y="271" width="22" height="1" fill="#000000"/><rect x="171" y="272" width="21" height="1" fill="#010000"/><rect x="192" y="272" width="43" height="1" fill="#2CE8F5"/><rect x="235" y="272" width="21" height="1" fill="#000000"/><rect x="277" y="272" width="22" height="1" fill="#010000"/><rect x="299" y="272" width="42" height="1" fill="#2CE8F5"/><rect x="341" y="272" width="22" height="1" fill="#000000"/><rect x="171" y="273" width="21" height="1" fill="#010000"/><rect x="192" y="273" width="43" height="1" fill="#2CE8F5"/><rect x="235" y="273" width="21" height="1" fill="#000000"/><rect x="277" y="273" width="22" height="1" fill="#010000"/><rect x="299" y="273" width="42" height="1" fill="#2CE8F5"/><rect x="341" y="273" width="22" height="1" fill="#000000"/><rect x="171" y="274" width="21" height="1" fill="#010000"/><rect x="192" y="274" width="43" height="1" fill="#2CE8F5"/><rect x="235" y="274" width="21" height="1" fill="#000000"/><rect x="277" y="274" width="22" height="1" fill="#010000"/><rect x="299" y="274" width="42" height="1" fill="#2CE8F5"/><rect x="341" y="274" width="22" height="1" fill="#000000"/><rect x="171" y="275" width="21" height="1" fill="#010000"/><rect x="192" y="275" width="43" height="1" fill="#2CE8F5"/><rect x="235" y="275" width="21" height="1" fill="#000000"/><rect x="277" y="275" width="22" height="1" fill="#010000"/><rect x="299" y="275" width="42" height="1" fill="#2CE8F5"/><rect x="341" y="275" width="22" height="1" fill="#000000"/><rect x="171" y="276" width="21" height="1" fill="#010000"/><rect x="192" y="276" width="43" height="1" fill="#2CE8F5"/><rect x="235" y="276" width="21" height="1" fill="#000000"/><rect x="277" y="276" width="22" height="1" fill="#010000"/><rect x="299" y="276" width="42" height="1" fill="#2CE8F5"/><rect x="341" y="276" width="22" height="1" fill="#000000"/><rect x="171" y="277" width="21" height="1" fill="#000102"/><rect x="192" y="277" width="21" height="1" fill="#010000"/><rect x="213" y="277" width="22" height="1" fill="#070003"/><rect x="235" y="277" width="21" height="1" fill="#000000"/><rect x="277" y="277" width="22" height="1" fill="#000000"/><rect x="299" y="277" width="21" height="1" fill="#040000"/><rect x="320" y="277" width="21" height="1" fill="#010000"/><rect x="341" y="277" width="22" height="1" fill="#000000"/><rect x="171" y="278" width="21" height="1" fill="#000102"/><rect x="192" y="278" width="21" height="1" fill="#010000"/><rect x="213" y="278" width="22" height="1" fill="#070003"/><rect x="235" y="278" width="21" height="1" fill="#000000"/><rect x="277" y="278" width="22" height="1" fill="#000000"/><rect x="299" y="278" width="21" height="1" fill="#040000"/><rect x="320" y="278" width="21" height="1" fill="#010000"/><rect x="341" y="278" width="22" height="1" fill="#000000"/><rect x="171" y="279" width="21" height="1" fill="#000102"/><rect x="192" y="279" width="21" height="1" fill="#010000"/><rect x="213" y="279" width="22" height="1" fill="#070003"/><rect x="235" y="279" width="21" height="1" fill="#000000"/><rect x="277" y="279" width="22" height="1" fill="#000000"/><rect x="299" y="279" width="21" height="1" fill="#040000"/><rect x="320" y="279" width="21" height="1" fill="#010000"/><rect x="341" y="279" width="22" height="1" fill="#000000"/><rect x="171" y="280" width="21" height="1" fill="#000102"/><rect x="192" y="280" width="21" height="1" fill="#010000"/><rect x="213" y="280" width="22" height="1" fill="#070003"/><rect x="235" y="280" width="21" height="1" fill="#000000"/><rect x="277" y="280" width="22" height="1" fill="#000000"/><rect x="299" y="280" width="21" height="1" fill="#040000"/><rect x="320" y="280" width="21" height="1" fill="#010000"/><rect x="341" y="280" width="22" height="1" fill="#000000"/><rect x="171" y="281" width="21" height="1" fill="#000102"/><rect x="192" y="281" width="21" height="1" fill="#010000"/><rect x="213" y="281" width="22" height="1" fill="#070003"/><rect x="235" y="281" width="21" height="1" fill="#000000"/><rect x="277" y="281" width="22" height="1" fill="#000000"/><rect x="299" y="281" width="21" height="1" fill="#040000"/><rect x="320" y="281" width="21" height="1" fill="#010000"/><rect x="341" y="281" width="22" height="1" fill="#000000"/><rect x="171" y="282" width="21" height="1" fill="#000102"/><rect x="192" y="282" width="21" height="1" fill="#010000"/><rect x="213" y="282" width="22" height="1" fill="#070003"/><rect x="235" y="282" width="21" height="1" fill="#000000"/><rect x="277" y="282" width="22" height="1" fill="#000000"/><rect x="299" y="282" width="21" height="1" fill="#040000"/><rect x="320" y="282" width="21" height="1" fill="#010000"/><rect x="341" y="282" width="22" height="1" fill="#000000"/><rect x="171" y="283" width="21" height="1" fill="#000102"/><rect x="192" y="283" width="21" height="1" fill="#010000"/><rect x="213" y="283" width="22" height="1" fill="#070003"/><rect x="235" y="283" width="21" height="1" fill="#000000"/><rect x="277" y="283" width="22" height="1" fill="#000000"/><rect x="299" y="283" width="21" height="1" fill="#040000"/><rect x="320" y="283" width="21" height="1" fill="#010000"/><rect x="341" y="283" width="22" height="1" fill="#000000"/><rect x="171" y="284" width="21" height="1" fill="#000102"/><rect x="192" y="284" width="21" height="1" fill="#010000"/><rect x="213" y="284" width="22" height="1" fill="#070003"/><rect x="235" y="284" width="21" height="1" fill="#000000"/><rect x="277" y="284" width="22" height="1" fill="#000000"/><rect x="299" y="284" width="21" height="1" fill="#040000"/><rect x="320" y="284" width="21" height="1" fill="#010000"/><rect x="341" y="284" width="22" height="1" fill="#000000"/><rect x="171" y="285" width="21" height="1" fill="#000102"/><rect x="192" y="285" width="21" height="1" fill="#010000"/><rect x="213" y="285" width="22" height="1" fill="#070003"/><rect x="235" y="285" width="21" height="1" fill="#000000"/><rect x="277" y="285" width="22" height="1" fill="#000000"/><rect x="299" y="285" width="21" height="1" fill="#040000"/><rect x="320" y="285" width="21" height="1" fill="#010000"/><rect x="341" y="285" width="22" height="1" fill="#000000"/><rect x="171" y="286" width="21" height="1" fill="#000102"/><rect x="192" y="286" width="21" height="1" fill="#010000"/><rect x="213" y="286" width="22" height="1" fill="#070003"/><rect x="235" y="286" width="21" height="1" fill="#000000"/><rect x="277" y="286" width="22" height="1" fill="#000000"/><rect x="299" y="286" width="21" height="1" fill="#040000"/><rect x="320" y="286" width="21" height="1" fill="#010000"/><rect x="341" y="286" width="22" height="1" fill="#000000"/><rect x="171" y="287" width="21" height="1" fill="#000102"/><rect x="192" y="287" width="21" height="1" fill="#010000"/><rect x="213" y="287" width="22" height="1" fill="#070003"/><rect x="235" y="287" width="21" height="1" fill="#000000"/><rect x="277" y="287" width="22" height="1" fill="#000000"/><rect x="299" y="287" width="21" height="1" fill="#040000"/><rect x="320" y="287" width="21" height="1" fill="#010000"/><rect x="341" y="287" width="22" height="1" fill="#000000"/><rect x="171" y="288" width="21" height="1" fill="#000102"/><rect x="192" y="288" width="21" height="1" fill="#010000"/><rect x="213" y="288" width="22" height="1" fill="#070003"/><rect x="235" y="288" width="21" height="1" fill="#000000"/><rect x="277" y="288" width="22" height="1" fill="#000000"/><rect x="299" y="288" width="21" height="1" fill="#040000"/><rect x="320" y="288" width="21" height="1" fill="#010000"/><rect x="341" y="288" width="22" height="1" fill="#000000"/><rect x="171" y="289" width="21" height="1" fill="#000102"/><rect x="192" y="289" width="21" height="1" fill="#010000"/><rect x="213" y="289" width="22" height="1" fill="#070003"/><rect x="235" y="289" width="21" height="1" fill="#000000"/><rect x="277" y="289" width="22" height="1" fill="#000000"/><rect x="299" y="289" width="21" height="1" fill="#040000"/><rect x="320" y="289" width="21" height="1" fill="#010000"/><rect x="341" y="289" width="22" height="1" fill="#000000"/><rect x="171" y="290" width="21" height="1" fill="#000102"/><rect x="192" y="290" width="21" height="1" fill="#010000"/><rect x="213" y="290" width="22" height="1" fill="#070003"/><rect x="235" y="290" width="21" height="1" fill="#000000"/><rect x="277" y="290" width="22" height="1" fill="#000000"/><rect x="299" y="290" width="21" height="1" fill="#040000"/><rect x="320" y="290" width="21" height="1" fill="#010000"/><rect x="341" y="290" width="22" height="1" fill="#000000"/><rect x="171" y="291" width="21" height="1" fill="#000102"/><rect x="192" y="291" width="21" height="1" fill="#010000"/><rect x="213" y="291" width="22" height="1" fill="#070003"/><rect x="235" y="291" width="21" height="1" fill="#000000"/><rect x="277" y="291" width="22" height="1" fill="#000000"/><rect x="299" y="291" width="21" height="1" fill="#040000"/><rect x="320" y="291" width="21" height="1" fill="#010000"/><rect x="341" y="291" width="22" height="1" fill="#000000"/><rect x="171" y="292" width="21" height="1" fill="#000102"/><rect x="192" y="292" width="21" height="1" fill="#010000"/><rect x="213" y="292" width="22" height="1" fill="#070003"/><rect x="235" y="292" width="21" height="1" fill="#000000"/><rect x="277" y="292" width="22" height="1" fill="#000000"/><rect x="299" y="292" width="21" height="1" fill="#040000"/><rect x="320" y="292" width="21" height="1" fill="#010000"/><rect x="341" y="292" width="22" height="1" fill="#000000"/><rect x="171" y="293" width="21" height="1" fill="#000102"/><rect x="192" y="293" width="21" height="1" fill="#010000"/><rect x="213" y="293" width="22" height="1" fill="#070003"/><rect x="235" y="293" width="21" height="1" fill="#000000"/><rect x="277" y="293" width="22" height="1" fill="#000000"/><rect x="299" y="293" width="21" height="1" fill="#040000"/><rect x="320" y="293" width="21" height="1" fill="#010000"/><rect x="341" y="293" width="22" height="1" fill="#000000"/><rect x="171" y="294" width="21" height="1" fill="#000102"/><rect x="192" y="294" width="21" height="1" fill="#010000"/><rect x="213" y="294" width="22" height="1" fill="#070003"/><rect x="235" y="294" width="21" height="1" fill="#000000"/><rect x="277" y="294" width="22" height="1" fill="#000000"/><rect x="299" y="294" width="21" height="1" fill="#040000"/><rect x="320" y="294" width="21" height="1" fill="#010000"/><rect x="341" y="294" width="22" height="1" fill="#000000"/><rect x="171" y="295" width="21" height="1" fill="#000102"/><rect x="192" y="295" width="21" height="1" fill="#010000"/><rect x="213" y="295" width="22" height="1" fill="#070003"/><rect x="235" y="295" width="21" height="1" fill="#000000"/><rect x="277" y="295" width="22" height="1" fill="#000000"/><rect x="299" y="295" width="21" height="1" fill="#040000"/><rect x="320" y="295" width="21" height="1" fill="#010000"/><rect x="341" y="295" width="22" height="1" fill="#000000"/><rect x="171" y="296" width="21" height="1" fill="#000102"/><rect x="192" y="296" width="21" height="1" fill="#010000"/><rect x="213" y="296" width="22" height="1" fill="#070003"/><rect x="235" y="296" width="21" height="1" fill="#000000"/><rect x="277" y="296" width="22" height="1" fill="#000000"/><rect x="299" y="296" width="21" height="1" fill="#040000"/><rect x="320" y="296" width="21" height="1" fill="#010000"/><rect x="341" y="296" width="22" height="1" fill="#000000"/><rect x="171" y="297" width="21" height="1" fill="#000102"/><rect x="192" y="297" width="21" height="1" fill="#010000"/><rect x="213" y="297" width="22" height="1" fill="#070003"/><rect x="235" y="297" width="21" height="1" fill="#000000"/><rect x="277" y="297" width="22" height="1" fill="#000000"/><rect x="299" y="297" width="21" height="1" fill="#040000"/><rect x="320" y="297" width="21" height="1" fill="#010000"/><rect x="341" y="297" width="22" height="1" fill="#000000"/><rect x="171" y="298" width="21" height="1" fill="#000102"/><rect x="192" y="298" width="21" height="1" fill="#010000"/><rect x="213" y="298" width="22" height="1" fill="#070003"/><rect x="235" y="298" width="21" height="1" fill="#000000"/><rect x="277" y="298" width="22" height="1" fill="#000000"/><rect x="299" y="298" width="21" height="1" fill="#040000"/><rect x="320" y="298" width="21" height="1" fill="#010000"/><rect x="341" y="298" width="22" height="1" fill="#000000"/></svg>