<svg xmlns="http://www.w3.org/2000/svg" viewBox="0 0 512 512" width="512" height="512" shape-rendering="crispEdges"><rect x="128" y="235" width="171" height="1" fill="#000000"/><rect x="299" y="235" width="21" height="1" fill="#000100"/><rect x="320" y="235" width="64" height="1" fill="#000000"/><rect x="128" y="236" width="171" height="1" fill="#000000"/><rect x="299" y="236" width="21" height="1" fill="#000100"/><rect x="320" y="236" width="64" height="1" fill="#000000"/><rect x="128" y="237" width="171" height="1" fill="#000000"/><rect x="299" y="237" width="21" height="1" fill="#000100"/><rect x="320" y="237" width="64" height="1" fill="#000000"/><rect x="128" y="238" width="171" height="1" fill="#000000"/><rect x="299" y="238" width="21" height="1" fill="#000100"/><rect x="320" y="238" width="64" height="1" fill="#000000"/><rect x="128" y="239" width="171" height="1" fill="#000000"/><rect x="299" y="239" width="21" height="1" fill="#000100"/><rect x="320" y="239" width="64" height="1" fill="#000000"/><rect x="128" y="240" width="171" height="1" fill="#000000"/><rect x="299" y="240" width="21" height="1" fill="#000100"/><rect x="320" y="240" width="64" height="1" fill="#000000"/><rect x="128" y="241" width="171" height="1" fill="#000000"/><rect x="299" y="241" width="21" height="1" fill="#000100"/><rect x="320" y="241" width="64" height="1" fill="#000000"/><rect x="128" y="242" width="171" height="1" fill="#000000"/><rect x="299" y="242" width="21" height="1" fill="#000100"/><rect x="320" y="242" width="64" height="1" fill="#000000"/><rect x="128" y="243" width="171" height="1" fill="#000000"/><rect x="299" y="243" width="21" height="1" fill="#000100"/><rect x="320" y="243" width="64" height="1" fill="#000000"/><rect x="128" y="244" width="171" height="1" fill="#000000"/><rect x="299" y="244" width="21" height="1" fill="#000100"/><rect x="320" y="244" width="64" height="1" fill="#000000"/><rect x="128" y="245" width="171" height="1" fill="#000000"/><rect x="299" y="245" width="21" height="1" fill="#000100"/><rect x="320" y="245" width="64" height="1" fill="#000000"/><rect x="128" y="246" width="171" height="1" fill="#000000"/><rect x="299" y="246" width="21" height="1" fill="#000100"/><rect x="320" y="246" width="64" height="1" fill="#000000"/><rect x="128" y="247" width="171" height="1" fill="#000000"/><rect x="299" y="247" width="21" height="1" fill="#000100"/><rect x="320" y="247" width="64" height="1" fill="#000000"/><rect x="128" y="248" width="171" height="1" fill="#000000"/><rect x="299" y="248" width="21" height="1" fill="#000100"/><rect x="320" y="248" width="64" height="1" fill="#000000"/><rect x="128" y="249" width="171" height="1" fill="#000000"/><rect x="299" y="249" width="21" height="1" fill="#000100"/><rect x="320" y="249" width="64" height="1" fill="#000000"/><rect x="128" y="250" width="171" height="1" fill="#000000"/><rect x="299" y="250" width="21" height="1" fill="#000100"/><rect x="320" y="250" width="64" height="1" fill="#000000"/><rect x="128" y="251" width="171" height="1" fill="#000000"/><rect x="299" y="251" width="21" height="1" fill="#000100"/><rect x="320" y="251" width="64" height="1" fill="#000000"/><rect x="128" y="252" width="171" height="1" fill="#000000"/><rect x="299" y="252" width="21" height="1" fill="#000100"/><rect x="320" y="252" width="64" height="1" fill="#000000"/><rect x="128" y="253" width="171" height="1" fill="#000000"/><rect x="299" y="253" width="21" height="1" fill="#000100"/><rect x="320" y="253" width="64" height="1" fill="#000000"/><rect x="128" y="254" width="171" height="1" fill="#000000"/><rect x="299" y="254" width="21" height="1" fill="#000100"/><rect x="320" y="254" width="64" height="1" fill="#000000"/><rect x="128" y="255" width="171" height="1" fill="#000000"/><rect x="299" y="255" width="21" height="1" fill="#000100"/><rect x="320" y="255" width="64" height="1" fill="#000000"/><rect x="171" y="256" width="64" height="1" fill="#000000"/><rect x="235" y="256" width="21" height="1" fill="#000005"/><rect x="299" y="256" width="21" height="1" fill="#000003"/><rect x="320" y="256" width="21" height="1" fill="#000007"/><rect x="341" y="256" width="22" height="1" fill="#010000"/><rect x="363" y="256" width="21" height="1" fill="#000200"/><rect x="171" y="257" width="64" height="1" fill="#000000"/><rect x="235" y="257" width="21" height="1" fill="#000005"/><rect x="299" y="257" width="21" height="1" fill="#000003"/><rect x="320" y="257" width="21" height="1" fill="#000007"/><rect x="341" y="257" width="22" height="1" fill="#010000"/><rect x="363" y="257" width="21" height="1" fill="#000200"/><rect x="171" y="258" width="64" height="1" fill="#000000"/><rect x="235" y="258" width="21" height="1" fill="#000005"/><rect x="299" y="258" width="21" height="1" fill="#000003"/><rect x="320" y="258" width="21" height="1" fill="#000007"/><rect x="341" y="258" width="22" height="1" fill="#010000"/><rect x="363" y="258" width="21" height="1" fill="#000200"/><rect x="171" y="259" width="64" height="1" fill="#000000"/><rect x="235" y="259" width="21" height="1" fill="#000005"/><rect x="299" y="259" width="21" height="1" fill="#000003"/><rect x="320" y="259" width="21" height="1" fill="#000007"/><rect x="341" y="259" width="22" height="1" fill="#010000"/><rect x="363" y="259" width="21" height="1" fill="#000200"/><rect x="171" y="260" width="64" height="1" fill="#000000"/><rect x="235" y="260" width="21" height="1" fill="#000005"/><rect x="299" y="260" width="21" height="1" fill="#000003"/><rect x="320" y="260" width="21" height="1" fill="#000007"/><rect x="341" y="260" width="22" height="1" fill="#010000"/><rect x="363" y="260" width="21" height="1" fill="#000200"/><rect x="171" y="261" width="64" height="1" fill="#000000"/><rect x="235" y="261" width="21" height="1" fill="#000005"/><rect x="299" y="261" width="21" height="1" fill="#000003"/><rect x="320" y="261" width="21" height="1" fill="#000007"/><rect x="341" y="261" width="22" height="1" fill="#010000"/><rect x="363" y="261" width="21" height="1" fill="#000200"/><rect x="171" y="262" width="64" height="1" fill="#000000"/><rect x="235" y="262" width="21" height="1" fill="#000005"/><rect x="299" y="262" width="21" height="1" fill="#000003"/><rect x="320" y="262" width="21" height="1" fill="#000007"/><rect x="341" y="262" width="22" height="1" fill="#010000"/><rect x="363" y="262" width="21" height="1" fill="#000200"/><rect x="171" y="263" width="64" height="1" fill="#000000"/><rect x="235" y="263" width="21" height="1" fill="#000005"/><rect x="299" y="263" width="21" height="1" fill="#000003"/><rect x="320" y="263" width="21" height="1" fill="#000007"/><rect x="341" y="263" width="22" height="1" fill="#010000"/><rect x="363" y="263" width="21" height="1" fill="#000200"/><rect x="171" y="264" width="64" height="1" fill="#000000"/><rect x="235" y="264" width="21" height="1" fill="#000005"/><rect x="299" y="264" width="21" height="1" fill="#000003"/><rect x="320" y="264" width="21" height="1" fill="#000007"/><rect x="341" y="264" width="22" height="1" fill="#010000"/><rect x="363" y="264" width="21" height="1" fill="#000200"/><rect x="171" y="265" width="64" height="1" fill="#000000"/><rect x="235" y="265" width="21" height="1" fill="#000005"/><rect x="299" y="265" width="21" height="1" fill="#000003"/><rect x="320" y="265" width="21" height="1" fill="#000007"/><rect x="341" y="265" width="22" height="1" fill="#010000"/><rect x="363" y="265" width="21" height="1" fill="#000200"/><rect x="171" y="266" width="64" height="1" fill="#000000"/><rect x="235" y="266" width="21" height="1" fill="#000005"/><rect x="299" y="266" width="21" height="1" fill="#000003"/><rect x="320" y="266" width="21" height="1" fill="#000007"/><rect x="341" y="266" width="22" height="1" fill="#010000"/><rect x="363" y="266" width="21" height="1" fill="#000200"/><rect x="171" y="267" width="64" height="1" fill="#000000"/><rect x="235" y="267" width="21" height="1" fill="#000005"/><rect x="299" y="267" width="21" height="1" fill="#000003"/><rect x="320" y="267" width="21" height="1" fill="#000007"/><rect x="341" y="267" width="22" height="1" fill="#010000"/><rect x="363" y="267" width="21" height="1" fill="#000200"/><rect x="171" y="268" width="64" height="1" fill="#000000"/><rect x="235" y="268" width="21" height="1" fill="#000005"/><rect x="299" y="268" width="21" height="1" fill="#000003"/><rect x="320" y="268" width="21" height="1" fill="#000007"/><rect x="341" y="268" width="22" height="1" fill="#010000"/><rect x="363" y="268" width="21" height="1" fill="#000200"/><rect x="171" y="269" width="64" height="1" fill="#000000"/><rect x="235" y="269" width="21" height="1" fill="#000005"/><rect x="299" y="269" width="21" height="1" fill="#000003"/><rect x="320" y="269" width="21" height="1" fill="#000007"/><rect x="341" y="269" width="22" height="1" fill="#010000"/><rect x="363" y="269" width="21" height="1" fill="#000200"/><rect x="171" y="270" width="64" height="1" fill="#000000"/><rect x="235" y="270" width="21" height="1" fill="#000005"/><rect x="299" y="270" width="21" height="1" fill="#000003"/><rect x="320" y="270" width="21" height="1" fill="#000007"/><rect x="341" y="270" width="22" height="1" fill="#010000"/><rect x="363" y="270" width="21" height="1" fill="#000200"/><rect x="171" y="271" width="64" height="1" fill="#000000"/><rect x="235" y="271" width="21" height="1" fill="#000005"/><rect x="299" y="271" width="21" height="1" fill="#000003"/><rect x="320" y="271" width="21" height="1" fill="#000007"/><rect x="341" y="271" width="22" height="1" fill="#010000"/><rect x="363" y="271" width="21" height="1" fill="#000200"/><rect x="171" y="272" width="64" height="1" fill="#000000"/><rect x="235" y="272" width="21" height="1" fill="#000005"/><rect x="299" y="272" width="21" height="1" fill="#000003"/><rect x="320" y="272" width="21" height="1" fill="#000007"/><rect x="341" y="272" width="22" height="1" fill="#010000"/><rect x="363" y="272" width="21" height="1" fill="#000200"/><rect x="171" y="273" width="64" height="1" fill="#000000"/><rect x="235" y="273" width="21" height="1" fill="#000005"/><rect x="299" y="273" width="21" height="1" fill="#000003"/><rect x="320" y="273" width="21" height="1" fill="#000007"/><rect x="341" y="273" width="22" height="1" fill="#010000"/><rect x="363" y="273" width="21" height="1" fill="#000200"/><rect x="171" y="274" width="64" height="1" fill="#000000"/><rect x="235" y="274" width="21" height="1" fill="#000005"/><rect x="299" y="274" width="21" height="1" fill="#000003"/><rect x="320" y="274" width="21" height="1" fill="#000007"/><rect x="341" y="274" width="22" height="1" fill="#010000"/><rect x="363" y="274" width="21" height="1" fill="#000200"/><rect x="171" y="275" width="64" height="1" fill="#000000"/><rect x="235" y="275" width="21" height="1" fill="#000005"/><rect x="299" y="275" width="21" height="1" fill="#000003"/><rect x="320" y="275" width="21" height="1" fill="#000007"/><rect x="341" y="275" width="22" height="1" fill="#010000"/><rect x="363" y="275" width="21" height="1" fill="#000200"/><rect x="171" y="276" width="64" height="1" fill="#000000"/><rect x="235" y="276" width="21" height="1" fill="#000005"/><rect x="299" y="276" width="21" height="1" fill="#000003"/><rect x="320" y="276" width="21" height="1" fill="#000007"/><rect x="341" y="276" width="22" height="1" fill="#010000"/><rect x="363" y="276" width="21" height="1" fill="#000200"/><rect x="192" y="277" width="43" height="1" fill="#000000"/><rect x="320" y="277" width="21" height="1" fill="#040003"/><rect x="341" y="277" width="22" height="1" fill="#000105"/><rect x="192" y="278" width="43" height="1" fill="#000000"/><rect x="320" y="278" width="21" height="1" fill="#040003"/><rect x="341" y="278" width="22" height="1" fill="#000105"/><rect x="192" y="279" width="43" height="1" fill="#000000"/><rect x="320" y="279" width="21" height="1" fill="#040003"/><rect x="341" y="279" width="22" height="1" fill="#000105"/><rect x="192" y="280" width="43" height="1" fill="#000000"/><rect x="320" y="280" width="21" height="1" fill="#040003"/><rect x="341" y="280" width="22" height="1" fill="#000105"/><rect x="192" y="281" width="43" height="1" fill="#000000"/><rect x="320" y="281" width="21" height="1" fill="#040003"/><rect x="341" y="281" width="22" height="1" fill="#000105"/><rect x="192" y="282" width="43" height="1" fill="#000000"/><rect x="320" y="282" width="21" height="1" fill="#040003"/><rect x="341" y="282" width="22" height="1" fill="#000105"/><rect x="192" y="283" width="43" height="1" fill="#000000"/><rect x="320" y="283" width="21" height="1" fill="#040003"/><rect x="341" y="283" width="22" height="1" fill="#000105"/><rect x="192" y="284" width="43" height="1" fill="#000000"/><rect x="320" y="284" width="21" height="1" fill="#040003"/><rect x="341" y="284" width="22" height="1" fill="#000105"/><rect x="192" y="285" width="43" height="1" fill="#000000"/><rect x="320" y="285" width="21" height="1" fill="#040003"/><rect x="341" y="285" width="22" height="1" fill="#000105"/><rect x="192" y="286" width="43" height="1" fill="#000000"/><rect x="320" y="286" width="21" height="1" fill="#040003"/><rect x="341" y="286" width="22" height="1" fill="#000105"/><rect x="192" y="287" width="43" height="1" fill="#000000"/><rect x="320" y="287" width="21" height="1" fill="#040003"/><rect x="341" y="287" width="22" height="1" fill="#000105"/><rect x="192" y="288" width="43" height="1" fill="#000000"/><rect x="320" y="288" width="21" height="1" fill="#040003"/><rect x="341" y="288" width="22" height="1" fill="#000105"/><rect x="192" y="289" width="43" height="1" fill="#000000"/><rect x="320" y="289" width="21" height="1" fill="#040003"/><rect x="341" y="289" width="22" height="1" fill="#000105"/><rect x="192" y="290" width="43" height="1" fill="#000000"/><rect x="320" y="290" width="21" height="1" fill="#040003"/><rect x="341" y="290" width="22" height="1" fill="#000105"/><rect x="192" y="291" width="43" height="1" fill="#000000"/><rect x="320" y="291" width="21" height="1" fill="#040003"/><rect x="341" y="291" width="22" height="1" fill="#000105"/><rect x="192" y="292" width="43" height="1" fill="#000000"/><rect x="320" y="292" width="21" height="1" fill="#040003"/><rect x="341" y="292" width="22" height="1" fill="#000105"/><rect x="192" y="293" width="43" height="1" fill="#000000"/><rect x="320" y="293" width="21" height="1" fill="#040003"/><rect x="341" y="293" width="22" height="1" fill="#000105"/><rect x="192" y="294" width="43" height="1" fill="#000000"/><rect x="320" y="294" width="21" height="1" fill="#040003"/><rect x="341" y="294" width="22" height="1" fill="#000105"/><rect x="192" y="295" width="43" height="1" fill="#000000"/><rect x="320" y="295" width="21" height="1" fill="#040003"/><rect x="341" y="295" width="22" height="1" fill="#000105"/><rect x="192" y="296" width="43" height="1" fill="#000000"/><rect x="320" y="296" width="21" height="1" fill="#040003"/><rect x="341" y="296" width="22" height="1" fill="#000105"/><rect x="192" y="297" width="43" height="1" fill="#000000"/><rect x="320" y="297" width="21" height="1" fill="#040003"/><rect x="341" y="297" width="22" height="1" fill="#000105"/><rect x="192" y="298" width="43" height="1" fill="#000000"/><rect x="320" y="298" width="21" height="1" fill="#040003"/><rect x="341" y="298" width="22" height="1" fill="#000105"/></svg>