<svg xmlns="http://www.w3.org/2000/svg" viewBox="0 0 512 512" width="512" height="512" shape-rendering="crispEdges"><rect x="171" y="192" width="192" height="1" fill="#000000"/><rect x="171" y="193" width="192" height="1" fill="#000000"/><rect x="171" y="194" width="192" height="1" fill="#000000"/><rect x="171" y="195" width="192" height="1" fill="#000000"/><rect x="171" y="196" width="192" height="1" fill="#000000"/><rect x="171" y="197" width="192" height="1" fill="#000000"/><rect x="171" y="198" width="192" height="1" fill="#000000"/><rect x="171" y="199" width="192" height="1" fill="#000000"/><rect x="171" y="200" width="192" height="1" fill="#000000"/><rect x="171" y="201" width="192" height="1" fill="#000000"/><rect x="171" y="202" width="192" height="1" fill="#000000"/><rect x="171" y="203" width="192" height="1" fill="#000000"/><rect x="171" y="204" width="192" height="1" fill="#000000"/><rect x="171" y="205" width="192" height="1" fill="#000000"/><rect x="171" y="206" width="192" height="1" fill="#000000"/><rect x="171" y="207" width="192" height="1" fill="#000000"/><rect x="171" y="208" width="192" height="1" fill="#000000"/><rect x="171" y="209" width="192" height="1" fill="#000000"/><rect x="171" y="210" width="192" height="1" fill="#000000"/><rect x="171" y="211" width="192" height="1" fill="#000000"/><rect x="171" y="212" width="192" height="1" fill="#000000"/><rect x="149" y="213" width="22" height="1" fill="#000000"/><rect x="171" y="213" width="21" height="1" fill="#8D8D8D"/><rect x="192" y="213" width="149" height="1" fill="#B4B4B4"/><rect x="341" y="213" width="22" height="1" fill="#8D8D8D"/><rect x="363" y="213" width="21" height="1" fill="#000000"/><rect x="149" y="214" width="22" height="1" fill="#000000"/><rect x="171" y="214" width="21" height="1" fill="#8D8D8D"/><rect x="192" y="214" width="149" height="1" fill="#B4B4B4"/><rect x="341" y="214" width="22" height="1" fill="#8D8D8D"/><rect x="363" y="214" width="21" height="1" fill="#000000"/><rect x="149" y="215" width="22" height="1" fill="#000000"/><rect x="171" y="215" width="21" height="1" fill="#8D8D8D"/><rect x="192" y="215" width="149" height="1" fill="#B4B4B4"/><rect x="341" y="215" width="22" height="1" fill="#8D8D8D"/><rect x="363" y="215" width="21" height="1" fill="#000000"/><rect x="149" y="216" width="22" height="1" fill="#000000"/><rect x="171" y="216" width="21" height="1" fill="#8D8D8D"/><rect x="192" y="216" width="149" height="1" fill="#B4B4B4"/><rect x="341" y="216" width="22" height="1" fill="#8D8D8D"/><rect x="363" y="216" width="21" height="1" fill="#000000"/><rect x="149" y="217" width="22" height="1" fill="#000000"/><rect x="171" y="217" width="21" height="1" fill="#8D8D8D"/><rect x="192" y="217" width="149" height="1" fill="#B4B4B4"/><rect x="341" y="217" width="22" height="1" fill="#8D8D8D"/><rect x="363" y="217" width="21" height="1" fill="#000000"/><rect x="149" y="218" width="22" height="1" fill="#000000"/><rect x="171" y="218" width="21" height="1" fill="#8D8D8D"/><rect x="192" y="218" width="149" height="1" fill="#B4B4B4"/><rect x="341" y="218" width="22" height="1" fill="#8D8D8D"/><rect x="363" y="218" width="21" height="1" fill="#000000"/><rect x="149" y="219" width="22" height="1" fill="#000000"/><rect x="171" y="219" width="21" height="1" fill="#8D8D8D"/><rect x="192" y="219" width="149" height="1" fill="#B4B4B4"/><rect x="341" y="219" width="22" height="1" fill="#8D8D8D"/><rect x="363" y="219" width="21" height="1" fill="#000000"/><rect x="149" y="220" width="22" height="1" fill="#000000"/><rect x="171" y="220" width="21" height="1" fill="#8D8D8D"/><rect x="192" y="220" width="149" height="1" fill="#B4B4B4"/><rect x="341" y="220" width="22" height="1" fill="#8D8D8D"/><rect x="363" y="220" width="21" height="1" fill="#000000"/><rect x="149" y="221" width="22" height="1" fill="#000000"/><rect x="171" y="221" width="21" height="1" fill="#8D8D8D"/><rect x="192" y="221" width="149" height="1" fill="#B4B4B4"/><rect x="341" y="221" width="22" height="1" fill="#8D8D8D"/><rect x="363" y="221" width="21" height="1" fill="#000000"/><rect x="149" y="222" width="22" height="1" fill="#000000"/><rect x="171" y="222" width="21" height="1" fill="#8D8D8D"/><rect x="192" y="222" width="149" height="1" fill="#B4B4B4"/><rect x="341" y="222" width="22" height="1" fill="#8D8D8D"/><rect x="363" y="222" width="21" height="1" fill="#000000"/><rect x="149" y="223" width="22" height="1" fill="#000000"/><rect x="171" y="223" width="21" height="1" fill="#8D8D8D"/><rect x="192" y="223" width="149" height="1" fill="#B4B4B4"/><rect x="341" y="223" width="22" height="1" fill="#8D8D8D"/><rect x="363" y="223" width="21" height="1" fill="#000000"/><rect x="149" y="224" width="22" height="1" fill="#000000"/><rect x="171" y="224" width="21" height="1" fill="#8D8D8D"/><rect x="192" y="224" width="149" height="1" fill="#B4B4B4"/><rect x="341" y="224" width="22" height="1" fill="#8D8D8D"/><rect x="363" y="224" width="21" height="1" fill="#000000"/><rect x="149" y="225" width="22" height="1" fill="#000000"/><rect x="171" y="225" width="21" height="1" fill="#8D8D8D"/><rect x="192" y="225" width="149" height="1" fill="#B4B4B4"/><rect x="341" y="225" width="22" height="1" fill="#8D8D8D"/><rect x="363" y="225" width="21" height="1" fill="#000000"/><rect x="149" y="226" width="22" height="1" fill="#000000"/><rect x="171" y="226" width="21" height="1" fill="#8D8D8D"/><rect x="192" y="226" width="149" height="1" fill="#B4B4B4"/><rect x="341" y="226" width="22" height="1" fill="#8D8D8D"/><rect x="363" y="226" width="21" height="1" fill="#000000"/><rect x="149" y="227" width="22" height="1" fill="#000000"/><rect x="171" y="227" width="21" height="1" fill="#8D8D8D"/><rect x="192" y="227" width="149" height="1" fill="#B4B4B4"/><rect x="341" y="227" width="22" height="1" fill="#8D8D8D"/><rect x="363" y="227" width="21" height="1" fill="#000000"/><rect x="149" y="228" width="22" height="1" fill="#000000"/><rect x="171" y="228" width="21" height="1" fill="#8D8D8D"/><rect x="192" y="228" width="149" height="1" fill="#B4B4B4"/><rect x="341" y="228" width="22" height="1" fill="#8D8D8D"/><rect x="363" y="228" width="21" height="1" fill="#000000"/><rect x="149" y="229" width="22" height="1" fill="#000000"/><rect x="171" y="229" width="21" height="1" fill="#8D8D8D"/><rect x="192" y="229" width="149" height="1" fill="#B4B4B4"/><rect x="341" y="229" width="22" height="1" fill="#8D8D8D"/><rect x="363" y="229" width="21" height="1" fill="#000000"/><rect x="149" y="230" width="22" height="1" fill="#000000"/><rect x="171" y="230" width="21" height="1" fill="#8D8D8D"/><rect x="192" y="230" width="149" height="1" fill="#B4B4B4"/><rect x="341" y="230" width="22" height="1" fill="#8D8D8D"/><rect x="363" y="230" width="21" height="1" fill="#000000"/><rect x="149" y="231" width="22" height="1" fill="#000000"/><rect x="171" y="231" width="21" height="1" fill="#8D8D8D"/><rect x="192" y="231" width="149" height="1" fill="#B4B4B4"/><rect x="341" y="231" width="22" height="1" fill="#8D8D8D"/><rect x="363" y="231" width="21" height="1" fill="#000000"/><rect x="149" y="232" width="22" height="1" fill="#000000"/><rect x="171" y="232" width="21" height="1" fill="#8D8D8D"/><rect x="192" y="232" width="149" height="1" fill="#B4B4B4"/><rect x="341" y="232" width="22" height="1" fill="#8D8D8D"/><rect x="363" y="232" width="21" height="1" fill="#000000"/><rect x="149" y="233" width="22" height="1" fill="#000000"/><rect x="171" y="233" width="21" height="1" fill="#8D8D8D"/><rect x="192" y="233" width="149" height="1" fill="#B4B4B4"/><rect x="341" y="233" width="22" height="1" fill="#8D8D8D"/><rect x="363" y="233" width="21" height="1" fill="#000000"/><rect x="149" y="234" width="22" height="1" fill="#000000"/><rect x="171" y="234" width="21" height="1" fill="#8D8D8D"/><rect x="192" y="234" width="149" height="1" fill="#B4B4B4"/><rect x="341" y="234" width="22" height="1" fill="#8D8D8D"/><rect x="363" y="234" width="21" height="1" fill="#000000"/><rect x="128" y="235" width="21" height="1" fill="#000000"/><rect x="149" y="235" width="22" height="1" fill="#8D8D8D"/><rect x="171" y="235" width="21" height="1" fill="#B4B4B4"/><rect x="192" y="235" width="149" height="1" fill="#000000"/><rect x="341" y="235" width="22" height="1" fill="#B4B4B4"/><rect x="363" y="235" width="21" height="1" fill="#000000"/><rect x="128" y="236" width="21" height="1" fill="#000000"/><rect x="149" y="236" width="22" height="1" fill="#8D8D8D"/><rect x="171" y="236" width="21" height="1" fill="#B4B4B4"/><rect x="192" y="236" width="149" height="1" fill="#000000"/><rect x="341" y="236" width="22" height="1" fill="#B4B4B4"/><rect x="363" y="236" width="21" height="1" fill="#000000"/><rect x="128" y="237" width="21" height="1" fill="#000000"/><rect x="149" y="237" width="22" height="1" fill="#8D8D8D"/><rect x="171" y="237" width="21" height="1" fill="#B4B4B4"/><rect x="192" y="237" width="149" height="1" fill="#000000"/><rect x="341" y="237" width="22" height="1" fill="#B4B4B4"/><rect x="363" y="237" width="21" height="1" fill="#000000"/><rect x="128" y="238" width="21" height="1" fill="#000000"/><rect x="149" y="238" width="22" height="1" fill="#8D8D8D"/><rect x="171" y="238" width="21" height="1" fill="#B4B4B4"/><rect x="192" y="238" width="149" height="1" fill="#000000"/><rect x="341" y="238" width="22" height="1" fill="#B4B4B4"/><rect x="363" y="238" width="21" height="1" fill="#000000"/><rect x="128" y="239" width="21" height="1" fill="#000000"/><rect x="149" y="239" width="22" height="1" fill="#8D8D8D"/><rect x="171" y="239" width="21" height="1" fill="#B4B4B4"/><rect x="192" y="239" width="149" height="1" fill="#000000"/><rect x="341" y="239" width="22" height="1" fill="#B4B4B4"/><rect x="363" y="239" width="21" height="1" fill="#000000"/><rect x="128" y="240" width="21" height="1" fill="#000000"/><rect x="149" y="240" width="22" height="1" fill="#8D8D8D"/><rect x="171" y="240" width="21" height="1" fill="#B4B4B4"/><rect x="192" y="240" width="149" height="1" fill="#000000"/><rect x="341" y="240" width="22" height="1" fill="#B4B4B4"/><rect x="363" y="240" width="21" height="1" fill="#000000"/><rect x="128" y="241" width="21" height="1" fill="#000000"/><rect x="149" y="241" width="22" height="1" fill="#8D8D8D"/><rect x="171" y="241" width="21" height="1" fill="#B4B4B4"/><rect x="192" y="241" width="149" height="1" fill="#000000"/><rect x="341" y="241" width="22" height="1" fill="#B4B4B4"/><rect x="363" y="241" width="21" height="1" fill="#000000"/><rect x="128" y="242" width="21" height="1" fill="#000000"/><rect x="149" y="242" width="22" height="1" fill="#8D8D8D"/><rect x="171" y="242" width="21" height="1" fill="#B4B4B4"/><rect x="192" y="242" width="149" height="1" fill="#000000"/><rect x="341" y="242" width="22" height="1" fill="#B4B4B4"/><rect x="363" y="242" width="21" height="1" fill="#000000"/><rect x="128" y="243" width="21" height="1" fill="#000000"/><rect x="149" y="243" width="22" height="1" fill="#8D8D8D"/><rect x="171" y="243" width="21" height="1" fill="#B4B4B4"/><rect x="192" y="243" width="149" height="1" fill="#000000"/><rect x="341" y="243" width="22" height="1" fill="#B4B4B4"/><rect x="363" y="243" width="21" height="1" fill="#000000"/><rect x="128" y="244" width="21" height="1" fill="#000000"/><rect x="149" y="244" width="22" height="1" fill="#8D8D8D"/><rect x="171" y="244" width="21" height="1" fill="#B4B4B4"/><rect x="192" y="244" width="149" height="1" fill="#000000"/><rect x="341" y="244" width="22" height="1" fill="#B4B4B4"/><rect x="363" y="244" width="21" height="1" fill="#000000"/><rect x="128" y="245" width="21" height="1" fill="#000000"/><rect x="149" y="245" width="22" height="1" fill="#8D8D8D"/><rect x="171" y="245" width="21" height="1" fill="#B4B4B4"/><rect x="192" y="245" width="149" height="1" fill="#000000"/><rect x="341" y="245" width="22" height="1" fill="#B4B4B4"/><rect x="363" y="245" width="21" height="1" fill="#000000"/><rect x="128" y="246" width="21" height="1" fill="#000000"/><rect x="149" y="246" width="22" height="1" fill="#8D8D8D"/><rect x="171" y="246" width="21" height="1" fill="#B4B4B4"/><rect x="192" y="246" width="149" height="1" fill="#000000"/><rect x="341" y="246" width="22" height="1" fill="#B4B4B4"/><rect x="363" y="246" width="21" height="1" fill="#000000"/><rect x="128" y="247" width="21" height="1" fill="#000000"/><rect x="149" y="247" width="22" height="1" fill="#8D8D8D"/><rect x="171" y="247" width="21" height="1" fill="#B4B4B4"/><rect x="192" y="247" width="149" height="1" fill="#000000"/><rect x="341" y="247" width="22" height="1" fill="#B4B4B4"/><rect x="363" y="247" width="21" height="1" fill="#000000"/><rect x="128" y="248" width="21" height="1" fill="#000000"/><rect x="149" y="248" width="22" height="1" fill="#8D8D8D"/><rect x="171" y="248" width="21" height="1" fill="#B4B4B4"/><rect x="192" y="248" width="149" height="1" fill="#000000"/><rect x="341" y="248" width="22" height="1" fill="#B4B4B4"/><rect x="363" y="248" width="21" height="1" fill="#000000"/><rect x="128" y="249" width="21" height="1" fill="#000000"/><rect x="149" y="249" width="22" height="1" fill="#8D8D8D"/><rect x="171" y="249" width="21" height="1" fill="#B4B4B4"/><rect x="192" y="249" width="149" height="1" fill="#000000"/><rect x="341" y="249" width="22" height="1" fill="#B4B4B4"/><rect x="363" y="249" width="21" height="1" fill="#000000"/><rect x="128" y="250" width="21" height="1" fill="#000000"/><rect x="149" y="250" width="22" height="1" fill="#8D8D8D"/><rect x="171" y="250" width="21" height="1" fill="#B4B4B4"/><rect x="192" y="250" width="149" height="1" fill="#000000"/><rect x="341" y="250" width="22" height="1" fill="#B4B4B4"/><rect x="363" y="250" width="21" height="1" fill="#000000"/><rect x="128" y="251" width="21" height="1" fill="#000000"/><rect x="149" y="251" width="22" height="1" fill="#8D8D8D"/><rect x="171" y="251" width="21" height="1" fill="#B4B4B4"/><rect x="192" y="251" width="149" height="1" fill="#000000"/><rect x="341" y="251" width="22" height="1" fill="#B4B4B4"/><rect x="363" y="251" width="21" height="1" fill="#000000"/><rect x="128" y="252" width="21" height="1" fill="#000000"/><rect x="149" y="252" width="22" height="1" fill="#8D8D8D"/><rect x="171" y="252" width="21" height="1" fill="#B4B4B4"/><rect x="192" y="252" width="149" height="1" fill="#000000"/><rect x="341" y="252" width="22" height="1" fill="#B4B4B4"/><rect x="363" y="252" width="21" height="1" fill="#000000"/><rect x="128" y="253" width="21" height="1" fill="#000000"/><rect x="149" y="253" width="22" height="1" fill="#8D8D8D"/><rect x="171" y="253" width="21" height="1" fill="#B4B4B4"/><rect x="192" y="253" width="149" height="1" fill="#000000"/><rect x="341" y="253" width="22" height="1" fill="#B4B4B4"/><rect x="363" y="253" width="21" height="1" fill="#000000"/><rect x="128" y="254" width="21" height="1" fill="#000000"/><rect x="149" y="254" width="22" height="1" fill="#8D8D8D"/><rect x="171" y="254" width="21" height="1" fill="#B4B4B4"/><rect x="192" y="254" width="149" height="1" fill="#000000"/><rect x="341" y="254" width="22" height="1" fill="#B4B4B4"/><rect x="363" y="254" width="21" height="1" fill="#000000"/><rect x="128" y="255" width="21" height="1" fill="#000000"/><rect x="149" y="255" width="22" height="1" fill="#8D8D8D"/><rect x="171" y="255" width="21" height="1" fill="#B4B4B4"/><rect x="192" y="255" width="149" height="1" fill="#000000"/><rect x="341" y="255" width="22" height="1" fill="#B4B4B4"/><rect x="363" y="255" width="21" height="1" fill="#000000"/><rect x="128" y="256" width="21" height="1" fill="#000000"/><rect x="149" y="256" width="22" height="1" fill="#8D8D8D"/><rect x="171" y="256" width="21" height="1" fill="#B4B4B4"/><rect x="192" y="256" width="149" height="1" fill="#000000"/><rect x="341" y="256" width="22" height="1" fill="#B4B4B4"/><rect x="363" y="256" width="21" height="1" fill="#000000"/><rect x="128" y="257" width="21" height="1" fill="#000000"/><rect x="149" y="257" width="22" height="1" fill="#8D8D8D"/><rect x="171" y="257" width="21" height="1" fill="#B4B4B4"/><rect x="192" y="257" width="149" height="1" fill="#000000"/><rect x="341" y="257" width="22" height="1" fill="#B4B4B4"/><rect x="363" y="257" width="21" height="1" fill="#000000"/><rect x="128" y="258" width="21" height="1" fill="#000000"/><rect x="149" y="258" width="22" height="1" fill="#8D8D8D"/><rect x="171" y="258" width="21" height="1" fill="#B4B4B4"/><rect x="192" y="258" width="149" height="1" fill="#000000"/><rect x="341" y="258" width="22" height="1" fill="#B4B4B4"/><rect x="363" y="258" width="21" height="1" fill="#000000"/><rect x="128" y="259" width="21" height="1" fill="#000000"/><rect x="149" y="259" width="22" height="1" fill="#8D8D8D"/><rect x="171" y="259" width="21" height="1" fill="#B4B4B4"/><rect x="192" y="259" width="149" height="1" fill="#000000"/><rect x="341" y="259" width="22" height="1" fill="#B4B4B4"/><rect x="363" y="259" width="21" height="1" fill="#000000"/><rect x="128" y="260" width="21" height="1" fill="#000000"/><rect x="149" y="260" width="22" height="1" fill="#8D8D8D"/><rect x="171" y="260" width="21" height="1" fill="#B4B4B4"/><rect x="192" y="260" width="149" height="1" fill="#000000"/><rect x="341" y="260" width="22" height="1" fill="#B4B4B4"/><rect x="363" y="260" width="21" height="1" fill="#000000"/><rect x="128" y="261" width="21" height="1" fill="#000000"/><rect x="149" y="261" width="22" height="1" fill="#8D8D8D"/><rect x="171" y="261" width="21" height="1" fill="#B4B4B4"/><rect x="192" y="261" width="149" height="1" fill="#000000"/><rect x="341" y="261" width="22" height="1" fill="#B4B4B4"/><rect x="363" y="261" width="21" height="1" fill="#000000"/><rect x="128" y="262" width="21" height="1" fill="#000000"/><rect x="149" y="262" width="22" height="1" fill="#8D8D8D"/><rect x="171" y="262" width="21" height="1" fill="#B4B4B4"/><rect x="192" y="262" width="149" height="1" fill="#000000"/><rect x="341" y="262" width="22" height="1" fill="#B4B4B4"/><rect x="363" y="262" width="21" height="1" fill="#000000"/><rect x="128" y="263" width="21" height="1" fill="#000000"/><rect x="149" y="263" width="22" height="1" fill="#8D8D8D"/><rect x="171" y="263" width="21" height="1" fill="#B4B4B4"/><rect x="192" y="263" width="149" height="1" fill="#000000"/><rect x="341" y="263" width="22" height="1" fill="#B4B4B4"/><rect x="363" y="263" width="21" height="1" fill="#000000"/><rect x="128" y="264" width="21" height="1" fill="#000000"/><rect x="149" y="264" width="22" height="1" fill="#8D8D8D"/><rect x="171" y="264" width="21" height="1" fill="#B4B4B4"/><rect x="192" y="264" width="149" height="1" fill="#000000"/><rect x="341" y="264" width="22" height="1" fill="#B4B4B4"/><rect x="363" y="264" width="21" height="1" fill="#000000"/><rect x="128" y="265" width="21" height="1" fill="#000000"/><rect x="149" y="265" width="22" height="1" fill="#8D8D8D"/><rect x="171" y="265" width="21" height="1" fill="#B4B4B4"/><rect x="192" y="265" width="149" height="1" fill="#000000"/><rect x="341" y="265" width="22" height="1" fill="#B4B4B4"/><rect x="363" y="265" width="21" height="1" fill="#000000"/><rect x="128" y="266" width="21" height="1" fill="#000000"/><rect x="149" y="266" width="22" height="1" fill="#8D8D8D"/><rect x="171" y="266" width="21" height="1" fill="#B4B4B4"/><rect x="192" y="266" width="149" height="1" fill="#000000"/><rect x="341" y="266" width="22" height="1" fill="#B4B4B4"/><rect x="363" y="266" width="21" height="1" fill="#000000"/><rect x="128" y="267" width="21" height="1" fill="#000000"/><rect x="149" y="267" width="22" height="1" fill="#8D8D8D"/><rect x="171" y="267" width="21" height="1" fill="#B4B4B4"/><rect x="192" y="267" width="149" height="1" fill="#000000"/><rect x="341" y="267" width="22" height="1" fill="#B4B4B4"/><rect x="363" y="267" width="21" height="1" fill="#000000"/><rect x="128" y="268" width="21" height="1" fill="#000000"/><rect x="149" y="268" width="22" height="1" fill="#8D8D8D"/><rect x="171" y="268" width="21" height="1" fill="#B4B4B4"/><rect x="192" y="268" width="149" height="1" fill="#000000"/><rect x="341" y="268" width="22" height="1" fill="#B4B4B4"/><rect x="363" y="268" width="21" height="1" fill="#000000"/><rect x="128" y="269" width="21" height="1" fill="#000000"/><rect x="149" y="269" width="22" height="1" fill="#8D8D8D"/><rect x="171" y="269" width="21" height="1" fill="#B4B4B4"/><rect x="192" y="269" width="149" height="1" fill="#000000"/><rect x="341" y="269" width="22" height="1" fill="#B4B4B4"/><rect x="363" y="269" width="21" height="1" fill="#000000"/><rect x="128" y="270" width="21" height="1" fill="#000000"/><rect x="149" y="270" width="22" height="1" fill="#8D8D8D"/><rect x="171" y="270" width="21" height="1" fill="#B4B4B4"/><rect x="192" y="270" width="149" height="1" fill="#000000"/><rect x="341" y="270" width="22" height="1" fill="#B4B4B4"/><rect x="363" y="270" width="21" height="1" fill="#000000"/><rect x="128" y="271" width="21" height="1" fill="#000000"/><rect x="149" y="271" width="22" height="1" fill="#8D8D8D"/><rect x="171" y="271" width="21" height="1" fill="#B4B4B4"/><rect x="192" y="271" width="149" height="1" fill="#000000"/><rect x="341" y="271" width="22" height="1" fill="#B4B4B4"/><rect x="363" y="271" width="21" height="1" fill="#000000"/><rect x="128" y="272" width="21" height="1" fill="#000000"/><rect x="149" y="272" width="22" height="1" fill="#8D8D8D"/><rect x="171" y="272" width="21" height="1" fill="#B4B4B4"/><rect x="192" y="272" width="149" height="1" fill="#000000"/><rect x="341" y="272" width="22" height="1" fill="#B4B4B4"/><rect x="363" y="272" width="21" height="1" fill="#000000"/><rect x="128" y="273" width="21" height="1" fill="#000000"/><rect x="149" y="273" width="22" height="1" fill="#8D8D8D"/><rect x="171" y="273" width="21" height="1" fill="#B4B4B4"/><rect x="192" y="273" width="149" height="1" fill="#000000"/><rect x="341" y="273" width="22" height="1" fill="#B4B4B4"/><rect x="363" y="273" width="21" height="1" fill="#000000"/><rect x="128" y="274" width="21" height="1" fill="#000000"/><rect x="149" y="274" width="22" height="1" fill="#8D8D8D"/><rect x="171" y="274" width="21" height="1" fill="#B4B4B4"/><rect x="192" y="274" width="149" height="1" fill="#000000"/><rect x="341" y="274" width="22" height="1" fill="#B4B4B4"/><rect x="363" y="274" width="21" height="1" fill="#000000"/><rect x="128" y="275" width="21" height="1" fill="#000000"/><rect x="149" y="275" width="22" height="1" fill="#8D8D8D"/><rect x="171" y="275" width="21" height="1" fill="#B4B4B4"/><rect x="192" y="275" width="149" height="1" fill="#000000"/><rect x="341" y="275" width="22" height="1" fill="#B4B4B4"/><rect x="363" y="275" width="21" height="1" fill="#000000"/><rect x="128" y="276" width="21" height="1" fill="#000000"/><rect x="149" y="276" width="22" height="1" fill="#8D8D8D"/><rect x="171" y="276" width="21" height="1" fill="#B4B4B4"/><rect x="192" y="276" width="149" height="1" fill="#000000"/><rect x="341" y="276" width="22" height="1" fill="#B4B4B4"/><rect x="363" y="276" width="21" height="1" fill="#000000"/><rect x="149" y="277" width="22" height="1" fill="#000000"/><rect x="171" y="277" width="21" height="1" fill="#8D8D8D"/><rect x="192" y="277" width="149" height="1" fill="#B4B4B4"/><rect x="341" y="277" width="22" height="1" fill="#8D8D8D"/><rect x="363" y="277" width="21" height="1" fill="#000000"/><rect x="149" y="278" width="22" height="1" fill="#000000"/><rect x="171" y="278" width="21" height="1" fill="#8D8D8D"/><rect x="192" y="278" width="149" height="1" fill="#B4B4B4"/><rect x="341" y="278" width="22" height="1" fill="#8D8D8D"/><rect x="363" y="278" width="21" height="1" fill="#000000"/><rect x="149" y="279" width="22" height="1" fill="#000000"/><rect x="171" y="279" width="21" height="1" fill="#8D8D8D"/><rect x="192" y="279" width="149" height="1" fill="#B4B4B4"/><rect x="341" y="279" width="22" height="1" fill="#8D8D8D"/><rect x="363" y="279" width="21" height="1" fill="#000000"/><rect x="149" y="280" width="22" height="1" fill="#000000"/><rect x="171" y="280" width="21" height="1" fill="#8D8D8D"/><rect x="192" y="280" width="149" height="1" fill="#B4B4B4"/><rect x="341" y="280" width="22" height="1" fill="#8D8D8D"/><rect x="363" y="280" width="21" height="1" fill="#000000"/><rect x="149" y="281" width="22" height="1" fill="#000000"/><rect x="171" y="281" width="21" height="1" fill="#8D8D8D"/><rect x="192" y="281" width="149" height="1" fill="#B4B4B4"/><rect x="341" y="281" width="22" height="1" fill="#8D8D8D"/><rect x="363" y="281" width="21" height="1" fill="#000000"/><rect x="149" y="282" width="22" height="1" fill="#000000"/><rect x="171" y="282" width="21" height="1" fill="#8D8D8D"/><rect x="192" y="282" width="149" height="1" fill="#B4B4B4"/><rect x="341" y="282" width="22" height="1" fill="#8D8D8D"/><rect x="363" y="282" width="21" height="1" fill="#000000"/><rect x="149" y="283" width="22" height="1" fill="#000000"/><rect x="171" y="283" width="21" height="1" fill="#8D8D8D"/><rect x="192" y="283" width="149" height="1" fill="#B4B4B4"/><rect x="341" y="283" width="22" height="1" fill="#8D8D8D"/><rect x="363" y="283" width="21" height="1" fill="#000000"/><rect x="149" y="284" width="22" height="1" fill="#000000"/><rect x="171" y="284" width="21" height="1" fill="#8D8D8D"/><rect x="192" y="284" width="149" height="1" fill="#B4B4B4"/><rect x="341" y="284" width="22" height="1" fill="#8D8D8D"/><rect x="363" y="284" width="21" height="1" fill="#000000"/><rect x="149" y="285" width="22" height="1" fill="#000000"/><rect x="171" y="285" width="21" height="1" fill="#8D8D8D"/><rect x="192" y="285" width="149" height="1" fill="#B4B4B4"/><rect x="341" y="285" width="22" height="1" fill="#8D8D8D"/><rect x="363" y="285" width="21" height="1" fill="#000000"/><rect x="149" y="286" width="22" height="1" fill="#000000"/><rect x="171" y="286" width="21" height="1" fill="#8D8D8D"/><rect x="192" y="286" width="149" height="1" fill="#B4B4B4"/><rect x="341" y="286" width="22" height="1" fill="#8D8D8D"/><rect x="363" y="286" width="21" height="1" fill="#000000"/><rect x="149" y="287" width="22" height="1" fill="#000000"/><rect x="171" y="287" width="21" height="1" fill="#8D8D8D"/><rect x="192" y="287" width="149" height="1" fill="#B4B4B4"/><rect x="341" y="287" width="22" height="1" fill="#8D8D8D"/><rect x="363" y="287" width="21" height="1" fill="#000000"/><rect x="149" y="288" width="22" height="1" fill="#000000"/><rect x="171" y="288" width="21" height="1" fill="#8D8D8D"/><rect x="192" y="288" width="149" height="1" fill="#B4B4B4"/><rect x="341" y="288" width="22" height="1" fill="#8D8D8D"/><rect x="363" y="288" width="21" height="1" fill="#000000"/><rect x="149" y="289" width="22" height="1" fill="#000000"/><rect x="171" y="289" width="21" height="1" fill="#8D8D8D"/><rect x="192" y="289" width="149" height="1" fill="#B4B4B4"/><rect x="341" y="289" width="22" height="1" fill="#8D8D8D"/><rect x="363" y="289" width="21" height="1" fill="#000000"/><rect x="149" y="290" width="22" height="1" fill="#000000"/><rect x="171" y="290" width="21" height="1" fill="#8D8D8D"/><rect x="192" y="290" width="149" height="1" fill="#B4B4B4"/><rect x="341" y="290" width="22" height="1" fill="#8D8D8D"/><rect x="363" y="290" width="21" height="1" fill="#000000"/><rect x="149" y="291" width="22" height="1" fill="#000000"/><rect x="171" y="291" width="21" height="1" fill="#8D8D8D"/><rect x="192" y="291" width="149" height="1" fill="#B4B4B4"/><rect x="341" y="291" width="22" height="1" fill="#8D8D8D"/><rect x="363" y="291" width="21" height="1" fill="#000000"/><rect x="149" y="292" width="22" height="1" fill="#000000"/><rect x="171" y="292" width="21" height="1" fill="#8D8D8D"/><rect x="192" y="292" width="149" height="1" fill="#B4B4B4"/><rect x="341" y="292" width="22" height="1" fill="#8D8D8D"/><rect x="363" y="292" width="21" height="1" fill="#000000"/><rect x="149" y="293" width="22" height="1" fill="#000000"/><rect x="171" y="293" width="21" height="1" fill="#8D8D8D"/><rect x="192" y="293" width="149" height="1" fill="#B4B4B4"/><rect x="341" y="293" width="22" height="1" fill="#8D8D8D"/><rect x="363" y="293" width="21" height="1" fill="#000000"/><rect x="149" y="294" width="22" height="1" fill="#000000"/><rect x="171" y="294" width="21" height="1" fill="#8D8D8D"/><rect x="192" y="294" width="149" height="1" fill="#B4B4B4"/><rect x="341" y="294" width="22" height="1" fill="#8D8D8D"/><rect x="363" y="294" width="21" height="1" fill="#000000"/><rect x="149" y="295" width="22" height="1" fill="#000000"/><rect x="171" y="295" width="21" height="1" fill="#8D8D8D"/><rect x="192" y="295" width="149" height="1" fill="#B4B4B4"/><rect x="341" y="295" width="22" height="1" fill="#8D8D8D"/><rect x="363" y="295" width="21" height="1" fill="#000000"/><rect x="149" y="296" width="22" height="1" fill="#000000"/><rect x="171" y="296" width="21" height="1" fill="#8D8D8D"/><rect x="192" y="296" width="149" height="1" fill="#B4B4B4"/><rect x="341" y="296" width="22" height="1" fill="#8D8D8D"/><rect x="363" y="296" width="21" height="1" fill="#000000"/><rect x="149" y="297" width="22" height="1" fill="#000000"/><rect x="171" y="297" width="21" height="1" fill="#8D8D8D"/><rect x="192" y="297" width="149" height="1" fill="#B4B4B4"/><rect x="341" y="297" width="22" height="1" fill="#8D8D8D"/><rect x="363" y="297" width="21" height="1" fill="#000000"/><rect x="149" y="298" width="22" height="1" fill="#000000"/><rect x="171" y="298" width="21" height="1" fill="#8D8D8D"/><rect x="192" y="298" width="149" height="1" fill="#B4B4B4"/><rect x="341" y="298" width="22" height="1" fill="#8D8D8D"/><rect x="363" y="298" width="21" height="1" fill="#000000"/><rect x="171" y="299" width="192" height="1" fill="#000000"/><rect x="171" y="300" width="192" height="1" fill="#000000"/><rect x="171" y="301" width="192" height="1" fill="#000000"/><rect x="171" y="302" width="192" height="1" fill="#000000"/><rect x="171" y="303" width="192" height="1" fill="#000000"/><rect x="171" y="304" width="192" height="1" fill="#000000"/><rect x="171" y="305" width="192" height="1" fill="#000000"/><rect x="171" y="306" width="192" height="1" fill="#000000"/><rect x="171" y="307" width="192" height="1" fill="#000000"/><rect x="171" y="308" width="192" height="1" fill="#000000"/><rect x="171" y="309" width="192" height="1" fill="#000000"/><rect x="171" y="310" width="192" height="1" fill="#000000"/><rect x="171" y="311" width="192" height="1" fill="#000000"/><rect x="171" y="312" width="192" height="1" fill="#000000"/><rect x="171" y="313" width="192" height="1" fill="#000000"/><rect x="171" y="314" width="192" height="1" fill="#000000"/><rect x="171" y="315" width="192" height="1" fill="#000000"/><rect x="171" y="316" width="192" height="1" fill="#000000"/><rect x="171" y="317" width="192" height="1" fill="#000000"/><rect x="171" y="318" width="192" height="1" fill="#000000"/><rect x="171" y="319" width="192" height="1" fill="#000000"/></svg>