<svg xmlns="http://www.w3.org/2000/svg" viewBox="0 0 512 512" width="512" height="512" shape-rendering="crispEdges"><rect x="171" y="149" width="21" height="1" fill="#1B1B01"/><rect x="192" y="149" width="43" height="1" fill="#514C02"/><rect x="235" y="149" width="64" height="1" fill="#1B1B01"/><rect x="299" y="149" width="42" height="1" fill="#514C02"/><rect x="341" y="149" width="22" height="1" fill="#1B1B01"/><rect x="171" y="150" width="21" height="1" fill="#1B1B01"/><rect x="192" y="150" width="43" height="1" fill="#514C02"/><rect x="235" y="150" width="64" height="1" fill="#1B1B01"/><rect x="299" y="150" width="42" height="1" fill="#514C02"/><rect x="341" y="150" width="22" height="1" fill="#1B1B01"/><rect x="171" y="151" width="21" height="1" fill="#1B1B01"/><rect x="192" y="151" width="43" height="1" fill="#514C02"/><rect x="235" y="151" width="64" height="1" fill="#1B1B01"/><rect x="299" y="151" width="42" height="1" fill="#514C02"/><rect x="341" y="151" width="22" height="1" fill="#1B1B01"/><rect x="171" y="152" width="21" height="1" fill="#1B1B01"/><rect x="192" y="152" width="43" height="1" fill="#514C02"/><rect x="235" y="152" width="64" height="1" fill="#1B1B01"/><rect x="299" y="152" width="42" height="1" fill="#514C02"/><rect x="341" y="152" width="22" height="1" fill="#1B1B01"/><rect x="171" y="153" width="21" height="1" fill="#1B1B01"/><rect x="192" y="153" width="43" height="1" fill="#514C02"/><rect x="235" y="153" width="64" height="1" fill="#1B1B01"/><rect x="299" y="153" width="42" height="1" fill="#514C02"/><rect x="341" y="153" width="22" height="1" fill="#1B1B01"/><rect x="171" y="154" width="21" height="1" fill="#1B1B01"/><rect x="192" y="154" width="43" height="1" fill="#514C02"/><rect x="235" y="154" width="64" height="1" fill="#1B1B01"/><rect x="299" y="154" width="42" height="1" fill="#514C02"/><rect x="341" y="154" width="22" height="1" fill="#1B1B01"/><rect x="171" y="155" width="21" height="1" fill="#1B1B01"/><rect x="192" y="155" width="43" height="1" fill="#514C02"/><rect x="235" y="155" width="64" height="1" fill="#1B1B01"/><rect x="299" y="155" width="42" height="1" fill="#514C02"/><rect x="341" y="155" width="22" height="1" fill="#1B1B01"/><rect x="171" y="156" width="21" height="1" fill="#1B1B01"/><rect x="192" y="156" width="43" height="1" fill="#514C02"/><rect x="235" y="156" width="64" height="1" fill="#1B1B01"/><rect x="299" y="156" width="42" height="1" fill="#514C02"/><rect x="341" y="156" width="22" height="1" fill="#1B1B01"/><rect x="171" y="157" width="21" height="1" fill="#1B1B01"/><rect x="192" y="157" width="43" height="1" fill="#514C02"/><rect x="235" y="157" width="64" height="1" fill="#1B1B01"/><rect x="299" y="157" width="42" height="1" fill="#514C02"/><rect x="341" y="157" width="22" height="1" fill="#1B1B01"/><rect x="171" y="158" width="21" height="1" fill="#1B1B01"/><rect x="192" y="158" width="43" height="1" fill="#514C02"/><rect x="235" y="158" width="64" height="1" fill="#1B1B01"/><rect x="299" y="158" width="42" height="1" fill="#514C02"/><rect x="341" y="158" width="22" height="1" fill="#1B1B01"/><rect x="171" y="159" width="21" height="1" fill="#1B1B01"/><rect x="192" y="159" width="43" height="1" fill="#514C02"/><rect x="235" y="159" width="64" height="1" fill="#1B1B01"/><rect x="299" y="159" width="42" height="1" fill="#514C02"/><rect x="341" y="159" width="22" height="1" fill="#1B1B01"/><rect x="171" y="160" width="21" height="1" fill="#1B1B01"/><rect x="192" y="160" width="43" height="1" fill="#514C02"/><rect x="235" y="160" width="64" height="1" fill="#1B1B01"/><rect x="299" y="160" width="42" height="1" fill="#514C02"/><rect x="341" y="160" width="22" height="1" fill="#1B1B01"/><rect x="171" y="161" width="21" height="1" fill="#1B1B01"/><rect x="192" y="161" width="43" height="1" fill="#514C02"/><rect x="235" y="161" width="64" height="1" fill="#1B1B01"/><rect x="299" y="161" width="42" height="1" fill="#514C02"/><rect x="341" y="161" width="22" height="1" fill="#1B1B01"/><rect x="171" y="162" width="21" height="1" fill="#1B1B01"/><rect x="192" y="162" width="43" height="1" fill="#514C02"/><rect x="235" y="162" width="64" height="1" fill="#1B1B01"/><rect x="299" y="162" width="42" height="1" fill="#514C02"/><rect x="341" y="162" width="22" height="1" fill="#1B1B01"/><rect x="171" y="163" width="21" height="1" fill="#1B1B01"/><rect x="192" y="163" width="43" height="1" fill="#514C02"/><rect x="235" y="163" width="64" height="1" fill="#1B1B01"/><rect x="299" y="163" width="42" height="1" fill="#514C02"/><rect x="341" y="163" width="22" height="1" fill="#1B1B01"/><rect x="171" y="164" width="21" height="1" fill="#1B1B01"/><rect x="192" y="164" width="43" height="1" fill="#514C02"/><rect x="235" y="164" width="64" height="1" fill="#1B1B01"/><rect x="299" y="164" width="42" height="1" fill="#514C02"/><rect x="341" y="164" width="22" height="1" fill="#1B1B01"/><rect x="171" y="165" width="21" height="1" fill="#1B1B01"/><rect x="192" y="165" width="43" height="1" fill="#514C02"/><rect x="235" y="165" width="64" height="1" fill="#1B1B01"/><rect x="299" y="165" width="42" height="1" fill="#514C02"/><rect x="341" y="165" width="22" height="1" fill="#1B1B01"/><rect x="171" y="166" width="21" height="1" fill="#1B1B01"/><rect x="192" y="166" width="43" height="1" fill="#514C02"/><rect x="235" y="166" width="64" height="1" fill="#1B1B01"/><rect x="299" y="166" width="42" height="1" fill="#514C02"/><rect x="341" y="166" width="22" height="1" fill="#1B1B01"/><rect x="171" y="167" width="21" height="1" fill="#1B1B01"/><rect x="192" y="167" width="43" height="1" fill="#514C02"/><rect x="235" y="167" width="64" height="1" fill="#1B1B01"/><rect x="299" y="167" width="42" height="1" fill="#514C02"/><rect x="341" y="167" width="22" height="1" fill="#1B1B01"/><rect x="171" y="168" width="21" height="1" fill="#1B1B01"/><rect x="192" y="168" width="43" height="1" fill="#514C02"/><rect x="235" y="168" width="64" height="1" fill="#1B1B01"/><rect x="299" y="168" width="42" height="1" fill="#514C02"/><rect x="341" y="168" width="22" height="1" fill="#1B1B01"/><rect x="171" y="169" width="21" height="1" fill="#1B1B01"/><rect x="192" y="169" width="43" height="1" fill="#514C02"/><rect x="235" y="169" width="64" height="1" fill="#1B1B01"/><rect x="299" y="169" width="42" height="1" fill="#514C02"/><rect x="341" y="169" width="22" height="1" fill="#1B1B01"/><rect x="171" y="170" width="21" height="1" fill="#1B1B01"/><rect x="192" y="170" width="43" height="1" fill="#514C02"/><rect x="235" y="170" width="64" height="1" fill="#1B1B01"/><rect x="299" y="170" width="42" height="1" fill="#514C02"/><rect x="341" y="170" width="22" height="1" fill="#1B1B01"/><rect x="149" y="171" width="22" height="1" fill="#1B1B01"/><rect x="171" y="171" width="21" height="1" fill="#514C02"/><rect x="192" y="171" width="43" height="1" fill="#80DBDA"/><rect x="235" y="171" width="21" height="1" fill="#514C02"/><rect x="256" y="171" width="21" height="1" fill="#1B1B01"/><rect x="277" y="171" width="22" height="1" fill="#514C02"/><rect x="299" y="171" width="42" height="1" fill="#80DBDA"/><rect x="341" y="171" width="22" height="1" fill="#514C02"/><rect x="149" y="172" width="22" height="1" fill="#1B1B01"/><rect x="171" y="172" width="21" height="1" fill="#514C02"/><rect x="192" y="172" width="43" height="1" fill="#80DBDA"/><rect x="235" y="172" width="21" height="1" fill="#514C02"/><rect x="256" y="172" width="21" height="1" fill="#1B1B01"/><rect x="277" y="172" width="22" height="1" fill="#514C02"/><rect x="299" y="172" width="42" height="1" fill="#80DBDA"/><rect x="341" y="172" width="22" height="1" fill="#514C02"/><rect x="149" y="173" width="22" height="1" fill="#1B1B01"/><rect x="171" y="173" width="21" height="1" fill="#514C02"/><rect x="192" y="173" width="43" height="1" fill="#80DBDA"/><rect x="235" y="173" width="21" height="1" fill="#514C02"/><rect x="256" y="173" width="21" height="1" fill="#1B1B01"/><rect x="277" y="173" width="22" height="1" fill="#514C02"/><rect x="299" y="173" width="42" height="1" fill="#80DBDA"/><rect x="341" y="173" width="22" height="1" fill="#514C02"/><rect x="149" y="174" width="22" height="1" fill="#1B1B01"/><rect x="171" y="174" width="21" height="1" fill="#514C02"/><rect x="192" y="174" width="43" height="1" fill="#80DBDA"/><rect x="235" y="174" width="21" height="1" fill="#514C02"/><rect x="256" y="174" width="21" height="1" fill="#1B1B01"/><rect x="277" y="174" width="22" height="1" fill="#514C02"/><rect x="299" y="174" width="42" height="1" fill="#80DBDA"/><rect x="341" y="174" width="22" height="1" fill="#514C02"/><rect x="149" y="175" width="22" height="1" fill="#1B1B01"/><rect x="171" y="175" width="21" height="1" fill="#514C02"/><rect x="192" y="175" width="43" height="1" fill="#80DBDA"/><rect x="235" y="175" width="21" height="1" fill="#514C02"/><rect x="256" y="175" width="21" height="1" fill="#1B1B01"/><rect x="277" y="175" width="22" height="1" fill="#514C02"/><rect x="299" y="175" width="42" height="1" fill="#80DBDA"/><rect x="341" y="175" width="22" height="1" fill="#514C02"/><rect x="149" y="176" width="22" height="1" fill="#1B1B01"/><rect x="171" y="176" width="21" height="1" fill="#514C02"/><rect x="192" y="176" width="43" height="1" fill="#80DBDA"/><rect x="235" y="176" width="21" height="1" fill="#514C02"/><rect x="256" y="176" width="21" height="1" fill="#1B1B01"/><rect x="277" y="176" width="22" height="1" fill="#514C02"/><rect x="299" y="176" width="42" height="1" fill="#80DBDA"/><rect x="341" y="176" width="22" height="1" fill="#514C02"/><rect x="149" y="177" width="22" height="1" fill="#1B1B01"/><rect x="171" y="177" width="21" height="1" fill="#514C02"/><rect x="192" y="177" width="43" height="1" fill="#80DBDA"/><rect x="235" y="177" width="21" height="1" fill="#514C02"/><rect x="256" y="177" width="21" height="1" fill="#1B1B01"/><rect x="277" y="177" width="22" height="1" fill="#514C02"/><rect x="299" y="177" width="42" height="1" fill="#80DBDA"/><rect x="341" y="177" width="22" height="1" fill="#514C02"/><rect x="149" y="178" width="22" height="1" fill="#1B1B01"/><rect x="171" y="178" width="21" height="1" fill="#514C02"/><rect x="192" y="178" width="43" height="1" fill="#80DBDA"/><rect x="235" y="178" width="21" height="1" fill="#514C02"/><rect x="256" y="178" width="21" height="1" fill="#1B1B01"/><rect x="277" y="178" width="22" height="1" fill="#514C02"/><rect x="299" y="178" width="42" height="1" fill="#80DBDA"/><rect x="341" y="178" width="22" height="1" fill="#514C02"/><rect x="149" y="179" width="22" height="1" fill="#1B1B01"/><rect x="171" y="179" width="21" height="1" fill="#514C02"/><rect x="192" y="179" width="43" height="1" fill="#80DBDA"/><rect x="235" y="179" width="21" height="1" fill="#514C02"/><rect x="256" y="179" width="21" height="1" fill="#1B1B01"/><rect x="277" y="179" width="22" height="1" fill="#514C02"/><rect x="299" y="179" width="42" height="1" fill="#80DBDA"/><rect x="341" y="179" width="22" height="1" fill="#514C02"/><rect x="149" y="180" width="22" height="1" fill="#1B1B01"/><rect x="171" y="180" width="21" height="1" fill="#514C02"/><rect x="192" y="180" width="43" height="1" fill="#80DBDA"/><rect x="235" y="180" width="21" height="1" fill="#514C02"/><rect x="256" y="180" width="21" height="1" fill="#1B1B01"/><rect x="277" y="180" width="22" height="1" fill="#514C02"/><rect x="299" y="180" width="42" height="1" fill="#80DBDA"/><rect x="341" y="180" width="22" height="1" fill="#514C02"/><rect x="149" y="181" width="22" height="1" fill="#1B1B01"/><rect x="171" y="181" width="21" height="1" fill="#514C02"/><rect x="192" y="181" width="43" height="1" fill="#80DBDA"/><rect x="235" y="181" width="21" height="1" fill="#514C02"/><rect x="256" y="181" width="21" height="1" fill="#1B1B01"/><rect x="277" y="181" width="22" height="1" fill="#514C02"/><rect x="299" y="181" width="42" height="1" fill="#80DBDA"/><rect x="341" y="181" width="22" height="1" fill="#514C02"/><rect x="149" y="182" width="22" height="1" fill="#1B1B01"/><rect x="171" y="182" width="21" height="1" fill="#514C02"/><rect x="192" y="182" width="43" height="1" fill="#80DBDA"/><rect x="235" y="182" width="21" height="1" fill="#514C02"/><rect x="256" y="182" width="21" height="1" fill="#1B1B01"/><rect x="277" y="182" width="22" height="1" fill="#514C02"/><rect x="299" y="182" width="42" height="1" fill="#80DBDA"/><rect x="341" y="182" width="22" height="1" fill="#514C02"/><rect x="149" y="183" width="22" height="1" fill="#1B1B01"/><rect x="171" y="183" width="21" height="1" fill="#514C02"/><rect x="192" y="183" width="43" height="1" fill="#80DBDA"/><rect x="235" y="183" width="21" height="1" fill="#514C02"/><rect x="256" y="183" width="21" height="1" fill="#1B1B01"/><rect x="277" y="183" width="22" height="1" fill="#514C02"/><rect x="299" y="183" width="42" height="1" fill="#80DBDA"/><rect x="341" y="183" width="22" height="1" fill="#514C02"/><rect x="149" y="184" width="22" height="1" fill="#1B1B01"/><rect x="171" y="184" width="21" height="1" fill="#514C02"/><rect x="192" y="184" width="43" height="1" fill="#80DBDA"/><rect x="235" y="184" width="21" height="1" fill="#514C02"/><rect x="256" y="184" width="21" height="1" fill="#1B1B01"/><rect x="277" y="184" width="22" height="1" fill="#514C02"/><rect x="299" y="184" width="42" height="1" fill="#80DBDA"/><rect x="341" y="184" width="22" height="1" fill="#514C02"/><rect x="149" y="185" width="22" height="1" fill="#1B1B01"/><rect x="171" y="185" width="21" height="1" fill="#514C02"/><rect x="192" y="185" width="43" height="1" fill="#80DBDA"/><rect x="235" y="185" width="21" height="1" fill="#514C02"/><rect x="256" y="185" width="21" height="1" fill="#1B1B01"/><rect x="277" y="185" width="22" height="1" fill="#514C02"/><rect x="299" y="185" width="42" height="1" fill="#80DBDA"/><rect x="341" y="185" width="22" height="1" fill="#514C02"/><rect x="149" y="186" width="22" height="1" fill="#1B1B01"/><rect x="171" y="186" width="21" height="1" fill="#514C02"/><rect x="192" y="186" width="43" height="1" fill="#80DBDA"/><rect x="235" y="186" width="21" height="1" fill="#514C02"/><rect x="256" y="186" width="21" height="1" fill="#1B1B01"/><rect x="277" y="186" width="22" height="1" fill="#514C02"/><rect x="299" y="186" width="42" height="1" fill="#80DBDA"/><rect x="341" y="186" width="22" height="1" fill="#514C02"/><rect x="149" y="187" width="22" height="1" fill="#1B1B01"/><rect x="171" y="187" width="21" height="1" fill="#514C02"/><rect x="192" y="187" width="43" height="1" fill="#80DBDA"/><rect x="235" y="187" width="21" height="1" fill="#514C02"/><rect x="256" y="187" width="21" height="1" fill="#1B1B01"/><rect x="277" y="187" width="22" height="1" fill="#514C02"/><rect x="299" y="187" width="42" height="1" fill="#80DBDA"/><rect x="341" y="187" width="22" height="1" fill="#514C02"/><rect x="149" y="188" width="22" height="1" fill="#1B1B01"/><rect x="171" y="188" width="21" height="1" fill="#514C02"/><rect x="192" y="188" width="43" height="1" fill="#80DBDA"/><rect x="235" y="188" width="21" height="1" fill="#514C02"/><rect x="256" y="188" width="21" height="1" fill="#1B1B01"/><rect x="277" y="188" width="22" height="1" fill="#514C02"/><rect x="299" y="188" width="42" height="1" fill="#80DBDA"/><rect x="341" y="188" width="22" height="1" fill="#514C02"/><rect x="149" y="189" width="22" height="1" fill="#1B1B01"/><rect x="171" y="189" width="21" height="1" fill="#514C02"/><rect x="192" y="189" width="43" height="1" fill="#80DBDA"/><rect x="235" y="189" width="21" height="1" fill="#514C02"/><rect x="256" y="189" width="21" height="1" fill="#1B1B01"/><rect x="277" y="189" width="22" height="1" fill="#514C02"/><rect x="299" y="189" width="42" height="1" fill="#80DBDA"/><rect x="341" y="189" width="22" height="1" fill="#514C02"/><rect x="149" y="190" width="22" height="1" fill="#1B1B01"/><rect x="171" y="190" width="21" height="1" fill="#514C02"/><rect x="192" y="190" width="43" height="1" fill="#80DBDA"/><rect x="235" y="190" width="21" height="1" fill="#514C02"/><rect x="256" y="190" width="21" height="1" fill="#1B1B01"/><rect x="277" y="190" width="22" height="1" fill="#514C02"/><rect x="299" y="190" width="42" height="1" fill="#80DBDA"/><rect x="341" y="190" width="22" height="1" fill="#514C02"/><rect x="149" y="191" width="22" height="1" fill="#1B1B01"/><rect x="171" y="191" width="21" height="1" fill="#514C02"/><rect x="192" y="191" width="43" height="1" fill="#80DBDA"/><rect x="235" y="191" width="21" height="1" fill="#514C02"/><rect x="256" y="191" width="21" height="1" fill="#1B1B01"/><rect x="277" y="191" width="22" height="1" fill="#514C02"/><rect x="299" y="191" width="42" height="1" fill="#80DBDA"/><rect x="341" y="191" width="22" height="1" fill="#514C02"/><rect x="149" y="192" width="22" height="1" fill="#1B1B01"/><rect x="171" y="192" width="21" height="1" fill="#514C02"/><rect x="192" y="192" width="43" height="1" fill="#80DBDA"/><rect x="235" y="192" width="21" height="1" fill="#514C02"/><rect x="256" y="192" width="21" height="1" fill="#1B1B01"/><rect x="277" y="192" width="22" height="1" fill="#514C02"/><rect x="299" y="192" width="42" height="1" fill="#80DBDA"/><rect x="341" y="192" width="22" height="1" fill="#514C02"/><rect x="149" y="193" width="22" height="1" fill="#1B1B01"/><rect x="171" y="193" width="21" height="1" fill="#514C02"/><rect x="192" y="193" width="43" height="1" fill="#80DBDA"/><rect x="235" y="193" width="21" height="1" fill="#514C02"/><rect x="256" y="193" width="21" height="1" fill="#1B1B01"/><rect x="277" y="193" width="22" height="1" fill="#514C02"/><rect x="299" y="193" width="42" height="1" fill="#80DBDA"/><rect x="341" y="193" width="22" height="1" fill="#514C02"/><rect x="149" y="194" width="22" height="1" fill="#1B1B01"/><rect x="171" y="194" width="21" height="1" fill="#514C02"/><rect x="192" y="194" width="43" height="1" fill="#80DBDA"/><rect x="235" y="194" width="21" height="1" fill="#514C02"/><rect x="256" y="194" width="21" height="1" fill="#1B1B01"/><rect x="277" y="194" width="22" height="1" fill="#514C02"/><rect x="299" y="194" width="42" height="1" fill="#80DBDA"/><rect x="341" y="194" width="22" height="1" fill="#514C02"/><rect x="149" y="195" width="22" height="1" fill="#1B1B01"/><rect x="171" y="195" width="21" height="1" fill="#514C02"/><rect x="192" y="195" width="43" height="1" fill="#80DBDA"/><rect x="235" y="195" width="21" height="1" fill="#514C02"/><rect x="256" y="195" width="21" height="1" fill="#1B1B01"/><rect x="277" y="195" width="22" height="1" fill="#514C02"/><rect x="299" y="195" width="42" height="1" fill="#80DBDA"/><rect x="341" y="195" width="22" height="1" fill="#514C02"/><rect x="149" y="196" width="22" height="1" fill="#1B1B01"/><rect x="171" y="196" width="21" height="1" fill="#514C02"/><rect x="192" y="196" width="43" height="1" fill="#80DBDA"/><rect x="235" y="196" width="21" height="1" fill="#514C02"/><rect x="256" y="196" width="21" height="1" fill="#1B1B01"/><rect x="277" y="196" width="22" height="1" fill="#514C02"/><rect x="299" y="196" width="42" height="1" fill="#80DBDA"/><rect x="341" y="196" width="22" height="1" fill="#514C02"/><rect x="149" y="197" width="22" height="1" fill="#1B1B01"/><rect x="171" y="197" width="21" height="1" fill="#514C02"/><rect x="192" y="197" width="43" height="1" fill="#80DBDA"/><rect x="235" y="197" width="21" height="1" fill="#514C02"/><rect x="256" y="197" width="21" height="1" fill="#1B1B01"/><rect x="277" y="197" width="22" height="1" fill="#514C02"/><rect x="299" y="197" width="42" height="1" fill="#80DBDA"/><rect x="341" y="197" width="22" height="1" fill="#514C02"/><rect x="149" y="198" width="22" height="1" fill="#1B1B01"/><rect x="171" y="198" width="21" height="1" fill="#514C02"/><rect x="192" y="198" width="43" height="1" fill="#80DBDA"/><rect x="235" y="198" width="21" height="1" fill="#514C02"/><rect x="256" y="198" width="21" height="1" fill="#1B1B01"/><rect x="277" y="198" width="22" height="1" fill="#514C02"/><rect x="299" y="198" width="42" height="1" fill="#80DBDA"/><rect x="341" y="198" width="22" height="1" fill="#514C02"/><rect x="149" y="199" width="22" height="1" fill="#1B1B01"/><rect x="171" y="199" width="21" height="1" fill="#514C02"/><rect x="192" y="199" width="43" height="1" fill="#80DBDA"/><rect x="235" y="199" width="21" height="1" fill="#514C02"/><rect x="256" y="199" width="21" height="1" fill="#1B1B01"/><rect x="277" y="199" width="22" height="1" fill="#514C02"/><rect x="299" y="199" width="42" height="1" fill="#80DBDA"/><rect x="341" y="199" width="22" height="1" fill="#514C02"/><rect x="149" y="200" width="22" height="1" fill="#1B1B01"/><rect x="171" y="200" width="21" height="1" fill="#514C02"/><rect x="192" y="200" width="43" height="1" fill="#80DBDA"/><rect x="235" y="200" width="21" height="1" fill="#514C02"/><rect x="256" y="200" width="21" height="1" fill="#1B1B01"/><rect x="277" y="200" width="22" height="1" fill="#514C02"/><rect x="299" y="200" width="42" height="1" fill="#80DBDA"/><rect x="341" y="200" width="22" height="1" fill="#514C02"/><rect x="149" y="201" width="22" height="1" fill="#1B1B01"/><rect x="171" y="201" width="21" height="1" fill="#514C02"/><rect x="192" y="201" width="43" height="1" fill="#80DBDA"/><rect x="235" y="201" width="21" height="1" fill="#514C02"/><rect x="256" y="201" width="21" height="1" fill="#1B1B01"/><rect x="277" y="201" width="22" height="1" fill="#514C02"/><rect x="299" y="201" width="42" height="1" fill="#80DBDA"/><rect x="341" y="201" width="22" height="1" fill="#514C02"/><rect x="149" y="202" width="22" height="1" fill="#1B1B01"/><rect x="171" y="202" width="21" height="1" fill="#514C02"/><rect x="192" y="202" width="43" height="1" fill="#80DBDA"/><rect x="235" y="202" width="21" height="1" fill="#514C02"/><rect x="256" y="202" width="21" height="1" fill="#1B1B01"/><rect x="277" y="202" width="22" height="1" fill="#514C02"/><rect x="299" y="202" width="42" height="1" fill="#80DBDA"/><rect x="341" y="202" width="22" height="1" fill="#514C02"/><rect x="149" y="203" width="22" height="1" fill="#1B1B01"/><rect x="171" y="203" width="21" height="1" fill="#514C02"/><rect x="192" y="203" width="43" height="1" fill="#80DBDA"/><rect x="235" y="203" width="21" height="1" fill="#514C02"/><rect x="256" y="203" width="21" height="1" fill="#1B1B01"/><rect x="277" y="203" width="22" height="1" fill="#514C02"/><rect x="299" y="203" width="42" height="1" fill="#80DBDA"/><rect x="341" y="203" width="22" height="1" fill="#514C02"/><rect x="149" y="204" width="22" height="1" fill="#1B1B01"/><rect x="171" y="204" width="21" height="1" fill="#514C02"/><rect x="192" y="204" width="43" height="1" fill="#80DBDA"/><rect x="235" y="204" width="21" height="1" fill="#514C02"/><rect x="256" y="204" width="21" height="1" fill="#1B1B01"/><rect x="277" y="204" width="22" height="1" fill="#514C02"/><rect x="299" y="204" width="42" height="1" fill="#80DBDA"/><rect x="341" y="204" width="22" height="1" fill="#514C02"/><rect x="149" y="205" width="22" height="1" fill="#1B1B01"/><rect x="171" y="205" width="21" height="1" fill="#514C02"/><rect x="192" y="205" width="43" height="1" fill="#80DBDA"/><rect x="235" y="205" width="21" height="1" fill="#514C02"/><rect x="256" y="205" width="21" height="1" fill="#1B1B01"/><rect x="277" y="205" width="22" height="1" fill="#514C02"/><rect x="299" y="205" width="42" height="1" fill="#80DBDA"/><rect x="341" y="205" width="22" height="1" fill="#514C02"/><rect x="149" y="206" width="22" height="1" fill="#1B1B01"/><rect x="171" y="206" width="21" height="1" fill="#514C02"/><rect x="192" y="206" width="43" height="1" fill="#80DBDA"/><rect x="235" y="206" width="21" height="1" fill="#514C02"/><rect x="256" y="206" width="21" height="1" fill="#1B1B01"/><rect x="277" y="206" width="22" height="1" fill="#514C02"/><rect x="299" y="206" width="42" height="1" fill="#80DBDA"/><rect x="341" y="206" width="22" height="1" fill="#514C02"/><rect x="149" y="207" width="22" height="1" fill="#1B1B01"/><rect x="171" y="207" width="21" height="1" fill="#514C02"/><rect x="192" y="207" width="43" height="1" fill="#80DBDA"/><rect x="235" y="207" width="21" height="1" fill="#514C02"/><rect x="256" y="207" width="21" height="1" fill="#1B1B01"/><rect x="277" y="207" width="22" height="1" fill="#514C02"/><rect x="299" y="207" width="42" height="1" fill="#80DBDA"/><rect x="341" y="207" width="22" height="1" fill="#514C02"/><rect x="149" y="208" width="22" height="1" fill="#1B1B01"/><rect x="171" y="208" width="21" height="1" fill="#514C02"/><rect x="192" y="208" width="43" height="1" fill="#80DBDA"/><rect x="235" y="208" width="21" height="1" fill="#514C02"/><rect x="256" y="208" width="21" height="1" fill="#1B1B01"/><rect x="277" y="208" width="22" height="1" fill="#514C02"/><rect x="299" y="208" width="42" height="1" fill="#80DBDA"/><rect x="341" y="208" width="22" height="1" fill="#514C02"/><rect x="149" y="209" width="22" height="1" fill="#1B1B01"/><rect x="171" y="209" width="21" height="1" fill="#514C02"/><rect x="192" y="209" width="43" height="1" fill="#80DBDA"/><rect x="235" y="209" width="21" height="1" fill="#514C02"/><rect x="256" y="209" width="21" height="1" fill="#1B1B01"/><rect x="277" y="209" width="22" height="1" fill="#514C02"/><rect x="299" y="209" width="42" height="1" fill="#80DBDA"/><rect x="341" y="209" width="22" height="1" fill="#514C02"/><rect x="149" y="210" width="22" height="1" fill="#1B1B01"/><rect x="171" y="210" width="21" height="1" fill="#514C02"/><rect x="192" y="210" width="43" height="1" fill="#80DBDA"/><rect x="235" y="210" width="21" height="1" fill="#514C02"/><rect x="256" y="210" width="21" height="1" fill="#1B1B01"/><rect x="277" y="210" width="22" height="1" fill="#514C02"/><rect x="299" y="210" width="42" height="1" fill="#80DBDA"/><rect x="341" y="210" width="22" height="1" fill="#514C02"/><rect x="149" y="211" width="22" height="1" fill="#1B1B01"/><rect x="171" y="211" width="21" height="1" fill="#514C02"/><rect x="192" y="211" width="43" height="1" fill="#80DBDA"/><rect x="235" y="211" width="21" height="1" fill="#514C02"/><rect x="256" y="211" width="21" height="1" fill="#1B1B01"/><rect x="277" y="211" width="22" height="1" fill="#514C02"/><rect x="299" y="211" width="42" height="1" fill="#80DBDA"/><rect x="341" y="211" width="22" height="1" fill="#514C02"/><rect x="149" y="212" width="22" height="1" fill="#1B1B01"/><rect x="171" y="212" width="21" height="1" fill="#514C02"/><rect x="192" y="212" width="43" height="1" fill="#80DBDA"/><rect x="235" y="212" width="21" height="1" fill="#514C02"/><rect x="256" y="212" width="21" height="1" fill="#1B1B01"/><rect x="277" y="212" width="22" height="1" fill="#514C02"/><rect x="299" y="212" width="42" height="1" fill="#80DBDA"/><rect x="341" y="212" width="22" height="1" fill="#514C02"/><rect x="149" y="213" width="43" height="1" fill="#1B1B01"/><rect x="192" y="213" width="43" height="1" fill="#514C02"/><rect x="235" y="213" width="21" height="1" fill="#1B1B01"/><rect x="277" y="213" width="22" height="1" fill="#1B1B01"/><rect x="299" y="213" width="42" height="1" fill="#514C02"/><rect x="341" y="213" width="22" height="1" fill="#1B1B01"/><rect x="149" y="214" width="43" height="1" fill="#1B1B01"/><rect x="192" y="214" width="43" height="1" fill="#514C02"/><rect x="235" y="214" width="21" height="1" fill="#1B1B01"/><rect x="277" y="214" width="22" height="1" fill="#1B1B01"/><rect x="299" y="214" width="42" height="1" fill="#514C02"/><rect x="341" y="214" width="22" height="1" fill="#1B1B01"/><rect x="149" y="215" width="43" height="1" fill="#1B1B01"/><rect x="192" y="215" width="43" height="1" fill="#514C02"/><rect x="235" y="215" width="21" height="1" fill="#1B1B01"/><rect x="277" y="215" width="22" height="1" fill="#1B1B01"/><rect x="299" y="215" width="42" height="1" fill="#514C02"/><rect x="341" y="215" width="22" height="1" fill="#1B1B01"/><rect x="149" y="216" width="43" height="1" fill="#1B1B01"/><rect x="192" y="216" width="43" height="1" fill="#514C02"/><rect x="235" y="216" width="21" height="1" fill="#1B1B01"/><rect x="277" y="216" width="22" height="1" fill="#1B1B01"/><rect x="299" y="216" width="42" height="1" fill="#514C02"/><rect x="341" y="216" width="22" height="1" fill="#1B1B01"/><rect x="149" y="217" width="43" height="1" fill="#1B1B01"/><rect x="192" y="217" width="43" height="1" fill="#514C02"/><rect x="235" y="217" width="21" height="1" fill="#1B1B01"/><rect x="277" y="217" width="22" height="1" fill="#1B1B01"/><rect x="299" y="217" width="42" height="1" fill="#514C02"/><rect x="341" y="217" width="22" height="1" fill="#1B1B01"/><rect x="149" y="218" width="43" height="1" fill="#1B1B01"/><rect x="192" y="218" width="43" height="1" fill="#514C02"/><rect x="235" y="218" width="21" height="1" fill="#1B1B01"/><rect x="277" y="218" width="22" height="1" fill="#1B1B01"/><rect x="299" y="218" width="42" height="1" fill="#514C02"/><rect x="341" y="218" width="22" height="1" fill="#1B1B01"/><rect x="149" y="219" width="43" height="1" fill="#1B1B01"/><rect x="192" y="219" width="43" height="1" fill="#514C02"/><rect x="235" y="219" width="21" height="1" fill="#1B1B01"/><rect x="277" y="219" width="22" height="1" fill="#1B1B01"/><rect x="299" y="219" width="42" height="1" fill="#514C02"/><rect x="341" y="219" width="22" height="1" fill="#1B1B01"/><rect x="149" y="220" width="43" height="1" fill="#1B1B01"/><rect x="192" y="220" width="43" height="1" fill="#514C02"/><rect x="235" y="220" width="21" height="1" fill="#1B1B01"/><rect x="277" y="220" width="22" height="1" fill="#1B1B01"/><rect x="299" y="220" width="42" height="1" fill="#514C02"/><rect x="341" y="220" width="22" height="1" fill="#1B1B01"/><rect x="149" y="221" width="43" height="1" fill="#1B1B01"/><rect x="192" y="221" width="43" height="1" fill="#514C02"/><rect x="235" y="221" width="21" height="1" fill="#1B1B01"/><rect x="277" y="221" width="22" height="1" fill="#1B1B01"/><rect x="299" y="221" width="42" height="1" fill="#514C02"/><rect x="341" y="221" width="22" height="1" fill="#1B1B01"/><rect x="149" y="222" width="43" height="1" fill="#1B1B01"/><rect x="192" y="222" width="43" height="1" fill="#514C02"/><rect x="235" y="222" width="21" height="1" fill="#1B1B01"/><rect x="277" y="222" width="22" height="1" fill="#1B1B01"/><rect x="299" y="222" width="42" height="1" fill="#514C02"/><rect x="341" y="222" width="22" height="1" fill="#1B1B01"/><rect x="149" y="223" width="43" height="1" fill="#1B1B01"/><rect x="192" y="223" width="43" height="1" fill="#514C02"/><rect x="235" y="223" width="21" height="1" fill="#1B1B01"/><rect x="277" y="223" width="22" height="1" fill="#1B1B01"/><rect x="299" y="223" width="42" height="1" fill="#514C02"/><rect x="341" y="223" width="22" height="1" fill="#1B1B01"/><rect x="149" y="224" width="43" height="1" fill="#1B1B01"/><rect x="192" y="224" width="43" height="1" fill="#514C02"/><rect x="235" y="224" width="21" height="1" fill="#1B1B01"/><rect x="277" y="224" width="22" height="1" fill="#1B1B01"/><rect x="299" y="224" width="42" height="1" fill="#514C02"/><rect x="341" y="224" width="22" height="1" fill="#1B1B01"/><rect x="149" y="225" width="43" height="1" fill="#1B1B01"/><rect x="192" y="225" width="43" height="1" fill="#514C02"/><rect x="235" y="225" width="21" height="1" fill="#1B1B01"/><rect x="277" y="225" width="22" height="1" fill="#1B1B01"/><rect x="299" y="225" width="42" height="1" fill="#514C02"/><rect x="341" y="225" width="22" height="1" fill="#1B1B01"/><rect x="149" y="226" width="43" height="1" fill="#1B1B01"/><rect x="192" y="226" width="43" height="1" fill="#514C02"/><rect x="235" y="226" width="21" height="1" fill="#1B1B01"/><rect x="277" y="226" width="22" height="1" fill="#1B1B01"/><rect x="299" y="226" width="42" height="1" fill="#514C02"/><rect x="341" y="226" width="22" height="1" fill="#1B1B01"/><rect x="149" y="227" width="43" height="1" fill="#1B1B01"/><rect x="192" y="227" width="43" height="1" fill="#514C02"/><rect x="235" y="227" width="21" height="1" fill="#1B1B01"/><rect x="277" y="227" width="22" height="1" fill="#1B1B01"/><rect x="299" y="227" width="42" height="1" fill="#514C02"/><rect x="341" y="227" width="22" height="1" fill="#1B1B01"/><rect x="149" y="228" width="43" height="1" fill="#1B1B01"/><rect x="192" y="228" width="43" height="1" fill="#514C02"/><rect x="235" y="228" width="21" height="1" fill="#1B1B01"/><rect x="277" y="228" width="22" height="1" fill="#1B1B01"/><rect x="299" y="228" width="42" height="1" fill="#514C02"/><rect x="341" y="228" width="22" height="1" fill="#1B1B01"/><rect x="149" y="229" width="43" height="1" fill="#1B1B01"/><rect x="192" y="229" width="43" height="1" fill="#514C02"/><rect x="235" y="229" width="21" height="1" fill="#1B1B01"/><rect x="277" y="229" width="22" height="1" fill="#1B1B01"/><rect x="299" y="229" width="42" height="1" fill="#514C02"/><rect x="341" y="229" width="22" height="1" fill="#1B1B01"/><rect x="149" y="230" width="43" height="1" fill="#1B1B01"/><rect x="192" y="230" width="43" height="1" fill="#514C02"/><rect x="235" y="230" width="21" height="1" fill="#1B1B01"/><rect x="277" y="230" width="22" height="1" fill="#1B1B01"/><rect x="299" y="230" width="42" height="1" fill="#514C02"/><rect x="341" y="230" width="22" height="1" fill="#1B1B01"/><rect x="149" y="231" width="43" height="1" fill="#1B1B01"/><rect x="192" y="231" width="43" height="1" fill="#514C02"/><rect x="235" y="231" width="21" height="1" fill="#1B1B01"/><rect x="277" y="231" width="22" height="1" fill="#1B1B01"/><rect x="299" y="231" width="42" height="1" fill="#514C02"/><rect x="341" y="231" width="22" height="1" fill="#1B1B01"/><rect x="149" y="232" width="43" height="1" fill="#1B1B01"/><rect x="192" y="232" width="43" height="1" fill="#514C02"/><rect x="235" y="232" width="21" height="1" fill="#1B1B01"/><rect x="277" y="232" width="22" height="1" fill="#1B1B01"/><rect x="299" y="232" width="42" height="1" fill="#514C02"/><rect x="341" y="232" width="22" height="1" fill="#1B1B01"/><rect x="149" y="233" width="43" height="1" fill="#1B1B01"/><rect x="192" y="233" width="43" height="1" fill="#514C02"/><rect x="235" y="233" width="21" height="1" fill="#1B1B01"/><rect x="277" y="233" width="22" height="1" fill="#1B1B01"/><rect x="299" y="233" width="42" height="1" fill="#514C02"/><rect x="341" y="233" width="22" height="1" fill="#1B1B01"/><rect x="149" y="234" width="43" height="1" fill="#1B1B01"/><rect x="192" y="234" width="43" height="1" fill="#514C02"/><rect x="235" y="234" width="21" height="1" fill="#1B1B01"/><rect x="277" y="234" width="22" height="1" fill="#1B1B01"/><rect x="299" y="234" width="42" height="1" fill="#514C02"/><rect x="341" y="234" width="22" height="1" fill="#1B1B01"/><rect x="149" y="235" width="22" height="1" fill="#1B1B01"/><rect x="341" y="235" width="22" height="1" fill="#1B1B01"/><rect x="149" y="236" width="22" height="1" fill="#1B1B01"/><rect x="341" y="236" width="22" height="1" fill="#1B1B01"/><rect x="149" y="237" width="22" height="1" fill="#1B1B01"/><rect x="341" y="237" width="22" height="1" fill="#1B1B01"/><rect x="149" y="238" width="22" height="1" fill="#1B1B01"/><rect x="341" y="238" width="22" height="1" fill="#1B1B01"/><rect x="149" y="239" width="22" height="1" fill="#1B1B01"/><rect x="341" y="239" width="22" height="1" fill="#1B1B01"/><rect x="149" y="240" width="22" height="1" fill="#1B1B01"/><rect x="341" y="240" width="22" height="1" fill="#1B1B01"/><rect x="149" y="241" width="22" height="1" fill="#1B1B01"/><rect x="341" y="241" width="22" height="1" fill="#1B1B01"/><rect x="149" y="242" width="22" height="1" fill="#1B1B01"/><rect x="341" y="242" width="22" height="1" fill="#1B1B01"/><rect x="149" y="243" width="22" height="1" fill="#1B1B01"/><rect x="341" y="243" width="22" height="1" fill="#1B1B01"/><rect x="149" y="244" width="22" height="1" fill="#1B1B01"/><rect x="341" y="244" width="22" height="1" fill="#1B1B01"/><rect x="149" y="245" width="22" height="1" fill="#1B1B01"/><rect x="341" y="245" width="22" height="1" fill="#1B1B01"/><rect x="149" y="246" width="22" height="1" fill="#1B1B01"/><rect x="341" y="246" width="22" height="1" fill="#1B1B01"/><rect x="149" y="247" width="22" height="1" fill="#1B1B01"/><rect x="341" y="247" width="22" height="1" fill="#1B1B01"/><rect x="149" y="248" width="22" height="1" fill="#1B1B01"/><rect x="341" y="248" width="22" height="1" fill="#1B1B01"/><rect x="149" y="249" width="22" height="1" fill="#1B1B01"/><rect x="341" y="249" width="22" height="1" fill="#1B1B01"/><rect x="149" y="250" width="22" height="1" fill="#1B1B01"/><rect x="341" y="250" width="22" height="1" fill="#1B1B01"/><rect x="149" y="251" width="22" height="1" fill="#1B1B01"/><rect x="341" y="251" width="22" height="1" fill="#1B1B01"/><rect x="149" y="252" width="22" height="1" fill="#1B1B01"/><rect x="341" y="252" width="22" height="1" fill="#1B1B01"/><rect x="149" y="253" width="22" height="1" fill="#1B1B01"/><rect x="341" y="253" width="22" height="1" fill="#1B1B01"/><rect x="149" y="254" width="22" height="1" fill="#1B1B01"/><rect x="341" y="254" width="22" height="1" fill="#1B1B01"/><rect x="149" y="255" width="22" height="1" fill="#1B1B01"/><rect x="341" y="255" width="22" height="1" fill="#1B1B01"/></svg>