<svg xmlns="http://www.w3.org/2000/svg" viewBox="0 0 512 512" width="512" height="512" shape-rendering="crispEdges"><rect x="171" y="128" width="170" height="1" fill="#1637A4"/><rect x="171" y="129" width="170" height="1" fill="#1637A4"/><rect x="171" y="130" width="170" height="1" fill="#1637A4"/><rect x="171" y="131" width="170" height="1" fill="#1637A4"/><rect x="171" y="132" width="170" height="1" fill="#1637A4"/><rect x="171" y="133" width="170" height="1" fill="#1637A4"/><rect x="171" y="134" width="170" height="1" fill="#1637A4"/><rect x="171" y="135" width="170" height="1" fill="#1637A4"/><rect x="171" y="136" width="170" height="1" fill="#1637A4"/><rect x="171" y="137" width="170" height="1" fill="#1637A4"/><rect x="171" y="138" width="170" height="1" fill="#1637A4"/><rect x="171" y="139" width="170" height="1" fill="#1637A4"/><rect x="171" y="140" width="170" height="1" fill="#1637A4"/><rect x="171" y="141" width="170" height="1" fill="#1637A4"/><rect x="171" y="142" width="170" height="1" fill="#1637A4"/><rect x="171" y="143" width="170" height="1" fill="#1637A4"/><rect x="171" y="144" width="170" height="1" fill="#1637A4"/><rect x="171" y="145" width="170" height="1" fill="#1637A4"/><rect x="171" y="146" width="170" height="1" fill="#1637A4"/><rect x="171" y="147" width="170" height="1" fill="#1637A4"/><rect x="171" y="148" width="170" height="1" fill="#1637A4"/><rect x="149" y="149" width="22" height="1" fill="#1637A4"/><rect x="171" y="149" width="170" height="1" fill="#1A43C8"/><rect x="341" y="149" width="22" height="1" fill="#1637A4"/><rect x="149" y="150" width="22" height="1" fill="#1637A4"/><rect x="171" y="150" width="170" height="1" fill="#1A43C8"/><rect x="341" y="150" width="22" height="1" fill="#1637A4"/><rect x="149" y="151" width="22" height="1" fill="#1637A4"/><rect x="171" y="151" width="170" height="1" fill="#1A43C8"/><rect x="341" y="151" width="22" height="1" fill="#1637A4"/><rect x="149" y="152" width="22" height="1" fill="#1637A4"/><rect x="171" y="152" width="170" height="1" fill="#1A43C8"/><rect x="341" y="152" width="22" height="1" fill="#1637A4"/><rect x="149" y="153" width="22" height="1" fill="#1637A4"/><rect x="171" y="153" width="170" height="1" fill="#1A43C8"/><rect x="341" y="153" width="22" height="1" fill="#1637A4"/><rect x="149" y="154" width="22" height="1" fill="#1637A4"/><rect x="171" y="154" width="170" height="1" fill="#1A43C8"/><rect x="341" y="154" width="22" height="1" fill="#1637A4"/><rect x="149" y="155" width="22" height="1" fill="#1637A4"/><rect x="171" y="155" width="170" height="1" fill="#1A43C8"/><rect x="341" y="155" width="22" height="1" fill="#1637A4"/><rect x="149" y="156" width="22" height="1" fill="#1637A4"/><rect x="171" y="156" width="170" height="1" fill="#1A43C8"/><rect x="341" y="156" width="22" height="1" fill="#1637A4"/><rect x="149" y="157" width="22" height="1" fill="#1637A4"/><rect x="171" y="157" width="170" height="1" fill="#1A43C8"/><rect x="341" y="157" width="22" height="1" fill="#1637A4"/><rect x="149" y="158" width="22" height="1" fill="#1637A4"/><rect x="171" y="158" width="170" height="1" fill="#1A43C8"/><rect x="341" y="158" width="22" height="1" fill="#1637A4"/><rect x="149" y="159" width="22" height="1" fill="#1637A4"/><rect x="171" y="159" width="170" height="1" fill="#1A43C8"/><rect x="341" y="159" width="22" height="1" fill="#1637A4"/><rect x="149" y="160" width="22" height="1" fill="#1637A4"/><rect x="171" y="160" width="170" height="1" fill="#1A43C8"/><rect x="341" y="160" width="22" height="1" fill="#1637A4"/><rect x="149" y="161" width="22" height="1" fill="#1637A4"/><rect x="171" y="161" width="170" height="1" fill="#1A43C8"/><rect x="341" y="161" width="22" height="1" fill="#1637A4"/><rect x="149" y="162" width="22" height="1" fill="#1637A4"/><rect x="171" y="162" width="170" height="1" fill="#1A43C8"/><rect x="341" y="162" width="22" height="1" fill="#1637A4"/><rect x="149" y="163" width="22" height="1" fill="#1637A4"/><rect x="171" y="163" width="170" height="1" fill="#1A43C8"/><rect x="341" y="163" width="22" height="1" fill="#1637A4"/><rect x="149" y="164" width="22" height="1" fill="#1637A4"/><rect x="171" y="164" width="170" height="1" fill="#1A43C8"/><rect x="341" y="164" width="22" height="1" fill="#1637A4"/><rect x="149" y="165" width="22" height="1" fill="#1637A4"/><rect x="171" y="165" width="170" height="1" fill="#1A43C8"/><rect x="341" y="165" width="22" height="1" fill="#1637A4"/><rect x="149" y="166" width="22" height="1" fill="#1637A4"/><rect x="171" y="166" width="170" height="1" fill="#1A43C8"/><rect x="341" y="166" width="22" height="1" fill="#1637A4"/><rect x="149" y="167" width="22" height="1" fill="#1637A4"/><rect x="171" y="167" width="170" height="1" fill="#1A43C8"/><rect x="341" y="167" width="22" height="1" fill="#1637A4"/><rect x="149" y="168" width="22" height="1" fill="#1637A4"/><rect x="171" y="168" width="170" height="1" fill="#1A43C8"/><rect x="341" y="168" width="22" height="1" fill="#1637A4"/><rect x="149" y="169" width="22" height="1" fill="#1637A4"/><rect x="171" y="169" width="170" height="1" fill="#1A43C8"/><rect x="341" y="169" width="22" height="1" fill="#1637A4"/><rect x="149" y="170" width="22" height="1" fill="#1637A4"/><rect x="171" y="170" width="170" height="1" fill="#1A43C8"/><rect x="341" y="170" width="22" height="1" fill="#1637A4"/><rect x="128" y="171" width="21" height="1" fill="#1637A4"/><rect x="149" y="171" width="192" height="1" fill="#1A43C8"/><rect x="341" y="171" width="22" height="1" fill="#1637A4"/><rect x="128" y="172" width="21" height="1" fill="#1637A4"/><rect x="149" y="172" width="192" height="1" fill="#1A43C8"/><rect x="341" y="172" width="22" height="1" fill="#1637A4"/><rect x="128" y="173" width="21" height="1" fill="#1637A4"/><rect x="149" y="173" width="192" height="1" fill="#1A43C8"/><rect x="341" y="173" width="22" height="1" fill="#1637A4"/><rect x="128" y="174" width="21" height="1" fill="#1637A4"/><rect x="149" y="174" width="192" height="1" fill="#1A43C8"/><rect x="341" y="174" width="22" height="1" fill="#1637A4"/><rect x="128" y="175" width="21" height="1" fill="#1637A4"/><rect x="149" y="175" width="192" height="1" fill="#1A43C8"/><rect x="341" y="175" width="22" height="1" fill="#1637A4"/><rect x="128" y="176" width="21" height="1" fill="#1637A4"/><rect x="149" y="176" width="192" height="1" fill="#1A43C8"/><rect x="341" y="176" width="22" height="1" fill="#1637A4"/><rect x="128" y="177" width="21" height="1" fill="#1637A4"/><rect x="149" y="177" width="192" height="1" fill="#1A43C8"/><rect x="341" y="177" width="22" height="1" fill="#1637A4"/><rect x="128" y="178" width="21" height="1" fill="#1637A4"/><rect x="149" y="178" width="192" height="1" fill="#1A43C8"/><rect x="341" y="178" width="22" height="1" fill="#1637A4"/><rect x="128" y="179" width="21" height="1" fill="#1637A4"/><rect x="149" y="179" width="192" height="1" fill="#1A43C8"/><rect x="341" y="179" width="22" height="1" fill="#1637A4"/><rect x="128" y="180" width="21" height="1" fill="#1637A4"/><rect x="149" y="180" width="192" height="1" fill="#1A43C8"/><rect x="341" y="180" width="22" height="1" fill="#1637A4"/><rect x="128" y="181" width="21" height="1" fill="#1637A4"/><rect x="149" y="181" width="192" height="1" fill="#1A43C8"/><rect x="341" y="181" width="22" height="1" fill="#1637A4"/><rect x="128" y="182" width="21" height="1" fill="#1637A4"/><rect x="149" y="182" width="192" height="1" fill="#1A43C8"/><rect x="341" y="182" width="22" height="1" fill="#1637A4"/><rect x="128" y="183" width="21" height="1" fill="#1637A4"/><rect x="149" y="183" width="192" height="1" fill="#1A43C8"/><rect x="341" y="183" width="22" height="1" fill="#1637A4"/><rect x="128" y="184" width="21" height="1" fill="#1637A4"/><rect x="149" y="184" width="192" height="1" fill="#1A43C8"/><rect x="341" y="184" width="22" height="1" fill="#1637A4"/><rect x="128" y="185" width="21" height="1" fill="#1637A4"/><rect x="149" y="185" width="192" height="1" fill="#1A43C8"/><rect x="341" y="185" width="22" height="1" fill="#1637A4"/><rect x="128" y="186" width="21" height="1" fill="#1637A4"/><rect x="149" y="186" width="192" height="1" fill="#1A43C8"/><rect x="341" y="186" width="22" height="1" fill="#1637A4"/><rect x="128" y="187" width="21" height="1" fill="#1637A4"/><rect x="149" y="187" width="192" height="1" fill="#1A43C8"/><rect x="341" y="187" width="22" height="1" fill="#1637A4"/><rect x="128" y="188" width="21" height="1" fill="#1637A4"/><rect x="149" y="188" width="192" height="1" fill="#1A43C8"/><rect x="341" y="188" width="22" height="1" fill="#1637A4"/><rect x="128" y="189" width="21" height="1" fill="#1637A4"/><rect x="149" y="189" width="192" height="1" fill="#1A43C8"/><rect x="341" y="189" width="22" height="1" fill="#1637A4"/><rect x="128" y="190" width="21" height="1" fill="#1637A4"/><rect x="149" y="190" width="192" height="1" fill="#1A43C8"/><rect x="341" y="190" width="22" height="1" fill="#1637A4"/><rect x="128" y="191" width="21" height="1" fill="#1637A4"/><rect x="149" y="191" width="192" height="1" fill="#1A43C8"/><rect x="341" y="191" width="22" height="1" fill="#1637A4"/><rect x="43" y="192" width="21" height="1" fill="#1A43C8"/><rect x="64" y="192" width="21" height="1" fill="#1637A4"/><rect x="85" y="192" width="22" height="1" fill="#1A43C8"/><rect x="107" y="192" width="21" height="1" fill="#1637A4"/><rect x="128" y="192" width="21" height="1" fill="#142C7C"/><rect x="149" y="192" width="22" height="1" fill="#1A43C8"/><rect x="171" y="192" width="85" height="1" fill="#1637A4"/><rect x="256" y="192" width="64" height="1" fill="#1A43C8"/><rect x="320" y="192" width="21" height="1" fill="#1637A4"/><rect x="43" y="193" width="21" height="1" fill="#1A43C8"/><rect x="64" y="193" width="21" height="1" fill="#1637A4"/><rect x="85" y="193" width="22" height="1" fill="#1A43C8"/><rect x="107" y="193" width="21" height="1" fill="#1637A4"/><rect x="128" y="193" width="21" height="1" fill="#142C7C"/><rect x="149" y="193" width="22" height="1" fill="#1A43C8"/><rect x="171" y="193" width="85" height="1" fill="#1637A4"/><rect x="256" y="193" width="64" height="1" fill="#1A43C8"/><rect x="320" y="193" width="21" height="1" fill="#1637A4"/><rect x="43" y="194" width="21" height="1" fill="#1A43C8"/><rect x="64" y="194" width="21" height="1" fill="#1637A4"/><rect x="85" y="194" width="22" height="1" fill="#1A43C8"/><rect x="107" y="194" width="21" height="1" fill="#1637A4"/><rect x="128" y="194" width="21" height="1" fill="#142C7C"/><rect x="149" y="194" width="22" height="1" fill="#1A43C8"/><rect x="171" y="194" width="85" height="1" fill="#1637A4"/><rect x="256" y="194" width="64" height="1" fill="#1A43C8"/><rect x="320" y="194" width="21" height="1" fill="#1637A4"/><rect x="43" y="195" width="21" height="1" fill="#1A43C8"/><rect x="64" y="195" width="21" height="1" fill="#1637A4"/><rect x="85" y="195" width="22" height="1" fill="#1A43C8"/><rect x="107" y="195" width="21" height="1" fill="#1637A4"/><rect x="128" y="195" width="21" height="1" fill="#142C7C"/><rect x="149" y="195" width="22" height="1" fill="#1A43C8"/><rect x="171" y="195" width="85" height="1" fill="#1637A4"/><rect x="256" y="195" width="64" height="1" fill="#1A43C8"/><rect x="320" y="195" width="21" height="1" fill="#1637A4"/><rect x="43" y="196" width="21" height="1" fill="#1A43C8"/><rect x="64" y="196" width="21" height="1" fill="#1637A4"/><rect x="85" y="196" width="22" height="1" fill="#1A43C8"/><rect x="107" y="196" width="21" height="1" fill="#1637A4"/><rect x="128" y="196" width="21" height="1" fill="#142C7C"/><rect x="149" y="196" width="22" height="1" fill="#1A43C8"/><rect x="171" y="196" width="85" height="1" fill="#1637A4"/><rect x="256" y="196" width="64" height="1" fill="#1A43C8"/><rect x="320" y="196" width="21" height="1" fill="#1637A4"/><rect x="43" y="197" width="21" height="1" fill="#1A43C8"/><rect x="64" y="197" width="21" height="1" fill="#1637A4"/><rect x="85" y="197" width="22" height="1" fill="#1A43C8"/><rect x="107" y="197" width="21" height="1" fill="#1637A4"/><rect x="128" y="197" width="21" height="1" fill="#142C7C"/><rect x="149" y="197" width="22" height="1" fill="#1A43C8"/><rect x="171" y="197" width="85" height="1" fill="#1637A4"/><rect x="256" y="197" width="64" height="1" fill="#1A43C8"/><rect x="320" y="197" width="21" height="1" fill="#1637A4"/><rect x="43" y="198" width="21" height="1" fill="#1A43C8"/><rect x="64" y="198" width="21" height="1" fill="#1637A4"/><rect x="85" y="198" width="22" height="1" fill="#1A43C8"/><rect x="107" y="198" width="21" height="1" fill="#1637A4"/><rect x="128" y="198" width="21" height="1" fill="#142C7C"/><rect x="149" y="198" width="22" height="1" fill="#1A43C8"/><rect x="171" y="198" width="85" height="1" fill="#1637A4"/><rect x="256" y="198" width="64" height="1" fill="#1A43C8"/><rect x="320" y="198" width="21" height="1" fill="#1637A4"/><rect x="43" y="199" width="21" height="1" fill="#1A43C8"/><rect x="64" y="199" width="21" height="1" fill="#1637A4"/><rect x="85" y="199" width="22" height="1" fill="#1A43C8"/><rect x="107" y="199" width="21" height="1" fill="#1637A4"/><rect x="128" y="199" width="21" height="1" fill="#142C7C"/><rect x="149" y="199" width="22" height="1" fill="#1A43C8"/><rect x="171" y="199" width="85" height="1" fill="#1637A4"/><rect x="256" y="199" width="64" height="1" fill="#1A43C8"/><rect x="320" y="199" width="21" height="1" fill="#1637A4"/><rect x="43" y="200" width="21" height="1" fill="#1A43C8"/><rect x="64" y="200" width="21" height="1" fill="#1637A4"/><rect x="85" y="200" width="22" height="1" fill="#1A43C8"/><rect x="107" y="200" width="21" height="1" fill="#1637A4"/><rect x="128" y="200" width="21" height="1" fill="#142C7C"/><rect x="149" y="200" width="22" height="1" fill="#1A43C8"/><rect x="171" y="200" width="85" height="1" fill="#1637A4"/><rect x="256" y="200" width="64" height="1" fill="#1A43C8"/><rect x="320" y="200" width="21" height="1" fill="#1637A4"/><rect x="43" y="201" width="21" height="1" fill="#1A43C8"/><rect x="64" y="201" width="21" height="1" fill="#1637A4"/><rect x="85" y="201" width="22" height="1" fill="#1A43C8"/><rect x="107" y="201" width="21" height="1" fill="#1637A4"/><rect x="128" y="201" width="21" height="1" fill="#142C7C"/><rect x="149" y="201" width="22" height="1" fill="#1A43C8"/><rect x="171" y="201" width="85" height="1" fill="#1637A4"/><rect x="256" y="201" width="64" height="1" fill="#1A43C8"/><rect x="320" y="201" width="21" height="1" fill="#1637A4"/><rect x="43" y="202" width="21" height="1" fill="#1A43C8"/><rect x="64" y="202" width="21" height="1" fill="#1637A4"/><rect x="85" y="202" width="22" height="1" fill="#1A43C8"/><rect x="107" y="202" width="21" height="1" fill="#1637A4"/><rect x="128" y="202" width="21" height="1" fill="#142C7C"/><rect x="149" y="202" width="22" height="1" fill="#1A43C8"/><rect x="171" y="202" width="85" height="1" fill="#1637A4"/><rect x="256" y="202" width="64" height="1" fill="#1A43C8"/><rect x="320" y="202" width="21" height="1" fill="#1637A4"/><rect x="43" y="203" width="21" height="1" fill="#1A43C8"/><rect x="64" y="203" width="21" height="1" fill="#1637A4"/><rect x="85" y="203" width="22" height="1" fill="#1A43C8"/><rect x="107" y="203" width="21" height="1" fill="#1637A4"/><rect x="128" y="203" width="21" height="1" fill="#142C7C"/><rect x="149" y="203" width="22" height="1" fill="#1A43C8"/><rect x="171" y="203" width="85" height="1" fill="#1637A4"/><rect x="256" y="203" width="64" height="1" fill="#1A43C8"/><rect x="320" y="203" width="21" height="1" fill="#1637A4"/><rect x="43" y="204" width="21" height="1" fill="#1A43C8"/><rect x="64" y="204" width="21" height="1" fill="#1637A4"/><rect x="85" y="204" width="22" height="1" fill="#1A43C8"/><rect x="107" y="204" width="21" height="1" fill="#1637A4"/><rect x="128" y="204" width="21" height="1" fill="#142C7C"/><rect x="149" y="204" width="22" height="1" fill="#1A43C8"/><rect x="171" y="204" width="85" height="1" fill="#1637A4"/><rect x="256" y="204" width="64" height="1" fill="#1A43C8"/><rect x="320" y="204" width="21" height="1" fill="#1637A4"/><rect x="43" y="205" width="21" height="1" fill="#1A43C8"/><rect x="64" y="205" width="21" height="1" fill="#1637A4"/><rect x="85" y="205" width="22" height="1" fill="#1A43C8"/><rect x="107" y="205" width="21" height="1" fill="#1637A4"/><rect x="128" y="205" width="21" height="1" fill="#142C7C"/><rect x="149" y="205" width="22" height="1" fill="#1A43C8"/><rect x="171" y="205" width="85" height="1" fill="#1637A4"/><rect x="256" y="205" width="64" height="1" fill="#1A43C8"/><rect x="320" y="205" width="21" height="1" fill="#1637A4"/><rect x="43" y="206" width="21" height="1" fill="#1A43C8"/><rect x="64" y="206" width="21" height="1" fill="#1637A4"/><rect x="85" y="206" width="22" height="1" fill="#1A43C8"/><rect x="107" y="206" width="21" height="1" fill="#1637A4"/><rect x="128" y="206" width="21" height="1" fill="#142C7C"/><rect x="149" y="206" width="22" height="1" fill="#1A43C8"/><rect x="171" y="206" width="85" height="1" fill="#1637A4"/><rect x="256" y="206" width="64" height="1" fill="#1A43C8"/><rect x="320" y="206" width="21" height="1" fill="#1637A4"/><rect x="43" y="207" width="21" height="1" fill="#1A43C8"/><rect x="64" y="207" width="21" height="1" fill="#1637A4"/><rect x="85" y="207" width="22" height="1" fill="#1A43C8"/><rect x="107" y="207" width="21" height="1" fill="#1637A4"/><rect x="128" y="207" width="21" height="1" fill="#142C7C"/><rect x="149" y="207" width="22" height="1" fill="#1A43C8"/><rect x="171" y="207" width="85" height="1" fill="#1637A4"/><rect x="256" y="207" width="64" height="1" fill="#1A43C8"/><rect x="320" y="207" width="21" height="1" fill="#1637A4"/><rect x="43" y="208" width="21" height="1" fill="#1A43C8"/><rect x="64" y="208" width="21" height="1" fill="#1637A4"/><rect x="85" y="208" width="22" height="1" fill="#1A43C8"/><rect x="107" y="208" width="21" height="1" fill="#1637A4"/><rect x="128" y="208" width="21" height="1" fill="#142C7C"/><rect x="149" y="208" width="22" height="1" fill="#1A43C8"/><rect x="171" y="208" width="85" height="1" fill="#1637A4"/><rect x="256" y="208" width="64" height="1" fill="#1A43C8"/><rect x="320" y="208" width="21" height="1" fill="#1637A4"/><rect x="43" y="209" width="21" height="1" fill="#1A43C8"/><rect x="64" y="209" width="21" height="1" fill="#1637A4"/><rect x="85" y="209" width="22" height="1" fill="#1A43C8"/><rect x="107" y="209" width="21" height="1" fill="#1637A4"/><rect x="128" y="209" width="21" height="1" fill="#142C7C"/><rect x="149" y="209" width="22" height="1" fill="#1A43C8"/><rect x="171" y="209" width="85" height="1" fill="#1637A4"/><rect x="256" y="209" width="64" height="1" fill="#1A43C8"/><rect x="320" y="209" width="21" height="1" fill="#1637A4"/><rect x="43" y="210" width="21" height="1" fill="#1A43C8"/><rect x="64" y="210" width="21" height="1" fill="#1637A4"/><rect x="85" y="210" width="22" height="1" fill="#1A43C8"/><rect x="107" y="210" width="21" height="1" fill="#1637A4"/><rect x="128" y="210" width="21" height="1" fill="#142C7C"/><rect x="149" y="210" width="22" height="1" fill="#1A43C8"/><rect x="171" y="210" width="85" height="1" fill="#1637A4"/><rect x="256" y="210" width="64" height="1" fill="#1A43C8"/><rect x="320" y="210" width="21" height="1" fill="#1637A4"/><rect x="43" y="211" width="21" height="1" fill="#1A43C8"/><rect x="64" y="211" width="21" height="1" fill="#1637A4"/><rect x="85" y="211" width="22" height="1" fill="#1A43C8"/><rect x="107" y="211" width="21" height="1" fill="#1637A4"/><rect x="128" y="211" width="21" height="1" fill="#142C7C"/><rect x="149" y="211" width="22" height="1" fill="#1A43C8"/><rect x="171" y="211" width="85" height="1" fill="#1637A4"/><rect x="256" y="211" width="64" height="1" fill="#1A43C8"/><rect x="320" y="211" width="21" height="1" fill="#1637A4"/><rect x="43" y="212" width="21" height="1" fill="#1A43C8"/><rect x="64" y="212" width="21" height="1" fill="#1637A4"/><rect x="85" y="212" width="22" height="1" fill="#1A43C8"/><rect x="107" y="212" width="21" height="1" fill="#1637A4"/><rect x="128" y="212" width="21" height="1" fill="#142C7C"/><rect x="149" y="212" width="22" height="1" fill="#1A43C8"/><rect x="171" y="212" width="85" height="1" fill="#1637A4"/><rect x="256" y="212" width="64" height="1" fill="#1A43C8"/><rect x="320" y="212" width="21" height="1" fill="#1637A4"/><rect x="64" y="213" width="21" height="1" fill="#1A43C8"/><rect x="85" y="213" width="22" height="1" fill="#1637A4"/><rect x="107" y="213" width="21" height="1" fill="#142C7C"/><rect x="256" y="213" width="64" height="1" fill="#1637A4"/><rect x="64" y="214" width="21" height="1" fill="#1A43C8"/><rect x="85" y="214" width="22" height="1" fill="#1637A4"/><rect x="107" y="214" width="21" height="1" fill="#142C7C"/><rect x="256" y="214" width="64" height="1" fill="#1637A4"/><rect x="64" y="215" width="21" height="1" fill="#1A43C8"/><rect x="85" y="215" width="22" height="1" fill="#1637A4"/><rect x="107" y="215" width="21" height="1" fill="#142C7C"/><rect x="256" y="215" width="64" height="1" fill="#1637A4"/><rect x="64" y="216" width="21" height="1" fill="#1A43C8"/><rect x="85" y="216" width="22" height="1" fill="#1637A4"/><rect x="107" y="216" width="21" height="1" fill="#142C7C"/><rect x="256" y="216" width="64" height="1" fill="#1637A4"/><rect x="64" y="217" width="21" height="1" fill="#1A43C8"/><rect x="85" y="217" width="22" height="1" fill="#1637A4"/><rect x="107" y="217" width="21" height="1" fill="#142C7C"/><rect x="256" y="217" width="64" height="1" fill="#1637A4"/><rect x="64" y="218" width="21" height="1" fill="#1A43C8"/><rect x="85" y="218" width="22" height="1" fill="#1637A4"/><rect x="107" y="218" width="21" height="1" fill="#142C7C"/><rect x="256" y="218" width="64" height="1" fill="#1637A4"/><rect x="64" y="219" width="21" height="1" fill="#1A43C8"/><rect x="85" y="219" width="22" height="1" fill="#1637A4"/><rect x="107" y="219" width="21" height="1" fill="#142C7C"/><rect x="256" y="219" width="64" height="1" fill="#1637A4"/><rect x="64" y="220" width="21" height="1" fill="#1A43C8"/><rect x="85" y="220" width="22" height="1" fill="#1637A4"/><rect x="107" y="220" width="21" height="1" fill="#142C7C"/><rect x="256" y="220" width="64" height="1" fill="#1637A4"/><rect x="64" y="221" width="21" height="1" fill="#1A43C8"/><rect x="85" y="221" width="22" height="1" fill="#1637A4"/><rect x="107" y="221" width="21" height="1" fill="#142C7C"/><rect x="256" y="221" width="64" height="1" fill="#1637A4"/><rect x="64" y="222" width="21" height="1" fill="#1A43C8"/><rect x="85" y="222" width="22" height="1" fill="#1637A4"/><rect x="107" y="222" width="21" height="1" fill="#142C7C"/><rect x="256" y="222" width="64" height="1" fill="#1637A4"/><rect x="64" y="223" width="21" height="1" fill="#1A43C8"/><rect x="85" y="223" width="22" height="1" fill="#1637A4"/><rect x="107" y="223" width="21" height="1" fill="#142C7C"/><rect x="256" y="223" width="64" height="1" fill="#1637A4"/><rect x="64" y="224" width="21" height="1" fill="#1A43C8"/><rect x="85" y="224" width="22" height="1" fill="#1637A4"/><rect x="107" y="224" width="21" height="1" fill="#142C7C"/><rect x="256" y="224" width="64" height="1" fill="#1637A4"/><rect x="64" y="225" width="21" height="1" fill="#1A43C8"/><rect x="85" y="225" width="22" height="1" fill="#1637A4"/><rect x="107" y="225" width="21" height="1" fill="#142C7C"/><rect x="256" y="225" width="64" height="1" fill="#1637A4"/><rect x="64" y="226" width="21" height="1" fill="#1A43C8"/><rect x="85" y="226" width="22" height="1" fill="#1637A4"/><rect x="107" y="226" width="21" height="1" fill="#142C7C"/><rect x="256" y="226" width="64" height="1" fill="#1637A4"/><rect x="64" y="227" width="21" height="1" fill="#1A43C8"/><rect x="85" y="227" width="22" height="1" fill="#1637A4"/><rect x="107" y="227" width="21" height="1" fill="#142C7C"/><rect x="256" y="227" width="64" height="1" fill="#1637A4"/><rect x="64" y="228" width="21" height="1" fill="#1A43C8"/><rect x="85" y="228" width="22" height="1" fill="#1637A4"/><rect x="107" y="228" width="21" height="1" fill="#142C7C"/><rect x="256" y="228" width="64" height="1" fill="#1637A4"/><rect x="64" y="229" width="21" height="1" fill="#1A43C8"/><rect x="85" y="229" width="22" height="1" fill="#1637A4"/><rect x="107" y="229" width="21" height="1" fill="#142C7C"/><rect x="256" y="229" width="64" height="1" fill="#1637A4"/><rect x="64" y="230" width="21" height="1" fill="#1A43C8"/><rect x="85" y="230" width="22" height="1" fill="#1637A4"/><rect x="107" y="230" width="21" height="1" fill="#142C7C"/><rect x="256" y="230" width="64" height="1" fill="#1637A4"/><rect x="64" y="231" width="21" height="1" fill="#1A43C8"/><rect x="85" y="231" width="22" height="1" fill="#1637A4"/><rect x="107" y="231" width="21" height="1" fill="#142C7C"/><rect x="256" y="231" width="64" height="1" fill="#1637A4"/><rect x="64" y="232" width="21" height="1" fill="#1A43C8"/><rect x="85" y="232" width="22" height="1" fill="#1637A4"/><rect x="107" y="232" width="21" height="1" fill="#142C7C"/><rect x="256" y="232" width="64" height="1" fill="#1637A4"/><rect x="64" y="233" width="21" height="1" fill="#1A43C8"/><rect x="85" y="233" width="22" height="1" fill="#1637A4"/><rect x="107" y="233" width="21" height="1" fill="#142C7C"/><rect x="256" y="233" width="64" height="1" fill="#1637A4"/><rect x="64" y="234" width="21" height="1" fill="#1A43C8"/><rect x="85" y="234" width="22" height="1" fill="#1637A4"/><rect x="107" y="234" width="21" height="1" fill="#142C7C"/><rect x="256" y="234" width="64" height="1" fill="#1637A4"/><rect x="64" y="235" width="21" height="1" fill="#1A43C8"/><rect x="85" y="235" width="22" height="1" fill="#142C7C"/><rect x="64" y="236" width="21" height="1" fill="#1A43C8"/><rect x="85" y="236" width="22" height="1" fill="#142C7C"/><rect x="64" y="237" width="21" height="1" fill="#1A43C8"/><rect x="85" y="237" width="22" height="1" fill="#142C7C"/><rect x="64" y="238" width="21" height="1" fill="#1A43C8"/><rect x="85" y="238" width="22" height="1" fill="#142C7C"/><rect x="64" y="239" width="21" height="1" fill="#1A43C8"/><rect x="85" y="239" width="22" height="1" fill="#142C7C"/><rect x="64" y="240" width="21" height="1" fill="#1A43C8"/><rect x="85" y="240" width="22" height="1" fill="#142C7C"/><rect x="64" y="241" width="21" height="1" fill="#1A43C8"/><rect x="85" y="241" width="22" height="1" fill="#142C7C"/><rect x="64" y="242" width="21" height="1" fill="#1A43C8"/><rect x="85" y="242" width="22" height="1" fill="#142C7C"/><rect x="64" y="243" width="21" height="1" fill="#1A43C8"/><rect x="85" y="243" width="22" height="1" fill="#142C7C"/><rect x="64" y="244" width="21" height="1" fill="#1A43C8"/><rect x="85" y="244" width="22" height="1" fill="#142C7C"/><rect x="64" y="245" width="21" height="1" fill="#1A43C8"/><rect x="85" y="245" width="22" height="1" fill="#142C7C"/><rect x="64" y="246" width="21" height="1" fill="#1A43C8"/><rect x="85" y="246" width="22" height="1" fill="#142C7C"/><rect x="64" y="247" width="21" height="1" fill="#1A43C8"/><rect x="85" y="247" width="22" height="1" fill="#142C7C"/><rect x="64" y="248" width="21" height="1" fill="#1A43C8"/><rect x="85" y="248" width="22" height="1" fill="#142C7C"/><rect x="64" y="249" width="21" height="1" fill="#1A43C8"/><rect x="85" y="249" width="22" height="1" fill="#142C7C"/><rect x="64" y="250" width="21" height="1" fill="#1A43C8"/><rect x="85" y="250" width="22" height="1" fill="#142C7C"/><rect x="64" y="251" width="21" height="1" fill="#1A43C8"/><rect x="85" y="251" width="22" height="1" fill="#142C7C"/><rect x="64" y="252" width="21" height="1" fill="#1A43C8"/><rect x="85" y="252" width="22" height="1" fill="#142C7C"/><rect x="64" y="253" width="21" height="1" fill="#1A43C8"/><rect x="85" y="253" width="22" height="1" fill="#142C7C"/><rect x="64" y="254" width="21" height="1" fill="#1A43C8"/><rect x="85" y="254" width="22" height="1" fill="#142C7C"/><rect x="64" y="255" width="21" height="1" fill="#1A43C8"/><rect x="85" y="255" width="22" height="1" fill="#142C7C"/><rect x="64" y="256" width="21" height="1" fill="#1A43C8"/><rect x="64" y="257" width="21" height="1" fill="#1A43C8"/><rect x="64" y="258" width="21" height="1" fill="#1A43C8"/><rect x="64" y="259" width="21" height="1" fill="#1A43C8"/><rect x="64" y="260" width="21" height="1" fill="#1A43C8"/><rect x="64" y="261" width="21" height="1" fill="#1A43C8"/><rect x="64" y="262" width="21" height="1" fill="#1A43C8"/><rect x="64" y="263" width="21" height="1" fill="#1A43C8"/><rect x="64" y="264" width="21" height="1" fill="#1A43C8"/><rect x="64" y="265" width="21" height="1" fill="#1A43C8"/><rect x="64" y="266" width="21" height="1" fill="#1A43C8"/><rect x="64" y="267" width="21" height="1" fill="#1A43C8"/><rect x="64" y="268" width="21" height="1" fill="#1A43C8"/><rect x="64" y="269" width="21" height="1" fill="#1A43C8"/><rect x="64" y="270" width="21" height="1" fill="#1A43C8"/><rect x="64" y="271" width="21" height="1" fill="#1A43C8"/><rect x="64" y="272" width="21" height="1" fill="#1A43C8"/><rect x="64" y="273" width="21" height="1" fill="#1A43C8"/><rect x="64" y="274" width="21" height="1" fill="#1A43C8"/><rect x="64" y="275" width="21" height="1" fill="#1A43C8"/><rect x="64" y="276" width="21" height="1" fill="#1A43C8"/></svg>