<svg xmlns="http://www.w3.org/2000/svg" viewBox="0 0 512 512" width="512" height="512" shape-rendering="crispEdges"><rect x="149" y="235" width="107" height="1" fill="#000000"/><rect x="277" y="235" width="107" height="1" fill="#000000"/><rect x="149" y="236" width="107" height="1" fill="#000000"/><rect x="277" y="236" width="107" height="1" fill="#000000"/><rect x="149" y="237" width="107" height="1" fill="#000000"/><rect x="277" y="237" width="107" height="1" fill="#000000"/><rect x="149" y="238" width="107" height="1" fill="#000000"/><rect x="277" y="238" width="107" height="1" fill="#000000"/><rect x="149" y="239" width="107" height="1" fill="#000000"/><rect x="277" y="239" width="107" height="1" fill="#000000"/><rect x="149" y="240" width="107" height="1" fill="#000000"/><rect x="277" y="240" width="107" height="1" fill="#000000"/><rect x="149" y="241" width="107" height="1" fill="#000000"/><rect x="277" y="241" width="107" height="1" fill="#000000"/><rect x="149" y="242" width="107" height="1" fill="#000000"/><rect x="277" y="242" width="107" height="1" fill="#000000"/><rect x="149" y="243" width="107" height="1" fill="#000000"/><rect x="277" y="243" width="107" height="1" fill="#000000"/><rect x="149" y="244" width="107" height="1" fill="#000000"/><rect x="277" y="244" width="107" height="1" fill="#000000"/><rect x="149" y="245" width="107" height="1" fill="#000000"/><rect x="277" y="245" width="107" height="1" fill="#000000"/><rect x="149" y="246" width="107" height="1" fill="#000000"/><rect x="277" y="246" width="107" height="1" fill="#000000"/><rect x="149" y="247" width="107" height="1" fill="#000000"/><rect x="277" y="247" width="107" height="1" fill="#000000"/><rect x="149" y="248" width="107" height="1" fill="#000000"/><rect x="277" y="248" width="107" height="1" fill="#000000"/><rect x="149" y="249" width="107" height="1" fill="#000000"/><rect x="277" y="249" width="107" height="1" fill="#000000"/><rect x="149" y="250" width="107" height="1" fill="#000000"/><rect x="277" y="250" width="107" height="1" fill="#000000"/><rect x="149" y="251" width="107" height="1" fill="#000000"/><rect x="277" y="251" width="107" height="1" fill="#000000"/><rect x="149" y="252" width="107" height="1" fill="#000000"/><rect x="277" y="252" width="107" height="1" fill="#000000"/><rect x="149" y="253" width="107" height="1" fill="#000000"/><rect x="277" y="253" width="107" height="1" fill="#000000"/><rect x="149" y="254" width="107" height="1" fill="#000000"/><rect x="277" y="254" width="107" height="1" fill="#000000"/><rect x="149" y="255" width="107" height="1" fill="#000000"/><rect x="277" y="255" width="107" height="1" fill="#000000"/><rect x="149" y="256" width="22" height="1" fill="#000000"/><rect x="171" y="256" width="64" height="1" fill="#690C45"/><rect x="235" y="256" width="64" height="1" fill="#000000"/><rect x="299" y="256" width="64" height="1" fill="#690C45"/><rect x="363" y="256" width="21" height="1" fill="#000000"/><rect x="149" y="257" width="22" height="1" fill="#000000"/><rect x="171" y="257" width="64" height="1" fill="#690C45"/><rect x="235" y="257" width="64" height="1" fill="#000000"/><rect x="299" y="257" width="64" height="1" fill="#690C45"/><rect x="363" y="257" width="21" height="1" fill="#000000"/><rect x="149" y="258" width="22" height="1" fill="#000000"/><rect x="171" y="258" width="64" height="1" fill="#690C45"/><rect x="235" y="258" width="64" height="1" fill="#000000"/><rect x="299" y="258" width="64" height="1" fill="#690C45"/><rect x="363" y="258" width="21" height="1" fill="#000000"/><rect x="149" y="259" width="22" height="1" fill="#000000"/><rect x="171" y="259" width="64" height="1" fill="#690C45"/><rect x="235" y="259" width="64" height="1" fill="#000000"/><rect x="299" y="259" width="64" height="1" fill="#690C45"/><rect x="363" y="259" width="21" height="1" fill="#000000"/><rect x="149" y="260" width="22" height="1" fill="#000000"/><rect x="171" y="260" width="64" height="1" fill="#690C45"/><rect x="235" y="260" width="64" height="1" fill="#000000"/><rect x="299" y="260" width="64" height="1" fill="#690C45"/><rect x="363" y="260" width="21" height="1" fill="#000000"/><rect x="149" y="261" width="22" height="1" fill="#000000"/><rect x="171" y="261" width="64" height="1" fill="#690C45"/><rect x="235" y="261" width="64" height="1" fill="#000000"/><rect x="299" y="261" width="64" height="1" fill="#690C45"/><rect x="363" y="261" width="21" height="1" fill="#000000"/><rect x="149" y="262" width="22" height="1" fill="#000000"/><rect x="171" y="262" width="64" height="1" fill="#690C45"/><rect x="235" y="262" width="64" height="1" fill="#000000"/><rect x="299" y="262" width="64" height="1" fill="#690C45"/><rect x="363" y="262" width="21" height="1" fill="#000000"/><rect x="149" y="263" width="22" height="1" fill="#000000"/><rect x="171" y="263" width="64" height="1" fill="#690C45"/><rect x="235" y="263" width="64" height="1" fill="#000000"/><rect x="299" y="263" width="64" height="1" fill="#690C45"/><rect x="363" y="263" width="21" height="1" fill="#000000"/><rect x="149" y="264" width="22" height="1" fill="#000000"/><rect x="171" y="264" width="64" height="1" fill="#690C45"/><rect x="235" y="264" width="64" height="1" fill="#000000"/><rect x="299" y="264" width="64" height="1" fill="#690C45"/><rect x="363" y="264" width="21" height="1" fill="#000000"/><rect x="149" y="265" width="22" height="1" fill="#000000"/><rect x="171" y="265" width="64" height="1" fill="#690C45"/><rect x="235" y="265" width="64" height="1" fill="#000000"/><rect x="299" y="265" width="64" height="1" fill="#690C45"/><rect x="363" y="265" width="21" height="1" fill="#000000"/><rect x="149" y="266" width="22" height="1" fill="#000000"/><rect x="171" y="266" width="64" height="1" fill="#690C45"/><rect x="235" y="266" width="64" height="1" fill="#000000"/><rect x="299" y="266" width="64" height="1" fill="#690C45"/><rect x="363" y="266" width="21" height="1" fill="#000000"/><rect x="149" y="267" width="22" height="1" fill="#000000"/><rect x="171" y="267" width="64" height="1" fill="#690C45"/><rect x="235" y="267" width="64" height="1" fill="#000000"/><rect x="299" y="267" width="64" height="1" fill="#690C45"/><rect x="363" y="267" width="21" height="1" fill="#000000"/><rect x="149" y="268" width="22" height="1" fill="#000000"/><rect x="171" y="268" width="64" height="1" fill="#690C45"/><rect x="235" y="268" width="64" height="1" fill="#000000"/><rect x="299" y="268" width="64" height="1" fill="#690C45"/><rect x="363" y="268" width="21" height="1" fill="#000000"/><rect x="149" y="269" width="22" height="1" fill="#000000"/><rect x="171" y="269" width="64" height="1" fill="#690C45"/><rect x="235" y="269" width="64" height="1" fill="#000000"/><rect x="299" y="269" width="64" height="1" fill="#690C45"/><rect x="363" y="269" width="21" height="1" fill="#000000"/><rect x="149" y="270" width="22" height="1" fill="#000000"/><rect x="171" y="270" width="64" height="1" fill="#690C45"/><rect x="235" y="270" width="64" height="1" fill="#000000"/><rect x="299" y="270" width="64" height="1" fill="#690C45"/><rect x="363" y="270" width="21" height="1" fill="#000000"/><rect x="149" y="271" width="22" height="1" fill="#000000"/><rect x="171" y="271" width="64" height="1" fill="#690C45"/><rect x="235" y="271" width="64" height="1" fill="#000000"/><rect x="299" y="271" width="64" height="1" fill="#690C45"/><rect x="363" y="271" width="21" height="1" fill="#000000"/><rect x="149" y="272" width="22" height="1" fill="#000000"/><rect x="171" y="272" width="64" height="1" fill="#690C45"/><rect x="235" y="272" width="64" height="1" fill="#000000"/><rect x="299" y="272" width="64" height="1" fill="#690C45"/><rect x="363" y="272" width="21" height="1" fill="#000000"/><rect x="149" y="273" width="22" height="1" fill="#000000"/><rect x="171" y="273" width="64" height="1" fill="#690C45"/><rect x="235" y="273" width="64" height="1" fill="#000000"/><rect x="299" y="273" width="64" height="1" fill="#690C45"/><rect x="363" y="273" width="21" height="1" fill="#000000"/><rect x="149" y="274" width="22" height="1" fill="#000000"/><rect x="171" y="274" width="64" height="1" fill="#690C45"/><rect x="235" y="274" width="64" height="1" fill="#000000"/><rect x="299" y="274" width="64" height="1" fill="#690C45"/><rect x="363" y="274" width="21" height="1" fill="#000000"/><rect x="149" y="275" width="22" height="1" fill="#000000"/><rect x="171" y="275" width="64" height="1" fill="#690C45"/><rect x="235" y="275" width="64" height="1" fill="#000000"/><rect x="299" y="275" width="64" height="1" fill="#690C45"/><rect x="363" y="275" width="21" height="1" fill="#000000"/><rect x="149" y="276" width="22" height="1" fill="#000000"/><rect x="171" y="276" width="64" height="1" fill="#690C45"/><rect x="235" y="276" width="64" height="1" fill="#000000"/><rect x="299" y="276" width="64" height="1" fill="#690C45"/><rect x="363" y="276" width="21" height="1" fill="#000000"/><rect x="128" y="277" width="43" height="1" fill="#000000"/><rect x="171" y="277" width="64" height="1" fill="#8C0D5B"/><rect x="235" y="277" width="21" height="1" fill="#000000"/><rect x="277" y="277" width="22" height="1" fill="#000000"/><rect x="299" y="277" width="64" height="1" fill="#8C0D5B"/><rect x="363" y="277" width="21" height="1" fill="#000000"/><rect x="128" y="278" width="43" height="1" fill="#000000"/><rect x="171" y="278" width="64" height="1" fill="#8C0D5B"/><rect x="235" y="278" width="21" height="1" fill="#000000"/><rect x="277" y="278" width="22" height="1" fill="#000000"/><rect x="299" y="278" width="64" height="1" fill="#8C0D5B"/><rect x="363" y="278" width="21" height="1" fill="#000000"/><rect x="128" y="279" width="43" height="1" fill="#000000"/><rect x="171" y="279" width="64" height="1" fill="#8C0D5B"/><rect x="235" y="279" width="21" height="1" fill="#000000"/><rect x="277" y="279" width="22" height="1" fill="#000000"/><rect x="299" y="279" width="64" height="1" fill="#8C0D5B"/><rect x="363" y="279" width="21" height="1" fill="#000000"/><rect x="128" y="280" width="43" height="1" fill="#000000"/><rect x="171" y="280" width="64" height="1" fill="#8C0D5B"/><rect x="235" y="280" width="21" height="1" fill="#000000"/><rect x="277" y="280" width="22" height="1" fill="#000000"/><rect x="299" y="280" width="64" height="1" fill="#8C0D5B"/><rect x="363" y="280" width="21" height="1" fill="#000000"/><rect x="128" y="281" width="43" height="1" fill="#000000"/><rect x="171" y="281" width="64" height="1" fill="#8C0D5B"/><rect x="235" y="281" width="21" height="1" fill="#000000"/><rect x="277" y="281" width="22" height="1" fill="#000000"/><rect x="299" y="281" width="64" height="1" fill="#8C0D5B"/><rect x="363" y="281" width="21" height="1" fill="#000000"/><rect x="128" y="282" width="43" height="1" fill="#000000"/><rect x="171" y="282" width="64" height="1" fill="#8C0D5B"/><rect x="235" y="282" width="21" height="1" fill="#000000"/><rect x="277" y="282" width="22" height="1" fill="#000000"/><rect x="299" y="282" width="64" height="1" fill="#8C0D5B"/><rect x="363" y="282" width="21" height="1" fill="#000000"/><rect x="128" y="283" width="43" height="1" fill="#000000"/><rect x="171" y="283" width="64" height="1" fill="#8C0D5B"/><rect x="235" y="283" width="21" height="1" fill="#000000"/><rect x="277" y="283" width="22" height="1" fill="#000000"/><rect x="299" y="283" width="64" height="1" fill="#8C0D5B"/><rect x="363" y="283" width="21" height="1" fill="#000000"/><rect x="128" y="284" width="43" height="1" fill="#000000"/><rect x="171" y="284" width="64" height="1" fill="#8C0D5B"/><rect x="235" y="284" width="21" height="1" fill="#000000"/><rect x="277" y="284" width="22" height="1" fill="#000000"/><rect x="299" y="284" width="64" height="1" fill="#8C0D5B"/><rect x="363" y="284" width="21" height="1" fill="#000000"/><rect x="128" y="285" width="43" height="1" fill="#000000"/><rect x="171" y="285" width="64" height="1" fill="#8C0D5B"/><rect x="235" y="285" width="21" height="1" fill="#000000"/><rect x="277" y="285" width="22" height="1" fill="#000000"/><rect x="299" y="285" width="64" height="1" fill="#8C0D5B"/><rect x="363" y="285" width="21" height="1" fill="#000000"/><rect x="128" y="286" width="43" height="1" fill="#000000"/><rect x="171" y="286" width="64" height="1" fill="#8C0D5B"/><rect x="235" y="286" width="21" height="1" fill="#000000"/><rect x="277" y="286" width="22" height="1" fill="#000000"/><rect x="299" y="286" width="64" height="1" fill="#8C0D5B"/><rect x="363" y="286" width="21" height="1" fill="#000000"/><rect x="128" y="287" width="43" height="1" fill="#000000"/><rect x="171" y="287" width="64" height="1" fill="#8C0D5B"/><rect x="235" y="287" width="21" height="1" fill="#000000"/><rect x="277" y="287" width="22" height="1" fill="#000000"/><rect x="299" y="287" width="64" height="1" fill="#8C0D5B"/><rect x="363" y="287" width="21" height="1" fill="#000000"/><rect x="128" y="288" width="43" height="1" fill="#000000"/><rect x="171" y="288" width="64" height="1" fill="#8C0D5B"/><rect x="235" y="288" width="21" height="1" fill="#000000"/><rect x="277" y="288" width="22" height="1" fill="#000000"/><rect x="299" y="288" width="64" height="1" fill="#8C0D5B"/><rect x="363" y="288" width="21" height="1" fill="#000000"/><rect x="128" y="289" width="43" height="1" fill="#000000"/><rect x="171" y="289" width="64" height="1" fill="#8C0D5B"/><rect x="235" y="289" width="21" height="1" fill="#000000"/><rect x="277" y="289" width="22" height="1" fill="#000000"/><rect x="299" y="289" width="64" height="1" fill="#8C0D5B"/><rect x="363" y="289" width="21" height="1" fill="#000000"/><rect x="128" y="290" width="43" height="1" fill="#000000"/><rect x="171" y="290" width="64" height="1" fill="#8C0D5B"/><rect x="235" y="290" width="21" height="1" fill="#000000"/><rect x="277" y="290" width="22" height="1" fill="#000000"/><rect x="299" y="290" width="64" height="1" fill="#8C0D5B"/><rect x="363" y="290" width="21" height="1" fill="#000000"/><rect x="128" y="291" width="43" height="1" fill="#000000"/><rect x="171" y="291" width="64" height="1" fill="#8C0D5B"/><rect x="235" y="291" width="21" height="1" fill="#000000"/><rect x="277" y="291" width="22" height="1" fill="#000000"/><rect x="299" y="291" width="64" height="1" fill="#8C0D5B"/><rect x="363" y="291" width="21" height="1" fill="#000000"/><rect x="128" y="292" width="43" height="1" fill="#000000"/><rect x="171" y="292" width="64" height="1" fill="#8C0D5B"/><rect x="235" y="292" width="21" height="1" fill="#000000"/><rect x="277" y="292" width="22" height="1" fill="#000000"/><rect x="299" y="292" width="64" height="1" fill="#8C0D5B"/><rect x="363" y="292" width="21" height="1" fill="#000000"/><rect x="128" y="293" width="43" height="1" fill="#000000"/><rect x="171" y="293" width="64" height="1" fill="#8C0D5B"/><rect x="235" y="293" width="21" height="1" fill="#000000"/><rect x="277" y="293" width="22" height="1" fill="#000000"/><rect x="299" y="293" width="64" height="1" fill="#8C0D5B"/><rect x="363" y="293" width="21" height="1" fill="#000000"/><rect x="128" y="294" width="43" height="1" fill="#000000"/><rect x="171" y="294" width="64" height="1" fill="#8C0D5B"/><rect x="235" y="294" width="21" height="1" fill="#000000"/><rect x="277" y="294" width="22" height="1" fill="#000000"/><rect x="299" y="294" width="64" height="1" fill="#8C0D5B"/><rect x="363" y="294" width="21" height="1" fill="#000000"/><rect x="128" y="295" width="43" height="1" fill="#000000"/><rect x="171" y="295" width="64" height="1" fill="#8C0D5B"/><rect x="235" y="295" width="21" height="1" fill="#000000"/><rect x="277" y="295" width="22" height="1" fill="#000000"/><rect x="299" y="295" width="64" height="1" fill="#8C0D5B"/><rect x="363" y="295" width="21" height="1" fill="#000000"/><rect x="128" y="296" width="43" height="1" fill="#000000"/><rect x="171" y="296" width="64" height="1" fill="#8C0D5B"/><rect x="235" y="296" width="21" height="1" fill="#000000"/><rect x="277" y="296" width="22" height="1" fill="#000000"/><rect x="299" y="296" width="64" height="1" fill="#8C0D5B"/><rect x="363" y="296" width="21" height="1" fill="#000000"/><rect x="128" y="297" width="43" height="1" fill="#000000"/><rect x="171" y="297" width="64" height="1" fill="#8C0D5B"/><rect x="235" y="297" width="21" height="1" fill="#000000"/><rect x="277" y="297" width="22" height="1" fill="#000000"/><rect x="299" y="297" width="64" height="1" fill="#8C0D5B"/><rect x="363" y="297" width="21" height="1" fill="#000000"/><rect x="128" y="298" width="43" height="1" fill="#000000"/><rect x="171" y="298" width="64" height="1" fill="#8C0D5B"/><rect x="235" y="298" width="21" height="1" fill="#000000"/><rect x="277" y="298" width="22" height="1" fill="#000000"/><rect x="299" y="298" width="64" height="1" fill="#8C0D5B"/><rect x="363" y="298" width="21" height="1" fill="#000000"/><rect x="149" y="299" width="22" height="1" fill="#000000"/><rect x="171" y="299" width="64" height="1" fill="#AD2160"/><rect x="235" y="299" width="21" height="1" fill="#000000"/><rect x="277" y="299" width="22" height="1" fill="#000000"/><rect x="299" y="299" width="64" height="1" fill="#AD2160"/><rect x="363" y="299" width="21" height="1" fill="#000000"/><rect x="149" y="300" width="22" height="1" fill="#000000"/><rect x="171" y="300" width="64" height="1" fill="#AD2160"/><rect x="235" y="300" width="21" height="1" fill="#000000"/><rect x="277" y="300" width="22" height="1" fill="#000000"/><rect x="299" y="300" width="64" height="1" fill="#AD2160"/><rect x="363" y="300" width="21" height="1" fill="#000000"/><rect x="149" y="301" width="22" height="1" fill="#000000"/><rect x="171" y="301" width="64" height="1" fill="#AD2160"/><rect x="235" y="301" width="21" height="1" fill="#000000"/><rect x="277" y="301" width="22" height="1" fill="#000000"/><rect x="299" y="301" width="64" height="1" fill="#AD2160"/><rect x="363" y="301" width="21" height="1" fill="#000000"/><rect x="149" y="302" width="22" height="1" fill="#000000"/><rect x="171" y="302" width="64" height="1" fill="#AD2160"/><rect x="235" y="302" width="21" height="1" fill="#000000"/><rect x="277" y="302" width="22" height="1" fill="#000000"/><rect x="299" y="302" width="64" height="1" fill="#AD2160"/><rect x="363" y="302" width="21" height="1" fill="#000000"/><rect x="149" y="303" width="22" height="1" fill="#000000"/><rect x="171" y="303" width="64" height="1" fill="#AD2160"/><rect x="235" y="303" width="21" height="1" fill="#000000"/><rect x="277" y="303" width="22" height="1" fill="#000000"/><rect x="299" y="303" width="64" height="1" fill="#AD2160"/><rect x="363" y="303" width="21" height="1" fill="#000000"/><rect x="149" y="304" width="22" height="1" fill="#000000"/><rect x="171" y="304" width="64" height="1" fill="#AD2160"/><rect x="235" y="304" width="21" height="1" fill="#000000"/><rect x="277" y="304" width="22" height="1" fill="#000000"/><rect x="299" y="304" width="64" height="1" fill="#AD2160"/><rect x="363" y="304" width="21" height="1" fill="#000000"/><rect x="149" y="305" width="22" height="1" fill="#000000"/><rect x="171" y="305" width="64" height="1" fill="#AD2160"/><rect x="235" y="305" width="21" height="1" fill="#000000"/><rect x="277" y="305" width="22" height="1" fill="#000000"/><rect x="299" y="305" width="64" height="1" fill="#AD2160"/><rect x="363" y="305" width="21" height="1" fill="#000000"/><rect x="149" y="306" width="22" height="1" fill="#000000"/><rect x="171" y="306" width="64" height="1" fill="#AD2160"/><rect x="235" y="306" width="21" height="1" fill="#000000"/><rect x="277" y="306" width="22" height="1" fill="#000000"/><rect x="299" y="306" width="64" height="1" fill="#AD2160"/><rect x="363" y="306" width="21" height="1" fill="#000000"/><rect x="149" y="307" width="22" height="1" fill="#000000"/><rect x="171" y="307" width="64" height="1" fill="#AD2160"/><rect x="235" y="307" width="21" height="1" fill="#000000"/><rect x="277" y="307" width="22" height="1" fill="#000000"/><rect x="299" y="307" width="64" height="1" fill="#AD2160"/><rect x="363" y="307" width="21" height="1" fill="#000000"/><rect x="149" y="308" width="22" height="1" fill="#000000"/><rect x="171" y="308" width="64" height="1" fill="#AD2160"/><rect x="235" y="308" width="21" height="1" fill="#000000"/><rect x="277" y="308" width="22" height="1" fill="#000000"/><rect x="299" y="308" width="64" height="1" fill="#AD2160"/><rect x="363" y="308" width="21" height="1" fill="#000000"/><rect x="149" y="309" width="22" height="1" fill="#000000"/><rect x="171" y="309" width="64" height="1" fill="#AD2160"/><rect x="235" y="309" width="21" height="1" fill="#000000"/><rect x="277" y="309" width="22" height="1" fill="#000000"/><rect x="299" y="309" width="64" height="1" fill="#AD2160"/><rect x="363" y="309" width="21" height="1" fill="#000000"/><rect x="149" y="310" width="22" height="1" fill="#000000"/><rect x="171" y="310" width="64" height="1" fill="#AD2160"/><rect x="235" y="310" width="21" height="1" fill="#000000"/><rect x="277" y="310" width="22" height="1" fill="#000000"/><rect x="299" y="310" width="64" height="1" fill="#AD2160"/><rect x="363" y="310" width="21" height="1" fill="#000000"/><rect x="149" y="311" width="22" height="1" fill="#000000"/><rect x="171" y="311" width="64" height="1" fill="#AD2160"/><rect x="235" y="311" width="21" height="1" fill="#000000"/><rect x="277" y="311" width="22" height="1" fill="#000000"/><rect x="299" y="311" width="64" height="1" fill="#AD2160"/><rect x="363" y="311" width="21" height="1" fill="#000000"/><rect x="149" y="312" width="22" height="1" fill="#000000"/><rect x="171" y="312" width="64" height="1" fill="#AD2160"/><rect x="235" y="312" width="21" height="1" fill="#000000"/><rect x="277" y="312" width="22" height="1" fill="#000000"/><rect x="299" y="312" width="64" height="1" fill="#AD2160"/><rect x="363" y="312" width="21" height="1" fill="#000000"/><rect x="149" y="313" width="22" height="1" fill="#000000"/><rect x="171" y="313" width="64" height="1" fill="#AD2160"/><rect x="235" y="313" width="21" height="1" fill="#000000"/><rect x="277" y="313" width="22" height="1" fill="#000000"/><rect x="299" y="313" width="64" height="1" fill="#AD2160"/><rect x="363" y="313" width="21" height="1" fill="#000000"/><rect x="149" y="314" width="22" height="1" fill="#000000"/><rect x="171" y="314" width="64" height="1" fill="#AD2160"/><rect x="235" y="314" width="21" height="1" fill="#000000"/><rect x="277" y="314" width="22" height="1" fill="#000000"/><rect x="299" y="314" width="64" height="1" fill="#AD2160"/><rect x="363" y="314" width="21" height="1" fill="#000000"/><rect x="149" y="315" width="22" height="1" fill="#000000"/><rect x="171" y="315" width="64" height="1" fill="#AD2160"/><rect x="235" y="315" width="21" height="1" fill="#000000"/><rect x="277" y="315" width="22" height="1" fill="#000000"/><rect x="299" y="315" width="64" height="1" fill="#AD2160"/><rect x="363" y="315" width="21" height="1" fill="#000000"/><rect x="149" y="316" width="22" height="1" fill="#000000"/><rect x="171" y="316" width="64" height="1" fill="#AD2160"/><rect x="235" y="316" width="21" height="1" fill="#000000"/><rect x="277" y="316" width="22" height="1" fill="#000000"/><rect x="299" y="316" width="64" height="1" fill="#AD2160"/><rect x="363" y="316" width="21" height="1" fill="#000000"/><rect x="149" y="317" width="22" height="1" fill="#000000"/><rect x="171" y="317" width="64" height="1" fill="#AD2160"/><rect x="235" y="317" width="21" height="1" fill="#000000"/><rect x="277" y="317" width="22" height="1" fill="#000000"/><rect x="299" y="317" width="64" height="1" fill="#AD2160"/><rect x="363" y="317" width="21" height="1" fill="#000000"/><rect x="149" y="318" width="22" height="1" fill="#000000"/><rect x="171" y="318" width="64" height="1" fill="#AD2160"/><rect x="235" y="318" width="21" height="1" fill="#000000"/><rect x="277" y="318" width="22" height="1" fill="#000000"/><rect x="299" y="318" width="64" height="1" fill="#AD2160"/><rect x="363" y="318" width="21" height="1" fill="#000000"/><rect x="149" y="319" width="22" height="1" fill="#000000"/><rect x="171" y="319" width="64" height="1" fill="#AD2160"/><rect x="235" y="319" width="21" height="1" fill="#000000"/><rect x="277" y="319" width="22" height="1" fill="#000000"/><rect x="299" y="319" width="64" height="1" fill="#AD2160"/><rect x="363" y="319" width="21" height="1" fill="#000000"/><rect x="171" y="320" width="64" height="1" fill="#000000"/><rect x="299" y="320" width="64" height="1" fill="#000000"/><rect x="171" y="321" width="64" height="1" fill="#000000"/><rect x="299" y="321" width="64" height="1" fill="#000000"/><rect x="171" y="322" width="64" height="1" fill="#000000"/><rect x="299" y="322" width="64" height="1" fill="#000000"/><rect x="171" y="323" width="64" height="1" fill="#000000"/><rect x="299" y="323" width="64" height="1" fill="#000000"/><rect x="171" y="324" width="64" height="1" fill="#000000"/><rect x="299" y="324" width="64" height="1" fill="#000000"/><rect x="171" y="325" width="64" height="1" fill="#000000"/><rect x="299" y="325" width="64" height="1" fill="#000000"/><rect x="171" y="326" width="64" height="1" fill="#000000"/><rect x="299" y="326" width="64" height="1" fill="#000000"/><rect x="171" y="327" width="64" height="1" fill="#000000"/><rect x="299" y="327" width="64" height="1" fill="#000000"/><rect x="171" y="328" width="64" height="1" fill="#000000"/><rect x="299" y="328" width="64" height="1" fill="#000000"/><rect x="171" y="329" width="64" height="1" fill="#000000"/><rect x="299" y="329" width="64" height="1" fill="#000000"/><rect x="171" y="330" width="64" height="1" fill="#000000"/><rect x="299" y="330" width="64" height="1" fill="#000000"/><rect x="171" y="331" width="64" height="1" fill="#000000"/><rect x="299" y="331" width="64" height="1" fill="#000000"/><rect x="171" y="332" width="64" height="1" fill="#000000"/><rect x="299" y="332" width="64" height="1" fill="#000000"/><rect x="171" y="333" width="64" height="1" fill="#000000"/><rect x="299" y="333" width="64" height="1" fill="#000000"/><rect x="171" y="334" width="64" height="1" fill="#000000"/><rect x="299" y="334" width="64" height="1" fill="#000000"/><rect x="171" y="335" width="64" height="1" fill="#000000"/><rect x="299" y="335" width="64" height="1" fill="#000000"/><rect x="171" y="336" width="64" height="1" fill="#000000"/><rect x="299" y="336" width="64" height="1" fill="#000000"/><rect x="171" y="337" width="64" height="1" fill="#000000"/><rect x="299" y="337" width="64" height="1" fill="#000000"/><rect x="171" y="338" width="64" height="1" fill="#000000"/><rect x="299" y="338" width="64" height="1" fill="#000000"/><rect x="171" y="339" width="64" height="1" fill="#000000"/><rect x="299" y="339" width="64" height="1" fill="#000000"/><rect x="171" y="340" width="64" height="1" fill="#000000"/><rect x="299" y="340" width="64" height="1" fill="#000000"/></svg>