<svg xmlns="http://www.w3.org/2000/svg" viewBox="0 0 512 512" width="512" height="512" shape-rendering="crispEdges"><rect x="192" y="107" width="149" height="1" fill="#8119B7"/><rect x="192" y="108" width="149" height="1" fill="#8119B7"/><rect x="192" y="109" width="149" height="1" fill="#8119B7"/><rect x="192" y="110" width="149" height="1" fill="#8119B7"/><rect x="192" y="111" width="149" height="1" fill="#8119B7"/><rect x="192" y="112" width="149" height="1" fill="#8119B7"/><rect x="192" y="113" width="149" height="1" fill="#8119B7"/><rect x="192" y="114" width="149" height="1" fill="#8119B7"/><rect x="192" y="115" width="149" height="1" fill="#8119B7"/><rect x="192" y="116" width="149" height="1" fill="#8119B7"/><rect x="192" y="117" width="149" height="1" fill="#8119B7"/><rect x="192" y="118" width="149" height="1" fill="#8119B7"/><rect x="192" y="119" width="149" height="1" fill="#8119B7"/><rect x="192" y="120" width="149" height="1" fill="#8119B7"/><rect x="192" y="121" width="149" height="1" fill="#8119B7"/><rect x="192" y="122" width="149" height="1" fill="#8119B7"/><rect x="192" y="123" width="149" height="1" fill="#8119B7"/><rect x="192" y="124" width="149" height="1" fill="#8119B7"/><rect x="192" y="125" width="149" height="1" fill="#8119B7"/><rect x="192" y="126" width="149" height="1" fill="#8119B7"/><rect x="192" y="127" width="149" height="1" fill="#8119B7"/><rect x="171" y="128" width="128" height="1" fill="#8119B7"/><rect x="299" y="128" width="21" height="1" fill="#B261DC"/><rect x="320" y="128" width="43" height="1" fill="#8119B7"/><rect x="171" y="129" width="128" height="1" fill="#8119B7"/><rect x="299" y="129" width="21" height="1" fill="#B261DC"/><rect x="320" y="129" width="43" height="1" fill="#8119B7"/><rect x="171" y="130" width="128" height="1" fill="#8119B7"/><rect x="299" y="130" width="21" height="1" fill="#B261DC"/><rect x="320" y="130" width="43" height="1" fill="#8119B7"/><rect x="171" y="131" width="128" height="1" fill="#8119B7"/><rect x="299" y="131" width="21" height="1" fill="#B261DC"/><rect x="320" y="131" width="43" height="1" fill="#8119B7"/><rect x="171" y="132" width="128" height="1" fill="#8119B7"/><rect x="299" y="132" width="21" height="1" fill="#B261DC"/><rect x="320" y="132" width="43" height="1" fill="#8119B7"/><rect x="171" y="133" width="128" height="1" fill="#8119B7"/><rect x="299" y="133" width="21" height="1" fill="#B261DC"/><rect x="320" y="133" width="43" height="1" fill="#8119B7"/><rect x="171" y="134" width="128" height="1" fill="#8119B7"/><rect x="299" y="134" width="21" height="1" fill="#B261DC"/><rect x="320" y="134" width="43" height="1" fill="#8119B7"/><rect x="171" y="135" width="128" height="1" fill="#8119B7"/><rect x="299" y="135" width="21" height="1" fill="#B261DC"/><rect x="320" y="135" width="43" height="1" fill="#8119B7"/><rect x="171" y="136" width="128" height="1" fill="#8119B7"/><rect x="299" y="136" width="21" height="1" fill="#B261DC"/><rect x="320" y="136" width="43" height="1" fill="#8119B7"/><rect x="171" y="137" width="128" height="1" fill="#8119B7"/><rect x="299" y="137" width="21" height="1" fill="#B261DC"/><rect x="320" y="137" width="43" height="1" fill="#8119B7"/><rect x="171" y="138" width="128" height="1" fill="#8119B7"/><rect x="299" y="138" width="21" height="1" fill="#B261DC"/><rect x="320" y="138" width="43" height="1" fill="#8119B7"/><rect x="171" y="139" width="128" height="1" fill="#8119B7"/><rect x="299" y="139" width="21" height="1" fill="#B261DC"/><rect x="320" y="139" width="43" height="1" fill="#8119B7"/><rect x="171" y="140" width="128" height="1" fill="#8119B7"/><rect x="299" y="140" width="21" height="1" fill="#B261DC"/><rect x="320" y="140" width="43" height="1" fill="#8119B7"/><rect x="171" y="141" width="128" height="1" fill="#8119B7"/><rect x="299" y="141" width="21" height="1" fill="#B261DC"/><rect x="320" y="141" width="43" height="1" fill="#8119B7"/><rect x="171" y="142" width="128" height="1" fill="#8119B7"/><rect x="299" y="142" width="21" height="1" fill="#B261DC"/><rect x="320" y="142" width="43" height="1" fill="#8119B7"/><rect x="171" y="143" width="128" height="1" fill="#8119B7"/><rect x="299" y="143" width="21" height="1" fill="#B261DC"/><rect x="320" y="143" width="43" height="1" fill="#8119B7"/><rect x="171" y="144" width="128" height="1" fill="#8119B7"/><rect x="299" y="144" width="21" height="1" fill="#B261DC"/><rect x="320" y="144" width="43" height="1" fill="#8119B7"/><rect x="171" y="145" width="128" height="1" fill="#8119B7"/><rect x="299" y="145" width="21" height="1" fill="#B261DC"/><rect x="320" y="145" width="43" height="1" fill="#8119B7"/><rect x="171" y="146" width="128" height="1" fill="#8119B7"/><rect x="299" y="146" width="21" height="1" fill="#B261DC"/><rect x="320" y="146" width="43" height="1" fill="#8119B7"/><rect x="171" y="147" width="128" height="1" fill="#8119B7"/><rect x="299" y="147" width="21" height="1" fill="#B261DC"/><rect x="320" y="147" width="43" height="1" fill="#8119B7"/><rect x="171" y="148" width="128" height="1" fill="#8119B7"/><rect x="299" y="148" width="21" height="1" fill="#B261DC"/><rect x="320" y="148" width="43" height="1" fill="#8119B7"/><rect x="149" y="149" width="171" height="1" fill="#8119B7"/><rect x="320" y="149" width="21" height="1" fill="#B261DC"/><rect x="341" y="149" width="22" height="1" fill="#8119B7"/><rect x="149" y="150" width="171" height="1" fill="#8119B7"/><rect x="320" y="150" width="21" height="1" fill="#B261DC"/><rect x="341" y="150" width="22" height="1" fill="#8119B7"/><rect x="149" y="151" width="171" height="1" fill="#8119B7"/><rect x="320" y="151" width="21" height="1" fill="#B261DC"/><rect x="341" y="151" width="22" height="1" fill="#8119B7"/><rect x="149" y="152" width="171" height="1" fill="#8119B7"/><rect x="320" y="152" width="21" height="1" fill="#B261DC"/><rect x="341" y="152" width="22" height="1" fill="#8119B7"/><rect x="149" y="153" width="171" height="1" fill="#8119B7"/><rect x="320" y="153" width="21" height="1" fill="#B261DC"/><rect x="341" y="153" width="22" height="1" fill="#8119B7"/><rect x="149" y="154" width="171" height="1" fill="#8119B7"/><rect x="320" y="154" width="21" height="1" fill="#B261DC"/><rect x="341" y="154" width="22" height="1" fill="#8119B7"/><rect x="149" y="155" width="171" height="1" fill="#8119B7"/><rect x="320" y="155" width="21" height="1" fill="#B261DC"/><rect x="341" y="155" width="22" height="1" fill="#8119B7"/><rect x="149" y="156" width="171" height="1" fill="#8119B7"/><rect x="320" y="156" width="21" height="1" fill="#B261DC"/><rect x="341" y="156" width="22" height="1" fill="#8119B7"/><rect x="149" y="157" width="171" height="1" fill="#8119B7"/><rect x="320" y="157" width="21" height="1" fill="#B261DC"/><rect x="341" y="157" width="22" height="1" fill="#8119B7"/><rect x="149" y="158" width="171" height="1" fill="#8119B7"/><rect x="320" y="158" width="21" height="1" fill="#B261DC"/><rect x="341" y="158" width="22" height="1" fill="#8119B7"/><rect x="149" y="159" width="171" height="1" fill="#8119B7"/><rect x="320" y="159" width="21" height="1" fill="#B261DC"/><rect x="341" y="159" width="22" height="1" fill="#8119B7"/><rect x="149" y="160" width="171" height="1" fill="#8119B7"/><rect x="320" y="160" width="21" height="1" fill="#B261DC"/><rect x="341" y="160" width="22" height="1" fill="#8119B7"/><rect x="149" y="161" width="171" height="1" fill="#8119B7"/><rect x="320" y="161" width="21" height="1" fill="#B261DC"/><rect x="341" y="161" width="22" height="1" fill="#8119B7"/><rect x="149" y="162" width="171" height="1" fill="#8119B7"/><rect x="320" y="162" width="21" height="1" fill="#B261DC"/><rect x="341" y="162" width="22" height="1" fill="#8119B7"/><rect x="149" y="163" width="171" height="1" fill="#8119B7"/><rect x="320" y="163" width="21" height="1" fill="#B261DC"/><rect x="341" y="163" width="22" height="1" fill="#8119B7"/><rect x="149" y="164" width="171" height="1" fill="#8119B7"/><rect x="320" y="164" width="21" height="1" fill="#B261DC"/><rect x="341" y="164" width="22" height="1" fill="#8119B7"/><rect x="149" y="165" width="171" height="1" fill="#8119B7"/><rect x="320" y="165" width="21" height="1" fill="#B261DC"/><rect x="341" y="165" width="22" height="1" fill="#8119B7"/><rect x="149" y="166" width="171" height="1" fill="#8119B7"/><rect x="320" y="166" width="21" height="1" fill="#B261DC"/><rect x="341" y="166" width="22" height="1" fill="#8119B7"/><rect x="149" y="167" width="171" height="1" fill="#8119B7"/><rect x="320" y="167" width="21" height="1" fill="#B261DC"/><rect x="341" y="167" width="22" height="1" fill="#8119B7"/><rect x="149" y="168" width="171" height="1" fill="#8119B7"/><rect x="320" y="168" width="21" height="1" fill="#B261DC"/><rect x="341" y="168" width="22" height="1" fill="#8119B7"/><rect x="149" y="169" width="171" height="1" fill="#8119B7"/><rect x="320" y="169" width="21" height="1" fill="#B261DC"/><rect x="341" y="169" width="22" height="1" fill="#8119B7"/><rect x="149" y="170" width="171" height="1" fill="#8119B7"/><rect x="320" y="170" width="21" height="1" fill="#B261DC"/><rect x="341" y="170" width="22" height="1" fill="#8119B7"/><rect x="149" y="171" width="278" height="1" fill="#8119B7"/><rect x="149" y="172" width="278" height="1" fill="#8119B7"/><rect x="149" y="173" width="278" height="1" fill="#8119B7"/><rect x="149" y="174" width="278" height="1" fill="#8119B7"/><rect x="149" y="175" width="278" height="1" fill="#8119B7"/><rect x="149" y="176" width="278" height="1" fill="#8119B7"/><rect x="149" y="177" width="278" height="1" fill="#8119B7"/><rect x="149" y="178" width="278" height="1" fill="#8119B7"/><rect x="149" y="179" width="278" height="1" fill="#8119B7"/><rect x="149" y="180" width="278" height="1" fill="#8119B7"/><rect x="149" y="181" width="278" height="1" fill="#8119B7"/><rect x="149" y="182" width="278" height="1" fill="#8119B7"/><rect x="149" y="183" width="278" height="1" fill="#8119B7"/><rect x="149" y="184" width="278" height="1" fill="#8119B7"/><rect x="149" y="185" width="278" height="1" fill="#8119B7"/><rect x="149" y="186" width="278" height="1" fill="#8119B7"/><rect x="149" y="187" width="278" height="1" fill="#8119B7"/><rect x="149" y="188" width="278" height="1" fill="#8119B7"/><rect x="149" y="189" width="278" height="1" fill="#8119B7"/><rect x="149" y="190" width="278" height="1" fill="#8119B7"/><rect x="149" y="191" width="278" height="1" fill="#8119B7"/><rect x="149" y="192" width="299" height="1" fill="#8119B7"/><rect x="149" y="193" width="299" height="1" fill="#8119B7"/><rect x="149" y="194" width="299" height="1" fill="#8119B7"/><rect x="149" y="195" width="299" height="1" fill="#8119B7"/><rect x="149" y="196" width="299" height="1" fill="#8119B7"/><rect x="149" y="197" width="299" height="1" fill="#8119B7"/><rect x="149" y="198" width="299" height="1" fill="#8119B7"/><rect x="149" y="199" width="299" height="1" fill="#8119B7"/><rect x="149" y="200" width="299" height="1" fill="#8119B7"/><rect x="149" y="201" width="299" height="1" fill="#8119B7"/><rect x="149" y="202" width="299" height="1" fill="#8119B7"/><rect x="149" y="203" width="299" height="1" fill="#8119B7"/><rect x="149" y="204" width="299" height="1" fill="#8119B7"/><rect x="149" y="205" width="299" height="1" fill="#8119B7"/><rect x="149" y="206" width="299" height="1" fill="#8119B7"/><rect x="149" y="207" width="299" height="1" fill="#8119B7"/><rect x="149" y="208" width="299" height="1" fill="#8119B7"/><rect x="149" y="209" width="299" height="1" fill="#8119B7"/><rect x="149" y="210" width="299" height="1" fill="#8119B7"/><rect x="149" y="211" width="299" height="1" fill="#8119B7"/><rect x="149" y="212" width="299" height="1" fill="#8119B7"/></svg>