<svg xmlns="http://www.w3.org/2000/svg" viewBox="0 0 512 512" width="512" height="512" shape-rendering="crispEdges"><rect x="149" y="235" width="214" height="1" fill="#000000"/><rect x="149" y="236" width="214" height="1" fill="#000000"/><rect x="149" y="237" width="214" height="1" fill="#000000"/><rect x="149" y="238" width="214" height="1" fill="#000000"/><rect x="149" y="239" width="214" height="1" fill="#000000"/><rect x="149" y="240" width="214" height="1" fill="#000000"/><rect x="149" y="241" width="214" height="1" fill="#000000"/><rect x="149" y="242" width="214" height="1" fill="#000000"/><rect x="149" y="243" width="214" height="1" fill="#000000"/><rect x="149" y="244" width="214" height="1" fill="#000000"/><rect x="149" y="245" width="214" height="1" fill="#000000"/><rect x="149" y="246" width="214" height="1" fill="#000000"/><rect x="149" y="247" width="214" height="1" fill="#000000"/><rect x="149" y="248" width="214" height="1" fill="#000000"/><rect x="149" y="249" width="214" height="1" fill="#000000"/><rect x="149" y="250" width="214" height="1" fill="#000000"/><rect x="149" y="251" width="214" height="1" fill="#000000"/><rect x="149" y="252" width="214" height="1" fill="#000000"/><rect x="149" y="253" width="214" height="1" fill="#000000"/><rect x="149" y="254" width="214" height="1" fill="#000000"/><rect x="149" y="255" width="214" height="1" fill="#000000"/><rect x="171" y="256" width="21" height="1" fill="#000000"/><rect x="192" y="256" width="43" height="1" fill="#5C390F"/><rect x="235" y="256" width="21" height="1" fill="#000000"/><rect x="277" y="256" width="22" height="1" fill="#000000"/><rect x="299" y="256" width="42" height="1" fill="#5C390F"/><rect x="341" y="256" width="22" height="1" fill="#000000"/><rect x="171" y="257" width="21" height="1" fill="#000000"/><rect x="192" y="257" width="43" height="1" fill="#5C390F"/><rect x="235" y="257" width="21" height="1" fill="#000000"/><rect x="277" y="257" width="22" height="1" fill="#000000"/><rect x="299" y="257" width="42" height="1" fill="#5C390F"/><rect x="341" y="257" width="22" height="1" fill="#000000"/><rect x="171" y="258" width="21" height="1" fill="#000000"/><rect x="192" y="258" width="43" height="1" fill="#5C390F"/><rect x="235" y="258" width="21" height="1" fill="#000000"/><rect x="277" y="258" width="22" height="1" fill="#000000"/><rect x="299" y="258" width="42" height="1" fill="#5C390F"/><rect x="341" y="258" width="22" height="1" fill="#000000"/><rect x="171" y="259" width="21" height="1" fill="#000000"/><rect x="192" y="259" width="43" height="1" fill="#5C390F"/><rect x="235" y="259" width="21" height="1" fill="#000000"/><rect x="277" y="259" width="22" height="1" fill="#000000"/><rect x="299" y="259" width="42" height="1" fill="#5C390F"/><rect x="341" y="259" width="22" height="1" fill="#000000"/><rect x="171" y="260" width="21" height="1" fill="#000000"/><rect x="192" y="260" width="43" height="1" fill="#5C390F"/><rect x="235" y="260" width="21" height="1" fill="#000000"/><rect x="277" y="260" width="22" height="1" fill="#000000"/><rect x="299" y="260" width="42" height="1" fill="#5C390F"/><rect x="341" y="260" width="22" height="1" fill="#000000"/><rect x="171" y="261" width="21" height="1" fill="#000000"/><rect x="192" y="261" width="43" height="1" fill="#5C390F"/><rect x="235" y="261" width="21" height="1" fill="#000000"/><rect x="277" y="261" width="22" height="1" fill="#000000"/><rect x="299" y="261" width="42" height="1" fill="#5C390F"/><rect x="341" y="261" width="22" height="1" fill="#000000"/><rect x="171" y="262" width="21" height="1" fill="#000000"/><rect x="192" y="262" width="43" height="1" fill="#5C390F"/><rect x="235" y="262" width="21" height="1" fill="#000000"/><rect x="277" y="262" width="22" height="1" fill="#000000"/><rect x="299" y="262" width="42" height="1" fill="#5C390F"/><rect x="341" y="262" width="22" height="1" fill="#000000"/><rect x="171" y="263" width="21" height="1" fill="#000000"/><rect x="192" y="263" width="43" height="1" fill="#5C390F"/><rect x="235" y="263" width="21" height="1" fill="#000000"/><rect x="277" y="263" width="22" height="1" fill="#000000"/><rect x="299" y="263" width="42" height="1" fill="#5C390F"/><rect x="341" y="263" width="22" height="1" fill="#000000"/><rect x="171" y="264" width="21" height="1" fill="#000000"/><rect x="192" y="264" width="43" height="1" fill="#5C390F"/><rect x="235" y="264" width="21" height="1" fill="#000000"/><rect x="277" y="264" width="22" height="1" fill="#000000"/><rect x="299" y="264" width="42" height="1" fill="#5C390F"/><rect x="341" y="264" width="22" height="1" fill="#000000"/><rect x="171" y="265" width="21" height="1" fill="#000000"/><rect x="192" y="265" width="43" height="1" fill="#5C390F"/><rect x="235" y="265" width="21" height="1" fill="#000000"/><rect x="277" y="265" width="22" height="1" fill="#000000"/><rect x="299" y="265" width="42" height="1" fill="#5C390F"/><rect x="341" y="265" width="22" height="1" fill="#000000"/><rect x="171" y="266" width="21" height="1" fill="#000000"/><rect x="192" y="266" width="43" height="1" fill="#5C390F"/><rect x="235" y="266" width="21" height="1" fill="#000000"/><rect x="277" y="266" width="22" height="1" fill="#000000"/><rect x="299" y="266" width="42" height="1" fill="#5C390F"/><rect x="341" y="266" width="22" height="1" fill="#000000"/><rect x="171" y="267" width="21" height="1" fill="#000000"/><rect x="192" y="267" width="43" height="1" fill="#5C390F"/><rect x="235" y="267" width="21" height="1" fill="#000000"/><rect x="277" y="267" width="22" height="1" fill="#000000"/><rect x="299" y="267" width="42" height="1" fill="#5C390F"/><rect x="341" y="267" width="22" height="1" fill="#000000"/><rect x="171" y="268" width="21" height="1" fill="#000000"/><rect x="192" y="268" width="43" height="1" fill="#5C390F"/><rect x="235" y="268" width="21" height="1" fill="#000000"/><rect x="277" y="268" width="22" height="1" fill="#000000"/><rect x="299" y="268" width="42" height="1" fill="#5C390F"/><rect x="341" y="268" width="22" height="1" fill="#000000"/><rect x="171" y="269" width="21" height="1" fill="#000000"/><rect x="192" y="269" width="43" height="1" fill="#5C390F"/><rect x="235" y="269" width="21" height="1" fill="#000000"/><rect x="277" y="269" width="22" height="1" fill="#000000"/><rect x="299" y="269" width="42" height="1" fill="#5C390F"/><rect x="341" y="269" width="22" height="1" fill="#000000"/><rect x="171" y="270" width="21" height="1" fill="#000000"/><rect x="192" y="270" width="43" height="1" fill="#5C390F"/><rect x="235" y="270" width="21" height="1" fill="#000000"/><rect x="277" y="270" width="22" height="1" fill="#000000"/><rect x="299" y="270" width="42" height="1" fill="#5C390F"/><rect x="341" y="270" width="22" height="1" fill="#000000"/><rect x="171" y="271" width="21" height="1" fill="#000000"/><rect x="192" y="271" width="43" height="1" fill="#5C390F"/><rect x="235" y="271" width="21" height="1" fill="#000000"/><rect x="277" y="271" width="22" height="1" fill="#000000"/><rect x="299" y="271" width="42" height="1" fill="#5C390F"/><rect x="341" y="271" width="22" height="1" fill="#000000"/><rect x="171" y="272" width="21" height="1" fill="#000000"/><rect x="192" y="272" width="43" height="1" fill="#5C390F"/><rect x="235" y="272" width="21" height="1" fill="#000000"/><rect x="277" y="272" width="22" height="1" fill="#000000"/><rect x="299" y="272" width="42" height="1" fill="#5C390F"/><rect x="341" y="272" width="22" height="1" fill="#000000"/><rect x="171" y="273" width="21" height="1" fill="#000000"/><rect x="192" y="273" width="43" height="1" fill="#5C390F"/><rect x="235" y="273" width="21" height="1" fill="#000000"/><rect x="277" y="273" width="22" height="1" fill="#000000"/><rect x="299" y="273" width="42" height="1" fill="#5C390F"/><rect x="341" y="273" width="22" height="1" fill="#000000"/><rect x="171" y="274" width="21" height="1" fill="#000000"/><rect x="192" y="274" width="43" height="1" fill="#5C390F"/><rect x="235" y="274" width="21" height="1" fill="#000000"/><rect x="277" y="274" width="22" height="1" fill="#000000"/><rect x="299" y="274" width="42" height="1" fill="#5C390F"/><rect x="341" y="274" width="22" height="1" fill="#000000"/><rect x="171" y="275" width="21" height="1" fill="#000000"/><rect x="192" y="275" width="43" height="1" fill="#5C390F"/><rect x="235" y="275" width="21" height="1" fill="#000000"/><rect x="277" y="275" width="22" height="1" fill="#000000"/><rect x="299" y="275" width="42" height="1" fill="#5C390F"/><rect x="341" y="275" width="22" height="1" fill="#000000"/><rect x="171" y="276" width="21" height="1" fill="#000000"/><rect x="192" y="276" width="43" height="1" fill="#5C390F"/><rect x="235" y="276" width="21" height="1" fill="#000000"/><rect x="277" y="276" width="22" height="1" fill="#000000"/><rect x="299" y="276" width="42" height="1" fill="#5C390F"/><rect x="341" y="276" width="22" height="1" fill="#000000"/><rect x="171" y="277" width="21" height="1" fill="#000000"/><rect x="192" y="277" width="43" height="1" fill="#C77514"/><rect x="235" y="277" width="21" height="1" fill="#000000"/><rect x="277" y="277" width="22" height="1" fill="#000000"/><rect x="299" y="277" width="42" height="1" fill="#C77514"/><rect x="341" y="277" width="22" height="1" fill="#000000"/><rect x="171" y="278" width="21" height="1" fill="#000000"/><rect x="192" y="278" width="43" height="1" fill="#C77514"/><rect x="235" y="278" width="21" height="1" fill="#000000"/><rect x="277" y="278" width="22" height="1" fill="#000000"/><rect x="299" y="278" width="42" height="1" fill="#C77514"/><rect x="341" y="278" width="22" height="1" fill="#000000"/><rect x="171" y="279" width="21" height="1" fill="#000000"/><rect x="192" y="279" width="43" height="1" fill="#C77514"/><rect x="235" y="279" width="21" height="1" fill="#000000"/><rect x="277" y="279" width="22" height="1" fill="#000000"/><rect x="299" y="279" width="42" height="1" fill="#C77514"/><rect x="341" y="279" width="22" height="1" fill="#000000"/><rect x="171" y="280" width="21" height="1" fill="#000000"/><rect x="192" y="280" width="43" height="1" fill="#C77514"/><rect x="235" y="280" width="21" height="1" fill="#000000"/><rect x="277" y="280" width="22" height="1" fill="#000000"/><rect x="299" y="280" width="42" height="1" fill="#C77514"/><rect x="341" y="280" width="22" height="1" fill="#000000"/><rect x="171" y="281" width="21" height="1" fill="#000000"/><rect x="192" y="281" width="43" height="1" fill="#C77514"/><rect x="235" y="281" width="21" height="1" fill="#000000"/><rect x="277" y="281" width="22" height="1" fill="#000000"/><rect x="299" y="281" width="42" height="1" fill="#C77514"/><rect x="341" y="281" width="22" height="1" fill="#000000"/><rect x="171" y="282" width="21" height="1" fill="#000000"/><rect x="192" y="282" width="43" height="1" fill="#C77514"/><rect x="235" y="282" width="21" height="1" fill="#000000"/><rect x="277" y="282" width="22" height="1" fill="#000000"/><rect x="299" y="282" width="42" height="1" fill="#C77514"/><rect x="341" y="282" width="22" height="1" fill="#000000"/><rect x="171" y="283" width="21" height="1" fill="#000000"/><rect x="192" y="283" width="43" height="1" fill="#C77514"/><rect x="235" y="283" width="21" height="1" fill="#000000"/><rect x="277" y="283" width="22" height="1" fill="#000000"/><rect x="299" y="283" width="42" height="1" fill="#C77514"/><rect x="341" y="283" width="22" height="1" fill="#000000"/><rect x="171" y="284" width="21" height="1" fill="#000000"/><rect x="192" y="284" width="43" height="1" fill="#C77514"/><rect x="235" y="284" width="21" height="1" fill="#000000"/><rect x="277" y="284" width="22" height="1" fill="#000000"/><rect x="299" y="284" width="42" height="1" fill="#C77514"/><rect x="341" y="284" width="22" height="1" fill="#000000"/><rect x="171" y="285" width="21" height="1" fill="#000000"/><rect x="192" y="285" width="43" height="1" fill="#C77514"/><rect x="235" y="285" width="21" height="1" fill="#000000"/><rect x="277" y="285" width="22" height="1" fill="#000000"/><rect x="299" y="285" width="42" height="1" fill="#C77514"/><rect x="341" y="285" width="22" height="1" fill="#000000"/><rect x="171" y="286" width="21" height="1" fill="#000000"/><rect x="192" y="286" width="43" height="1" fill="#C77514"/><rect x="235" y="286" width="21" height="1" fill="#000000"/><rect x="277" y="286" width="22" height="1" fill="#000000"/><rect x="299" y="286" width="42" height="1" fill="#C77514"/><rect x="341" y="286" width="22" height="1" fill="#000000"/><rect x="171" y="287" width="21" height="1" fill="#000000"/><rect x="192" y="287" width="43" height="1" fill="#C77514"/><rect x="235" y="287" width="21" height="1" fill="#000000"/><rect x="277" y="287" width="22" height="1" fill="#000000"/><rect x="299" y="287" width="42" height="1" fill="#C77514"/><rect x="341" y="287" width="22" height="1" fill="#000000"/><rect x="171" y="288" width="21" height="1" fill="#000000"/><rect x="192" y="288" width="43" height="1" fill="#C77514"/><rect x="235" y="288" width="21" height="1" fill="#000000"/><rect x="277" y="288" width="22" height="1" fill="#000000"/><rect x="299" y="288" width="42" height="1" fill="#C77514"/><rect x="341" y="288" width="22" height="1" fill="#000000"/><rect x="171" y="289" width="21" height="1" fill="#000000"/><rect x="192" y="289" width="43" height="1" fill="#C77514"/><rect x="235" y="289" width="21" height="1" fill="#000000"/><rect x="277" y="289" width="22" height="1" fill="#000000"/><rect x="299" y="289" width="42" height="1" fill="#C77514"/><rect x="341" y="289" width="22" height="1" fill="#000000"/><rect x="171" y="290" width="21" height="1" fill="#000000"/><rect x="192" y="290" width="43" height="1" fill="#C77514"/><rect x="235" y="290" width="21" height="1" fill="#000000"/><rect x="277" y="290" width="22" height="1" fill="#000000"/><rect x="299" y="290" width="42" height="1" fill="#C77514"/><rect x="341" y="290" width="22" height="1" fill="#000000"/><rect x="171" y="291" width="21" height="1" fill="#000000"/><rect x="192" y="291" width="43" height="1" fill="#C77514"/><rect x="235" y="291" width="21" height="1" fill="#000000"/><rect x="277" y="291" width="22" height="1" fill="#000000"/><rect x="299" y="291" width="42" height="1" fill="#C77514"/><rect x="341" y="291" width="22" height="1" fill="#000000"/><rect x="171" y="292" width="21" height="1" fill="#000000"/><rect x="192" y="292" width="43" height="1" fill="#C77514"/><rect x="235" y="292" width="21" height="1" fill="#000000"/><rect x="277" y="292" width="22" height="1" fill="#000000"/><rect x="299" y="292" width="42" height="1" fill="#C77514"/><rect x="341" y="292" width="22" height="1" fill="#000000"/><rect x="171" y="293" width="21" height="1" fill="#000000"/><rect x="192" y="293" width="43" height="1" fill="#C77514"/><rect x="235" y="293" width="21" height="1" fill="#000000"/><rect x="277" y="293" width="22" height="1" fill="#000000"/><rect x="299" y="293" width="42" height="1" fill="#C77514"/><rect x="341" y="293" width="22" height="1" fill="#000000"/><rect x="171" y="294" width="21" height="1" fill="#000000"/><rect x="192" y="294" width="43" height="1" fill="#C77514"/><rect x="235" y="294" width="21" height="1" fill="#000000"/><rect x="277" y="294" width="22" height="1" fill="#000000"/><rect x="299" y="294" width="42" height="1" fill="#C77514"/><rect x="341" y="294" width="22" height="1" fill="#000000"/><rect x="171" y="295" width="21" height="1" fill="#000000"/><rect x="192" y="295" width="43" height="1" fill="#C77514"/><rect x="235" y="295" width="21" height="1" fill="#000000"/><rect x="277" y="295" width="22" height="1" fill="#000000"/><rect x="299" y="295" width="42" height="1" fill="#C77514"/><rect x="341" y="295" width="22" height="1" fill="#000000"/><rect x="171" y="296" width="21" height="1" fill="#000000"/><rect x="192" y="296" width="43" height="1" fill="#C77514"/><rect x="235" y="296" width="21" height="1" fill="#000000"/><rect x="277" y="296" width="22" height="1" fill="#000000"/><rect x="299" y="296" width="42" height="1" fill="#C77514"/><rect x="341" y="296" width="22" height="1" fill="#000000"/><rect x="171" y="297" width="21" height="1" fill="#000000"/><rect x="192" y="297" width="43" height="1" fill="#C77514"/><rect x="235" y="297" width="21" height="1" fill="#000000"/><rect x="277" y="297" width="22" height="1" fill="#000000"/><rect x="299" y="297" width="42" height="1" fill="#C77514"/><rect x="341" y="297" width="22" height="1" fill="#000000"/><rect x="171" y="298" width="21" height="1" fill="#000000"/><rect x="192" y="298" width="43" height="1" fill="#C77514"/><rect x="235" y="298" width="21" height="1" fill="#000000"/><rect x="277" y="298" width="22" height="1" fill="#000000"/><rect x="299" y="298" width="42" height="1" fill="#C77514"/><rect x="341" y="298" width="22" height="1" fill="#000000"/><rect x="192" y="299" width="43" height="1" fill="#000000"/><rect x="299" y="299" width="42" height="1" fill="#000000"/><rect x="192" y="300" width="43" height="1" fill="#000000"/><rect x="299" y="300" width="42" height="1" fill="#000000"/><rect x="192" y="301" width="43" height="1" fill="#000000"/><rect x="299" y="301" width="42" height="1" fill="#000000"/><rect x="192" y="302" width="43" height="1" fill="#000000"/><rect x="299" y="302" width="42" height="1" fill="#000000"/><rect x="192" y="303" width="43" height="1" fill="#000000"/><rect x="299" y="303" width="42" height="1" fill="#000000"/><rect x="192" y="304" width="43" height="1" fill="#000000"/><rect x="299" y="304" width="42" height="1" fill="#000000"/><rect x="192" y="305" width="43" height="1" fill="#000000"/><rect x="299" y="305" width="42" height="1" fill="#000000"/><rect x="192" y="306" width="43" height="1" fill="#000000"/><rect x="299" y="306" width="42" height="1" fill="#000000"/><rect x="192" y="307" width="43" height="1" fill="#000000"/><rect x="299" y="307" width="42" height="1" fill="#000000"/><rect x="192" y="308" width="43" height="1" fill="#000000"/><rect x="299" y="308" width="42" height="1" fill="#000000"/><rect x="192" y="309" width="43" height="1" fill="#000000"/><rect x="299" y="309" width="42" height="1" fill="#000000"/><rect x="192" y="310" width="43" height="1" fill="#000000"/><rect x="299" y="310" width="42" height="1" fill="#000000"/><rect x="192" y="311" width="43" height="1" fill="#000000"/><rect x="299" y="311" width="42" height="1" fill="#000000"/><rect x="192" y="312" width="43" height="1" fill="#000000"/><rect x="299" y="312" width="42" height="1" fill="#000000"/><rect x="192" y="313" width="43" height="1" fill="#000000"/><rect x="299" y="313" width="42" height="1" fill="#000000"/><rect x="192" y="314" width="43" height="1" fill="#000000"/><rect x="299" y="314" width="42" height="1" fill="#000000"/><rect x="192" y="315" width="43" height="1" fill="#000000"/><rect x="299" y="315" width="42" height="1" fill="#000000"/><rect x="192" y="316" width="43" height="1" fill="#000000"/><rect x="299" y="316" width="42" height="1" fill="#000000"/><rect x="192" y="317" width="43" height="1" fill="#000000"/><rect x="299" y="317" width="42" height="1" fill="#000000"/><rect x="192" y="318" width="43" height="1" fill="#000000"/><rect x="299" y="318" width="42" height="1" fill="#000000"/><rect x="192" y="319" width="43" height="1" fill="#000000"/><rect x="299" y="319" width="42" height="1" fill="#000000"/></svg>