<svg xmlns="http://www.w3.org/2000/svg" viewBox="0 0 512 512" width="512" height="512" shape-rendering="crispEdges"><rect x="213" y="64" width="64" height="1" fill="#28B143"/><rect x="213" y="65" width="64" height="1" fill="#28B143"/><rect x="213" y="66" width="64" height="1" fill="#28B143"/><rect x="213" y="67" width="64" height="1" fill="#28B143"/><rect x="213" y="68" width="64" height="1" fill="#28B143"/><rect x="213" y="69" width="64" height="1" fill="#28B143"/><rect x="213" y="70" width="64" height="1" fill="#28B143"/><rect x="213" y="71" width="64" height="1" fill="#28B143"/><rect x="213" y="72" width="64" height="1" fill="#28B143"/><rect x="213" y="73" width="64" height="1" fill="#28B143"/><rect x="213" y="74" width="64" height="1" fill="#28B143"/><rect x="213" y="75" width="64" height="1" fill="#28B143"/><rect x="213" y="76" width="64" height="1" fill="#28B143"/><rect x="213" y="77" width="64" height="1" fill="#28B143"/><rect x="213" y="78" width="64" height="1" fill="#28B143"/><rect x="213" y="79" width="64" height="1" fill="#28B143"/><rect x="213" y="80" width="64" height="1" fill="#28B143"/><rect x="213" y="81" width="64" height="1" fill="#28B143"/><rect x="213" y="82" width="64" height="1" fill="#28B143"/><rect x="213" y="83" width="64" height="1" fill="#28B143"/><rect x="213" y="84" width="64" height="1" fill="#28B143"/><rect x="149" y="85" width="192" height="1" fill="#28B143"/><rect x="149" y="86" width="192" height="1" fill="#28B143"/><rect x="149" y="87" width="192" height="1" fill="#28B143"/><rect x="149" y="88" width="192" height="1" fill="#28B143"/><rect x="149" y="89" width="192" height="1" fill="#28B143"/><rect x="149" y="90" width="192" height="1" fill="#28B143"/><rect x="149" y="91" width="192" height="1" fill="#28B143"/><rect x="149" y="92" width="192" height="1" fill="#28B143"/><rect x="149" y="93" width="192" height="1" fill="#28B143"/><rect x="149" y="94" width="192" height="1" fill="#28B143"/><rect x="149" y="95" width="192" height="1" fill="#28B143"/><rect x="149" y="96" width="192" height="1" fill="#28B143"/><rect x="149" y="97" width="192" height="1" fill="#28B143"/><rect x="149" y="98" width="192" height="1" fill="#28B143"/><rect x="149" y="99" width="192" height="1" fill="#28B143"/><rect x="149" y="100" width="192" height="1" fill="#28B143"/><rect x="149" y="101" width="192" height="1" fill="#28B143"/><rect x="149" y="102" width="192" height="1" fill="#28B143"/><rect x="149" y="103" width="192" height="1" fill="#28B143"/><rect x="149" y="104" width="192" height="1" fill="#28B143"/><rect x="149" y="105" width="192" height="1" fill="#28B143"/><rect x="149" y="106" width="192" height="1" fill="#28B143"/><rect x="128" y="107" width="235" height="1" fill="#28B143"/><rect x="128" y="108" width="235" height="1" fill="#28B143"/><rect x="128" y="109" width="235" height="1" fill="#28B143"/><rect x="128" y="110" width="235" height="1" fill="#28B143"/><rect x="128" y="111" width="235" height="1" fill="#28B143"/><rect x="128" y="112" width="235" height="1" fill="#28B143"/><rect x="128" y="113" width="235" height="1" fill="#28B143"/><rect x="128" y="114" width="235" height="1" fill="#28B143"/><rect x="128" y="115" width="235" height="1" fill="#28B143"/><rect x="128" y="116" width="235" height="1" fill="#28B143"/><rect x="128" y="117" width="235" height="1" fill="#28B143"/><rect x="128" y="118" width="235" height="1" fill="#28B143"/><rect x="128" y="119" width="235" height="1" fill="#28B143"/><rect x="128" y="120" width="235" height="1" fill="#28B143"/><rect x="128" y="121" width="235" height="1" fill="#28B143"/><rect x="128" y="122" width="235" height="1" fill="#28B143"/><rect x="128" y="123" width="235" height="1" fill="#28B143"/><rect x="128" y="124" width="235" height="1" fill="#28B143"/><rect x="128" y="125" width="235" height="1" fill="#28B143"/><rect x="128" y="126" width="235" height="1" fill="#28B143"/><rect x="128" y="127" width="235" height="1" fill="#28B143"/><rect x="107" y="128" width="277" height="1" fill="#28B143"/><rect x="107" y="129" width="277" height="1" fill="#28B143"/><rect x="107" y="130" width="277" height="1" fill="#28B143"/><rect x="107" y="131" width="277" height="1" fill="#28B143"/><rect x="107" y="132" width="277" height="1" fill="#28B143"/><rect x="107" y="133" width="277" height="1" fill="#28B143"/><rect x="107" y="134" width="277" height="1" fill="#28B143"/><rect x="107" y="135" width="277" height="1" fill="#28B143"/><rect x="107" y="136" width="277" height="1" fill="#28B143"/><rect x="107" y="137" width="277" height="1" fill="#28B143"/><rect x="107" y="138" width="277" height="1" fill="#28B143"/><rect x="107" y="139" width="277" height="1" fill="#28B143"/><rect x="107" y="140" width="277" height="1" fill="#28B143"/><rect x="107" y="141" width="277" height="1" fill="#28B143"/><rect x="107" y="142" width="277" height="1" fill="#28B143"/><rect x="107" y="143" width="277" height="1" fill="#28B143"/><rect x="107" y="144" width="277" height="1" fill="#28B143"/><rect x="107" y="145" width="277" height="1" fill="#28B143"/><rect x="107" y="146" width="277" height="1" fill="#28B143"/><rect x="107" y="147" width="277" height="1" fill="#28B143"/><rect x="107" y="148" width="277" height="1" fill="#28B143"/><rect x="85" y="149" width="320" height="1" fill="#28B143"/><rect x="85" y="150" width="320" height="1" fill="#28B143"/><rect x="85" y="151" width="320" height="1" fill="#28B143"/><rect x="85" y="152" width="320" height="1" fill="#28B143"/><rect x="85" y="153" width="320" height="1" fill="#28B143"/><rect x="85" y="154" width="320" height="1" fill="#28B143"/><rect x="85" y="155" width="320" height="1" fill="#28B143"/><rect x="85" y="156" width="320" height="1" fill="#28B143"/><rect x="85" y="157" width="320" height="1" fill="#28B143"/><rect x="85" y="158" width="320" height="1" fill="#28B143"/><rect x="85" y="159" width="320" height="1" fill="#28B143"/><rect x="85" y="160" width="320" height="1" fill="#28B143"/><rect x="85" y="161" width="320" height="1" fill="#28B143"/><rect x="85" y="162" width="320" height="1" fill="#28B143"/><rect x="85" y="163" width="320" height="1" fill="#28B143"/><rect x="85" y="164" width="320" height="1" fill="#28B143"/><rect x="85" y="165" width="320" height="1" fill="#28B143"/><rect x="85" y="166" width="320" height="1" fill="#28B143"/><rect x="85" y="167" width="320" height="1" fill="#28B143"/><rect x="85" y="168" width="320" height="1" fill="#28B143"/><rect x="85" y="169" width="320" height="1" fill="#28B143"/><rect x="85" y="170" width="320" height="1" fill="#28B143"/><rect x="85" y="171" width="320" height="1" fill="#28B143"/><rect x="85" y="172" width="320" height="1" fill="#28B143"/><rect x="85" y="173" width="320" height="1" fill="#28B143"/><rect x="85" y="174" width="320" height="1" fill="#28B143"/><rect x="85" y="175" width="320" height="1" fill="#28B143"/><rect x="85" y="176" width="320" height="1" fill="#28B143"/><rect x="85" y="177" width="320" height="1" fill="#28B143"/><rect x="85" y="178" width="320" height="1" fill="#28B143"/><rect x="85" y="179" width="320" height="1" fill="#28B143"/><rect x="85" y="180" width="320" height="1" fill="#28B143"/><rect x="85" y="181" width="320" height="1" fill="#28B143"/><rect x="85" y="182" width="320" height="1" fill="#28B143"/><rect x="85" y="183" width="320" height="1" fill="#28B143"/><rect x="85" y="184" width="320" height="1" fill="#28B143"/><rect x="85" y="185" width="320" height="1" fill="#28B143"/><rect x="85" y="186" width="320" height="1" fill="#28B143"/><rect x="85" y="187" width="320" height="1" fill="#28B143"/><rect x="85" y="188" width="320" height="1" fill="#28B143"/><rect x="85" y="189" width="320" height="1" fill="#28B143"/><rect x="85" y="190" width="320" height="1" fill="#28B143"/><rect x="85" y="191" width="320" height="1" fill="#28B143"/><rect x="64" y="192" width="149" height="1" fill="#28B143"/><rect x="299" y="192" width="128" height="1" fill="#28B143"/><rect x="64" y="193" width="149" height="1" fill="#28B143"/><rect x="299" y="193" width="128" height="1" fill="#28B143"/><rect x="64" y="194" width="149" height="1" fill="#28B143"/><rect x="299" y="194" width="128" height="1" fill="#28B143"/><rect x="64" y="195" width="149" height="1" fill="#28B143"/><rect x="299" y="195" width="128" height="1" fill="#28B143"/><rect x="64" y="196" width="149" height="1" fill="#28B143"/><rect x="299" y="196" width="128" height="1" fill="#28B143"/><rect x="64" y="197" width="149" height="1" fill="#28B143"/><rect x="299" y="197" width="128" height="1" fill="#28B143"/><rect x="64" y="198" width="149" height="1" fill="#28B143"/><rect x="299" y="198" width="128" height="1" fill="#28B143"/><rect x="64" y="199" width="149" height="1" fill="#28B143"/><rect x="299" y="199" width="128" height="1" fill="#28B143"/><rect x="64" y="200" width="149" height="1" fill="#28B143"/><rect x="299" y="200" width="128" height="1" fill="#28B143"/><rect x="64" y="201" width="149" height="1" fill="#28B143"/><rect x="299" y="201" width="128" height="1" fill="#28B143"/><rect x="64" y="202" width="149" height="1" fill="#28B143"/><rect x="299" y="202" width="128" height="1" fill="#28B143"/><rect x="64" y="203" width="149" height="1" fill="#28B143"/><rect x="299" y="203" width="128" height="1" fill="#28B143"/><rect x="64" y="204" width="149" height="1" fill="#28B143"/><rect x="299" y="204" width="128" height="1" fill="#28B143"/><rect x="64" y="205" width="149" height="1" fill="#28B143"/><rect x="299" y="205" width="128" height="1" fill="#28B143"/><rect x="64" y="206" width="149" height="1" fill="#28B143"/><rect x="299" y="206" width="128" height="1" fill="#28B143"/><rect x="64" y="207" width="149" height="1" fill="#28B143"/><rect x="299" y="207" width="128" height="1" fill="#28B143"/><rect x="64" y="208" width="149" height="1" fill="#28B143"/><rect x="299" y="208" width="128" height="1" fill="#28B143"/><rect x="64" y="209" width="149" height="1" fill="#28B143"/><rect x="299" y="209" width="128" height="1" fill="#28B143"/><rect x="64" y="210" width="149" height="1" fill="#28B143"/><rect x="299" y="210" width="128" height="1" fill="#28B143"/><rect x="64" y="211" width="149" height="1" fill="#28B143"/><rect x="299" y="211" width="128" height="1" fill="#28B143"/><rect x="64" y="212" width="149" height="1" fill="#28B143"/><rect x="299" y="212" width="128" height="1" fill="#28B143"/><rect x="64" y="213" width="107" height="1" fill="#28B143"/><rect x="341" y="213" width="86" height="1" fill="#28B143"/><rect x="64" y="214" width="107" height="1" fill="#28B143"/><rect x="341" y="214" width="86" height="1" fill="#28B143"/><rect x="64" y="215" width="107" height="1" fill="#28B143"/><rect x="341" y="215" width="86" height="1" fill="#28B143"/><rect x="64" y="216" width="107" height="1" fill="#28B143"/><rect x="341" y="216" width="86" height="1" fill="#28B143"/><rect x="64" y="217" width="107" height="1" fill="#28B143"/><rect x="341" y="217" width="86" height="1" fill="#28B143"/><rect x="64" y="218" width="107" height="1" fill="#28B143"/><rect x="341" y="218" width="86" height="1" fill="#28B143"/><rect x="64" y="219" width="107" height="1" fill="#28B143"/><rect x="341" y="219" width="86" height="1" fill="#28B143"/><rect x="64" y="220" width="107" height="1" fill="#28B143"/><rect x="341" y="220" width="86" height="1" fill="#28B143"/><rect x="64" y="221" width="107" height="1" fill="#28B143"/><rect x="341" y="221" width="86" height="1" fill="#28B143"/><rect x="64" y="222" width="107" height="1" fill="#28B143"/><rect x="341" y="222" width="86" height="1" fill="#28B143"/><rect x="64" y="223" width="107" height="1" fill="#28B143"/><rect x="341" y="223" width="86" height="1" fill="#28B143"/><rect x="64" y="224" width="107" height="1" fill="#28B143"/><rect x="341" y="224" width="86" height="1" fill="#28B143"/><rect x="64" y="225" width="107" height="1" fill="#28B143"/><rect x="341" y="225" width="86" height="1" fill="#28B143"/><rect x="64" y="226" width="107" height="1" fill="#28B143"/><rect x="341" y="226" width="86" height="1" fill="#28B143"/><rect x="64" y="227" width="107" height="1" fill="#28B143"/><rect x="341" y="227" width="86" height="1" fill="#28B143"/><rect x="64" y="228" width="107" height="1" fill="#28B143"/><rect x="341" y="228" width="86" height="1" fill="#28B143"/><rect x="64" y="229" width="107" height="1" fill="#28B143"/><rect x="341" y="229" width="86" height="1" fill="#28B143"/><rect x="64" y="230" width="107" height="1" fill="#28B143"/><rect x="341" y="230" width="86" height="1" fill="#28B143"/><rect x="64" y="231" width="107" height="1" fill="#28B143"/><rect x="341" y="231" width="86" height="1" fill="#28B143"/><rect x="64" y="232" width="107" height="1" fill="#28B143"/><rect x="341" y="232" width="86" height="1" fill="#28B143"/><rect x="64" y="233" width="107" height="1" fill="#28B143"/><rect x="341" y="233" width="86" height="1" fill="#28B143"/><rect x="64" y="234" width="107" height="1" fill="#28B143"/><rect x="341" y="234" width="86" height="1" fill="#28B143"/><rect x="64" y="235" width="85" height="1" fill="#28B143"/><rect x="341" y="235" width="86" height="1" fill="#28B143"/><rect x="64" y="236" width="85" height="1" fill="#28B143"/><rect x="341" y="236" width="86" height="1" fill="#28B143"/><rect x="64" y="237" width="85" height="1" fill="#28B143"/><rect x="341" y="237" width="86" height="1" fill="#28B143"/><rect x="64" y="238" width="85" height="1" fill="#28B143"/><rect x="341" y="238" width="86" height="1" fill="#28B143"/><rect x="64" y="239" width="85" height="1" fill="#28B143"/><rect x="341" y="239" width="86" height="1" fill="#28B143"/><rect x="64" y="240" width="85" height="1" fill="#28B143"/><rect x="341" y="240" width="86" height="1" fill="#28B143"/><rect x="64" y="241" width="85" height="1" fill="#28B143"/><rect x="341" y="241" width="86" height="1" fill="#28B143"/><rect x="64" y="242" width="85" height="1" fill="#28B143"/><rect x="341" y="242" width="86" height="1" fill="#28B143"/><rect x="64" y="243" width="85" height="1" fill="#28B143"/><rect x="341" y="243" width="86" height="1" fill="#28B143"/><rect x="64" y="244" width="85" height="1" fill="#28B143"/><rect x="341" y="244" width="86" height="1" fill="#28B143"/><rect x="64" y="245" width="85" height="1" fill="#28B143"/><rect x="341" y="245" width="86" height="1" fill="#28B143"/><rect x="64" y="246" width="85" height="1" fill="#28B143"/><rect x="341" y="246" width="86" height="1" fill="#28B143"/><rect x="64" y="247" width="85" height="1" fill="#28B143"/><rect x="341" y="247" width="86" height="1" fill="#28B143"/><rect x="64" y="248" width="85" height="1" fill="#28B143"/><rect x="341" y="248" width="86" height="1" fill="#28B143"/><rect x="64" y="249" width="85" height="1" fill="#28B143"/><rect x="341" y="249" width="86" height="1" fill="#28B143"/><rect x="64" y="250" width="85" height="1" fill="#28B143"/><rect x="341" y="250" width="86" height="1" fill="#28B143"/><rect x="64" y="251" width="85" height="1" fill="#28B143"/><rect x="341" y="251" width="86" height="1" fill="#28B143"/><rect x="64" y="252" width="85" height="1" fill="#28B143"/><rect x="341" y="252" width="86" height="1" fill="#28B143"/><rect x="64" y="253" width="85" height="1" fill="#28B143"/><rect x="341" y="253" width="86" height="1" fill="#28B143"/><rect x="64" y="254" width="85" height="1" fill="#28B143"/><rect x="341" y="254" width="86" height="1" fill="#28B143"/><rect x="64" y="255" width="85" height="1" fill="#28B143"/><rect x="341" y="255" width="86" height="1" fill="#28B143"/><rect x="85" y="256" width="43" height="1" fill="#28B143"/><rect x="341" y="256" width="64" height="1" fill="#28B143"/><rect x="85" y="257" width="43" height="1" fill="#28B143"/><rect x="341" y="257" width="64" height="1" fill="#28B143"/><rect x="85" y="258" width="43" height="1" fill="#28B143"/><rect x="341" y="258" width="64" height="1" fill="#28B143"/><rect x="85" y="259" width="43" height="1" fill="#28B143"/><rect x="341" y="259" width="64" height="1" fill="#28B143"/><rect x="85" y="260" width="43" height="1" fill="#28B143"/><rect x="341" y="260" width="64" height="1" fill="#28B143"/><rect x="85" y="261" width="43" height="1" fill="#28B143"/><rect x="341" y="261" width="64" height="1" fill="#28B143"/><rect x="85" y="262" width="43" height="1" fill="#28B143"/><rect x="341" y="262" width="64" height="1" fill="#28B143"/><rect x="85" y="263" width="43" height="1" fill="#28B143"/><rect x="341" y="263" width="64" height="1" fill="#28B143"/><rect x="85" y="264" width="43" height="1" fill="#28B143"/><rect x="341" y="264" width="64" height="1" fill="#28B143"/><rect x="85" y="265" width="43" height="1" fill="#28B143"/><rect x="341" y="265" width="64" height="1" fill="#28B143"/><rect x="85" y="266" width="43" height="1" fill="#28B143"/><rect x="341" y="266" width="64" height="1" fill="#28B143"/><rect x="85" y="267" width="43" height="1" fill="#28B143"/><rect x="341" y="267" width="64" height="1" fill="#28B143"/><rect x="85" y="268" width="43" height="1" fill="#28B143"/><rect x="341" y="268" width="64" height="1" fill="#28B143"/><rect x="85" y="269" width="43" height="1" fill="#28B143"/><rect x="341" y="269" width="64" height="1" fill="#28B143"/><rect x="85" y="270" width="43" height="1" fill="#28B143"/><rect x="341" y="270" width="64" height="1" fill="#28B143"/><rect x="85" y="271" width="43" height="1" fill="#28B143"/><rect x="341" y="271" width="64" height="1" fill="#28B143"/><rect x="85" y="272" width="43" height="1" fill="#28B143"/><rect x="341" y="272" width="64" height="1" fill="#28B143"/><rect x="85" y="273" width="43" height="1" fill="#28B143"/><rect x="341" y="273" width="64" height="1" fill="#28B143"/><rect x="85" y="274" width="43" height="1" fill="#28B143"/><rect x="341" y="274" width="64" height="1" fill="#28B143"/><rect x="85" y="275" width="43" height="1" fill="#28B143"/><rect x="341" y="275" width="64" height="1" fill="#28B143"/><rect x="85" y="276" width="43" height="1" fill="#28B143"/><rect x="341" y="276" width="64" height="1" fill="#28B143"/><rect x="85" y="277" width="43" height="1" fill="#28B143"/><rect x="363" y="277" width="42" height="1" fill="#28B143"/><rect x="85" y="278" width="43" height="1" fill="#28B143"/><rect x="363" y="278" width="42" height="1" fill="#28B143"/><rect x="85" y="279" width="43" height="1" fill="#28B143"/><rect x="363" y="279" width="42" height="1" fill="#28B143"/><rect x="85" y="280" width="43" height="1" fill="#28B143"/><rect x="363" y="280" width="42" height="1" fill="#28B143"/><rect x="85" y="281" width="43" height="1" fill="#28B143"/><rect x="363" y="281" width="42" height="1" fill="#28B143"/><rect x="85" y="282" width="43" height="1" fill="#28B143"/><rect x="363" y="282" width="42" height="1" fill="#28B143"/><rect x="85" y="283" width="43" height="1" fill="#28B143"/><rect x="363" y="283" width="42" height="1" fill="#28B143"/><rect x="85" y="284" width="43" height="1" fill="#28B143"/><rect x="363" y="284" width="42" height="1" fill="#28B143"/><rect x="85" y="285" width="43" height="1" fill="#28B143"/><rect x="363" y="285" width="42" height="1" fill="#28B143"/><rect x="85" y="286" width="43" height="1" fill="#28B143"/><rect x="363" y="286" width="42" height="1" fill="#28B143"/><rect x="85" y="287" width="43" height="1" fill="#28B143"/><rect x="363" y="287" width="42" height="1" fill="#28B143"/><rect x="85" y="288" width="43" height="1" fill="#28B143"/><rect x="363" y="288" width="42" height="1" fill="#28B143"/><rect x="85" y="289" width="43" height="1" fill="#28B143"/><rect x="363" y="289" width="42" height="1" fill="#28B143"/><rect x="85" y="290" width="43" height="1" fill="#28B143"/><rect x="363" y="290" width="42" height="1" fill="#28B143"/><rect x="85" y="291" width="43" height="1" fill="#28B143"/><rect x="363" y="291" width="42" height="1" fill="#28B143"/><rect x="85" y="292" width="43" height="1" fill="#28B143"/><rect x="363" y="292" width="42" height="1" fill="#28B143"/><rect x="85" y="293" width="43" height="1" fill="#28B143"/><rect x="363" y="293" width="42" height="1" fill="#28B143"/><rect x="85" y="294" width="43" height="1" fill="#28B143"/><rect x="363" y="294" width="42" height="1" fill="#28B143"/><rect x="85" y="295" width="43" height="1" fill="#28B143"/><rect x="363" y="295" width="42" height="1" fill="#28B143"/><rect x="85" y="296" width="43" height="1" fill="#28B143"/><rect x="363" y="296" width="42" height="1" fill="#28B143"/><rect x="85" y="297" width="43" height="1" fill="#28B143"/><rect x="363" y="297" width="42" height="1" fill="#28B143"/><rect x="85" y="298" width="43" height="1" fill="#28B143"/><rect x="363" y="298" width="42" height="1" fill="#28B143"/><rect x="85" y="299" width="43" height="1" fill="#28B143"/><rect x="363" y="299" width="21" height="1" fill="#000000"/><rect x="384" y="299" width="21" height="1" fill="#28B143"/><rect x="85" y="300" width="43" height="1" fill="#28B143"/><rect x="363" y="300" width="21" height="1" fill="#000000"/><rect x="384" y="300" width="21" height="1" fill="#28B143"/><rect x="85" y="301" width="43" height="1" fill="#28B143"/><rect x="363" y="301" width="21" height="1" fill="#000000"/><rect x="384" y="301" width="21" height="1" fill="#28B143"/><rect x="85" y="302" width="43" height="1" fill="#28B143"/><rect x="363" y="302" width="21" height="1" fill="#000000"/><rect x="384" y="302" width="21" height="1" fill="#28B143"/><rect x="85" y="303" width="43" height="1" fill="#28B143"/><rect x="363" y="303" width="21" height="1" fill="#000000"/><rect x="384" y="303" width="21" height="1" fill="#28B143"/><rect x="85" y="304" width="43" height="1" fill="#28B143"/><rect x="363" y="304" width="21" height="1" fill="#000000"/><rect x="384" y="304" width="21" height="1" fill="#28B143"/><rect x="85" y="305" width="43" height="1" fill="#28B143"/><rect x="363" y="305" width="21" height="1" fill="#000000"/><rect x="384" y="305" width="21" height="1" fill="#28B143"/><rect x="85" y="306" width="43" height="1" fill="#28B143"/><rect x="363" y="306" width="21" height="1" fill="#000000"/><rect x="384" y="306" width="21" height="1" fill="#28B143"/><rect x="85" y="307" width="43" height="1" fill="#28B143"/><rect x="363" y="307" width="21" height="1" fill="#000000"/><rect x="384" y="307" width="21" height="1" fill="#28B143"/><rect x="85" y="308" width="43" height="1" fill="#28B143"/><rect x="363" y="308" width="21" height="1" fill="#000000"/><rect x="384" y="308" width="21" height="1" fill="#28B143"/><rect x="85" y="309" width="43" height="1" fill="#28B143"/><rect x="363" y="309" width="21" height="1" fill="#000000"/><rect x="384" y="309" width="21" height="1" fill="#28B143"/><rect x="85" y="310" width="43" height="1" fill="#28B143"/><rect x="363" y="310" width="21" height="1" fill="#000000"/><rect x="384" y="310" width="21" height="1" fill="#28B143"/><rect x="85" y="311" width="43" height="1" fill="#28B143"/><rect x="363" y="311" width="21" height="1" fill="#000000"/><rect x="384" y="311" width="21" height="1" fill="#28B143"/><rect x="85" y="312" width="43" height="1" fill="#28B143"/><rect x="363" y="312" width="21" height="1" fill="#000000"/><rect x="384" y="312" width="21" height="1" fill="#28B143"/><rect x="85" y="313" width="43" height="1" fill="#28B143"/><rect x="363" y="313" width="21" height="1" fill="#000000"/><rect x="384" y="313" width="21" height="1" fill="#28B143"/><rect x="85" y="314" width="43" height="1" fill="#28B143"/><rect x="363" y="314" width="21" height="1" fill="#000000"/><rect x="384" y="314" width="21" height="1" fill="#28B143"/><rect x="85" y="315" width="43" height="1" fill="#28B143"/><rect x="363" y="315" width="21" height="1" fill="#000000"/><rect x="384" y="315" width="21" height="1" fill="#28B143"/><rect x="85" y="316" width="43" height="1" fill="#28B143"/><rect x="363" y="316" width="21" height="1" fill="#000000"/><rect x="384" y="316" width="21" height="1" fill="#28B143"/><rect x="85" y="317" width="43" height="1" fill="#28B143"/><rect x="363" y="317" width="21" height="1" fill="#000000"/><rect x="384" y="317" width="21" height="1" fill="#28B143"/><rect x="85" y="318" width="43" height="1" fill="#28B143"/><rect x="363" y="318" width="21" height="1" fill="#000000"/><rect x="384" y="318" width="21" height="1" fill="#28B143"/><rect x="85" y="319" width="43" height="1" fill="#28B143"/><rect x="363" y="319" width="21" height="1" fill="#000000"/><rect x="384" y="319" width="21" height="1" fill="#28B143"/><rect x="107" y="320" width="42" height="1" fill="#28B143"/><rect x="363" y="320" width="21" height="1" fill="#28B143"/><rect x="107" y="321" width="42" height="1" fill="#28B143"/><rect x="363" y="321" width="21" height="1" fill="#28B143"/><rect x="107" y="322" width="42" height="1" fill="#28B143"/><rect x="363" y="322" width="21" height="1" fill="#28B143"/><rect x="107" y="323" width="42" height="1" fill="#28B143"/><rect x="363" y="323" width="21" height="1" fill="#28B143"/><rect x="107" y="324" width="42" height="1" fill="#28B143"/><rect x="363" y="324" width="21" height="1" fill="#28B143"/><rect x="107" y="325" width="42" height="1" fill="#28B143"/><rect x="363" y="325" width="21" height="1" fill="#28B143"/><rect x="107" y="326" width="42" height="1" fill="#28B143"/><rect x="363" y="326" width="21" height="1" fill="#28B143"/><rect x="107" y="327" width="42" height="1" fill="#28B143"/><rect x="363" y="327" width="21" height="1" fill="#28B143"/><rect x="107" y="328" width="42" height="1" fill="#28B143"/><rect x="363" y="328" width="21" height="1" fill="#28B143"/><rect x="107" y="329" width="42" height="1" fill="#28B143"/><rect x="363" y="329" width="21" height="1" fill="#28B143"/><rect x="107" y="330" width="42" height="1" fill="#28B143"/><rect x="363" y="330" width="21" height="1" fill="#28B143"/><rect x="107" y="331" width="42" height="1" fill="#28B143"/><rect x="363" y="331" width="21" height="1" fill="#28B143"/><rect x="107" y="332" width="42" height="1" fill="#28B143"/><rect x="363" y="332" width="21" height="1" fill="#28B143"/><rect x="107" y="333" width="42" height="1" fill="#28B143"/><rect x="363" y="333" width="21" height="1" fill="#28B143"/><rect x="107" y="334" width="42" height="1" fill="#28B143"/><rect x="363" y="334" width="21" height="1" fill="#28B143"/><rect x="107" y="335" width="42" height="1" fill="#28B143"/><rect x="363" y="335" width="21" height="1" fill="#28B143"/><rect x="107" y="336" width="42" height="1" fill="#28B143"/><rect x="363" y="336" width="21" height="1" fill="#28B143"/><rect x="107" y="337" width="42" height="1" fill="#28B143"/><rect x="363" y="337" width="21" height="1" fill="#28B143"/><rect x="107" y="338" width="42" height="1" fill="#28B143"/><rect x="363" y="338" width="21" height="1" fill="#28B143"/><rect x="107" y="339" width="42" height="1" fill="#28B143"/><rect x="363" y="339" width="21" height="1" fill="#28B143"/><rect x="107" y="340" width="42" height="1" fill="#28B143"/><rect x="363" y="340" width="21" height="1" fill="#28B143"/><rect x="128" y="341" width="21" height="1" fill="#28B143"/><rect x="363" y="341" width="21" height="1" fill="#28B143"/><rect x="128" y="342" width="21" height="1" fill="#28B143"/><rect x="363" y="342" width="21" height="1" fill="#28B143"/><rect x="128" y="343" width="21" height="1" fill="#28B143"/><rect x="363" y="343" width="21" height="1" fill="#28B143"/><rect x="128" y="344" width="21" height="1" fill="#28B143"/><rect x="363" y="344" width="21" height="1" fill="#28B143"/><rect x="128" y="345" width="21" height="1" fill="#28B143"/><rect x="363" y="345" width="21" height="1" fill="#28B143"/><rect x="128" y="346" width="21" height="1" fill="#28B143"/><rect x="363" y="346" width="21" height="1" fill="#28B143"/><rect x="128" y="347" width="21" height="1" fill="#28B143"/><rect x="363" y="347" width="21" height="1" fill="#28B143"/><rect x="128" y="348" width="21" height="1" fill="#28B143"/><rect x="363" y="348" width="21" height="1" fill="#28B143"/><rect x="128" y="349" width="21" height="1" fill="#28B143"/><rect x="363" y="349" width="21" height="1" fill="#28B143"/><rect x="128" y="350" width="21" height="1" fill="#28B143"/><rect x="363" y="350" width="21" height="1" fill="#28B143"/><rect x="128" y="351" width="21" height="1" fill="#28B143"/><rect x="363" y="351" width="21" height="1" fill="#28B143"/><rect x="128" y="352" width="21" height="1" fill="#28B143"/><rect x="363" y="352" width="21" height="1" fill="#28B143"/><rect x="128" y="353" width="21" height="1" fill="#28B143"/><rect x="363" y="353" width="21" height="1" fill="#28B143"/><rect x="128" y="354" width="21" height="1" fill="#28B143"/><rect x="363" y="354" width="21" height="1" fill="#28B143"/><rect x="128" y="355" width="21" height="1" fill="#28B143"/><rect x="363" y="355" width="21" height="1" fill="#28B143"/><rect x="128" y="356" width="21" height="1" fill="#28B143"/><rect x="363" y="356" width="21" height="1" fill="#28B143"/><rect x="128" y="357" width="21" height="1" fill="#28B143"/><rect x="363" y="357" width="21" height="1" fill="#28B143"/><rect x="128" y="358" width="21" height="1" fill="#28B143"/><rect x="363" y="358" width="21" height="1" fill="#28B143"/><rect x="128" y="359" width="21" height="1" fill="#28B143"/><rect x="363" y="359" width="21" height="1" fill="#28B143"/><rect x="128" y="360" width="21" height="1" fill="#28B143"/><rect x="363" y="360" width="21" height="1" fill="#28B143"/><rect x="128" y="361" width="21" height="1" fill="#28B143"/><rect x="363" y="361" width="21" height="1" fill="#28B143"/><rect x="128" y="362" width="21" height="1" fill="#28B143"/><rect x="363" y="362" width="21" height="1" fill="#28B143"/></svg>