<svg xmlns="http://www.w3.org/2000/svg" viewBox="0 0 512 512" width="512" height="512" shape-rendering="crispEdges"><rect x="256" y="320" width="43" height="1" fill="#D60000"/><rect x="256" y="321" width="43" height="1" fill="#D60000"/><rect x="256" y="322" width="43" height="1" fill="#D60000"/><rect x="256" y="323" width="43" height="1" fill="#D60000"/><rect x="256" y="324" width="43" height="1" fill="#D60000"/><rect x="256" y="325" width="43" height="1" fill="#D60000"/><rect x="256" y="326" width="43" height="1" fill="#D60000"/><rect x="256" y="327" width="43" height="1" fill="#D60000"/><rect x="256" y="328" width="43" height="1" fill="#D60000"/><rect x="256" y="329" width="43" height="1" fill="#D60000"/><rect x="256" y="330" width="43" height="1" fill="#D60000"/><rect x="256" y="331" width="43" height="1" fill="#D60000"/><rect x="256" y="332" width="43" height="1" fill="#D60000"/><rect x="256" y="333" width="43" height="1" fill="#D60000"/><rect x="256" y="334" width="43" height="1" fill="#D60000"/><rect x="256" y="335" width="43" height="1" fill="#D60000"/><rect x="256" y="336" width="43" height="1" fill="#D60000"/><rect x="256" y="337" width="43" height="1" fill="#D60000"/><rect x="256" y="338" width="43" height="1" fill="#D60000"/><rect x="256" y="339" width="43" height="1" fill="#D60000"/><rect x="256" y="340" width="43" height="1" fill="#D60000"/><rect x="256" y="341" width="43" height="1" fill="#D60000"/><rect x="256" y="342" width="43" height="1" fill="#D60000"/><rect x="256" y="343" width="43" height="1" fill="#D60000"/><rect x="256" y="344" width="43" height="1" fill="#D60000"/><rect x="256" y="345" width="43" height="1" fill="#D60000"/><rect x="256" y="346" width="43" height="1" fill="#D60000"/><rect x="256" y="347" width="43" height="1" fill="#D60000"/><rect x="256" y="348" width="43" height="1" fill="#D60000"/><rect x="256" y="349" width="43" height="1" fill="#D60000"/><rect x="256" y="350" width="43" height="1" fill="#D60000"/><rect x="256" y="351" width="43" height="1" fill="#D60000"/><rect x="256" y="352" width="43" height="1" fill="#D60000"/><rect x="256" y="353" width="43" height="1" fill="#D60000"/><rect x="256" y="354" width="43" height="1" fill="#D60000"/><rect x="256" y="355" width="43" height="1" fill="#D60000"/><rect x="256" y="356" width="43" height="1" fill="#D60000"/><rect x="256" y="357" width="43" height="1" fill="#D60000"/><rect x="256" y="358" width="43" height="1" fill="#D60000"/><rect x="256" y="359" width="43" height="1" fill="#D60000"/><rect x="256" y="360" width="43" height="1" fill="#D60000"/><rect x="256" y="361" width="43" height="1" fill="#D60000"/><rect x="256" y="362" width="43" height="1" fill="#D60000"/></svg>