<svg xmlns="http://www.w3.org/2000/svg" viewBox="0 0 512 512" width="512" height="512" shape-rendering="crispEdges"><rect x="213" y="64" width="22" height="1" fill="#E22626"/><rect x="256" y="64" width="21" height="1" fill="#E22626"/><rect x="213" y="65" width="22" height="1" fill="#E22626"/><rect x="256" y="65" width="21" height="1" fill="#E22626"/><rect x="213" y="66" width="22" height="1" fill="#E22626"/><rect x="256" y="66" width="21" height="1" fill="#E22626"/><rect x="213" y="67" width="22" height="1" fill="#E22626"/><rect x="256" y="67" width="21" height="1" fill="#E22626"/><rect x="213" y="68" width="22" height="1" fill="#E22626"/><rect x="256" y="68" width="21" height="1" fill="#E22626"/><rect x="213" y="69" width="22" height="1" fill="#E22626"/><rect x="256" y="69" width="21" height="1" fill="#E22626"/><rect x="213" y="70" width="22" height="1" fill="#E22626"/><rect x="256" y="70" width="21" height="1" fill="#E22626"/><rect x="213" y="71" width="22" height="1" fill="#E22626"/><rect x="256" y="71" width="21" height="1" fill="#E22626"/><rect x="213" y="72" width="22" height="1" fill="#E22626"/><rect x="256" y="72" width="21" height="1" fill="#E22626"/><rect x="213" y="73" width="22" height="1" fill="#E22626"/><rect x="256" y="73" width="21" height="1" fill="#E22626"/><rect x="213" y="74" width="22" height="1" fill="#E22626"/><rect x="256" y="74" width="21" height="1" fill="#E22626"/><rect x="213" y="75" width="22" height="1" fill="#E22626"/><rect x="256" y="75" width="21" height="1" fill="#E22626"/><rect x="213" y="76" width="22" height="1" fill="#E22626"/><rect x="256" y="76" width="21" height="1" fill="#E22626"/><rect x="213" y="77" width="22" height="1" fill="#E22626"/><rect x="256" y="77" width="21" height="1" fill="#E22626"/><rect x="213" y="78" width="22" height="1" fill="#E22626"/><rect x="256" y="78" width="21" height="1" fill="#E22626"/><rect x="213" y="79" width="22" height="1" fill="#E22626"/><rect x="256" y="79" width="21" height="1" fill="#E22626"/><rect x="213" y="80" width="22" height="1" fill="#E22626"/><rect x="256" y="80" width="21" height="1" fill="#E22626"/><rect x="213" y="81" width="22" height="1" fill="#E22626"/><rect x="256" y="81" width="21" height="1" fill="#E22626"/><rect x="213" y="82" width="22" height="1" fill="#E22626"/><rect x="256" y="82" width="21" height="1" fill="#E22626"/><rect x="213" y="83" width="22" height="1" fill="#E22626"/><rect x="256" y="83" width="21" height="1" fill="#E22626"/><rect x="213" y="84" width="22" height="1" fill="#E22626"/><rect x="256" y="84" width="21" height="1" fill="#E22626"/><rect x="128" y="85" width="21" height="1" fill="#E22626"/><rect x="171" y="85" width="21" height="1" fill="#E22626"/><rect x="213" y="85" width="22" height="1" fill="#E22626"/><rect x="256" y="85" width="21" height="1" fill="#E22626"/><rect x="320" y="85" width="21" height="1" fill="#E22626"/><rect x="128" y="86" width="21" height="1" fill="#E22626"/><rect x="171" y="86" width="21" height="1" fill="#E22626"/><rect x="213" y="86" width="22" height="1" fill="#E22626"/><rect x="256" y="86" width="21" height="1" fill="#E22626"/><rect x="320" y="86" width="21" height="1" fill="#E22626"/><rect x="128" y="87" width="21" height="1" fill="#E22626"/><rect x="171" y="87" width="21" height="1" fill="#E22626"/><rect x="213" y="87" width="22" height="1" fill="#E22626"/><rect x="256" y="87" width="21" height="1" fill="#E22626"/><rect x="320" y="87" width="21" height="1" fill="#E22626"/><rect x="128" y="88" width="21" height="1" fill="#E22626"/><rect x="171" y="88" width="21" height="1" fill="#E22626"/><rect x="213" y="88" width="22" height="1" fill="#E22626"/><rect x="256" y="88" width="21" height="1" fill="#E22626"/><rect x="320" y="88" width="21" height="1" fill="#E22626"/><rect x="128" y="89" width="21" height="1" fill="#E22626"/><rect x="171" y="89" width="21" height="1" fill="#E22626"/><rect x="213" y="89" width="22" height="1" fill="#E22626"/><rect x="256" y="89" width="21" height="1" fill="#E22626"/><rect x="320" y="89" width="21" height="1" fill="#E22626"/><rect x="128" y="90" width="21" height="1" fill="#E22626"/><rect x="171" y="90" width="21" height="1" fill="#E22626"/><rect x="213" y="90" width="22" height="1" fill="#E22626"/><rect x="256" y="90" width="21" height="1" fill="#E22626"/><rect x="320" y="90" width="21" height="1" fill="#E22626"/><rect x="128" y="91" width="21" height="1" fill="#E22626"/><rect x="171" y="91" width="21" height="1" fill="#E22626"/><rect x="213" y="91" width="22" height="1" fill="#E22626"/><rect x="256" y="91" width="21" height="1" fill="#E22626"/><rect x="320" y="91" width="21" height="1" fill="#E22626"/><rect x="128" y="92" width="21" height="1" fill="#E22626"/><rect x="171" y="92" width="21" height="1" fill="#E22626"/><rect x="213" y="92" width="22" height="1" fill="#E22626"/><rect x="256" y="92" width="21" height="1" fill="#E22626"/><rect x="320" y="92" width="21" height="1" fill="#E22626"/><rect x="128" y="93" width="21" height="1" fill="#E22626"/><rect x="171" y="93" width="21" height="1" fill="#E22626"/><rect x="213" y="93" width="22" height="1" fill="#E22626"/><rect x="256" y="93" width="21" height="1" fill="#E22626"/><rect x="320" y="93" width="21" height="1" fill="#E22626"/><rect x="128" y="94" width="21" height="1" fill="#E22626"/><rect x="171" y="94" width="21" height="1" fill="#E22626"/><rect x="213" y="94" width="22" height="1" fill="#E22626"/><rect x="256" y="94" width="21" height="1" fill="#E22626"/><rect x="320" y="94" width="21" height="1" fill="#E22626"/><rect x="128" y="95" width="21" height="1" fill="#E22626"/><rect x="171" y="95" width="21" height="1" fill="#E22626"/><rect x="213" y="95" width="22" height="1" fill="#E22626"/><rect x="256" y="95" width="21" height="1" fill="#E22626"/><rect x="320" y="95" width="21" height="1" fill="#E22626"/><rect x="128" y="96" width="21" height="1" fill="#E22626"/><rect x="171" y="96" width="21" height="1" fill="#E22626"/><rect x="213" y="96" width="22" height="1" fill="#E22626"/><rect x="256" y="96" width="21" height="1" fill="#E22626"/><rect x="320" y="96" width="21" height="1" fill="#E22626"/><rect x="128" y="97" width="21" height="1" fill="#E22626"/><rect x="171" y="97" width="21" height="1" fill="#E22626"/><rect x="213" y="97" width="22" height="1" fill="#E22626"/><rect x="256" y="97" width="21" height="1" fill="#E22626"/><rect x="320" y="97" width="21" height="1" fill="#E22626"/><rect x="128" y="98" width="21" height="1" fill="#E22626"/><rect x="171" y="98" width="21" height="1" fill="#E22626"/><rect x="213" y="98" width="22" height="1" fill="#E22626"/><rect x="256" y="98" width="21" height="1" fill="#E22626"/><rect x="320" y="98" width="21" height="1" fill="#E22626"/><rect x="128" y="99" width="21" height="1" fill="#E22626"/><rect x="171" y="99" width="21" height="1" fill="#E22626"/><rect x="213" y="99" width="22" height="1" fill="#E22626"/><rect x="256" y="99" width="21" height="1" fill="#E22626"/><rect x="320" y="99" width="21" height="1" fill="#E22626"/><rect x="128" y="100" width="21" height="1" fill="#E22626"/><rect x="171" y="100" width="21" height="1" fill="#E22626"/><rect x="213" y="100" width="22" height="1" fill="#E22626"/><rect x="256" y="100" width="21" height="1" fill="#E22626"/><rect x="320" y="100" width="21" height="1" fill="#E22626"/><rect x="128" y="101" width="21" height="1" fill="#E22626"/><rect x="171" y="101" width="21" height="1" fill="#E22626"/><rect x="213" y="101" width="22" height="1" fill="#E22626"/><rect x="256" y="101" width="21" height="1" fill="#E22626"/><rect x="320" y="101" width="21" height="1" fill="#E22626"/><rect x="128" y="102" width="21" height="1" fill="#E22626"/><rect x="171" y="102" width="21" height="1" fill="#E22626"/><rect x="213" y="102" width="22" height="1" fill="#E22626"/><rect x="256" y="102" width="21" height="1" fill="#E22626"/><rect x="320" y="102" width="21" height="1" fill="#E22626"/><rect x="128" y="103" width="21" height="1" fill="#E22626"/><rect x="171" y="103" width="21" height="1" fill="#E22626"/><rect x="213" y="103" width="22" height="1" fill="#E22626"/><rect x="256" y="103" width="21" height="1" fill="#E22626"/><rect x="320" y="103" width="21" height="1" fill="#E22626"/><rect x="128" y="104" width="21" height="1" fill="#E22626"/><rect x="171" y="104" width="21" height="1" fill="#E22626"/><rect x="213" y="104" width="22" height="1" fill="#E22626"/><rect x="256" y="104" width="21" height="1" fill="#E22626"/><rect x="320" y="104" width="21" height="1" fill="#E22626"/><rect x="128" y="105" width="21" height="1" fill="#E22626"/><rect x="171" y="105" width="21" height="1" fill="#E22626"/><rect x="213" y="105" width="22" height="1" fill="#E22626"/><rect x="256" y="105" width="21" height="1" fill="#E22626"/><rect x="320" y="105" width="21" height="1" fill="#E22626"/><rect x="128" y="106" width="21" height="1" fill="#E22626"/><rect x="171" y="106" width="21" height="1" fill="#E22626"/><rect x="213" y="106" width="22" height="1" fill="#E22626"/><rect x="256" y="106" width="21" height="1" fill="#E22626"/><rect x="320" y="106" width="21" height="1" fill="#E22626"/><rect x="128" y="107" width="21" height="1" fill="#E22626"/><rect x="192" y="107" width="149" height="1" fill="#E22626"/><rect x="363" y="107" width="64" height="1" fill="#E22626"/><rect x="128" y="108" width="21" height="1" fill="#E22626"/><rect x="192" y="108" width="149" height="1" fill="#E22626"/><rect x="363" y="108" width="64" height="1" fill="#E22626"/><rect x="128" y="109" width="21" height="1" fill="#E22626"/><rect x="192" y="109" width="149" height="1" fill="#E22626"/><rect x="363" y="109" width="64" height="1" fill="#E22626"/><rect x="128" y="110" width="21" height="1" fill="#E22626"/><rect x="192" y="110" width="149" height="1" fill="#E22626"/><rect x="363" y="110" width="64" height="1" fill="#E22626"/><rect x="128" y="111" width="21" height="1" fill="#E22626"/><rect x="192" y="111" width="149" height="1" fill="#E22626"/><rect x="363" y="111" width="64" height="1" fill="#E22626"/><rect x="128" y="112" width="21" height="1" fill="#E22626"/><rect x="192" y="112" width="149" height="1" fill="#E22626"/><rect x="363" y="112" width="64" height="1" fill="#E22626"/><rect x="128" y="113" width="21" height="1" fill="#E22626"/><rect x="192" y="113" width="149" height="1" fill="#E22626"/><rect x="363" y="113" width="64" height="1" fill="#E22626"/><rect x="128" y="114" width="21" height="1" fill="#E22626"/><rect x="192" y="114" width="149" height="1" fill="#E22626"/><rect x="363" y="114" width="64" height="1" fill="#E22626"/><rect x="128" y="115" width="21" height="1" fill="#E22626"/><rect x="192" y="115" width="149" height="1" fill="#E22626"/><rect x="363" y="115" width="64" height="1" fill="#E22626"/><rect x="128" y="116" width="21" height="1" fill="#E22626"/><rect x="192" y="116" width="149" height="1" fill="#E22626"/><rect x="363" y="116" width="64" height="1" fill="#E22626"/><rect x="128" y="117" width="21" height="1" fill="#E22626"/><rect x="192" y="117" width="149" height="1" fill="#E22626"/><rect x="363" y="117" width="64" height="1" fill="#E22626"/><rect x="128" y="118" width="21" height="1" fill="#E22626"/><rect x="192" y="118" width="149" height="1" fill="#E22626"/><rect x="363" y="118" width="64" height="1" fill="#E22626"/><rect x="128" y="119" width="21" height="1" fill="#E22626"/><rect x="192" y="119" width="149" height="1" fill="#E22626"/><rect x="363" y="119" width="64" height="1" fill="#E22626"/><rect x="128" y="120" width="21" height="1" fill="#E22626"/><rect x="192" y="120" width="149" height="1" fill="#E22626"/><rect x="363" y="120" width="64" height="1" fill="#E22626"/><rect x="128" y="121" width="21" height="1" fill="#E22626"/><rect x="192" y="121" width="149" height="1" fill="#E22626"/><rect x="363" y="121" width="64" height="1" fill="#E22626"/><rect x="128" y="122" width="21" height="1" fill="#E22626"/><rect x="192" y="122" width="149" height="1" fill="#E22626"/><rect x="363" y="122" width="64" height="1" fill="#E22626"/><rect x="128" y="123" width="21" height="1" fill="#E22626"/><rect x="192" y="123" width="149" height="1" fill="#E22626"/><rect x="363" y="123" width="64" height="1" fill="#E22626"/><rect x="128" y="124" width="21" height="1" fill="#E22626"/><rect x="192" y="124" width="149" height="1" fill="#E22626"/><rect x="363" y="124" width="64" height="1" fill="#E22626"/><rect x="128" y="125" width="21" height="1" fill="#E22626"/><rect x="192" y="125" width="149" height="1" fill="#E22626"/><rect x="363" y="125" width="64" height="1" fill="#E22626"/><rect x="128" y="126" width="21" height="1" fill="#E22626"/><rect x="192" y="126" width="149" height="1" fill="#E22626"/><rect x="363" y="126" width="64" height="1" fill="#E22626"/><rect x="128" y="127" width="21" height="1" fill="#E22626"/><rect x="192" y="127" width="149" height="1" fill="#E22626"/><rect x="363" y="127" width="64" height="1" fill="#E22626"/><rect x="107" y="128" width="21" height="1" fill="#E22626"/><rect x="149" y="128" width="214" height="1" fill="#E22626"/><rect x="107" y="129" width="21" height="1" fill="#E22626"/><rect x="149" y="129" width="214" height="1" fill="#E22626"/><rect x="107" y="130" width="21" height="1" fill="#E22626"/><rect x="149" y="130" width="214" height="1" fill="#E22626"/><rect x="107" y="131" width="21" height="1" fill="#E22626"/><rect x="149" y="131" width="214" height="1" fill="#E22626"/><rect x="107" y="132" width="21" height="1" fill="#E22626"/><rect x="149" y="132" width="214" height="1" fill="#E22626"/><rect x="107" y="133" width="21" height="1" fill="#E22626"/><rect x="149" y="133" width="214" height="1" fill="#E22626"/><rect x="107" y="134" width="21" height="1" fill="#E22626"/><rect x="149" y="134" width="214" height="1" fill="#E22626"/><rect x="107" y="135" width="21" height="1" fill="#E22626"/><rect x="149" y="135" width="214" height="1" fill="#E22626"/><rect x="107" y="136" width="21" height="1" fill="#E22626"/><rect x="149" y="136" width="214" height="1" fill="#E22626"/><rect x="107" y="137" width="21" height="1" fill="#E22626"/><rect x="149" y="137" width="214" height="1" fill="#E22626"/><rect x="107" y="138" width="21" height="1" fill="#E22626"/><rect x="149" y="138" width="214" height="1" fill="#E22626"/><rect x="107" y="139" width="21" height="1" fill="#E22626"/><rect x="149" y="139" width="214" height="1" fill="#E22626"/><rect x="107" y="140" width="21" height="1" fill="#E22626"/><rect x="149" y="140" width="214" height="1" fill="#E22626"/><rect x="107" y="141" width="21" height="1" fill="#E22626"/><rect x="149" y="141" width="214" height="1" fill="#E22626"/><rect x="107" y="142" width="21" height="1" fill="#E22626"/><rect x="149" y="142" width="214" height="1" fill="#E22626"/><rect x="107" y="143" width="21" height="1" fill="#E22626"/><rect x="149" y="143" width="214" height="1" fill="#E22626"/><rect x="107" y="144" width="21" height="1" fill="#E22626"/><rect x="149" y="144" width="214" height="1" fill="#E22626"/><rect x="107" y="145" width="21" height="1" fill="#E22626"/><rect x="149" y="145" width="214" height="1" fill="#E22626"/><rect x="107" y="146" width="21" height="1" fill="#E22626"/><rect x="149" y="146" width="214" height="1" fill="#E22626"/><rect x="107" y="147" width="21" height="1" fill="#E22626"/><rect x="149" y="147" width="214" height="1" fill="#E22626"/><rect x="107" y="148" width="21" height="1" fill="#E22626"/><rect x="149" y="148" width="214" height="1" fill="#E22626"/><rect x="107" y="149" width="42" height="1" fill="#E22626"/><rect x="171" y="149" width="234" height="1" fill="#E22626"/><rect x="107" y="150" width="42" height="1" fill="#E22626"/><rect x="171" y="150" width="234" height="1" fill="#E22626"/><rect x="107" y="151" width="42" height="1" fill="#E22626"/><rect x="171" y="151" width="234" height="1" fill="#E22626"/><rect x="107" y="152" width="42" height="1" fill="#E22626"/><rect x="171" y="152" width="234" height="1" fill="#E22626"/><rect x="107" y="153" width="42" height="1" fill="#E22626"/><rect x="171" y="153" width="234" height="1" fill="#E22626"/><rect x="107" y="154" width="42" height="1" fill="#E22626"/><rect x="171" y="154" width="234" height="1" fill="#E22626"/><rect x="107" y="155" width="42" height="1" fill="#E22626"/><rect x="171" y="155" width="234" height="1" fill="#E22626"/><rect x="107" y="156" width="42" height="1" fill="#E22626"/><rect x="171" y="156" width="234" height="1" fill="#E22626"/><rect x="107" y="157" width="42" height="1" fill="#E22626"/><rect x="171" y="157" width="234" height="1" fill="#E22626"/><rect x="107" y="158" width="42" height="1" fill="#E22626"/><rect x="171" y="158" width="234" height="1" fill="#E22626"/><rect x="107" y="159" width="42" height="1" fill="#E22626"/><rect x="171" y="159" width="234" height="1" fill="#E22626"/><rect x="107" y="160" width="42" height="1" fill="#E22626"/><rect x="171" y="160" width="234" height="1" fill="#E22626"/><rect x="107" y="161" width="42" height="1" fill="#E22626"/><rect x="171" y="161" width="234" height="1" fill="#E22626"/><rect x="107" y="162" width="42" height="1" fill="#E22626"/><rect x="171" y="162" width="234" height="1" fill="#E22626"/><rect x="107" y="163" width="42" height="1" fill="#E22626"/><rect x="171" y="163" width="234" height="1" fill="#E22626"/><rect x="107" y="164" width="42" height="1" fill="#E22626"/><rect x="171" y="164" width="234" height="1" fill="#E22626"/><rect x="107" y="165" width="42" height="1" fill="#E22626"/><rect x="171" y="165" width="234" height="1" fill="#E22626"/><rect x="107" y="166" width="42" height="1" fill="#E22626"/><rect x="171" y="166" width="234" height="1" fill="#E22626"/><rect x="107" y="167" width="42" height="1" fill="#E22626"/><rect x="171" y="167" width="234" height="1" fill="#E22626"/><rect x="107" y="168" width="42" height="1" fill="#E22626"/><rect x="171" y="168" width="234" height="1" fill="#E22626"/><rect x="107" y="169" width="42" height="1" fill="#E22626"/><rect x="171" y="169" width="234" height="1" fill="#E22626"/><rect x="107" y="170" width="42" height="1" fill="#E22626"/><rect x="171" y="170" width="234" height="1" fill="#E22626"/><rect x="64" y="171" width="21" height="1" fill="#E22626"/><rect x="107" y="171" width="85" height="1" fill="#E22626"/><rect x="299" y="171" width="64" height="1" fill="#E22626"/><rect x="64" y="172" width="21" height="1" fill="#E22626"/><rect x="107" y="172" width="85" height="1" fill="#E22626"/><rect x="299" y="172" width="64" height="1" fill="#E22626"/><rect x="64" y="173" width="21" height="1" fill="#E22626"/><rect x="107" y="173" width="85" height="1" fill="#E22626"/><rect x="299" y="173" width="64" height="1" fill="#E22626"/><rect x="64" y="174" width="21" height="1" fill="#E22626"/><rect x="107" y="174" width="85" height="1" fill="#E22626"/><rect x="299" y="174" width="64" height="1" fill="#E22626"/><rect x="64" y="175" width="21" height="1" fill="#E22626"/><rect x="107" y="175" width="85" height="1" fill="#E22626"/><rect x="299" y="175" width="64" height="1" fill="#E22626"/><rect x="64" y="176" width="21" height="1" fill="#E22626"/><rect x="107" y="176" width="85" height="1" fill="#E22626"/><rect x="299" y="176" width="64" height="1" fill="#E22626"/><rect x="64" y="177" width="21" height="1" fill="#E22626"/><rect x="107" y="177" width="85" height="1" fill="#E22626"/><rect x="299" y="177" width="64" height="1" fill="#E22626"/><rect x="64" y="178" width="21" height="1" fill="#E22626"/><rect x="107" y="178" width="85" height="1" fill="#E22626"/><rect x="299" y="178" width="64" height="1" fill="#E22626"/><rect x="64" y="179" width="21" height="1" fill="#E22626"/><rect x="107" y="179" width="85" height="1" fill="#E22626"/><rect x="299" y="179" width="64" height="1" fill="#E22626"/><rect x="64" y="180" width="21" height="1" fill="#E22626"/><rect x="107" y="180" width="85" height="1" fill="#E22626"/><rect x="299" y="180" width="64" height="1" fill="#E22626"/><rect x="64" y="181" width="21" height="1" fill="#E22626"/><rect x="107" y="181" width="85" height="1" fill="#E22626"/><rect x="299" y="181" width="64" height="1" fill="#E22626"/><rect x="64" y="182" width="21" height="1" fill="#E22626"/><rect x="107" y="182" width="85" height="1" fill="#E22626"/><rect x="299" y="182" width="64" height="1" fill="#E22626"/><rect x="64" y="183" width="21" height="1" fill="#E22626"/><rect x="107" y="183" width="85" height="1" fill="#E22626"/><rect x="299" y="183" width="64" height="1" fill="#E22626"/><rect x="64" y="184" width="21" height="1" fill="#E22626"/><rect x="107" y="184" width="85" height="1" fill="#E22626"/><rect x="299" y="184" width="64" height="1" fill="#E22626"/><rect x="64" y="185" width="21" height="1" fill="#E22626"/><rect x="107" y="185" width="85" height="1" fill="#E22626"/><rect x="299" y="185" width="64" height="1" fill="#E22626"/><rect x="64" y="186" width="21" height="1" fill="#E22626"/><rect x="107" y="186" width="85" height="1" fill="#E22626"/><rect x="299" y="186" width="64" height="1" fill="#E22626"/><rect x="64" y="187" width="21" height="1" fill="#E22626"/><rect x="107" y="187" width="85" height="1" fill="#E22626"/><rect x="299" y="187" width="64" height="1" fill="#E22626"/><rect x="64" y="188" width="21" height="1" fill="#E22626"/><rect x="107" y="188" width="85" height="1" fill="#E22626"/><rect x="299" y="188" width="64" height="1" fill="#E22626"/><rect x="64" y="189" width="21" height="1" fill="#E22626"/><rect x="107" y="189" width="85" height="1" fill="#E22626"/><rect x="299" y="189" width="64" height="1" fill="#E22626"/><rect x="64" y="190" width="21" height="1" fill="#E22626"/><rect x="107" y="190" width="85" height="1" fill="#E22626"/><rect x="299" y="190" width="64" height="1" fill="#E22626"/><rect x="64" y="191" width="21" height="1" fill="#E22626"/><rect x="107" y="191" width="85" height="1" fill="#E22626"/><rect x="299" y="191" width="64" height="1" fill="#E22626"/><rect x="85" y="192" width="86" height="1" fill="#E22626"/><rect x="341" y="192" width="86" height="1" fill="#E22626"/><rect x="85" y="193" width="86" height="1" fill="#E22626"/><rect x="341" y="193" width="86" height="1" fill="#E22626"/><rect x="85" y="194" width="86" height="1" fill="#E22626"/><rect x="341" y="194" width="86" height="1" fill="#E22626"/><rect x="85" y="195" width="86" height="1" fill="#E22626"/><rect x="341" y="195" width="86" height="1" fill="#E22626"/><rect x="85" y="196" width="86" height="1" fill="#E22626"/><rect x="341" y="196" width="86" height="1" fill="#E22626"/><rect x="85" y="197" width="86" height="1" fill="#E22626"/><rect x="341" y="197" width="86" height="1" fill="#E22626"/><rect x="85" y="198" width="86" height="1" fill="#E22626"/><rect x="341" y="198" width="86" height="1" fill="#E22626"/><rect x="85" y="199" width="86" height="1" fill="#E22626"/><rect x="341" y="199" width="86" height="1" fill="#E22626"/><rect x="85" y="200" width="86" height="1" fill="#E22626"/><rect x="341" y="200" width="86" height="1" fill="#E22626"/><rect x="85" y="201" width="86" height="1" fill="#E22626"/><rect x="341" y="201" width="86" height="1" fill="#E22626"/><rect x="85" y="202" width="86" height="1" fill="#E22626"/><rect x="341" y="202" width="86" height="1" fill="#E22626"/><rect x="85" y="203" width="86" height="1" fill="#E22626"/><rect x="341" y="203" width="86" height="1" fill="#E22626"/><rect x="85" y="204" width="86" height="1" fill="#E22626"/><rect x="341" y="204" width="86" height="1" fill="#E22626"/><rect x="85" y="205" width="86" height="1" fill="#E22626"/><rect x="341" y="205" width="86" height="1" fill="#E22626"/><rect x="85" y="206" width="86" height="1" fill="#E22626"/><rect x="341" y="206" width="86" height="1" fill="#E22626"/><rect x="85" y="207" width="86" height="1" fill="#E22626"/><rect x="341" y="207" width="86" height="1" fill="#E22626"/><rect x="85" y="208" width="86" height="1" fill="#E22626"/><rect x="341" y="208" width="86" height="1" fill="#E22626"/><rect x="85" y="209" width="86" height="1" fill="#E22626"/><rect x="341" y="209" width="86" height="1" fill="#E22626"/><rect x="85" y="210" width="86" height="1" fill="#E22626"/><rect x="341" y="210" width="86" height="1" fill="#E22626"/><rect x="85" y="211" width="86" height="1" fill="#E22626"/><rect x="341" y="211" width="86" height="1" fill="#E22626"/><rect x="85" y="212" width="86" height="1" fill="#E22626"/><rect x="341" y="212" width="86" height="1" fill="#E22626"/><rect x="107" y="213" width="64" height="1" fill="#E22626"/><rect x="341" y="213" width="64" height="1" fill="#E22626"/><rect x="107" y="214" width="64" height="1" fill="#E22626"/><rect x="341" y="214" width="64" height="1" fill="#E22626"/><rect x="107" y="215" width="64" height="1" fill="#E22626"/><rect x="341" y="215" width="64" height="1" fill="#E22626"/><rect x="107" y="216" width="64" height="1" fill="#E22626"/><rect x="341" y="216" width="64" height="1" fill="#E22626"/><rect x="107" y="217" width="64" height="1" fill="#E22626"/><rect x="341" y="217" width="64" height="1" fill="#E22626"/><rect x="107" y="218" width="64" height="1" fill="#E22626"/><rect x="341" y="218" width="64" height="1" fill="#E22626"/><rect x="107" y="219" width="64" height="1" fill="#E22626"/><rect x="341" y="219" width="64" height="1" fill="#E22626"/><rect x="107" y="220" width="64" height="1" fill="#E22626"/><rect x="341" y="220" width="64" height="1" fill="#E22626"/><rect x="107" y="221" width="64" height="1" fill="#E22626"/><rect x="341" y="221" width="64" height="1" fill="#E22626"/><rect x="107" y="222" width="64" height="1" fill="#E22626"/><rect x="341" y="222" width="64" height="1" fill="#E22626"/><rect x="107" y="223" width="64" height="1" fill="#E22626"/><rect x="341" y="223" width="64" height="1" fill="#E22626"/><rect x="107" y="224" width="64" height="1" fill="#E22626"/><rect x="341" y="224" width="64" height="1" fill="#E22626"/><rect x="107" y="225" width="64" height="1" fill="#E22626"/><rect x="341" y="225" width="64" height="1" fill="#E22626"/><rect x="107" y="226" width="64" height="1" fill="#E22626"/><rect x="341" y="226" width="64" height="1" fill="#E22626"/><rect x="107" y="227" width="64" height="1" fill="#E22626"/><rect x="341" y="227" width="64" height="1" fill="#E22626"/><rect x="107" y="228" width="64" height="1" fill="#E22626"/><rect x="341" y="228" width="64" height="1" fill="#E22626"/><rect x="107" y="229" width="64" height="1" fill="#E22626"/><rect x="341" y="229" width="64" height="1" fill="#E22626"/><rect x="107" y="230" width="64" height="1" fill="#E22626"/><rect x="341" y="230" width="64" height="1" fill="#E22626"/><rect x="107" y="231" width="64" height="1" fill="#E22626"/><rect x="341" y="231" width="64" height="1" fill="#E22626"/><rect x="107" y="232" width="64" height="1" fill="#E22626"/><rect x="341" y="232" width="64" height="1" fill="#E22626"/><rect x="107" y="233" width="64" height="1" fill="#E22626"/><rect x="341" y="233" width="64" height="1" fill="#E22626"/><rect x="107" y="234" width="64" height="1" fill="#E22626"/><rect x="341" y="234" width="64" height="1" fill="#E22626"/><rect x="107" y="235" width="42" height="1" fill="#E22626"/><rect x="341" y="235" width="86" height="1" fill="#E22626"/><rect x="107" y="236" width="42" height="1" fill="#E22626"/><rect x="341" y="236" width="86" height="1" fill="#E22626"/><rect x="107" y="237" width="42" height="1" fill="#E22626"/><rect x="341" y="237" width="86" height="1" fill="#E22626"/><rect x="107" y="238" width="42" height="1" fill="#E22626"/><rect x="341" y="238" width="86" height="1" fill="#E22626"/><rect x="107" y="239" width="42" height="1" fill="#E22626"/><rect x="341" y="239" width="86" height="1" fill="#E22626"/><rect x="107" y="240" width="42" height="1" fill="#E22626"/><rect x="341" y="240" width="86" height="1" fill="#E22626"/><rect x="107" y="241" width="42" height="1" fill="#E22626"/><rect x="341" y="241" width="86" height="1" fill="#E22626"/><rect x="107" y="242" width="42" height="1" fill="#E22626"/><rect x="341" y="242" width="86" height="1" fill="#E22626"/><rect x="107" y="243" width="42" height="1" fill="#E22626"/><rect x="341" y="243" width="86" height="1" fill="#E22626"/><rect x="107" y="244" width="42" height="1" fill="#E22626"/><rect x="341" y="244" width="86" height="1" fill="#E22626"/><rect x="107" y="245" width="42" height="1" fill="#E22626"/><rect x="341" y="245" width="86" height="1" fill="#E22626"/><rect x="107" y="246" width="42" height="1" fill="#E22626"/><rect x="341" y="246" width="86" height="1" fill="#E22626"/><rect x="107" y="247" width="42" height="1" fill="#E22626"/><rect x="341" y="247" width="86" height="1" fill="#E22626"/><rect x="107" y="248" width="42" height="1" fill="#E22626"/><rect x="341" y="248" width="86" height="1" fill="#E22626"/><rect x="107" y="249" width="42" height="1" fill="#E22626"/><rect x="341" y="249" width="86" height="1" fill="#E22626"/><rect x="107" y="250" width="42" height="1" fill="#E22626"/><rect x="341" y="250" width="86" height="1" fill="#E22626"/><rect x="107" y="251" width="42" height="1" fill="#E22626"/><rect x="341" y="251" width="86" height="1" fill="#E22626"/><rect x="107" y="252" width="42" height="1" fill="#E22626"/><rect x="341" y="252" width="86" height="1" fill="#E22626"/><rect x="107" y="253" width="42" height="1" fill="#E22626"/><rect x="341" y="253" width="86" height="1" fill="#E22626"/><rect x="107" y="254" width="42" height="1" fill="#E22626"/><rect x="341" y="254" width="86" height="1" fill="#E22626"/><rect x="107" y="255" width="42" height="1" fill="#E22626"/><rect x="341" y="255" width="86" height="1" fill="#E22626"/><rect x="85" y="256" width="43" height="1" fill="#E22626"/><rect x="363" y="256" width="42" height="1" fill="#E22626"/><rect x="85" y="257" width="43" height="1" fill="#E22626"/><rect x="363" y="257" width="42" height="1" fill="#E22626"/><rect x="85" y="258" width="43" height="1" fill="#E22626"/><rect x="363" y="258" width="42" height="1" fill="#E22626"/><rect x="85" y="259" width="43" height="1" fill="#E22626"/><rect x="363" y="259" width="42" height="1" fill="#E22626"/><rect x="85" y="260" width="43" height="1" fill="#E22626"/><rect x="363" y="260" width="42" height="1" fill="#E22626"/><rect x="85" y="261" width="43" height="1" fill="#E22626"/><rect x="363" y="261" width="42" height="1" fill="#E22626"/><rect x="85" y="262" width="43" height="1" fill="#E22626"/><rect x="363" y="262" width="42" height="1" fill="#E22626"/><rect x="85" y="263" width="43" height="1" fill="#E22626"/><rect x="363" y="263" width="42" height="1" fill="#E22626"/><rect x="85" y="264" width="43" height="1" fill="#E22626"/><rect x="363" y="264" width="42" height="1" fill="#E22626"/><rect x="85" y="265" width="43" height="1" fill="#E22626"/><rect x="363" y="265" width="42" height="1" fill="#E22626"/><rect x="85" y="266" width="43" height="1" fill="#E22626"/><rect x="363" y="266" width="42" height="1" fill="#E22626"/><rect x="85" y="267" width="43" height="1" fill="#E22626"/><rect x="363" y="267" width="42" height="1" fill="#E22626"/><rect x="85" y="268" width="43" height="1" fill="#E22626"/><rect x="363" y="268" width="42" height="1" fill="#E22626"/><rect x="85" y="269" width="43" height="1" fill="#E22626"/><rect x="363" y="269" width="42" height="1" fill="#E22626"/><rect x="85" y="270" width="43" height="1" fill="#E22626"/><rect x="363" y="270" width="42" height="1" fill="#E22626"/><rect x="85" y="271" width="43" height="1" fill="#E22626"/><rect x="363" y="271" width="42" height="1" fill="#E22626"/><rect x="85" y="272" width="43" height="1" fill="#E22626"/><rect x="363" y="272" width="42" height="1" fill="#E22626"/><rect x="85" y="273" width="43" height="1" fill="#E22626"/><rect x="363" y="273" width="42" height="1" fill="#E22626"/><rect x="85" y="274" width="43" height="1" fill="#E22626"/><rect x="363" y="274" width="42" height="1" fill="#E22626"/><rect x="85" y="275" width="43" height="1" fill="#E22626"/><rect x="363" y="275" width="42" height="1" fill="#E22626"/><rect x="85" y="276" width="43" height="1" fill="#E22626"/><rect x="363" y="276" width="42" height="1" fill="#E22626"/><rect x="107" y="277" width="21" height="1" fill="#E22626"/><rect x="363" y="277" width="21" height="1" fill="#E22626"/><rect x="107" y="278" width="21" height="1" fill="#E22626"/><rect x="363" y="278" width="21" height="1" fill="#E22626"/><rect x="107" y="279" width="21" height="1" fill="#E22626"/><rect x="363" y="279" width="21" height="1" fill="#E22626"/><rect x="107" y="280" width="21" height="1" fill="#E22626"/><rect x="363" y="280" width="21" height="1" fill="#E22626"/><rect x="107" y="281" width="21" height="1" fill="#E22626"/><rect x="363" y="281" width="21" height="1" fill="#E22626"/><rect x="107" y="282" width="21" height="1" fill="#E22626"/><rect x="363" y="282" width="21" height="1" fill="#E22626"/><rect x="107" y="283" width="21" height="1" fill="#E22626"/><rect x="363" y="283" width="21" height="1" fill="#E22626"/><rect x="107" y="284" width="21" height="1" fill="#E22626"/><rect x="363" y="284" width="21" height="1" fill="#E22626"/><rect x="107" y="285" width="21" height="1" fill="#E22626"/><rect x="363" y="285" width="21" height="1" fill="#E22626"/><rect x="107" y="286" width="21" height="1" fill="#E22626"/><rect x="363" y="286" width="21" height="1" fill="#E22626"/><rect x="107" y="287" width="21" height="1" fill="#E22626"/><rect x="363" y="287" width="21" height="1" fill="#E22626"/><rect x="107" y="288" width="21" height="1" fill="#E22626"/><rect x="363" y="288" width="21" height="1" fill="#E22626"/><rect x="107" y="289" width="21" height="1" fill="#E22626"/><rect x="363" y="289" width="21" height="1" fill="#E22626"/><rect x="107" y="290" width="21" height="1" fill="#E22626"/><rect x="363" y="290" width="21" height="1" fill="#E22626"/><rect x="107" y="291" width="21" height="1" fill="#E22626"/><rect x="363" y="291" width="21" height="1" fill="#E22626"/><rect x="107" y="292" width="21" height="1" fill="#E22626"/><rect x="363" y="292" width="21" height="1" fill="#E22626"/><rect x="107" y="293" width="21" height="1" fill="#E22626"/><rect x="363" y="293" width="21" height="1" fill="#E22626"/><rect x="107" y="294" width="21" height="1" fill="#E22626"/><rect x="363" y="294" width="21" height="1" fill="#E22626"/><rect x="107" y="295" width="21" height="1" fill="#E22626"/><rect x="363" y="295" width="21" height="1" fill="#E22626"/><rect x="107" y="296" width="21" height="1" fill="#E22626"/><rect x="363" y="296" width="21" height="1" fill="#E22626"/><rect x="107" y="297" width="21" height="1" fill="#E22626"/><rect x="363" y="297" width="21" height="1" fill="#E22626"/><rect x="107" y="298" width="21" height="1" fill="#E22626"/><rect x="363" y="298" width="21" height="1" fill="#E22626"/><rect x="85" y="299" width="43" height="1" fill="#E22626"/><rect x="363" y="299" width="42" height="1" fill="#E22626"/><rect x="85" y="300" width="43" height="1" fill="#E22626"/><rect x="363" y="300" width="42" height="1" fill="#E22626"/><rect x="85" y="301" width="43" height="1" fill="#E22626"/><rect x="363" y="301" width="42" height="1" fill="#E22626"/><rect x="85" y="302" width="43" height="1" fill="#E22626"/><rect x="363" y="302" width="42" height="1" fill="#E22626"/><rect x="85" y="303" width="43" height="1" fill="#E22626"/><rect x="363" y="303" width="42" height="1" fill="#E22626"/><rect x="85" y="304" width="43" height="1" fill="#E22626"/><rect x="363" y="304" width="42" height="1" fill="#E22626"/><rect x="85" y="305" width="43" height="1" fill="#E22626"/><rect x="363" y="305" width="42" height="1" fill="#E22626"/><rect x="85" y="306" width="43" height="1" fill="#E22626"/><rect x="363" y="306" width="42" height="1" fill="#E22626"/><rect x="85" y="307" width="43" height="1" fill="#E22626"/><rect x="363" y="307" width="42" height="1" fill="#E22626"/><rect x="85" y="308" width="43" height="1" fill="#E22626"/><rect x="363" y="308" width="42" height="1" fill="#E22626"/><rect x="85" y="309" width="43" height="1" fill="#E22626"/><rect x="363" y="309" width="42" height="1" fill="#E22626"/><rect x="85" y="310" width="43" height="1" fill="#E22626"/><rect x="363" y="310" width="42" height="1" fill="#E22626"/><rect x="85" y="311" width="43" height="1" fill="#E22626"/><rect x="363" y="311" width="42" height="1" fill="#E22626"/><rect x="85" y="312" width="43" height="1" fill="#E22626"/><rect x="363" y="312" width="42" height="1" fill="#E22626"/><rect x="85" y="313" width="43" height="1" fill="#E22626"/><rect x="363" y="313" width="42" height="1" fill="#E22626"/><rect x="85" y="314" width="43" height="1" fill="#E22626"/><rect x="363" y="314" width="42" height="1" fill="#E22626"/><rect x="85" y="315" width="43" height="1" fill="#E22626"/><rect x="363" y="315" width="42" height="1" fill="#E22626"/><rect x="85" y="316" width="43" height="1" fill="#E22626"/><rect x="363" y="316" width="42" height="1" fill="#E22626"/><rect x="85" y="317" width="43" height="1" fill="#E22626"/><rect x="363" y="317" width="42" height="1" fill="#E22626"/><rect x="85" y="318" width="43" height="1" fill="#E22626"/><rect x="363" y="318" width="42" height="1" fill="#E22626"/><rect x="85" y="319" width="43" height="1" fill="#E22626"/><rect x="363" y="319" width="42" height="1" fill="#E22626"/><rect x="107" y="320" width="42" height="1" fill="#E22626"/><rect x="363" y="320" width="21" height="1" fill="#E22626"/><rect x="107" y="321" width="42" height="1" fill="#E22626"/><rect x="363" y="321" width="21" height="1" fill="#E22626"/><rect x="107" y="322" width="42" height="1" fill="#E22626"/><rect x="363" y="322" width="21" height="1" fill="#E22626"/><rect x="107" y="323" width="42" height="1" fill="#E22626"/><rect x="363" y="323" width="21" height="1" fill="#E22626"/><rect x="107" y="324" width="42" height="1" fill="#E22626"/><rect x="363" y="324" width="21" height="1" fill="#E22626"/><rect x="107" y="325" width="42" height="1" fill="#E22626"/><rect x="363" y="325" width="21" height="1" fill="#E22626"/><rect x="107" y="326" width="42" height="1" fill="#E22626"/><rect x="363" y="326" width="21" height="1" fill="#E22626"/><rect x="107" y="327" width="42" height="1" fill="#E22626"/><rect x="363" y="327" width="21" height="1" fill="#E22626"/><rect x="107" y="328" width="42" height="1" fill="#E22626"/><rect x="363" y="328" width="21" height="1" fill="#E22626"/><rect x="107" y="329" width="42" height="1" fill="#E22626"/><rect x="363" y="329" width="21" height="1" fill="#E22626"/><rect x="107" y="330" width="42" height="1" fill="#E22626"/><rect x="363" y="330" width="21" height="1" fill="#E22626"/><rect x="107" y="331" width="42" height="1" fill="#E22626"/><rect x="363" y="331" width="21" height="1" fill="#E22626"/><rect x="107" y="332" width="42" height="1" fill="#E22626"/><rect x="363" y="332" width="21" height="1" fill="#E22626"/><rect x="107" y="333" width="42" height="1" fill="#E22626"/><rect x="363" y="333" width="21" height="1" fill="#E22626"/><rect x="107" y="334" width="42" height="1" fill="#E22626"/><rect x="363" y="334" width="21" height="1" fill="#E22626"/><rect x="107" y="335" width="42" height="1" fill="#E22626"/><rect x="363" y="335" width="21" height="1" fill="#E22626"/><rect x="107" y="336" width="42" height="1" fill="#E22626"/><rect x="363" y="336" width="21" height="1" fill="#E22626"/><rect x="107" y="337" width="42" height="1" fill="#E22626"/><rect x="363" y="337" width="21" height="1" fill="#E22626"/><rect x="107" y="338" width="42" height="1" fill="#E22626"/><rect x="363" y="338" width="21" height="1" fill="#E22626"/><rect x="107" y="339" width="42" height="1" fill="#E22626"/><rect x="363" y="339" width="21" height="1" fill="#E22626"/><rect x="107" y="340" width="42" height="1" fill="#E22626"/><rect x="363" y="340" width="21" height="1" fill="#E22626"/><rect x="128" y="341" width="21" height="1" fill="#E22626"/><rect x="363" y="341" width="21" height="1" fill="#E22626"/><rect x="128" y="342" width="21" height="1" fill="#E22626"/><rect x="363" y="342" width="21" height="1" fill="#E22626"/><rect x="128" y="343" width="21" height="1" fill="#E22626"/><rect x="363" y="343" width="21" height="1" fill="#E22626"/><rect x="128" y="344" width="21" height="1" fill="#E22626"/><rect x="363" y="344" width="21" height="1" fill="#E22626"/><rect x="128" y="345" width="21" height="1" fill="#E22626"/><rect x="363" y="345" width="21" height="1" fill="#E22626"/><rect x="128" y="346" width="21" height="1" fill="#E22626"/><rect x="363" y="346" width="21" height="1" fill="#E22626"/><rect x="128" y="347" width="21" height="1" fill="#E22626"/><rect x="363" y="347" width="21" height="1" fill="#E22626"/><rect x="128" y="348" width="21" height="1" fill="#E22626"/><rect x="363" y="348" width="21" height="1" fill="#E22626"/><rect x="128" y="349" width="21" height="1" fill="#E22626"/><rect x="363" y="349" width="21" height="1" fill="#E22626"/><rect x="128" y="350" width="21" height="1" fill="#E22626"/><rect x="363" y="350" width="21" height="1" fill="#E22626"/><rect x="128" y="351" width="21" height="1" fill="#E22626"/><rect x="363" y="351" width="21" height="1" fill="#E22626"/><rect x="128" y="352" width="21" height="1" fill="#E22626"/><rect x="363" y="352" width="21" height="1" fill="#E22626"/><rect x="128" y="353" width="21" height="1" fill="#E22626"/><rect x="363" y="353" width="21" height="1" fill="#E22626"/><rect x="128" y="354" width="21" height="1" fill="#E22626"/><rect x="363" y="354" width="21" height="1" fill="#E22626"/><rect x="128" y="355" width="21" height="1" fill="#E22626"/><rect x="363" y="355" width="21" height="1" fill="#E22626"/><rect x="128" y="356" width="21" height="1" fill="#E22626"/><rect x="363" y="356" width="21" height="1" fill="#E22626"/><rect x="128" y="357" width="21" height="1" fill="#E22626"/><rect x="363" y="357" width="21" height="1" fill="#E22626"/><rect x="128" y="358" width="21" height="1" fill="#E22626"/><rect x="363" y="358" width="21" height="1" fill="#E22626"/><rect x="128" y="359" width="21" height="1" fill="#E22626"/><rect x="363" y="359" width="21" height="1" fill="#E22626"/><rect x="128" y="360" width="21" height="1" fill="#E22626"/><rect x="363" y="360" width="21" height="1" fill="#E22626"/><rect x="128" y="361" width="21" height="1" fill="#E22626"/><rect x="363" y="361" width="21" height="1" fill="#E22626"/><rect x="128" y="362" width="21" height="1" fill="#E22626"/><rect x="363" y="362" width="21" height="1" fill="#E22626"/></svg>