<svg xmlns="http://www.w3.org/2000/svg" viewBox="0 0 512 512" width="512" height="512" shape-rendering="crispEdges"><rect x="107" y="299" width="21" height="1" fill="#000000"/><rect x="128" y="299" width="21" height="1" fill="#FFD926"/><rect x="107" y="300" width="21" height="1" fill="#000000"/><rect x="128" y="300" width="21" height="1" fill="#FFD926"/><rect x="107" y="301" width="21" height="1" fill="#000000"/><rect x="128" y="301" width="21" height="1" fill="#FFD926"/><rect x="107" y="302" width="21" height="1" fill="#000000"/><rect x="128" y="302" width="21" height="1" fill="#FFD926"/><rect x="107" y="303" width="21" height="1" fill="#000000"/><rect x="128" y="303" width="21" height="1" fill="#FFD926"/><rect x="107" y="304" width="21" height="1" fill="#000000"/><rect x="128" y="304" width="21" height="1" fill="#FFD926"/><rect x="107" y="305" width="21" height="1" fill="#000000"/><rect x="128" y="305" width="21" height="1" fill="#FFD926"/><rect x="107" y="306" width="21" height="1" fill="#000000"/><rect x="128" y="306" width="21" height="1" fill="#FFD926"/><rect x="107" y="307" width="21" height="1" fill="#000000"/><rect x="128" y="307" width="21" height="1" fill="#FFD926"/><rect x="107" y="308" width="21" height="1" fill="#000000"/><rect x="128" y="308" width="21" height="1" fill="#FFD926"/><rect x="107" y="309" width="21" height="1" fill="#000000"/><rect x="128" y="309" width="21" height="1" fill="#FFD926"/><rect x="107" y="310" width="21" height="1" fill="#000000"/><rect x="128" y="310" width="21" height="1" fill="#FFD926"/><rect x="107" y="311" width="21" height="1" fill="#000000"/><rect x="128" y="311" width="21" height="1" fill="#FFD926"/><rect x="107" y="312" width="21" height="1" fill="#000000"/><rect x="128" y="312" width="21" height="1" fill="#FFD926"/><rect x="107" y="313" width="21" height="1" fill="#000000"/><rect x="128" y="313" width="21" height="1" fill="#FFD926"/><rect x="107" y="314" width="21" height="1" fill="#000000"/><rect x="128" y="314" width="21" height="1" fill="#FFD926"/><rect x="107" y="315" width="21" height="1" fill="#000000"/><rect x="128" y="315" width="21" height="1" fill="#FFD926"/><rect x="107" y="316" width="21" height="1" fill="#000000"/><rect x="128" y="316" width="21" height="1" fill="#FFD926"/><rect x="107" y="317" width="21" height="1" fill="#000000"/><rect x="128" y="317" width="21" height="1" fill="#FFD926"/><rect x="107" y="318" width="21" height="1" fill="#000000"/><rect x="128" y="318" width="21" height="1" fill="#FFD926"/><rect x="107" y="319" width="21" height="1" fill="#000000"/><rect x="128" y="319" width="21" height="1" fill="#FFD926"/><rect x="128" y="320" width="21" height="1" fill="#000000"/><rect x="128" y="321" width="21" height="1" fill="#000000"/><rect x="128" y="322" width="21" height="1" fill="#000000"/><rect x="128" y="323" width="21" height="1" fill="#000000"/><rect x="128" y="324" width="21" height="1" fill="#000000"/><rect x="128" y="325" width="21" height="1" fill="#000000"/><rect x="128" y="326" width="21" height="1" fill="#000000"/><rect x="128" y="327" width="21" height="1" fill="#000000"/><rect x="128" y="328" width="21" height="1" fill="#000000"/><rect x="128" y="329" width="21" height="1" fill="#000000"/><rect x="128" y="330" width="21" height="1" fill="#000000"/><rect x="128" y="331" width="21" height="1" fill="#000000"/><rect x="128" y="332" width="21" height="1" fill="#000000"/><rect x="128" y="333" width="21" height="1" fill="#000000"/><rect x="128" y="334" width="21" height="1" fill="#000000"/><rect x="128" y="335" width="21" height="1" fill="#000000"/><rect x="128" y="336" width="21" height="1" fill="#000000"/><rect x="128" y="337" width="21" height="1" fill="#000000"/><rect x="128" y="338" width="21" height="1" fill="#000000"/><rect x="128" y="339" width="21" height="1" fill="#000000"/><rect x="128" y="340" width="21" height="1" fill="#000000"/></svg>