<svg xmlns="http://www.w3.org/2000/svg" viewBox="0 0 512 512" width="512" height="512" shape-rendering="crispEdges"><rect x="149" y="235" width="192" height="1" fill="#000000"/><rect x="149" y="236" width="192" height="1" fill="#000000"/><rect x="149" y="237" width="192" height="1" fill="#000000"/><rect x="149" y="238" width="192" height="1" fill="#000000"/><rect x="149" y="239" width="192" height="1" fill="#000000"/><rect x="149" y="240" width="192" height="1" fill="#000000"/><rect x="149" y="241" width="192" height="1" fill="#000000"/><rect x="149" y="242" width="192" height="1" fill="#000000"/><rect x="149" y="243" width="192" height="1" fill="#000000"/><rect x="149" y="244" width="192" height="1" fill="#000000"/><rect x="149" y="245" width="192" height="1" fill="#000000"/><rect x="149" y="246" width="192" height="1" fill="#000000"/><rect x="149" y="247" width="192" height="1" fill="#000000"/><rect x="149" y="248" width="192" height="1" fill="#000000"/><rect x="149" y="249" width="192" height="1" fill="#000000"/><rect x="149" y="250" width="192" height="1" fill="#000000"/><rect x="149" y="251" width="192" height="1" fill="#000000"/><rect x="149" y="252" width="192" height="1" fill="#000000"/><rect x="149" y="253" width="192" height="1" fill="#000000"/><rect x="149" y="254" width="192" height="1" fill="#000000"/><rect x="149" y="255" width="192" height="1" fill="#000000"/><rect x="171" y="256" width="85" height="1" fill="#000000"/><rect x="171" y="257" width="85" height="1" fill="#000000"/><rect x="171" y="258" width="85" height="1" fill="#000000"/><rect x="171" y="259" width="85" height="1" fill="#000000"/><rect x="171" y="260" width="85" height="1" fill="#000000"/><rect x="171" y="261" width="85" height="1" fill="#000000"/><rect x="171" y="262" width="85" height="1" fill="#000000"/><rect x="171" y="263" width="85" height="1" fill="#000000"/><rect x="171" y="264" width="85" height="1" fill="#000000"/><rect x="171" y="265" width="85" height="1" fill="#000000"/><rect x="171" y="266" width="85" height="1" fill="#000000"/><rect x="171" y="267" width="85" height="1" fill="#000000"/><rect x="171" y="268" width="85" height="1" fill="#000000"/><rect x="171" y="269" width="85" height="1" fill="#000000"/><rect x="171" y="270" width="85" height="1" fill="#000000"/><rect x="171" y="271" width="85" height="1" fill="#000000"/><rect x="171" y="272" width="85" height="1" fill="#000000"/><rect x="171" y="273" width="85" height="1" fill="#000000"/><rect x="171" y="274" width="85" height="1" fill="#000000"/><rect x="171" y="275" width="85" height="1" fill="#000000"/><rect x="171" y="276" width="85" height="1" fill="#000000"/><rect x="171" y="277" width="85" height="1" fill="#000000"/><rect x="171" y="278" width="85" height="1" fill="#000000"/><rect x="171" y="279" width="85" height="1" fill="#000000"/><rect x="171" y="280" width="85" height="1" fill="#000000"/><rect x="171" y="281" width="85" height="1" fill="#000000"/><rect x="171" y="282" width="85" height="1" fill="#000000"/><rect x="171" y="283" width="85" height="1" fill="#000000"/><rect x="171" y="284" width="85" height="1" fill="#000000"/><rect x="171" y="285" width="85" height="1" fill="#000000"/><rect x="171" y="286" width="85" height="1" fill="#000000"/><rect x="171" y="287" width="85" height="1" fill="#000000"/><rect x="171" y="288" width="85" height="1" fill="#000000"/><rect x="171" y="289" width="85" height="1" fill="#000000"/><rect x="171" y="290" width="85" height="1" fill="#000000"/><rect x="171" y="291" width="85" height="1" fill="#000000"/><rect x="171" y="292" width="85" height="1" fill="#000000"/><rect x="171" y="293" width="85" height="1" fill="#000000"/><rect x="171" y="294" width="85" height="1" fill="#000000"/><rect x="171" y="295" width="85" height="1" fill="#000000"/><rect x="171" y="296" width="85" height="1" fill="#000000"/><rect x="171" y="297" width="85" height="1" fill="#000000"/><rect x="171" y="298" width="85" height="1" fill="#000000"/><rect x="192" y="299" width="43" height="1" fill="#000000"/><rect x="192" y="300" width="43" height="1" fill="#000000"/><rect x="192" y="301" width="43" height="1" fill="#000000"/><rect x="192" y="302" width="43" height="1" fill="#000000"/><rect x="192" y="303" width="43" height="1" fill="#000000"/><rect x="192" y="304" width="43" height="1" fill="#000000"/><rect x="192" y="305" width="43" height="1" fill="#000000"/><rect x="192" y="306" width="43" height="1" fill="#000000"/><rect x="192" y="307" width="43" height="1" fill="#000000"/><rect x="192" y="308" width="43" height="1" fill="#000000"/><rect x="192" y="309" width="43" height="1" fill="#000000"/><rect x="192" y="310" width="43" height="1" fill="#000000"/><rect x="192" y="311" width="43" height="1" fill="#000000"/><rect x="192" y="312" width="43" height="1" fill="#000000"/><rect x="192" y="313" width="43" height="1" fill="#000000"/><rect x="192" y="314" width="43" height="1" fill="#000000"/><rect x="192" y="315" width="43" height="1" fill="#000000"/><rect x="192" y="316" width="43" height="1" fill="#000000"/><rect x="192" y="317" width="43" height="1" fill="#000000"/><rect x="192" y="318" width="43" height="1" fill="#000000"/><rect x="192" y="319" width="43" height="1" fill="#000000"/></svg>