<svg xmlns="http://www.w3.org/2000/svg" viewBox="0 0 512 512" width="512" height="512" shape-rendering="crispEdges"><rect x="171" y="85" width="149" height="1" fill="#000000"/><rect x="171" y="86" width="149" height="1" fill="#000000"/><rect x="171" y="87" width="149" height="1" fill="#000000"/><rect x="171" y="88" width="149" height="1" fill="#000000"/><rect x="171" y="89" width="149" height="1" fill="#000000"/><rect x="171" y="90" width="149" height="1" fill="#000000"/><rect x="171" y="91" width="149" height="1" fill="#000000"/><rect x="171" y="92" width="149" height="1" fill="#000000"/><rect x="171" y="93" width="149" height="1" fill="#000000"/><rect x="171" y="94" width="149" height="1" fill="#000000"/><rect x="171" y="95" width="149" height="1" fill="#000000"/><rect x="171" y="96" width="149" height="1" fill="#000000"/><rect x="171" y="97" width="149" height="1" fill="#000000"/><rect x="171" y="98" width="149" height="1" fill="#000000"/><rect x="171" y="99" width="149" height="1" fill="#000000"/><rect x="171" y="100" width="149" height="1" fill="#000000"/><rect x="171" y="101" width="149" height="1" fill="#000000"/><rect x="171" y="102" width="149" height="1" fill="#000000"/><rect x="171" y="103" width="149" height="1" fill="#000000"/><rect x="171" y="104" width="149" height="1" fill="#000000"/><rect x="171" y="105" width="149" height="1" fill="#000000"/><rect x="171" y="106" width="149" height="1" fill="#000000"/><rect x="149" y="107" width="43" height="1" fill="#000000"/><rect x="192" y="107" width="21" height="1" fill="#2A2A2A"/><rect x="213" y="107" width="128" height="1" fill="#000000"/><rect x="149" y="108" width="43" height="1" fill="#000000"/><rect x="192" y="108" width="21" height="1" fill="#2A2A2A"/><rect x="213" y="108" width="128" height="1" fill="#000000"/><rect x="149" y="109" width="43" height="1" fill="#000000"/><rect x="192" y="109" width="21" height="1" fill="#2A2A2A"/><rect x="213" y="109" width="128" height="1" fill="#000000"/><rect x="149" y="110" width="43" height="1" fill="#000000"/><rect x="192" y="110" width="21" height="1" fill="#2A2A2A"/><rect x="213" y="110" width="128" height="1" fill="#000000"/><rect x="149" y="111" width="43" height="1" fill="#000000"/><rect x="192" y="111" width="21" height="1" fill="#2A2A2A"/><rect x="213" y="111" width="128" height="1" fill="#000000"/><rect x="149" y="112" width="43" height="1" fill="#000000"/><rect x="192" y="112" width="21" height="1" fill="#2A2A2A"/><rect x="213" y="112" width="128" height="1" fill="#000000"/><rect x="149" y="113" width="43" height="1" fill="#000000"/><rect x="192" y="113" width="21" height="1" fill="#2A2A2A"/><rect x="213" y="113" width="128" height="1" fill="#000000"/><rect x="149" y="114" width="43" height="1" fill="#000000"/><rect x="192" y="114" width="21" height="1" fill="#2A2A2A"/><rect x="213" y="114" width="128" height="1" fill="#000000"/><rect x="149" y="115" width="43" height="1" fill="#000000"/><rect x="192" y="115" width="21" height="1" fill="#2A2A2A"/><rect x="213" y="115" width="128" height="1" fill="#000000"/><rect x="149" y="116" width="43" height="1" fill="#000000"/><rect x="192" y="116" width="21" height="1" fill="#2A2A2A"/><rect x="213" y="116" width="128" height="1" fill="#000000"/><rect x="149" y="117" width="43" height="1" fill="#000000"/><rect x="192" y="117" width="21" height="1" fill="#2A2A2A"/><rect x="213" y="117" width="128" height="1" fill="#000000"/><rect x="149" y="118" width="43" height="1" fill="#000000"/><rect x="192" y="118" width="21" height="1" fill="#2A2A2A"/><rect x="213" y="118" width="128" height="1" fill="#000000"/><rect x="149" y="119" width="43" height="1" fill="#000000"/><rect x="192" y="119" width="21" height="1" fill="#2A2A2A"/><rect x="213" y="119" width="128" height="1" fill="#000000"/><rect x="149" y="120" width="43" height="1" fill="#000000"/><rect x="192" y="120" width="21" height="1" fill="#2A2A2A"/><rect x="213" y="120" width="128" height="1" fill="#000000"/><rect x="149" y="121" width="43" height="1" fill="#000000"/><rect x="192" y="121" width="21" height="1" fill="#2A2A2A"/><rect x="213" y="121" width="128" height="1" fill="#000000"/><rect x="149" y="122" width="43" height="1" fill="#000000"/><rect x="192" y="122" width="21" height="1" fill="#2A2A2A"/><rect x="213" y="122" width="128" height="1" fill="#000000"/><rect x="149" y="123" width="43" height="1" fill="#000000"/><rect x="192" y="123" width="21" height="1" fill="#2A2A2A"/><rect x="213" y="123" width="128" height="1" fill="#000000"/><rect x="149" y="124" width="43" height="1" fill="#000000"/><rect x="192" y="124" width="21" height="1" fill="#2A2A2A"/><rect x="213" y="124" width="128" height="1" fill="#000000"/><rect x="149" y="125" width="43" height="1" fill="#000000"/><rect x="192" y="125" width="21" height="1" fill="#2A2A2A"/><rect x="213" y="125" width="128" height="1" fill="#000000"/><rect x="149" y="126" width="43" height="1" fill="#000000"/><rect x="192" y="126" width="21" height="1" fill="#2A2A2A"/><rect x="213" y="126" width="128" height="1" fill="#000000"/><rect x="149" y="127" width="43" height="1" fill="#000000"/><rect x="192" y="127" width="21" height="1" fill="#2A2A2A"/><rect x="213" y="127" width="128" height="1" fill="#000000"/><rect x="128" y="128" width="43" height="1" fill="#000000"/><rect x="171" y="128" width="21" height="1" fill="#2A2A2A"/><rect x="192" y="128" width="171" height="1" fill="#000000"/><rect x="128" y="129" width="43" height="1" fill="#000000"/><rect x="171" y="129" width="21" height="1" fill="#2A2A2A"/><rect x="192" y="129" width="171" height="1" fill="#000000"/><rect x="128" y="130" width="43" height="1" fill="#000000"/><rect x="171" y="130" width="21" height="1" fill="#2A2A2A"/><rect x="192" y="130" width="171" height="1" fill="#000000"/><rect x="128" y="131" width="43" height="1" fill="#000000"/><rect x="171" y="131" width="21" height="1" fill="#2A2A2A"/><rect x="192" y="131" width="171" height="1" fill="#000000"/><rect x="128" y="132" width="43" height="1" fill="#000000"/><rect x="171" y="132" width="21" height="1" fill="#2A2A2A"/><rect x="192" y="132" width="171" height="1" fill="#000000"/><rect x="128" y="133" width="43" height="1" fill="#000000"/><rect x="171" y="133" width="21" height="1" fill="#2A2A2A"/><rect x="192" y="133" width="171" height="1" fill="#000000"/><rect x="128" y="134" width="43" height="1" fill="#000000"/><rect x="171" y="134" width="21" height="1" fill="#2A2A2A"/><rect x="192" y="134" width="171" height="1" fill="#000000"/><rect x="128" y="135" width="43" height="1" fill="#000000"/><rect x="171" y="135" width="21" height="1" fill="#2A2A2A"/><rect x="192" y="135" width="171" height="1" fill="#000000"/><rect x="128" y="136" width="43" height="1" fill="#000000"/><rect x="171" y="136" width="21" height="1" fill="#2A2A2A"/><rect x="192" y="136" width="171" height="1" fill="#000000"/><rect x="128" y="137" width="43" height="1" fill="#000000"/><rect x="171" y="137" width="21" height="1" fill="#2A2A2A"/><rect x="192" y="137" width="171" height="1" fill="#000000"/><rect x="128" y="138" width="43" height="1" fill="#000000"/><rect x="171" y="138" width="21" height="1" fill="#2A2A2A"/><rect x="192" y="138" width="171" height="1" fill="#000000"/><rect x="128" y="139" width="43" height="1" fill="#000000"/><rect x="171" y="139" width="21" height="1" fill="#2A2A2A"/><rect x="192" y="139" width="171" height="1" fill="#000000"/><rect x="128" y="140" width="43" height="1" fill="#000000"/><rect x="171" y="140" width="21" height="1" fill="#2A2A2A"/><rect x="192" y="140" width="171" height="1" fill="#000000"/><rect x="128" y="141" width="43" height="1" fill="#000000"/><rect x="171" y="141" width="21" height="1" fill="#2A2A2A"/><rect x="192" y="141" width="171" height="1" fill="#000000"/><rect x="128" y="142" width="43" height="1" fill="#000000"/><rect x="171" y="142" width="21" height="1" fill="#2A2A2A"/><rect x="192" y="142" width="171" height="1" fill="#000000"/><rect x="128" y="143" width="43" height="1" fill="#000000"/><rect x="171" y="143" width="21" height="1" fill="#2A2A2A"/><rect x="192" y="143" width="171" height="1" fill="#000000"/><rect x="128" y="144" width="43" height="1" fill="#000000"/><rect x="171" y="144" width="21" height="1" fill="#2A2A2A"/><rect x="192" y="144" width="171" height="1" fill="#000000"/><rect x="128" y="145" width="43" height="1" fill="#000000"/><rect x="171" y="145" width="21" height="1" fill="#2A2A2A"/><rect x="192" y="145" width="171" height="1" fill="#000000"/><rect x="128" y="146" width="43" height="1" fill="#000000"/><rect x="171" y="146" width="21" height="1" fill="#2A2A2A"/><rect x="192" y="146" width="171" height="1" fill="#000000"/><rect x="128" y="147" width="43" height="1" fill="#000000"/><rect x="171" y="147" width="21" height="1" fill="#2A2A2A"/><rect x="192" y="147" width="171" height="1" fill="#000000"/><rect x="128" y="148" width="43" height="1" fill="#000000"/><rect x="171" y="148" width="21" height="1" fill="#2A2A2A"/><rect x="192" y="148" width="171" height="1" fill="#000000"/><rect x="107" y="149" width="277" height="1" fill="#000000"/><rect x="107" y="150" width="277" height="1" fill="#000000"/><rect x="107" y="151" width="277" height="1" fill="#000000"/><rect x="107" y="152" width="277" height="1" fill="#000000"/><rect x="107" y="153" width="277" height="1" fill="#000000"/><rect x="107" y="154" width="277" height="1" fill="#000000"/><rect x="107" y="155" width="277" height="1" fill="#000000"/><rect x="107" y="156" width="277" height="1" fill="#000000"/><rect x="107" y="157" width="277" height="1" fill="#000000"/><rect x="107" y="158" width="277" height="1" fill="#000000"/><rect x="107" y="159" width="277" height="1" fill="#000000"/><rect x="107" y="160" width="277" height="1" fill="#000000"/><rect x="107" y="161" width="277" height="1" fill="#000000"/><rect x="107" y="162" width="277" height="1" fill="#000000"/><rect x="107" y="163" width="277" height="1" fill="#000000"/><rect x="107" y="164" width="277" height="1" fill="#000000"/><rect x="107" y="165" width="277" height="1" fill="#000000"/><rect x="107" y="166" width="277" height="1" fill="#000000"/><rect x="107" y="167" width="277" height="1" fill="#000000"/><rect x="107" y="168" width="277" height="1" fill="#000000"/><rect x="107" y="169" width="277" height="1" fill="#000000"/><rect x="107" y="170" width="277" height="1" fill="#000000"/><rect x="107" y="171" width="277" height="1" fill="#000000"/><rect x="107" y="172" width="277" height="1" fill="#000000"/><rect x="107" y="173" width="277" height="1" fill="#000000"/><rect x="107" y="174" width="277" height="1" fill="#000000"/><rect x="107" y="175" width="277" height="1" fill="#000000"/><rect x="107" y="176" width="277" height="1" fill="#000000"/><rect x="107" y="177" width="277" height="1" fill="#000000"/><rect x="107" y="178" width="277" height="1" fill="#000000"/><rect x="107" y="179" width="277" height="1" fill="#000000"/><rect x="107" y="180" width="277" height="1" fill="#000000"/><rect x="107" y="181" width="277" height="1" fill="#000000"/><rect x="107" y="182" width="277" height="1" fill="#000000"/><rect x="107" y="183" width="277" height="1" fill="#000000"/><rect x="107" y="184" width="277" height="1" fill="#000000"/><rect x="107" y="185" width="277" height="1" fill="#000000"/><rect x="107" y="186" width="277" height="1" fill="#000000"/><rect x="107" y="187" width="277" height="1" fill="#000000"/><rect x="107" y="188" width="277" height="1" fill="#000000"/><rect x="107" y="189" width="277" height="1" fill="#000000"/><rect x="107" y="190" width="277" height="1" fill="#000000"/><rect x="107" y="191" width="277" height="1" fill="#000000"/><rect x="107" y="192" width="277" height="1" fill="#000000"/><rect x="107" y="193" width="277" height="1" fill="#000000"/><rect x="107" y="194" width="277" height="1" fill="#000000"/><rect x="107" y="195" width="277" height="1" fill="#000000"/><rect x="107" y="196" width="277" height="1" fill="#000000"/><rect x="107" y="197" width="277" height="1" fill="#000000"/><rect x="107" y="198" width="277" height="1" fill="#000000"/><rect x="107" y="199" width="277" height="1" fill="#000000"/><rect x="107" y="200" width="277" height="1" fill="#000000"/><rect x="107" y="201" width="277" height="1" fill="#000000"/><rect x="107" y="202" width="277" height="1" fill="#000000"/><rect x="107" y="203" width="277" height="1" fill="#000000"/><rect x="107" y="204" width="277" height="1" fill="#000000"/><rect x="107" y="205" width="277" height="1" fill="#000000"/><rect x="107" y="206" width="277" height="1" fill="#000000"/><rect x="107" y="207" width="277" height="1" fill="#000000"/><rect x="107" y="208" width="277" height="1" fill="#000000"/><rect x="107" y="209" width="277" height="1" fill="#000000"/><rect x="107" y="210" width="277" height="1" fill="#000000"/><rect x="107" y="211" width="277" height="1" fill="#000000"/><rect x="107" y="212" width="277" height="1" fill="#000000"/><rect x="107" y="213" width="106" height="1" fill="#000000"/><rect x="235" y="213" width="149" height="1" fill="#000000"/><rect x="107" y="214" width="106" height="1" fill="#000000"/><rect x="235" y="214" width="149" height="1" fill="#000000"/><rect x="107" y="215" width="106" height="1" fill="#000000"/><rect x="235" y="215" width="149" height="1" fill="#000000"/><rect x="107" y="216" width="106" height="1" fill="#000000"/><rect x="235" y="216" width="149" height="1" fill="#000000"/><rect x="107" y="217" width="106" height="1" fill="#000000"/><rect x="235" y="217" width="149" height="1" fill="#000000"/><rect x="107" y="218" width="106" height="1" fill="#000000"/><rect x="235" y="218" width="149" height="1" fill="#000000"/><rect x="107" y="219" width="106" height="1" fill="#000000"/><rect x="235" y="219" width="149" height="1" fill="#000000"/><rect x="107" y="220" width="106" height="1" fill="#000000"/><rect x="235" y="220" width="149" height="1" fill="#000000"/><rect x="107" y="221" width="106" height="1" fill="#000000"/><rect x="235" y="221" width="149" height="1" fill="#000000"/><rect x="107" y="222" width="106" height="1" fill="#000000"/><rect x="235" y="222" width="149" height="1" fill="#000000"/><rect x="107" y="223" width="106" height="1" fill="#000000"/><rect x="235" y="223" width="149" height="1" fill="#000000"/><rect x="107" y="224" width="106" height="1" fill="#000000"/><rect x="235" y="224" width="149" height="1" fill="#000000"/><rect x="107" y="225" width="106" height="1" fill="#000000"/><rect x="235" y="225" width="149" height="1" fill="#000000"/><rect x="107" y="226" width="106" height="1" fill="#000000"/><rect x="235" y="226" width="149" height="1" fill="#000000"/><rect x="107" y="227" width="106" height="1" fill="#000000"/><rect x="235" y="227" width="149" height="1" fill="#000000"/><rect x="107" y="228" width="106" height="1" fill="#000000"/><rect x="235" y="228" width="149" height="1" fill="#000000"/><rect x="107" y="229" width="106" height="1" fill="#000000"/><rect x="235" y="229" width="149" height="1" fill="#000000"/><rect x="107" y="230" width="106" height="1" fill="#000000"/><rect x="235" y="230" width="149" height="1" fill="#000000"/><rect x="107" y="231" width="106" height="1" fill="#000000"/><rect x="235" y="231" width="149" height="1" fill="#000000"/><rect x="107" y="232" width="106" height="1" fill="#000000"/><rect x="235" y="232" width="149" height="1" fill="#000000"/><rect x="107" y="233" width="106" height="1" fill="#000000"/><rect x="235" y="233" width="149" height="1" fill="#000000"/><rect x="107" y="234" width="106" height="1" fill="#000000"/><rect x="235" y="234" width="149" height="1" fill="#000000"/><rect x="107" y="235" width="85" height="1" fill="#000000"/><rect x="235" y="235" width="64" height="1" fill="#000000"/><rect x="341" y="235" width="43" height="1" fill="#000000"/><rect x="107" y="236" width="85" height="1" fill="#000000"/><rect x="235" y="236" width="64" height="1" fill="#000000"/><rect x="341" y="236" width="43" height="1" fill="#000000"/><rect x="107" y="237" width="85" height="1" fill="#000000"/><rect x="235" y="237" width="64" height="1" fill="#000000"/><rect x="341" y="237" width="43" height="1" fill="#000000"/><rect x="107" y="238" width="85" height="1" fill="#000000"/><rect x="235" y="238" width="64" height="1" fill="#000000"/><rect x="341" y="238" width="43" height="1" fill="#000000"/><rect x="107" y="239" width="85" height="1" fill="#000000"/><rect x="235" y="239" width="64" height="1" fill="#000000"/><rect x="341" y="239" width="43" height="1" fill="#000000"/><rect x="107" y="240" width="85" height="1" fill="#000000"/><rect x="235" y="240" width="64" height="1" fill="#000000"/><rect x="341" y="240" width="43" height="1" fill="#000000"/><rect x="107" y="241" width="85" height="1" fill="#000000"/><rect x="235" y="241" width="64" height="1" fill="#000000"/><rect x="341" y="241" width="43" height="1" fill="#000000"/><rect x="107" y="242" width="85" height="1" fill="#000000"/><rect x="235" y="242" width="64" height="1" fill="#000000"/><rect x="341" y="242" width="43" height="1" fill="#000000"/><rect x="107" y="243" width="85" height="1" fill="#000000"/><rect x="235" y="243" width="64" height="1" fill="#000000"/><rect x="341" y="243" width="43" height="1" fill="#000000"/><rect x="107" y="244" width="85" height="1" fill="#000000"/><rect x="235" y="244" width="64" height="1" fill="#000000"/><rect x="341" y="244" width="43" height="1" fill="#000000"/><rect x="107" y="245" width="85" height="1" fill="#000000"/><rect x="235" y="245" width="64" height="1" fill="#000000"/><rect x="341" y="245" width="43" height="1" fill="#000000"/><rect x="107" y="246" width="85" height="1" fill="#000000"/><rect x="235" y="246" width="64" height="1" fill="#000000"/><rect x="341" y="246" width="43" height="1" fill="#000000"/><rect x="107" y="247" width="85" height="1" fill="#000000"/><rect x="235" y="247" width="64" height="1" fill="#000000"/><rect x="341" y="247" width="43" height="1" fill="#000000"/><rect x="107" y="248" width="85" height="1" fill="#000000"/><rect x="235" y="248" width="64" height="1" fill="#000000"/><rect x="341" y="248" width="43" height="1" fill="#000000"/><rect x="107" y="249" width="85" height="1" fill="#000000"/><rect x="235" y="249" width="64" height="1" fill="#000000"/><rect x="341" y="249" width="43" height="1" fill="#000000"/><rect x="107" y="250" width="85" height="1" fill="#000000"/><rect x="235" y="250" width="64" height="1" fill="#000000"/><rect x="341" y="250" width="43" height="1" fill="#000000"/><rect x="107" y="251" width="85" height="1" fill="#000000"/><rect x="235" y="251" width="64" height="1" fill="#000000"/><rect x="341" y="251" width="43" height="1" fill="#000000"/><rect x="107" y="252" width="85" height="1" fill="#000000"/><rect x="235" y="252" width="64" height="1" fill="#000000"/><rect x="341" y="252" width="43" height="1" fill="#000000"/><rect x="107" y="253" width="85" height="1" fill="#000000"/><rect x="235" y="253" width="64" height="1" fill="#000000"/><rect x="341" y="253" width="43" height="1" fill="#000000"/><rect x="107" y="254" width="85" height="1" fill="#000000"/><rect x="235" y="254" width="64" height="1" fill="#000000"/><rect x="341" y="254" width="43" height="1" fill="#000000"/><rect x="107" y="255" width="85" height="1" fill="#000000"/><rect x="235" y="255" width="64" height="1" fill="#000000"/><rect x="341" y="255" width="43" height="1" fill="#000000"/><rect x="85" y="256" width="86" height="1" fill="#000000"/><rect x="256" y="256" width="21" height="1" fill="#000000"/><rect x="341" y="256" width="64" height="1" fill="#000000"/><rect x="85" y="257" width="86" height="1" fill="#000000"/><rect x="256" y="257" width="21" height="1" fill="#000000"/><rect x="341" y="257" width="64" height="1" fill="#000000"/><rect x="85" y="258" width="86" height="1" fill="#000000"/><rect x="256" y="258" width="21" height="1" fill="#000000"/><rect x="341" y="258" width="64" height="1" fill="#000000"/><rect x="85" y="259" width="86" height="1" fill="#000000"/><rect x="256" y="259" width="21" height="1" fill="#000000"/><rect x="341" y="259" width="64" height="1" fill="#000000"/><rect x="85" y="260" width="86" height="1" fill="#000000"/><rect x="256" y="260" width="21" height="1" fill="#000000"/><rect x="341" y="260" width="64" height="1" fill="#000000"/><rect x="85" y="261" width="86" height="1" fill="#000000"/><rect x="256" y="261" width="21" height="1" fill="#000000"/><rect x="341" y="261" width="64" height="1" fill="#000000"/><rect x="85" y="262" width="86" height="1" fill="#000000"/><rect x="256" y="262" width="21" height="1" fill="#000000"/><rect x="341" y="262" width="64" height="1" fill="#000000"/><rect x="85" y="263" width="86" height="1" fill="#000000"/><rect x="256" y="263" width="21" height="1" fill="#000000"/><rect x="341" y="263" width="64" height="1" fill="#000000"/><rect x="85" y="264" width="86" height="1" fill="#000000"/><rect x="256" y="264" width="21" height="1" fill="#000000"/><rect x="341" y="264" width="64" height="1" fill="#000000"/><rect x="85" y="265" width="86" height="1" fill="#000000"/><rect x="256" y="265" width="21" height="1" fill="#000000"/><rect x="341" y="265" width="64" height="1" fill="#000000"/><rect x="85" y="266" width="86" height="1" fill="#000000"/><rect x="256" y="266" width="21" height="1" fill="#000000"/><rect x="341" y="266" width="64" height="1" fill="#000000"/><rect x="85" y="267" width="86" height="1" fill="#000000"/><rect x="256" y="267" width="21" height="1" fill="#000000"/><rect x="341" y="267" width="64" height="1" fill="#000000"/><rect x="85" y="268" width="86" height="1" fill="#000000"/><rect x="256" y="268" width="21" height="1" fill="#000000"/><rect x="341" y="268" width="64" height="1" fill="#000000"/><rect x="85" y="269" width="86" height="1" fill="#000000"/><rect x="256" y="269" width="21" height="1" fill="#000000"/><rect x="341" y="269" width="64" height="1" fill="#000000"/><rect x="85" y="270" width="86" height="1" fill="#000000"/><rect x="256" y="270" width="21" height="1" fill="#000000"/><rect x="341" y="270" width="64" height="1" fill="#000000"/><rect x="85" y="271" width="86" height="1" fill="#000000"/><rect x="256" y="271" width="21" height="1" fill="#000000"/><rect x="341" y="271" width="64" height="1" fill="#000000"/><rect x="85" y="272" width="86" height="1" fill="#000000"/><rect x="256" y="272" width="21" height="1" fill="#000000"/><rect x="341" y="272" width="64" height="1" fill="#000000"/><rect x="85" y="273" width="86" height="1" fill="#000000"/><rect x="256" y="273" width="21" height="1" fill="#000000"/><rect x="341" y="273" width="64" height="1" fill="#000000"/><rect x="85" y="274" width="86" height="1" fill="#000000"/><rect x="256" y="274" width="21" height="1" fill="#000000"/><rect x="341" y="274" width="64" height="1" fill="#000000"/><rect x="85" y="275" width="86" height="1" fill="#000000"/><rect x="256" y="275" width="21" height="1" fill="#000000"/><rect x="341" y="275" width="64" height="1" fill="#000000"/><rect x="85" y="276" width="86" height="1" fill="#000000"/><rect x="256" y="276" width="21" height="1" fill="#000000"/><rect x="341" y="276" width="64" height="1" fill="#000000"/><rect x="85" y="277" width="86" height="1" fill="#000000"/><rect x="341" y="277" width="64" height="1" fill="#000000"/><rect x="85" y="278" width="86" height="1" fill="#000000"/><rect x="341" y="278" width="64" height="1" fill="#000000"/><rect x="85" y="279" width="86" height="1" fill="#000000"/><rect x="341" y="279" width="64" height="1" fill="#000000"/><rect x="85" y="280" width="86" height="1" fill="#000000"/><rect x="341" y="280" width="64" height="1" fill="#000000"/><rect x="85" y="281" width="86" height="1" fill="#000000"/><rect x="341" y="281" width="64" height="1" fill="#000000"/><rect x="85" y="282" width="86" height="1" fill="#000000"/><rect x="341" y="282" width="64" height="1" fill="#000000"/><rect x="85" y="283" width="86" height="1" fill="#000000"/><rect x="341" y="283" width="64" height="1" fill="#000000"/><rect x="85" y="284" width="86" height="1" fill="#000000"/><rect x="341" y="284" width="64" height="1" fill="#000000"/><rect x="85" y="285" width="86" height="1" fill="#000000"/><rect x="341" y="285" width="64" height="1" fill="#000000"/><rect x="85" y="286" width="86" height="1" fill="#000000"/><rect x="341" y="286" width="64" height="1" fill="#000000"/><rect x="85" y="287" width="86" height="1" fill="#000000"/><rect x="341" y="287" width="64" height="1" fill="#000000"/><rect x="85" y="288" width="86" height="1" fill="#000000"/><rect x="341" y="288" width="64" height="1" fill="#000000"/><rect x="85" y="289" width="86" height="1" fill="#000000"/><rect x="341" y="289" width="64" height="1" fill="#000000"/><rect x="85" y="290" width="86" height="1" fill="#000000"/><rect x="341" y="290" width="64" height="1" fill="#000000"/><rect x="85" y="291" width="86" height="1" fill="#000000"/><rect x="341" y="291" width="64" height="1" fill="#000000"/><rect x="85" y="292" width="86" height="1" fill="#000000"/><rect x="341" y="292" width="64" height="1" fill="#000000"/><rect x="85" y="293" width="86" height="1" fill="#000000"/><rect x="341" y="293" width="64" height="1" fill="#000000"/><rect x="85" y="294" width="86" height="1" fill="#000000"/><rect x="341" y="294" width="64" height="1" fill="#000000"/><rect x="85" y="295" width="86" height="1" fill="#000000"/><rect x="341" y="295" width="64" height="1" fill="#000000"/><rect x="85" y="296" width="86" height="1" fill="#000000"/><rect x="341" y="296" width="64" height="1" fill="#000000"/><rect x="85" y="297" width="86" height="1" fill="#000000"/><rect x="341" y="297" width="64" height="1" fill="#000000"/><rect x="85" y="298" width="86" height="1" fill="#000000"/><rect x="341" y="298" width="64" height="1" fill="#000000"/><rect x="85" y="299" width="86" height="1" fill="#000000"/><rect x="341" y="299" width="64" height="1" fill="#000000"/><rect x="85" y="300" width="86" height="1" fill="#000000"/><rect x="341" y="300" width="64" height="1" fill="#000000"/><rect x="85" y="301" width="86" height="1" fill="#000000"/><rect x="341" y="301" width="64" height="1" fill="#000000"/><rect x="85" y="302" width="86" height="1" fill="#000000"/><rect x="341" y="302" width="64" height="1" fill="#000000"/><rect x="85" y="303" width="86" height="1" fill="#000000"/><rect x="341" y="303" width="64" height="1" fill="#000000"/><rect x="85" y="304" width="86" height="1" fill="#000000"/><rect x="341" y="304" width="64" height="1" fill="#000000"/><rect x="85" y="305" width="86" height="1" fill="#000000"/><rect x="341" y="305" width="64" height="1" fill="#000000"/><rect x="85" y="306" width="86" height="1" fill="#000000"/><rect x="341" y="306" width="64" height="1" fill="#000000"/><rect x="85" y="307" width="86" height="1" fill="#000000"/><rect x="341" y="307" width="64" height="1" fill="#000000"/><rect x="85" y="308" width="86" height="1" fill="#000000"/><rect x="341" y="308" width="64" height="1" fill="#000000"/><rect x="85" y="309" width="86" height="1" fill="#000000"/><rect x="341" y="309" width="64" height="1" fill="#000000"/><rect x="85" y="310" width="86" height="1" fill="#000000"/><rect x="341" y="310" width="64" height="1" fill="#000000"/><rect x="85" y="311" width="86" height="1" fill="#000000"/><rect x="341" y="311" width="64" height="1" fill="#000000"/><rect x="85" y="312" width="86" height="1" fill="#000000"/><rect x="341" y="312" width="64" height="1" fill="#000000"/><rect x="85" y="313" width="86" height="1" fill="#000000"/><rect x="341" y="313" width="64" height="1" fill="#000000"/><rect x="85" y="314" width="86" height="1" fill="#000000"/><rect x="341" y="314" width="64" height="1" fill="#000000"/><rect x="85" y="315" width="86" height="1" fill="#000000"/><rect x="341" y="315" width="64" height="1" fill="#000000"/><rect x="85" y="316" width="86" height="1" fill="#000000"/><rect x="341" y="316" width="64" height="1" fill="#000000"/><rect x="85" y="317" width="86" height="1" fill="#000000"/><rect x="341" y="317" width="64" height="1" fill="#000000"/><rect x="85" y="318" width="86" height="1" fill="#000000"/><rect x="341" y="318" width="64" height="1" fill="#000000"/><rect x="85" y="319" width="86" height="1" fill="#000000"/><rect x="341" y="319" width="64" height="1" fill="#000000"/><rect x="85" y="320" width="86" height="1" fill="#000000"/><rect x="341" y="320" width="64" height="1" fill="#000000"/><rect x="85" y="321" width="86" height="1" fill="#000000"/><rect x="341" y="321" width="64" height="1" fill="#000000"/><rect x="85" y="322" width="86" height="1" fill="#000000"/><rect x="341" y="322" width="64" height="1" fill="#000000"/><rect x="85" y="323" width="86" height="1" fill="#000000"/><rect x="341" y="323" width="64" height="1" fill="#000000"/><rect x="85" y="324" width="86" height="1" fill="#000000"/><rect x="341" y="324" width="64" height="1" fill="#000000"/><rect x="85" y="325" width="86" height="1" fill="#000000"/><rect x="341" y="325" width="64" height="1" fill="#000000"/><rect x="85" y="326" width="86" height="1" fill="#000000"/><rect x="341" y="326" width="64" height="1" fill="#000000"/><rect x="85" y="327" width="86" height="1" fill="#000000"/><rect x="341" y="327" width="64" height="1" fill="#000000"/><rect x="85" y="328" width="86" height="1" fill="#000000"/><rect x="341" y="328" width="64" height="1" fill="#000000"/><rect x="85" y="329" width="86" height="1" fill="#000000"/><rect x="341" y="329" width="64" height="1" fill="#000000"/><rect x="85" y="330" width="86" height="1" fill="#000000"/><rect x="341" y="330" width="64" height="1" fill="#000000"/><rect x="85" y="331" width="86" height="1" fill="#000000"/><rect x="341" y="331" width="64" height="1" fill="#000000"/><rect x="85" y="332" width="86" height="1" fill="#000000"/><rect x="341" y="332" width="64" height="1" fill="#000000"/><rect x="85" y="333" width="86" height="1" fill="#000000"/><rect x="341" y="333" width="64" height="1" fill="#000000"/><rect x="85" y="334" width="86" height="1" fill="#000000"/><rect x="341" y="334" width="64" height="1" fill="#000000"/><rect x="85" y="335" width="86" height="1" fill="#000000"/><rect x="341" y="335" width="64" height="1" fill="#000000"/><rect x="85" y="336" width="86" height="1" fill="#000000"/><rect x="341" y="336" width="64" height="1" fill="#000000"/><rect x="85" y="337" width="86" height="1" fill="#000000"/><rect x="341" y="337" width="64" height="1" fill="#000000"/><rect x="85" y="338" width="86" height="1" fill="#000000"/><rect x="341" y="338" width="64" height="1" fill="#000000"/><rect x="85" y="339" width="86" height="1" fill="#000000"/><rect x="341" y="339" width="64" height="1" fill="#000000"/><rect x="85" y="340" width="86" height="1" fill="#000000"/><rect x="341" y="340" width="64" height="1" fill="#000000"/><rect x="107" y="341" width="64" height="1" fill="#000000"/><rect x="341" y="341" width="64" height="1" fill="#000000"/><rect x="107" y="342" width="64" height="1" fill="#000000"/><rect x="341" y="342" width="64" height="1" fill="#000000"/><rect x="107" y="343" width="64" height="1" fill="#000000"/><rect x="341" y="343" width="64" height="1" fill="#000000"/><rect x="107" y="344" width="64" height="1" fill="#000000"/><rect x="341" y="344" width="64" height="1" fill="#000000"/><rect x="107" y="345" width="64" height="1" fill="#000000"/><rect x="341" y="345" width="64" height="1" fill="#000000"/><rect x="107" y="346" width="64" height="1" fill="#000000"/><rect x="341" y="346" width="64" height="1" fill="#000000"/><rect x="107" y="347" width="64" height="1" fill="#000000"/><rect x="341" y="347" width="64" height="1" fill="#000000"/><rect x="107" y="348" width="64" height="1" fill="#000000"/><rect x="341" y="348" width="64" height="1" fill="#000000"/><rect x="107" y="349" width="64" height="1" fill="#000000"/><rect x="341" y="349" width="64" height="1" fill="#000000"/><rect x="107" y="350" width="64" height="1" fill="#000000"/><rect x="341" y="350" width="64" height="1" fill="#000000"/><rect x="107" y="351" width="64" height="1" fill="#000000"/><rect x="341" y="351" width="64" height="1" fill="#000000"/><rect x="107" y="352" width="64" height="1" fill="#000000"/><rect x="341" y="352" width="64" height="1" fill="#000000"/><rect x="107" y="353" width="64" height="1" fill="#000000"/><rect x="341" y="353" width="64" height="1" fill="#000000"/><rect x="107" y="354" width="64" height="1" fill="#000000"/><rect x="341" y="354" width="64" height="1" fill="#000000"/><rect x="107" y="355" width="64" height="1" fill="#000000"/><rect x="341" y="355" width="64" height="1" fill="#000000"/><rect x="107" y="356" width="64" height="1" fill="#000000"/><rect x="341" y="356" width="64" height="1" fill="#000000"/><rect x="107" y="357" width="64" height="1" fill="#000000"/><rect x="341" y="357" width="64" height="1" fill="#000000"/><rect x="107" y="358" width="64" height="1" fill="#000000"/><rect x="341" y="358" width="64" height="1" fill="#000000"/><rect x="107" y="359" width="64" height="1" fill="#000000"/><rect x="341" y="359" width="64" height="1" fill="#000000"/><rect x="107" y="360" width="64" height="1" fill="#000000"/><rect x="341" y="360" width="64" height="1" fill="#000000"/><rect x="107" y="361" width="64" height="1" fill="#000000"/><rect x="341" y="361" width="64" height="1" fill="#000000"/><rect x="107" y="362" width="64" height="1" fill="#000000"/><rect x="341" y="362" width="64" height="1" fill="#000000"/><rect x="107" y="363" width="64" height="1" fill="#000000"/><rect x="341" y="363" width="43" height="1" fill="#000000"/><rect x="107" y="364" width="64" height="1" fill="#000000"/><rect x="341" y="364" width="43" height="1" fill="#000000"/><rect x="107" y="365" width="64" height="1" fill="#000000"/><rect x="341" y="365" width="43" height="1" fill="#000000"/><rect x="107" y="366" width="64" height="1" fill="#000000"/><rect x="341" y="366" width="43" height="1" fill="#000000"/><rect x="107" y="367" width="64" height="1" fill="#000000"/><rect x="341" y="367" width="43" height="1" fill="#000000"/><rect x="107" y="368" width="64" height="1" fill="#000000"/><rect x="341" y="368" width="43" height="1" fill="#000000"/><rect x="107" y="369" width="64" height="1" fill="#000000"/><rect x="341" y="369" width="43" height="1" fill="#000000"/><rect x="107" y="370" width="64" height="1" fill="#000000"/><rect x="341" y="370" width="43" height="1" fill="#000000"/><rect x="107" y="371" width="64" height="1" fill="#000000"/><rect x="341" y="371" width="43" height="1" fill="#000000"/><rect x="107" y="372" width="64" height="1" fill="#000000"/><rect x="341" y="372" width="43" height="1" fill="#000000"/><rect x="107" y="373" width="64" height="1" fill="#000000"/><rect x="341" y="373" width="43" height="1" fill="#000000"/><rect x="107" y="374" width="64" height="1" fill="#000000"/><rect x="341" y="374" width="43" height="1" fill="#000000"/><rect x="107" y="375" width="64" height="1" fill="#000000"/><rect x="341" y="375" width="43" height="1" fill="#000000"/><rect x="107" y="376" width="64" height="1" fill="#000000"/><rect x="341" y="376" width="43" height="1" fill="#000000"/><rect x="107" y="377" width="64" height="1" fill="#000000"/><rect x="341" y="377" width="43" height="1" fill="#000000"/><rect x="107" y="378" width="64" height="1" fill="#000000"/><rect x="341" y="378" width="43" height="1" fill="#000000"/><rect x="107" y="379" width="64" height="1" fill="#000000"/><rect x="341" y="379" width="43" height="1" fill="#000000"/><rect x="107" y="380" width="64" height="1" fill="#000000"/><rect x="341" y="380" width="43" height="1" fill="#000000"/><rect x="107" y="381" width="64" height="1" fill="#000000"/><rect x="341" y="381" width="43" height="1" fill="#000000"/><rect x="107" y="382" width="64" height="1" fill="#000000"/><rect x="341" y="382" width="43" height="1" fill="#000000"/><rect x="107" y="383" width="64" height="1" fill="#000000"/><rect x="341" y="383" width="43" height="1" fill="#000000"/><rect x="149" y="384" width="22" height="1" fill="#000000"/><rect x="341" y="384" width="22" height="1" fill="#000000"/><rect x="149" y="385" width="22" height="1" fill="#000000"/><rect x="341" y="385" width="22" height="1" fill="#000000"/><rect x="149" y="386" width="22" height="1" fill="#000000"/><rect x="341" y="386" width="22" height="1" fill="#000000"/><rect x="149" y="387" width="22" height="1" fill="#000000"/><rect x="341" y="387" width="22" height="1" fill="#000000"/><rect x="149" y="388" width="22" height="1" fill="#000000"/><rect x="341" y="388" width="22" height="1" fill="#000000"/><rect x="149" y="389" width="22" height="1" fill="#000000"/><rect x="341" y="389" width="22" height="1" fill="#000000"/><rect x="149" y="390" width="22" height="1" fill="#000000"/><rect x="341" y="390" width="22" height="1" fill="#000000"/><rect x="149" y="391" width="22" height="1" fill="#000000"/><rect x="341" y="391" width="22" height="1" fill="#000000"/><rect x="149" y="392" width="22" height="1" fill="#000000"/><rect x="341" y="392" width="22" height="1" fill="#000000"/><rect x="149" y="393" width="22" height="1" fill="#000000"/><rect x="341" y="393" width="22" height="1" fill="#000000"/><rect x="149" y="394" width="22" height="1" fill="#000000"/><rect x="341" y="394" width="22" height="1" fill="#000000"/><rect x="149" y="395" width="22" height="1" fill="#000000"/><rect x="341" y="395" width="22" height="1" fill="#000000"/><rect x="149" y="396" width="22" height="1" fill="#000000"/><rect x="341" y="396" width="22" height="1" fill="#000000"/><rect x="149" y="397" width="22" height="1" fill="#000000"/><rect x="341" y="397" width="22" height="1" fill="#000000"/><rect x="149" y="398" width="22" height="1" fill="#000000"/><rect x="341" y="398" width="22" height="1" fill="#000000"/><rect x="149" y="399" width="22" height="1" fill="#000000"/><rect x="341" y="399" width="22" height="1" fill="#000000"/><rect x="149" y="400" width="22" height="1" fill="#000000"/><rect x="341" y="400" width="22" height="1" fill="#000000"/><rect x="149" y="401" width="22" height="1" fill="#000000"/><rect x="341" y="401" width="22" height="1" fill="#000000"/><rect x="149" y="402" width="22" height="1" fill="#000000"/><rect x="341" y="402" width="22" height="1" fill="#000000"/><rect x="149" y="403" width="22" height="1" fill="#000000"/><rect x="341" y="403" width="22" height="1" fill="#000000"/><rect x="149" y="404" width="22" height="1" fill="#000000"/><rect x="341" y="404" width="22" height="1" fill="#000000"/></svg>