<svg xmlns="http://www.w3.org/2000/svg" viewBox="0 0 512 512" width="512" height="512" shape-rendering="crispEdges"><rect x="171" y="192" width="170" height="1" fill="#FFFFFF"/><rect x="171" y="193" width="170" height="1" fill="#FFFFFF"/><rect x="171" y="194" width="170" height="1" fill="#FFFFFF"/><rect x="171" y="195" width="170" height="1" fill="#FFFFFF"/><rect x="171" y="196" width="170" height="1" fill="#FFFFFF"/><rect x="171" y="197" width="170" height="1" fill="#FFFFFF"/><rect x="171" y="198" width="170" height="1" fill="#FFFFFF"/><rect x="171" y="199" width="170" height="1" fill="#FFFFFF"/><rect x="171" y="200" width="170" height="1" fill="#FFFFFF"/><rect x="171" y="201" width="170" height="1" fill="#FFFFFF"/><rect x="171" y="202" width="170" height="1" fill="#FFFFFF"/><rect x="171" y="203" width="170" height="1" fill="#FFFFFF"/><rect x="171" y="204" width="170" height="1" fill="#FFFFFF"/><rect x="171" y="205" width="170" height="1" fill="#FFFFFF"/><rect x="171" y="206" width="170" height="1" fill="#FFFFFF"/><rect x="171" y="207" width="170" height="1" fill="#FFFFFF"/><rect x="171" y="208" width="170" height="1" fill="#FFFFFF"/><rect x="171" y="209" width="170" height="1" fill="#FFFFFF"/><rect x="171" y="210" width="170" height="1" fill="#FFFFFF"/><rect x="171" y="211" width="170" height="1" fill="#FFFFFF"/><rect x="171" y="212" width="170" height="1" fill="#FFFFFF"/><rect x="171" y="213" width="170" height="1" fill="#1A6ED5"/><rect x="171" y="214" width="170" height="1" fill="#1A6ED5"/><rect x="171" y="215" width="170" height="1" fill="#1A6ED5"/><rect x="171" y="216" width="170" height="1" fill="#1A6ED5"/><rect x="171" y="217" width="170" height="1" fill="#1A6ED5"/><rect x="171" y="218" width="170" height="1" fill="#1A6ED5"/><rect x="171" y="219" width="170" height="1" fill="#1A6ED5"/><rect x="171" y="220" width="170" height="1" fill="#1A6ED5"/><rect x="171" y="221" width="170" height="1" fill="#1A6ED5"/><rect x="171" y="222" width="170" height="1" fill="#1A6ED5"/><rect x="171" y="223" width="170" height="1" fill="#1A6ED5"/><rect x="171" y="224" width="170" height="1" fill="#1A6ED5"/><rect x="171" y="225" width="170" height="1" fill="#1A6ED5"/><rect x="171" y="226" width="170" height="1" fill="#1A6ED5"/><rect x="171" y="227" width="170" height="1" fill="#1A6ED5"/><rect x="171" y="228" width="170" height="1" fill="#1A6ED5"/><rect x="171" y="229" width="170" height="1" fill="#1A6ED5"/><rect x="171" y="230" width="170" height="1" fill="#1A6ED5"/><rect x="171" y="231" width="170" height="1" fill="#1A6ED5"/><rect x="171" y="232" width="170" height="1" fill="#1A6ED5"/><rect x="171" y="233" width="170" height="1" fill="#1A6ED5"/><rect x="171" y="234" width="170" height="1" fill="#1A6ED5"/></svg>