<svg xmlns="http://www.w3.org/2000/svg" viewBox="0 0 512 512" width="512" height="512" shape-rendering="crispEdges"><rect x="149" y="235" width="214" height="1" fill="#000000"/><rect x="149" y="236" width="214" height="1" fill="#000000"/><rect x="149" y="237" width="214" height="1" fill="#000000"/><rect x="149" y="238" width="214" height="1" fill="#000000"/><rect x="149" y="239" width="214" height="1" fill="#000000"/><rect x="149" y="240" width="214" height="1" fill="#000000"/><rect x="149" y="241" width="214" height="1" fill="#000000"/><rect x="149" y="242" width="214" height="1" fill="#000000"/><rect x="149" y="243" width="214" height="1" fill="#000000"/><rect x="149" y="244" width="214" height="1" fill="#000000"/><rect x="149" y="245" width="214" height="1" fill="#000000"/><rect x="149" y="246" width="214" height="1" fill="#000000"/><rect x="149" y="247" width="214" height="1" fill="#000000"/><rect x="149" y="248" width="214" height="1" fill="#000000"/><rect x="149" y="249" width="214" height="1" fill="#000000"/><rect x="149" y="250" width="214" height="1" fill="#000000"/><rect x="149" y="251" width="214" height="1" fill="#000000"/><rect x="149" y="252" width="214" height="1" fill="#000000"/><rect x="149" y="253" width="214" height="1" fill="#000000"/><rect x="149" y="254" width="214" height="1" fill="#000000"/><rect x="149" y="255" width="214" height="1" fill="#000000"/><rect x="149" y="256" width="22" height="1" fill="#000000"/><rect x="171" y="256" width="64" height="1" fill="#FFFFFF" opacity="0.439"/><rect x="235" y="256" width="42" height="1" fill="#000000"/><rect x="277" y="256" width="64" height="1" fill="#FFFFFF" opacity="0.439"/><rect x="341" y="256" width="22" height="1" fill="#000000"/><rect x="149" y="257" width="22" height="1" fill="#000000"/><rect x="171" y="257" width="64" height="1" fill="#FFFFFF" opacity="0.439"/><rect x="235" y="257" width="42" height="1" fill="#000000"/><rect x="277" y="257" width="64" height="1" fill="#FFFFFF" opacity="0.439"/><rect x="341" y="257" width="22" height="1" fill="#000000"/><rect x="149" y="258" width="22" height="1" fill="#000000"/><rect x="171" y="258" width="64" height="1" fill="#FFFFFF" opacity="0.439"/><rect x="235" y="258" width="42" height="1" fill="#000000"/><rect x="277" y="258" width="64" height="1" fill="#FFFFFF" opacity="0.439"/><rect x="341" y="258" width="22" height="1" fill="#000000"/><rect x="149" y="259" width="22" height="1" fill="#000000"/><rect x="171" y="259" width="64" height="1" fill="#FFFFFF" opacity="0.439"/><rect x="235" y="259" width="42" height="1" fill="#000000"/><rect x="277" y="259" width="64" height="1" fill="#FFFFFF" opacity="0.439"/><rect x="341" y="259" width="22" height="1" fill="#000000"/><rect x="149" y="260" width="22" height="1" fill="#000000"/><rect x="171" y="260" width="64" height="1" fill="#FFFFFF" opacity="0.439"/><rect x="235" y="260" width="42" height="1" fill="#000000"/><rect x="277" y="260" width="64" height="1" fill="#FFFFFF" opacity="0.439"/><rect x="341" y="260" width="22" height="1" fill="#000000"/><rect x="149" y="261" width="22" height="1" fill="#000000"/><rect x="171" y="261" width="64" height="1" fill="#FFFFFF" opacity="0.439"/><rect x="235" y="261" width="42" height="1" fill="#000000"/><rect x="277" y="261" width="64" height="1" fill="#FFFFFF" opacity="0.439"/><rect x="341" y="261" width="22" height="1" fill="#000000"/><rect x="149" y="262" width="22" height="1" fill="#000000"/><rect x="171" y="262" width="64" height="1" fill="#FFFFFF" opacity="0.439"/><rect x="235" y="262" width="42" height="1" fill="#000000"/><rect x="277" y="262" width="64" height="1" fill="#FFFFFF" opacity="0.439"/><rect x="341" y="262" width="22" height="1" fill="#000000"/><rect x="149" y="263" width="22" height="1" fill="#000000"/><rect x="171" y="263" width="64" height="1" fill="#FFFFFF" opacity="0.439"/><rect x="235" y="263" width="42" height="1" fill="#000000"/><rect x="277" y="263" width="64" height="1" fill="#FFFFFF" opacity="0.439"/><rect x="341" y="263" width="22" height="1" fill="#000000"/><rect x="149" y="264" width="22" height="1" fill="#000000"/><rect x="171" y="264" width="64" height="1" fill="#FFFFFF" opacity="0.439"/><rect x="235" y="264" width="42" height="1" fill="#000000"/><rect x="277" y="264" width="64" height="1" fill="#FFFFFF" opacity="0.439"/><rect x="341" y="264" width="22" height="1" fill="#000000"/><rect x="149" y="265" width="22" height="1" fill="#000000"/><rect x="171" y="265" width="64" height="1" fill="#FFFFFF" opacity="0.439"/><rect x="235" y="265" width="42" height="1" fill="#000000"/><rect x="277" y="265" width="64" height="1" fill="#FFFFFF" opacity="0.439"/><rect x="341" y="265" width="22" height="1" fill="#000000"/><rect x="149" y="266" width="22" height="1" fill="#000000"/><rect x="171" y="266" width="64" height="1" fill="#FFFFFF" opacity="0.439"/><rect x="235" y="266" width="42" height="1" fill="#000000"/><rect x="277" y="266" width="64" height="1" fill="#FFFFFF" opacity="0.439"/><rect x="341" y="266" width="22" height="1" fill="#000000"/><rect x="149" y="267" width="22" height="1" fill="#000000"/><rect x="171" y="267" width="64" height="1" fill="#FFFFFF" opacity="0.439"/><rect x="235" y="267" width="42" height="1" fill="#000000"/><rect x="277" y="267" width="64" height="1" fill="#FFFFFF" opacity="0.439"/><rect x="341" y="267" width="22" height="1" fill="#000000"/><rect x="149" y="268" width="22" height="1" fill="#000000"/><rect x="171" y="268" width="64" height="1" fill="#FFFFFF" opacity="0.439"/><rect x="235" y="268" width="42" height="1" fill="#000000"/><rect x="277" y="268" width="64" height="1" fill="#FFFFFF" opacity="0.439"/><rect x="341" y="268" width="22" height="1" fill="#000000"/><rect x="149" y="269" width="22" height="1" fill="#000000"/><rect x="171" y="269" width="64" height="1" fill="#FFFFFF" opacity="0.439"/><rect x="235" y="269" width="42" height="1" fill="#000000"/><rect x="277" y="269" width="64" height="1" fill="#FFFFFF" opacity="0.439"/><rect x="341" y="269" width="22" height="1" fill="#000000"/><rect x="149" y="270" width="22" height="1" fill="#000000"/><rect x="171" y="270" width="64" height="1" fill="#FFFFFF" opacity="0.439"/><rect x="235" y="270" width="42" height="1" fill="#000000"/><rect x="277" y="270" width="64" height="1" fill="#FFFFFF" opacity="0.439"/><rect x="341" y="270" width="22" height="1" fill="#000000"/><rect x="149" y="271" width="22" height="1" fill="#000000"/><rect x="171" y="271" width="64" height="1" fill="#FFFFFF" opacity="0.439"/><rect x="235" y="271" width="42" height="1" fill="#000000"/><rect x="277" y="271" width="64" height="1" fill="#FFFFFF" opacity="0.439"/><rect x="341" y="271" width="22" height="1" fill="#000000"/><rect x="149" y="272" width="22" height="1" fill="#000000"/><rect x="171" y="272" width="64" height="1" fill="#FFFFFF" opacity="0.439"/><rect x="235" y="272" width="42" height="1" fill="#000000"/><rect x="277" y="272" width="64" height="1" fill="#FFFFFF" opacity="0.439"/><rect x="341" y="272" width="22" height="1" fill="#000000"/><rect x="149" y="273" width="22" height="1" fill="#000000"/><rect x="171" y="273" width="64" height="1" fill="#FFFFFF" opacity="0.439"/><rect x="235" y="273" width="42" height="1" fill="#000000"/><rect x="277" y="273" width="64" height="1" fill="#FFFFFF" opacity="0.439"/><rect x="341" y="273" width="22" height="1" fill="#000000"/><rect x="149" y="274" width="22" height="1" fill="#000000"/><rect x="171" y="274" width="64" height="1" fill="#FFFFFF" opacity="0.439"/><rect x="235" y="274" width="42" height="1" fill="#000000"/><rect x="277" y="274" width="64" height="1" fill="#FFFFFF" opacity="0.439"/><rect x="341" y="274" width="22" height="1" fill="#000000"/><rect x="149" y="275" width="22" height="1" fill="#000000"/><rect x="171" y="275" width="64" height="1" fill="#FFFFFF" opacity="0.439"/><rect x="235" y="275" width="42" height="1" fill="#000000"/><rect x="277" y="275" width="64" height="1" fill="#FFFFFF" opacity="0.439"/><rect x="341" y="275" width="22" height="1" fill="#000000"/><rect x="149" y="276" width="22" height="1" fill="#000000"/><rect x="171" y="276" width="64" height="1" fill="#FFFFFF" opacity="0.439"/><rect x="235" y="276" width="42" height="1" fill="#000000"/><rect x="277" y="276" width="64" height="1" fill="#FFFFFF" opacity="0.439"/><rect x="341" y="276" width="22" height="1" fill="#000000"/><rect x="171" y="277" width="64" height="1" fill="#FFFFFF" opacity="0.439"/><rect x="277" y="277" width="64" height="1" fill="#FFFFFF" opacity="0.439"/><rect x="171" y="278" width="64" height="1" fill="#FFFFFF" opacity="0.439"/><rect x="277" y="278" width="64" height="1" fill="#FFFFFF" opacity="0.439"/><rect x="171" y="279" width="64" height="1" fill="#FFFFFF" opacity="0.439"/><rect x="277" y="279" width="64" height="1" fill="#FFFFFF" opacity="0.439"/><rect x="171" y="280" width="64" height="1" fill="#FFFFFF" opacity="0.439"/><rect x="277" y="280" width="64" height="1" fill="#FFFFFF" opacity="0.439"/><rect x="171" y="281" width="64" height="1" fill="#FFFFFF" opacity="0.439"/><rect x="277" y="281" width="64" height="1" fill="#FFFFFF" opacity="0.439"/><rect x="171" y="282" width="64" height="1" fill="#FFFFFF" opacity="0.439"/><rect x="277" y="282" width="64" height="1" fill="#FFFFFF" opacity="0.439"/><rect x="171" y="283" width="64" height="1" fill="#FFFFFF" opacity="0.439"/><rect x="277" y="283" width="64" height="1" fill="#FFFFFF" opacity="0.439"/><rect x="171" y="284" width="64" height="1" fill="#FFFFFF" opacity="0.439"/><rect x="277" y="284" width="64" height="1" fill="#FFFFFF" opacity="0.439"/><rect x="171" y="285" width="64" height="1" fill="#FFFFFF" opacity="0.439"/><rect x="277" y="285" width="64" height="1" fill="#FFFFFF" opacity="0.439"/><rect x="171" y="286" width="64" height="1" fill="#FFFFFF" opacity="0.439"/><rect x="277" y="286" width="64" height="1" fill="#FFFFFF" opacity="0.439"/><rect x="171" y="287" width="64" height="1" fill="#FFFFFF" opacity="0.439"/><rect x="277" y="287" width="64" height="1" fill="#FFFFFF" opacity="0.439"/><rect x="171" y="288" width="64" height="1" fill="#FFFFFF" opacity="0.439"/><rect x="277" y="288" width="64" height="1" fill="#FFFFFF" opacity="0.439"/><rect x="171" y="289" width="64" height="1" fill="#FFFFFF" opacity="0.439"/><rect x="277" y="289" width="64" height="1" fill="#FFFFFF" opacity="0.439"/><rect x="171" y="290" width="64" height="1" fill="#FFFFFF" opacity="0.439"/><rect x="277" y="290" width="64" height="1" fill="#FFFFFF" opacity="0.439"/><rect x="171" y="291" width="64" height="1" fill="#FFFFFF" opacity="0.439"/><rect x="277" y="291" width="64" height="1" fill="#FFFFFF" opacity="0.439"/><rect x="171" y="292" width="64" height="1" fill="#FFFFFF" opacity="0.439"/><rect x="277" y="292" width="64" height="1" fill="#FFFFFF" opacity="0.439"/><rect x="171" y="293" width="64" height="1" fill="#FFFFFF" opacity="0.439"/><rect x="277" y="293" width="64" height="1" fill="#FFFFFF" opacity="0.439"/><rect x="171" y="294" width="64" height="1" fill="#FFFFFF" opacity="0.439"/><rect x="277" y="294" width="64" height="1" fill="#FFFFFF" opacity="0.439"/><rect x="171" y="295" width="64" height="1" fill="#FFFFFF" opacity="0.439"/><rect x="277" y="295" width="64" height="1" fill="#FFFFFF" opacity="0.439"/><rect x="171" y="296" width="64" height="1" fill="#FFFFFF" opacity="0.439"/><rect x="277" y="296" width="64" height="1" fill="#FFFFFF" opacity="0.439"/><rect x="171" y="297" width="64" height="1" fill="#FFFFFF" opacity="0.439"/><rect x="277" y="297" width="64" height="1" fill="#FFFFFF" opacity="0.439"/><rect x="171" y="298" width="64" height="1" fill="#FFFFFF" opacity="0.439"/><rect x="277" y="298" width="64" height="1" fill="#FFFFFF" opacity="0.439"/><rect x="171" y="299" width="64" height="1" fill="#FFFFFF" opacity="0.439"/><rect x="277" y="299" width="64" height="1" fill="#FFFFFF" opacity="0.439"/><rect x="171" y="300" width="64" height="1" fill="#FFFFFF" opacity="0.439"/><rect x="277" y="300" width="64" height="1" fill="#FFFFFF" opacity="0.439"/><rect x="171" y="301" width="64" height="1" fill="#FFFFFF" opacity="0.439"/><rect x="277" y="301" width="64" height="1" fill="#FFFFFF" opacity="0.439"/><rect x="171" y="302" width="64" height="1" fill="#FFFFFF" opacity="0.439"/><rect x="277" y="302" width="64" height="1" fill="#FFFFFF" opacity="0.439"/><rect x="171" y="303" width="64" height="1" fill="#FFFFFF" opacity="0.439"/><rect x="277" y="303" width="64" height="1" fill="#FFFFFF" opacity="0.439"/><rect x="171" y="304" width="64" height="1" fill="#FFFFFF" opacity="0.439"/><rect x="277" y="304" width="64" height="1" fill="#FFFFFF" opacity="0.439"/><rect x="171" y="305" width="64" height="1" fill="#FFFFFF" opacity="0.439"/><rect x="277" y="305" width="64" height="1" fill="#FFFFFF" opacity="0.439"/><rect x="171" y="306" width="64" height="1" fill="#FFFFFF" opacity="0.439"/><rect x="277" y="306" width="64" height="1" fill="#FFFFFF" opacity="0.439"/><rect x="171" y="307" width="64" height="1" fill="#FFFFFF" opacity="0.439"/><rect x="277" y="307" width="64" height="1" fill="#FFFFFF" opacity="0.439"/><rect x="171" y="308" width="64" height="1" fill="#FFFFFF" opacity="0.439"/><rect x="277" y="308" width="64" height="1" fill="#FFFFFF" opacity="0.439"/><rect x="171" y="309" width="64" height="1" fill="#FFFFFF" opacity="0.439"/><rect x="277" y="309" width="64" height="1" fill="#FFFFFF" opacity="0.439"/><rect x="171" y="310" width="64" height="1" fill="#FFFFFF" opacity="0.439"/><rect x="277" y="310" width="64" height="1" fill="#FFFFFF" opacity="0.439"/><rect x="171" y="311" width="64" height="1" fill="#FFFFFF" opacity="0.439"/><rect x="277" y="311" width="64" height="1" fill="#FFFFFF" opacity="0.439"/><rect x="171" y="312" width="64" height="1" fill="#FFFFFF" opacity="0.439"/><rect x="277" y="312" width="64" height="1" fill="#FFFFFF" opacity="0.439"/><rect x="171" y="313" width="64" height="1" fill="#FFFFFF" opacity="0.439"/><rect x="277" y="313" width="64" height="1" fill="#FFFFFF" opacity="0.439"/><rect x="171" y="314" width="64" height="1" fill="#FFFFFF" opacity="0.439"/><rect x="277" y="314" width="64" height="1" fill="#FFFFFF" opacity="0.439"/><rect x="171" y="315" width="64" height="1" fill="#FFFFFF" opacity="0.439"/><rect x="277" y="315" width="64" height="1" fill="#FFFFFF" opacity="0.439"/><rect x="171" y="316" width="64" height="1" fill="#FFFFFF" opacity="0.439"/><rect x="277" y="316" width="64" height="1" fill="#FFFFFF" opacity="0.439"/><rect x="171" y="317" width="64" height="1" fill="#FFFFFF" opacity="0.439"/><rect x="277" y="317" width="64" height="1" fill="#FFFFFF" opacity="0.439"/><rect x="171" y="318" width="64" height="1" fill="#FFFFFF" opacity="0.439"/><rect x="277" y="318" width="64" height="1" fill="#FFFFFF" opacity="0.439"/><rect x="171" y="319" width="64" height="1" fill="#FFFFFF" opacity="0.439"/><rect x="277" y="319" width="64" height="1" fill="#FFFFFF" opacity="0.439"/></svg>