<svg xmlns="http://www.w3.org/2000/svg" viewBox="0 0 512 512" width="512" height="512" shape-rendering="crispEdges"><rect x="192" y="107" width="128" height="1" fill="#000000"/><rect x="192" y="108" width="128" height="1" fill="#000000"/><rect x="192" y="109" width="128" height="1" fill="#000000"/><rect x="192" y="110" width="128" height="1" fill="#000000"/><rect x="192" y="111" width="128" height="1" fill="#000000"/><rect x="192" y="112" width="128" height="1" fill="#000000"/><rect x="192" y="113" width="128" height="1" fill="#000000"/><rect x="192" y="114" width="128" height="1" fill="#000000"/><rect x="192" y="115" width="128" height="1" fill="#000000"/><rect x="192" y="116" width="128" height="1" fill="#000000"/><rect x="192" y="117" width="128" height="1" fill="#000000"/><rect x="192" y="118" width="128" height="1" fill="#000000"/><rect x="192" y="119" width="128" height="1" fill="#000000"/><rect x="192" y="120" width="128" height="1" fill="#000000"/><rect x="192" y="121" width="128" height="1" fill="#000000"/><rect x="192" y="122" width="128" height="1" fill="#000000"/><rect x="192" y="123" width="128" height="1" fill="#000000"/><rect x="192" y="124" width="128" height="1" fill="#000000"/><rect x="192" y="125" width="128" height="1" fill="#000000"/><rect x="192" y="126" width="128" height="1" fill="#000000"/><rect x="192" y="127" width="128" height="1" fill="#000000"/><rect x="171" y="128" width="21" height="1" fill="#000000"/><rect x="192" y="128" width="128" height="1" fill="#CA4E11"/><rect x="320" y="128" width="21" height="1" fill="#000000"/><rect x="171" y="129" width="21" height="1" fill="#000000"/><rect x="192" y="129" width="128" height="1" fill="#CA4E11"/><rect x="320" y="129" width="21" height="1" fill="#000000"/><rect x="171" y="130" width="21" height="1" fill="#000000"/><rect x="192" y="130" width="128" height="1" fill="#CA4E11"/><rect x="320" y="130" width="21" height="1" fill="#000000"/><rect x="171" y="131" width="21" height="1" fill="#000000"/><rect x="192" y="131" width="128" height="1" fill="#CA4E11"/><rect x="320" y="131" width="21" height="1" fill="#000000"/><rect x="171" y="132" width="21" height="1" fill="#000000"/><rect x="192" y="132" width="128" height="1" fill="#CA4E11"/><rect x="320" y="132" width="21" height="1" fill="#000000"/><rect x="171" y="133" width="21" height="1" fill="#000000"/><rect x="192" y="133" width="128" height="1" fill="#CA4E11"/><rect x="320" y="133" width="21" height="1" fill="#000000"/><rect x="171" y="134" width="21" height="1" fill="#000000"/><rect x="192" y="134" width="128" height="1" fill="#CA4E11"/><rect x="320" y="134" width="21" height="1" fill="#000000"/><rect x="171" y="135" width="21" height="1" fill="#000000"/><rect x="192" y="135" width="128" height="1" fill="#CA4E11"/><rect x="320" y="135" width="21" height="1" fill="#000000"/><rect x="171" y="136" width="21" height="1" fill="#000000"/><rect x="192" y="136" width="128" height="1" fill="#CA4E11"/><rect x="320" y="136" width="21" height="1" fill="#000000"/><rect x="171" y="137" width="21" height="1" fill="#000000"/><rect x="192" y="137" width="128" height="1" fill="#CA4E11"/><rect x="320" y="137" width="21" height="1" fill="#000000"/><rect x="171" y="138" width="21" height="1" fill="#000000"/><rect x="192" y="138" width="128" height="1" fill="#CA4E11"/><rect x="320" y="138" width="21" height="1" fill="#000000"/><rect x="171" y="139" width="21" height="1" fill="#000000"/><rect x="192" y="139" width="128" height="1" fill="#CA4E11"/><rect x="320" y="139" width="21" height="1" fill="#000000"/><rect x="171" y="140" width="21" height="1" fill="#000000"/><rect x="192" y="140" width="128" height="1" fill="#CA4E11"/><rect x="320" y="140" width="21" height="1" fill="#000000"/><rect x="171" y="141" width="21" height="1" fill="#000000"/><rect x="192" y="141" width="128" height="1" fill="#CA4E11"/><rect x="320" y="141" width="21" height="1" fill="#000000"/><rect x="171" y="142" width="21" height="1" fill="#000000"/><rect x="192" y="142" width="128" height="1" fill="#CA4E11"/><rect x="320" y="142" width="21" height="1" fill="#000000"/><rect x="171" y="143" width="21" height="1" fill="#000000"/><rect x="192" y="143" width="128" height="1" fill="#CA4E11"/><rect x="320" y="143" width="21" height="1" fill="#000000"/><rect x="171" y="144" width="21" height="1" fill="#000000"/><rect x="192" y="144" width="128" height="1" fill="#CA4E11"/><rect x="320" y="144" width="21" height="1" fill="#000000"/><rect x="171" y="145" width="21" height="1" fill="#000000"/><rect x="192" y="145" width="128" height="1" fill="#CA4E11"/><rect x="320" y="145" width="21" height="1" fill="#000000"/><rect x="171" y="146" width="21" height="1" fill="#000000"/><rect x="192" y="146" width="128" height="1" fill="#CA4E11"/><rect x="320" y="146" width="21" height="1" fill="#000000"/><rect x="171" y="147" width="21" height="1" fill="#000000"/><rect x="192" y="147" width="128" height="1" fill="#CA4E11"/><rect x="320" y="147" width="21" height="1" fill="#000000"/><rect x="171" y="148" width="21" height="1" fill="#000000"/><rect x="192" y="148" width="128" height="1" fill="#CA4E11"/><rect x="320" y="148" width="21" height="1" fill="#000000"/><rect x="149" y="149" width="22" height="1" fill="#000000"/><rect x="171" y="149" width="170" height="1" fill="#CA4E11"/><rect x="341" y="149" width="22" height="1" fill="#000000"/><rect x="149" y="150" width="22" height="1" fill="#000000"/><rect x="171" y="150" width="170" height="1" fill="#CA4E11"/><rect x="341" y="150" width="22" height="1" fill="#000000"/><rect x="149" y="151" width="22" height="1" fill="#000000"/><rect x="171" y="151" width="170" height="1" fill="#CA4E11"/><rect x="341" y="151" width="22" height="1" fill="#000000"/><rect x="149" y="152" width="22" height="1" fill="#000000"/><rect x="171" y="152" width="170" height="1" fill="#CA4E11"/><rect x="341" y="152" width="22" height="1" fill="#000000"/><rect x="149" y="153" width="22" height="1" fill="#000000"/><rect x="171" y="153" width="170" height="1" fill="#CA4E11"/><rect x="341" y="153" width="22" height="1" fill="#000000"/><rect x="149" y="154" width="22" height="1" fill="#000000"/><rect x="171" y="154" width="170" height="1" fill="#CA4E11"/><rect x="341" y="154" width="22" height="1" fill="#000000"/><rect x="149" y="155" width="22" height="1" fill="#000000"/><rect x="171" y="155" width="170" height="1" fill="#CA4E11"/><rect x="341" y="155" width="22" height="1" fill="#000000"/><rect x="149" y="156" width="22" height="1" fill="#000000"/><rect x="171" y="156" width="170" height="1" fill="#CA4E11"/><rect x="341" y="156" width="22" height="1" fill="#000000"/><rect x="149" y="157" width="22" height="1" fill="#000000"/><rect x="171" y="157" width="170" height="1" fill="#CA4E11"/><rect x="341" y="157" width="22" height="1" fill="#000000"/><rect x="149" y="158" width="22" height="1" fill="#000000"/><rect x="171" y="158" width="170" height="1" fill="#CA4E11"/><rect x="341" y="158" width="22" height="1" fill="#000000"/><rect x="149" y="159" width="22" height="1" fill="#000000"/><rect x="171" y="159" width="170" height="1" fill="#CA4E11"/><rect x="341" y="159" width="22" height="1" fill="#000000"/><rect x="149" y="160" width="22" height="1" fill="#000000"/><rect x="171" y="160" width="170" height="1" fill="#CA4E11"/><rect x="341" y="160" width="22" height="1" fill="#000000"/><rect x="149" y="161" width="22" height="1" fill="#000000"/><rect x="171" y="161" width="170" height="1" fill="#CA4E11"/><rect x="341" y="161" width="22" height="1" fill="#000000"/><rect x="149" y="162" width="22" height="1" fill="#000000"/><rect x="171" y="162" width="170" height="1" fill="#CA4E11"/><rect x="341" y="162" width="22" height="1" fill="#000000"/><rect x="149" y="163" width="22" height="1" fill="#000000"/><rect x="171" y="163" width="170" height="1" fill="#CA4E11"/><rect x="341" y="163" width="22" height="1" fill="#000000"/><rect x="149" y="164" width="22" height="1" fill="#000000"/><rect x="171" y="164" width="170" height="1" fill="#CA4E11"/><rect x="341" y="164" width="22" height="1" fill="#000000"/><rect x="149" y="165" width="22" height="1" fill="#000000"/><rect x="171" y="165" width="170" height="1" fill="#CA4E11"/><rect x="341" y="165" width="22" height="1" fill="#000000"/><rect x="149" y="166" width="22" height="1" fill="#000000"/><rect x="171" y="166" width="170" height="1" fill="#CA4E11"/><rect x="341" y="166" width="22" height="1" fill="#000000"/><rect x="149" y="167" width="22" height="1" fill="#000000"/><rect x="171" y="167" width="170" height="1" fill="#CA4E11"/><rect x="341" y="167" width="22" height="1" fill="#000000"/><rect x="149" y="168" width="22" height="1" fill="#000000"/><rect x="171" y="168" width="170" height="1" fill="#CA4E11"/><rect x="341" y="168" width="22" height="1" fill="#000000"/><rect x="149" y="169" width="22" height="1" fill="#000000"/><rect x="171" y="169" width="170" height="1" fill="#CA4E11"/><rect x="341" y="169" width="22" height="1" fill="#000000"/><rect x="149" y="170" width="22" height="1" fill="#000000"/><rect x="171" y="170" width="170" height="1" fill="#CA4E11"/><rect x="341" y="170" width="22" height="1" fill="#000000"/><rect x="128" y="171" width="21" height="1" fill="#000000"/><rect x="149" y="171" width="214" height="1" fill="#933709"/><rect x="363" y="171" width="21" height="1" fill="#000000"/><rect x="128" y="172" width="21" height="1" fill="#000000"/><rect x="149" y="172" width="214" height="1" fill="#933709"/><rect x="363" y="172" width="21" height="1" fill="#000000"/><rect x="128" y="173" width="21" height="1" fill="#000000"/><rect x="149" y="173" width="214" height="1" fill="#933709"/><rect x="363" y="173" width="21" height="1" fill="#000000"/><rect x="128" y="174" width="21" height="1" fill="#000000"/><rect x="149" y="174" width="214" height="1" fill="#933709"/><rect x="363" y="174" width="21" height="1" fill="#000000"/><rect x="128" y="175" width="21" height="1" fill="#000000"/><rect x="149" y="175" width="214" height="1" fill="#933709"/><rect x="363" y="175" width="21" height="1" fill="#000000"/><rect x="128" y="176" width="21" height="1" fill="#000000"/><rect x="149" y="176" width="214" height="1" fill="#933709"/><rect x="363" y="176" width="21" height="1" fill="#000000"/><rect x="128" y="177" width="21" height="1" fill="#000000"/><rect x="149" y="177" width="214" height="1" fill="#933709"/><rect x="363" y="177" width="21" height="1" fill="#000000"/><rect x="128" y="178" width="21" height="1" fill="#000000"/><rect x="149" y="178" width="214" height="1" fill="#933709"/><rect x="363" y="178" width="21" height="1" fill="#000000"/><rect x="128" y="179" width="21" height="1" fill="#000000"/><rect x="149" y="179" width="214" height="1" fill="#933709"/><rect x="363" y="179" width="21" height="1" fill="#000000"/><rect x="128" y="180" width="21" height="1" fill="#000000"/><rect x="149" y="180" width="214" height="1" fill="#933709"/><rect x="363" y="180" width="21" height="1" fill="#000000"/><rect x="128" y="181" width="21" height="1" fill="#000000"/><rect x="149" y="181" width="214" height="1" fill="#933709"/><rect x="363" y="181" width="21" height="1" fill="#000000"/><rect x="128" y="182" width="21" height="1" fill="#000000"/><rect x="149" y="182" width="214" height="1" fill="#933709"/><rect x="363" y="182" width="21" height="1" fill="#000000"/><rect x="128" y="183" width="21" height="1" fill="#000000"/><rect x="149" y="183" width="214" height="1" fill="#933709"/><rect x="363" y="183" width="21" height="1" fill="#000000"/><rect x="128" y="184" width="21" height="1" fill="#000000"/><rect x="149" y="184" width="214" height="1" fill="#933709"/><rect x="363" y="184" width="21" height="1" fill="#000000"/><rect x="128" y="185" width="21" height="1" fill="#000000"/><rect x="149" y="185" width="214" height="1" fill="#933709"/><rect x="363" y="185" width="21" height="1" fill="#000000"/><rect x="128" y="186" width="21" height="1" fill="#000000"/><rect x="149" y="186" width="214" height="1" fill="#933709"/><rect x="363" y="186" width="21" height="1" fill="#000000"/><rect x="128" y="187" width="21" height="1" fill="#000000"/><rect x="149" y="187" width="214" height="1" fill="#933709"/><rect x="363" y="187" width="21" height="1" fill="#000000"/><rect x="128" y="188" width="21" height="1" fill="#000000"/><rect x="149" y="188" width="214" height="1" fill="#933709"/><rect x="363" y="188" width="21" height="1" fill="#000000"/><rect x="128" y="189" width="21" height="1" fill="#000000"/><rect x="149" y="189" width="214" height="1" fill="#933709"/><rect x="363" y="189" width="21" height="1" fill="#000000"/><rect x="128" y="190" width="21" height="1" fill="#000000"/><rect x="149" y="190" width="214" height="1" fill="#933709"/><rect x="363" y="190" width="21" height="1" fill="#000000"/><rect x="128" y="191" width="21" height="1" fill="#000000"/><rect x="149" y="191" width="214" height="1" fill="#933709"/><rect x="363" y="191" width="21" height="1" fill="#000000"/><rect x="128" y="192" width="21" height="1" fill="#000000"/><rect x="149" y="192" width="22" height="1" fill="#933709"/><rect x="171" y="192" width="21" height="1" fill="#CA4E11"/><rect x="192" y="192" width="21" height="1" fill="#933709"/><rect x="213" y="192" width="22" height="1" fill="#CA4E11"/><rect x="235" y="192" width="21" height="1" fill="#933709"/><rect x="256" y="192" width="21" height="1" fill="#CA4E11"/><rect x="277" y="192" width="22" height="1" fill="#933709"/><rect x="299" y="192" width="21" height="1" fill="#CA4E11"/><rect x="320" y="192" width="21" height="1" fill="#933709"/><rect x="341" y="192" width="22" height="1" fill="#CA4E11"/><rect x="363" y="192" width="21" height="1" fill="#000000"/><rect x="128" y="193" width="21" height="1" fill="#000000"/><rect x="149" y="193" width="22" height="1" fill="#933709"/><rect x="171" y="193" width="21" height="1" fill="#CA4E11"/><rect x="192" y="193" width="21" height="1" fill="#933709"/><rect x="213" y="193" width="22" height="1" fill="#CA4E11"/><rect x="235" y="193" width="21" height="1" fill="#933709"/><rect x="256" y="193" width="21" height="1" fill="#CA4E11"/><rect x="277" y="193" width="22" height="1" fill="#933709"/><rect x="299" y="193" width="21" height="1" fill="#CA4E11"/><rect x="320" y="193" width="21" height="1" fill="#933709"/><rect x="341" y="193" width="22" height="1" fill="#CA4E11"/><rect x="363" y="193" width="21" height="1" fill="#000000"/><rect x="128" y="194" width="21" height="1" fill="#000000"/><rect x="149" y="194" width="22" height="1" fill="#933709"/><rect x="171" y="194" width="21" height="1" fill="#CA4E11"/><rect x="192" y="194" width="21" height="1" fill="#933709"/><rect x="213" y="194" width="22" height="1" fill="#CA4E11"/><rect x="235" y="194" width="21" height="1" fill="#933709"/><rect x="256" y="194" width="21" height="1" fill="#CA4E11"/><rect x="277" y="194" width="22" height="1" fill="#933709"/><rect x="299" y="194" width="21" height="1" fill="#CA4E11"/><rect x="320" y="194" width="21" height="1" fill="#933709"/><rect x="341" y="194" width="22" height="1" fill="#CA4E11"/><rect x="363" y="194" width="21" height="1" fill="#000000"/><rect x="128" y="195" width="21" height="1" fill="#000000"/><rect x="149" y="195" width="22" height="1" fill="#933709"/><rect x="171" y="195" width="21" height="1" fill="#CA4E11"/><rect x="192" y="195" width="21" height="1" fill="#933709"/><rect x="213" y="195" width="22" height="1" fill="#CA4E11"/><rect x="235" y="195" width="21" height="1" fill="#933709"/><rect x="256" y="195" width="21" height="1" fill="#CA4E11"/><rect x="277" y="195" width="22" height="1" fill="#933709"/><rect x="299" y="195" width="21" height="1" fill="#CA4E11"/><rect x="320" y="195" width="21" height="1" fill="#933709"/><rect x="341" y="195" width="22" height="1" fill="#CA4E11"/><rect x="363" y="195" width="21" height="1" fill="#000000"/><rect x="128" y="196" width="21" height="1" fill="#000000"/><rect x="149" y="196" width="22" height="1" fill="#933709"/><rect x="171" y="196" width="21" height="1" fill="#CA4E11"/><rect x="192" y="196" width="21" height="1" fill="#933709"/><rect x="213" y="196" width="22" height="1" fill="#CA4E11"/><rect x="235" y="196" width="21" height="1" fill="#933709"/><rect x="256" y="196" width="21" height="1" fill="#CA4E11"/><rect x="277" y="196" width="22" height="1" fill="#933709"/><rect x="299" y="196" width="21" height="1" fill="#CA4E11"/><rect x="320" y="196" width="21" height="1" fill="#933709"/><rect x="341" y="196" width="22" height="1" fill="#CA4E11"/><rect x="363" y="196" width="21" height="1" fill="#000000"/><rect x="128" y="197" width="21" height="1" fill="#000000"/><rect x="149" y="197" width="22" height="1" fill="#933709"/><rect x="171" y="197" width="21" height="1" fill="#CA4E11"/><rect x="192" y="197" width="21" height="1" fill="#933709"/><rect x="213" y="197" width="22" height="1" fill="#CA4E11"/><rect x="235" y="197" width="21" height="1" fill="#933709"/><rect x="256" y="197" width="21" height="1" fill="#CA4E11"/><rect x="277" y="197" width="22" height="1" fill="#933709"/><rect x="299" y="197" width="21" height="1" fill="#CA4E11"/><rect x="320" y="197" width="21" height="1" fill="#933709"/><rect x="341" y="197" width="22" height="1" fill="#CA4E11"/><rect x="363" y="197" width="21" height="1" fill="#000000"/><rect x="128" y="198" width="21" height="1" fill="#000000"/><rect x="149" y="198" width="22" height="1" fill="#933709"/><rect x="171" y="198" width="21" height="1" fill="#CA4E11"/><rect x="192" y="198" width="21" height="1" fill="#933709"/><rect x="213" y="198" width="22" height="1" fill="#CA4E11"/><rect x="235" y="198" width="21" height="1" fill="#933709"/><rect x="256" y="198" width="21" height="1" fill="#CA4E11"/><rect x="277" y="198" width="22" height="1" fill="#933709"/><rect x="299" y="198" width="21" height="1" fill="#CA4E11"/><rect x="320" y="198" width="21" height="1" fill="#933709"/><rect x="341" y="198" width="22" height="1" fill="#CA4E11"/><rect x="363" y="198" width="21" height="1" fill="#000000"/><rect x="128" y="199" width="21" height="1" fill="#000000"/><rect x="149" y="199" width="22" height="1" fill="#933709"/><rect x="171" y="199" width="21" height="1" fill="#CA4E11"/><rect x="192" y="199" width="21" height="1" fill="#933709"/><rect x="213" y="199" width="22" height="1" fill="#CA4E11"/><rect x="235" y="199" width="21" height="1" fill="#933709"/><rect x="256" y="199" width="21" height="1" fill="#CA4E11"/><rect x="277" y="199" width="22" height="1" fill="#933709"/><rect x="299" y="199" width="21" height="1" fill="#CA4E11"/><rect x="320" y="199" width="21" height="1" fill="#933709"/><rect x="341" y="199" width="22" height="1" fill="#CA4E11"/><rect x="363" y="199" width="21" height="1" fill="#000000"/><rect x="128" y="200" width="21" height="1" fill="#000000"/><rect x="149" y="200" width="22" height="1" fill="#933709"/><rect x="171" y="200" width="21" height="1" fill="#CA4E11"/><rect x="192" y="200" width="21" height="1" fill="#933709"/><rect x="213" y="200" width="22" height="1" fill="#CA4E11"/><rect x="235" y="200" width="21" height="1" fill="#933709"/><rect x="256" y="200" width="21" height="1" fill="#CA4E11"/><rect x="277" y="200" width="22" height="1" fill="#933709"/><rect x="299" y="200" width="21" height="1" fill="#CA4E11"/><rect x="320" y="200" width="21" height="1" fill="#933709"/><rect x="341" y="200" width="22" height="1" fill="#CA4E11"/><rect x="363" y="200" width="21" height="1" fill="#000000"/><rect x="128" y="201" width="21" height="1" fill="#000000"/><rect x="149" y="201" width="22" height="1" fill="#933709"/><rect x="171" y="201" width="21" height="1" fill="#CA4E11"/><rect x="192" y="201" width="21" height="1" fill="#933709"/><rect x="213" y="201" width="22" height="1" fill="#CA4E11"/><rect x="235" y="201" width="21" height="1" fill="#933709"/><rect x="256" y="201" width="21" height="1" fill="#CA4E11"/><rect x="277" y="201" width="22" height="1" fill="#933709"/><rect x="299" y="201" width="21" height="1" fill="#CA4E11"/><rect x="320" y="201" width="21" height="1" fill="#933709"/><rect x="341" y="201" width="22" height="1" fill="#CA4E11"/><rect x="363" y="201" width="21" height="1" fill="#000000"/><rect x="128" y="202" width="21" height="1" fill="#000000"/><rect x="149" y="202" width="22" height="1" fill="#933709"/><rect x="171" y="202" width="21" height="1" fill="#CA4E11"/><rect x="192" y="202" width="21" height="1" fill="#933709"/><rect x="213" y="202" width="22" height="1" fill="#CA4E11"/><rect x="235" y="202" width="21" height="1" fill="#933709"/><rect x="256" y="202" width="21" height="1" fill="#CA4E11"/><rect x="277" y="202" width="22" height="1" fill="#933709"/><rect x="299" y="202" width="21" height="1" fill="#CA4E11"/><rect x="320" y="202" width="21" height="1" fill="#933709"/><rect x="341" y="202" width="22" height="1" fill="#CA4E11"/><rect x="363" y="202" width="21" height="1" fill="#000000"/><rect x="128" y="203" width="21" height="1" fill="#000000"/><rect x="149" y="203" width="22" height="1" fill="#933709"/><rect x="171" y="203" width="21" height="1" fill="#CA4E11"/><rect x="192" y="203" width="21" height="1" fill="#933709"/><rect x="213" y="203" width="22" height="1" fill="#CA4E11"/><rect x="235" y="203" width="21" height="1" fill="#933709"/><rect x="256" y="203" width="21" height="1" fill="#CA4E11"/><rect x="277" y="203" width="22" height="1" fill="#933709"/><rect x="299" y="203" width="21" height="1" fill="#CA4E11"/><rect x="320" y="203" width="21" height="1" fill="#933709"/><rect x="341" y="203" width="22" height="1" fill="#CA4E11"/><rect x="363" y="203" width="21" height="1" fill="#000000"/><rect x="128" y="204" width="21" height="1" fill="#000000"/><rect x="149" y="204" width="22" height="1" fill="#933709"/><rect x="171" y="204" width="21" height="1" fill="#CA4E11"/><rect x="192" y="204" width="21" height="1" fill="#933709"/><rect x="213" y="204" width="22" height="1" fill="#CA4E11"/><rect x="235" y="204" width="21" height="1" fill="#933709"/><rect x="256" y="204" width="21" height="1" fill="#CA4E11"/><rect x="277" y="204" width="22" height="1" fill="#933709"/><rect x="299" y="204" width="21" height="1" fill="#CA4E11"/><rect x="320" y="204" width="21" height="1" fill="#933709"/><rect x="341" y="204" width="22" height="1" fill="#CA4E11"/><rect x="363" y="204" width="21" height="1" fill="#000000"/><rect x="128" y="205" width="21" height="1" fill="#000000"/><rect x="149" y="205" width="22" height="1" fill="#933709"/><rect x="171" y="205" width="21" height="1" fill="#CA4E11"/><rect x="192" y="205" width="21" height="1" fill="#933709"/><rect x="213" y="205" width="22" height="1" fill="#CA4E11"/><rect x="235" y="205" width="21" height="1" fill="#933709"/><rect x="256" y="205" width="21" height="1" fill="#CA4E11"/><rect x="277" y="205" width="22" height="1" fill="#933709"/><rect x="299" y="205" width="21" height="1" fill="#CA4E11"/><rect x="320" y="205" width="21" height="1" fill="#933709"/><rect x="341" y="205" width="22" height="1" fill="#CA4E11"/><rect x="363" y="205" width="21" height="1" fill="#000000"/><rect x="128" y="206" width="21" height="1" fill="#000000"/><rect x="149" y="206" width="22" height="1" fill="#933709"/><rect x="171" y="206" width="21" height="1" fill="#CA4E11"/><rect x="192" y="206" width="21" height="1" fill="#933709"/><rect x="213" y="206" width="22" height="1" fill="#CA4E11"/><rect x="235" y="206" width="21" height="1" fill="#933709"/><rect x="256" y="206" width="21" height="1" fill="#CA4E11"/><rect x="277" y="206" width="22" height="1" fill="#933709"/><rect x="299" y="206" width="21" height="1" fill="#CA4E11"/><rect x="320" y="206" width="21" height="1" fill="#933709"/><rect x="341" y="206" width="22" height="1" fill="#CA4E11"/><rect x="363" y="206" width="21" height="1" fill="#000000"/><rect x="128" y="207" width="21" height="1" fill="#000000"/><rect x="149" y="207" width="22" height="1" fill="#933709"/><rect x="171" y="207" width="21" height="1" fill="#CA4E11"/><rect x="192" y="207" width="21" height="1" fill="#933709"/><rect x="213" y="207" width="22" height="1" fill="#CA4E11"/><rect x="235" y="207" width="21" height="1" fill="#933709"/><rect x="256" y="207" width="21" height="1" fill="#CA4E11"/><rect x="277" y="207" width="22" height="1" fill="#933709"/><rect x="299" y="207" width="21" height="1" fill="#CA4E11"/><rect x="320" y="207" width="21" height="1" fill="#933709"/><rect x="341" y="207" width="22" height="1" fill="#CA4E11"/><rect x="363" y="207" width="21" height="1" fill="#000000"/><rect x="128" y="208" width="21" height="1" fill="#000000"/><rect x="149" y="208" width="22" height="1" fill="#933709"/><rect x="171" y="208" width="21" height="1" fill="#CA4E11"/><rect x="192" y="208" width="21" height="1" fill="#933709"/><rect x="213" y="208" width="22" height="1" fill="#CA4E11"/><rect x="235" y="208" width="21" height="1" fill="#933709"/><rect x="256" y="208" width="21" height="1" fill="#CA4E11"/><rect x="277" y="208" width="22" height="1" fill="#933709"/><rect x="299" y="208" width="21" height="1" fill="#CA4E11"/><rect x="320" y="208" width="21" height="1" fill="#933709"/><rect x="341" y="208" width="22" height="1" fill="#CA4E11"/><rect x="363" y="208" width="21" height="1" fill="#000000"/><rect x="128" y="209" width="21" height="1" fill="#000000"/><rect x="149" y="209" width="22" height="1" fill="#933709"/><rect x="171" y="209" width="21" height="1" fill="#CA4E11"/><rect x="192" y="209" width="21" height="1" fill="#933709"/><rect x="213" y="209" width="22" height="1" fill="#CA4E11"/><rect x="235" y="209" width="21" height="1" fill="#933709"/><rect x="256" y="209" width="21" height="1" fill="#CA4E11"/><rect x="277" y="209" width="22" height="1" fill="#933709"/><rect x="299" y="209" width="21" height="1" fill="#CA4E11"/><rect x="320" y="209" width="21" height="1" fill="#933709"/><rect x="341" y="209" width="22" height="1" fill="#CA4E11"/><rect x="363" y="209" width="21" height="1" fill="#000000"/><rect x="128" y="210" width="21" height="1" fill="#000000"/><rect x="149" y="210" width="22" height="1" fill="#933709"/><rect x="171" y="210" width="21" height="1" fill="#CA4E11"/><rect x="192" y="210" width="21" height="1" fill="#933709"/><rect x="213" y="210" width="22" height="1" fill="#CA4E11"/><rect x="235" y="210" width="21" height="1" fill="#933709"/><rect x="256" y="210" width="21" height="1" fill="#CA4E11"/><rect x="277" y="210" width="22" height="1" fill="#933709"/><rect x="299" y="210" width="21" height="1" fill="#CA4E11"/><rect x="320" y="210" width="21" height="1" fill="#933709"/><rect x="341" y="210" width="22" height="1" fill="#CA4E11"/><rect x="363" y="210" width="21" height="1" fill="#000000"/><rect x="128" y="211" width="21" height="1" fill="#000000"/><rect x="149" y="211" width="22" height="1" fill="#933709"/><rect x="171" y="211" width="21" height="1" fill="#CA4E11"/><rect x="192" y="211" width="21" height="1" fill="#933709"/><rect x="213" y="211" width="22" height="1" fill="#CA4E11"/><rect x="235" y="211" width="21" height="1" fill="#933709"/><rect x="256" y="211" width="21" height="1" fill="#CA4E11"/><rect x="277" y="211" width="22" height="1" fill="#933709"/><rect x="299" y="211" width="21" height="1" fill="#CA4E11"/><rect x="320" y="211" width="21" height="1" fill="#933709"/><rect x="341" y="211" width="22" height="1" fill="#CA4E11"/><rect x="363" y="211" width="21" height="1" fill="#000000"/><rect x="128" y="212" width="21" height="1" fill="#000000"/><rect x="149" y="212" width="22" height="1" fill="#933709"/><rect x="171" y="212" width="21" height="1" fill="#CA4E11"/><rect x="192" y="212" width="21" height="1" fill="#933709"/><rect x="213" y="212" width="22" height="1" fill="#CA4E11"/><rect x="235" y="212" width="21" height="1" fill="#933709"/><rect x="256" y="212" width="21" height="1" fill="#CA4E11"/><rect x="277" y="212" width="22" height="1" fill="#933709"/><rect x="299" y="212" width="21" height="1" fill="#CA4E11"/><rect x="320" y="212" width="21" height="1" fill="#933709"/><rect x="341" y="212" width="22" height="1" fill="#CA4E11"/><rect x="363" y="212" width="21" height="1" fill="#000000"/></svg>