<svg xmlns="http://www.w3.org/2000/svg" viewBox="0 0 512 512" width="512" height="512" shape-rendering="crispEdges"><rect x="171" y="85" width="128" height="1" fill="#000000"/><rect x="320" y="85" width="21" height="1" fill="#000000"/><rect x="171" y="86" width="128" height="1" fill="#000000"/><rect x="320" y="86" width="21" height="1" fill="#000000"/><rect x="171" y="87" width="128" height="1" fill="#000000"/><rect x="320" y="87" width="21" height="1" fill="#000000"/><rect x="171" y="88" width="128" height="1" fill="#000000"/><rect x="320" y="88" width="21" height="1" fill="#000000"/><rect x="171" y="89" width="128" height="1" fill="#000000"/><rect x="320" y="89" width="21" height="1" fill="#000000"/><rect x="171" y="90" width="128" height="1" fill="#000000"/><rect x="320" y="90" width="21" height="1" fill="#000000"/><rect x="171" y="91" width="128" height="1" fill="#000000"/><rect x="320" y="91" width="21" height="1" fill="#000000"/><rect x="171" y="92" width="128" height="1" fill="#000000"/><rect x="320" y="92" width="21" height="1" fill="#000000"/><rect x="171" y="93" width="128" height="1" fill="#000000"/><rect x="320" y="93" width="21" height="1" fill="#000000"/><rect x="171" y="94" width="128" height="1" fill="#000000"/><rect x="320" y="94" width="21" height="1" fill="#000000"/><rect x="171" y="95" width="128" height="1" fill="#000000"/><rect x="320" y="95" width="21" height="1" fill="#000000"/><rect x="171" y="96" width="128" height="1" fill="#000000"/><rect x="320" y="96" width="21" height="1" fill="#000000"/><rect x="171" y="97" width="128" height="1" fill="#000000"/><rect x="320" y="97" width="21" height="1" fill="#000000"/><rect x="171" y="98" width="128" height="1" fill="#000000"/><rect x="320" y="98" width="21" height="1" fill="#000000"/><rect x="171" y="99" width="128" height="1" fill="#000000"/><rect x="320" y="99" width="21" height="1" fill="#000000"/><rect x="171" y="100" width="128" height="1" fill="#000000"/><rect x="320" y="100" width="21" height="1" fill="#000000"/><rect x="171" y="101" width="128" height="1" fill="#000000"/><rect x="320" y="101" width="21" height="1" fill="#000000"/><rect x="171" y="102" width="128" height="1" fill="#000000"/><rect x="320" y="102" width="21" height="1" fill="#000000"/><rect x="171" y="103" width="128" height="1" fill="#000000"/><rect x="320" y="103" width="21" height="1" fill="#000000"/><rect x="171" y="104" width="128" height="1" fill="#000000"/><rect x="320" y="104" width="21" height="1" fill="#000000"/><rect x="171" y="105" width="128" height="1" fill="#000000"/><rect x="320" y="105" width="21" height="1" fill="#000000"/><rect x="171" y="106" width="128" height="1" fill="#000000"/><rect x="320" y="106" width="21" height="1" fill="#000000"/><rect x="149" y="107" width="192" height="1" fill="#000000"/><rect x="149" y="108" width="192" height="1" fill="#000000"/><rect x="149" y="109" width="192" height="1" fill="#000000"/><rect x="149" y="110" width="192" height="1" fill="#000000"/><rect x="149" y="111" width="192" height="1" fill="#000000"/><rect x="149" y="112" width="192" height="1" fill="#000000"/><rect x="149" y="113" width="192" height="1" fill="#000000"/><rect x="149" y="114" width="192" height="1" fill="#000000"/><rect x="149" y="115" width="192" height="1" fill="#000000"/><rect x="149" y="116" width="192" height="1" fill="#000000"/><rect x="149" y="117" width="192" height="1" fill="#000000"/><rect x="149" y="118" width="192" height="1" fill="#000000"/><rect x="149" y="119" width="192" height="1" fill="#000000"/><rect x="149" y="120" width="192" height="1" fill="#000000"/><rect x="149" y="121" width="192" height="1" fill="#000000"/><rect x="149" y="122" width="192" height="1" fill="#000000"/><rect x="149" y="123" width="192" height="1" fill="#000000"/><rect x="149" y="124" width="192" height="1" fill="#000000"/><rect x="149" y="125" width="192" height="1" fill="#000000"/><rect x="149" y="126" width="192" height="1" fill="#000000"/><rect x="149" y="127" width="192" height="1" fill="#000000"/><rect x="128" y="128" width="256" height="1" fill="#000000"/><rect x="128" y="129" width="256" height="1" fill="#000000"/><rect x="128" y="130" width="256" height="1" fill="#000000"/><rect x="128" y="131" width="256" height="1" fill="#000000"/><rect x="128" y="132" width="256" height="1" fill="#000000"/><rect x="128" y="133" width="256" height="1" fill="#000000"/><rect x="128" y="134" width="256" height="1" fill="#000000"/><rect x="128" y="135" width="256" height="1" fill="#000000"/><rect x="128" y="136" width="256" height="1" fill="#000000"/><rect x="128" y="137" width="256" height="1" fill="#000000"/><rect x="128" y="138" width="256" height="1" fill="#000000"/><rect x="128" y="139" width="256" height="1" fill="#000000"/><rect x="128" y="140" width="256" height="1" fill="#000000"/><rect x="128" y="141" width="256" height="1" fill="#000000"/><rect x="128" y="142" width="256" height="1" fill="#000000"/><rect x="128" y="143" width="256" height="1" fill="#000000"/><rect x="128" y="144" width="256" height="1" fill="#000000"/><rect x="128" y="145" width="256" height="1" fill="#000000"/><rect x="128" y="146" width="256" height="1" fill="#000000"/><rect x="128" y="147" width="256" height="1" fill="#000000"/><rect x="128" y="148" width="256" height="1" fill="#000000"/><rect x="107" y="149" width="256" height="1" fill="#000000"/><rect x="107" y="150" width="256" height="1" fill="#000000"/><rect x="107" y="151" width="256" height="1" fill="#000000"/><rect x="107" y="152" width="256" height="1" fill="#000000"/><rect x="107" y="153" width="256" height="1" fill="#000000"/><rect x="107" y="154" width="256" height="1" fill="#000000"/><rect x="107" y="155" width="256" height="1" fill="#000000"/><rect x="107" y="156" width="256" height="1" fill="#000000"/><rect x="107" y="157" width="256" height="1" fill="#000000"/><rect x="107" y="158" width="256" height="1" fill="#000000"/><rect x="107" y="159" width="256" height="1" fill="#000000"/><rect x="107" y="160" width="256" height="1" fill="#000000"/><rect x="107" y="161" width="256" height="1" fill="#000000"/><rect x="107" y="162" width="256" height="1" fill="#000000"/><rect x="107" y="163" width="256" height="1" fill="#000000"/><rect x="107" y="164" width="256" height="1" fill="#000000"/><rect x="107" y="165" width="256" height="1" fill="#000000"/><rect x="107" y="166" width="256" height="1" fill="#000000"/><rect x="107" y="167" width="256" height="1" fill="#000000"/><rect x="107" y="168" width="256" height="1" fill="#000000"/><rect x="107" y="169" width="256" height="1" fill="#000000"/><rect x="107" y="170" width="256" height="1" fill="#000000"/><rect x="128" y="171" width="149" height="1" fill="#000000"/><rect x="299" y="171" width="64" height="1" fill="#000000"/><rect x="128" y="172" width="149" height="1" fill="#000000"/><rect x="299" y="172" width="64" height="1" fill="#000000"/><rect x="128" y="173" width="149" height="1" fill="#000000"/><rect x="299" y="173" width="64" height="1" fill="#000000"/><rect x="128" y="174" width="149" height="1" fill="#000000"/><rect x="299" y="174" width="64" height="1" fill="#000000"/><rect x="128" y="175" width="149" height="1" fill="#000000"/><rect x="299" y="175" width="64" height="1" fill="#000000"/><rect x="128" y="176" width="149" height="1" fill="#000000"/><rect x="299" y="176" width="64" height="1" fill="#000000"/><rect x="128" y="177" width="149" height="1" fill="#000000"/><rect x="299" y="177" width="64" height="1" fill="#000000"/><rect x="128" y="178" width="149" height="1" fill="#000000"/><rect x="299" y="178" width="64" height="1" fill="#000000"/><rect x="128" y="179" width="149" height="1" fill="#000000"/><rect x="299" y="179" width="64" height="1" fill="#000000"/><rect x="128" y="180" width="149" height="1" fill="#000000"/><rect x="299" y="180" width="64" height="1" fill="#000000"/><rect x="128" y="181" width="149" height="1" fill="#000000"/><rect x="299" y="181" width="64" height="1" fill="#000000"/><rect x="128" y="182" width="149" height="1" fill="#000000"/><rect x="299" y="182" width="64" height="1" fill="#000000"/><rect x="128" y="183" width="149" height="1" fill="#000000"/><rect x="299" y="183" width="64" height="1" fill="#000000"/><rect x="128" y="184" width="149" height="1" fill="#000000"/><rect x="299" y="184" width="64" height="1" fill="#000000"/><rect x="128" y="185" width="149" height="1" fill="#000000"/><rect x="299" y="185" width="64" height="1" fill="#000000"/><rect x="128" y="186" width="149" height="1" fill="#000000"/><rect x="299" y="186" width="64" height="1" fill="#000000"/><rect x="128" y="187" width="149" height="1" fill="#000000"/><rect x="299" y="187" width="64" height="1" fill="#000000"/><rect x="128" y="188" width="149" height="1" fill="#000000"/><rect x="299" y="188" width="64" height="1" fill="#000000"/><rect x="128" y="189" width="149" height="1" fill="#000000"/><rect x="299" y="189" width="64" height="1" fill="#000000"/><rect x="128" y="190" width="149" height="1" fill="#000000"/><rect x="299" y="190" width="64" height="1" fill="#000000"/><rect x="128" y="191" width="149" height="1" fill="#000000"/><rect x="299" y="191" width="64" height="1" fill="#000000"/><rect x="107" y="192" width="64" height="1" fill="#000000"/><rect x="192" y="192" width="21" height="1" fill="#000000"/><rect x="256" y="192" width="21" height="1" fill="#000000"/><rect x="320" y="192" width="64" height="1" fill="#000000"/><rect x="107" y="193" width="64" height="1" fill="#000000"/><rect x="192" y="193" width="21" height="1" fill="#000000"/><rect x="256" y="193" width="21" height="1" fill="#000000"/><rect x="320" y="193" width="64" height="1" fill="#000000"/><rect x="107" y="194" width="64" height="1" fill="#000000"/><rect x="192" y="194" width="21" height="1" fill="#000000"/><rect x="256" y="194" width="21" height="1" fill="#000000"/><rect x="320" y="194" width="64" height="1" fill="#000000"/><rect x="107" y="195" width="64" height="1" fill="#000000"/><rect x="192" y="195" width="21" height="1" fill="#000000"/><rect x="256" y="195" width="21" height="1" fill="#000000"/><rect x="320" y="195" width="64" height="1" fill="#000000"/><rect x="107" y="196" width="64" height="1" fill="#000000"/><rect x="192" y="196" width="21" height="1" fill="#000000"/><rect x="256" y="196" width="21" height="1" fill="#000000"/><rect x="320" y="196" width="64" height="1" fill="#000000"/><rect x="107" y="197" width="64" height="1" fill="#000000"/><rect x="192" y="197" width="21" height="1" fill="#000000"/><rect x="256" y="197" width="21" height="1" fill="#000000"/><rect x="320" y="197" width="64" height="1" fill="#000000"/><rect x="107" y="198" width="64" height="1" fill="#000000"/><rect x="192" y="198" width="21" height="1" fill="#000000"/><rect x="256" y="198" width="21" height="1" fill="#000000"/><rect x="320" y="198" width="64" height="1" fill="#000000"/><rect x="107" y="199" width="64" height="1" fill="#000000"/><rect x="192" y="199" width="21" height="1" fill="#000000"/><rect x="256" y="199" width="21" height="1" fill="#000000"/><rect x="320" y="199" width="64" height="1" fill="#000000"/><rect x="107" y="200" width="64" height="1" fill="#000000"/><rect x="192" y="200" width="21" height="1" fill="#000000"/><rect x="256" y="200" width="21" height="1" fill="#000000"/><rect x="320" y="200" width="64" height="1" fill="#000000"/><rect x="107" y="201" width="64" height="1" fill="#000000"/><rect x="192" y="201" width="21" height="1" fill="#000000"/><rect x="256" y="201" width="21" height="1" fill="#000000"/><rect x="320" y="201" width="64" height="1" fill="#000000"/><rect x="107" y="202" width="64" height="1" fill="#000000"/><rect x="192" y="202" width="21" height="1" fill="#000000"/><rect x="256" y="202" width="21" height="1" fill="#000000"/><rect x="320" y="202" width="64" height="1" fill="#000000"/><rect x="107" y="203" width="64" height="1" fill="#000000"/><rect x="192" y="203" width="21" height="1" fill="#000000"/><rect x="256" y="203" width="21" height="1" fill="#000000"/><rect x="320" y="203" width="64" height="1" fill="#000000"/><rect x="107" y="204" width="64" height="1" fill="#000000"/><rect x="192" y="204" width="21" height="1" fill="#000000"/><rect x="256" y="204" width="21" height="1" fill="#000000"/><rect x="320" y="204" width="64" height="1" fill="#000000"/><rect x="107" y="205" width="64" height="1" fill="#000000"/><rect x="192" y="205" width="21" height="1" fill="#000000"/><rect x="256" y="205" width="21" height="1" fill="#000000"/><rect x="320" y="205" width="64" height="1" fill="#000000"/><rect x="107" y="206" width="64" height="1" fill="#000000"/><rect x="192" y="206" width="21" height="1" fill="#000000"/><rect x="256" y="206" width="21" height="1" fill="#000000"/><rect x="320" y="206" width="64" height="1" fill="#000000"/><rect x="107" y="207" width="64" height="1" fill="#000000"/><rect x="192" y="207" width="21" height="1" fill="#000000"/><rect x="256" y="207" width="21" height="1" fill="#000000"/><rect x="320" y="207" width="64" height="1" fill="#000000"/><rect x="107" y="208" width="64" height="1" fill="#000000"/><rect x="192" y="208" width="21" height="1" fill="#000000"/><rect x="256" y="208" width="21" height="1" fill="#000000"/><rect x="320" y="208" width="64" height="1" fill="#000000"/><rect x="107" y="209" width="64" height="1" fill="#000000"/><rect x="192" y="209" width="21" height="1" fill="#000000"/><rect x="256" y="209" width="21" height="1" fill="#000000"/><rect x="320" y="209" width="64" height="1" fill="#000000"/><rect x="107" y="210" width="64" height="1" fill="#000000"/><rect x="192" y="210" width="21" height="1" fill="#000000"/><rect x="256" y="210" width="21" height="1" fill="#000000"/><rect x="320" y="210" width="64" height="1" fill="#000000"/><rect x="107" y="211" width="64" height="1" fill="#000000"/><rect x="192" y="211" width="21" height="1" fill="#000000"/><rect x="256" y="211" width="21" height="1" fill="#000000"/><rect x="320" y="211" width="64" height="1" fill="#000000"/><rect x="107" y="212" width="64" height="1" fill="#000000"/><rect x="192" y="212" width="21" height="1" fill="#000000"/><rect x="256" y="212" width="21" height="1" fill="#000000"/><rect x="320" y="212" width="64" height="1" fill="#000000"/><rect x="149" y="213" width="43" height="1" fill="#000000"/><rect x="256" y="213" width="21" height="1" fill="#000000"/><rect x="341" y="213" width="22" height="1" fill="#000000"/><rect x="149" y="214" width="43" height="1" fill="#000000"/><rect x="256" y="214" width="21" height="1" fill="#000000"/><rect x="341" y="214" width="22" height="1" fill="#000000"/><rect x="149" y="215" width="43" height="1" fill="#000000"/><rect x="256" y="215" width="21" height="1" fill="#000000"/><rect x="341" y="215" width="22" height="1" fill="#000000"/><rect x="149" y="216" width="43" height="1" fill="#000000"/><rect x="256" y="216" width="21" height="1" fill="#000000"/><rect x="341" y="216" width="22" height="1" fill="#000000"/><rect x="149" y="217" width="43" height="1" fill="#000000"/><rect x="256" y="217" width="21" height="1" fill="#000000"/><rect x="341" y="217" width="22" height="1" fill="#000000"/><rect x="149" y="218" width="43" height="1" fill="#000000"/><rect x="256" y="218" width="21" height="1" fill="#000000"/><rect x="341" y="218" width="22" height="1" fill="#000000"/><rect x="149" y="219" width="43" height="1" fill="#000000"/><rect x="256" y="219" width="21" height="1" fill="#000000"/><rect x="341" y="219" width="22" height="1" fill="#000000"/><rect x="149" y="220" width="43" height="1" fill="#000000"/><rect x="256" y="220" width="21" height="1" fill="#000000"/><rect x="341" y="220" width="22" height="1" fill="#000000"/><rect x="149" y="221" width="43" height="1" fill="#000000"/><rect x="256" y="221" width="21" height="1" fill="#000000"/><rect x="341" y="221" width="22" height="1" fill="#000000"/><rect x="149" y="222" width="43" height="1" fill="#000000"/><rect x="256" y="222" width="21" height="1" fill="#000000"/><rect x="341" y="222" width="22" height="1" fill="#000000"/><rect x="149" y="223" width="43" height="1" fill="#000000"/><rect x="256" y="223" width="21" height="1" fill="#000000"/><rect x="341" y="223" width="22" height="1" fill="#000000"/><rect x="149" y="224" width="43" height="1" fill="#000000"/><rect x="256" y="224" width="21" height="1" fill="#000000"/><rect x="341" y="224" width="22" height="1" fill="#000000"/><rect x="149" y="225" width="43" height="1" fill="#000000"/><rect x="256" y="225" width="21" height="1" fill="#000000"/><rect x="341" y="225" width="22" height="1" fill="#000000"/><rect x="149" y="226" width="43" height="1" fill="#000000"/><rect x="256" y="226" width="21" height="1" fill="#000000"/><rect x="341" y="226" width="22" height="1" fill="#000000"/><rect x="149" y="227" width="43" height="1" fill="#000000"/><rect x="256" y="227" width="21" height="1" fill="#000000"/><rect x="341" y="227" width="22" height="1" fill="#000000"/><rect x="149" y="228" width="43" height="1" fill="#000000"/><rect x="256" y="228" width="21" height="1" fill="#000000"/><rect x="341" y="228" width="22" height="1" fill="#000000"/><rect x="149" y="229" width="43" height="1" fill="#000000"/><rect x="256" y="229" width="21" height="1" fill="#000000"/><rect x="341" y="229" width="22" height="1" fill="#000000"/><rect x="149" y="230" width="43" height="1" fill="#000000"/><rect x="256" y="230" width="21" height="1" fill="#000000"/><rect x="341" y="230" width="22" height="1" fill="#000000"/><rect x="149" y="231" width="43" height="1" fill="#000000"/><rect x="256" y="231" width="21" height="1" fill="#000000"/><rect x="341" y="231" width="22" height="1" fill="#000000"/><rect x="149" y="232" width="43" height="1" fill="#000000"/><rect x="256" y="232" width="21" height="1" fill="#000000"/><rect x="341" y="232" width="22" height="1" fill="#000000"/><rect x="149" y="233" width="43" height="1" fill="#000000"/><rect x="256" y="233" width="21" height="1" fill="#000000"/><rect x="341" y="233" width="22" height="1" fill="#000000"/><rect x="149" y="234" width="43" height="1" fill="#000000"/><rect x="256" y="234" width="21" height="1" fill="#000000"/><rect x="341" y="234" width="22" height="1" fill="#000000"/><rect x="149" y="235" width="22" height="1" fill="#000000"/><rect x="149" y="236" width="22" height="1" fill="#000000"/><rect x="149" y="237" width="22" height="1" fill="#000000"/><rect x="149" y="238" width="22" height="1" fill="#000000"/><rect x="149" y="239" width="22" height="1" fill="#000000"/><rect x="149" y="240" width="22" height="1" fill="#000000"/><rect x="149" y="241" width="22" height="1" fill="#000000"/><rect x="149" y="242" width="22" height="1" fill="#000000"/><rect x="149" y="243" width="22" height="1" fill="#000000"/><rect x="149" y="244" width="22" height="1" fill="#000000"/><rect x="149" y="245" width="22" height="1" fill="#000000"/><rect x="149" y="246" width="22" height="1" fill="#000000"/><rect x="149" y="247" width="22" height="1" fill="#000000"/><rect x="149" y="248" width="22" height="1" fill="#000000"/><rect x="149" y="249" width="22" height="1" fill="#000000"/><rect x="149" y="250" width="22" height="1" fill="#000000"/><rect x="149" y="251" width="22" height="1" fill="#000000"/><rect x="149" y="252" width="22" height="1" fill="#000000"/><rect x="149" y="253" width="22" height="1" fill="#000000"/><rect x="149" y="254" width="22" height="1" fill="#000000"/><rect x="149" y="255" width="22" height="1" fill="#000000"/></svg>