<svg xmlns="http://www.w3.org/2000/svg" viewBox="0 0 512 512" width="512" height="512" shape-rendering="crispEdges"><rect x="256" y="64" width="21" height="1" fill="#000000"/><rect x="256" y="65" width="21" height="1" fill="#000000"/><rect x="256" y="66" width="21" height="1" fill="#000000"/><rect x="256" y="67" width="21" height="1" fill="#000000"/><rect x="256" y="68" width="21" height="1" fill="#000000"/><rect x="256" y="69" width="21" height="1" fill="#000000"/><rect x="256" y="70" width="21" height="1" fill="#000000"/><rect x="256" y="71" width="21" height="1" fill="#000000"/><rect x="256" y="72" width="21" height="1" fill="#000000"/><rect x="256" y="73" width="21" height="1" fill="#000000"/><rect x="256" y="74" width="21" height="1" fill="#000000"/><rect x="256" y="75" width="21" height="1" fill="#000000"/><rect x="256" y="76" width="21" height="1" fill="#000000"/><rect x="256" y="77" width="21" height="1" fill="#000000"/><rect x="256" y="78" width="21" height="1" fill="#000000"/><rect x="256" y="79" width="21" height="1" fill="#000000"/><rect x="256" y="80" width="21" height="1" fill="#000000"/><rect x="256" y="81" width="21" height="1" fill="#000000"/><rect x="256" y="82" width="21" height="1" fill="#000000"/><rect x="256" y="83" width="21" height="1" fill="#000000"/><rect x="256" y="84" width="21" height="1" fill="#000000"/><rect x="235" y="85" width="21" height="1" fill="#000000"/><rect x="256" y="85" width="21" height="1" fill="#555555"/><rect x="277" y="85" width="22" height="1" fill="#000000"/><rect x="235" y="86" width="21" height="1" fill="#000000"/><rect x="256" y="86" width="21" height="1" fill="#555555"/><rect x="277" y="86" width="22" height="1" fill="#000000"/><rect x="235" y="87" width="21" height="1" fill="#000000"/><rect x="256" y="87" width="21" height="1" fill="#555555"/><rect x="277" y="87" width="22" height="1" fill="#000000"/><rect x="235" y="88" width="21" height="1" fill="#000000"/><rect x="256" y="88" width="21" height="1" fill="#555555"/><rect x="277" y="88" width="22" height="1" fill="#000000"/><rect x="235" y="89" width="21" height="1" fill="#000000"/><rect x="256" y="89" width="21" height="1" fill="#555555"/><rect x="277" y="89" width="22" height="1" fill="#000000"/><rect x="235" y="90" width="21" height="1" fill="#000000"/><rect x="256" y="90" width="21" height="1" fill="#555555"/><rect x="277" y="90" width="22" height="1" fill="#000000"/><rect x="235" y="91" width="21" height="1" fill="#000000"/><rect x="256" y="91" width="21" height="1" fill="#555555"/><rect x="277" y="91" width="22" height="1" fill="#000000"/><rect x="235" y="92" width="21" height="1" fill="#000000"/><rect x="256" y="92" width="21" height="1" fill="#555555"/><rect x="277" y="92" width="22" height="1" fill="#000000"/><rect x="235" y="93" width="21" height="1" fill="#000000"/><rect x="256" y="93" width="21" height="1" fill="#555555"/><rect x="277" y="93" width="22" height="1" fill="#000000"/><rect x="235" y="94" width="21" height="1" fill="#000000"/><rect x="256" y="94" width="21" height="1" fill="#555555"/><rect x="277" y="94" width="22" height="1" fill="#000000"/><rect x="235" y="95" width="21" height="1" fill="#000000"/><rect x="256" y="95" width="21" height="1" fill="#555555"/><rect x="277" y="95" width="22" height="1" fill="#000000"/><rect x="235" y="96" width="21" height="1" fill="#000000"/><rect x="256" y="96" width="21" height="1" fill="#555555"/><rect x="277" y="96" width="22" height="1" fill="#000000"/><rect x="235" y="97" width="21" height="1" fill="#000000"/><rect x="256" y="97" width="21" height="1" fill="#555555"/><rect x="277" y="97" width="22" height="1" fill="#000000"/><rect x="235" y="98" width="21" height="1" fill="#000000"/><rect x="256" y="98" width="21" height="1" fill="#555555"/><rect x="277" y="98" width="22" height="1" fill="#000000"/><rect x="235" y="99" width="21" height="1" fill="#000000"/><rect x="256" y="99" width="21" height="1" fill="#555555"/><rect x="277" y="99" width="22" height="1" fill="#000000"/><rect x="235" y="100" width="21" height="1" fill="#000000"/><rect x="256" y="100" width="21" height="1" fill="#555555"/><rect x="277" y="100" width="22" height="1" fill="#000000"/><rect x="235" y="101" width="21" height="1" fill="#000000"/><rect x="256" y="101" width="21" height="1" fill="#555555"/><rect x="277" y="101" width="22" height="1" fill="#000000"/><rect x="235" y="102" width="21" height="1" fill="#000000"/><rect x="256" y="102" width="21" height="1" fill="#555555"/><rect x="277" y="102" width="22" height="1" fill="#000000"/><rect x="235" y="103" width="21" height="1" fill="#000000"/><rect x="256" y="103" width="21" height="1" fill="#555555"/><rect x="277" y="103" width="22" height="1" fill="#000000"/><rect x="235" y="104" width="21" height="1" fill="#000000"/><rect x="256" y="104" width="21" height="1" fill="#555555"/><rect x="277" y="104" width="22" height="1" fill="#000000"/><rect x="235" y="105" width="21" height="1" fill="#000000"/><rect x="256" y="105" width="21" height="1" fill="#555555"/><rect x="277" y="105" width="22" height="1" fill="#000000"/><rect x="235" y="106" width="21" height="1" fill="#000000"/><rect x="256" y="106" width="21" height="1" fill="#555555"/><rect x="277" y="106" width="22" height="1" fill="#000000"/><rect x="235" y="107" width="21" height="1" fill="#000000"/><rect x="256" y="107" width="21" height="1" fill="#555555"/><rect x="277" y="107" width="22" height="1" fill="#000000"/><rect x="235" y="108" width="21" height="1" fill="#000000"/><rect x="256" y="108" width="21" height="1" fill="#555555"/><rect x="277" y="108" width="22" height="1" fill="#000000"/><rect x="235" y="109" width="21" height="1" fill="#000000"/><rect x="256" y="109" width="21" height="1" fill="#555555"/><rect x="277" y="109" width="22" height="1" fill="#000000"/><rect x="235" y="110" width="21" height="1" fill="#000000"/><rect x="256" y="110" width="21" height="1" fill="#555555"/><rect x="277" y="110" width="22" height="1" fill="#000000"/><rect x="235" y="111" width="21" height="1" fill="#000000"/><rect x="256" y="111" width="21" height="1" fill="#555555"/><rect x="277" y="111" width="22" height="1" fill="#000000"/><rect x="235" y="112" width="21" height="1" fill="#000000"/><rect x="256" y="112" width="21" height="1" fill="#555555"/><rect x="277" y="112" width="22" height="1" fill="#000000"/><rect x="235" y="113" width="21" height="1" fill="#000000"/><rect x="256" y="113" width="21" height="1" fill="#555555"/><rect x="277" y="113" width="22" height="1" fill="#000000"/><rect x="235" y="114" width="21" height="1" fill="#000000"/><rect x="256" y="114" width="21" height="1" fill="#555555"/><rect x="277" y="114" width="22" height="1" fill="#000000"/><rect x="235" y="115" width="21" height="1" fill="#000000"/><rect x="256" y="115" width="21" height="1" fill="#555555"/><rect x="277" y="115" width="22" height="1" fill="#000000"/><rect x="235" y="116" width="21" height="1" fill="#000000"/><rect x="256" y="116" width="21" height="1" fill="#555555"/><rect x="277" y="116" width="22" height="1" fill="#000000"/><rect x="235" y="117" width="21" height="1" fill="#000000"/><rect x="256" y="117" width="21" height="1" fill="#555555"/><rect x="277" y="117" width="22" height="1" fill="#000000"/><rect x="235" y="118" width="21" height="1" fill="#000000"/><rect x="256" y="118" width="21" height="1" fill="#555555"/><rect x="277" y="118" width="22" height="1" fill="#000000"/><rect x="235" y="119" width="21" height="1" fill="#000000"/><rect x="256" y="119" width="21" height="1" fill="#555555"/><rect x="277" y="119" width="22" height="1" fill="#000000"/><rect x="235" y="120" width="21" height="1" fill="#000000"/><rect x="256" y="120" width="21" height="1" fill="#555555"/><rect x="277" y="120" width="22" height="1" fill="#000000"/><rect x="235" y="121" width="21" height="1" fill="#000000"/><rect x="256" y="121" width="21" height="1" fill="#555555"/><rect x="277" y="121" width="22" height="1" fill="#000000"/><rect x="235" y="122" width="21" height="1" fill="#000000"/><rect x="256" y="122" width="21" height="1" fill="#555555"/><rect x="277" y="122" width="22" height="1" fill="#000000"/><rect x="235" y="123" width="21" height="1" fill="#000000"/><rect x="256" y="123" width="21" height="1" fill="#555555"/><rect x="277" y="123" width="22" height="1" fill="#000000"/><rect x="235" y="124" width="21" height="1" fill="#000000"/><rect x="256" y="124" width="21" height="1" fill="#555555"/><rect x="277" y="124" width="22" height="1" fill="#000000"/><rect x="235" y="125" width="21" height="1" fill="#000000"/><rect x="256" y="125" width="21" height="1" fill="#555555"/><rect x="277" y="125" width="22" height="1" fill="#000000"/><rect x="235" y="126" width="21" height="1" fill="#000000"/><rect x="256" y="126" width="21" height="1" fill="#555555"/><rect x="277" y="126" width="22" height="1" fill="#000000"/><rect x="235" y="127" width="21" height="1" fill="#000000"/><rect x="256" y="127" width="21" height="1" fill="#555555"/><rect x="277" y="127" width="22" height="1" fill="#000000"/><rect x="235" y="128" width="21" height="1" fill="#000000"/><rect x="256" y="128" width="21" height="1" fill="#555555"/><rect x="277" y="128" width="22" height="1" fill="#000000"/><rect x="235" y="129" width="21" height="1" fill="#000000"/><rect x="256" y="129" width="21" height="1" fill="#555555"/><rect x="277" y="129" width="22" height="1" fill="#000000"/><rect x="235" y="130" width="21" height="1" fill="#000000"/><rect x="256" y="130" width="21" height="1" fill="#555555"/><rect x="277" y="130" width="22" height="1" fill="#000000"/><rect x="235" y="131" width="21" height="1" fill="#000000"/><rect x="256" y="131" width="21" height="1" fill="#555555"/><rect x="277" y="131" width="22" height="1" fill="#000000"/><rect x="235" y="132" width="21" height="1" fill="#000000"/><rect x="256" y="132" width="21" height="1" fill="#555555"/><rect x="277" y="132" width="22" height="1" fill="#000000"/><rect x="235" y="133" width="21" height="1" fill="#000000"/><rect x="256" y="133" width="21" height="1" fill="#555555"/><rect x="277" y="133" width="22" height="1" fill="#000000"/><rect x="235" y="134" width="21" height="1" fill="#000000"/><rect x="256" y="134" width="21" height="1" fill="#555555"/><rect x="277" y="134" width="22" height="1" fill="#000000"/><rect x="235" y="135" width="21" height="1" fill="#000000"/><rect x="256" y="135" width="21" height="1" fill="#555555"/><rect x="277" y="135" width="22" height="1" fill="#000000"/><rect x="235" y="136" width="21" height="1" fill="#000000"/><rect x="256" y="136" width="21" height="1" fill="#555555"/><rect x="277" y="136" width="22" height="1" fill="#000000"/><rect x="235" y="137" width="21" height="1" fill="#000000"/><rect x="256" y="137" width="21" height="1" fill="#555555"/><rect x="277" y="137" width="22" height="1" fill="#000000"/><rect x="235" y="138" width="21" height="1" fill="#000000"/><rect x="256" y="138" width="21" height="1" fill="#555555"/><rect x="277" y="138" width="22" height="1" fill="#000000"/><rect x="235" y="139" width="21" height="1" fill="#000000"/><rect x="256" y="139" width="21" height="1" fill="#555555"/><rect x="277" y="139" width="22" height="1" fill="#000000"/><rect x="235" y="140" width="21" height="1" fill="#000000"/><rect x="256" y="140" width="21" height="1" fill="#555555"/><rect x="277" y="140" width="22" height="1" fill="#000000"/><rect x="235" y="141" width="21" height="1" fill="#000000"/><rect x="256" y="141" width="21" height="1" fill="#555555"/><rect x="277" y="141" width="22" height="1" fill="#000000"/><rect x="235" y="142" width="21" height="1" fill="#000000"/><rect x="256" y="142" width="21" height="1" fill="#555555"/><rect x="277" y="142" width="22" height="1" fill="#000000"/><rect x="235" y="143" width="21" height="1" fill="#000000"/><rect x="256" y="143" width="21" height="1" fill="#555555"/><rect x="277" y="143" width="22" height="1" fill="#000000"/><rect x="235" y="144" width="21" height="1" fill="#000000"/><rect x="256" y="144" width="21" height="1" fill="#555555"/><rect x="277" y="144" width="22" height="1" fill="#000000"/><rect x="235" y="145" width="21" height="1" fill="#000000"/><rect x="256" y="145" width="21" height="1" fill="#555555"/><rect x="277" y="145" width="22" height="1" fill="#000000"/><rect x="235" y="146" width="21" height="1" fill="#000000"/><rect x="256" y="146" width="21" height="1" fill="#555555"/><rect x="277" y="146" width="22" height="1" fill="#000000"/><rect x="235" y="147" width="21" height="1" fill="#000000"/><rect x="256" y="147" width="21" height="1" fill="#555555"/><rect x="277" y="147" width="22" height="1" fill="#000000"/><rect x="235" y="148" width="21" height="1" fill="#000000"/><rect x="256" y="148" width="21" height="1" fill="#555555"/><rect x="277" y="148" width="22" height="1" fill="#000000"/><rect x="235" y="149" width="21" height="1" fill="#000000"/><rect x="256" y="149" width="21" height="1" fill="#555555"/><rect x="277" y="149" width="22" height="1" fill="#000000"/><rect x="235" y="150" width="21" height="1" fill="#000000"/><rect x="256" y="150" width="21" height="1" fill="#555555"/><rect x="277" y="150" width="22" height="1" fill="#000000"/><rect x="235" y="151" width="21" height="1" fill="#000000"/><rect x="256" y="151" width="21" height="1" fill="#555555"/><rect x="277" y="151" width="22" height="1" fill="#000000"/><rect x="235" y="152" width="21" height="1" fill="#000000"/><rect x="256" y="152" width="21" height="1" fill="#555555"/><rect x="277" y="152" width="22" height="1" fill="#000000"/><rect x="235" y="153" width="21" height="1" fill="#000000"/><rect x="256" y="153" width="21" height="1" fill="#555555"/><rect x="277" y="153" width="22" height="1" fill="#000000"/><rect x="235" y="154" width="21" height="1" fill="#000000"/><rect x="256" y="154" width="21" height="1" fill="#555555"/><rect x="277" y="154" width="22" height="1" fill="#000000"/><rect x="235" y="155" width="21" height="1" fill="#000000"/><rect x="256" y="155" width="21" height="1" fill="#555555"/><rect x="277" y="155" width="22" height="1" fill="#000000"/><rect x="235" y="156" width="21" height="1" fill="#000000"/><rect x="256" y="156" width="21" height="1" fill="#555555"/><rect x="277" y="156" width="22" height="1" fill="#000000"/><rect x="235" y="157" width="21" height="1" fill="#000000"/><rect x="256" y="157" width="21" height="1" fill="#555555"/><rect x="277" y="157" width="22" height="1" fill="#000000"/><rect x="235" y="158" width="21" height="1" fill="#000000"/><rect x="256" y="158" width="21" height="1" fill="#555555"/><rect x="277" y="158" width="22" height="1" fill="#000000"/><rect x="235" y="159" width="21" height="1" fill="#000000"/><rect x="256" y="159" width="21" height="1" fill="#555555"/><rect x="277" y="159" width="22" height="1" fill="#000000"/><rect x="235" y="160" width="21" height="1" fill="#000000"/><rect x="256" y="160" width="21" height="1" fill="#555555"/><rect x="277" y="160" width="22" height="1" fill="#000000"/><rect x="235" y="161" width="21" height="1" fill="#000000"/><rect x="256" y="161" width="21" height="1" fill="#555555"/><rect x="277" y="161" width="22" height="1" fill="#000000"/><rect x="235" y="162" width="21" height="1" fill="#000000"/><rect x="256" y="162" width="21" height="1" fill="#555555"/><rect x="277" y="162" width="22" height="1" fill="#000000"/><rect x="235" y="163" width="21" height="1" fill="#000000"/><rect x="256" y="163" width="21" height="1" fill="#555555"/><rect x="277" y="163" width="22" height="1" fill="#000000"/><rect x="235" y="164" width="21" height="1" fill="#000000"/><rect x="256" y="164" width="21" height="1" fill="#555555"/><rect x="277" y="164" width="22" height="1" fill="#000000"/><rect x="235" y="165" width="21" height="1" fill="#000000"/><rect x="256" y="165" width="21" height="1" fill="#555555"/><rect x="277" y="165" width="22" height="1" fill="#000000"/><rect x="235" y="166" width="21" height="1" fill="#000000"/><rect x="256" y="166" width="21" height="1" fill="#555555"/><rect x="277" y="166" width="22" height="1" fill="#000000"/><rect x="235" y="167" width="21" height="1" fill="#000000"/><rect x="256" y="167" width="21" height="1" fill="#555555"/><rect x="277" y="167" width="22" height="1" fill="#000000"/><rect x="235" y="168" width="21" height="1" fill="#000000"/><rect x="256" y="168" width="21" height="1" fill="#555555"/><rect x="277" y="168" width="22" height="1" fill="#000000"/><rect x="235" y="169" width="21" height="1" fill="#000000"/><rect x="256" y="169" width="21" height="1" fill="#555555"/><rect x="277" y="169" width="22" height="1" fill="#000000"/><rect x="235" y="170" width="21" height="1" fill="#000000"/><rect x="256" y="170" width="21" height="1" fill="#555555"/><rect x="277" y="170" width="22" height="1" fill="#000000"/><rect x="235" y="171" width="21" height="1" fill="#000000"/><rect x="256" y="171" width="21" height="1" fill="#555555"/><rect x="277" y="171" width="22" height="1" fill="#000000"/><rect x="235" y="172" width="21" height="1" fill="#000000"/><rect x="256" y="172" width="21" height="1" fill="#555555"/><rect x="277" y="172" width="22" height="1" fill="#000000"/><rect x="235" y="173" width="21" height="1" fill="#000000"/><rect x="256" y="173" width="21" height="1" fill="#555555"/><rect x="277" y="173" width="22" height="1" fill="#000000"/><rect x="235" y="174" width="21" height="1" fill="#000000"/><rect x="256" y="174" width="21" height="1" fill="#555555"/><rect x="277" y="174" width="22" height="1" fill="#000000"/><rect x="235" y="175" width="21" height="1" fill="#000000"/><rect x="256" y="175" width="21" height="1" fill="#555555"/><rect x="277" y="175" width="22" height="1" fill="#000000"/><rect x="235" y="176" width="21" height="1" fill="#000000"/><rect x="256" y="176" width="21" height="1" fill="#555555"/><rect x="277" y="176" width="22" height="1" fill="#000000"/><rect x="235" y="177" width="21" height="1" fill="#000000"/><rect x="256" y="177" width="21" height="1" fill="#555555"/><rect x="277" y="177" width="22" height="1" fill="#000000"/><rect x="235" y="178" width="21" height="1" fill="#000000"/><rect x="256" y="178" width="21" height="1" fill="#555555"/><rect x="277" y="178" width="22" height="1" fill="#000000"/><rect x="235" y="179" width="21" height="1" fill="#000000"/><rect x="256" y="179" width="21" height="1" fill="#555555"/><rect x="277" y="179" width="22" height="1" fill="#000000"/><rect x="235" y="180" width="21" height="1" fill="#000000"/><rect x="256" y="180" width="21" height="1" fill="#555555"/><rect x="277" y="180" width="22" height="1" fill="#000000"/><rect x="235" y="181" width="21" height="1" fill="#000000"/><rect x="256" y="181" width="21" height="1" fill="#555555"/><rect x="277" y="181" width="22" height="1" fill="#000000"/><rect x="235" y="182" width="21" height="1" fill="#000000"/><rect x="256" y="182" width="21" height="1" fill="#555555"/><rect x="277" y="182" width="22" height="1" fill="#000000"/><rect x="235" y="183" width="21" height="1" fill="#000000"/><rect x="256" y="183" width="21" height="1" fill="#555555"/><rect x="277" y="183" width="22" height="1" fill="#000000"/><rect x="235" y="184" width="21" height="1" fill="#000000"/><rect x="256" y="184" width="21" height="1" fill="#555555"/><rect x="277" y="184" width="22" height="1" fill="#000000"/><rect x="235" y="185" width="21" height="1" fill="#000000"/><rect x="256" y="185" width="21" height="1" fill="#555555"/><rect x="277" y="185" width="22" height="1" fill="#000000"/><rect x="235" y="186" width="21" height="1" fill="#000000"/><rect x="256" y="186" width="21" height="1" fill="#555555"/><rect x="277" y="186" width="22" height="1" fill="#000000"/><rect x="235" y="187" width="21" height="1" fill="#000000"/><rect x="256" y="187" width="21" height="1" fill="#555555"/><rect x="277" y="187" width="22" height="1" fill="#000000"/><rect x="235" y="188" width="21" height="1" fill="#000000"/><rect x="256" y="188" width="21" height="1" fill="#555555"/><rect x="277" y="188" width="22" height="1" fill="#000000"/><rect x="235" y="189" width="21" height="1" fill="#000000"/><rect x="256" y="189" width="21" height="1" fill="#555555"/><rect x="277" y="189" width="22" height="1" fill="#000000"/><rect x="235" y="190" width="21" height="1" fill="#000000"/><rect x="256" y="190" width="21" height="1" fill="#555555"/><rect x="277" y="190" width="22" height="1" fill="#000000"/><rect x="235" y="191" width="21" height="1" fill="#000000"/><rect x="256" y="191" width="21" height="1" fill="#555555"/><rect x="277" y="191" width="22" height="1" fill="#000000"/></svg>