<svg xmlns="http://www.w3.org/2000/svg" viewBox="0 0 512 512" width="512" height="512" shape-rendering="crispEdges"><rect x="277" y="64" width="43" height="1" fill="#000000"/><rect x="277" y="65" width="43" height="1" fill="#000000"/><rect x="277" y="66" width="43" height="1" fill="#000000"/><rect x="277" y="67" width="43" height="1" fill="#000000"/><rect x="277" y="68" width="43" height="1" fill="#000000"/><rect x="277" y="69" width="43" height="1" fill="#000000"/><rect x="277" y="70" width="43" height="1" fill="#000000"/><rect x="277" y="71" width="43" height="1" fill="#000000"/><rect x="277" y="72" width="43" height="1" fill="#000000"/><rect x="277" y="73" width="43" height="1" fill="#000000"/><rect x="277" y="74" width="43" height="1" fill="#000000"/><rect x="277" y="75" width="43" height="1" fill="#000000"/><rect x="277" y="76" width="43" height="1" fill="#000000"/><rect x="277" y="77" width="43" height="1" fill="#000000"/><rect x="277" y="78" width="43" height="1" fill="#000000"/><rect x="277" y="79" width="43" height="1" fill="#000000"/><rect x="277" y="80" width="43" height="1" fill="#000000"/><rect x="277" y="81" width="43" height="1" fill="#000000"/><rect x="277" y="82" width="43" height="1" fill="#000000"/><rect x="277" y="83" width="43" height="1" fill="#000000"/><rect x="277" y="84" width="43" height="1" fill="#000000"/><rect x="256" y="85" width="21" height="1" fill="#000000"/><rect x="277" y="85" width="22" height="1" fill="#A67030"/><rect x="299" y="85" width="21" height="1" fill="#000000"/><rect x="256" y="86" width="21" height="1" fill="#000000"/><rect x="277" y="86" width="22" height="1" fill="#A67030"/><rect x="299" y="86" width="21" height="1" fill="#000000"/><rect x="256" y="87" width="21" height="1" fill="#000000"/><rect x="277" y="87" width="22" height="1" fill="#A67030"/><rect x="299" y="87" width="21" height="1" fill="#000000"/><rect x="256" y="88" width="21" height="1" fill="#000000"/><rect x="277" y="88" width="22" height="1" fill="#A67030"/><rect x="299" y="88" width="21" height="1" fill="#000000"/><rect x="256" y="89" width="21" height="1" fill="#000000"/><rect x="277" y="89" width="22" height="1" fill="#A67030"/><rect x="299" y="89" width="21" height="1" fill="#000000"/><rect x="256" y="90" width="21" height="1" fill="#000000"/><rect x="277" y="90" width="22" height="1" fill="#A67030"/><rect x="299" y="90" width="21" height="1" fill="#000000"/><rect x="256" y="91" width="21" height="1" fill="#000000"/><rect x="277" y="91" width="22" height="1" fill="#A67030"/><rect x="299" y="91" width="21" height="1" fill="#000000"/><rect x="256" y="92" width="21" height="1" fill="#000000"/><rect x="277" y="92" width="22" height="1" fill="#A67030"/><rect x="299" y="92" width="21" height="1" fill="#000000"/><rect x="256" y="93" width="21" height="1" fill="#000000"/><rect x="277" y="93" width="22" height="1" fill="#A67030"/><rect x="299" y="93" width="21" height="1" fill="#000000"/><rect x="256" y="94" width="21" height="1" fill="#000000"/><rect x="277" y="94" width="22" height="1" fill="#A67030"/><rect x="299" y="94" width="21" height="1" fill="#000000"/><rect x="256" y="95" width="21" height="1" fill="#000000"/><rect x="277" y="95" width="22" height="1" fill="#A67030"/><rect x="299" y="95" width="21" height="1" fill="#000000"/><rect x="256" y="96" width="21" height="1" fill="#000000"/><rect x="277" y="96" width="22" height="1" fill="#A67030"/><rect x="299" y="96" width="21" height="1" fill="#000000"/><rect x="256" y="97" width="21" height="1" fill="#000000"/><rect x="277" y="97" width="22" height="1" fill="#A67030"/><rect x="299" y="97" width="21" height="1" fill="#000000"/><rect x="256" y="98" width="21" height="1" fill="#000000"/><rect x="277" y="98" width="22" height="1" fill="#A67030"/><rect x="299" y="98" width="21" height="1" fill="#000000"/><rect x="256" y="99" width="21" height="1" fill="#000000"/><rect x="277" y="99" width="22" height="1" fill="#A67030"/><rect x="299" y="99" width="21" height="1" fill="#000000"/><rect x="256" y="100" width="21" height="1" fill="#000000"/><rect x="277" y="100" width="22" height="1" fill="#A67030"/><rect x="299" y="100" width="21" height="1" fill="#000000"/><rect x="256" y="101" width="21" height="1" fill="#000000"/><rect x="277" y="101" width="22" height="1" fill="#A67030"/><rect x="299" y="101" width="21" height="1" fill="#000000"/><rect x="256" y="102" width="21" height="1" fill="#000000"/><rect x="277" y="102" width="22" height="1" fill="#A67030"/><rect x="299" y="102" width="21" height="1" fill="#000000"/><rect x="256" y="103" width="21" height="1" fill="#000000"/><rect x="277" y="103" width="22" height="1" fill="#A67030"/><rect x="299" y="103" width="21" height="1" fill="#000000"/><rect x="256" y="104" width="21" height="1" fill="#000000"/><rect x="277" y="104" width="22" height="1" fill="#A67030"/><rect x="299" y="104" width="21" height="1" fill="#000000"/><rect x="256" y="105" width="21" height="1" fill="#000000"/><rect x="277" y="105" width="22" height="1" fill="#A67030"/><rect x="299" y="105" width="21" height="1" fill="#000000"/><rect x="256" y="106" width="21" height="1" fill="#000000"/><rect x="277" y="106" width="22" height="1" fill="#A67030"/><rect x="299" y="106" width="21" height="1" fill="#000000"/><rect x="235" y="107" width="21" height="1" fill="#000000"/><rect x="256" y="107" width="43" height="1" fill="#A67030"/><rect x="299" y="107" width="21" height="1" fill="#000000"/><rect x="235" y="108" width="21" height="1" fill="#000000"/><rect x="256" y="108" width="43" height="1" fill="#A67030"/><rect x="299" y="108" width="21" height="1" fill="#000000"/><rect x="235" y="109" width="21" height="1" fill="#000000"/><rect x="256" y="109" width="43" height="1" fill="#A67030"/><rect x="299" y="109" width="21" height="1" fill="#000000"/><rect x="235" y="110" width="21" height="1" fill="#000000"/><rect x="256" y="110" width="43" height="1" fill="#A67030"/><rect x="299" y="110" width="21" height="1" fill="#000000"/><rect x="235" y="111" width="21" height="1" fill="#000000"/><rect x="256" y="111" width="43" height="1" fill="#A67030"/><rect x="299" y="111" width="21" height="1" fill="#000000"/><rect x="235" y="112" width="21" height="1" fill="#000000"/><rect x="256" y="112" width="43" height="1" fill="#A67030"/><rect x="299" y="112" width="21" height="1" fill="#000000"/><rect x="235" y="113" width="21" height="1" fill="#000000"/><rect x="256" y="113" width="43" height="1" fill="#A67030"/><rect x="299" y="113" width="21" height="1" fill="#000000"/><rect x="235" y="114" width="21" height="1" fill="#000000"/><rect x="256" y="114" width="43" height="1" fill="#A67030"/><rect x="299" y="114" width="21" height="1" fill="#000000"/><rect x="235" y="115" width="21" height="1" fill="#000000"/><rect x="256" y="115" width="43" height="1" fill="#A67030"/><rect x="299" y="115" width="21" height="1" fill="#000000"/><rect x="235" y="116" width="21" height="1" fill="#000000"/><rect x="256" y="116" width="43" height="1" fill="#A67030"/><rect x="299" y="116" width="21" height="1" fill="#000000"/><rect x="235" y="117" width="21" height="1" fill="#000000"/><rect x="256" y="117" width="43" height="1" fill="#A67030"/><rect x="299" y="117" width="21" height="1" fill="#000000"/><rect x="235" y="118" width="21" height="1" fill="#000000"/><rect x="256" y="118" width="43" height="1" fill="#A67030"/><rect x="299" y="118" width="21" height="1" fill="#000000"/><rect x="235" y="119" width="21" height="1" fill="#000000"/><rect x="256" y="119" width="43" height="1" fill="#A67030"/><rect x="299" y="119" width="21" height="1" fill="#000000"/><rect x="235" y="120" width="21" height="1" fill="#000000"/><rect x="256" y="120" width="43" height="1" fill="#A67030"/><rect x="299" y="120" width="21" height="1" fill="#000000"/><rect x="235" y="121" width="21" height="1" fill="#000000"/><rect x="256" y="121" width="43" height="1" fill="#A67030"/><rect x="299" y="121" width="21" height="1" fill="#000000"/><rect x="235" y="122" width="21" height="1" fill="#000000"/><rect x="256" y="122" width="43" height="1" fill="#A67030"/><rect x="299" y="122" width="21" height="1" fill="#000000"/><rect x="235" y="123" width="21" height="1" fill="#000000"/><rect x="256" y="123" width="43" height="1" fill="#A67030"/><rect x="299" y="123" width="21" height="1" fill="#000000"/><rect x="235" y="124" width="21" height="1" fill="#000000"/><rect x="256" y="124" width="43" height="1" fill="#A67030"/><rect x="299" y="124" width="21" height="1" fill="#000000"/><rect x="235" y="125" width="21" height="1" fill="#000000"/><rect x="256" y="125" width="43" height="1" fill="#A67030"/><rect x="299" y="125" width="21" height="1" fill="#000000"/><rect x="235" y="126" width="21" height="1" fill="#000000"/><rect x="256" y="126" width="43" height="1" fill="#A67030"/><rect x="299" y="126" width="21" height="1" fill="#000000"/><rect x="235" y="127" width="21" height="1" fill="#000000"/><rect x="256" y="127" width="43" height="1" fill="#A67030"/><rect x="299" y="127" width="21" height="1" fill="#000000"/><rect x="213" y="128" width="22" height="1" fill="#000000"/><rect x="235" y="128" width="21" height="1" fill="#86571E"/><rect x="256" y="128" width="43" height="1" fill="#A67030"/><rect x="299" y="128" width="21" height="1" fill="#000000"/><rect x="213" y="129" width="22" height="1" fill="#000000"/><rect x="235" y="129" width="21" height="1" fill="#86571E"/><rect x="256" y="129" width="43" height="1" fill="#A67030"/><rect x="299" y="129" width="21" height="1" fill="#000000"/><rect x="213" y="130" width="22" height="1" fill="#000000"/><rect x="235" y="130" width="21" height="1" fill="#86571E"/><rect x="256" y="130" width="43" height="1" fill="#A67030"/><rect x="299" y="130" width="21" height="1" fill="#000000"/><rect x="213" y="131" width="22" height="1" fill="#000000"/><rect x="235" y="131" width="21" height="1" fill="#86571E"/><rect x="256" y="131" width="43" height="1" fill="#A67030"/><rect x="299" y="131" width="21" height="1" fill="#000000"/><rect x="213" y="132" width="22" height="1" fill="#000000"/><rect x="235" y="132" width="21" height="1" fill="#86571E"/><rect x="256" y="132" width="43" height="1" fill="#A67030"/><rect x="299" y="132" width="21" height="1" fill="#000000"/><rect x="213" y="133" width="22" height="1" fill="#000000"/><rect x="235" y="133" width="21" height="1" fill="#86571E"/><rect x="256" y="133" width="43" height="1" fill="#A67030"/><rect x="299" y="133" width="21" height="1" fill="#000000"/><rect x="213" y="134" width="22" height="1" fill="#000000"/><rect x="235" y="134" width="21" height="1" fill="#86571E"/><rect x="256" y="134" width="43" height="1" fill="#A67030"/><rect x="299" y="134" width="21" height="1" fill="#000000"/><rect x="213" y="135" width="22" height="1" fill="#000000"/><rect x="235" y="135" width="21" height="1" fill="#86571E"/><rect x="256" y="135" width="43" height="1" fill="#A67030"/><rect x="299" y="135" width="21" height="1" fill="#000000"/><rect x="213" y="136" width="22" height="1" fill="#000000"/><rect x="235" y="136" width="21" height="1" fill="#86571E"/><rect x="256" y="136" width="43" height="1" fill="#A67030"/><rect x="299" y="136" width="21" height="1" fill="#000000"/><rect x="213" y="137" width="22" height="1" fill="#000000"/><rect x="235" y="137" width="21" height="1" fill="#86571E"/><rect x="256" y="137" width="43" height="1" fill="#A67030"/><rect x="299" y="137" width="21" height="1" fill="#000000"/><rect x="213" y="138" width="22" height="1" fill="#000000"/><rect x="235" y="138" width="21" height="1" fill="#86571E"/><rect x="256" y="138" width="43" height="1" fill="#A67030"/><rect x="299" y="138" width="21" height="1" fill="#000000"/><rect x="213" y="139" width="22" height="1" fill="#000000"/><rect x="235" y="139" width="21" height="1" fill="#86571E"/><rect x="256" y="139" width="43" height="1" fill="#A67030"/><rect x="299" y="139" width="21" height="1" fill="#000000"/><rect x="213" y="140" width="22" height="1" fill="#000000"/><rect x="235" y="140" width="21" height="1" fill="#86571E"/><rect x="256" y="140" width="43" height="1" fill="#A67030"/><rect x="299" y="140" width="21" height="1" fill="#000000"/><rect x="213" y="141" width="22" height="1" fill="#000000"/><rect x="235" y="141" width="21" height="1" fill="#86571E"/><rect x="256" y="141" width="43" height="1" fill="#A67030"/><rect x="299" y="141" width="21" height="1" fill="#000000"/><rect x="213" y="142" width="22" height="1" fill="#000000"/><rect x="235" y="142" width="21" height="1" fill="#86571E"/><rect x="256" y="142" width="43" height="1" fill="#A67030"/><rect x="299" y="142" width="21" height="1" fill="#000000"/><rect x="213" y="143" width="22" height="1" fill="#000000"/><rect x="235" y="143" width="21" height="1" fill="#86571E"/><rect x="256" y="143" width="43" height="1" fill="#A67030"/><rect x="299" y="143" width="21" height="1" fill="#000000"/><rect x="213" y="144" width="22" height="1" fill="#000000"/><rect x="235" y="144" width="21" height="1" fill="#86571E"/><rect x="256" y="144" width="43" height="1" fill="#A67030"/><rect x="299" y="144" width="21" height="1" fill="#000000"/><rect x="213" y="145" width="22" height="1" fill="#000000"/><rect x="235" y="145" width="21" height="1" fill="#86571E"/><rect x="256" y="145" width="43" height="1" fill="#A67030"/><rect x="299" y="145" width="21" height="1" fill="#000000"/><rect x="213" y="146" width="22" height="1" fill="#000000"/><rect x="235" y="146" width="21" height="1" fill="#86571E"/><rect x="256" y="146" width="43" height="1" fill="#A67030"/><rect x="299" y="146" width="21" height="1" fill="#000000"/><rect x="213" y="147" width="22" height="1" fill="#000000"/><rect x="235" y="147" width="21" height="1" fill="#86571E"/><rect x="256" y="147" width="43" height="1" fill="#A67030"/><rect x="299" y="147" width="21" height="1" fill="#000000"/><rect x="213" y="148" width="22" height="1" fill="#000000"/><rect x="235" y="148" width="21" height="1" fill="#86571E"/><rect x="256" y="148" width="43" height="1" fill="#A67030"/><rect x="299" y="148" width="21" height="1" fill="#000000"/><rect x="192" y="149" width="21" height="1" fill="#000000"/><rect x="213" y="149" width="22" height="1" fill="#86571E"/><rect x="235" y="149" width="64" height="1" fill="#A67030"/><rect x="299" y="149" width="21" height="1" fill="#000000"/><rect x="192" y="150" width="21" height="1" fill="#000000"/><rect x="213" y="150" width="22" height="1" fill="#86571E"/><rect x="235" y="150" width="64" height="1" fill="#A67030"/><rect x="299" y="150" width="21" height="1" fill="#000000"/><rect x="192" y="151" width="21" height="1" fill="#000000"/><rect x="213" y="151" width="22" height="1" fill="#86571E"/><rect x="235" y="151" width="64" height="1" fill="#A67030"/><rect x="299" y="151" width="21" height="1" fill="#000000"/><rect x="192" y="152" width="21" height="1" fill="#000000"/><rect x="213" y="152" width="22" height="1" fill="#86571E"/><rect x="235" y="152" width="64" height="1" fill="#A67030"/><rect x="299" y="152" width="21" height="1" fill="#000000"/><rect x="192" y="153" width="21" height="1" fill="#000000"/><rect x="213" y="153" width="22" height="1" fill="#86571E"/><rect x="235" y="153" width="64" height="1" fill="#A67030"/><rect x="299" y="153" width="21" height="1" fill="#000000"/><rect x="192" y="154" width="21" height="1" fill="#000000"/><rect x="213" y="154" width="22" height="1" fill="#86571E"/><rect x="235" y="154" width="64" height="1" fill="#A67030"/><rect x="299" y="154" width="21" height="1" fill="#000000"/><rect x="192" y="155" width="21" height="1" fill="#000000"/><rect x="213" y="155" width="22" height="1" fill="#86571E"/><rect x="235" y="155" width="64" height="1" fill="#A67030"/><rect x="299" y="155" width="21" height="1" fill="#000000"/><rect x="192" y="156" width="21" height="1" fill="#000000"/><rect x="213" y="156" width="22" height="1" fill="#86571E"/><rect x="235" y="156" width="64" height="1" fill="#A67030"/><rect x="299" y="156" width="21" height="1" fill="#000000"/><rect x="192" y="157" width="21" height="1" fill="#000000"/><rect x="213" y="157" width="22" height="1" fill="#86571E"/><rect x="235" y="157" width="64" height="1" fill="#A67030"/><rect x="299" y="157" width="21" height="1" fill="#000000"/><rect x="192" y="158" width="21" height="1" fill="#000000"/><rect x="213" y="158" width="22" height="1" fill="#86571E"/><rect x="235" y="158" width="64" height="1" fill="#A67030"/><rect x="299" y="158" width="21" height="1" fill="#000000"/><rect x="192" y="159" width="21" height="1" fill="#000000"/><rect x="213" y="159" width="22" height="1" fill="#86571E"/><rect x="235" y="159" width="64" height="1" fill="#A67030"/><rect x="299" y="159" width="21" height="1" fill="#000000"/><rect x="192" y="160" width="21" height="1" fill="#000000"/><rect x="213" y="160" width="22" height="1" fill="#86571E"/><rect x="235" y="160" width="64" height="1" fill="#A67030"/><rect x="299" y="160" width="21" height="1" fill="#000000"/><rect x="192" y="161" width="21" height="1" fill="#000000"/><rect x="213" y="161" width="22" height="1" fill="#86571E"/><rect x="235" y="161" width="64" height="1" fill="#A67030"/><rect x="299" y="161" width="21" height="1" fill="#000000"/><rect x="192" y="162" width="21" height="1" fill="#000000"/><rect x="213" y="162" width="22" height="1" fill="#86571E"/><rect x="235" y="162" width="64" height="1" fill="#A67030"/><rect x="299" y="162" width="21" height="1" fill="#000000"/><rect x="192" y="163" width="21" height="1" fill="#000000"/><rect x="213" y="163" width="22" height="1" fill="#86571E"/><rect x="235" y="163" width="64" height="1" fill="#A67030"/><rect x="299" y="163" width="21" height="1" fill="#000000"/><rect x="192" y="164" width="21" height="1" fill="#000000"/><rect x="213" y="164" width="22" height="1" fill="#86571E"/><rect x="235" y="164" width="64" height="1" fill="#A67030"/><rect x="299" y="164" width="21" height="1" fill="#000000"/><rect x="192" y="165" width="21" height="1" fill="#000000"/><rect x="213" y="165" width="22" height="1" fill="#86571E"/><rect x="235" y="165" width="64" height="1" fill="#A67030"/><rect x="299" y="165" width="21" height="1" fill="#000000"/><rect x="192" y="166" width="21" height="1" fill="#000000"/><rect x="213" y="166" width="22" height="1" fill="#86571E"/><rect x="235" y="166" width="64" height="1" fill="#A67030"/><rect x="299" y="166" width="21" height="1" fill="#000000"/><rect x="192" y="167" width="21" height="1" fill="#000000"/><rect x="213" y="167" width="22" height="1" fill="#86571E"/><rect x="235" y="167" width="64" height="1" fill="#A67030"/><rect x="299" y="167" width="21" height="1" fill="#000000"/><rect x="192" y="168" width="21" height="1" fill="#000000"/><rect x="213" y="168" width="22" height="1" fill="#86571E"/><rect x="235" y="168" width="64" height="1" fill="#A67030"/><rect x="299" y="168" width="21" height="1" fill="#000000"/><rect x="192" y="169" width="21" height="1" fill="#000000"/><rect x="213" y="169" width="22" height="1" fill="#86571E"/><rect x="235" y="169" width="64" height="1" fill="#A67030"/><rect x="299" y="169" width="21" height="1" fill="#000000"/><rect x="192" y="170" width="21" height="1" fill="#000000"/><rect x="213" y="170" width="22" height="1" fill="#86571E"/><rect x="235" y="170" width="64" height="1" fill="#A67030"/><rect x="299" y="170" width="21" height="1" fill="#000000"/><rect x="256" y="171" width="43" height="1" fill="#A67030"/><rect x="256" y="172" width="43" height="1" fill="#A67030"/><rect x="256" y="173" width="43" height="1" fill="#A67030"/><rect x="256" y="174" width="43" height="1" fill="#A67030"/><rect x="256" y="175" width="43" height="1" fill="#A67030"/><rect x="256" y="176" width="43" height="1" fill="#A67030"/><rect x="256" y="177" width="43" height="1" fill="#A67030"/><rect x="256" y="178" width="43" height="1" fill="#A67030"/><rect x="256" y="179" width="43" height="1" fill="#A67030"/><rect x="256" y="180" width="43" height="1" fill="#A67030"/><rect x="256" y="181" width="43" height="1" fill="#A67030"/><rect x="256" y="182" width="43" height="1" fill="#A67030"/><rect x="256" y="183" width="43" height="1" fill="#A67030"/><rect x="256" y="184" width="43" height="1" fill="#A67030"/><rect x="256" y="185" width="43" height="1" fill="#A67030"/><rect x="256" y="186" width="43" height="1" fill="#A67030"/><rect x="256" y="187" width="43" height="1" fill="#A67030"/><rect x="256" y="188" width="43" height="1" fill="#A67030"/><rect x="256" y="189" width="43" height="1" fill="#A67030"/><rect x="256" y="190" width="43" height="1" fill="#A67030"/><rect x="256" y="191" width="43" height="1" fill="#A67030"/><rect x="277" y="192" width="22" height="1" fill="#A67030"/><rect x="277" y="193" width="22" height="1" fill="#A67030"/><rect x="277" y="194" width="22" height="1" fill="#A67030"/><rect x="277" y="195" width="22" height="1" fill="#A67030"/><rect x="277" y="196" width="22" height="1" fill="#A67030"/><rect x="277" y="197" width="22" height="1" fill="#A67030"/><rect x="277" y="198" width="22" height="1" fill="#A67030"/><rect x="277" y="199" width="22" height="1" fill="#A67030"/><rect x="277" y="200" width="22" height="1" fill="#A67030"/><rect x="277" y="201" width="22" height="1" fill="#A67030"/><rect x="277" y="202" width="22" height="1" fill="#A67030"/><rect x="277" y="203" width="22" height="1" fill="#A67030"/><rect x="277" y="204" width="22" height="1" fill="#A67030"/><rect x="277" y="205" width="22" height="1" fill="#A67030"/><rect x="277" y="206" width="22" height="1" fill="#A67030"/><rect x="277" y="207" width="22" height="1" fill="#A67030"/><rect x="277" y="208" width="22" height="1" fill="#A67030"/><rect x="277" y="209" width="22" height="1" fill="#A67030"/><rect x="277" y="210" width="22" height="1" fill="#A67030"/><rect x="277" y="211" width="22" height="1" fill="#A67030"/><rect x="277" y="212" width="22" height="1" fill="#A67030"/></svg>