<svg xmlns="http://www.w3.org/2000/svg" viewBox="0 0 512 512" width="512" height="512" shape-rendering="crispEdges"><rect x="277" y="64" width="43" height="1" fill="#000000"/><rect x="277" y="65" width="43" height="1" fill="#000000"/><rect x="277" y="66" width="43" height="1" fill="#000000"/><rect x="277" y="67" width="43" height="1" fill="#000000"/><rect x="277" y="68" width="43" height="1" fill="#000000"/><rect x="277" y="69" width="43" height="1" fill="#000000"/><rect x="277" y="70" width="43" height="1" fill="#000000"/><rect x="277" y="71" width="43" height="1" fill="#000000"/><rect x="277" y="72" width="43" height="1" fill="#000000"/><rect x="277" y="73" width="43" height="1" fill="#000000"/><rect x="277" y="74" width="43" height="1" fill="#000000"/><rect x="277" y="75" width="43" height="1" fill="#000000"/><rect x="277" y="76" width="43" height="1" fill="#000000"/><rect x="277" y="77" width="43" height="1" fill="#000000"/><rect x="277" y="78" width="43" height="1" fill="#000000"/><rect x="277" y="79" width="43" height="1" fill="#000000"/><rect x="277" y="80" width="43" height="1" fill="#000000"/><rect x="277" y="81" width="43" height="1" fill="#000000"/><rect x="277" y="82" width="43" height="1" fill="#000000"/><rect x="277" y="83" width="43" height="1" fill="#000000"/><rect x="277" y="84" width="43" height="1" fill="#000000"/><rect x="256" y="85" width="64" height="1" fill="#000000"/><rect x="256" y="86" width="64" height="1" fill="#000000"/><rect x="256" y="87" width="64" height="1" fill="#000000"/><rect x="256" y="88" width="64" height="1" fill="#000000"/><rect x="256" y="89" width="64" height="1" fill="#000000"/><rect x="256" y="90" width="64" height="1" fill="#000000"/><rect x="256" y="91" width="64" height="1" fill="#000000"/><rect x="256" y="92" width="64" height="1" fill="#000000"/><rect x="256" y="93" width="64" height="1" fill="#000000"/><rect x="256" y="94" width="64" height="1" fill="#000000"/><rect x="256" y="95" width="64" height="1" fill="#000000"/><rect x="256" y="96" width="64" height="1" fill="#000000"/><rect x="256" y="97" width="64" height="1" fill="#000000"/><rect x="256" y="98" width="64" height="1" fill="#000000"/><rect x="256" y="99" width="64" height="1" fill="#000000"/><rect x="256" y="100" width="64" height="1" fill="#000000"/><rect x="256" y="101" width="64" height="1" fill="#000000"/><rect x="256" y="102" width="64" height="1" fill="#000000"/><rect x="256" y="103" width="64" height="1" fill="#000000"/><rect x="256" y="104" width="64" height="1" fill="#000000"/><rect x="256" y="105" width="64" height="1" fill="#000000"/><rect x="256" y="106" width="64" height="1" fill="#000000"/><rect x="235" y="107" width="85" height="1" fill="#000000"/><rect x="235" y="108" width="85" height="1" fill="#000000"/><rect x="235" y="109" width="85" height="1" fill="#000000"/><rect x="235" y="110" width="85" height="1" fill="#000000"/><rect x="235" y="111" width="85" height="1" fill="#000000"/><rect x="235" y="112" width="85" height="1" fill="#000000"/><rect x="235" y="113" width="85" height="1" fill="#000000"/><rect x="235" y="114" width="85" height="1" fill="#000000"/><rect x="235" y="115" width="85" height="1" fill="#000000"/><rect x="235" y="116" width="85" height="1" fill="#000000"/><rect x="235" y="117" width="85" height="1" fill="#000000"/><rect x="235" y="118" width="85" height="1" fill="#000000"/><rect x="235" y="119" width="85" height="1" fill="#000000"/><rect x="235" y="120" width="85" height="1" fill="#000000"/><rect x="235" y="121" width="85" height="1" fill="#000000"/><rect x="235" y="122" width="85" height="1" fill="#000000"/><rect x="235" y="123" width="85" height="1" fill="#000000"/><rect x="235" y="124" width="85" height="1" fill="#000000"/><rect x="235" y="125" width="85" height="1" fill="#000000"/><rect x="235" y="126" width="85" height="1" fill="#000000"/><rect x="235" y="127" width="85" height="1" fill="#000000"/><rect x="213" y="128" width="107" height="1" fill="#000000"/><rect x="213" y="129" width="107" height="1" fill="#000000"/><rect x="213" y="130" width="107" height="1" fill="#000000"/><rect x="213" y="131" width="107" height="1" fill="#000000"/><rect x="213" y="132" width="107" height="1" fill="#000000"/><rect x="213" y="133" width="107" height="1" fill="#000000"/><rect x="213" y="134" width="107" height="1" fill="#000000"/><rect x="213" y="135" width="107" height="1" fill="#000000"/><rect x="213" y="136" width="107" height="1" fill="#000000"/><rect x="213" y="137" width="107" height="1" fill="#000000"/><rect x="213" y="138" width="107" height="1" fill="#000000"/><rect x="213" y="139" width="107" height="1" fill="#000000"/><rect x="213" y="140" width="107" height="1" fill="#000000"/><rect x="213" y="141" width="107" height="1" fill="#000000"/><rect x="213" y="142" width="107" height="1" fill="#000000"/><rect x="213" y="143" width="107" height="1" fill="#000000"/><rect x="213" y="144" width="107" height="1" fill="#000000"/><rect x="213" y="145" width="107" height="1" fill="#000000"/><rect x="213" y="146" width="107" height="1" fill="#000000"/><rect x="213" y="147" width="107" height="1" fill="#000000"/><rect x="213" y="148" width="107" height="1" fill="#000000"/><rect x="192" y="149" width="128" height="1" fill="#000000"/><rect x="192" y="150" width="128" height="1" fill="#000000"/><rect x="192" y="151" width="128" height="1" fill="#000000"/><rect x="192" y="152" width="128" height="1" fill="#000000"/><rect x="192" y="153" width="128" height="1" fill="#000000"/><rect x="192" y="154" width="128" height="1" fill="#000000"/><rect x="192" y="155" width="128" height="1" fill="#000000"/><rect x="192" y="156" width="128" height="1" fill="#000000"/><rect x="192" y="157" width="128" height="1" fill="#000000"/><rect x="192" y="158" width="128" height="1" fill="#000000"/><rect x="192" y="159" width="128" height="1" fill="#000000"/><rect x="192" y="160" width="128" height="1" fill="#000000"/><rect x="192" y="161" width="128" height="1" fill="#000000"/><rect x="192" y="162" width="128" height="1" fill="#000000"/><rect x="192" y="163" width="128" height="1" fill="#000000"/><rect x="192" y="164" width="128" height="1" fill="#000000"/><rect x="192" y="165" width="128" height="1" fill="#000000"/><rect x="192" y="166" width="128" height="1" fill="#000000"/><rect x="192" y="167" width="128" height="1" fill="#000000"/><rect x="192" y="168" width="128" height="1" fill="#000000"/><rect x="192" y="169" width="128" height="1" fill="#000000"/><rect x="192" y="170" width="128" height="1" fill="#000000"/><rect x="256" y="171" width="43" height="1" fill="#000000"/><rect x="256" y="172" width="43" height="1" fill="#000000"/><rect x="256" y="173" width="43" height="1" fill="#000000"/><rect x="256" y="174" width="43" height="1" fill="#000000"/><rect x="256" y="175" width="43" height="1" fill="#000000"/><rect x="256" y="176" width="43" height="1" fill="#000000"/><rect x="256" y="177" width="43" height="1" fill="#000000"/><rect x="256" y="178" width="43" height="1" fill="#000000"/><rect x="256" y="179" width="43" height="1" fill="#000000"/><rect x="256" y="180" width="43" height="1" fill="#000000"/><rect x="256" y="181" width="43" height="1" fill="#000000"/><rect x="256" y="182" width="43" height="1" fill="#000000"/><rect x="256" y="183" width="43" height="1" fill="#000000"/><rect x="256" y="184" width="43" height="1" fill="#000000"/><rect x="256" y="185" width="43" height="1" fill="#000000"/><rect x="256" y="186" width="43" height="1" fill="#000000"/><rect x="256" y="187" width="43" height="1" fill="#000000"/><rect x="256" y="188" width="43" height="1" fill="#000000"/><rect x="256" y="189" width="43" height="1" fill="#000000"/><rect x="256" y="190" width="43" height="1" fill="#000000"/><rect x="256" y="191" width="43" height="1" fill="#000000"/><rect x="277" y="192" width="22" height="1" fill="#000000"/><rect x="277" y="193" width="22" height="1" fill="#000000"/><rect x="277" y="194" width="22" height="1" fill="#000000"/><rect x="277" y="195" width="22" height="1" fill="#000000"/><rect x="277" y="196" width="22" height="1" fill="#000000"/><rect x="277" y="197" width="22" height="1" fill="#000000"/><rect x="277" y="198" width="22" height="1" fill="#000000"/><rect x="277" y="199" width="22" height="1" fill="#000000"/><rect x="277" y="200" width="22" height="1" fill="#000000"/><rect x="277" y="201" width="22" height="1" fill="#000000"/><rect x="277" y="202" width="22" height="1" fill="#000000"/><rect x="277" y="203" width="22" height="1" fill="#000000"/><rect x="277" y="204" width="22" height="1" fill="#000000"/><rect x="277" y="205" width="22" height="1" fill="#000000"/><rect x="277" y="206" width="22" height="1" fill="#000000"/><rect x="277" y="207" width="22" height="1" fill="#000000"/><rect x="277" y="208" width="22" height="1" fill="#000000"/><rect x="277" y="209" width="22" height="1" fill="#000000"/><rect x="277" y="210" width="22" height="1" fill="#000000"/><rect x="277" y="211" width="22" height="1" fill="#000000"/><rect x="277" y="212" width="22" height="1" fill="#000000"/></svg>