<svg xmlns="http://www.w3.org/2000/svg" viewBox="0 0 512 512" width="512" height="512" shape-rendering="crispEdges"><rect x="128" y="235" width="256" height="1" fill="#000000"/><rect x="128" y="236" width="256" height="1" fill="#000000"/><rect x="128" y="237" width="256" height="1" fill="#000000"/><rect x="128" y="238" width="256" height="1" fill="#000000"/><rect x="128" y="239" width="256" height="1" fill="#000000"/><rect x="128" y="240" width="256" height="1" fill="#000000"/><rect x="128" y="241" width="256" height="1" fill="#000000"/><rect x="128" y="242" width="256" height="1" fill="#000000"/><rect x="128" y="243" width="256" height="1" fill="#000000"/><rect x="128" y="244" width="256" height="1" fill="#000000"/><rect x="128" y="245" width="256" height="1" fill="#000000"/><rect x="128" y="246" width="256" height="1" fill="#000000"/><rect x="128" y="247" width="256" height="1" fill="#000000"/><rect x="128" y="248" width="256" height="1" fill="#000000"/><rect x="128" y="249" width="256" height="1" fill="#000000"/><rect x="128" y="250" width="256" height="1" fill="#000000"/><rect x="128" y="251" width="256" height="1" fill="#000000"/><rect x="128" y="252" width="256" height="1" fill="#000000"/><rect x="128" y="253" width="256" height="1" fill="#000000"/><rect x="128" y="254" width="256" height="1" fill="#000000"/><rect x="128" y="255" width="256" height="1" fill="#000000"/><rect x="171" y="256" width="85" height="1" fill="#000000"/><rect x="277" y="256" width="86" height="1" fill="#000000"/><rect x="363" y="256" width="21" height="1" fill="#000200"/><rect x="171" y="257" width="85" height="1" fill="#000000"/><rect x="277" y="257" width="86" height="1" fill="#000000"/><rect x="363" y="257" width="21" height="1" fill="#000200"/><rect x="171" y="258" width="85" height="1" fill="#000000"/><rect x="277" y="258" width="86" height="1" fill="#000000"/><rect x="363" y="258" width="21" height="1" fill="#000200"/><rect x="171" y="259" width="85" height="1" fill="#000000"/><rect x="277" y="259" width="86" height="1" fill="#000000"/><rect x="363" y="259" width="21" height="1" fill="#000200"/><rect x="171" y="260" width="85" height="1" fill="#000000"/><rect x="277" y="260" width="86" height="1" fill="#000000"/><rect x="363" y="260" width="21" height="1" fill="#000200"/><rect x="171" y="261" width="85" height="1" fill="#000000"/><rect x="277" y="261" width="86" height="1" fill="#000000"/><rect x="363" y="261" width="21" height="1" fill="#000200"/><rect x="171" y="262" width="85" height="1" fill="#000000"/><rect x="277" y="262" width="86" height="1" fill="#000000"/><rect x="363" y="262" width="21" height="1" fill="#000200"/><rect x="171" y="263" width="85" height="1" fill="#000000"/><rect x="277" y="263" width="86" height="1" fill="#000000"/><rect x="363" y="263" width="21" height="1" fill="#000200"/><rect x="171" y="264" width="85" height="1" fill="#000000"/><rect x="277" y="264" width="86" height="1" fill="#000000"/><rect x="363" y="264" width="21" height="1" fill="#000200"/><rect x="171" y="265" width="85" height="1" fill="#000000"/><rect x="277" y="265" width="86" height="1" fill="#000000"/><rect x="363" y="265" width="21" height="1" fill="#000200"/><rect x="171" y="266" width="85" height="1" fill="#000000"/><rect x="277" y="266" width="86" height="1" fill="#000000"/><rect x="363" y="266" width="21" height="1" fill="#000200"/><rect x="171" y="267" width="85" height="1" fill="#000000"/><rect x="277" y="267" width="86" height="1" fill="#000000"/><rect x="363" y="267" width="21" height="1" fill="#000200"/><rect x="171" y="268" width="85" height="1" fill="#000000"/><rect x="277" y="268" width="86" height="1" fill="#000000"/><rect x="363" y="268" width="21" height="1" fill="#000200"/><rect x="171" y="269" width="85" height="1" fill="#000000"/><rect x="277" y="269" width="86" height="1" fill="#000000"/><rect x="363" y="269" width="21" height="1" fill="#000200"/><rect x="171" y="270" width="85" height="1" fill="#000000"/><rect x="277" y="270" width="86" height="1" fill="#000000"/><rect x="363" y="270" width="21" height="1" fill="#000200"/><rect x="171" y="271" width="85" height="1" fill="#000000"/><rect x="277" y="271" width="86" height="1" fill="#000000"/><rect x="363" y="271" width="21" height="1" fill="#000200"/><rect x="171" y="272" width="85" height="1" fill="#000000"/><rect x="277" y="272" width="86" height="1" fill="#000000"/><rect x="363" y="272" width="21" height="1" fill="#000200"/><rect x="171" y="273" width="85" height="1" fill="#000000"/><rect x="277" y="273" width="86" height="1" fill="#000000"/><rect x="363" y="273" width="21" height="1" fill="#000200"/><rect x="171" y="274" width="85" height="1" fill="#000000"/><rect x="277" y="274" width="86" height="1" fill="#000000"/><rect x="363" y="274" width="21" height="1" fill="#000200"/><rect x="171" y="275" width="85" height="1" fill="#000000"/><rect x="277" y="275" width="86" height="1" fill="#000000"/><rect x="363" y="275" width="21" height="1" fill="#000200"/><rect x="171" y="276" width="85" height="1" fill="#000000"/><rect x="277" y="276" width="86" height="1" fill="#000000"/><rect x="363" y="276" width="21" height="1" fill="#000200"/><rect x="192" y="277" width="43" height="1" fill="#000000"/><rect x="299" y="277" width="42" height="1" fill="#000000"/><rect x="341" y="277" width="22" height="1" fill="#000105"/><rect x="192" y="278" width="43" height="1" fill="#000000"/><rect x="299" y="278" width="42" height="1" fill="#000000"/><rect x="341" y="278" width="22" height="1" fill="#000105"/><rect x="192" y="279" width="43" height="1" fill="#000000"/><rect x="299" y="279" width="42" height="1" fill="#000000"/><rect x="341" y="279" width="22" height="1" fill="#000105"/><rect x="192" y="280" width="43" height="1" fill="#000000"/><rect x="299" y="280" width="42" height="1" fill="#000000"/><rect x="341" y="280" width="22" height="1" fill="#000105"/><rect x="192" y="281" width="43" height="1" fill="#000000"/><rect x="299" y="281" width="42" height="1" fill="#000000"/><rect x="341" y="281" width="22" height="1" fill="#000105"/><rect x="192" y="282" width="43" height="1" fill="#000000"/><rect x="299" y="282" width="42" height="1" fill="#000000"/><rect x="341" y="282" width="22" height="1" fill="#000105"/><rect x="192" y="283" width="43" height="1" fill="#000000"/><rect x="299" y="283" width="42" height="1" fill="#000000"/><rect x="341" y="283" width="22" height="1" fill="#000105"/><rect x="192" y="284" width="43" height="1" fill="#000000"/><rect x="299" y="284" width="42" height="1" fill="#000000"/><rect x="341" y="284" width="22" height="1" fill="#000105"/><rect x="192" y="285" width="43" height="1" fill="#000000"/><rect x="299" y="285" width="42" height="1" fill="#000000"/><rect x="341" y="285" width="22" height="1" fill="#000105"/><rect x="192" y="286" width="43" height="1" fill="#000000"/><rect x="299" y="286" width="42" height="1" fill="#000000"/><rect x="341" y="286" width="22" height="1" fill="#000105"/><rect x="192" y="287" width="43" height="1" fill="#000000"/><rect x="299" y="287" width="42" height="1" fill="#000000"/><rect x="341" y="287" width="22" height="1" fill="#000105"/><rect x="192" y="288" width="43" height="1" fill="#000000"/><rect x="299" y="288" width="42" height="1" fill="#000000"/><rect x="341" y="288" width="22" height="1" fill="#000105"/><rect x="192" y="289" width="43" height="1" fill="#000000"/><rect x="299" y="289" width="42" height="1" fill="#000000"/><rect x="341" y="289" width="22" height="1" fill="#000105"/><rect x="192" y="290" width="43" height="1" fill="#000000"/><rect x="299" y="290" width="42" height="1" fill="#000000"/><rect x="341" y="290" width="22" height="1" fill="#000105"/><rect x="192" y="291" width="43" height="1" fill="#000000"/><rect x="299" y="291" width="42" height="1" fill="#000000"/><rect x="341" y="291" width="22" height="1" fill="#000105"/><rect x="192" y="292" width="43" height="1" fill="#000000"/><rect x="299" y="292" width="42" height="1" fill="#000000"/><rect x="341" y="292" width="22" height="1" fill="#000105"/><rect x="192" y="293" width="43" height="1" fill="#000000"/><rect x="299" y="293" width="42" height="1" fill="#000000"/><rect x="341" y="293" width="22" height="1" fill="#000105"/><rect x="192" y="294" width="43" height="1" fill="#000000"/><rect x="299" y="294" width="42" height="1" fill="#000000"/><rect x="341" y="294" width="22" height="1" fill="#000105"/><rect x="192" y="295" width="43" height="1" fill="#000000"/><rect x="299" y="295" width="42" height="1" fill="#000000"/><rect x="341" y="295" width="22" height="1" fill="#000105"/><rect x="192" y="296" width="43" height="1" fill="#000000"/><rect x="299" y="296" width="42" height="1" fill="#000000"/><rect x="341" y="296" width="22" height="1" fill="#000105"/><rect x="192" y="297" width="43" height="1" fill="#000000"/><rect x="299" y="297" width="42" height="1" fill="#000000"/><rect x="341" y="297" width="22" height="1" fill="#000105"/><rect x="192" y="298" width="43" height="1" fill="#000000"/><rect x="299" y="298" width="42" height="1" fill="#000000"/><rect x="341" y="298" width="22" height="1" fill="#000105"/></svg>