<svg xmlns="http://www.w3.org/2000/svg" viewBox="0 0 512 512" width="512" height="512" shape-rendering="crispEdges"><rect x="213" y="171" width="22" height="1" fill="#000000"/><rect x="256" y="171" width="21" height="1" fill="#000000"/><rect x="299" y="171" width="21" height="1" fill="#000000"/><rect x="213" y="172" width="22" height="1" fill="#000000"/><rect x="256" y="172" width="21" height="1" fill="#000000"/><rect x="299" y="172" width="21" height="1" fill="#000000"/><rect x="213" y="173" width="22" height="1" fill="#000000"/><rect x="256" y="173" width="21" height="1" fill="#000000"/><rect x="299" y="173" width="21" height="1" fill="#000000"/><rect x="213" y="174" width="22" height="1" fill="#000000"/><rect x="256" y="174" width="21" height="1" fill="#000000"/><rect x="299" y="174" width="21" height="1" fill="#000000"/><rect x="213" y="175" width="22" height="1" fill="#000000"/><rect x="256" y="175" width="21" height="1" fill="#000000"/><rect x="299" y="175" width="21" height="1" fill="#000000"/><rect x="213" y="176" width="22" height="1" fill="#000000"/><rect x="256" y="176" width="21" height="1" fill="#000000"/><rect x="299" y="176" width="21" height="1" fill="#000000"/><rect x="213" y="177" width="22" height="1" fill="#000000"/><rect x="256" y="177" width="21" height="1" fill="#000000"/><rect x="299" y="177" width="21" height="1" fill="#000000"/><rect x="213" y="178" width="22" height="1" fill="#000000"/><rect x="256" y="178" width="21" height="1" fill="#000000"/><rect x="299" y="178" width="21" height="1" fill="#000000"/><rect x="213" y="179" width="22" height="1" fill="#000000"/><rect x="256" y="179" width="21" height="1" fill="#000000"/><rect x="299" y="179" width="21" height="1" fill="#000000"/><rect x="213" y="180" width="22" height="1" fill="#000000"/><rect x="256" y="180" width="21" height="1" fill="#000000"/><rect x="299" y="180" width="21" height="1" fill="#000000"/><rect x="213" y="181" width="22" height="1" fill="#000000"/><rect x="256" y="181" width="21" height="1" fill="#000000"/><rect x="299" y="181" width="21" height="1" fill="#000000"/><rect x="213" y="182" width="22" height="1" fill="#000000"/><rect x="256" y="182" width="21" height="1" fill="#000000"/><rect x="299" y="182" width="21" height="1" fill="#000000"/><rect x="213" y="183" width="22" height="1" fill="#000000"/><rect x="256" y="183" width="21" height="1" fill="#000000"/><rect x="299" y="183" width="21" height="1" fill="#000000"/><rect x="213" y="184" width="22" height="1" fill="#000000"/><rect x="256" y="184" width="21" height="1" fill="#000000"/><rect x="299" y="184" width="21" height="1" fill="#000000"/><rect x="213" y="185" width="22" height="1" fill="#000000"/><rect x="256" y="185" width="21" height="1" fill="#000000"/><rect x="299" y="185" width="21" height="1" fill="#000000"/><rect x="213" y="186" width="22" height="1" fill="#000000"/><rect x="256" y="186" width="21" height="1" fill="#000000"/><rect x="299" y="186" width="21" height="1" fill="#000000"/><rect x="213" y="187" width="22" height="1" fill="#000000"/><rect x="256" y="187" width="21" height="1" fill="#000000"/><rect x="299" y="187" width="21" height="1" fill="#000000"/><rect x="213" y="188" width="22" height="1" fill="#000000"/><rect x="256" y="188" width="21" height="1" fill="#000000"/><rect x="299" y="188" width="21" height="1" fill="#000000"/><rect x="213" y="189" width="22" height="1" fill="#000000"/><rect x="256" y="189" width="21" height="1" fill="#000000"/><rect x="299" y="189" width="21" height="1" fill="#000000"/><rect x="213" y="190" width="22" height="1" fill="#000000"/><rect x="256" y="190" width="21" height="1" fill="#000000"/><rect x="299" y="190" width="21" height="1" fill="#000000"/><rect x="213" y="191" width="22" height="1" fill="#000000"/><rect x="256" y="191" width="21" height="1" fill="#000000"/><rect x="299" y="191" width="21" height="1" fill="#000000"/><rect x="192" y="192" width="21" height="1" fill="#000000"/><rect x="235" y="192" width="21" height="1" fill="#000000"/><rect x="277" y="192" width="22" height="1" fill="#000000"/><rect x="320" y="192" width="21" height="1" fill="#000000"/><rect x="192" y="193" width="21" height="1" fill="#000000"/><rect x="235" y="193" width="21" height="1" fill="#000000"/><rect x="277" y="193" width="22" height="1" fill="#000000"/><rect x="320" y="193" width="21" height="1" fill="#000000"/><rect x="192" y="194" width="21" height="1" fill="#000000"/><rect x="235" y="194" width="21" height="1" fill="#000000"/><rect x="277" y="194" width="22" height="1" fill="#000000"/><rect x="320" y="194" width="21" height="1" fill="#000000"/><rect x="192" y="195" width="21" height="1" fill="#000000"/><rect x="235" y="195" width="21" height="1" fill="#000000"/><rect x="277" y="195" width="22" height="1" fill="#000000"/><rect x="320" y="195" width="21" height="1" fill="#000000"/><rect x="192" y="196" width="21" height="1" fill="#000000"/><rect x="235" y="196" width="21" height="1" fill="#000000"/><rect x="277" y="196" width="22" height="1" fill="#000000"/><rect x="320" y="196" width="21" height="1" fill="#000000"/><rect x="192" y="197" width="21" height="1" fill="#000000"/><rect x="235" y="197" width="21" height="1" fill="#000000"/><rect x="277" y="197" width="22" height="1" fill="#000000"/><rect x="320" y="197" width="21" height="1" fill="#000000"/><rect x="192" y="198" width="21" height="1" fill="#000000"/><rect x="235" y="198" width="21" height="1" fill="#000000"/><rect x="277" y="198" width="22" height="1" fill="#000000"/><rect x="320" y="198" width="21" height="1" fill="#000000"/><rect x="192" y="199" width="21" height="1" fill="#000000"/><rect x="235" y="199" width="21" height="1" fill="#000000"/><rect x="277" y="199" width="22" height="1" fill="#000000"/><rect x="320" y="199" width="21" height="1" fill="#000000"/><rect x="192" y="200" width="21" height="1" fill="#000000"/><rect x="235" y="200" width="21" height="1" fill="#000000"/><rect x="277" y="200" width="22" height="1" fill="#000000"/><rect x="320" y="200" width="21" height="1" fill="#000000"/><rect x="192" y="201" width="21" height="1" fill="#000000"/><rect x="235" y="201" width="21" height="1" fill="#000000"/><rect x="277" y="201" width="22" height="1" fill="#000000"/><rect x="320" y="201" width="21" height="1" fill="#000000"/><rect x="192" y="202" width="21" height="1" fill="#000000"/><rect x="235" y="202" width="21" height="1" fill="#000000"/><rect x="277" y="202" width="22" height="1" fill="#000000"/><rect x="320" y="202" width="21" height="1" fill="#000000"/><rect x="192" y="203" width="21" height="1" fill="#000000"/><rect x="235" y="203" width="21" height="1" fill="#000000"/><rect x="277" y="203" width="22" height="1" fill="#000000"/><rect x="320" y="203" width="21" height="1" fill="#000000"/><rect x="192" y="204" width="21" height="1" fill="#000000"/><rect x="235" y="204" width="21" height="1" fill="#000000"/><rect x="277" y="204" width="22" height="1" fill="#000000"/><rect x="320" y="204" width="21" height="1" fill="#000000"/><rect x="192" y="205" width="21" height="1" fill="#000000"/><rect x="235" y="205" width="21" height="1" fill="#000000"/><rect x="277" y="205" width="22" height="1" fill="#000000"/><rect x="320" y="205" width="21" height="1" fill="#000000"/><rect x="192" y="206" width="21" height="1" fill="#000000"/><rect x="235" y="206" width="21" height="1" fill="#000000"/><rect x="277" y="206" width="22" height="1" fill="#000000"/><rect x="320" y="206" width="21" height="1" fill="#000000"/><rect x="192" y="207" width="21" height="1" fill="#000000"/><rect x="235" y="207" width="21" height="1" fill="#000000"/><rect x="277" y="207" width="22" height="1" fill="#000000"/><rect x="320" y="207" width="21" height="1" fill="#000000"/><rect x="192" y="208" width="21" height="1" fill="#000000"/><rect x="235" y="208" width="21" height="1" fill="#000000"/><rect x="277" y="208" width="22" height="1" fill="#000000"/><rect x="320" y="208" width="21" height="1" fill="#000000"/><rect x="192" y="209" width="21" height="1" fill="#000000"/><rect x="235" y="209" width="21" height="1" fill="#000000"/><rect x="277" y="209" width="22" height="1" fill="#000000"/><rect x="320" y="209" width="21" height="1" fill="#000000"/><rect x="192" y="210" width="21" height="1" fill="#000000"/><rect x="235" y="210" width="21" height="1" fill="#000000"/><rect x="277" y="210" width="22" height="1" fill="#000000"/><rect x="320" y="210" width="21" height="1" fill="#000000"/><rect x="192" y="211" width="21" height="1" fill="#000000"/><rect x="235" y="211" width="21" height="1" fill="#000000"/><rect x="277" y="211" width="22" height="1" fill="#000000"/><rect x="320" y="211" width="21" height="1" fill="#000000"/><rect x="192" y="212" width="21" height="1" fill="#000000"/><rect x="235" y="212" width="21" height="1" fill="#000000"/><rect x="277" y="212" width="22" height="1" fill="#000000"/><rect x="320" y="212" width="21" height="1" fill="#000000"/><rect x="171" y="213" width="21" height="1" fill="#000000"/><rect x="213" y="213" width="22" height="1" fill="#000000"/><rect x="256" y="213" width="21" height="1" fill="#000000"/><rect x="299" y="213" width="21" height="1" fill="#000000"/><rect x="171" y="214" width="21" height="1" fill="#000000"/><rect x="213" y="214" width="22" height="1" fill="#000000"/><rect x="256" y="214" width="21" height="1" fill="#000000"/><rect x="299" y="214" width="21" height="1" fill="#000000"/><rect x="171" y="215" width="21" height="1" fill="#000000"/><rect x="213" y="215" width="22" height="1" fill="#000000"/><rect x="256" y="215" width="21" height="1" fill="#000000"/><rect x="299" y="215" width="21" height="1" fill="#000000"/><rect x="171" y="216" width="21" height="1" fill="#000000"/><rect x="213" y="216" width="22" height="1" fill="#000000"/><rect x="256" y="216" width="21" height="1" fill="#000000"/><rect x="299" y="216" width="21" height="1" fill="#000000"/><rect x="171" y="217" width="21" height="1" fill="#000000"/><rect x="213" y="217" width="22" height="1" fill="#000000"/><rect x="256" y="217" width="21" height="1" fill="#000000"/><rect x="299" y="217" width="21" height="1" fill="#000000"/><rect x="171" y="218" width="21" height="1" fill="#000000"/><rect x="213" y="218" width="22" height="1" fill="#000000"/><rect x="256" y="218" width="21" height="1" fill="#000000"/><rect x="299" y="218" width="21" height="1" fill="#000000"/><rect x="171" y="219" width="21" height="1" fill="#000000"/><rect x="213" y="219" width="22" height="1" fill="#000000"/><rect x="256" y="219" width="21" height="1" fill="#000000"/><rect x="299" y="219" width="21" height="1" fill="#000000"/><rect x="171" y="220" width="21" height="1" fill="#000000"/><rect x="213" y="220" width="22" height="1" fill="#000000"/><rect x="256" y="220" width="21" height="1" fill="#000000"/><rect x="299" y="220" width="21" height="1" fill="#000000"/><rect x="171" y="221" width="21" height="1" fill="#000000"/><rect x="213" y="221" width="22" height="1" fill="#000000"/><rect x="256" y="221" width="21" height="1" fill="#000000"/><rect x="299" y="221" width="21" height="1" fill="#000000"/><rect x="171" y="222" width="21" height="1" fill="#000000"/><rect x="213" y="222" width="22" height="1" fill="#000000"/><rect x="256" y="222" width="21" height="1" fill="#000000"/><rect x="299" y="222" width="21" height="1" fill="#000000"/><rect x="171" y="223" width="21" height="1" fill="#000000"/><rect x="213" y="223" width="22" height="1" fill="#000000"/><rect x="256" y="223" width="21" height="1" fill="#000000"/><rect x="299" y="223" width="21" height="1" fill="#000000"/><rect x="171" y="224" width="21" height="1" fill="#000000"/><rect x="213" y="224" width="22" height="1" fill="#000000"/><rect x="256" y="224" width="21" height="1" fill="#000000"/><rect x="299" y="224" width="21" height="1" fill="#000000"/><rect x="171" y="225" width="21" height="1" fill="#000000"/><rect x="213" y="225" width="22" height="1" fill="#000000"/><rect x="256" y="225" width="21" height="1" fill="#000000"/><rect x="299" y="225" width="21" height="1" fill="#000000"/><rect x="171" y="226" width="21" height="1" fill="#000000"/><rect x="213" y="226" width="22" height="1" fill="#000000"/><rect x="256" y="226" width="21" height="1" fill="#000000"/><rect x="299" y="226" width="21" height="1" fill="#000000"/><rect x="171" y="227" width="21" height="1" fill="#000000"/><rect x="213" y="227" width="22" height="1" fill="#000000"/><rect x="256" y="227" width="21" height="1" fill="#000000"/><rect x="299" y="227" width="21" height="1" fill="#000000"/><rect x="171" y="228" width="21" height="1" fill="#000000"/><rect x="213" y="228" width="22" height="1" fill="#000000"/><rect x="256" y="228" width="21" height="1" fill="#000000"/><rect x="299" y="228" width="21" height="1" fill="#000000"/><rect x="171" y="229" width="21" height="1" fill="#000000"/><rect x="213" y="229" width="22" height="1" fill="#000000"/><rect x="256" y="229" width="21" height="1" fill="#000000"/><rect x="299" y="229" width="21" height="1" fill="#000000"/><rect x="171" y="230" width="21" height="1" fill="#000000"/><rect x="213" y="230" width="22" height="1" fill="#000000"/><rect x="256" y="230" width="21" height="1" fill="#000000"/><rect x="299" y="230" width="21" height="1" fill="#000000"/><rect x="171" y="231" width="21" height="1" fill="#000000"/><rect x="213" y="231" width="22" height="1" fill="#000000"/><rect x="256" y="231" width="21" height="1" fill="#000000"/><rect x="299" y="231" width="21" height="1" fill="#000000"/><rect x="171" y="232" width="21" height="1" fill="#000000"/><rect x="213" y="232" width="22" height="1" fill="#000000"/><rect x="256" y="232" width="21" height="1" fill="#000000"/><rect x="299" y="232" width="21" height="1" fill="#000000"/><rect x="171" y="233" width="21" height="1" fill="#000000"/><rect x="213" y="233" width="22" height="1" fill="#000000"/><rect x="256" y="233" width="21" height="1" fill="#000000"/><rect x="299" y="233" width="21" height="1" fill="#000000"/><rect x="171" y="234" width="21" height="1" fill="#000000"/><rect x="213" y="234" width="22" height="1" fill="#000000"/><rect x="256" y="234" width="21" height="1" fill="#000000"/><rect x="299" y="234" width="21" height="1" fill="#000000"/></svg>