<svg xmlns="http://www.w3.org/2000/svg" viewBox="0 0 512 512" width="512" height="512" shape-rendering="crispEdges"><rect x="171" y="235" width="192" height="1" fill="#000000"/><rect x="171" y="236" width="192" height="1" fill="#000000"/><rect x="171" y="237" width="192" height="1" fill="#000000"/><rect x="171" y="238" width="192" height="1" fill="#000000"/><rect x="171" y="239" width="192" height="1" fill="#000000"/><rect x="171" y="240" width="192" height="1" fill="#000000"/><rect x="171" y="241" width="192" height="1" fill="#000000"/><rect x="171" y="242" width="192" height="1" fill="#000000"/><rect x="171" y="243" width="192" height="1" fill="#000000"/><rect x="171" y="244" width="192" height="1" fill="#000000"/><rect x="171" y="245" width="192" height="1" fill="#000000"/><rect x="171" y="246" width="192" height="1" fill="#000000"/><rect x="171" y="247" width="192" height="1" fill="#000000"/><rect x="171" y="248" width="192" height="1" fill="#000000"/><rect x="171" y="249" width="192" height="1" fill="#000000"/><rect x="171" y="250" width="192" height="1" fill="#000000"/><rect x="171" y="251" width="192" height="1" fill="#000000"/><rect x="171" y="252" width="192" height="1" fill="#000000"/><rect x="171" y="253" width="192" height="1" fill="#000000"/><rect x="171" y="254" width="192" height="1" fill="#000000"/><rect x="171" y="255" width="192" height="1" fill="#000000"/><rect x="149" y="256" width="22" height="1" fill="#000000"/><rect x="171" y="256" width="21" height="1" fill="#8D8D8D"/><rect x="192" y="256" width="149" height="1" fill="#B4B4B4"/><rect x="341" y="256" width="22" height="1" fill="#8D8D8D"/><rect x="363" y="256" width="21" height="1" fill="#000000"/><rect x="149" y="257" width="22" height="1" fill="#000000"/><rect x="171" y="257" width="21" height="1" fill="#8D8D8D"/><rect x="192" y="257" width="149" height="1" fill="#B4B4B4"/><rect x="341" y="257" width="22" height="1" fill="#8D8D8D"/><rect x="363" y="257" width="21" height="1" fill="#000000"/><rect x="149" y="258" width="22" height="1" fill="#000000"/><rect x="171" y="258" width="21" height="1" fill="#8D8D8D"/><rect x="192" y="258" width="149" height="1" fill="#B4B4B4"/><rect x="341" y="258" width="22" height="1" fill="#8D8D8D"/><rect x="363" y="258" width="21" height="1" fill="#000000"/><rect x="149" y="259" width="22" height="1" fill="#000000"/><rect x="171" y="259" width="21" height="1" fill="#8D8D8D"/><rect x="192" y="259" width="149" height="1" fill="#B4B4B4"/><rect x="341" y="259" width="22" height="1" fill="#8D8D8D"/><rect x="363" y="259" width="21" height="1" fill="#000000"/><rect x="149" y="260" width="22" height="1" fill="#000000"/><rect x="171" y="260" width="21" height="1" fill="#8D8D8D"/><rect x="192" y="260" width="149" height="1" fill="#B4B4B4"/><rect x="341" y="260" width="22" height="1" fill="#8D8D8D"/><rect x="363" y="260" width="21" height="1" fill="#000000"/><rect x="149" y="261" width="22" height="1" fill="#000000"/><rect x="171" y="261" width="21" height="1" fill="#8D8D8D"/><rect x="192" y="261" width="149" height="1" fill="#B4B4B4"/><rect x="341" y="261" width="22" height="1" fill="#8D8D8D"/><rect x="363" y="261" width="21" height="1" fill="#000000"/><rect x="149" y="262" width="22" height="1" fill="#000000"/><rect x="171" y="262" width="21" height="1" fill="#8D8D8D"/><rect x="192" y="262" width="149" height="1" fill="#B4B4B4"/><rect x="341" y="262" width="22" height="1" fill="#8D8D8D"/><rect x="363" y="262" width="21" height="1" fill="#000000"/><rect x="149" y="263" width="22" height="1" fill="#000000"/><rect x="171" y="263" width="21" height="1" fill="#8D8D8D"/><rect x="192" y="263" width="149" height="1" fill="#B4B4B4"/><rect x="341" y="263" width="22" height="1" fill="#8D8D8D"/><rect x="363" y="263" width="21" height="1" fill="#000000"/><rect x="149" y="264" width="22" height="1" fill="#000000"/><rect x="171" y="264" width="21" height="1" fill="#8D8D8D"/><rect x="192" y="264" width="149" height="1" fill="#B4B4B4"/><rect x="341" y="264" width="22" height="1" fill="#8D8D8D"/><rect x="363" y="264" width="21" height="1" fill="#000000"/><rect x="149" y="265" width="22" height="1" fill="#000000"/><rect x="171" y="265" width="21" height="1" fill="#8D8D8D"/><rect x="192" y="265" width="149" height="1" fill="#B4B4B4"/><rect x="341" y="265" width="22" height="1" fill="#8D8D8D"/><rect x="363" y="265" width="21" height="1" fill="#000000"/><rect x="149" y="266" width="22" height="1" fill="#000000"/><rect x="171" y="266" width="21" height="1" fill="#8D8D8D"/><rect x="192" y="266" width="149" height="1" fill="#B4B4B4"/><rect x="341" y="266" width="22" height="1" fill="#8D8D8D"/><rect x="363" y="266" width="21" height="1" fill="#000000"/><rect x="149" y="267" width="22" height="1" fill="#000000"/><rect x="171" y="267" width="21" height="1" fill="#8D8D8D"/><rect x="192" y="267" width="149" height="1" fill="#B4B4B4"/><rect x="341" y="267" width="22" height="1" fill="#8D8D8D"/><rect x="363" y="267" width="21" height="1" fill="#000000"/><rect x="149" y="268" width="22" height="1" fill="#000000"/><rect x="171" y="268" width="21" height="1" fill="#8D8D8D"/><rect x="192" y="268" width="149" height="1" fill="#B4B4B4"/><rect x="341" y="268" width="22" height="1" fill="#8D8D8D"/><rect x="363" y="268" width="21" height="1" fill="#000000"/><rect x="149" y="269" width="22" height="1" fill="#000000"/><rect x="171" y="269" width="21" height="1" fill="#8D8D8D"/><rect x="192" y="269" width="149" height="1" fill="#B4B4B4"/><rect x="341" y="269" width="22" height="1" fill="#8D8D8D"/><rect x="363" y="269" width="21" height="1" fill="#000000"/><rect x="149" y="270" width="22" height="1" fill="#000000"/><rect x="171" y="270" width="21" height="1" fill="#8D8D8D"/><rect x="192" y="270" width="149" height="1" fill="#B4B4B4"/><rect x="341" y="270" width="22" height="1" fill="#8D8D8D"/><rect x="363" y="270" width="21" height="1" fill="#000000"/><rect x="149" y="271" width="22" height="1" fill="#000000"/><rect x="171" y="271" width="21" height="1" fill="#8D8D8D"/><rect x="192" y="271" width="149" height="1" fill="#B4B4B4"/><rect x="341" y="271" width="22" height="1" fill="#8D8D8D"/><rect x="363" y="271" width="21" height="1" fill="#000000"/><rect x="149" y="272" width="22" height="1" fill="#000000"/><rect x="171" y="272" width="21" height="1" fill="#8D8D8D"/><rect x="192" y="272" width="149" height="1" fill="#B4B4B4"/><rect x="341" y="272" width="22" height="1" fill="#8D8D8D"/><rect x="363" y="272" width="21" height="1" fill="#000000"/><rect x="149" y="273" width="22" height="1" fill="#000000"/><rect x="171" y="273" width="21" height="1" fill="#8D8D8D"/><rect x="192" y="273" width="149" height="1" fill="#B4B4B4"/><rect x="341" y="273" width="22" height="1" fill="#8D8D8D"/><rect x="363" y="273" width="21" height="1" fill="#000000"/><rect x="149" y="274" width="22" height="1" fill="#000000"/><rect x="171" y="274" width="21" height="1" fill="#8D8D8D"/><rect x="192" y="274" width="149" height="1" fill="#B4B4B4"/><rect x="341" y="274" width="22" height="1" fill="#8D8D8D"/><rect x="363" y="274" width="21" height="1" fill="#000000"/><rect x="149" y="275" width="22" height="1" fill="#000000"/><rect x="171" y="275" width="21" height="1" fill="#8D8D8D"/><rect x="192" y="275" width="149" height="1" fill="#B4B4B4"/><rect x="341" y="275" width="22" height="1" fill="#8D8D8D"/><rect x="363" y="275" width="21" height="1" fill="#000000"/><rect x="149" y="276" width="22" height="1" fill="#000000"/><rect x="171" y="276" width="21" height="1" fill="#8D8D8D"/><rect x="192" y="276" width="149" height="1" fill="#B4B4B4"/><rect x="341" y="276" width="22" height="1" fill="#8D8D8D"/><rect x="363" y="276" width="21" height="1" fill="#000000"/><rect x="128" y="277" width="21" height="1" fill="#000000"/><rect x="149" y="277" width="22" height="1" fill="#8D8D8D"/><rect x="171" y="277" width="21" height="1" fill="#B4B4B4"/><rect x="192" y="277" width="149" height="1" fill="#000000"/><rect x="341" y="277" width="22" height="1" fill="#B4B4B4"/><rect x="363" y="277" width="21" height="1" fill="#000000"/><rect x="128" y="278" width="21" height="1" fill="#000000"/><rect x="149" y="278" width="22" height="1" fill="#8D8D8D"/><rect x="171" y="278" width="21" height="1" fill="#B4B4B4"/><rect x="192" y="278" width="149" height="1" fill="#000000"/><rect x="341" y="278" width="22" height="1" fill="#B4B4B4"/><rect x="363" y="278" width="21" height="1" fill="#000000"/><rect x="128" y="279" width="21" height="1" fill="#000000"/><rect x="149" y="279" width="22" height="1" fill="#8D8D8D"/><rect x="171" y="279" width="21" height="1" fill="#B4B4B4"/><rect x="192" y="279" width="149" height="1" fill="#000000"/><rect x="341" y="279" width="22" height="1" fill="#B4B4B4"/><rect x="363" y="279" width="21" height="1" fill="#000000"/><rect x="128" y="280" width="21" height="1" fill="#000000"/><rect x="149" y="280" width="22" height="1" fill="#8D8D8D"/><rect x="171" y="280" width="21" height="1" fill="#B4B4B4"/><rect x="192" y="280" width="149" height="1" fill="#000000"/><rect x="341" y="280" width="22" height="1" fill="#B4B4B4"/><rect x="363" y="280" width="21" height="1" fill="#000000"/><rect x="128" y="281" width="21" height="1" fill="#000000"/><rect x="149" y="281" width="22" height="1" fill="#8D8D8D"/><rect x="171" y="281" width="21" height="1" fill="#B4B4B4"/><rect x="192" y="281" width="149" height="1" fill="#000000"/><rect x="341" y="281" width="22" height="1" fill="#B4B4B4"/><rect x="363" y="281" width="21" height="1" fill="#000000"/><rect x="128" y="282" width="21" height="1" fill="#000000"/><rect x="149" y="282" width="22" height="1" fill="#8D8D8D"/><rect x="171" y="282" width="21" height="1" fill="#B4B4B4"/><rect x="192" y="282" width="149" height="1" fill="#000000"/><rect x="341" y="282" width="22" height="1" fill="#B4B4B4"/><rect x="363" y="282" width="21" height="1" fill="#000000"/><rect x="128" y="283" width="21" height="1" fill="#000000"/><rect x="149" y="283" width="22" height="1" fill="#8D8D8D"/><rect x="171" y="283" width="21" height="1" fill="#B4B4B4"/><rect x="192" y="283" width="149" height="1" fill="#000000"/><rect x="341" y="283" width="22" height="1" fill="#B4B4B4"/><rect x="363" y="283" width="21" height="1" fill="#000000"/><rect x="128" y="284" width="21" height="1" fill="#000000"/><rect x="149" y="284" width="22" height="1" fill="#8D8D8D"/><rect x="171" y="284" width="21" height="1" fill="#B4B4B4"/><rect x="192" y="284" width="149" height="1" fill="#000000"/><rect x="341" y="284" width="22" height="1" fill="#B4B4B4"/><rect x="363" y="284" width="21" height="1" fill="#000000"/><rect x="128" y="285" width="21" height="1" fill="#000000"/><rect x="149" y="285" width="22" height="1" fill="#8D8D8D"/><rect x="171" y="285" width="21" height="1" fill="#B4B4B4"/><rect x="192" y="285" width="149" height="1" fill="#000000"/><rect x="341" y="285" width="22" height="1" fill="#B4B4B4"/><rect x="363" y="285" width="21" height="1" fill="#000000"/><rect x="128" y="286" width="21" height="1" fill="#000000"/><rect x="149" y="286" width="22" height="1" fill="#8D8D8D"/><rect x="171" y="286" width="21" height="1" fill="#B4B4B4"/><rect x="192" y="286" width="149" height="1" fill="#000000"/><rect x="341" y="286" width="22" height="1" fill="#B4B4B4"/><rect x="363" y="286" width="21" height="1" fill="#000000"/><rect x="128" y="287" width="21" height="1" fill="#000000"/><rect x="149" y="287" width="22" height="1" fill="#8D8D8D"/><rect x="171" y="287" width="21" height="1" fill="#B4B4B4"/><rect x="192" y="287" width="149" height="1" fill="#000000"/><rect x="341" y="287" width="22" height="1" fill="#B4B4B4"/><rect x="363" y="287" width="21" height="1" fill="#000000"/><rect x="128" y="288" width="21" height="1" fill="#000000"/><rect x="149" y="288" width="22" height="1" fill="#8D8D8D"/><rect x="171" y="288" width="21" height="1" fill="#B4B4B4"/><rect x="192" y="288" width="149" height="1" fill="#000000"/><rect x="341" y="288" width="22" height="1" fill="#B4B4B4"/><rect x="363" y="288" width="21" height="1" fill="#000000"/><rect x="128" y="289" width="21" height="1" fill="#000000"/><rect x="149" y="289" width="22" height="1" fill="#8D8D8D"/><rect x="171" y="289" width="21" height="1" fill="#B4B4B4"/><rect x="192" y="289" width="149" height="1" fill="#000000"/><rect x="341" y="289" width="22" height="1" fill="#B4B4B4"/><rect x="363" y="289" width="21" height="1" fill="#000000"/><rect x="128" y="290" width="21" height="1" fill="#000000"/><rect x="149" y="290" width="22" height="1" fill="#8D8D8D"/><rect x="171" y="290" width="21" height="1" fill="#B4B4B4"/><rect x="192" y="290" width="149" height="1" fill="#000000"/><rect x="341" y="290" width="22" height="1" fill="#B4B4B4"/><rect x="363" y="290" width="21" height="1" fill="#000000"/><rect x="128" y="291" width="21" height="1" fill="#000000"/><rect x="149" y="291" width="22" height="1" fill="#8D8D8D"/><rect x="171" y="291" width="21" height="1" fill="#B4B4B4"/><rect x="192" y="291" width="149" height="1" fill="#000000"/><rect x="341" y="291" width="22" height="1" fill="#B4B4B4"/><rect x="363" y="291" width="21" height="1" fill="#000000"/><rect x="128" y="292" width="21" height="1" fill="#000000"/><rect x="149" y="292" width="22" height="1" fill="#8D8D8D"/><rect x="171" y="292" width="21" height="1" fill="#B4B4B4"/><rect x="192" y="292" width="149" height="1" fill="#000000"/><rect x="341" y="292" width="22" height="1" fill="#B4B4B4"/><rect x="363" y="292" width="21" height="1" fill="#000000"/><rect x="128" y="293" width="21" height="1" fill="#000000"/><rect x="149" y="293" width="22" height="1" fill="#8D8D8D"/><rect x="171" y="293" width="21" height="1" fill="#B4B4B4"/><rect x="192" y="293" width="149" height="1" fill="#000000"/><rect x="341" y="293" width="22" height="1" fill="#B4B4B4"/><rect x="363" y="293" width="21" height="1" fill="#000000"/><rect x="128" y="294" width="21" height="1" fill="#000000"/><rect x="149" y="294" width="22" height="1" fill="#8D8D8D"/><rect x="171" y="294" width="21" height="1" fill="#B4B4B4"/><rect x="192" y="294" width="149" height="1" fill="#000000"/><rect x="341" y="294" width="22" height="1" fill="#B4B4B4"/><rect x="363" y="294" width="21" height="1" fill="#000000"/><rect x="128" y="295" width="21" height="1" fill="#000000"/><rect x="149" y="295" width="22" height="1" fill="#8D8D8D"/><rect x="171" y="295" width="21" height="1" fill="#B4B4B4"/><rect x="192" y="295" width="149" height="1" fill="#000000"/><rect x="341" y="295" width="22" height="1" fill="#B4B4B4"/><rect x="363" y="295" width="21" height="1" fill="#000000"/><rect x="128" y="296" width="21" height="1" fill="#000000"/><rect x="149" y="296" width="22" height="1" fill="#8D8D8D"/><rect x="171" y="296" width="21" height="1" fill="#B4B4B4"/><rect x="192" y="296" width="149" height="1" fill="#000000"/><rect x="341" y="296" width="22" height="1" fill="#B4B4B4"/><rect x="363" y="296" width="21" height="1" fill="#000000"/><rect x="128" y="297" width="21" height="1" fill="#000000"/><rect x="149" y="297" width="22" height="1" fill="#8D8D8D"/><rect x="171" y="297" width="21" height="1" fill="#B4B4B4"/><rect x="192" y="297" width="149" height="1" fill="#000000"/><rect x="341" y="297" width="22" height="1" fill="#B4B4B4"/><rect x="363" y="297" width="21" height="1" fill="#000000"/><rect x="128" y="298" width="21" height="1" fill="#000000"/><rect x="149" y="298" width="22" height="1" fill="#8D8D8D"/><rect x="171" y="298" width="21" height="1" fill="#B4B4B4"/><rect x="192" y="298" width="149" height="1" fill="#000000"/><rect x="341" y="298" width="22" height="1" fill="#B4B4B4"/><rect x="363" y="298" width="21" height="1" fill="#000000"/><rect x="128" y="299" width="21" height="1" fill="#000000"/><rect x="149" y="299" width="22" height="1" fill="#8D8D8D"/><rect x="171" y="299" width="21" height="1" fill="#B4B4B4"/><rect x="192" y="299" width="149" height="1" fill="#000000"/><rect x="341" y="299" width="22" height="1" fill="#B4B4B4"/><rect x="363" y="299" width="21" height="1" fill="#000000"/><rect x="128" y="300" width="21" height="1" fill="#000000"/><rect x="149" y="300" width="22" height="1" fill="#8D8D8D"/><rect x="171" y="300" width="21" height="1" fill="#B4B4B4"/><rect x="192" y="300" width="149" height="1" fill="#000000"/><rect x="341" y="300" width="22" height="1" fill="#B4B4B4"/><rect x="363" y="300" width="21" height="1" fill="#000000"/><rect x="128" y="301" width="21" height="1" fill="#000000"/><rect x="149" y="301" width="22" height="1" fill="#8D8D8D"/><rect x="171" y="301" width="21" height="1" fill="#B4B4B4"/><rect x="192" y="301" width="149" height="1" fill="#000000"/><rect x="341" y="301" width="22" height="1" fill="#B4B4B4"/><rect x="363" y="301" width="21" height="1" fill="#000000"/><rect x="128" y="302" width="21" height="1" fill="#000000"/><rect x="149" y="302" width="22" height="1" fill="#8D8D8D"/><rect x="171" y="302" width="21" height="1" fill="#B4B4B4"/><rect x="192" y="302" width="149" height="1" fill="#000000"/><rect x="341" y="302" width="22" height="1" fill="#B4B4B4"/><rect x="363" y="302" width="21" height="1" fill="#000000"/><rect x="128" y="303" width="21" height="1" fill="#000000"/><rect x="149" y="303" width="22" height="1" fill="#8D8D8D"/><rect x="171" y="303" width="21" height="1" fill="#B4B4B4"/><rect x="192" y="303" width="149" height="1" fill="#000000"/><rect x="341" y="303" width="22" height="1" fill="#B4B4B4"/><rect x="363" y="303" width="21" height="1" fill="#000000"/><rect x="128" y="304" width="21" height="1" fill="#000000"/><rect x="149" y="304" width="22" height="1" fill="#8D8D8D"/><rect x="171" y="304" width="21" height="1" fill="#B4B4B4"/><rect x="192" y="304" width="149" height="1" fill="#000000"/><rect x="341" y="304" width="22" height="1" fill="#B4B4B4"/><rect x="363" y="304" width="21" height="1" fill="#000000"/><rect x="128" y="305" width="21" height="1" fill="#000000"/><rect x="149" y="305" width="22" height="1" fill="#8D8D8D"/><rect x="171" y="305" width="21" height="1" fill="#B4B4B4"/><rect x="192" y="305" width="149" height="1" fill="#000000"/><rect x="341" y="305" width="22" height="1" fill="#B4B4B4"/><rect x="363" y="305" width="21" height="1" fill="#000000"/><rect x="128" y="306" width="21" height="1" fill="#000000"/><rect x="149" y="306" width="22" height="1" fill="#8D8D8D"/><rect x="171" y="306" width="21" height="1" fill="#B4B4B4"/><rect x="192" y="306" width="149" height="1" fill="#000000"/><rect x="341" y="306" width="22" height="1" fill="#B4B4B4"/><rect x="363" y="306" width="21" height="1" fill="#000000"/><rect x="128" y="307" width="21" height="1" fill="#000000"/><rect x="149" y="307" width="22" height="1" fill="#8D8D8D"/><rect x="171" y="307" width="21" height="1" fill="#B4B4B4"/><rect x="192" y="307" width="149" height="1" fill="#000000"/><rect x="341" y="307" width="22" height="1" fill="#B4B4B4"/><rect x="363" y="307" width="21" height="1" fill="#000000"/><rect x="128" y="308" width="21" height="1" fill="#000000"/><rect x="149" y="308" width="22" height="1" fill="#8D8D8D"/><rect x="171" y="308" width="21" height="1" fill="#B4B4B4"/><rect x="192" y="308" width="149" height="1" fill="#000000"/><rect x="341" y="308" width="22" height="1" fill="#B4B4B4"/><rect x="363" y="308" width="21" height="1" fill="#000000"/><rect x="128" y="309" width="21" height="1" fill="#000000"/><rect x="149" y="309" width="22" height="1" fill="#8D8D8D"/><rect x="171" y="309" width="21" height="1" fill="#B4B4B4"/><rect x="192" y="309" width="149" height="1" fill="#000000"/><rect x="341" y="309" width="22" height="1" fill="#B4B4B4"/><rect x="363" y="309" width="21" height="1" fill="#000000"/><rect x="128" y="310" width="21" height="1" fill="#000000"/><rect x="149" y="310" width="22" height="1" fill="#8D8D8D"/><rect x="171" y="310" width="21" height="1" fill="#B4B4B4"/><rect x="192" y="310" width="149" height="1" fill="#000000"/><rect x="341" y="310" width="22" height="1" fill="#B4B4B4"/><rect x="363" y="310" width="21" height="1" fill="#000000"/><rect x="128" y="311" width="21" height="1" fill="#000000"/><rect x="149" y="311" width="22" height="1" fill="#8D8D8D"/><rect x="171" y="311" width="21" height="1" fill="#B4B4B4"/><rect x="192" y="311" width="149" height="1" fill="#000000"/><rect x="341" y="311" width="22" height="1" fill="#B4B4B4"/><rect x="363" y="311" width="21" height="1" fill="#000000"/><rect x="128" y="312" width="21" height="1" fill="#000000"/><rect x="149" y="312" width="22" height="1" fill="#8D8D8D"/><rect x="171" y="312" width="21" height="1" fill="#B4B4B4"/><rect x="192" y="312" width="149" height="1" fill="#000000"/><rect x="341" y="312" width="22" height="1" fill="#B4B4B4"/><rect x="363" y="312" width="21" height="1" fill="#000000"/><rect x="128" y="313" width="21" height="1" fill="#000000"/><rect x="149" y="313" width="22" height="1" fill="#8D8D8D"/><rect x="171" y="313" width="21" height="1" fill="#B4B4B4"/><rect x="192" y="313" width="149" height="1" fill="#000000"/><rect x="341" y="313" width="22" height="1" fill="#B4B4B4"/><rect x="363" y="313" width="21" height="1" fill="#000000"/><rect x="128" y="314" width="21" height="1" fill="#000000"/><rect x="149" y="314" width="22" height="1" fill="#8D8D8D"/><rect x="171" y="314" width="21" height="1" fill="#B4B4B4"/><rect x="192" y="314" width="149" height="1" fill="#000000"/><rect x="341" y="314" width="22" height="1" fill="#B4B4B4"/><rect x="363" y="314" width="21" height="1" fill="#000000"/><rect x="128" y="315" width="21" height="1" fill="#000000"/><rect x="149" y="315" width="22" height="1" fill="#8D8D8D"/><rect x="171" y="315" width="21" height="1" fill="#B4B4B4"/><rect x="192" y="315" width="149" height="1" fill="#000000"/><rect x="341" y="315" width="22" height="1" fill="#B4B4B4"/><rect x="363" y="315" width="21" height="1" fill="#000000"/><rect x="128" y="316" width="21" height="1" fill="#000000"/><rect x="149" y="316" width="22" height="1" fill="#8D8D8D"/><rect x="171" y="316" width="21" height="1" fill="#B4B4B4"/><rect x="192" y="316" width="149" height="1" fill="#000000"/><rect x="341" y="316" width="22" height="1" fill="#B4B4B4"/><rect x="363" y="316" width="21" height="1" fill="#000000"/><rect x="128" y="317" width="21" height="1" fill="#000000"/><rect x="149" y="317" width="22" height="1" fill="#8D8D8D"/><rect x="171" y="317" width="21" height="1" fill="#B4B4B4"/><rect x="192" y="317" width="149" height="1" fill="#000000"/><rect x="341" y="317" width="22" height="1" fill="#B4B4B4"/><rect x="363" y="317" width="21" height="1" fill="#000000"/><rect x="128" y="318" width="21" height="1" fill="#000000"/><rect x="149" y="318" width="22" height="1" fill="#8D8D8D"/><rect x="171" y="318" width="21" height="1" fill="#B4B4B4"/><rect x="192" y="318" width="149" height="1" fill="#000000"/><rect x="341" y="318" width="22" height="1" fill="#B4B4B4"/><rect x="363" y="318" width="21" height="1" fill="#000000"/><rect x="128" y="319" width="21" height="1" fill="#000000"/><rect x="149" y="319" width="22" height="1" fill="#8D8D8D"/><rect x="171" y="319" width="21" height="1" fill="#B4B4B4"/><rect x="192" y="319" width="149" height="1" fill="#000000"/><rect x="341" y="319" width="22" height="1" fill="#B4B4B4"/><rect x="363" y="319" width="21" height="1" fill="#000000"/><rect x="149" y="320" width="22" height="1" fill="#000000"/><rect x="171" y="320" width="21" height="1" fill="#8D8D8D"/><rect x="192" y="320" width="149" height="1" fill="#B4B4B4"/><rect x="341" y="320" width="22" height="1" fill="#8D8D8D"/><rect x="363" y="320" width="21" height="1" fill="#000000"/><rect x="149" y="321" width="22" height="1" fill="#000000"/><rect x="171" y="321" width="21" height="1" fill="#8D8D8D"/><rect x="192" y="321" width="149" height="1" fill="#B4B4B4"/><rect x="341" y="321" width="22" height="1" fill="#8D8D8D"/><rect x="363" y="321" width="21" height="1" fill="#000000"/><rect x="149" y="322" width="22" height="1" fill="#000000"/><rect x="171" y="322" width="21" height="1" fill="#8D8D8D"/><rect x="192" y="322" width="149" height="1" fill="#B4B4B4"/><rect x="341" y="322" width="22" height="1" fill="#8D8D8D"/><rect x="363" y="322" width="21" height="1" fill="#000000"/><rect x="149" y="323" width="22" height="1" fill="#000000"/><rect x="171" y="323" width="21" height="1" fill="#8D8D8D"/><rect x="192" y="323" width="149" height="1" fill="#B4B4B4"/><rect x="341" y="323" width="22" height="1" fill="#8D8D8D"/><rect x="363" y="323" width="21" height="1" fill="#000000"/><rect x="149" y="324" width="22" height="1" fill="#000000"/><rect x="171" y="324" width="21" height="1" fill="#8D8D8D"/><rect x="192" y="324" width="149" height="1" fill="#B4B4B4"/><rect x="341" y="324" width="22" height="1" fill="#8D8D8D"/><rect x="363" y="324" width="21" height="1" fill="#000000"/><rect x="149" y="325" width="22" height="1" fill="#000000"/><rect x="171" y="325" width="21" height="1" fill="#8D8D8D"/><rect x="192" y="325" width="149" height="1" fill="#B4B4B4"/><rect x="341" y="325" width="22" height="1" fill="#8D8D8D"/><rect x="363" y="325" width="21" height="1" fill="#000000"/><rect x="149" y="326" width="22" height="1" fill="#000000"/><rect x="171" y="326" width="21" height="1" fill="#8D8D8D"/><rect x="192" y="326" width="149" height="1" fill="#B4B4B4"/><rect x="341" y="326" width="22" height="1" fill="#8D8D8D"/><rect x="363" y="326" width="21" height="1" fill="#000000"/><rect x="149" y="327" width="22" height="1" fill="#000000"/><rect x="171" y="327" width="21" height="1" fill="#8D8D8D"/><rect x="192" y="327" width="149" height="1" fill="#B4B4B4"/><rect x="341" y="327" width="22" height="1" fill="#8D8D8D"/><rect x="363" y="327" width="21" height="1" fill="#000000"/><rect x="149" y="328" width="22" height="1" fill="#000000"/><rect x="171" y="328" width="21" height="1" fill="#8D8D8D"/><rect x="192" y="328" width="149" height="1" fill="#B4B4B4"/><rect x="341" y="328" width="22" height="1" fill="#8D8D8D"/><rect x="363" y="328" width="21" height="1" fill="#000000"/><rect x="149" y="329" width="22" height="1" fill="#000000"/><rect x="171" y="329" width="21" height="1" fill="#8D8D8D"/><rect x="192" y="329" width="149" height="1" fill="#B4B4B4"/><rect x="341" y="329" width="22" height="1" fill="#8D8D8D"/><rect x="363" y="329" width="21" height="1" fill="#000000"/><rect x="149" y="330" width="22" height="1" fill="#000000"/><rect x="171" y="330" width="21" height="1" fill="#8D8D8D"/><rect x="192" y="330" width="149" height="1" fill="#B4B4B4"/><rect x="341" y="330" width="22" height="1" fill="#8D8D8D"/><rect x="363" y="330" width="21" height="1" fill="#000000"/><rect x="149" y="331" width="22" height="1" fill="#000000"/><rect x="171" y="331" width="21" height="1" fill="#8D8D8D"/><rect x="192" y="331" width="149" height="1" fill="#B4B4B4"/><rect x="341" y="331" width="22" height="1" fill="#8D8D8D"/><rect x="363" y="331" width="21" height="1" fill="#000000"/><rect x="149" y="332" width="22" height="1" fill="#000000"/><rect x="171" y="332" width="21" height="1" fill="#8D8D8D"/><rect x="192" y="332" width="149" height="1" fill="#B4B4B4"/><rect x="341" y="332" width="22" height="1" fill="#8D8D8D"/><rect x="363" y="332" width="21" height="1" fill="#000000"/><rect x="149" y="333" width="22" height="1" fill="#000000"/><rect x="171" y="333" width="21" height="1" fill="#8D8D8D"/><rect x="192" y="333" width="149" height="1" fill="#B4B4B4"/><rect x="341" y="333" width="22" height="1" fill="#8D8D8D"/><rect x="363" y="333" width="21" height="1" fill="#000000"/><rect x="149" y="334" width="22" height="1" fill="#000000"/><rect x="171" y="334" width="21" height="1" fill="#8D8D8D"/><rect x="192" y="334" width="149" height="1" fill="#B4B4B4"/><rect x="341" y="334" width="22" height="1" fill="#8D8D8D"/><rect x="363" y="334" width="21" height="1" fill="#000000"/><rect x="149" y="335" width="22" height="1" fill="#000000"/><rect x="171" y="335" width="21" height="1" fill="#8D8D8D"/><rect x="192" y="335" width="149" height="1" fill="#B4B4B4"/><rect x="341" y="335" width="22" height="1" fill="#8D8D8D"/><rect x="363" y="335" width="21" height="1" fill="#000000"/><rect x="149" y="336" width="22" height="1" fill="#000000"/><rect x="171" y="336" width="21" height="1" fill="#8D8D8D"/><rect x="192" y="336" width="149" height="1" fill="#B4B4B4"/><rect x="341" y="336" width="22" height="1" fill="#8D8D8D"/><rect x="363" y="336" width="21" height="1" fill="#000000"/><rect x="149" y="337" width="22" height="1" fill="#000000"/><rect x="171" y="337" width="21" height="1" fill="#8D8D8D"/><rect x="192" y="337" width="149" height="1" fill="#B4B4B4"/><rect x="341" y="337" width="22" height="1" fill="#8D8D8D"/><rect x="363" y="337" width="21" height="1" fill="#000000"/><rect x="149" y="338" width="22" height="1" fill="#000000"/><rect x="171" y="338" width="21" height="1" fill="#8D8D8D"/><rect x="192" y="338" width="149" height="1" fill="#B4B4B4"/><rect x="341" y="338" width="22" height="1" fill="#8D8D8D"/><rect x="363" y="338" width="21" height="1" fill="#000000"/><rect x="149" y="339" width="22" height="1" fill="#000000"/><rect x="171" y="339" width="21" height="1" fill="#8D8D8D"/><rect x="192" y="339" width="149" height="1" fill="#B4B4B4"/><rect x="341" y="339" width="22" height="1" fill="#8D8D8D"/><rect x="363" y="339" width="21" height="1" fill="#000000"/><rect x="149" y="340" width="22" height="1" fill="#000000"/><rect x="171" y="340" width="21" height="1" fill="#8D8D8D"/><rect x="192" y="340" width="149" height="1" fill="#B4B4B4"/><rect x="341" y="340" width="22" height="1" fill="#8D8D8D"/><rect x="363" y="340" width="21" height="1" fill="#000000"/><rect x="171" y="341" width="192" height="1" fill="#000000"/><rect x="171" y="342" width="192" height="1" fill="#000000"/><rect x="171" y="343" width="192" height="1" fill="#000000"/><rect x="171" y="344" width="192" height="1" fill="#000000"/><rect x="171" y="345" width="192" height="1" fill="#000000"/><rect x="171" y="346" width="192" height="1" fill="#000000"/><rect x="171" y="347" width="192" height="1" fill="#000000"/><rect x="171" y="348" width="192" height="1" fill="#000000"/><rect x="171" y="349" width="192" height="1" fill="#000000"/><rect x="171" y="350" width="192" height="1" fill="#000000"/><rect x="171" y="351" width="192" height="1" fill="#000000"/><rect x="171" y="352" width="192" height="1" fill="#000000"/><rect x="171" y="353" width="192" height="1" fill="#000000"/><rect x="171" y="354" width="192" height="1" fill="#000000"/><rect x="171" y="355" width="192" height="1" fill="#000000"/><rect x="171" y="356" width="192" height="1" fill="#000000"/><rect x="171" y="357" width="192" height="1" fill="#000000"/><rect x="171" y="358" width="192" height="1" fill="#000000"/><rect x="171" y="359" width="192" height="1" fill="#000000"/><rect x="171" y="360" width="192" height="1" fill="#000000"/><rect x="171" y="361" width="192" height="1" fill="#000000"/><rect x="171" y="362" width="192" height="1" fill="#000000"/></svg>