<svg xmlns="http://www.w3.org/2000/svg" viewBox="0 0 512 512" width="512" height="512" shape-rendering="crispEdges"><rect x="192" y="427" width="21" height="1" fill="#000000"/><rect x="192" y="428" width="21" height="1" fill="#000000"/><rect x="192" y="429" width="21" height="1" fill="#000000"/><rect x="192" y="430" width="21" height="1" fill="#000000"/><rect x="192" y="431" width="21" height="1" fill="#000000"/><rect x="192" y="432" width="21" height="1" fill="#000000"/><rect x="192" y="433" width="21" height="1" fill="#000000"/><rect x="192" y="434" width="21" height="1" fill="#000000"/><rect x="192" y="435" width="21" height="1" fill="#000000"/><rect x="192" y="436" width="21" height="1" fill="#000000"/><rect x="192" y="437" width="21" height="1" fill="#000000"/><rect x="192" y="438" width="21" height="1" fill="#000000"/><rect x="192" y="439" width="21" height="1" fill="#000000"/><rect x="192" y="440" width="21" height="1" fill="#000000"/><rect x="192" y="441" width="21" height="1" fill="#000000"/><rect x="192" y="442" width="21" height="1" fill="#000000"/><rect x="192" y="443" width="21" height="1" fill="#000000"/><rect x="192" y="444" width="21" height="1" fill="#000000"/><rect x="192" y="445" width="21" height="1" fill="#000000"/><rect x="192" y="446" width="21" height="1" fill="#000000"/><rect x="192" y="447" width="21" height="1" fill="#000000"/><rect x="192" y="448" width="43" height="1" fill="#000000"/><rect x="192" y="449" width="43" height="1" fill="#000000"/><rect x="192" y="450" width="43" height="1" fill="#000000"/><rect x="192" y="451" width="43" height="1" fill="#000000"/><rect x="192" y="452" width="43" height="1" fill="#000000"/><rect x="192" y="453" width="43" height="1" fill="#000000"/><rect x="192" y="454" width="43" height="1" fill="#000000"/><rect x="192" y="455" width="43" height="1" fill="#000000"/><rect x="192" y="456" width="43" height="1" fill="#000000"/><rect x="192" y="457" width="43" height="1" fill="#000000"/><rect x="192" y="458" width="43" height="1" fill="#000000"/><rect x="192" y="459" width="43" height="1" fill="#000000"/><rect x="192" y="460" width="43" height="1" fill="#000000"/><rect x="192" y="461" width="43" height="1" fill="#000000"/><rect x="192" y="462" width="43" height="1" fill="#000000"/><rect x="192" y="463" width="43" height="1" fill="#000000"/><rect x="192" y="464" width="43" height="1" fill="#000000"/><rect x="192" y="465" width="43" height="1" fill="#000000"/><rect x="192" y="466" width="43" height="1" fill="#000000"/><rect x="192" y="467" width="43" height="1" fill="#000000"/><rect x="192" y="468" width="43" height="1" fill="#000000"/><rect x="213" y="469" width="43" height="1" fill="#000000"/><rect x="213" y="470" width="43" height="1" fill="#000000"/><rect x="213" y="471" width="43" height="1" fill="#000000"/><rect x="213" y="472" width="43" height="1" fill="#000000"/><rect x="213" y="473" width="43" height="1" fill="#000000"/><rect x="213" y="474" width="43" height="1" fill="#000000"/><rect x="213" y="475" width="43" height="1" fill="#000000"/><rect x="213" y="476" width="43" height="1" fill="#000000"/><rect x="213" y="477" width="43" height="1" fill="#000000"/><rect x="213" y="478" width="43" height="1" fill="#000000"/><rect x="213" y="479" width="43" height="1" fill="#000000"/><rect x="213" y="480" width="43" height="1" fill="#000000"/><rect x="213" y="481" width="43" height="1" fill="#000000"/><rect x="213" y="482" width="43" height="1" fill="#000000"/><rect x="213" y="483" width="43" height="1" fill="#000000"/><rect x="213" y="484" width="43" height="1" fill="#000000"/><rect x="213" y="485" width="43" height="1" fill="#000000"/><rect x="213" y="486" width="43" height="1" fill="#000000"/><rect x="213" y="487" width="43" height="1" fill="#000000"/><rect x="213" y="488" width="43" height="1" fill="#000000"/><rect x="213" y="489" width="43" height="1" fill="#000000"/><rect x="213" y="490" width="43" height="1" fill="#000000"/></svg>