<svg xmlns="http://www.w3.org/2000/svg" viewBox="0 0 512 512" width="512" height="512" shape-rendering="crispEdges"><rect x="256" y="299" width="43" height="1" fill="#D70000"/><rect x="256" y="300" width="43" height="1" fill="#D70000"/><rect x="256" y="301" width="43" height="1" fill="#D70000"/><rect x="256" y="302" width="43" height="1" fill="#D70000"/><rect x="256" y="303" width="43" height="1" fill="#D70000"/><rect x="256" y="304" width="43" height="1" fill="#D70000"/><rect x="256" y="305" width="43" height="1" fill="#D70000"/><rect x="256" y="306" width="43" height="1" fill="#D70000"/><rect x="256" y="307" width="43" height="1" fill="#D70000"/><rect x="256" y="308" width="43" height="1" fill="#D70000"/><rect x="256" y="309" width="43" height="1" fill="#D70000"/><rect x="256" y="310" width="43" height="1" fill="#D70000"/><rect x="256" y="311" width="43" height="1" fill="#D70000"/><rect x="256" y="312" width="43" height="1" fill="#D70000"/><rect x="256" y="313" width="43" height="1" fill="#D70000"/><rect x="256" y="314" width="43" height="1" fill="#D70000"/><rect x="256" y="315" width="43" height="1" fill="#D70000"/><rect x="256" y="316" width="43" height="1" fill="#D70000"/><rect x="256" y="317" width="43" height="1" fill="#D70000"/><rect x="256" y="318" width="43" height="1" fill="#D70000"/><rect x="256" y="319" width="43" height="1" fill="#D70000"/><rect x="256" y="320" width="43" height="1" fill="#D70000"/><rect x="256" y="321" width="43" height="1" fill="#D70000"/><rect x="256" y="322" width="43" height="1" fill="#D70000"/><rect x="256" y="323" width="43" height="1" fill="#D70000"/><rect x="256" y="324" width="43" height="1" fill="#D70000"/><rect x="256" y="325" width="43" height="1" fill="#D70000"/><rect x="256" y="326" width="43" height="1" fill="#D70000"/><rect x="256" y="327" width="43" height="1" fill="#D70000"/><rect x="256" y="328" width="43" height="1" fill="#D70000"/><rect x="256" y="329" width="43" height="1" fill="#D70000"/><rect x="256" y="330" width="43" height="1" fill="#D70000"/><rect x="256" y="331" width="43" height="1" fill="#D70000"/><rect x="256" y="332" width="43" height="1" fill="#D70000"/><rect x="256" y="333" width="43" height="1" fill="#D70000"/><rect x="256" y="334" width="43" height="1" fill="#D70000"/><rect x="256" y="335" width="43" height="1" fill="#D70000"/><rect x="256" y="336" width="43" height="1" fill="#D70000"/><rect x="256" y="337" width="43" height="1" fill="#D70000"/><rect x="256" y="338" width="43" height="1" fill="#D70000"/><rect x="256" y="339" width="43" height="1" fill="#D70000"/><rect x="256" y="340" width="43" height="1" fill="#D70000"/></svg>