<svg xmlns="http://www.w3.org/2000/svg" viewBox="0 0 512 512" width="512" height="512" shape-rendering="crispEdges"><rect x="149" y="427" width="22" height="1" fill="#FFDA22"/><rect x="149" y="428" width="22" height="1" fill="#FFDA22"/><rect x="149" y="429" width="22" height="1" fill="#FFDA22"/><rect x="149" y="430" width="22" height="1" fill="#FFDA22"/><rect x="149" y="431" width="22" height="1" fill="#FFDA22"/><rect x="149" y="432" width="22" height="1" fill="#FFDA22"/><rect x="149" y="433" width="22" height="1" fill="#FFDA22"/><rect x="149" y="434" width="22" height="1" fill="#FFDA22"/><rect x="149" y="435" width="22" height="1" fill="#FFDA22"/><rect x="149" y="436" width="22" height="1" fill="#FFDA22"/><rect x="149" y="437" width="22" height="1" fill="#FFDA22"/><rect x="149" y="438" width="22" height="1" fill="#FFDA22"/><rect x="149" y="439" width="22" height="1" fill="#FFDA22"/><rect x="149" y="440" width="22" height="1" fill="#FFDA22"/><rect x="149" y="441" width="22" height="1" fill="#FFDA22"/><rect x="149" y="442" width="22" height="1" fill="#FFDA22"/><rect x="149" y="443" width="22" height="1" fill="#FFDA22"/><rect x="149" y="444" width="22" height="1" fill="#FFDA22"/><rect x="149" y="445" width="22" height="1" fill="#FFDA22"/><rect x="149" y="446" width="22" height="1" fill="#FFDA22"/><rect x="149" y="447" width="22" height="1" fill="#FFDA22"/><rect x="171" y="448" width="21" height="1" fill="#FFDA22"/><rect x="171" y="449" width="21" height="1" fill="#FFDA22"/><rect x="171" y="450" width="21" height="1" fill="#FFDA22"/><rect x="171" y="451" width="21" height="1" fill="#FFDA22"/><rect x="171" y="452" width="21" height="1" fill="#FFDA22"/><rect x="171" y="453" width="21" height="1" fill="#FFDA22"/><rect x="171" y="454" width="21" height="1" fill="#FFDA22"/><rect x="171" y="455" width="21" height="1" fill="#FFDA22"/><rect x="171" y="456" width="21" height="1" fill="#FFDA22"/><rect x="171" y="457" width="21" height="1" fill="#FFDA22"/><rect x="171" y="458" width="21" height="1" fill="#FFDA22"/><rect x="171" y="459" width="21" height="1" fill="#FFDA22"/><rect x="171" y="460" width="21" height="1" fill="#FFDA22"/><rect x="171" y="461" width="21" height="1" fill="#FFDA22"/><rect x="171" y="462" width="21" height="1" fill="#FFDA22"/><rect x="171" y="463" width="21" height="1" fill="#FFDA22"/><rect x="171" y="464" width="21" height="1" fill="#FFDA22"/><rect x="171" y="465" width="21" height="1" fill="#FFDA22"/><rect x="171" y="466" width="21" height="1" fill="#FFDA22"/><rect x="171" y="467" width="21" height="1" fill="#FFDA22"/><rect x="171" y="468" width="21" height="1" fill="#FFDA22"/><rect x="192" y="469" width="21" height="1" fill="#FFDA22"/><rect x="192" y="470" width="21" height="1" fill="#FFDA22"/><rect x="192" y="471" width="21" height="1" fill="#FFDA22"/><rect x="192" y="472" width="21" height="1" fill="#FFDA22"/><rect x="192" y="473" width="21" height="1" fill="#FFDA22"/><rect x="192" y="474" width="21" height="1" fill="#FFDA22"/><rect x="192" y="475" width="21" height="1" fill="#FFDA22"/><rect x="192" y="476" width="21" height="1" fill="#FFDA22"/><rect x="192" y="477" width="21" height="1" fill="#FFDA22"/><rect x="192" y="478" width="21" height="1" fill="#FFDA22"/><rect x="192" y="479" width="21" height="1" fill="#FFDA22"/><rect x="192" y="480" width="21" height="1" fill="#FFDA22"/><rect x="192" y="481" width="21" height="1" fill="#FFDA22"/><rect x="192" y="482" width="21" height="1" fill="#FFDA22"/><rect x="192" y="483" width="21" height="1" fill="#FFDA22"/><rect x="192" y="484" width="21" height="1" fill="#FFDA22"/><rect x="192" y="485" width="21" height="1" fill="#FFDA22"/><rect x="192" y="486" width="21" height="1" fill="#FFDA22"/><rect x="192" y="487" width="21" height="1" fill="#FFDA22"/><rect x="192" y="488" width="21" height="1" fill="#FFDA22"/><rect x="192" y="489" width="21" height="1" fill="#FFDA22"/><rect x="192" y="490" width="21" height="1" fill="#FFDA22"/></svg>