<svg xmlns="http://www.w3.org/2000/svg" viewBox="0 0 512 512" width="512" height="512" shape-rendering="crispEdges"><rect x="171" y="341" width="21" height="1" fill="#522623" opacity="0.451"/><rect x="171" y="342" width="21" height="1" fill="#522623" opacity="0.451"/><rect x="171" y="343" width="21" height="1" fill="#522623" opacity="0.451"/><rect x="171" y="344" width="21" height="1" fill="#522623" opacity="0.451"/><rect x="171" y="345" width="21" height="1" fill="#522623" opacity="0.451"/><rect x="171" y="346" width="21" height="1" fill="#522623" opacity="0.451"/><rect x="171" y="347" width="21" height="1" fill="#522623" opacity="0.451"/><rect x="171" y="348" width="21" height="1" fill="#522623" opacity="0.451"/><rect x="171" y="349" width="21" height="1" fill="#522623" opacity="0.451"/><rect x="171" y="350" width="21" height="1" fill="#522623" opacity="0.451"/><rect x="171" y="351" width="21" height="1" fill="#522623" opacity="0.451"/><rect x="171" y="352" width="21" height="1" fill="#522623" opacity="0.451"/><rect x="171" y="353" width="21" height="1" fill="#522623" opacity="0.451"/><rect x="171" y="354" width="21" height="1" fill="#522623" opacity="0.451"/><rect x="171" y="355" width="21" height="1" fill="#522623" opacity="0.451"/><rect x="171" y="356" width="21" height="1" fill="#522623" opacity="0.451"/><rect x="171" y="357" width="21" height="1" fill="#522623" opacity="0.451"/><rect x="171" y="358" width="21" height="1" fill="#522623" opacity="0.451"/><rect x="171" y="359" width="21" height="1" fill="#522623" opacity="0.451"/><rect x="171" y="360" width="21" height="1" fill="#522623" opacity="0.451"/><rect x="171" y="361" width="21" height="1" fill="#522623" opacity="0.451"/><rect x="171" y="362" width="21" height="1" fill="#522623" opacity="0.451"/></svg>