<svg xmlns="http://www.w3.org/2000/svg" viewBox="0 0 512 512" width="512" height="512" shape-rendering="crispEdges"><rect x="192" y="320" width="43" height="1" fill="#E43C43" opacity="0.298"/><rect x="320" y="320" width="21" height="1" fill="#E43C43" opacity="0.298"/><rect x="192" y="321" width="43" height="1" fill="#E43C43" opacity="0.298"/><rect x="320" y="321" width="21" height="1" fill="#E43C43" opacity="0.298"/><rect x="192" y="322" width="43" height="1" fill="#E43C43" opacity="0.298"/><rect x="320" y="322" width="21" height="1" fill="#E43C43" opacity="0.298"/><rect x="192" y="323" width="43" height="1" fill="#E43C43" opacity="0.298"/><rect x="320" y="323" width="21" height="1" fill="#E43C43" opacity="0.298"/><rect x="192" y="324" width="43" height="1" fill="#E43C43" opacity="0.298"/><rect x="320" y="324" width="21" height="1" fill="#E43C43" opacity="0.298"/><rect x="192" y="325" width="43" height="1" fill="#E43C43" opacity="0.298"/><rect x="320" y="325" width="21" height="1" fill="#E43C43" opacity="0.298"/><rect x="192" y="326" width="43" height="1" fill="#E43C43" opacity="0.298"/><rect x="320" y="326" width="21" height="1" fill="#E43C43" opacity="0.298"/><rect x="192" y="327" width="43" height="1" fill="#E43C43" opacity="0.298"/><rect x="320" y="327" width="21" height="1" fill="#E43C43" opacity="0.298"/><rect x="192" y="328" width="43" height="1" fill="#E43C43" opacity="0.298"/><rect x="320" y="328" width="21" height="1" fill="#E43C43" opacity="0.298"/><rect x="192" y="329" width="43" height="1" fill="#E43C43" opacity="0.298"/><rect x="320" y="329" width="21" height="1" fill="#E43C43" opacity="0.298"/><rect x="192" y="330" width="43" height="1" fill="#E43C43" opacity="0.298"/><rect x="320" y="330" width="21" height="1" fill="#E43C43" opacity="0.298"/><rect x="192" y="331" width="43" height="1" fill="#E43C43" opacity="0.298"/><rect x="320" y="331" width="21" height="1" fill="#E43C43" opacity="0.298"/><rect x="192" y="332" width="43" height="1" fill="#E43C43" opacity="0.298"/><rect x="320" y="332" width="21" height="1" fill="#E43C43" opacity="0.298"/><rect x="192" y="333" width="43" height="1" fill="#E43C43" opacity="0.298"/><rect x="320" y="333" width="21" height="1" fill="#E43C43" opacity="0.298"/><rect x="192" y="334" width="43" height="1" fill="#E43C43" opacity="0.298"/><rect x="320" y="334" width="21" height="1" fill="#E43C43" opacity="0.298"/><rect x="192" y="335" width="43" height="1" fill="#E43C43" opacity="0.298"/><rect x="320" y="335" width="21" height="1" fill="#E43C43" opacity="0.298"/><rect x="192" y="336" width="43" height="1" fill="#E43C43" opacity="0.298"/><rect x="320" y="336" width="21" height="1" fill="#E43C43" opacity="0.298"/><rect x="192" y="337" width="43" height="1" fill="#E43C43" opacity="0.298"/><rect x="320" y="337" width="21" height="1" fill="#E43C43" opacity="0.298"/><rect x="192" y="338" width="43" height="1" fill="#E43C43" opacity="0.298"/><rect x="320" y="338" width="21" height="1" fill="#E43C43" opacity="0.298"/><rect x="192" y="339" width="43" height="1" fill="#E43C43" opacity="0.298"/><rect x="320" y="339" width="21" height="1" fill="#E43C43" opacity="0.298"/><rect x="192" y="340" width="43" height="1" fill="#E43C43" opacity="0.298"/><rect x="320" y="340" width="21" height="1" fill="#E43C43" opacity="0.298"/><rect x="192" y="341" width="21" height="1" fill="#E43C43" opacity="0.298"/><rect x="320" y="341" width="21" height="1" fill="#E43C43" opacity="0.298"/><rect x="192" y="342" width="21" height="1" fill="#E43C43" opacity="0.298"/><rect x="320" y="342" width="21" height="1" fill="#E43C43" opacity="0.298"/><rect x="192" y="343" width="21" height="1" fill="#E43C43" opacity="0.298"/><rect x="320" y="343" width="21" height="1" fill="#E43C43" opacity="0.298"/><rect x="192" y="344" width="21" height="1" fill="#E43C43" opacity="0.298"/><rect x="320" y="344" width="21" height="1" fill="#E43C43" opacity="0.298"/><rect x="192" y="345" width="21" height="1" fill="#E43C43" opacity="0.298"/><rect x="320" y="345" width="21" height="1" fill="#E43C43" opacity="0.298"/><rect x="192" y="346" width="21" height="1" fill="#E43C43" opacity="0.298"/><rect x="320" y="346" width="21" height="1" fill="#E43C43" opacity="0.298"/><rect x="192" y="347" width="21" height="1" fill="#E43C43" opacity="0.298"/><rect x="320" y="347" width="21" height="1" fill="#E43C43" opacity="0.298"/><rect x="192" y="348" width="21" height="1" fill="#E43C43" opacity="0.298"/><rect x="320" y="348" width="21" height="1" fill="#E43C43" opacity="0.298"/><rect x="192" y="349" width="21" height="1" fill="#E43C43" opacity="0.298"/><rect x="320" y="349" width="21" height="1" fill="#E43C43" opacity="0.298"/><rect x="192" y="350" width="21" height="1" fill="#E43C43" opacity="0.298"/><rect x="320" y="350" width="21" height="1" fill="#E43C43" opacity="0.298"/><rect x="192" y="351" width="21" height="1" fill="#E43C43" opacity="0.298"/><rect x="320" y="351" width="21" height="1" fill="#E43C43" opacity="0.298"/><rect x="192" y="352" width="21" height="1" fill="#E43C43" opacity="0.298"/><rect x="320" y="352" width="21" height="1" fill="#E43C43" opacity="0.298"/><rect x="192" y="353" width="21" height="1" fill="#E43C43" opacity="0.298"/><rect x="320" y="353" width="21" height="1" fill="#E43C43" opacity="0.298"/><rect x="192" y="354" width="21" height="1" fill="#E43C43" opacity="0.298"/><rect x="320" y="354" width="21" height="1" fill="#E43C43" opacity="0.298"/><rect x="192" y="355" width="21" height="1" fill="#E43C43" opacity="0.298"/><rect x="320" y="355" width="21" height="1" fill="#E43C43" opacity="0.298"/><rect x="192" y="356" width="21" height="1" fill="#E43C43" opacity="0.298"/><rect x="320" y="356" width="21" height="1" fill="#E43C43" opacity="0.298"/><rect x="192" y="357" width="21" height="1" fill="#E43C43" opacity="0.298"/><rect x="320" y="357" width="21" height="1" fill="#E43C43" opacity="0.298"/><rect x="192" y="358" width="21" height="1" fill="#E43C43" opacity="0.298"/><rect x="320" y="358" width="21" height="1" fill="#E43C43" opacity="0.298"/><rect x="192" y="359" width="21" height="1" fill="#E43C43" opacity="0.298"/><rect x="320" y="359" width="21" height="1" fill="#E43C43" opacity="0.298"/><rect x="192" y="360" width="21" height="1" fill="#E43C43" opacity="0.298"/><rect x="320" y="360" width="21" height="1" fill="#E43C43" opacity="0.298"/><rect x="192" y="361" width="21" height="1" fill="#E43C43" opacity="0.298"/><rect x="320" y="361" width="21" height="1" fill="#E43C43" opacity="0.298"/><rect x="192" y="362" width="21" height="1" fill="#E43C43" opacity="0.298"/><rect x="320" y="362" width="21" height="1" fill="#E43C43" opacity="0.298"/></svg>