<svg xmlns="http://www.w3.org/2000/svg" viewBox="0 0 512 512" width="512" height="512" shape-rendering="crispEdges"><rect x="149" y="469" width="64" height="1" fill="#C9C9C9"/><rect x="149" y="470" width="64" height="1" fill="#C9C9C9"/><rect x="149" y="471" width="64" height="1" fill="#C9C9C9"/><rect x="149" y="472" width="64" height="1" fill="#C9C9C9"/><rect x="149" y="473" width="64" height="1" fill="#C9C9C9"/><rect x="149" y="474" width="64" height="1" fill="#C9C9C9"/><rect x="149" y="475" width="64" height="1" fill="#C9C9C9"/><rect x="149" y="476" width="64" height="1" fill="#C9C9C9"/><rect x="149" y="477" width="64" height="1" fill="#C9C9C9"/><rect x="149" y="478" width="64" height="1" fill="#C9C9C9"/><rect x="149" y="479" width="64" height="1" fill="#C9C9C9"/><rect x="149" y="480" width="64" height="1" fill="#C9C9C9"/><rect x="149" y="481" width="64" height="1" fill="#C9C9C9"/><rect x="149" y="482" width="64" height="1" fill="#C9C9C9"/><rect x="149" y="483" width="64" height="1" fill="#C9C9C9"/><rect x="149" y="484" width="64" height="1" fill="#C9C9C9"/><rect x="149" y="485" width="64" height="1" fill="#C9C9C9"/><rect x="149" y="486" width="64" height="1" fill="#C9C9C9"/><rect x="149" y="487" width="64" height="1" fill="#C9C9C9"/><rect x="149" y="488" width="64" height="1" fill="#C9C9C9"/><rect x="149" y="489" width="64" height="1" fill="#C9C9C9"/><rect x="149" y="490" width="64" height="1" fill="#C9C9C9"/></svg>