<svg xmlns="http://www.w3.org/2000/svg" viewBox="0 0 512 512" width="512" height="512" shape-rendering="crispEdges"><rect x="213" y="171" width="22" height="1" fill="#542523" opacity="0.455"/><rect x="299" y="171" width="21" height="1" fill="#542523" opacity="0.455"/><rect x="213" y="172" width="22" height="1" fill="#542523" opacity="0.455"/><rect x="299" y="172" width="21" height="1" fill="#542523" opacity="0.455"/><rect x="213" y="173" width="22" height="1" fill="#542523" opacity="0.455"/><rect x="299" y="173" width="21" height="1" fill="#542523" opacity="0.455"/><rect x="213" y="174" width="22" height="1" fill="#542523" opacity="0.455"/><rect x="299" y="174" width="21" height="1" fill="#542523" opacity="0.455"/><rect x="213" y="175" width="22" height="1" fill="#542523" opacity="0.455"/><rect x="299" y="175" width="21" height="1" fill="#542523" opacity="0.455"/><rect x="213" y="176" width="22" height="1" fill="#542523" opacity="0.455"/><rect x="299" y="176" width="21" height="1" fill="#542523" opacity="0.455"/><rect x="213" y="177" width="22" height="1" fill="#542523" opacity="0.455"/><rect x="299" y="177" width="21" height="1" fill="#542523" opacity="0.455"/><rect x="213" y="178" width="22" height="1" fill="#542523" opacity="0.455"/><rect x="299" y="178" width="21" height="1" fill="#542523" opacity="0.455"/><rect x="213" y="179" width="22" height="1" fill="#542523" opacity="0.455"/><rect x="299" y="179" width="21" height="1" fill="#542523" opacity="0.455"/><rect x="213" y="180" width="22" height="1" fill="#542523" opacity="0.455"/><rect x="299" y="180" width="21" height="1" fill="#542523" opacity="0.455"/><rect x="213" y="181" width="22" height="1" fill="#542523" opacity="0.455"/><rect x="299" y="181" width="21" height="1" fill="#542523" opacity="0.455"/><rect x="213" y="182" width="22" height="1" fill="#542523" opacity="0.455"/><rect x="299" y="182" width="21" height="1" fill="#542523" opacity="0.455"/><rect x="213" y="183" width="22" height="1" fill="#542523" opacity="0.455"/><rect x="299" y="183" width="21" height="1" fill="#542523" opacity="0.455"/><rect x="213" y="184" width="22" height="1" fill="#542523" opacity="0.455"/><rect x="299" y="184" width="21" height="1" fill="#542523" opacity="0.455"/><rect x="213" y="185" width="22" height="1" fill="#542523" opacity="0.455"/><rect x="299" y="185" width="21" height="1" fill="#542523" opacity="0.455"/><rect x="213" y="186" width="22" height="1" fill="#542523" opacity="0.455"/><rect x="299" y="186" width="21" height="1" fill="#542523" opacity="0.455"/><rect x="213" y="187" width="22" height="1" fill="#542523" opacity="0.455"/><rect x="299" y="187" width="21" height="1" fill="#542523" opacity="0.455"/><rect x="213" y="188" width="22" height="1" fill="#542523" opacity="0.455"/><rect x="299" y="188" width="21" height="1" fill="#542523" opacity="0.455"/><rect x="213" y="189" width="22" height="1" fill="#542523" opacity="0.455"/><rect x="299" y="189" width="21" height="1" fill="#542523" opacity="0.455"/><rect x="213" y="190" width="22" height="1" fill="#542523" opacity="0.455"/><rect x="299" y="190" width="21" height="1" fill="#542523" opacity="0.455"/><rect x="213" y="191" width="22" height="1" fill="#542523" opacity="0.455"/><rect x="299" y="191" width="21" height="1" fill="#542523" opacity="0.455"/><rect x="149" y="277" width="22" height="1" fill="#542523" opacity="0.455"/><rect x="149" y="278" width="22" height="1" fill="#542523" opacity="0.455"/><rect x="149" y="279" width="22" height="1" fill="#542523" opacity="0.455"/><rect x="149" y="280" width="22" height="1" fill="#542523" opacity="0.455"/><rect x="149" y="281" width="22" height="1" fill="#542523" opacity="0.455"/><rect x="149" y="282" width="22" height="1" fill="#542523" opacity="0.455"/><rect x="149" y="283" width="22" height="1" fill="#542523" opacity="0.455"/><rect x="149" y="284" width="22" height="1" fill="#542523" opacity="0.455"/><rect x="149" y="285" width="22" height="1" fill="#542523" opacity="0.455"/><rect x="149" y="286" width="22" height="1" fill="#542523" opacity="0.455"/><rect x="149" y="287" width="22" height="1" fill="#542523" opacity="0.455"/><rect x="149" y="288" width="22" height="1" fill="#542523" opacity="0.455"/><rect x="149" y="289" width="22" height="1" fill="#542523" opacity="0.455"/><rect x="149" y="290" width="22" height="1" fill="#542523" opacity="0.455"/><rect x="149" y="291" width="22" height="1" fill="#542523" opacity="0.455"/><rect x="149" y="292" width="22" height="1" fill="#542523" opacity="0.455"/><rect x="149" y="293" width="22" height="1" fill="#542523" opacity="0.455"/><rect x="149" y="294" width="22" height="1" fill="#542523" opacity="0.455"/><rect x="149" y="295" width="22" height="1" fill="#542523" opacity="0.455"/><rect x="149" y="296" width="22" height="1" fill="#542523" opacity="0.455"/><rect x="149" y="297" width="22" height="1" fill="#542523" opacity="0.455"/><rect x="149" y="298" width="22" height="1" fill="#542523" opacity="0.455"/><rect x="299" y="299" width="21" height="1" fill="#542523" opacity="0.455"/><rect x="299" y="300" width="21" height="1" fill="#542523" opacity="0.455"/><rect x="299" y="301" width="21" height="1" fill="#542523" opacity="0.455"/><rect x="299" y="302" width="21" height="1" fill="#542523" opacity="0.455"/><rect x="299" y="303" width="21" height="1" fill="#542523" opacity="0.455"/><rect x="299" y="304" width="21" height="1" fill="#542523" opacity="0.455"/><rect x="299" y="305" width="21" height="1" fill="#542523" opacity="0.455"/><rect x="299" y="306" width="21" height="1" fill="#542523" opacity="0.455"/><rect x="299" y="307" width="21" height="1" fill="#542523" opacity="0.455"/><rect x="299" y="308" width="21" height="1" fill="#542523" opacity="0.455"/><rect x="299" y="309" width="21" height="1" fill="#542523" opacity="0.455"/><rect x="299" y="310" width="21" height="1" fill="#542523" opacity="0.455"/><rect x="299" y="311" width="21" height="1" fill="#542523" opacity="0.455"/><rect x="299" y="312" width="21" height="1" fill="#542523" opacity="0.455"/><rect x="299" y="313" width="21" height="1" fill="#542523" opacity="0.455"/><rect x="299" y="314" width="21" height="1" fill="#542523" opacity="0.455"/><rect x="299" y="315" width="21" height="1" fill="#542523" opacity="0.455"/><rect x="299" y="316" width="21" height="1" fill="#542523" opacity="0.455"/><rect x="299" y="317" width="21" height="1" fill="#542523" opacity="0.455"/><rect x="299" y="318" width="21" height="1" fill="#542523" opacity="0.455"/><rect x="299" y="319" width="21" height="1" fill="#542523" opacity="0.455"/><rect x="192" y="341" width="21" height="1" fill="#542523" opacity="0.455"/><rect x="192" y="342" width="21" height="1" fill="#542523" opacity="0.455"/><rect x="192" y="343" width="21" height="1" fill="#542523" opacity="0.455"/><rect x="192" y="344" width="21" height="1" fill="#542523" opacity="0.455"/><rect x="192" y="345" width="21" height="1" fill="#542523" opacity="0.455"/><rect x="192" y="346" width="21" height="1" fill="#542523" opacity="0.455"/><rect x="192" y="347" width="21" height="1" fill="#542523" opacity="0.455"/><rect x="192" y="348" width="21" height="1" fill="#542523" opacity="0.455"/><rect x="192" y="349" width="21" height="1" fill="#542523" opacity="0.455"/><rect x="192" y="350" width="21" height="1" fill="#542523" opacity="0.455"/><rect x="192" y="351" width="21" height="1" fill="#542523" opacity="0.455"/><rect x="192" y="352" width="21" height="1" fill="#542523" opacity="0.455"/><rect x="192" y="353" width="21" height="1" fill="#542523" opacity="0.455"/><rect x="192" y="354" width="21" height="1" fill="#542523" opacity="0.455"/><rect x="192" y="355" width="21" height="1" fill="#542523" opacity="0.455"/><rect x="192" y="356" width="21" height="1" fill="#542523" opacity="0.455"/><rect x="192" y="357" width="21" height="1" fill="#542523" opacity="0.455"/><rect x="192" y="358" width="21" height="1" fill="#542523" opacity="0.455"/><rect x="192" y="359" width="21" height="1" fill="#542523" opacity="0.455"/><rect x="192" y="360" width="21" height="1" fill="#542523" opacity="0.455"/><rect x="192" y="361" width="21" height="1" fill="#542523" opacity="0.455"/><rect x="192" y="362" width="21" height="1" fill="#542523" opacity="0.455"/><rect x="320" y="363" width="21" height="1" fill="#542523" opacity="0.455"/><rect x="320" y="364" width="21" height="1" fill="#542523" opacity="0.455"/><rect x="320" y="365" width="21" height="1" fill="#542523" opacity="0.455"/><rect x="320" y="366" width="21" height="1" fill="#542523" opacity="0.455"/><rect x="320" y="367" width="21" height="1" fill="#542523" opacity="0.455"/><rect x="320" y="368" width="21" height="1" fill="#542523" opacity="0.455"/><rect x="320" y="369" width="21" height="1" fill="#542523" opacity="0.455"/><rect x="320" y="370" width="21" height="1" fill="#542523" opacity="0.455"/><rect x="320" y="371" width="21" height="1" fill="#542523" opacity="0.455"/><rect x="320" y="372" width="21" height="1" fill="#542523" opacity="0.455"/><rect x="320" y="373" width="21" height="1" fill="#542523" opacity="0.455"/><rect x="320" y="374" width="21" height="1" fill="#542523" opacity="0.455"/><rect x="320" y="375" width="21" height="1" fill="#542523" opacity="0.455"/><rect x="320" y="376" width="21" height="1" fill="#542523" opacity="0.455"/><rect x="320" y="377" width="21" height="1" fill="#542523" opacity="0.455"/><rect x="320" y="378" width="21" height="1" fill="#542523" opacity="0.455"/><rect x="320" y="379" width="21" height="1" fill="#542523" opacity="0.455"/><rect x="320" y="380" width="21" height="1" fill="#542523" opacity="0.455"/><rect x="320" y="381" width="21" height="1" fill="#542523" opacity="0.455"/><rect x="320" y="382" width="21" height="1" fill="#542523" opacity="0.455"/><rect x="320" y="383" width="21" height="1" fill="#542523" opacity="0.455"/><rect x="171" y="427" width="21" height="1" fill="#542523" opacity="0.455"/><rect x="256" y="427" width="21" height="1" fill="#542523" opacity="0.455"/><rect x="171" y="428" width="21" height="1" fill="#542523" opacity="0.455"/><rect x="256" y="428" width="21" height="1" fill="#542523" opacity="0.455"/><rect x="171" y="429" width="21" height="1" fill="#542523" opacity="0.455"/><rect x="256" y="429" width="21" height="1" fill="#542523" opacity="0.455"/><rect x="171" y="430" width="21" height="1" fill="#542523" opacity="0.455"/><rect x="256" y="430" width="21" height="1" fill="#542523" opacity="0.455"/><rect x="171" y="431" width="21" height="1" fill="#542523" opacity="0.455"/><rect x="256" y="431" width="21" height="1" fill="#542523" opacity="0.455"/><rect x="171" y="432" width="21" height="1" fill="#542523" opacity="0.455"/><rect x="256" y="432" width="21" height="1" fill="#542523" opacity="0.455"/><rect x="171" y="433" width="21" height="1" fill="#542523" opacity="0.455"/><rect x="256" y="433" width="21" height="1" fill="#542523" opacity="0.455"/><rect x="171" y="434" width="21" height="1" fill="#542523" opacity="0.455"/><rect x="256" y="434" width="21" height="1" fill="#542523" opacity="0.455"/><rect x="171" y="435" width="21" height="1" fill="#542523" opacity="0.455"/><rect x="256" y="435" width="21" height="1" fill="#542523" opacity="0.455"/><rect x="171" y="436" width="21" height="1" fill="#542523" opacity="0.455"/><rect x="256" y="436" width="21" height="1" fill="#542523" opacity="0.455"/><rect x="171" y="437" width="21" height="1" fill="#542523" opacity="0.455"/><rect x="256" y="437" width="21" height="1" fill="#542523" opacity="0.455"/><rect x="171" y="438" width="21" height="1" fill="#542523" opacity="0.455"/><rect x="256" y="438" width="21" height="1" fill="#542523" opacity="0.455"/><rect x="171" y="439" width="21" height="1" fill="#542523" opacity="0.455"/><rect x="256" y="439" width="21" height="1" fill="#542523" opacity="0.455"/><rect x="171" y="440" width="21" height="1" fill="#542523" opacity="0.455"/><rect x="256" y="440" width="21" height="1" fill="#542523" opacity="0.455"/><rect x="171" y="441" width="21" height="1" fill="#542523" opacity="0.455"/><rect x="256" y="441" width="21" height="1" fill="#542523" opacity="0.455"/><rect x="171" y="442" width="21" height="1" fill="#542523" opacity="0.455"/><rect x="256" y="442" width="21" height="1" fill="#542523" opacity="0.455"/><rect x="171" y="443" width="21" height="1" fill="#542523" opacity="0.455"/><rect x="256" y="443" width="21" height="1" fill="#542523" opacity="0.455"/><rect x="171" y="444" width="21" height="1" fill="#542523" opacity="0.455"/><rect x="256" y="444" width="21" height="1" fill="#542523" opacity="0.455"/><rect x="171" y="445" width="21" height="1" fill="#542523" opacity="0.455"/><rect x="256" y="445" width="21" height="1" fill="#542523" opacity="0.455"/><rect x="171" y="446" width="21" height="1" fill="#542523" opacity="0.455"/><rect x="256" y="446" width="21" height="1" fill="#542523" opacity="0.455"/><rect x="171" y="447" width="21" height="1" fill="#542523" opacity="0.455"/><rect x="256" y="447" width="21" height="1" fill="#542523" opacity="0.455"/></svg>