<svg xmlns="http://www.w3.org/2000/svg" viewBox="0 0 512 512" width="512" height="512" shape-rendering="crispEdges"><rect x="192" y="341" width="149" height="1" fill="#A26F2D"/><rect x="341" y="341" width="22" height="1" fill="#000000"/><rect x="192" y="342" width="149" height="1" fill="#A26F2D"/><rect x="341" y="342" width="22" height="1" fill="#000000"/><rect x="192" y="343" width="149" height="1" fill="#A26F2D"/><rect x="341" y="343" width="22" height="1" fill="#000000"/><rect x="192" y="344" width="149" height="1" fill="#A26F2D"/><rect x="341" y="344" width="22" height="1" fill="#000000"/><rect x="192" y="345" width="149" height="1" fill="#A26F2D"/><rect x="341" y="345" width="22" height="1" fill="#000000"/><rect x="192" y="346" width="149" height="1" fill="#A26F2D"/><rect x="341" y="346" width="22" height="1" fill="#000000"/><rect x="192" y="347" width="149" height="1" fill="#A26F2D"/><rect x="341" y="347" width="22" height="1" fill="#000000"/><rect x="192" y="348" width="149" height="1" fill="#A26F2D"/><rect x="341" y="348" width="22" height="1" fill="#000000"/><rect x="192" y="349" width="149" height="1" fill="#A26F2D"/><rect x="341" y="349" width="22" height="1" fill="#000000"/><rect x="192" y="350" width="149" height="1" fill="#A26F2D"/><rect x="341" y="350" width="22" height="1" fill="#000000"/><rect x="192" y="351" width="149" height="1" fill="#A26F2D"/><rect x="341" y="351" width="22" height="1" fill="#000000"/><rect x="192" y="352" width="149" height="1" fill="#A26F2D"/><rect x="341" y="352" width="22" height="1" fill="#000000"/><rect x="192" y="353" width="149" height="1" fill="#A26F2D"/><rect x="341" y="353" width="22" height="1" fill="#000000"/><rect x="192" y="354" width="149" height="1" fill="#A26F2D"/><rect x="341" y="354" width="22" height="1" fill="#000000"/><rect x="192" y="355" width="149" height="1" fill="#A26F2D"/><rect x="341" y="355" width="22" height="1" fill="#000000"/><rect x="192" y="356" width="149" height="1" fill="#A26F2D"/><rect x="341" y="356" width="22" height="1" fill="#000000"/><rect x="192" y="357" width="149" height="1" fill="#A26F2D"/><rect x="341" y="357" width="22" height="1" fill="#000000"/><rect x="192" y="358" width="149" height="1" fill="#A26F2D"/><rect x="341" y="358" width="22" height="1" fill="#000000"/><rect x="192" y="359" width="149" height="1" fill="#A26F2D"/><rect x="341" y="359" width="22" height="1" fill="#000000"/><rect x="192" y="360" width="149" height="1" fill="#A26F2D"/><rect x="341" y="360" width="22" height="1" fill="#000000"/><rect x="192" y="361" width="149" height="1" fill="#A26F2D"/><rect x="341" y="361" width="22" height="1" fill="#000000"/><rect x="192" y="362" width="149" height="1" fill="#A26F2D"/><rect x="341" y="362" width="22" height="1" fill="#000000"/><rect x="128" y="363" width="21" height="1" fill="#000000"/><rect x="149" y="363" width="214" height="1" fill="#A26F2D"/><rect x="363" y="363" width="21" height="1" fill="#000000"/><rect x="128" y="364" width="21" height="1" fill="#000000"/><rect x="149" y="364" width="214" height="1" fill="#A26F2D"/><rect x="363" y="364" width="21" height="1" fill="#000000"/><rect x="128" y="365" width="21" height="1" fill="#000000"/><rect x="149" y="365" width="214" height="1" fill="#A26F2D"/><rect x="363" y="365" width="21" height="1" fill="#000000"/><rect x="128" y="366" width="21" height="1" fill="#000000"/><rect x="149" y="366" width="214" height="1" fill="#A26F2D"/><rect x="363" y="366" width="21" height="1" fill="#000000"/><rect x="128" y="367" width="21" height="1" fill="#000000"/><rect x="149" y="367" width="214" height="1" fill="#A26F2D"/><rect x="363" y="367" width="21" height="1" fill="#000000"/><rect x="128" y="368" width="21" height="1" fill="#000000"/><rect x="149" y="368" width="214" height="1" fill="#A26F2D"/><rect x="363" y="368" width="21" height="1" fill="#000000"/><rect x="128" y="369" width="21" height="1" fill="#000000"/><rect x="149" y="369" width="214" height="1" fill="#A26F2D"/><rect x="363" y="369" width="21" height="1" fill="#000000"/><rect x="128" y="370" width="21" height="1" fill="#000000"/><rect x="149" y="370" width="214" height="1" fill="#A26F2D"/><rect x="363" y="370" width="21" height="1" fill="#000000"/><rect x="128" y="371" width="21" height="1" fill="#000000"/><rect x="149" y="371" width="214" height="1" fill="#A26F2D"/><rect x="363" y="371" width="21" height="1" fill="#000000"/><rect x="128" y="372" width="21" height="1" fill="#000000"/><rect x="149" y="372" width="214" height="1" fill="#A26F2D"/><rect x="363" y="372" width="21" height="1" fill="#000000"/><rect x="128" y="373" width="21" height="1" fill="#000000"/><rect x="149" y="373" width="214" height="1" fill="#A26F2D"/><rect x="363" y="373" width="21" height="1" fill="#000000"/><rect x="128" y="374" width="21" height="1" fill="#000000"/><rect x="149" y="374" width="214" height="1" fill="#A26F2D"/><rect x="363" y="374" width="21" height="1" fill="#000000"/><rect x="128" y="375" width="21" height="1" fill="#000000"/><rect x="149" y="375" width="214" height="1" fill="#A26F2D"/><rect x="363" y="375" width="21" height="1" fill="#000000"/><rect x="128" y="376" width="21" height="1" fill="#000000"/><rect x="149" y="376" width="214" height="1" fill="#A26F2D"/><rect x="363" y="376" width="21" height="1" fill="#000000"/><rect x="128" y="377" width="21" height="1" fill="#000000"/><rect x="149" y="377" width="214" height="1" fill="#A26F2D"/><rect x="363" y="377" width="21" height="1" fill="#000000"/><rect x="128" y="378" width="21" height="1" fill="#000000"/><rect x="149" y="378" width="214" height="1" fill="#A26F2D"/><rect x="363" y="378" width="21" height="1" fill="#000000"/><rect x="128" y="379" width="21" height="1" fill="#000000"/><rect x="149" y="379" width="214" height="1" fill="#A26F2D"/><rect x="363" y="379" width="21" height="1" fill="#000000"/><rect x="128" y="380" width="21" height="1" fill="#000000"/><rect x="149" y="380" width="214" height="1" fill="#A26F2D"/><rect x="363" y="380" width="21" height="1" fill="#000000"/><rect x="128" y="381" width="21" height="1" fill="#000000"/><rect x="149" y="381" width="214" height="1" fill="#A26F2D"/><rect x="363" y="381" width="21" height="1" fill="#000000"/><rect x="128" y="382" width="21" height="1" fill="#000000"/><rect x="149" y="382" width="214" height="1" fill="#A26F2D"/><rect x="363" y="382" width="21" height="1" fill="#000000"/><rect x="128" y="383" width="21" height="1" fill="#000000"/><rect x="149" y="383" width="214" height="1" fill="#A26F2D"/><rect x="363" y="383" width="21" height="1" fill="#000000"/><rect x="107" y="384" width="21" height="1" fill="#000000"/><rect x="128" y="384" width="107" height="1" fill="#A26F2D"/><rect x="299" y="384" width="64" height="1" fill="#A26F2D"/><rect x="363" y="384" width="21" height="1" fill="#000000"/><rect x="107" y="385" width="21" height="1" fill="#000000"/><rect x="128" y="385" width="107" height="1" fill="#A26F2D"/><rect x="299" y="385" width="64" height="1" fill="#A26F2D"/><rect x="363" y="385" width="21" height="1" fill="#000000"/><rect x="107" y="386" width="21" height="1" fill="#000000"/><rect x="128" y="386" width="107" height="1" fill="#A26F2D"/><rect x="299" y="386" width="64" height="1" fill="#A26F2D"/><rect x="363" y="386" width="21" height="1" fill="#000000"/><rect x="107" y="387" width="21" height="1" fill="#000000"/><rect x="128" y="387" width="107" height="1" fill="#A26F2D"/><rect x="299" y="387" width="64" height="1" fill="#A26F2D"/><rect x="363" y="387" width="21" height="1" fill="#000000"/><rect x="107" y="388" width="21" height="1" fill="#000000"/><rect x="128" y="388" width="107" height="1" fill="#A26F2D"/><rect x="299" y="388" width="64" height="1" fill="#A26F2D"/><rect x="363" y="388" width="21" height="1" fill="#000000"/><rect x="107" y="389" width="21" height="1" fill="#000000"/><rect x="128" y="389" width="107" height="1" fill="#A26F2D"/><rect x="299" y="389" width="64" height="1" fill="#A26F2D"/><rect x="363" y="389" width="21" height="1" fill="#000000"/><rect x="107" y="390" width="21" height="1" fill="#000000"/><rect x="128" y="390" width="107" height="1" fill="#A26F2D"/><rect x="299" y="390" width="64" height="1" fill="#A26F2D"/><rect x="363" y="390" width="21" height="1" fill="#000000"/><rect x="107" y="391" width="21" height="1" fill="#000000"/><rect x="128" y="391" width="107" height="1" fill="#A26F2D"/><rect x="299" y="391" width="64" height="1" fill="#A26F2D"/><rect x="363" y="391" width="21" height="1" fill="#000000"/><rect x="107" y="392" width="21" height="1" fill="#000000"/><rect x="128" y="392" width="107" height="1" fill="#A26F2D"/><rect x="299" y="392" width="64" height="1" fill="#A26F2D"/><rect x="363" y="392" width="21" height="1" fill="#000000"/><rect x="107" y="393" width="21" height="1" fill="#000000"/><rect x="128" y="393" width="107" height="1" fill="#A26F2D"/><rect x="299" y="393" width="64" height="1" fill="#A26F2D"/><rect x="363" y="393" width="21" height="1" fill="#000000"/><rect x="107" y="394" width="21" height="1" fill="#000000"/><rect x="128" y="394" width="107" height="1" fill="#A26F2D"/><rect x="299" y="394" width="64" height="1" fill="#A26F2D"/><rect x="363" y="394" width="21" height="1" fill="#000000"/><rect x="107" y="395" width="21" height="1" fill="#000000"/><rect x="128" y="395" width="107" height="1" fill="#A26F2D"/><rect x="299" y="395" width="64" height="1" fill="#A26F2D"/><rect x="363" y="395" width="21" height="1" fill="#000000"/><rect x="107" y="396" width="21" height="1" fill="#000000"/><rect x="128" y="396" width="107" height="1" fill="#A26F2D"/><rect x="299" y="396" width="64" height="1" fill="#A26F2D"/><rect x="363" y="396" width="21" height="1" fill="#000000"/><rect x="107" y="397" width="21" height="1" fill="#000000"/><rect x="128" y="397" width="107" height="1" fill="#A26F2D"/><rect x="299" y="397" width="64" height="1" fill="#A26F2D"/><rect x="363" y="397" width="21" height="1" fill="#000000"/><rect x="107" y="398" width="21" height="1" fill="#000000"/><rect x="128" y="398" width="107" height="1" fill="#A26F2D"/><rect x="299" y="398" width="64" height="1" fill="#A26F2D"/><rect x="363" y="398" width="21" height="1" fill="#000000"/><rect x="107" y="399" width="21" height="1" fill="#000000"/><rect x="128" y="399" width="107" height="1" fill="#A26F2D"/><rect x="299" y="399" width="64" height="1" fill="#A26F2D"/><rect x="363" y="399" width="21" height="1" fill="#000000"/><rect x="107" y="400" width="21" height="1" fill="#000000"/><rect x="128" y="400" width="107" height="1" fill="#A26F2D"/><rect x="299" y="400" width="64" height="1" fill="#A26F2D"/><rect x="363" y="400" width="21" height="1" fill="#000000"/><rect x="107" y="401" width="21" height="1" fill="#000000"/><rect x="128" y="401" width="107" height="1" fill="#A26F2D"/><rect x="299" y="401" width="64" height="1" fill="#A26F2D"/><rect x="363" y="401" width="21" height="1" fill="#000000"/><rect x="107" y="402" width="21" height="1" fill="#000000"/><rect x="128" y="402" width="107" height="1" fill="#A26F2D"/><rect x="299" y="402" width="64" height="1" fill="#A26F2D"/><rect x="363" y="402" width="21" height="1" fill="#000000"/><rect x="107" y="403" width="21" height="1" fill="#000000"/><rect x="128" y="403" width="107" height="1" fill="#A26F2D"/><rect x="299" y="403" width="64" height="1" fill="#A26F2D"/><rect x="363" y="403" width="21" height="1" fill="#000000"/><rect x="107" y="404" width="21" height="1" fill="#000000"/><rect x="128" y="404" width="107" height="1" fill="#A26F2D"/><rect x="299" y="404" width="64" height="1" fill="#A26F2D"/><rect x="363" y="404" width="21" height="1" fill="#000000"/><rect x="107" y="405" width="21" height="1" fill="#000000"/><rect x="128" y="405" width="235" height="1" fill="#A26F2D"/><rect x="363" y="405" width="21" height="1" fill="#000000"/><rect x="107" y="406" width="21" height="1" fill="#000000"/><rect x="128" y="406" width="235" height="1" fill="#A26F2D"/><rect x="363" y="406" width="21" height="1" fill="#000000"/><rect x="107" y="407" width="21" height="1" fill="#000000"/><rect x="128" y="407" width="235" height="1" fill="#A26F2D"/><rect x="363" y="407" width="21" height="1" fill="#000000"/><rect x="107" y="408" width="21" height="1" fill="#000000"/><rect x="128" y="408" width="235" height="1" fill="#A26F2D"/><rect x="363" y="408" width="21" height="1" fill="#000000"/><rect x="107" y="409" width="21" height="1" fill="#000000"/><rect x="128" y="409" width="235" height="1" fill="#A26F2D"/><rect x="363" y="409" width="21" height="1" fill="#000000"/><rect x="107" y="410" width="21" height="1" fill="#000000"/><rect x="128" y="410" width="235" height="1" fill="#A26F2D"/><rect x="363" y="410" width="21" height="1" fill="#000000"/><rect x="107" y="411" width="21" height="1" fill="#000000"/><rect x="128" y="411" width="235" height="1" fill="#A26F2D"/><rect x="363" y="411" width="21" height="1" fill="#000000"/><rect x="107" y="412" width="21" height="1" fill="#000000"/><rect x="128" y="412" width="235" height="1" fill="#A26F2D"/><rect x="363" y="412" width="21" height="1" fill="#000000"/><rect x="107" y="413" width="21" height="1" fill="#000000"/><rect x="128" y="413" width="235" height="1" fill="#A26F2D"/><rect x="363" y="413" width="21" height="1" fill="#000000"/><rect x="107" y="414" width="21" height="1" fill="#000000"/><rect x="128" y="414" width="235" height="1" fill="#A26F2D"/><rect x="363" y="414" width="21" height="1" fill="#000000"/><rect x="107" y="415" width="21" height="1" fill="#000000"/><rect x="128" y="415" width="235" height="1" fill="#A26F2D"/><rect x="363" y="415" width="21" height="1" fill="#000000"/><rect x="107" y="416" width="21" height="1" fill="#000000"/><rect x="128" y="416" width="235" height="1" fill="#A26F2D"/><rect x="363" y="416" width="21" height="1" fill="#000000"/><rect x="107" y="417" width="21" height="1" fill="#000000"/><rect x="128" y="417" width="235" height="1" fill="#A26F2D"/><rect x="363" y="417" width="21" height="1" fill="#000000"/><rect x="107" y="418" width="21" height="1" fill="#000000"/><rect x="128" y="418" width="235" height="1" fill="#A26F2D"/><rect x="363" y="418" width="21" height="1" fill="#000000"/><rect x="107" y="419" width="21" height="1" fill="#000000"/><rect x="128" y="419" width="235" height="1" fill="#A26F2D"/><rect x="363" y="419" width="21" height="1" fill="#000000"/><rect x="107" y="420" width="21" height="1" fill="#000000"/><rect x="128" y="420" width="235" height="1" fill="#A26F2D"/><rect x="363" y="420" width="21" height="1" fill="#000000"/><rect x="107" y="421" width="21" height="1" fill="#000000"/><rect x="128" y="421" width="235" height="1" fill="#A26F2D"/><rect x="363" y="421" width="21" height="1" fill="#000000"/><rect x="107" y="422" width="21" height="1" fill="#000000"/><rect x="128" y="422" width="235" height="1" fill="#A26F2D"/><rect x="363" y="422" width="21" height="1" fill="#000000"/><rect x="107" y="423" width="21" height="1" fill="#000000"/><rect x="128" y="423" width="235" height="1" fill="#A26F2D"/><rect x="363" y="423" width="21" height="1" fill="#000000"/><rect x="107" y="424" width="21" height="1" fill="#000000"/><rect x="128" y="424" width="235" height="1" fill="#A26F2D"/><rect x="363" y="424" width="21" height="1" fill="#000000"/><rect x="107" y="425" width="21" height="1" fill="#000000"/><rect x="128" y="425" width="235" height="1" fill="#A26F2D"/><rect x="363" y="425" width="21" height="1" fill="#000000"/><rect x="107" y="426" width="21" height="1" fill="#000000"/><rect x="128" y="426" width="235" height="1" fill="#A26F2D"/><rect x="363" y="426" width="21" height="1" fill="#000000"/><rect x="107" y="427" width="21" height="1" fill="#000000"/><rect x="128" y="427" width="235" height="1" fill="#A26F2D"/><rect x="363" y="427" width="21" height="1" fill="#000000"/><rect x="107" y="428" width="21" height="1" fill="#000000"/><rect x="128" y="428" width="235" height="1" fill="#A26F2D"/><rect x="363" y="428" width="21" height="1" fill="#000000"/><rect x="107" y="429" width="21" height="1" fill="#000000"/><rect x="128" y="429" width="235" height="1" fill="#A26F2D"/><rect x="363" y="429" width="21" height="1" fill="#000000"/><rect x="107" y="430" width="21" height="1" fill="#000000"/><rect x="128" y="430" width="235" height="1" fill="#A26F2D"/><rect x="363" y="430" width="21" height="1" fill="#000000"/><rect x="107" y="431" width="21" height="1" fill="#000000"/><rect x="128" y="431" width="235" height="1" fill="#A26F2D"/><rect x="363" y="431" width="21" height="1" fill="#000000"/><rect x="107" y="432" width="21" height="1" fill="#000000"/><rect x="128" y="432" width="235" height="1" fill="#A26F2D"/><rect x="363" y="432" width="21" height="1" fill="#000000"/><rect x="107" y="433" width="21" height="1" fill="#000000"/><rect x="128" y="433" width="235" height="1" fill="#A26F2D"/><rect x="363" y="433" width="21" height="1" fill="#000000"/><rect x="107" y="434" width="21" height="1" fill="#000000"/><rect x="128" y="434" width="235" height="1" fill="#A26F2D"/><rect x="363" y="434" width="21" height="1" fill="#000000"/><rect x="107" y="435" width="21" height="1" fill="#000000"/><rect x="128" y="435" width="235" height="1" fill="#A26F2D"/><rect x="363" y="435" width="21" height="1" fill="#000000"/><rect x="107" y="436" width="21" height="1" fill="#000000"/><rect x="128" y="436" width="235" height="1" fill="#A26F2D"/><rect x="363" y="436" width="21" height="1" fill="#000000"/><rect x="107" y="437" width="21" height="1" fill="#000000"/><rect x="128" y="437" width="235" height="1" fill="#A26F2D"/><rect x="363" y="437" width="21" height="1" fill="#000000"/><rect x="107" y="438" width="21" height="1" fill="#000000"/><rect x="128" y="438" width="235" height="1" fill="#A26F2D"/><rect x="363" y="438" width="21" height="1" fill="#000000"/><rect x="107" y="439" width="21" height="1" fill="#000000"/><rect x="128" y="439" width="235" height="1" fill="#A26F2D"/><rect x="363" y="439" width="21" height="1" fill="#000000"/><rect x="107" y="440" width="21" height="1" fill="#000000"/><rect x="128" y="440" width="235" height="1" fill="#A26F2D"/><rect x="363" y="440" width="21" height="1" fill="#000000"/><rect x="107" y="441" width="21" height="1" fill="#000000"/><rect x="128" y="441" width="235" height="1" fill="#A26F2D"/><rect x="363" y="441" width="21" height="1" fill="#000000"/><rect x="107" y="442" width="21" height="1" fill="#000000"/><rect x="128" y="442" width="235" height="1" fill="#A26F2D"/><rect x="363" y="442" width="21" height="1" fill="#000000"/><rect x="107" y="443" width="21" height="1" fill="#000000"/><rect x="128" y="443" width="235" height="1" fill="#A26F2D"/><rect x="363" y="443" width="21" height="1" fill="#000000"/><rect x="107" y="444" width="21" height="1" fill="#000000"/><rect x="128" y="444" width="235" height="1" fill="#A26F2D"/><rect x="363" y="444" width="21" height="1" fill="#000000"/><rect x="107" y="445" width="21" height="1" fill="#000000"/><rect x="128" y="445" width="235" height="1" fill="#A26F2D"/><rect x="363" y="445" width="21" height="1" fill="#000000"/><rect x="107" y="446" width="21" height="1" fill="#000000"/><rect x="128" y="446" width="235" height="1" fill="#A26F2D"/><rect x="363" y="446" width="21" height="1" fill="#000000"/><rect x="107" y="447" width="21" height="1" fill="#000000"/><rect x="128" y="447" width="235" height="1" fill="#A26F2D"/><rect x="363" y="447" width="21" height="1" fill="#000000"/><rect x="128" y="448" width="43" height="1" fill="#000000"/><rect x="171" y="448" width="192" height="1" fill="#A26F2D"/><rect x="363" y="448" width="21" height="1" fill="#000000"/><rect x="128" y="449" width="43" height="1" fill="#000000"/><rect x="171" y="449" width="192" height="1" fill="#A26F2D"/><rect x="363" y="449" width="21" height="1" fill="#000000"/><rect x="128" y="450" width="43" height="1" fill="#000000"/><rect x="171" y="450" width="192" height="1" fill="#A26F2D"/><rect x="363" y="450" width="21" height="1" fill="#000000"/><rect x="128" y="451" width="43" height="1" fill="#000000"/><rect x="171" y="451" width="192" height="1" fill="#A26F2D"/><rect x="363" y="451" width="21" height="1" fill="#000000"/><rect x="128" y="452" width="43" height="1" fill="#000000"/><rect x="171" y="452" width="192" height="1" fill="#A26F2D"/><rect x="363" y="452" width="21" height="1" fill="#000000"/><rect x="128" y="453" width="43" height="1" fill="#000000"/><rect x="171" y="453" width="192" height="1" fill="#A26F2D"/><rect x="363" y="453" width="21" height="1" fill="#000000"/><rect x="128" y="454" width="43" height="1" fill="#000000"/><rect x="171" y="454" width="192" height="1" fill="#A26F2D"/><rect x="363" y="454" width="21" height="1" fill="#000000"/><rect x="128" y="455" width="43" height="1" fill="#000000"/><rect x="171" y="455" width="192" height="1" fill="#A26F2D"/><rect x="363" y="455" width="21" height="1" fill="#000000"/><rect x="128" y="456" width="43" height="1" fill="#000000"/><rect x="171" y="456" width="192" height="1" fill="#A26F2D"/><rect x="363" y="456" width="21" height="1" fill="#000000"/><rect x="128" y="457" width="43" height="1" fill="#000000"/><rect x="171" y="457" width="192" height="1" fill="#A26F2D"/><rect x="363" y="457" width="21" height="1" fill="#000000"/><rect x="128" y="458" width="43" height="1" fill="#000000"/><rect x="171" y="458" width="192" height="1" fill="#A26F2D"/><rect x="363" y="458" width="21" height="1" fill="#000000"/><rect x="128" y="459" width="43" height="1" fill="#000000"/><rect x="171" y="459" width="192" height="1" fill="#A26F2D"/><rect x="363" y="459" width="21" height="1" fill="#000000"/><rect x="128" y="460" width="43" height="1" fill="#000000"/><rect x="171" y="460" width="192" height="1" fill="#A26F2D"/><rect x="363" y="460" width="21" height="1" fill="#000000"/><rect x="128" y="461" width="43" height="1" fill="#000000"/><rect x="171" y="461" width="192" height="1" fill="#A26F2D"/><rect x="363" y="461" width="21" height="1" fill="#000000"/><rect x="128" y="462" width="43" height="1" fill="#000000"/><rect x="171" y="462" width="192" height="1" fill="#A26F2D"/><rect x="363" y="462" width="21" height="1" fill="#000000"/><rect x="128" y="463" width="43" height="1" fill="#000000"/><rect x="171" y="463" width="192" height="1" fill="#A26F2D"/><rect x="363" y="463" width="21" height="1" fill="#000000"/><rect x="128" y="464" width="43" height="1" fill="#000000"/><rect x="171" y="464" width="192" height="1" fill="#A26F2D"/><rect x="363" y="464" width="21" height="1" fill="#000000"/><rect x="128" y="465" width="43" height="1" fill="#000000"/><rect x="171" y="465" width="192" height="1" fill="#A26F2D"/><rect x="363" y="465" width="21" height="1" fill="#000000"/><rect x="128" y="466" width="43" height="1" fill="#000000"/><rect x="171" y="466" width="192" height="1" fill="#A26F2D"/><rect x="363" y="466" width="21" height="1" fill="#000000"/><rect x="128" y="467" width="43" height="1" fill="#000000"/><rect x="171" y="467" width="192" height="1" fill="#A26F2D"/><rect x="363" y="467" width="21" height="1" fill="#000000"/><rect x="128" y="468" width="43" height="1" fill="#000000"/><rect x="171" y="468" width="192" height="1" fill="#A26F2D"/><rect x="363" y="468" width="21" height="1" fill="#000000"/><rect x="171" y="469" width="64" height="1" fill="#000000"/><rect x="235" y="469" width="106" height="1" fill="#A26F2D"/><rect x="341" y="469" width="22" height="1" fill="#000000"/><rect x="171" y="470" width="64" height="1" fill="#000000"/><rect x="235" y="470" width="106" height="1" fill="#A26F2D"/><rect x="341" y="470" width="22" height="1" fill="#000000"/><rect x="171" y="471" width="64" height="1" fill="#000000"/><rect x="235" y="471" width="106" height="1" fill="#A26F2D"/><rect x="341" y="471" width="22" height="1" fill="#000000"/><rect x="171" y="472" width="64" height="1" fill="#000000"/><rect x="235" y="472" width="106" height="1" fill="#A26F2D"/><rect x="341" y="472" width="22" height="1" fill="#000000"/><rect x="171" y="473" width="64" height="1" fill="#000000"/><rect x="235" y="473" width="106" height="1" fill="#A26F2D"/><rect x="341" y="473" width="22" height="1" fill="#000000"/><rect x="171" y="474" width="64" height="1" fill="#000000"/><rect x="235" y="474" width="106" height="1" fill="#A26F2D"/><rect x="341" y="474" width="22" height="1" fill="#000000"/><rect x="171" y="475" width="64" height="1" fill="#000000"/><rect x="235" y="475" width="106" height="1" fill="#A26F2D"/><rect x="341" y="475" width="22" height="1" fill="#000000"/><rect x="171" y="476" width="64" height="1" fill="#000000"/><rect x="235" y="476" width="106" height="1" fill="#A26F2D"/><rect x="341" y="476" width="22" height="1" fill="#000000"/><rect x="171" y="477" width="64" height="1" fill="#000000"/><rect x="235" y="477" width="106" height="1" fill="#A26F2D"/><rect x="341" y="477" width="22" height="1" fill="#000000"/><rect x="171" y="478" width="64" height="1" fill="#000000"/><rect x="235" y="478" width="106" height="1" fill="#A26F2D"/><rect x="341" y="478" width="22" height="1" fill="#000000"/><rect x="171" y="479" width="64" height="1" fill="#000000"/><rect x="235" y="479" width="106" height="1" fill="#A26F2D"/><rect x="341" y="479" width="22" height="1" fill="#000000"/><rect x="171" y="480" width="64" height="1" fill="#000000"/><rect x="235" y="480" width="106" height="1" fill="#A26F2D"/><rect x="341" y="480" width="22" height="1" fill="#000000"/><rect x="171" y="481" width="64" height="1" fill="#000000"/><rect x="235" y="481" width="106" height="1" fill="#A26F2D"/><rect x="341" y="481" width="22" height="1" fill="#000000"/><rect x="171" y="482" width="64" height="1" fill="#000000"/><rect x="235" y="482" width="106" height="1" fill="#A26F2D"/><rect x="341" y="482" width="22" height="1" fill="#000000"/><rect x="171" y="483" width="64" height="1" fill="#000000"/><rect x="235" y="483" width="106" height="1" fill="#A26F2D"/><rect x="341" y="483" width="22" height="1" fill="#000000"/><rect x="171" y="484" width="64" height="1" fill="#000000"/><rect x="235" y="484" width="106" height="1" fill="#A26F2D"/><rect x="341" y="484" width="22" height="1" fill="#000000"/><rect x="171" y="485" width="64" height="1" fill="#000000"/><rect x="235" y="485" width="106" height="1" fill="#A26F2D"/><rect x="341" y="485" width="22" height="1" fill="#000000"/><rect x="171" y="486" width="64" height="1" fill="#000000"/><rect x="235" y="486" width="106" height="1" fill="#A26F2D"/><rect x="341" y="486" width="22" height="1" fill="#000000"/><rect x="171" y="487" width="64" height="1" fill="#000000"/><rect x="235" y="487" width="106" height="1" fill="#A26F2D"/><rect x="341" y="487" width="22" height="1" fill="#000000"/><rect x="171" y="488" width="64" height="1" fill="#000000"/><rect x="235" y="488" width="106" height="1" fill="#A26F2D"/><rect x="341" y="488" width="22" height="1" fill="#000000"/><rect x="171" y="489" width="64" height="1" fill="#000000"/><rect x="235" y="489" width="106" height="1" fill="#A26F2D"/><rect x="341" y="489" width="22" height="1" fill="#000000"/><rect x="171" y="490" width="64" height="1" fill="#000000"/><rect x="235" y="490" width="106" height="1" fill="#A26F2D"/><rect x="341" y="490" width="22" height="1" fill="#000000"/><rect x="213" y="491" width="128" height="1" fill="#000000"/><rect x="213" y="492" width="128" height="1" fill="#000000"/><rect x="213" y="493" width="128" height="1" fill="#000000"/><rect x="213" y="494" width="128" height="1" fill="#000000"/><rect x="213" y="495" width="128" height="1" fill="#000000"/><rect x="213" y="496" width="128" height="1" fill="#000000"/><rect x="213" y="497" width="128" height="1" fill="#000000"/><rect x="213" y="498" width="128" height="1" fill="#000000"/><rect x="213" y="499" width="128" height="1" fill="#000000"/><rect x="213" y="500" width="128" height="1" fill="#000000"/><rect x="213" y="501" width="128" height="1" fill="#000000"/><rect x="213" y="502" width="128" height="1" fill="#000000"/><rect x="213" y="503" width="128" height="1" fill="#000000"/><rect x="213" y="504" width="128" height="1" fill="#000000"/><rect x="213" y="505" width="128" height="1" fill="#000000"/><rect x="213" y="506" width="128" height="1" fill="#000000"/><rect x="213" y="507" width="128" height="1" fill="#000000"/><rect x="213" y="508" width="128" height="1" fill="#000000"/><rect x="213" y="509" width="128" height="1" fill="#000000"/><rect x="213" y="510" width="128" height="1" fill="#000000"/><rect x="213" y="511" width="128" height="1" fill="#000000"/></svg>