<svg xmlns="http://www.w3.org/2000/svg" viewBox="0 0 512 512" width="512" height="512" shape-rendering="crispEdges"><rect x="235" y="427" width="64" height="1" fill="#A26F2D"/><rect x="235" y="428" width="64" height="1" fill="#A26F2D"/><rect x="235" y="429" width="64" height="1" fill="#A26F2D"/><rect x="235" y="430" width="64" height="1" fill="#A26F2D"/><rect x="235" y="431" width="64" height="1" fill="#A26F2D"/><rect x="235" y="432" width="64" height="1" fill="#A26F2D"/><rect x="235" y="433" width="64" height="1" fill="#A26F2D"/><rect x="235" y="434" width="64" height="1" fill="#A26F2D"/><rect x="235" y="435" width="64" height="1" fill="#A26F2D"/><rect x="235" y="436" width="64" height="1" fill="#A26F2D"/><rect x="235" y="437" width="64" height="1" fill="#A26F2D"/><rect x="235" y="438" width="64" height="1" fill="#A26F2D"/><rect x="235" y="439" width="64" height="1" fill="#A26F2D"/><rect x="235" y="440" width="64" height="1" fill="#A26F2D"/><rect x="235" y="441" width="64" height="1" fill="#A26F2D"/><rect x="235" y="442" width="64" height="1" fill="#A26F2D"/><rect x="235" y="443" width="64" height="1" fill="#A26F2D"/><rect x="235" y="444" width="64" height="1" fill="#A26F2D"/><rect x="235" y="445" width="64" height="1" fill="#A26F2D"/><rect x="235" y="446" width="64" height="1" fill="#A26F2D"/><rect x="235" y="447" width="64" height="1" fill="#A26F2D"/><rect x="235" y="448" width="64" height="1" fill="#A26F2D"/><rect x="235" y="449" width="64" height="1" fill="#A26F2D"/><rect x="235" y="450" width="64" height="1" fill="#A26F2D"/><rect x="235" y="451" width="64" height="1" fill="#A26F2D"/><rect x="235" y="452" width="64" height="1" fill="#A26F2D"/><rect x="235" y="453" width="64" height="1" fill="#A26F2D"/><rect x="235" y="454" width="64" height="1" fill="#A26F2D"/><rect x="235" y="455" width="64" height="1" fill="#A26F2D"/><rect x="235" y="456" width="64" height="1" fill="#A26F2D"/><rect x="235" y="457" width="64" height="1" fill="#A26F2D"/><rect x="235" y="458" width="64" height="1" fill="#A26F2D"/><rect x="235" y="459" width="64" height="1" fill="#A26F2D"/><rect x="235" y="460" width="64" height="1" fill="#A26F2D"/><rect x="235" y="461" width="64" height="1" fill="#A26F2D"/><rect x="235" y="462" width="64" height="1" fill="#A26F2D"/><rect x="235" y="463" width="64" height="1" fill="#A26F2D"/><rect x="235" y="464" width="64" height="1" fill="#A26F2D"/><rect x="235" y="465" width="64" height="1" fill="#A26F2D"/><rect x="235" y="466" width="64" height="1" fill="#A26F2D"/><rect x="235" y="467" width="64" height="1" fill="#A26F2D"/><rect x="235" y="468" width="64" height="1" fill="#A26F2D"/><rect x="235" y="469" width="21" height="1" fill="#000000"/><rect x="256" y="469" width="21" height="1" fill="#A26F2D"/><rect x="277" y="469" width="22" height="1" fill="#000000"/><rect x="235" y="470" width="21" height="1" fill="#000000"/><rect x="256" y="470" width="21" height="1" fill="#A26F2D"/><rect x="277" y="470" width="22" height="1" fill="#000000"/><rect x="235" y="471" width="21" height="1" fill="#000000"/><rect x="256" y="471" width="21" height="1" fill="#A26F2D"/><rect x="277" y="471" width="22" height="1" fill="#000000"/><rect x="235" y="472" width="21" height="1" fill="#000000"/><rect x="256" y="472" width="21" height="1" fill="#A26F2D"/><rect x="277" y="472" width="22" height="1" fill="#000000"/><rect x="235" y="473" width="21" height="1" fill="#000000"/><rect x="256" y="473" width="21" height="1" fill="#A26F2D"/><rect x="277" y="473" width="22" height="1" fill="#000000"/><rect x="235" y="474" width="21" height="1" fill="#000000"/><rect x="256" y="474" width="21" height="1" fill="#A26F2D"/><rect x="277" y="474" width="22" height="1" fill="#000000"/><rect x="235" y="475" width="21" height="1" fill="#000000"/><rect x="256" y="475" width="21" height="1" fill="#A26F2D"/><rect x="277" y="475" width="22" height="1" fill="#000000"/><rect x="235" y="476" width="21" height="1" fill="#000000"/><rect x="256" y="476" width="21" height="1" fill="#A26F2D"/><rect x="277" y="476" width="22" height="1" fill="#000000"/><rect x="235" y="477" width="21" height="1" fill="#000000"/><rect x="256" y="477" width="21" height="1" fill="#A26F2D"/><rect x="277" y="477" width="22" height="1" fill="#000000"/><rect x="235" y="478" width="21" height="1" fill="#000000"/><rect x="256" y="478" width="21" height="1" fill="#A26F2D"/><rect x="277" y="478" width="22" height="1" fill="#000000"/><rect x="235" y="479" width="21" height="1" fill="#000000"/><rect x="256" y="479" width="21" height="1" fill="#A26F2D"/><rect x="277" y="479" width="22" height="1" fill="#000000"/><rect x="235" y="480" width="21" height="1" fill="#000000"/><rect x="256" y="480" width="21" height="1" fill="#A26F2D"/><rect x="277" y="480" width="22" height="1" fill="#000000"/><rect x="235" y="481" width="21" height="1" fill="#000000"/><rect x="256" y="481" width="21" height="1" fill="#A26F2D"/><rect x="277" y="481" width="22" height="1" fill="#000000"/><rect x="235" y="482" width="21" height="1" fill="#000000"/><rect x="256" y="482" width="21" height="1" fill="#A26F2D"/><rect x="277" y="482" width="22" height="1" fill="#000000"/><rect x="235" y="483" width="21" height="1" fill="#000000"/><rect x="256" y="483" width="21" height="1" fill="#A26F2D"/><rect x="277" y="483" width="22" height="1" fill="#000000"/><rect x="235" y="484" width="21" height="1" fill="#000000"/><rect x="256" y="484" width="21" height="1" fill="#A26F2D"/><rect x="277" y="484" width="22" height="1" fill="#000000"/><rect x="235" y="485" width="21" height="1" fill="#000000"/><rect x="256" y="485" width="21" height="1" fill="#A26F2D"/><rect x="277" y="485" width="22" height="1" fill="#000000"/><rect x="235" y="486" width="21" height="1" fill="#000000"/><rect x="256" y="486" width="21" height="1" fill="#A26F2D"/><rect x="277" y="486" width="22" height="1" fill="#000000"/><rect x="235" y="487" width="21" height="1" fill="#000000"/><rect x="256" y="487" width="21" height="1" fill="#A26F2D"/><rect x="277" y="487" width="22" height="1" fill="#000000"/><rect x="235" y="488" width="21" height="1" fill="#000000"/><rect x="256" y="488" width="21" height="1" fill="#A26F2D"/><rect x="277" y="488" width="22" height="1" fill="#000000"/><rect x="235" y="489" width="21" height="1" fill="#000000"/><rect x="256" y="489" width="21" height="1" fill="#A26F2D"/><rect x="277" y="489" width="22" height="1" fill="#000000"/><rect x="235" y="490" width="21" height="1" fill="#000000"/><rect x="256" y="490" width="21" height="1" fill="#A26F2D"/><rect x="277" y="490" width="22" height="1" fill="#000000"/><rect x="256" y="491" width="21" height="1" fill="#000000"/><rect x="256" y="492" width="21" height="1" fill="#000000"/><rect x="256" y="493" width="21" height="1" fill="#000000"/><rect x="256" y="494" width="21" height="1" fill="#000000"/><rect x="256" y="495" width="21" height="1" fill="#000000"/><rect x="256" y="496" width="21" height="1" fill="#000000"/><rect x="256" y="497" width="21" height="1" fill="#000000"/><rect x="256" y="498" width="21" height="1" fill="#000000"/><rect x="256" y="499" width="21" height="1" fill="#000000"/><rect x="256" y="500" width="21" height="1" fill="#000000"/><rect x="256" y="501" width="21" height="1" fill="#000000"/><rect x="256" y="502" width="21" height="1" fill="#000000"/><rect x="256" y="503" width="21" height="1" fill="#000000"/><rect x="256" y="504" width="21" height="1" fill="#000000"/><rect x="256" y="505" width="21" height="1" fill="#000000"/><rect x="256" y="506" width="21" height="1" fill="#000000"/><rect x="256" y="507" width="21" height="1" fill="#000000"/><rect x="256" y="508" width="21" height="1" fill="#000000"/><rect x="256" y="509" width="21" height="1" fill="#000000"/><rect x="256" y="510" width="21" height="1" fill="#000000"/><rect x="256" y="511" width="21" height="1" fill="#000000"/></svg>