<svg xmlns="http://www.w3.org/2000/svg" viewBox="0 0 512 512" width="512" height="512" shape-rendering="crispEdges"><rect x="128" y="320" width="21" height="1" fill="#000000"/><rect x="149" y="320" width="22" height="1" fill="#A56E2D"/><rect x="128" y="321" width="21" height="1" fill="#000000"/><rect x="149" y="321" width="22" height="1" fill="#A56E2D"/><rect x="128" y="322" width="21" height="1" fill="#000000"/><rect x="149" y="322" width="22" height="1" fill="#A56E2D"/><rect x="128" y="323" width="21" height="1" fill="#000000"/><rect x="149" y="323" width="22" height="1" fill="#A56E2D"/><rect x="128" y="324" width="21" height="1" fill="#000000"/><rect x="149" y="324" width="22" height="1" fill="#A56E2D"/><rect x="128" y="325" width="21" height="1" fill="#000000"/><rect x="149" y="325" width="22" height="1" fill="#A56E2D"/><rect x="128" y="326" width="21" height="1" fill="#000000"/><rect x="149" y="326" width="22" height="1" fill="#A56E2D"/><rect x="128" y="327" width="21" height="1" fill="#000000"/><rect x="149" y="327" width="22" height="1" fill="#A56E2D"/><rect x="128" y="328" width="21" height="1" fill="#000000"/><rect x="149" y="328" width="22" height="1" fill="#A56E2D"/><rect x="128" y="329" width="21" height="1" fill="#000000"/><rect x="149" y="329" width="22" height="1" fill="#A56E2D"/><rect x="128" y="330" width="21" height="1" fill="#000000"/><rect x="149" y="330" width="22" height="1" fill="#A56E2D"/><rect x="128" y="331" width="21" height="1" fill="#000000"/><rect x="149" y="331" width="22" height="1" fill="#A56E2D"/><rect x="128" y="332" width="21" height="1" fill="#000000"/><rect x="149" y="332" width="22" height="1" fill="#A56E2D"/><rect x="128" y="333" width="21" height="1" fill="#000000"/><rect x="149" y="333" width="22" height="1" fill="#A56E2D"/><rect x="128" y="334" width="21" height="1" fill="#000000"/><rect x="149" y="334" width="22" height="1" fill="#A56E2D"/><rect x="128" y="335" width="21" height="1" fill="#000000"/><rect x="149" y="335" width="22" height="1" fill="#A56E2D"/><rect x="128" y="336" width="21" height="1" fill="#000000"/><rect x="149" y="336" width="22" height="1" fill="#A56E2D"/><rect x="128" y="337" width="21" height="1" fill="#000000"/><rect x="149" y="337" width="22" height="1" fill="#A56E2D"/><rect x="128" y="338" width="21" height="1" fill="#000000"/><rect x="149" y="338" width="22" height="1" fill="#A56E2D"/><rect x="128" y="339" width="21" height="1" fill="#000000"/><rect x="149" y="339" width="22" height="1" fill="#A56E2D"/><rect x="128" y="340" width="21" height="1" fill="#000000"/><rect x="149" y="340" width="22" height="1" fill="#A56E2D"/><rect x="128" y="341" width="21" height="1" fill="#000000"/><rect x="149" y="341" width="22" height="1" fill="#A56E2D"/><rect x="128" y="342" width="21" height="1" fill="#000000"/><rect x="149" y="342" width="22" height="1" fill="#A56E2D"/><rect x="128" y="343" width="21" height="1" fill="#000000"/><rect x="149" y="343" width="22" height="1" fill="#A56E2D"/><rect x="128" y="344" width="21" height="1" fill="#000000"/><rect x="149" y="344" width="22" height="1" fill="#A56E2D"/><rect x="128" y="345" width="21" height="1" fill="#000000"/><rect x="149" y="345" width="22" height="1" fill="#A56E2D"/><rect x="128" y="346" width="21" height="1" fill="#000000"/><rect x="149" y="346" width="22" height="1" fill="#A56E2D"/><rect x="128" y="347" width="21" height="1" fill="#000000"/><rect x="149" y="347" width="22" height="1" fill="#A56E2D"/><rect x="128" y="348" width="21" height="1" fill="#000000"/><rect x="149" y="348" width="22" height="1" fill="#A56E2D"/><rect x="128" y="349" width="21" height="1" fill="#000000"/><rect x="149" y="349" width="22" height="1" fill="#A56E2D"/><rect x="128" y="350" width="21" height="1" fill="#000000"/><rect x="149" y="350" width="22" height="1" fill="#A56E2D"/><rect x="128" y="351" width="21" height="1" fill="#000000"/><rect x="149" y="351" width="22" height="1" fill="#A56E2D"/><rect x="128" y="352" width="21" height="1" fill="#000000"/><rect x="149" y="352" width="22" height="1" fill="#A56E2D"/><rect x="128" y="353" width="21" height="1" fill="#000000"/><rect x="149" y="353" width="22" height="1" fill="#A56E2D"/><rect x="128" y="354" width="21" height="1" fill="#000000"/><rect x="149" y="354" width="22" height="1" fill="#A56E2D"/><rect x="128" y="355" width="21" height="1" fill="#000000"/><rect x="149" y="355" width="22" height="1" fill="#A56E2D"/><rect x="128" y="356" width="21" height="1" fill="#000000"/><rect x="149" y="356" width="22" height="1" fill="#A56E2D"/><rect x="128" y="357" width="21" height="1" fill="#000000"/><rect x="149" y="357" width="22" height="1" fill="#A56E2D"/><rect x="128" y="358" width="21" height="1" fill="#000000"/><rect x="149" y="358" width="22" height="1" fill="#A56E2D"/><rect x="128" y="359" width="21" height="1" fill="#000000"/><rect x="149" y="359" width="22" height="1" fill="#A56E2D"/><rect x="128" y="360" width="21" height="1" fill="#000000"/><rect x="149" y="360" width="22" height="1" fill="#A56E2D"/><rect x="128" y="361" width="21" height="1" fill="#000000"/><rect x="149" y="361" width="22" height="1" fill="#A56E2D"/><rect x="128" y="362" width="21" height="1" fill="#000000"/><rect x="149" y="362" width="22" height="1" fill="#A56E2D"/><rect x="128" y="363" width="21" height="1" fill="#000000"/><rect x="149" y="363" width="43" height="1" fill="#A56E2D"/><rect x="320" y="363" width="21" height="1" fill="#A56E2D"/><rect x="341" y="363" width="22" height="1" fill="#000000"/><rect x="128" y="364" width="21" height="1" fill="#000000"/><rect x="149" y="364" width="43" height="1" fill="#A56E2D"/><rect x="320" y="364" width="21" height="1" fill="#A56E2D"/><rect x="341" y="364" width="22" height="1" fill="#000000"/><rect x="128" y="365" width="21" height="1" fill="#000000"/><rect x="149" y="365" width="43" height="1" fill="#A56E2D"/><rect x="320" y="365" width="21" height="1" fill="#A56E2D"/><rect x="341" y="365" width="22" height="1" fill="#000000"/><rect x="128" y="366" width="21" height="1" fill="#000000"/><rect x="149" y="366" width="43" height="1" fill="#A56E2D"/><rect x="320" y="366" width="21" height="1" fill="#A56E2D"/><rect x="341" y="366" width="22" height="1" fill="#000000"/><rect x="128" y="367" width="21" height="1" fill="#000000"/><rect x="149" y="367" width="43" height="1" fill="#A56E2D"/><rect x="320" y="367" width="21" height="1" fill="#A56E2D"/><rect x="341" y="367" width="22" height="1" fill="#000000"/><rect x="128" y="368" width="21" height="1" fill="#000000"/><rect x="149" y="368" width="43" height="1" fill="#A56E2D"/><rect x="320" y="368" width="21" height="1" fill="#A56E2D"/><rect x="341" y="368" width="22" height="1" fill="#000000"/><rect x="128" y="369" width="21" height="1" fill="#000000"/><rect x="149" y="369" width="43" height="1" fill="#A56E2D"/><rect x="320" y="369" width="21" height="1" fill="#A56E2D"/><rect x="341" y="369" width="22" height="1" fill="#000000"/><rect x="128" y="370" width="21" height="1" fill="#000000"/><rect x="149" y="370" width="43" height="1" fill="#A56E2D"/><rect x="320" y="370" width="21" height="1" fill="#A56E2D"/><rect x="341" y="370" width="22" height="1" fill="#000000"/><rect x="128" y="371" width="21" height="1" fill="#000000"/><rect x="149" y="371" width="43" height="1" fill="#A56E2D"/><rect x="320" y="371" width="21" height="1" fill="#A56E2D"/><rect x="341" y="371" width="22" height="1" fill="#000000"/><rect x="128" y="372" width="21" height="1" fill="#000000"/><rect x="149" y="372" width="43" height="1" fill="#A56E2D"/><rect x="320" y="372" width="21" height="1" fill="#A56E2D"/><rect x="341" y="372" width="22" height="1" fill="#000000"/><rect x="128" y="373" width="21" height="1" fill="#000000"/><rect x="149" y="373" width="43" height="1" fill="#A56E2D"/><rect x="320" y="373" width="21" height="1" fill="#A56E2D"/><rect x="341" y="373" width="22" height="1" fill="#000000"/><rect x="128" y="374" width="21" height="1" fill="#000000"/><rect x="149" y="374" width="43" height="1" fill="#A56E2D"/><rect x="320" y="374" width="21" height="1" fill="#A56E2D"/><rect x="341" y="374" width="22" height="1" fill="#000000"/><rect x="128" y="375" width="21" height="1" fill="#000000"/><rect x="149" y="375" width="43" height="1" fill="#A56E2D"/><rect x="320" y="375" width="21" height="1" fill="#A56E2D"/><rect x="341" y="375" width="22" height="1" fill="#000000"/><rect x="128" y="376" width="21" height="1" fill="#000000"/><rect x="149" y="376" width="43" height="1" fill="#A56E2D"/><rect x="320" y="376" width="21" height="1" fill="#A56E2D"/><rect x="341" y="376" width="22" height="1" fill="#000000"/><rect x="128" y="377" width="21" height="1" fill="#000000"/><rect x="149" y="377" width="43" height="1" fill="#A56E2D"/><rect x="320" y="377" width="21" height="1" fill="#A56E2D"/><rect x="341" y="377" width="22" height="1" fill="#000000"/><rect x="128" y="378" width="21" height="1" fill="#000000"/><rect x="149" y="378" width="43" height="1" fill="#A56E2D"/><rect x="320" y="378" width="21" height="1" fill="#A56E2D"/><rect x="341" y="378" width="22" height="1" fill="#000000"/><rect x="128" y="379" width="21" height="1" fill="#000000"/><rect x="149" y="379" width="43" height="1" fill="#A56E2D"/><rect x="320" y="379" width="21" height="1" fill="#A56E2D"/><rect x="341" y="379" width="22" height="1" fill="#000000"/><rect x="128" y="380" width="21" height="1" fill="#000000"/><rect x="149" y="380" width="43" height="1" fill="#A56E2D"/><rect x="320" y="380" width="21" height="1" fill="#A56E2D"/><rect x="341" y="380" width="22" height="1" fill="#000000"/><rect x="128" y="381" width="21" height="1" fill="#000000"/><rect x="149" y="381" width="43" height="1" fill="#A56E2D"/><rect x="320" y="381" width="21" height="1" fill="#A56E2D"/><rect x="341" y="381" width="22" height="1" fill="#000000"/><rect x="128" y="382" width="21" height="1" fill="#000000"/><rect x="149" y="382" width="43" height="1" fill="#A56E2D"/><rect x="320" y="382" width="21" height="1" fill="#A56E2D"/><rect x="341" y="382" width="22" height="1" fill="#000000"/><rect x="128" y="383" width="21" height="1" fill="#000000"/><rect x="149" y="383" width="43" height="1" fill="#A56E2D"/><rect x="320" y="383" width="21" height="1" fill="#A56E2D"/><rect x="341" y="383" width="22" height="1" fill="#000000"/><rect x="128" y="384" width="21" height="1" fill="#000000"/><rect x="149" y="384" width="43" height="1" fill="#A56E2D"/><rect x="320" y="384" width="21" height="1" fill="#A56E2D"/><rect x="341" y="384" width="22" height="1" fill="#000000"/><rect x="128" y="385" width="21" height="1" fill="#000000"/><rect x="149" y="385" width="43" height="1" fill="#A56E2D"/><rect x="320" y="385" width="21" height="1" fill="#A56E2D"/><rect x="341" y="385" width="22" height="1" fill="#000000"/><rect x="128" y="386" width="21" height="1" fill="#000000"/><rect x="149" y="386" width="43" height="1" fill="#A56E2D"/><rect x="320" y="386" width="21" height="1" fill="#A56E2D"/><rect x="341" y="386" width="22" height="1" fill="#000000"/><rect x="128" y="387" width="21" height="1" fill="#000000"/><rect x="149" y="387" width="43" height="1" fill="#A56E2D"/><rect x="320" y="387" width="21" height="1" fill="#A56E2D"/><rect x="341" y="387" width="22" height="1" fill="#000000"/><rect x="128" y="388" width="21" height="1" fill="#000000"/><rect x="149" y="388" width="43" height="1" fill="#A56E2D"/><rect x="320" y="388" width="21" height="1" fill="#A56E2D"/><rect x="341" y="388" width="22" height="1" fill="#000000"/><rect x="128" y="389" width="21" height="1" fill="#000000"/><rect x="149" y="389" width="43" height="1" fill="#A56E2D"/><rect x="320" y="389" width="21" height="1" fill="#A56E2D"/><rect x="341" y="389" width="22" height="1" fill="#000000"/><rect x="128" y="390" width="21" height="1" fill="#000000"/><rect x="149" y="390" width="43" height="1" fill="#A56E2D"/><rect x="320" y="390" width="21" height="1" fill="#A56E2D"/><rect x="341" y="390" width="22" height="1" fill="#000000"/><rect x="128" y="391" width="21" height="1" fill="#000000"/><rect x="149" y="391" width="43" height="1" fill="#A56E2D"/><rect x="320" y="391" width="21" height="1" fill="#A56E2D"/><rect x="341" y="391" width="22" height="1" fill="#000000"/><rect x="128" y="392" width="21" height="1" fill="#000000"/><rect x="149" y="392" width="43" height="1" fill="#A56E2D"/><rect x="320" y="392" width="21" height="1" fill="#A56E2D"/><rect x="341" y="392" width="22" height="1" fill="#000000"/><rect x="128" y="393" width="21" height="1" fill="#000000"/><rect x="149" y="393" width="43" height="1" fill="#A56E2D"/><rect x="320" y="393" width="21" height="1" fill="#A56E2D"/><rect x="341" y="393" width="22" height="1" fill="#000000"/><rect x="128" y="394" width="21" height="1" fill="#000000"/><rect x="149" y="394" width="43" height="1" fill="#A56E2D"/><rect x="320" y="394" width="21" height="1" fill="#A56E2D"/><rect x="341" y="394" width="22" height="1" fill="#000000"/><rect x="128" y="395" width="21" height="1" fill="#000000"/><rect x="149" y="395" width="43" height="1" fill="#A56E2D"/><rect x="320" y="395" width="21" height="1" fill="#A56E2D"/><rect x="341" y="395" width="22" height="1" fill="#000000"/><rect x="128" y="396" width="21" height="1" fill="#000000"/><rect x="149" y="396" width="43" height="1" fill="#A56E2D"/><rect x="320" y="396" width="21" height="1" fill="#A56E2D"/><rect x="341" y="396" width="22" height="1" fill="#000000"/><rect x="128" y="397" width="21" height="1" fill="#000000"/><rect x="149" y="397" width="43" height="1" fill="#A56E2D"/><rect x="320" y="397" width="21" height="1" fill="#A56E2D"/><rect x="341" y="397" width="22" height="1" fill="#000000"/><rect x="128" y="398" width="21" height="1" fill="#000000"/><rect x="149" y="398" width="43" height="1" fill="#A56E2D"/><rect x="320" y="398" width="21" height="1" fill="#A56E2D"/><rect x="341" y="398" width="22" height="1" fill="#000000"/><rect x="128" y="399" width="21" height="1" fill="#000000"/><rect x="149" y="399" width="43" height="1" fill="#A56E2D"/><rect x="320" y="399" width="21" height="1" fill="#A56E2D"/><rect x="341" y="399" width="22" height="1" fill="#000000"/><rect x="128" y="400" width="21" height="1" fill="#000000"/><rect x="149" y="400" width="43" height="1" fill="#A56E2D"/><rect x="320" y="400" width="21" height="1" fill="#A56E2D"/><rect x="341" y="400" width="22" height="1" fill="#000000"/><rect x="128" y="401" width="21" height="1" fill="#000000"/><rect x="149" y="401" width="43" height="1" fill="#A56E2D"/><rect x="320" y="401" width="21" height="1" fill="#A56E2D"/><rect x="341" y="401" width="22" height="1" fill="#000000"/><rect x="128" y="402" width="21" height="1" fill="#000000"/><rect x="149" y="402" width="43" height="1" fill="#A56E2D"/><rect x="320" y="402" width="21" height="1" fill="#A56E2D"/><rect x="341" y="402" width="22" height="1" fill="#000000"/><rect x="128" y="403" width="21" height="1" fill="#000000"/><rect x="149" y="403" width="43" height="1" fill="#A56E2D"/><rect x="320" y="403" width="21" height="1" fill="#A56E2D"/><rect x="341" y="403" width="22" height="1" fill="#000000"/><rect x="128" y="404" width="21" height="1" fill="#000000"/><rect x="149" y="404" width="43" height="1" fill="#A56E2D"/><rect x="320" y="404" width="21" height="1" fill="#A56E2D"/><rect x="341" y="404" width="22" height="1" fill="#000000"/><rect x="171" y="405" width="21" height="1" fill="#A56E2D"/><rect x="192" y="405" width="21" height="1" fill="#A26F2D"/><rect x="320" y="405" width="21" height="1" fill="#A56E2D"/><rect x="341" y="405" width="22" height="1" fill="#000000"/><rect x="171" y="406" width="21" height="1" fill="#A56E2D"/><rect x="192" y="406" width="21" height="1" fill="#A26F2D"/><rect x="320" y="406" width="21" height="1" fill="#A56E2D"/><rect x="341" y="406" width="22" height="1" fill="#000000"/><rect x="171" y="407" width="21" height="1" fill="#A56E2D"/><rect x="192" y="407" width="21" height="1" fill="#A26F2D"/><rect x="320" y="407" width="21" height="1" fill="#A56E2D"/><rect x="341" y="407" width="22" height="1" fill="#000000"/><rect x="171" y="408" width="21" height="1" fill="#A56E2D"/><rect x="192" y="408" width="21" height="1" fill="#A26F2D"/><rect x="320" y="408" width="21" height="1" fill="#A56E2D"/><rect x="341" y="408" width="22" height="1" fill="#000000"/><rect x="171" y="409" width="21" height="1" fill="#A56E2D"/><rect x="192" y="409" width="21" height="1" fill="#A26F2D"/><rect x="320" y="409" width="21" height="1" fill="#A56E2D"/><rect x="341" y="409" width="22" height="1" fill="#000000"/><rect x="171" y="410" width="21" height="1" fill="#A56E2D"/><rect x="192" y="410" width="21" height="1" fill="#A26F2D"/><rect x="320" y="410" width="21" height="1" fill="#A56E2D"/><rect x="341" y="410" width="22" height="1" fill="#000000"/><rect x="171" y="411" width="21" height="1" fill="#A56E2D"/><rect x="192" y="411" width="21" height="1" fill="#A26F2D"/><rect x="320" y="411" width="21" height="1" fill="#A56E2D"/><rect x="341" y="411" width="22" height="1" fill="#000000"/><rect x="171" y="412" width="21" height="1" fill="#A56E2D"/><rect x="192" y="412" width="21" height="1" fill="#A26F2D"/><rect x="320" y="412" width="21" height="1" fill="#A56E2D"/><rect x="341" y="412" width="22" height="1" fill="#000000"/><rect x="171" y="413" width="21" height="1" fill="#A56E2D"/><rect x="192" y="413" width="21" height="1" fill="#A26F2D"/><rect x="320" y="413" width="21" height="1" fill="#A56E2D"/><rect x="341" y="413" width="22" height="1" fill="#000000"/><rect x="171" y="414" width="21" height="1" fill="#A56E2D"/><rect x="192" y="414" width="21" height="1" fill="#A26F2D"/><rect x="320" y="414" width="21" height="1" fill="#A56E2D"/><rect x="341" y="414" width="22" height="1" fill="#000000"/><rect x="171" y="415" width="21" height="1" fill="#A56E2D"/><rect x="192" y="415" width="21" height="1" fill="#A26F2D"/><rect x="320" y="415" width="21" height="1" fill="#A56E2D"/><rect x="341" y="415" width="22" height="1" fill="#000000"/><rect x="171" y="416" width="21" height="1" fill="#A56E2D"/><rect x="192" y="416" width="21" height="1" fill="#A26F2D"/><rect x="320" y="416" width="21" height="1" fill="#A56E2D"/><rect x="341" y="416" width="22" height="1" fill="#000000"/><rect x="171" y="417" width="21" height="1" fill="#A56E2D"/><rect x="192" y="417" width="21" height="1" fill="#A26F2D"/><rect x="320" y="417" width="21" height="1" fill="#A56E2D"/><rect x="341" y="417" width="22" height="1" fill="#000000"/><rect x="171" y="418" width="21" height="1" fill="#A56E2D"/><rect x="192" y="418" width="21" height="1" fill="#A26F2D"/><rect x="320" y="418" width="21" height="1" fill="#A56E2D"/><rect x="341" y="418" width="22" height="1" fill="#000000"/><rect x="171" y="419" width="21" height="1" fill="#A56E2D"/><rect x="192" y="419" width="21" height="1" fill="#A26F2D"/><rect x="320" y="419" width="21" height="1" fill="#A56E2D"/><rect x="341" y="419" width="22" height="1" fill="#000000"/><rect x="171" y="420" width="21" height="1" fill="#A56E2D"/><rect x="192" y="420" width="21" height="1" fill="#A26F2D"/><rect x="320" y="420" width="21" height="1" fill="#A56E2D"/><rect x="341" y="420" width="22" height="1" fill="#000000"/><rect x="171" y="421" width="21" height="1" fill="#A56E2D"/><rect x="192" y="421" width="21" height="1" fill="#A26F2D"/><rect x="320" y="421" width="21" height="1" fill="#A56E2D"/><rect x="341" y="421" width="22" height="1" fill="#000000"/><rect x="171" y="422" width="21" height="1" fill="#A56E2D"/><rect x="192" y="422" width="21" height="1" fill="#A26F2D"/><rect x="320" y="422" width="21" height="1" fill="#A56E2D"/><rect x="341" y="422" width="22" height="1" fill="#000000"/><rect x="171" y="423" width="21" height="1" fill="#A56E2D"/><rect x="192" y="423" width="21" height="1" fill="#A26F2D"/><rect x="320" y="423" width="21" height="1" fill="#A56E2D"/><rect x="341" y="423" width="22" height="1" fill="#000000"/><rect x="171" y="424" width="21" height="1" fill="#A56E2D"/><rect x="192" y="424" width="21" height="1" fill="#A26F2D"/><rect x="320" y="424" width="21" height="1" fill="#A56E2D"/><rect x="341" y="424" width="22" height="1" fill="#000000"/><rect x="171" y="425" width="21" height="1" fill="#A56E2D"/><rect x="192" y="425" width="21" height="1" fill="#A26F2D"/><rect x="320" y="425" width="21" height="1" fill="#A56E2D"/><rect x="341" y="425" width="22" height="1" fill="#000000"/><rect x="171" y="426" width="21" height="1" fill="#A56E2D"/><rect x="192" y="426" width="21" height="1" fill="#A26F2D"/><rect x="320" y="426" width="21" height="1" fill="#A56E2D"/><rect x="341" y="426" width="22" height="1" fill="#000000"/><rect x="192" y="427" width="128" height="1" fill="#A56E2D"/><rect x="320" y="427" width="21" height="1" fill="#000000"/><rect x="192" y="428" width="128" height="1" fill="#A56E2D"/><rect x="320" y="428" width="21" height="1" fill="#000000"/><rect x="192" y="429" width="128" height="1" fill="#A56E2D"/><rect x="320" y="429" width="21" height="1" fill="#000000"/><rect x="192" y="430" width="128" height="1" fill="#A56E2D"/><rect x="320" y="430" width="21" height="1" fill="#000000"/><rect x="192" y="431" width="128" height="1" fill="#A56E2D"/><rect x="320" y="431" width="21" height="1" fill="#000000"/><rect x="192" y="432" width="128" height="1" fill="#A56E2D"/><rect x="320" y="432" width="21" height="1" fill="#000000"/><rect x="192" y="433" width="128" height="1" fill="#A56E2D"/><rect x="320" y="433" width="21" height="1" fill="#000000"/><rect x="192" y="434" width="128" height="1" fill="#A56E2D"/><rect x="320" y="434" width="21" height="1" fill="#000000"/><rect x="192" y="435" width="128" height="1" fill="#A56E2D"/><rect x="320" y="435" width="21" height="1" fill="#000000"/><rect x="192" y="436" width="128" height="1" fill="#A56E2D"/><rect x="320" y="436" width="21" height="1" fill="#000000"/><rect x="192" y="437" width="128" height="1" fill="#A56E2D"/><rect x="320" y="437" width="21" height="1" fill="#000000"/><rect x="192" y="438" width="128" height="1" fill="#A56E2D"/><rect x="320" y="438" width="21" height="1" fill="#000000"/><rect x="192" y="439" width="128" height="1" fill="#A56E2D"/><rect x="320" y="439" width="21" height="1" fill="#000000"/><rect x="192" y="440" width="128" height="1" fill="#A56E2D"/><rect x="320" y="440" width="21" height="1" fill="#000000"/><rect x="192" y="441" width="128" height="1" fill="#A56E2D"/><rect x="320" y="441" width="21" height="1" fill="#000000"/><rect x="192" y="442" width="128" height="1" fill="#A56E2D"/><rect x="320" y="442" width="21" height="1" fill="#000000"/><rect x="192" y="443" width="128" height="1" fill="#A56E2D"/><rect x="320" y="443" width="21" height="1" fill="#000000"/><rect x="192" y="444" width="128" height="1" fill="#A56E2D"/><rect x="320" y="444" width="21" height="1" fill="#000000"/><rect x="192" y="445" width="128" height="1" fill="#A56E2D"/><rect x="320" y="445" width="21" height="1" fill="#000000"/><rect x="192" y="446" width="128" height="1" fill="#A56E2D"/><rect x="320" y="446" width="21" height="1" fill="#000000"/><rect x="192" y="447" width="128" height="1" fill="#A56E2D"/><rect x="320" y="447" width="21" height="1" fill="#000000"/><rect x="213" y="448" width="22" height="1" fill="#000000"/><rect x="235" y="448" width="64" height="1" fill="#A56E2D"/><rect x="299" y="448" width="21" height="1" fill="#000000"/><rect x="213" y="449" width="22" height="1" fill="#000000"/><rect x="235" y="449" width="64" height="1" fill="#A56E2D"/><rect x="299" y="449" width="21" height="1" fill="#000000"/><rect x="213" y="450" width="22" height="1" fill="#000000"/><rect x="235" y="450" width="64" height="1" fill="#A56E2D"/><rect x="299" y="450" width="21" height="1" fill="#000000"/><rect x="213" y="451" width="22" height="1" fill="#000000"/><rect x="235" y="451" width="64" height="1" fill="#A56E2D"/><rect x="299" y="451" width="21" height="1" fill="#000000"/><rect x="213" y="452" width="22" height="1" fill="#000000"/><rect x="235" y="452" width="64" height="1" fill="#A56E2D"/><rect x="299" y="452" width="21" height="1" fill="#000000"/><rect x="213" y="453" width="22" height="1" fill="#000000"/><rect x="235" y="453" width="64" height="1" fill="#A56E2D"/><rect x="299" y="453" width="21" height="1" fill="#000000"/><rect x="213" y="454" width="22" height="1" fill="#000000"/><rect x="235" y="454" width="64" height="1" fill="#A56E2D"/><rect x="299" y="454" width="21" height="1" fill="#000000"/><rect x="213" y="455" width="22" height="1" fill="#000000"/><rect x="235" y="455" width="64" height="1" fill="#A56E2D"/><rect x="299" y="455" width="21" height="1" fill="#000000"/><rect x="213" y="456" width="22" height="1" fill="#000000"/><rect x="235" y="456" width="64" height="1" fill="#A56E2D"/><rect x="299" y="456" width="21" height="1" fill="#000000"/><rect x="213" y="457" width="22" height="1" fill="#000000"/><rect x="235" y="457" width="64" height="1" fill="#A56E2D"/><rect x="299" y="457" width="21" height="1" fill="#000000"/><rect x="213" y="458" width="22" height="1" fill="#000000"/><rect x="235" y="458" width="64" height="1" fill="#A56E2D"/><rect x="299" y="458" width="21" height="1" fill="#000000"/><rect x="213" y="459" width="22" height="1" fill="#000000"/><rect x="235" y="459" width="64" height="1" fill="#A56E2D"/><rect x="299" y="459" width="21" height="1" fill="#000000"/><rect x="213" y="460" width="22" height="1" fill="#000000"/><rect x="235" y="460" width="64" height="1" fill="#A56E2D"/><rect x="299" y="460" width="21" height="1" fill="#000000"/><rect x="213" y="461" width="22" height="1" fill="#000000"/><rect x="235" y="461" width="64" height="1" fill="#A56E2D"/><rect x="299" y="461" width="21" height="1" fill="#000000"/><rect x="213" y="462" width="22" height="1" fill="#000000"/><rect x="235" y="462" width="64" height="1" fill="#A56E2D"/><rect x="299" y="462" width="21" height="1" fill="#000000"/><rect x="213" y="463" width="22" height="1" fill="#000000"/><rect x="235" y="463" width="64" height="1" fill="#A56E2D"/><rect x="299" y="463" width="21" height="1" fill="#000000"/><rect x="213" y="464" width="22" height="1" fill="#000000"/><rect x="235" y="464" width="64" height="1" fill="#A56E2D"/><rect x="299" y="464" width="21" height="1" fill="#000000"/><rect x="213" y="465" width="22" height="1" fill="#000000"/><rect x="235" y="465" width="64" height="1" fill="#A56E2D"/><rect x="299" y="465" width="21" height="1" fill="#000000"/><rect x="213" y="466" width="22" height="1" fill="#000000"/><rect x="235" y="466" width="64" height="1" fill="#A56E2D"/><rect x="299" y="466" width="21" height="1" fill="#000000"/><rect x="213" y="467" width="22" height="1" fill="#000000"/><rect x="235" y="467" width="64" height="1" fill="#A56E2D"/><rect x="299" y="467" width="21" height="1" fill="#000000"/><rect x="213" y="468" width="22" height="1" fill="#000000"/><rect x="235" y="468" width="64" height="1" fill="#A56E2D"/><rect x="299" y="468" width="21" height="1" fill="#000000"/><rect x="235" y="469" width="64" height="1" fill="#000000"/><rect x="235" y="470" width="64" height="1" fill="#000000"/><rect x="235" y="471" width="64" height="1" fill="#000000"/><rect x="235" y="472" width="64" height="1" fill="#000000"/><rect x="235" y="473" width="64" height="1" fill="#000000"/><rect x="235" y="474" width="64" height="1" fill="#000000"/><rect x="235" y="475" width="64" height="1" fill="#000000"/><rect x="235" y="476" width="64" height="1" fill="#000000"/><rect x="235" y="477" width="64" height="1" fill="#000000"/><rect x="235" y="478" width="64" height="1" fill="#000000"/><rect x="235" y="479" width="64" height="1" fill="#000000"/><rect x="235" y="480" width="64" height="1" fill="#000000"/><rect x="235" y="481" width="64" height="1" fill="#000000"/><rect x="235" y="482" width="64" height="1" fill="#000000"/><rect x="235" y="483" width="64" height="1" fill="#000000"/><rect x="235" y="484" width="64" height="1" fill="#000000"/><rect x="235" y="485" width="64" height="1" fill="#000000"/><rect x="235" y="486" width="64" height="1" fill="#000000"/><rect x="235" y="487" width="64" height="1" fill="#000000"/><rect x="235" y="488" width="64" height="1" fill="#000000"/><rect x="235" y="489" width="64" height="1" fill="#000000"/><rect x="235" y="490" width="64" height="1" fill="#000000"/></svg>