<svg xmlns="http://www.w3.org/2000/svg" viewBox="0 0 512 512" width="512" height="512" shape-rendering="crispEdges"><rect x="213" y="363" width="107" height="1" fill="#51360B"/><rect x="213" y="364" width="107" height="1" fill="#51360B"/><rect x="213" y="365" width="107" height="1" fill="#51360B"/><rect x="213" y="366" width="107" height="1" fill="#51360B"/><rect x="213" y="367" width="107" height="1" fill="#51360B"/><rect x="213" y="368" width="107" height="1" fill="#51360B"/><rect x="213" y="369" width="107" height="1" fill="#51360B"/><rect x="213" y="370" width="107" height="1" fill="#51360B"/><rect x="213" y="371" width="107" height="1" fill="#51360B"/><rect x="213" y="372" width="107" height="1" fill="#51360B"/><rect x="213" y="373" width="107" height="1" fill="#51360B"/><rect x="213" y="374" width="107" height="1" fill="#51360B"/><rect x="213" y="375" width="107" height="1" fill="#51360B"/><rect x="213" y="376" width="107" height="1" fill="#51360B"/><rect x="213" y="377" width="107" height="1" fill="#51360B"/><rect x="213" y="378" width="107" height="1" fill="#51360B"/><rect x="213" y="379" width="107" height="1" fill="#51360B"/><rect x="213" y="380" width="107" height="1" fill="#51360B"/><rect x="213" y="381" width="107" height="1" fill="#51360B"/><rect x="213" y="382" width="107" height="1" fill="#51360B"/><rect x="213" y="383" width="107" height="1" fill="#51360B"/><rect x="213" y="384" width="22" height="1" fill="#51360B"/><rect x="299" y="384" width="21" height="1" fill="#51360B"/><rect x="213" y="385" width="22" height="1" fill="#51360B"/><rect x="299" y="385" width="21" height="1" fill="#51360B"/><rect x="213" y="386" width="22" height="1" fill="#51360B"/><rect x="299" y="386" width="21" height="1" fill="#51360B"/><rect x="213" y="387" width="22" height="1" fill="#51360B"/><rect x="299" y="387" width="21" height="1" fill="#51360B"/><rect x="213" y="388" width="22" height="1" fill="#51360B"/><rect x="299" y="388" width="21" height="1" fill="#51360B"/><rect x="213" y="389" width="22" height="1" fill="#51360B"/><rect x="299" y="389" width="21" height="1" fill="#51360B"/><rect x="213" y="390" width="22" height="1" fill="#51360B"/><rect x="299" y="390" width="21" height="1" fill="#51360B"/><rect x="213" y="391" width="22" height="1" fill="#51360B"/><rect x="299" y="391" width="21" height="1" fill="#51360B"/><rect x="213" y="392" width="22" height="1" fill="#51360B"/><rect x="299" y="392" width="21" height="1" fill="#51360B"/><rect x="213" y="393" width="22" height="1" fill="#51360B"/><rect x="299" y="393" width="21" height="1" fill="#51360B"/><rect x="213" y="394" width="22" height="1" fill="#51360B"/><rect x="299" y="394" width="21" height="1" fill="#51360B"/><rect x="213" y="395" width="22" height="1" fill="#51360B"/><rect x="299" y="395" width="21" height="1" fill="#51360B"/><rect x="213" y="396" width="22" height="1" fill="#51360B"/><rect x="299" y="396" width="21" height="1" fill="#51360B"/><rect x="213" y="397" width="22" height="1" fill="#51360B"/><rect x="299" y="397" width="21" height="1" fill="#51360B"/><rect x="213" y="398" width="22" height="1" fill="#51360B"/><rect x="299" y="398" width="21" height="1" fill="#51360B"/><rect x="213" y="399" width="22" height="1" fill="#51360B"/><rect x="299" y="399" width="21" height="1" fill="#51360B"/><rect x="213" y="400" width="22" height="1" fill="#51360B"/><rect x="299" y="400" width="21" height="1" fill="#51360B"/><rect x="213" y="401" width="22" height="1" fill="#51360B"/><rect x="299" y="401" width="21" height="1" fill="#51360B"/><rect x="213" y="402" width="22" height="1" fill="#51360B"/><rect x="299" y="402" width="21" height="1" fill="#51360B"/><rect x="213" y="403" width="22" height="1" fill="#51360B"/><rect x="299" y="403" width="21" height="1" fill="#51360B"/><rect x="213" y="404" width="22" height="1" fill="#51360B"/><rect x="299" y="404" width="21" height="1" fill="#51360B"/><rect x="213" y="405" width="107" height="1" fill="#51360B"/><rect x="213" y="406" width="107" height="1" fill="#51360B"/><rect x="213" y="407" width="107" height="1" fill="#51360B"/><rect x="213" y="408" width="107" height="1" fill="#51360B"/><rect x="213" y="409" width="107" height="1" fill="#51360B"/><rect x="213" y="410" width="107" height="1" fill="#51360B"/><rect x="213" y="411" width="107" height="1" fill="#51360B"/><rect x="213" y="412" width="107" height="1" fill="#51360B"/><rect x="213" y="413" width="107" height="1" fill="#51360B"/><rect x="213" y="414" width="107" height="1" fill="#51360B"/><rect x="213" y="415" width="107" height="1" fill="#51360B"/><rect x="213" y="416" width="107" height="1" fill="#51360B"/><rect x="213" y="417" width="107" height="1" fill="#51360B"/><rect x="213" y="418" width="107" height="1" fill="#51360B"/><rect x="213" y="419" width="107" height="1" fill="#51360B"/><rect x="213" y="420" width="107" height="1" fill="#51360B"/><rect x="213" y="421" width="107" height="1" fill="#51360B"/><rect x="213" y="422" width="107" height="1" fill="#51360B"/><rect x="213" y="423" width="107" height="1" fill="#51360B"/><rect x="213" y="424" width="107" height="1" fill="#51360B"/><rect x="213" y="425" width="107" height="1" fill="#51360B"/><rect x="213" y="426" width="107" height="1" fill="#51360B"/><rect x="235" y="427" width="64" height="1" fill="#51360B"/><rect x="235" y="428" width="64" height="1" fill="#51360B"/><rect x="235" y="429" width="64" height="1" fill="#51360B"/><rect x="235" y="430" width="64" height="1" fill="#51360B"/><rect x="235" y="431" width="64" height="1" fill="#51360B"/><rect x="235" y="432" width="64" height="1" fill="#51360B"/><rect x="235" y="433" width="64" height="1" fill="#51360B"/><rect x="235" y="434" width="64" height="1" fill="#51360B"/><rect x="235" y="435" width="64" height="1" fill="#51360B"/><rect x="235" y="436" width="64" height="1" fill="#51360B"/><rect x="235" y="437" width="64" height="1" fill="#51360B"/><rect x="235" y="438" width="64" height="1" fill="#51360B"/><rect x="235" y="439" width="64" height="1" fill="#51360B"/><rect x="235" y="440" width="64" height="1" fill="#51360B"/><rect x="235" y="441" width="64" height="1" fill="#51360B"/><rect x="235" y="442" width="64" height="1" fill="#51360B"/><rect x="235" y="443" width="64" height="1" fill="#51360B"/><rect x="235" y="444" width="64" height="1" fill="#51360B"/><rect x="235" y="445" width="64" height="1" fill="#51360B"/><rect x="235" y="446" width="64" height="1" fill="#51360B"/><rect x="235" y="447" width="64" height="1" fill="#51360B"/><rect x="235" y="448" width="64" height="1" fill="#51360B"/><rect x="235" y="449" width="64" height="1" fill="#51360B"/><rect x="235" y="450" width="64" height="1" fill="#51360B"/><rect x="235" y="451" width="64" height="1" fill="#51360B"/><rect x="235" y="452" width="64" height="1" fill="#51360B"/><rect x="235" y="453" width="64" height="1" fill="#51360B"/><rect x="235" y="454" width="64" height="1" fill="#51360B"/><rect x="235" y="455" width="64" height="1" fill="#51360B"/><rect x="235" y="456" width="64" height="1" fill="#51360B"/><rect x="235" y="457" width="64" height="1" fill="#51360B"/><rect x="235" y="458" width="64" height="1" fill="#51360B"/><rect x="235" y="459" width="64" height="1" fill="#51360B"/><rect x="235" y="460" width="64" height="1" fill="#51360B"/><rect x="235" y="461" width="64" height="1" fill="#51360B"/><rect x="235" y="462" width="64" height="1" fill="#51360B"/><rect x="235" y="463" width="64" height="1" fill="#51360B"/><rect x="235" y="464" width="64" height="1" fill="#51360B"/><rect x="235" y="465" width="64" height="1" fill="#51360B"/><rect x="235" y="466" width="64" height="1" fill="#51360B"/><rect x="235" y="467" width="64" height="1" fill="#51360B"/><rect x="235" y="468" width="64" height="1" fill="#51360B"/><rect x="235" y="469" width="64" height="1" fill="#000000"/><rect x="235" y="470" width="64" height="1" fill="#000000"/><rect x="235" y="471" width="64" height="1" fill="#000000"/><rect x="235" y="472" width="64" height="1" fill="#000000"/><rect x="235" y="473" width="64" height="1" fill="#000000"/><rect x="235" y="474" width="64" height="1" fill="#000000"/><rect x="235" y="475" width="64" height="1" fill="#000000"/><rect x="235" y="476" width="64" height="1" fill="#000000"/><rect x="235" y="477" width="64" height="1" fill="#000000"/><rect x="235" y="478" width="64" height="1" fill="#000000"/><rect x="235" y="479" width="64" height="1" fill="#000000"/><rect x="235" y="480" width="64" height="1" fill="#000000"/><rect x="235" y="481" width="64" height="1" fill="#000000"/><rect x="235" y="482" width="64" height="1" fill="#000000"/><rect x="235" y="483" width="64" height="1" fill="#000000"/><rect x="235" y="484" width="64" height="1" fill="#000000"/><rect x="235" y="485" width="64" height="1" fill="#000000"/><rect x="235" y="486" width="64" height="1" fill="#000000"/><rect x="235" y="487" width="64" height="1" fill="#000000"/><rect x="235" y="488" width="64" height="1" fill="#000000"/><rect x="235" y="489" width="64" height="1" fill="#000000"/><rect x="235" y="490" width="64" height="1" fill="#000000"/></svg>