<svg xmlns="http://www.w3.org/2000/svg" viewBox="0 0 512 512" width="512" height="512" shape-rendering="crispEdges"><rect x="128" y="320" width="43" height="1" fill="#000000"/><rect x="128" y="321" width="43" height="1" fill="#000000"/><rect x="128" y="322" width="43" height="1" fill="#000000"/><rect x="128" y="323" width="43" height="1" fill="#000000"/><rect x="128" y="324" width="43" height="1" fill="#000000"/><rect x="128" y="325" width="43" height="1" fill="#000000"/><rect x="128" y="326" width="43" height="1" fill="#000000"/><rect x="128" y="327" width="43" height="1" fill="#000000"/><rect x="128" y="328" width="43" height="1" fill="#000000"/><rect x="128" y="329" width="43" height="1" fill="#000000"/><rect x="128" y="330" width="43" height="1" fill="#000000"/><rect x="128" y="331" width="43" height="1" fill="#000000"/><rect x="128" y="332" width="43" height="1" fill="#000000"/><rect x="128" y="333" width="43" height="1" fill="#000000"/><rect x="128" y="334" width="43" height="1" fill="#000000"/><rect x="128" y="335" width="43" height="1" fill="#000000"/><rect x="128" y="336" width="43" height="1" fill="#000000"/><rect x="128" y="337" width="43" height="1" fill="#000000"/><rect x="128" y="338" width="43" height="1" fill="#000000"/><rect x="128" y="339" width="43" height="1" fill="#000000"/><rect x="128" y="340" width="43" height="1" fill="#000000"/><rect x="128" y="341" width="85" height="1" fill="#000000"/><rect x="320" y="341" width="43" height="1" fill="#000000"/><rect x="128" y="342" width="85" height="1" fill="#000000"/><rect x="320" y="342" width="43" height="1" fill="#000000"/><rect x="128" y="343" width="85" height="1" fill="#000000"/><rect x="320" y="343" width="43" height="1" fill="#000000"/><rect x="128" y="344" width="85" height="1" fill="#000000"/><rect x="320" y="344" width="43" height="1" fill="#000000"/><rect x="128" y="345" width="85" height="1" fill="#000000"/><rect x="320" y="345" width="43" height="1" fill="#000000"/><rect x="128" y="346" width="85" height="1" fill="#000000"/><rect x="320" y="346" width="43" height="1" fill="#000000"/><rect x="128" y="347" width="85" height="1" fill="#000000"/><rect x="320" y="347" width="43" height="1" fill="#000000"/><rect x="128" y="348" width="85" height="1" fill="#000000"/><rect x="320" y="348" width="43" height="1" fill="#000000"/><rect x="128" y="349" width="85" height="1" fill="#000000"/><rect x="320" y="349" width="43" height="1" fill="#000000"/><rect x="128" y="350" width="85" height="1" fill="#000000"/><rect x="320" y="350" width="43" height="1" fill="#000000"/><rect x="128" y="351" width="85" height="1" fill="#000000"/><rect x="320" y="351" width="43" height="1" fill="#000000"/><rect x="128" y="352" width="85" height="1" fill="#000000"/><rect x="320" y="352" width="43" height="1" fill="#000000"/><rect x="128" y="353" width="85" height="1" fill="#000000"/><rect x="320" y="353" width="43" height="1" fill="#000000"/><rect x="128" y="354" width="85" height="1" fill="#000000"/><rect x="320" y="354" width="43" height="1" fill="#000000"/><rect x="128" y="355" width="85" height="1" fill="#000000"/><rect x="320" y="355" width="43" height="1" fill="#000000"/><rect x="128" y="356" width="85" height="1" fill="#000000"/><rect x="320" y="356" width="43" height="1" fill="#000000"/><rect x="128" y="357" width="85" height="1" fill="#000000"/><rect x="320" y="357" width="43" height="1" fill="#000000"/><rect x="128" y="358" width="85" height="1" fill="#000000"/><rect x="320" y="358" width="43" height="1" fill="#000000"/><rect x="128" y="359" width="85" height="1" fill="#000000"/><rect x="320" y="359" width="43" height="1" fill="#000000"/><rect x="128" y="360" width="85" height="1" fill="#000000"/><rect x="320" y="360" width="43" height="1" fill="#000000"/><rect x="128" y="361" width="85" height="1" fill="#000000"/><rect x="320" y="361" width="43" height="1" fill="#000000"/><rect x="128" y="362" width="85" height="1" fill="#000000"/><rect x="320" y="362" width="43" height="1" fill="#000000"/><rect x="128" y="363" width="235" height="1" fill="#000000"/><rect x="128" y="364" width="235" height="1" fill="#000000"/><rect x="128" y="365" width="235" height="1" fill="#000000"/><rect x="128" y="366" width="235" height="1" fill="#000000"/><rect x="128" y="367" width="235" height="1" fill="#000000"/><rect x="128" y="368" width="235" height="1" fill="#000000"/><rect x="128" y="369" width="235" height="1" fill="#000000"/><rect x="128" y="370" width="235" height="1" fill="#000000"/><rect x="128" y="371" width="235" height="1" fill="#000000"/><rect x="128" y="372" width="235" height="1" fill="#000000"/><rect x="128" y="373" width="235" height="1" fill="#000000"/><rect x="128" y="374" width="235" height="1" fill="#000000"/><rect x="128" y="375" width="235" height="1" fill="#000000"/><rect x="128" y="376" width="235" height="1" fill="#000000"/><rect x="128" y="377" width="235" height="1" fill="#000000"/><rect x="128" y="378" width="235" height="1" fill="#000000"/><rect x="128" y="379" width="235" height="1" fill="#000000"/><rect x="128" y="380" width="235" height="1" fill="#000000"/><rect x="128" y="381" width="235" height="1" fill="#000000"/><rect x="128" y="382" width="235" height="1" fill="#000000"/><rect x="128" y="383" width="235" height="1" fill="#000000"/><rect x="128" y="384" width="107" height="1" fill="#000000"/><rect x="235" y="384" width="64" height="1" fill="#692F09"/><rect x="299" y="384" width="64" height="1" fill="#000000"/><rect x="128" y="385" width="107" height="1" fill="#000000"/><rect x="235" y="385" width="64" height="1" fill="#692F09"/><rect x="299" y="385" width="64" height="1" fill="#000000"/><rect x="128" y="386" width="107" height="1" fill="#000000"/><rect x="235" y="386" width="64" height="1" fill="#692F09"/><rect x="299" y="386" width="64" height="1" fill="#000000"/><rect x="128" y="387" width="107" height="1" fill="#000000"/><rect x="235" y="387" width="64" height="1" fill="#692F09"/><rect x="299" y="387" width="64" height="1" fill="#000000"/><rect x="128" y="388" width="107" height="1" fill="#000000"/><rect x="235" y="388" width="64" height="1" fill="#692F09"/><rect x="299" y="388" width="64" height="1" fill="#000000"/><rect x="128" y="389" width="107" height="1" fill="#000000"/><rect x="235" y="389" width="64" height="1" fill="#692F09"/><rect x="299" y="389" width="64" height="1" fill="#000000"/><rect x="128" y="390" width="107" height="1" fill="#000000"/><rect x="235" y="390" width="64" height="1" fill="#692F09"/><rect x="299" y="390" width="64" height="1" fill="#000000"/><rect x="128" y="391" width="107" height="1" fill="#000000"/><rect x="235" y="391" width="64" height="1" fill="#692F09"/><rect x="299" y="391" width="64" height="1" fill="#000000"/><rect x="128" y="392" width="107" height="1" fill="#000000"/><rect x="235" y="392" width="64" height="1" fill="#692F09"/><rect x="299" y="392" width="64" height="1" fill="#000000"/><rect x="128" y="393" width="107" height="1" fill="#000000"/><rect x="235" y="393" width="64" height="1" fill="#692F09"/><rect x="299" y="393" width="64" height="1" fill="#000000"/><rect x="128" y="394" width="107" height="1" fill="#000000"/><rect x="235" y="394" width="64" height="1" fill="#692F09"/><rect x="299" y="394" width="64" height="1" fill="#000000"/><rect x="128" y="395" width="107" height="1" fill="#000000"/><rect x="235" y="395" width="64" height="1" fill="#692F09"/><rect x="299" y="395" width="64" height="1" fill="#000000"/><rect x="128" y="396" width="107" height="1" fill="#000000"/><rect x="235" y="396" width="64" height="1" fill="#692F09"/><rect x="299" y="396" width="64" height="1" fill="#000000"/><rect x="128" y="397" width="107" height="1" fill="#000000"/><rect x="235" y="397" width="64" height="1" fill="#692F09"/><rect x="299" y="397" width="64" height="1" fill="#000000"/><rect x="128" y="398" width="107" height="1" fill="#000000"/><rect x="235" y="398" width="64" height="1" fill="#692F09"/><rect x="299" y="398" width="64" height="1" fill="#000000"/><rect x="128" y="399" width="107" height="1" fill="#000000"/><rect x="235" y="399" width="64" height="1" fill="#692F09"/><rect x="299" y="399" width="64" height="1" fill="#000000"/><rect x="128" y="400" width="107" height="1" fill="#000000"/><rect x="235" y="400" width="64" height="1" fill="#692F09"/><rect x="299" y="400" width="64" height="1" fill="#000000"/><rect x="128" y="401" width="107" height="1" fill="#000000"/><rect x="235" y="401" width="64" height="1" fill="#692F09"/><rect x="299" y="401" width="64" height="1" fill="#000000"/><rect x="128" y="402" width="107" height="1" fill="#000000"/><rect x="235" y="402" width="64" height="1" fill="#692F09"/><rect x="299" y="402" width="64" height="1" fill="#000000"/><rect x="128" y="403" width="107" height="1" fill="#000000"/><rect x="235" y="403" width="64" height="1" fill="#692F09"/><rect x="299" y="403" width="64" height="1" fill="#000000"/><rect x="128" y="404" width="107" height="1" fill="#000000"/><rect x="235" y="404" width="64" height="1" fill="#692F09"/><rect x="299" y="404" width="64" height="1" fill="#000000"/><rect x="149" y="405" width="214" height="1" fill="#000000"/><rect x="149" y="406" width="214" height="1" fill="#000000"/><rect x="149" y="407" width="214" height="1" fill="#000000"/><rect x="149" y="408" width="214" height="1" fill="#000000"/><rect x="149" y="409" width="214" height="1" fill="#000000"/><rect x="149" y="410" width="214" height="1" fill="#000000"/><rect x="149" y="411" width="214" height="1" fill="#000000"/><rect x="149" y="412" width="214" height="1" fill="#000000"/><rect x="149" y="413" width="214" height="1" fill="#000000"/><rect x="149" y="414" width="214" height="1" fill="#000000"/><rect x="149" y="415" width="214" height="1" fill="#000000"/><rect x="149" y="416" width="214" height="1" fill="#000000"/><rect x="149" y="417" width="214" height="1" fill="#000000"/><rect x="149" y="418" width="214" height="1" fill="#000000"/><rect x="149" y="419" width="214" height="1" fill="#000000"/><rect x="149" y="420" width="214" height="1" fill="#000000"/><rect x="149" y="421" width="214" height="1" fill="#000000"/><rect x="149" y="422" width="214" height="1" fill="#000000"/><rect x="149" y="423" width="214" height="1" fill="#000000"/><rect x="149" y="424" width="214" height="1" fill="#000000"/><rect x="149" y="425" width="214" height="1" fill="#000000"/><rect x="149" y="426" width="214" height="1" fill="#000000"/><rect x="171" y="427" width="170" height="1" fill="#000000"/><rect x="171" y="428" width="170" height="1" fill="#000000"/><rect x="171" y="429" width="170" height="1" fill="#000000"/><rect x="171" y="430" width="170" height="1" fill="#000000"/><rect x="171" y="431" width="170" height="1" fill="#000000"/><rect x="171" y="432" width="170" height="1" fill="#000000"/><rect x="171" y="433" width="170" height="1" fill="#000000"/><rect x="171" y="434" width="170" height="1" fill="#000000"/><rect x="171" y="435" width="170" height="1" fill="#000000"/><rect x="171" y="436" width="170" height="1" fill="#000000"/><rect x="171" y="437" width="170" height="1" fill="#000000"/><rect x="171" y="438" width="170" height="1" fill="#000000"/><rect x="171" y="439" width="170" height="1" fill="#000000"/><rect x="171" y="440" width="170" height="1" fill="#000000"/><rect x="171" y="441" width="170" height="1" fill="#000000"/><rect x="171" y="442" width="170" height="1" fill="#000000"/><rect x="171" y="443" width="170" height="1" fill="#000000"/><rect x="171" y="444" width="170" height="1" fill="#000000"/><rect x="171" y="445" width="170" height="1" fill="#000000"/><rect x="171" y="446" width="170" height="1" fill="#000000"/><rect x="171" y="447" width="170" height="1" fill="#000000"/><rect x="171" y="448" width="170" height="1" fill="#000000"/><rect x="171" y="449" width="170" height="1" fill="#000000"/><rect x="171" y="450" width="170" height="1" fill="#000000"/><rect x="171" y="451" width="170" height="1" fill="#000000"/><rect x="171" y="452" width="170" height="1" fill="#000000"/><rect x="171" y="453" width="170" height="1" fill="#000000"/><rect x="171" y="454" width="170" height="1" fill="#000000"/><rect x="171" y="455" width="170" height="1" fill="#000000"/><rect x="171" y="456" width="170" height="1" fill="#000000"/><rect x="171" y="457" width="170" height="1" fill="#000000"/><rect x="171" y="458" width="170" height="1" fill="#000000"/><rect x="171" y="459" width="170" height="1" fill="#000000"/><rect x="171" y="460" width="170" height="1" fill="#000000"/><rect x="171" y="461" width="170" height="1" fill="#000000"/><rect x="171" y="462" width="170" height="1" fill="#000000"/><rect x="171" y="463" width="170" height="1" fill="#000000"/><rect x="171" y="464" width="170" height="1" fill="#000000"/><rect x="171" y="465" width="170" height="1" fill="#000000"/><rect x="171" y="466" width="170" height="1" fill="#000000"/><rect x="171" y="467" width="170" height="1" fill="#000000"/><rect x="171" y="468" width="170" height="1" fill="#000000"/><rect x="192" y="469" width="128" height="1" fill="#000000"/><rect x="192" y="470" width="128" height="1" fill="#000000"/><rect x="192" y="471" width="128" height="1" fill="#000000"/><rect x="192" y="472" width="128" height="1" fill="#000000"/><rect x="192" y="473" width="128" height="1" fill="#000000"/><rect x="192" y="474" width="128" height="1" fill="#000000"/><rect x="192" y="475" width="128" height="1" fill="#000000"/><rect x="192" y="476" width="128" height="1" fill="#000000"/><rect x="192" y="477" width="128" height="1" fill="#000000"/><rect x="192" y="478" width="128" height="1" fill="#000000"/><rect x="192" y="479" width="128" height="1" fill="#000000"/><rect x="192" y="480" width="128" height="1" fill="#000000"/><rect x="192" y="481" width="128" height="1" fill="#000000"/><rect x="192" y="482" width="128" height="1" fill="#000000"/><rect x="192" y="483" width="128" height="1" fill="#000000"/><rect x="192" y="484" width="128" height="1" fill="#000000"/><rect x="192" y="485" width="128" height="1" fill="#000000"/><rect x="192" y="486" width="128" height="1" fill="#000000"/><rect x="192" y="487" width="128" height="1" fill="#000000"/><rect x="192" y="488" width="128" height="1" fill="#000000"/><rect x="192" y="489" width="128" height="1" fill="#000000"/><rect x="192" y="490" width="128" height="1" fill="#000000"/></svg>