<svg xmlns="http://www.w3.org/2000/svg" viewBox="0 0 512 512" width="512" height="512" shape-rendering="crispEdges"><rect x="213" y="363" width="22" height="1" fill="#C18946"/><rect x="235" y="363" width="64" height="1" fill="#A56E2D"/><rect x="299" y="363" width="21" height="1" fill="#C18946"/><rect x="213" y="364" width="22" height="1" fill="#C18946"/><rect x="235" y="364" width="64" height="1" fill="#A56E2D"/><rect x="299" y="364" width="21" height="1" fill="#C18946"/><rect x="213" y="365" width="22" height="1" fill="#C18946"/><rect x="235" y="365" width="64" height="1" fill="#A56E2D"/><rect x="299" y="365" width="21" height="1" fill="#C18946"/><rect x="213" y="366" width="22" height="1" fill="#C18946"/><rect x="235" y="366" width="64" height="1" fill="#A56E2D"/><rect x="299" y="366" width="21" height="1" fill="#C18946"/><rect x="213" y="367" width="22" height="1" fill="#C18946"/><rect x="235" y="367" width="64" height="1" fill="#A56E2D"/><rect x="299" y="367" width="21" height="1" fill="#C18946"/><rect x="213" y="368" width="22" height="1" fill="#C18946"/><rect x="235" y="368" width="64" height="1" fill="#A56E2D"/><rect x="299" y="368" width="21" height="1" fill="#C18946"/><rect x="213" y="369" width="22" height="1" fill="#C18946"/><rect x="235" y="369" width="64" height="1" fill="#A56E2D"/><rect x="299" y="369" width="21" height="1" fill="#C18946"/><rect x="213" y="370" width="22" height="1" fill="#C18946"/><rect x="235" y="370" width="64" height="1" fill="#A56E2D"/><rect x="299" y="370" width="21" height="1" fill="#C18946"/><rect x="213" y="371" width="22" height="1" fill="#C18946"/><rect x="235" y="371" width="64" height="1" fill="#A56E2D"/><rect x="299" y="371" width="21" height="1" fill="#C18946"/><rect x="213" y="372" width="22" height="1" fill="#C18946"/><rect x="235" y="372" width="64" height="1" fill="#A56E2D"/><rect x="299" y="372" width="21" height="1" fill="#C18946"/><rect x="213" y="373" width="22" height="1" fill="#C18946"/><rect x="235" y="373" width="64" height="1" fill="#A56E2D"/><rect x="299" y="373" width="21" height="1" fill="#C18946"/><rect x="213" y="374" width="22" height="1" fill="#C18946"/><rect x="235" y="374" width="64" height="1" fill="#A56E2D"/><rect x="299" y="374" width="21" height="1" fill="#C18946"/><rect x="213" y="375" width="22" height="1" fill="#C18946"/><rect x="235" y="375" width="64" height="1" fill="#A56E2D"/><rect x="299" y="375" width="21" height="1" fill="#C18946"/><rect x="213" y="376" width="22" height="1" fill="#C18946"/><rect x="235" y="376" width="64" height="1" fill="#A56E2D"/><rect x="299" y="376" width="21" height="1" fill="#C18946"/><rect x="213" y="377" width="22" height="1" fill="#C18946"/><rect x="235" y="377" width="64" height="1" fill="#A56E2D"/><rect x="299" y="377" width="21" height="1" fill="#C18946"/><rect x="213" y="378" width="22" height="1" fill="#C18946"/><rect x="235" y="378" width="64" height="1" fill="#A56E2D"/><rect x="299" y="378" width="21" height="1" fill="#C18946"/><rect x="213" y="379" width="22" height="1" fill="#C18946"/><rect x="235" y="379" width="64" height="1" fill="#A56E2D"/><rect x="299" y="379" width="21" height="1" fill="#C18946"/><rect x="213" y="380" width="22" height="1" fill="#C18946"/><rect x="235" y="380" width="64" height="1" fill="#A56E2D"/><rect x="299" y="380" width="21" height="1" fill="#C18946"/><rect x="213" y="381" width="22" height="1" fill="#C18946"/><rect x="235" y="381" width="64" height="1" fill="#A56E2D"/><rect x="299" y="381" width="21" height="1" fill="#C18946"/><rect x="213" y="382" width="22" height="1" fill="#C18946"/><rect x="235" y="382" width="64" height="1" fill="#A56E2D"/><rect x="299" y="382" width="21" height="1" fill="#C18946"/><rect x="213" y="383" width="22" height="1" fill="#C18946"/><rect x="235" y="383" width="64" height="1" fill="#A56E2D"/><rect x="299" y="383" width="21" height="1" fill="#C18946"/><rect x="213" y="384" width="22" height="1" fill="#A56E2D"/><rect x="299" y="384" width="21" height="1" fill="#A56E2D"/><rect x="213" y="385" width="22" height="1" fill="#A56E2D"/><rect x="299" y="385" width="21" height="1" fill="#A56E2D"/><rect x="213" y="386" width="22" height="1" fill="#A56E2D"/><rect x="299" y="386" width="21" height="1" fill="#A56E2D"/><rect x="213" y="387" width="22" height="1" fill="#A56E2D"/><rect x="299" y="387" width="21" height="1" fill="#A56E2D"/><rect x="213" y="388" width="22" height="1" fill="#A56E2D"/><rect x="299" y="388" width="21" height="1" fill="#A56E2D"/><rect x="213" y="389" width="22" height="1" fill="#A56E2D"/><rect x="299" y="389" width="21" height="1" fill="#A56E2D"/><rect x="213" y="390" width="22" height="1" fill="#A56E2D"/><rect x="299" y="390" width="21" height="1" fill="#A56E2D"/><rect x="213" y="391" width="22" height="1" fill="#A56E2D"/><rect x="299" y="391" width="21" height="1" fill="#A56E2D"/><rect x="213" y="392" width="22" height="1" fill="#A56E2D"/><rect x="299" y="392" width="21" height="1" fill="#A56E2D"/><rect x="213" y="393" width="22" height="1" fill="#A56E2D"/><rect x="299" y="393" width="21" height="1" fill="#A56E2D"/><rect x="213" y="394" width="22" height="1" fill="#A56E2D"/><rect x="299" y="394" width="21" height="1" fill="#A56E2D"/><rect x="213" y="395" width="22" height="1" fill="#A56E2D"/><rect x="299" y="395" width="21" height="1" fill="#A56E2D"/><rect x="213" y="396" width="22" height="1" fill="#A56E2D"/><rect x="299" y="396" width="21" height="1" fill="#A56E2D"/><rect x="213" y="397" width="22" height="1" fill="#A56E2D"/><rect x="299" y="397" width="21" height="1" fill="#A56E2D"/><rect x="213" y="398" width="22" height="1" fill="#A56E2D"/><rect x="299" y="398" width="21" height="1" fill="#A56E2D"/><rect x="213" y="399" width="22" height="1" fill="#A56E2D"/><rect x="299" y="399" width="21" height="1" fill="#A56E2D"/><rect x="213" y="400" width="22" height="1" fill="#A56E2D"/><rect x="299" y="400" width="21" height="1" fill="#A56E2D"/><rect x="213" y="401" width="22" height="1" fill="#A56E2D"/><rect x="299" y="401" width="21" height="1" fill="#A56E2D"/><rect x="213" y="402" width="22" height="1" fill="#A56E2D"/><rect x="299" y="402" width="21" height="1" fill="#A56E2D"/><rect x="213" y="403" width="22" height="1" fill="#A56E2D"/><rect x="299" y="403" width="21" height="1" fill="#A56E2D"/><rect x="213" y="404" width="22" height="1" fill="#A56E2D"/><rect x="299" y="404" width="21" height="1" fill="#A56E2D"/><rect x="213" y="405" width="22" height="1" fill="#A56E2D"/><rect x="299" y="405" width="21" height="1" fill="#A56E2D"/><rect x="213" y="406" width="22" height="1" fill="#A56E2D"/><rect x="299" y="406" width="21" height="1" fill="#A56E2D"/><rect x="213" y="407" width="22" height="1" fill="#A56E2D"/><rect x="299" y="407" width="21" height="1" fill="#A56E2D"/><rect x="213" y="408" width="22" height="1" fill="#A56E2D"/><rect x="299" y="408" width="21" height="1" fill="#A56E2D"/><rect x="213" y="409" width="22" height="1" fill="#A56E2D"/><rect x="299" y="409" width="21" height="1" fill="#A56E2D"/><rect x="213" y="410" width="22" height="1" fill="#A56E2D"/><rect x="299" y="410" width="21" height="1" fill="#A56E2D"/><rect x="213" y="411" width="22" height="1" fill="#A56E2D"/><rect x="299" y="411" width="21" height="1" fill="#A56E2D"/><rect x="213" y="412" width="22" height="1" fill="#A56E2D"/><rect x="299" y="412" width="21" height="1" fill="#A56E2D"/><rect x="213" y="413" width="22" height="1" fill="#A56E2D"/><rect x="299" y="413" width="21" height="1" fill="#A56E2D"/><rect x="213" y="414" width="22" height="1" fill="#A56E2D"/><rect x="299" y="414" width="21" height="1" fill="#A56E2D"/><rect x="213" y="415" width="22" height="1" fill="#A56E2D"/><rect x="299" y="415" width="21" height="1" fill="#A56E2D"/><rect x="213" y="416" width="22" height="1" fill="#A56E2D"/><rect x="299" y="416" width="21" height="1" fill="#A56E2D"/><rect x="213" y="417" width="22" height="1" fill="#A56E2D"/><rect x="299" y="417" width="21" height="1" fill="#A56E2D"/><rect x="213" y="418" width="22" height="1" fill="#A56E2D"/><rect x="299" y="418" width="21" height="1" fill="#A56E2D"/><rect x="213" y="419" width="22" height="1" fill="#A56E2D"/><rect x="299" y="419" width="21" height="1" fill="#A56E2D"/><rect x="213" y="420" width="22" height="1" fill="#A56E2D"/><rect x="299" y="420" width="21" height="1" fill="#A56E2D"/><rect x="213" y="421" width="22" height="1" fill="#A56E2D"/><rect x="299" y="421" width="21" height="1" fill="#A56E2D"/><rect x="213" y="422" width="22" height="1" fill="#A56E2D"/><rect x="299" y="422" width="21" height="1" fill="#A56E2D"/><rect x="213" y="423" width="22" height="1" fill="#A56E2D"/><rect x="299" y="423" width="21" height="1" fill="#A56E2D"/><rect x="213" y="424" width="22" height="1" fill="#A56E2D"/><rect x="299" y="424" width="21" height="1" fill="#A56E2D"/><rect x="213" y="425" width="22" height="1" fill="#A56E2D"/><rect x="299" y="425" width="21" height="1" fill="#A56E2D"/><rect x="213" y="426" width="22" height="1" fill="#A56E2D"/><rect x="299" y="426" width="21" height="1" fill="#A56E2D"/></svg>