<svg xmlns="http://www.w3.org/2000/svg" viewBox="0 0 512 512" width="512" height="512" shape-rendering="crispEdges"><rect x="128" y="320" width="21" height="1" fill="#000000"/><rect x="149" y="320" width="22" height="1" fill="#A26F2D"/><rect x="128" y="321" width="21" height="1" fill="#000000"/><rect x="149" y="321" width="22" height="1" fill="#A26F2D"/><rect x="128" y="322" width="21" height="1" fill="#000000"/><rect x="149" y="322" width="22" height="1" fill="#A26F2D"/><rect x="128" y="323" width="21" height="1" fill="#000000"/><rect x="149" y="323" width="22" height="1" fill="#A26F2D"/><rect x="128" y="324" width="21" height="1" fill="#000000"/><rect x="149" y="324" width="22" height="1" fill="#A26F2D"/><rect x="128" y="325" width="21" height="1" fill="#000000"/><rect x="149" y="325" width="22" height="1" fill="#A26F2D"/><rect x="128" y="326" width="21" height="1" fill="#000000"/><rect x="149" y="326" width="22" height="1" fill="#A26F2D"/><rect x="128" y="327" width="21" height="1" fill="#000000"/><rect x="149" y="327" width="22" height="1" fill="#A26F2D"/><rect x="128" y="328" width="21" height="1" fill="#000000"/><rect x="149" y="328" width="22" height="1" fill="#A26F2D"/><rect x="128" y="329" width="21" height="1" fill="#000000"/><rect x="149" y="329" width="22" height="1" fill="#A26F2D"/><rect x="128" y="330" width="21" height="1" fill="#000000"/><rect x="149" y="330" width="22" height="1" fill="#A26F2D"/><rect x="128" y="331" width="21" height="1" fill="#000000"/><rect x="149" y="331" width="22" height="1" fill="#A26F2D"/><rect x="128" y="332" width="21" height="1" fill="#000000"/><rect x="149" y="332" width="22" height="1" fill="#A26F2D"/><rect x="128" y="333" width="21" height="1" fill="#000000"/><rect x="149" y="333" width="22" height="1" fill="#A26F2D"/><rect x="128" y="334" width="21" height="1" fill="#000000"/><rect x="149" y="334" width="22" height="1" fill="#A26F2D"/><rect x="128" y="335" width="21" height="1" fill="#000000"/><rect x="149" y="335" width="22" height="1" fill="#A26F2D"/><rect x="128" y="336" width="21" height="1" fill="#000000"/><rect x="149" y="336" width="22" height="1" fill="#A26F2D"/><rect x="128" y="337" width="21" height="1" fill="#000000"/><rect x="149" y="337" width="22" height="1" fill="#A26F2D"/><rect x="128" y="338" width="21" height="1" fill="#000000"/><rect x="149" y="338" width="22" height="1" fill="#A26F2D"/><rect x="128" y="339" width="21" height="1" fill="#000000"/><rect x="149" y="339" width="22" height="1" fill="#A26F2D"/><rect x="128" y="340" width="21" height="1" fill="#000000"/><rect x="149" y="340" width="22" height="1" fill="#A26F2D"/><rect x="128" y="341" width="21" height="1" fill="#000000"/><rect x="149" y="341" width="43" height="1" fill="#A26F2D"/><rect x="320" y="341" width="21" height="1" fill="#A26F2D"/><rect x="128" y="342" width="21" height="1" fill="#000000"/><rect x="149" y="342" width="43" height="1" fill="#A26F2D"/><rect x="320" y="342" width="21" height="1" fill="#A26F2D"/><rect x="128" y="343" width="21" height="1" fill="#000000"/><rect x="149" y="343" width="43" height="1" fill="#A26F2D"/><rect x="320" y="343" width="21" height="1" fill="#A26F2D"/><rect x="128" y="344" width="21" height="1" fill="#000000"/><rect x="149" y="344" width="43" height="1" fill="#A26F2D"/><rect x="320" y="344" width="21" height="1" fill="#A26F2D"/><rect x="128" y="345" width="21" height="1" fill="#000000"/><rect x="149" y="345" width="43" height="1" fill="#A26F2D"/><rect x="320" y="345" width="21" height="1" fill="#A26F2D"/><rect x="128" y="346" width="21" height="1" fill="#000000"/><rect x="149" y="346" width="43" height="1" fill="#A26F2D"/><rect x="320" y="346" width="21" height="1" fill="#A26F2D"/><rect x="128" y="347" width="21" height="1" fill="#000000"/><rect x="149" y="347" width="43" height="1" fill="#A26F2D"/><rect x="320" y="347" width="21" height="1" fill="#A26F2D"/><rect x="128" y="348" width="21" height="1" fill="#000000"/><rect x="149" y="348" width="43" height="1" fill="#A26F2D"/><rect x="320" y="348" width="21" height="1" fill="#A26F2D"/><rect x="128" y="349" width="21" height="1" fill="#000000"/><rect x="149" y="349" width="43" height="1" fill="#A26F2D"/><rect x="320" y="349" width="21" height="1" fill="#A26F2D"/><rect x="128" y="350" width="21" height="1" fill="#000000"/><rect x="149" y="350" width="43" height="1" fill="#A26F2D"/><rect x="320" y="350" width="21" height="1" fill="#A26F2D"/><rect x="128" y="351" width="21" height="1" fill="#000000"/><rect x="149" y="351" width="43" height="1" fill="#A26F2D"/><rect x="320" y="351" width="21" height="1" fill="#A26F2D"/><rect x="128" y="352" width="21" height="1" fill="#000000"/><rect x="149" y="352" width="43" height="1" fill="#A26F2D"/><rect x="320" y="352" width="21" height="1" fill="#A26F2D"/><rect x="128" y="353" width="21" height="1" fill="#000000"/><rect x="149" y="353" width="43" height="1" fill="#A26F2D"/><rect x="320" y="353" width="21" height="1" fill="#A26F2D"/><rect x="128" y="354" width="21" height="1" fill="#000000"/><rect x="149" y="354" width="43" height="1" fill="#A26F2D"/><rect x="320" y="354" width="21" height="1" fill="#A26F2D"/><rect x="128" y="355" width="21" height="1" fill="#000000"/><rect x="149" y="355" width="43" height="1" fill="#A26F2D"/><rect x="320" y="355" width="21" height="1" fill="#A26F2D"/><rect x="128" y="356" width="21" height="1" fill="#000000"/><rect x="149" y="356" width="43" height="1" fill="#A26F2D"/><rect x="320" y="356" width="21" height="1" fill="#A26F2D"/><rect x="128" y="357" width="21" height="1" fill="#000000"/><rect x="149" y="357" width="43" height="1" fill="#A26F2D"/><rect x="320" y="357" width="21" height="1" fill="#A26F2D"/><rect x="128" y="358" width="21" height="1" fill="#000000"/><rect x="149" y="358" width="43" height="1" fill="#A26F2D"/><rect x="320" y="358" width="21" height="1" fill="#A26F2D"/><rect x="128" y="359" width="21" height="1" fill="#000000"/><rect x="149" y="359" width="43" height="1" fill="#A26F2D"/><rect x="320" y="359" width="21" height="1" fill="#A26F2D"/><rect x="128" y="360" width="21" height="1" fill="#000000"/><rect x="149" y="360" width="43" height="1" fill="#A26F2D"/><rect x="320" y="360" width="21" height="1" fill="#A26F2D"/><rect x="128" y="361" width="21" height="1" fill="#000000"/><rect x="149" y="361" width="43" height="1" fill="#A26F2D"/><rect x="320" y="361" width="21" height="1" fill="#A26F2D"/><rect x="128" y="362" width="21" height="1" fill="#000000"/><rect x="149" y="362" width="43" height="1" fill="#A26F2D"/><rect x="320" y="362" width="21" height="1" fill="#A26F2D"/><rect x="128" y="363" width="21" height="1" fill="#000000"/><rect x="149" y="363" width="64" height="1" fill="#A26F2D"/><rect x="320" y="363" width="21" height="1" fill="#A26F2D"/><rect x="341" y="363" width="22" height="1" fill="#000000"/><rect x="128" y="364" width="21" height="1" fill="#000000"/><rect x="149" y="364" width="64" height="1" fill="#A26F2D"/><rect x="320" y="364" width="21" height="1" fill="#A26F2D"/><rect x="341" y="364" width="22" height="1" fill="#000000"/><rect x="128" y="365" width="21" height="1" fill="#000000"/><rect x="149" y="365" width="64" height="1" fill="#A26F2D"/><rect x="320" y="365" width="21" height="1" fill="#A26F2D"/><rect x="341" y="365" width="22" height="1" fill="#000000"/><rect x="128" y="366" width="21" height="1" fill="#000000"/><rect x="149" y="366" width="64" height="1" fill="#A26F2D"/><rect x="320" y="366" width="21" height="1" fill="#A26F2D"/><rect x="341" y="366" width="22" height="1" fill="#000000"/><rect x="128" y="367" width="21" height="1" fill="#000000"/><rect x="149" y="367" width="64" height="1" fill="#A26F2D"/><rect x="320" y="367" width="21" height="1" fill="#A26F2D"/><rect x="341" y="367" width="22" height="1" fill="#000000"/><rect x="128" y="368" width="21" height="1" fill="#000000"/><rect x="149" y="368" width="64" height="1" fill="#A26F2D"/><rect x="320" y="368" width="21" height="1" fill="#A26F2D"/><rect x="341" y="368" width="22" height="1" fill="#000000"/><rect x="128" y="369" width="21" height="1" fill="#000000"/><rect x="149" y="369" width="64" height="1" fill="#A26F2D"/><rect x="320" y="369" width="21" height="1" fill="#A26F2D"/><rect x="341" y="369" width="22" height="1" fill="#000000"/><rect x="128" y="370" width="21" height="1" fill="#000000"/><rect x="149" y="370" width="64" height="1" fill="#A26F2D"/><rect x="320" y="370" width="21" height="1" fill="#A26F2D"/><rect x="341" y="370" width="22" height="1" fill="#000000"/><rect x="128" y="371" width="21" height="1" fill="#000000"/><rect x="149" y="371" width="64" height="1" fill="#A26F2D"/><rect x="320" y="371" width="21" height="1" fill="#A26F2D"/><rect x="341" y="371" width="22" height="1" fill="#000000"/><rect x="128" y="372" width="21" height="1" fill="#000000"/><rect x="149" y="372" width="64" height="1" fill="#A26F2D"/><rect x="320" y="372" width="21" height="1" fill="#A26F2D"/><rect x="341" y="372" width="22" height="1" fill="#000000"/><rect x="128" y="373" width="21" height="1" fill="#000000"/><rect x="149" y="373" width="64" height="1" fill="#A26F2D"/><rect x="320" y="373" width="21" height="1" fill="#A26F2D"/><rect x="341" y="373" width="22" height="1" fill="#000000"/><rect x="128" y="374" width="21" height="1" fill="#000000"/><rect x="149" y="374" width="64" height="1" fill="#A26F2D"/><rect x="320" y="374" width="21" height="1" fill="#A26F2D"/><rect x="341" y="374" width="22" height="1" fill="#000000"/><rect x="128" y="375" width="21" height="1" fill="#000000"/><rect x="149" y="375" width="64" height="1" fill="#A26F2D"/><rect x="320" y="375" width="21" height="1" fill="#A26F2D"/><rect x="341" y="375" width="22" height="1" fill="#000000"/><rect x="128" y="376" width="21" height="1" fill="#000000"/><rect x="149" y="376" width="64" height="1" fill="#A26F2D"/><rect x="320" y="376" width="21" height="1" fill="#A26F2D"/><rect x="341" y="376" width="22" height="1" fill="#000000"/><rect x="128" y="377" width="21" height="1" fill="#000000"/><rect x="149" y="377" width="64" height="1" fill="#A26F2D"/><rect x="320" y="377" width="21" height="1" fill="#A26F2D"/><rect x="341" y="377" width="22" height="1" fill="#000000"/><rect x="128" y="378" width="21" height="1" fill="#000000"/><rect x="149" y="378" width="64" height="1" fill="#A26F2D"/><rect x="320" y="378" width="21" height="1" fill="#A26F2D"/><rect x="341" y="378" width="22" height="1" fill="#000000"/><rect x="128" y="379" width="21" height="1" fill="#000000"/><rect x="149" y="379" width="64" height="1" fill="#A26F2D"/><rect x="320" y="379" width="21" height="1" fill="#A26F2D"/><rect x="341" y="379" width="22" height="1" fill="#000000"/><rect x="128" y="380" width="21" height="1" fill="#000000"/><rect x="149" y="380" width="64" height="1" fill="#A26F2D"/><rect x="320" y="380" width="21" height="1" fill="#A26F2D"/><rect x="341" y="380" width="22" height="1" fill="#000000"/><rect x="128" y="381" width="21" height="1" fill="#000000"/><rect x="149" y="381" width="64" height="1" fill="#A26F2D"/><rect x="320" y="381" width="21" height="1" fill="#A26F2D"/><rect x="341" y="381" width="22" height="1" fill="#000000"/><rect x="128" y="382" width="21" height="1" fill="#000000"/><rect x="149" y="382" width="64" height="1" fill="#A26F2D"/><rect x="320" y="382" width="21" height="1" fill="#A26F2D"/><rect x="341" y="382" width="22" height="1" fill="#000000"/><rect x="128" y="383" width="21" height="1" fill="#000000"/><rect x="149" y="383" width="64" height="1" fill="#A26F2D"/><rect x="320" y="383" width="21" height="1" fill="#A26F2D"/><rect x="341" y="383" width="22" height="1" fill="#000000"/><rect x="171" y="384" width="42" height="1" fill="#A26F2D"/><rect x="320" y="384" width="21" height="1" fill="#A26F2D"/><rect x="341" y="384" width="22" height="1" fill="#000000"/><rect x="171" y="385" width="42" height="1" fill="#A26F2D"/><rect x="320" y="385" width="21" height="1" fill="#A26F2D"/><rect x="341" y="385" width="22" height="1" fill="#000000"/><rect x="171" y="386" width="42" height="1" fill="#A26F2D"/><rect x="320" y="386" width="21" height="1" fill="#A26F2D"/><rect x="341" y="386" width="22" height="1" fill="#000000"/><rect x="171" y="387" width="42" height="1" fill="#A26F2D"/><rect x="320" y="387" width="21" height="1" fill="#A26F2D"/><rect x="341" y="387" width="22" height="1" fill="#000000"/><rect x="171" y="388" width="42" height="1" fill="#A26F2D"/><rect x="320" y="388" width="21" height="1" fill="#A26F2D"/><rect x="341" y="388" width="22" height="1" fill="#000000"/><rect x="171" y="389" width="42" height="1" fill="#A26F2D"/><rect x="320" y="389" width="21" height="1" fill="#A26F2D"/><rect x="341" y="389" width="22" height="1" fill="#000000"/><rect x="171" y="390" width="42" height="1" fill="#A26F2D"/><rect x="320" y="390" width="21" height="1" fill="#A26F2D"/><rect x="341" y="390" width="22" height="1" fill="#000000"/><rect x="171" y="391" width="42" height="1" fill="#A26F2D"/><rect x="320" y="391" width="21" height="1" fill="#A26F2D"/><rect x="341" y="391" width="22" height="1" fill="#000000"/><rect x="171" y="392" width="42" height="1" fill="#A26F2D"/><rect x="320" y="392" width="21" height="1" fill="#A26F2D"/><rect x="341" y="392" width="22" height="1" fill="#000000"/><rect x="171" y="393" width="42" height="1" fill="#A26F2D"/><rect x="320" y="393" width="21" height="1" fill="#A26F2D"/><rect x="341" y="393" width="22" height="1" fill="#000000"/><rect x="171" y="394" width="42" height="1" fill="#A26F2D"/><rect x="320" y="394" width="21" height="1" fill="#A26F2D"/><rect x="341" y="394" width="22" height="1" fill="#000000"/><rect x="171" y="395" width="42" height="1" fill="#A26F2D"/><rect x="320" y="395" width="21" height="1" fill="#A26F2D"/><rect x="341" y="395" width="22" height="1" fill="#000000"/><rect x="171" y="396" width="42" height="1" fill="#A26F2D"/><rect x="320" y="396" width="21" height="1" fill="#A26F2D"/><rect x="341" y="396" width="22" height="1" fill="#000000"/><rect x="171" y="397" width="42" height="1" fill="#A26F2D"/><rect x="320" y="397" width="21" height="1" fill="#A26F2D"/><rect x="341" y="397" width="22" height="1" fill="#000000"/><rect x="171" y="398" width="42" height="1" fill="#A26F2D"/><rect x="320" y="398" width="21" height="1" fill="#A26F2D"/><rect x="341" y="398" width="22" height="1" fill="#000000"/><rect x="171" y="399" width="42" height="1" fill="#A26F2D"/><rect x="320" y="399" width="21" height="1" fill="#A26F2D"/><rect x="341" y="399" width="22" height="1" fill="#000000"/><rect x="171" y="400" width="42" height="1" fill="#A26F2D"/><rect x="320" y="400" width="21" height="1" fill="#A26F2D"/><rect x="341" y="400" width="22" height="1" fill="#000000"/><rect x="171" y="401" width="42" height="1" fill="#A26F2D"/><rect x="320" y="401" width="21" height="1" fill="#A26F2D"/><rect x="341" y="401" width="22" height="1" fill="#000000"/><rect x="171" y="402" width="42" height="1" fill="#A26F2D"/><rect x="320" y="402" width="21" height="1" fill="#A26F2D"/><rect x="341" y="402" width="22" height="1" fill="#000000"/><rect x="171" y="403" width="42" height="1" fill="#A26F2D"/><rect x="320" y="403" width="21" height="1" fill="#A26F2D"/><rect x="341" y="403" width="22" height="1" fill="#000000"/><rect x="171" y="404" width="42" height="1" fill="#A26F2D"/><rect x="320" y="404" width="21" height="1" fill="#A26F2D"/><rect x="341" y="404" width="22" height="1" fill="#000000"/></svg>