<svg xmlns="http://www.w3.org/2000/svg" viewBox="0 0 512 512" width="512" height="512" shape-rendering="crispEdges"><rect x="213" y="363" width="107" height="1" fill="#000000" opacity="0.604"/><rect x="213" y="364" width="107" height="1" fill="#000000" opacity="0.604"/><rect x="213" y="365" width="107" height="1" fill="#000000" opacity="0.604"/><rect x="213" y="366" width="107" height="1" fill="#000000" opacity="0.604"/><rect x="213" y="367" width="107" height="1" fill="#000000" opacity="0.604"/><rect x="213" y="368" width="107" height="1" fill="#000000" opacity="0.604"/><rect x="213" y="369" width="107" height="1" fill="#000000" opacity="0.604"/><rect x="213" y="370" width="107" height="1" fill="#000000" opacity="0.604"/><rect x="213" y="371" width="107" height="1" fill="#000000" opacity="0.604"/><rect x="213" y="372" width="107" height="1" fill="#000000" opacity="0.604"/><rect x="213" y="373" width="107" height="1" fill="#000000" opacity="0.604"/><rect x="213" y="374" width="107" height="1" fill="#000000" opacity="0.604"/><rect x="213" y="375" width="107" height="1" fill="#000000" opacity="0.604"/><rect x="213" y="376" width="107" height="1" fill="#000000" opacity="0.604"/><rect x="213" y="377" width="107" height="1" fill="#000000" opacity="0.604"/><rect x="213" y="378" width="107" height="1" fill="#000000" opacity="0.604"/><rect x="213" y="379" width="107" height="1" fill="#000000" opacity="0.604"/><rect x="213" y="380" width="107" height="1" fill="#000000" opacity="0.604"/><rect x="213" y="381" width="107" height="1" fill="#000000" opacity="0.604"/><rect x="213" y="382" width="107" height="1" fill="#000000" opacity="0.604"/><rect x="213" y="383" width="107" height="1" fill="#000000" opacity="0.604"/></svg>