<svg xmlns="http://www.w3.org/2000/svg" viewBox="0 0 512 512" width="512" height="512" shape-rendering="crispEdges"><rect x="192" y="107" width="107" height="1" fill="#FFF68D"/><rect x="192" y="108" width="107" height="1" fill="#FFF68D"/><rect x="192" y="109" width="107" height="1" fill="#FFF68D"/><rect x="192" y="110" width="107" height="1" fill="#FFF68D"/><rect x="192" y="111" width="107" height="1" fill="#FFF68D"/><rect x="192" y="112" width="107" height="1" fill="#FFF68D"/><rect x="192" y="113" width="107" height="1" fill="#FFF68D"/><rect x="192" y="114" width="107" height="1" fill="#FFF68D"/><rect x="192" y="115" width="107" height="1" fill="#FFF68D"/><rect x="192" y="116" width="107" height="1" fill="#FFF68D"/><rect x="192" y="117" width="107" height="1" fill="#FFF68D"/><rect x="192" y="118" width="107" height="1" fill="#FFF68D"/><rect x="192" y="119" width="107" height="1" fill="#FFF68D"/><rect x="192" y="120" width="107" height="1" fill="#FFF68D"/><rect x="192" y="121" width="107" height="1" fill="#FFF68D"/><rect x="192" y="122" width="107" height="1" fill="#FFF68D"/><rect x="192" y="123" width="107" height="1" fill="#FFF68D"/><rect x="192" y="124" width="107" height="1" fill="#FFF68D"/><rect x="192" y="125" width="107" height="1" fill="#FFF68D"/><rect x="192" y="126" width="107" height="1" fill="#FFF68D"/><rect x="192" y="127" width="107" height="1" fill="#FFF68D"/><rect x="171" y="128" width="149" height="1" fill="#FFF68D"/><rect x="171" y="129" width="149" height="1" fill="#FFF68D"/><rect x="171" y="130" width="149" height="1" fill="#FFF68D"/><rect x="171" y="131" width="149" height="1" fill="#FFF68D"/><rect x="171" y="132" width="149" height="1" fill="#FFF68D"/><rect x="171" y="133" width="149" height="1" fill="#FFF68D"/><rect x="171" y="134" width="149" height="1" fill="#FFF68D"/><rect x="171" y="135" width="149" height="1" fill="#FFF68D"/><rect x="171" y="136" width="149" height="1" fill="#FFF68D"/><rect x="171" y="137" width="149" height="1" fill="#FFF68D"/><rect x="171" y="138" width="149" height="1" fill="#FFF68D"/><rect x="171" y="139" width="149" height="1" fill="#FFF68D"/><rect x="171" y="140" width="149" height="1" fill="#FFF68D"/><rect x="171" y="141" width="149" height="1" fill="#FFF68D"/><rect x="171" y="142" width="149" height="1" fill="#FFF68D"/><rect x="171" y="143" width="149" height="1" fill="#FFF68D"/><rect x="171" y="144" width="149" height="1" fill="#FFF68D"/><rect x="171" y="145" width="149" height="1" fill="#FFF68D"/><rect x="171" y="146" width="149" height="1" fill="#FFF68D"/><rect x="171" y="147" width="149" height="1" fill="#FFF68D"/><rect x="171" y="148" width="149" height="1" fill="#FFF68D"/><rect x="149" y="149" width="192" height="1" fill="#FFF68D"/><rect x="149" y="150" width="192" height="1" fill="#FFF68D"/><rect x="149" y="151" width="192" height="1" fill="#FFF68D"/><rect x="149" y="152" width="192" height="1" fill="#FFF68D"/><rect x="149" y="153" width="192" height="1" fill="#FFF68D"/><rect x="149" y="154" width="192" height="1" fill="#FFF68D"/><rect x="149" y="155" width="192" height="1" fill="#FFF68D"/><rect x="149" y="156" width="192" height="1" fill="#FFF68D"/><rect x="149" y="157" width="192" height="1" fill="#FFF68D"/><rect x="149" y="158" width="192" height="1" fill="#FFF68D"/><rect x="149" y="159" width="192" height="1" fill="#FFF68D"/><rect x="149" y="160" width="192" height="1" fill="#FFF68D"/><rect x="149" y="161" width="192" height="1" fill="#FFF68D"/><rect x="149" y="162" width="192" height="1" fill="#FFF68D"/><rect x="149" y="163" width="192" height="1" fill="#FFF68D"/><rect x="149" y="164" width="192" height="1" fill="#FFF68D"/><rect x="149" y="165" width="192" height="1" fill="#FFF68D"/><rect x="149" y="166" width="192" height="1" fill="#FFF68D"/><rect x="149" y="167" width="192" height="1" fill="#FFF68D"/><rect x="149" y="168" width="192" height="1" fill="#FFF68D"/><rect x="149" y="169" width="192" height="1" fill="#FFF68D"/><rect x="149" y="170" width="192" height="1" fill="#FFF68D"/><rect x="149" y="171" width="214" height="1" fill="#FFF68D"/><rect x="149" y="172" width="214" height="1" fill="#FFF68D"/><rect x="149" y="173" width="214" height="1" fill="#FFF68D"/><rect x="149" y="174" width="214" height="1" fill="#FFF68D"/><rect x="149" y="175" width="214" height="1" fill="#FFF68D"/><rect x="149" y="176" width="214" height="1" fill="#FFF68D"/><rect x="149" y="177" width="214" height="1" fill="#FFF68D"/><rect x="149" y="178" width="214" height="1" fill="#FFF68D"/><rect x="149" y="179" width="214" height="1" fill="#FFF68D"/><rect x="149" y="180" width="214" height="1" fill="#FFF68D"/><rect x="149" y="181" width="214" height="1" fill="#FFF68D"/><rect x="149" y="182" width="214" height="1" fill="#FFF68D"/><rect x="149" y="183" width="214" height="1" fill="#FFF68D"/><rect x="149" y="184" width="214" height="1" fill="#FFF68D"/><rect x="149" y="185" width="214" height="1" fill="#FFF68D"/><rect x="149" y="186" width="214" height="1" fill="#FFF68D"/><rect x="149" y="187" width="214" height="1" fill="#FFF68D"/><rect x="149" y="188" width="214" height="1" fill="#FFF68D"/><rect x="149" y="189" width="214" height="1" fill="#FFF68D"/><rect x="149" y="190" width="214" height="1" fill="#FFF68D"/><rect x="149" y="191" width="214" height="1" fill="#FFF68D"/><rect x="128" y="192" width="235" height="1" fill="#FFF68D"/><rect x="128" y="193" width="235" height="1" fill="#FFF68D"/><rect x="128" y="194" width="235" height="1" fill="#FFF68D"/><rect x="128" y="195" width="235" height="1" fill="#FFF68D"/><rect x="128" y="196" width="235" height="1" fill="#FFF68D"/><rect x="128" y="197" width="235" height="1" fill="#FFF68D"/><rect x="128" y="198" width="235" height="1" fill="#FFF68D"/><rect x="128" y="199" width="235" height="1" fill="#FFF68D"/><rect x="128" y="200" width="235" height="1" fill="#FFF68D"/><rect x="128" y="201" width="235" height="1" fill="#FFF68D"/><rect x="128" y="202" width="235" height="1" fill="#FFF68D"/><rect x="128" y="203" width="235" height="1" fill="#FFF68D"/><rect x="128" y="204" width="235" height="1" fill="#FFF68D"/><rect x="128" y="205" width="235" height="1" fill="#FFF68D"/><rect x="128" y="206" width="235" height="1" fill="#FFF68D"/><rect x="128" y="207" width="235" height="1" fill="#FFF68D"/><rect x="128" y="208" width="235" height="1" fill="#FFF68D"/><rect x="128" y="209" width="235" height="1" fill="#FFF68D"/><rect x="128" y="210" width="235" height="1" fill="#FFF68D"/><rect x="128" y="211" width="235" height="1" fill="#FFF68D"/><rect x="128" y="212" width="235" height="1" fill="#FFF68D"/><rect x="128" y="213" width="64" height="1" fill="#FFF68D"/><rect x="277" y="213" width="22" height="1" fill="#FFF68D"/><rect x="341" y="213" width="22" height="1" fill="#FFF68D"/><rect x="128" y="214" width="64" height="1" fill="#FFF68D"/><rect x="277" y="214" width="22" height="1" fill="#FFF68D"/><rect x="341" y="214" width="22" height="1" fill="#FFF68D"/><rect x="128" y="215" width="64" height="1" fill="#FFF68D"/><rect x="277" y="215" width="22" height="1" fill="#FFF68D"/><rect x="341" y="215" width="22" height="1" fill="#FFF68D"/><rect x="128" y="216" width="64" height="1" fill="#FFF68D"/><rect x="277" y="216" width="22" height="1" fill="#FFF68D"/><rect x="341" y="216" width="22" height="1" fill="#FFF68D"/><rect x="128" y="217" width="64" height="1" fill="#FFF68D"/><rect x="277" y="217" width="22" height="1" fill="#FFF68D"/><rect x="341" y="217" width="22" height="1" fill="#FFF68D"/><rect x="128" y="218" width="64" height="1" fill="#FFF68D"/><rect x="277" y="218" width="22" height="1" fill="#FFF68D"/><rect x="341" y="218" width="22" height="1" fill="#FFF68D"/><rect x="128" y="219" width="64" height="1" fill="#FFF68D"/><rect x="277" y="219" width="22" height="1" fill="#FFF68D"/><rect x="341" y="219" width="22" height="1" fill="#FFF68D"/><rect x="128" y="220" width="64" height="1" fill="#FFF68D"/><rect x="277" y="220" width="22" height="1" fill="#FFF68D"/><rect x="341" y="220" width="22" height="1" fill="#FFF68D"/><rect x="128" y="221" width="64" height="1" fill="#FFF68D"/><rect x="277" y="221" width="22" height="1" fill="#FFF68D"/><rect x="341" y="221" width="22" height="1" fill="#FFF68D"/><rect x="128" y="222" width="64" height="1" fill="#FFF68D"/><rect x="277" y="222" width="22" height="1" fill="#FFF68D"/><rect x="341" y="222" width="22" height="1" fill="#FFF68D"/><rect x="128" y="223" width="64" height="1" fill="#FFF68D"/><rect x="277" y="223" width="22" height="1" fill="#FFF68D"/><rect x="341" y="223" width="22" height="1" fill="#FFF68D"/><rect x="128" y="224" width="64" height="1" fill="#FFF68D"/><rect x="277" y="224" width="22" height="1" fill="#FFF68D"/><rect x="341" y="224" width="22" height="1" fill="#FFF68D"/><rect x="128" y="225" width="64" height="1" fill="#FFF68D"/><rect x="277" y="225" width="22" height="1" fill="#FFF68D"/><rect x="341" y="225" width="22" height="1" fill="#FFF68D"/><rect x="128" y="226" width="64" height="1" fill="#FFF68D"/><rect x="277" y="226" width="22" height="1" fill="#FFF68D"/><rect x="341" y="226" width="22" height="1" fill="#FFF68D"/><rect x="128" y="227" width="64" height="1" fill="#FFF68D"/><rect x="277" y="227" width="22" height="1" fill="#FFF68D"/><rect x="341" y="227" width="22" height="1" fill="#FFF68D"/><rect x="128" y="228" width="64" height="1" fill="#FFF68D"/><rect x="277" y="228" width="22" height="1" fill="#FFF68D"/><rect x="341" y="228" width="22" height="1" fill="#FFF68D"/><rect x="128" y="229" width="64" height="1" fill="#FFF68D"/><rect x="277" y="229" width="22" height="1" fill="#FFF68D"/><rect x="341" y="229" width="22" height="1" fill="#FFF68D"/><rect x="128" y="230" width="64" height="1" fill="#FFF68D"/><rect x="277" y="230" width="22" height="1" fill="#FFF68D"/><rect x="341" y="230" width="22" height="1" fill="#FFF68D"/><rect x="128" y="231" width="64" height="1" fill="#FFF68D"/><rect x="277" y="231" width="22" height="1" fill="#FFF68D"/><rect x="341" y="231" width="22" height="1" fill="#FFF68D"/><rect x="128" y="232" width="64" height="1" fill="#FFF68D"/><rect x="277" y="232" width="22" height="1" fill="#FFF68D"/><rect x="341" y="232" width="22" height="1" fill="#FFF68D"/><rect x="128" y="233" width="64" height="1" fill="#FFF68D"/><rect x="277" y="233" width="22" height="1" fill="#FFF68D"/><rect x="341" y="233" width="22" height="1" fill="#FFF68D"/><rect x="128" y="234" width="64" height="1" fill="#FFF68D"/><rect x="277" y="234" width="22" height="1" fill="#FFF68D"/><rect x="341" y="234" width="22" height="1" fill="#FFF68D"/><rect x="128" y="235" width="43" height="1" fill="#FFF68D"/><rect x="256" y="235" width="21" height="1" fill="#FFF68D"/><rect x="341" y="235" width="22" height="1" fill="#FFF68D"/><rect x="128" y="236" width="43" height="1" fill="#FFF68D"/><rect x="256" y="236" width="21" height="1" fill="#FFF68D"/><rect x="341" y="236" width="22" height="1" fill="#FFF68D"/><rect x="128" y="237" width="43" height="1" fill="#FFF68D"/><rect x="256" y="237" width="21" height="1" fill="#FFF68D"/><rect x="341" y="237" width="22" height="1" fill="#FFF68D"/><rect x="128" y="238" width="43" height="1" fill="#FFF68D"/><rect x="256" y="238" width="21" height="1" fill="#FFF68D"/><rect x="341" y="238" width="22" height="1" fill="#FFF68D"/><rect x="128" y="239" width="43" height="1" fill="#FFF68D"/><rect x="256" y="239" width="21" height="1" fill="#FFF68D"/><rect x="341" y="239" width="22" height="1" fill="#FFF68D"/><rect x="128" y="240" width="43" height="1" fill="#FFF68D"/><rect x="256" y="240" width="21" height="1" fill="#FFF68D"/><rect x="341" y="240" width="22" height="1" fill="#FFF68D"/><rect x="128" y="241" width="43" height="1" fill="#FFF68D"/><rect x="256" y="241" width="21" height="1" fill="#FFF68D"/><rect x="341" y="241" width="22" height="1" fill="#FFF68D"/><rect x="128" y="242" width="43" height="1" fill="#FFF68D"/><rect x="256" y="242" width="21" height="1" fill="#FFF68D"/><rect x="341" y="242" width="22" height="1" fill="#FFF68D"/><rect x="128" y="243" width="43" height="1" fill="#FFF68D"/><rect x="256" y="243" width="21" height="1" fill="#FFF68D"/><rect x="341" y="243" width="22" height="1" fill="#FFF68D"/><rect x="128" y="244" width="43" height="1" fill="#FFF68D"/><rect x="256" y="244" width="21" height="1" fill="#FFF68D"/><rect x="341" y="244" width="22" height="1" fill="#FFF68D"/><rect x="128" y="245" width="43" height="1" fill="#FFF68D"/><rect x="256" y="245" width="21" height="1" fill="#FFF68D"/><rect x="341" y="245" width="22" height="1" fill="#FFF68D"/><rect x="128" y="246" width="43" height="1" fill="#FFF68D"/><rect x="256" y="246" width="21" height="1" fill="#FFF68D"/><rect x="341" y="246" width="22" height="1" fill="#FFF68D"/><rect x="128" y="247" width="43" height="1" fill="#FFF68D"/><rect x="256" y="247" width="21" height="1" fill="#FFF68D"/><rect x="341" y="247" width="22" height="1" fill="#FFF68D"/><rect x="128" y="248" width="43" height="1" fill="#FFF68D"/><rect x="256" y="248" width="21" height="1" fill="#FFF68D"/><rect x="341" y="248" width="22" height="1" fill="#FFF68D"/><rect x="128" y="249" width="43" height="1" fill="#FFF68D"/><rect x="256" y="249" width="21" height="1" fill="#FFF68D"/><rect x="341" y="249" width="22" height="1" fill="#FFF68D"/><rect x="128" y="250" width="43" height="1" fill="#FFF68D"/><rect x="256" y="250" width="21" height="1" fill="#FFF68D"/><rect x="341" y="250" width="22" height="1" fill="#FFF68D"/><rect x="128" y="251" width="43" height="1" fill="#FFF68D"/><rect x="256" y="251" width="21" height="1" fill="#FFF68D"/><rect x="341" y="251" width="22" height="1" fill="#FFF68D"/><rect x="128" y="252" width="43" height="1" fill="#FFF68D"/><rect x="256" y="252" width="21" height="1" fill="#FFF68D"/><rect x="341" y="252" width="22" height="1" fill="#FFF68D"/><rect x="128" y="253" width="43" height="1" fill="#FFF68D"/><rect x="256" y="253" width="21" height="1" fill="#FFF68D"/><rect x="341" y="253" width="22" height="1" fill="#FFF68D"/><rect x="128" y="254" width="43" height="1" fill="#FFF68D"/><rect x="256" y="254" width="21" height="1" fill="#FFF68D"/><rect x="341" y="254" width="22" height="1" fill="#FFF68D"/><rect x="128" y="255" width="43" height="1" fill="#FFF68D"/><rect x="256" y="255" width="21" height="1" fill="#FFF68D"/><rect x="341" y="255" width="22" height="1" fill="#FFF68D"/><rect x="128" y="256" width="21" height="1" fill="#FFF68D"/><rect x="341" y="256" width="22" height="1" fill="#FFF68D"/><rect x="128" y="257" width="21" height="1" fill="#FFF68D"/><rect x="341" y="257" width="22" height="1" fill="#FFF68D"/><rect x="128" y="258" width="21" height="1" fill="#FFF68D"/><rect x="341" y="258" width="22" height="1" fill="#FFF68D"/><rect x="128" y="259" width="21" height="1" fill="#FFF68D"/><rect x="341" y="259" width="22" height="1" fill="#FFF68D"/><rect x="128" y="260" width="21" height="1" fill="#FFF68D"/><rect x="341" y="260" width="22" height="1" fill="#FFF68D"/><rect x="128" y="261" width="21" height="1" fill="#FFF68D"/><rect x="341" y="261" width="22" height="1" fill="#FFF68D"/><rect x="128" y="262" width="21" height="1" fill="#FFF68D"/><rect x="341" y="262" width="22" height="1" fill="#FFF68D"/><rect x="128" y="263" width="21" height="1" fill="#FFF68D"/><rect x="341" y="263" width="22" height="1" fill="#FFF68D"/><rect x="128" y="264" width="21" height="1" fill="#FFF68D"/><rect x="341" y="264" width="22" height="1" fill="#FFF68D"/><rect x="128" y="265" width="21" height="1" fill="#FFF68D"/><rect x="341" y="265" width="22" height="1" fill="#FFF68D"/><rect x="128" y="266" width="21" height="1" fill="#FFF68D"/><rect x="341" y="266" width="22" height="1" fill="#FFF68D"/><rect x="128" y="267" width="21" height="1" fill="#FFF68D"/><rect x="341" y="267" width="22" height="1" fill="#FFF68D"/><rect x="128" y="268" width="21" height="1" fill="#FFF68D"/><rect x="341" y="268" width="22" height="1" fill="#FFF68D"/><rect x="128" y="269" width="21" height="1" fill="#FFF68D"/><rect x="341" y="269" width="22" height="1" fill="#FFF68D"/><rect x="128" y="270" width="21" height="1" fill="#FFF68D"/><rect x="341" y="270" width="22" height="1" fill="#FFF68D"/><rect x="128" y="271" width="21" height="1" fill="#FFF68D"/><rect x="341" y="271" width="22" height="1" fill="#FFF68D"/><rect x="128" y="272" width="21" height="1" fill="#FFF68D"/><rect x="341" y="272" width="22" height="1" fill="#FFF68D"/><rect x="128" y="273" width="21" height="1" fill="#FFF68D"/><rect x="341" y="273" width="22" height="1" fill="#FFF68D"/><rect x="128" y="274" width="21" height="1" fill="#FFF68D"/><rect x="341" y="274" width="22" height="1" fill="#FFF68D"/><rect x="128" y="275" width="21" height="1" fill="#FFF68D"/><rect x="341" y="275" width="22" height="1" fill="#FFF68D"/><rect x="128" y="276" width="21" height="1" fill="#FFF68D"/><rect x="341" y="276" width="22" height="1" fill="#FFF68D"/><rect x="128" y="277" width="21" height="1" fill="#FFF68D"/><rect x="341" y="277" width="22" height="1" fill="#FFF68D"/><rect x="128" y="278" width="21" height="1" fill="#FFF68D"/><rect x="341" y="278" width="22" height="1" fill="#FFF68D"/><rect x="128" y="279" width="21" height="1" fill="#FFF68D"/><rect x="341" y="279" width="22" height="1" fill="#FFF68D"/><rect x="128" y="280" width="21" height="1" fill="#FFF68D"/><rect x="341" y="280" width="22" height="1" fill="#FFF68D"/><rect x="128" y="281" width="21" height="1" fill="#FFF68D"/><rect x="341" y="281" width="22" height="1" fill="#FFF68D"/><rect x="128" y="282" width="21" height="1" fill="#FFF68D"/><rect x="341" y="282" width="22" height="1" fill="#FFF68D"/><rect x="128" y="283" width="21" height="1" fill="#FFF68D"/><rect x="341" y="283" width="22" height="1" fill="#FFF68D"/><rect x="128" y="284" width="21" height="1" fill="#FFF68D"/><rect x="341" y="284" width="22" height="1" fill="#FFF68D"/><rect x="128" y="285" width="21" height="1" fill="#FFF68D"/><rect x="341" y="285" width="22" height="1" fill="#FFF68D"/><rect x="128" y="286" width="21" height="1" fill="#FFF68D"/><rect x="341" y="286" width="22" height="1" fill="#FFF68D"/><rect x="128" y="287" width="21" height="1" fill="#FFF68D"/><rect x="341" y="287" width="22" height="1" fill="#FFF68D"/><rect x="128" y="288" width="21" height="1" fill="#FFF68D"/><rect x="341" y="288" width="22" height="1" fill="#FFF68D"/><rect x="128" y="289" width="21" height="1" fill="#FFF68D"/><rect x="341" y="289" width="22" height="1" fill="#FFF68D"/><rect x="128" y="290" width="21" height="1" fill="#FFF68D"/><rect x="341" y="290" width="22" height="1" fill="#FFF68D"/><rect x="128" y="291" width="21" height="1" fill="#FFF68D"/><rect x="341" y="291" width="22" height="1" fill="#FFF68D"/><rect x="128" y="292" width="21" height="1" fill="#FFF68D"/><rect x="341" y="292" width="22" height="1" fill="#FFF68D"/><rect x="128" y="293" width="21" height="1" fill="#FFF68D"/><rect x="341" y="293" width="22" height="1" fill="#FFF68D"/><rect x="128" y="294" width="21" height="1" fill="#FFF68D"/><rect x="341" y="294" width="22" height="1" fill="#FFF68D"/><rect x="128" y="295" width="21" height="1" fill="#FFF68D"/><rect x="341" y="295" width="22" height="1" fill="#FFF68D"/><rect x="128" y="296" width="21" height="1" fill="#FFF68D"/><rect x="341" y="296" width="22" height="1" fill="#FFF68D"/><rect x="128" y="297" width="21" height="1" fill="#FFF68D"/><rect x="341" y="297" width="22" height="1" fill="#FFF68D"/><rect x="128" y="298" width="21" height="1" fill="#FFF68D"/><rect x="341" y="298" width="22" height="1" fill="#FFF68D"/><rect x="149" y="299" width="22" height="1" fill="#FFF68D"/><rect x="320" y="299" width="21" height="1" fill="#FFF68D"/><rect x="149" y="300" width="22" height="1" fill="#FFF68D"/><rect x="320" y="300" width="21" height="1" fill="#FFF68D"/><rect x="149" y="301" width="22" height="1" fill="#FFF68D"/><rect x="320" y="301" width="21" height="1" fill="#FFF68D"/><rect x="149" y="302" width="22" height="1" fill="#FFF68D"/><rect x="320" y="302" width="21" height="1" fill="#FFF68D"/><rect x="149" y="303" width="22" height="1" fill="#FFF68D"/><rect x="320" y="303" width="21" height="1" fill="#FFF68D"/><rect x="149" y="304" width="22" height="1" fill="#FFF68D"/><rect x="320" y="304" width="21" height="1" fill="#FFF68D"/><rect x="149" y="305" width="22" height="1" fill="#FFF68D"/><rect x="320" y="305" width="21" height="1" fill="#FFF68D"/><rect x="149" y="306" width="22" height="1" fill="#FFF68D"/><rect x="320" y="306" width="21" height="1" fill="#FFF68D"/><rect x="149" y="307" width="22" height="1" fill="#FFF68D"/><rect x="320" y="307" width="21" height="1" fill="#FFF68D"/><rect x="149" y="308" width="22" height="1" fill="#FFF68D"/><rect x="320" y="308" width="21" height="1" fill="#FFF68D"/><rect x="149" y="309" width="22" height="1" fill="#FFF68D"/><rect x="320" y="309" width="21" height="1" fill="#FFF68D"/><rect x="149" y="310" width="22" height="1" fill="#FFF68D"/><rect x="320" y="310" width="21" height="1" fill="#FFF68D"/><rect x="149" y="311" width="22" height="1" fill="#FFF68D"/><rect x="320" y="311" width="21" height="1" fill="#FFF68D"/><rect x="149" y="312" width="22" height="1" fill="#FFF68D"/><rect x="320" y="312" width="21" height="1" fill="#FFF68D"/><rect x="149" y="313" width="22" height="1" fill="#FFF68D"/><rect x="320" y="313" width="21" height="1" fill="#FFF68D"/><rect x="149" y="314" width="22" height="1" fill="#FFF68D"/><rect x="320" y="314" width="21" height="1" fill="#FFF68D"/><rect x="149" y="315" width="22" height="1" fill="#FFF68D"/><rect x="320" y="315" width="21" height="1" fill="#FFF68D"/><rect x="149" y="316" width="22" height="1" fill="#FFF68D"/><rect x="320" y="316" width="21" height="1" fill="#FFF68D"/><rect x="149" y="317" width="22" height="1" fill="#FFF68D"/><rect x="320" y="317" width="21" height="1" fill="#FFF68D"/><rect x="149" y="318" width="22" height="1" fill="#FFF68D"/><rect x="320" y="318" width="21" height="1" fill="#FFF68D"/><rect x="149" y="319" width="22" height="1" fill="#FFF68D"/><rect x="320" y="319" width="21" height="1" fill="#FFF68D"/></svg>