<svg xmlns="http://www.w3.org/2000/svg" viewBox="0 0 512 512" width="512" height="512" shape-rendering="crispEdges"><rect x="171" y="107" width="149" height="1" fill="#FFF68D"/><rect x="171" y="108" width="149" height="1" fill="#FFF68D"/><rect x="171" y="109" width="149" height="1" fill="#FFF68D"/><rect x="171" y="110" width="149" height="1" fill="#FFF68D"/><rect x="171" y="111" width="149" height="1" fill="#FFF68D"/><rect x="171" y="112" width="149" height="1" fill="#FFF68D"/><rect x="171" y="113" width="149" height="1" fill="#FFF68D"/><rect x="171" y="114" width="149" height="1" fill="#FFF68D"/><rect x="171" y="115" width="149" height="1" fill="#FFF68D"/><rect x="171" y="116" width="149" height="1" fill="#FFF68D"/><rect x="171" y="117" width="149" height="1" fill="#FFF68D"/><rect x="171" y="118" width="149" height="1" fill="#FFF68D"/><rect x="171" y="119" width="149" height="1" fill="#FFF68D"/><rect x="171" y="120" width="149" height="1" fill="#FFF68D"/><rect x="171" y="121" width="149" height="1" fill="#FFF68D"/><rect x="171" y="122" width="149" height="1" fill="#FFF68D"/><rect x="171" y="123" width="149" height="1" fill="#FFF68D"/><rect x="171" y="124" width="149" height="1" fill="#FFF68D"/><rect x="171" y="125" width="149" height="1" fill="#FFF68D"/><rect x="171" y="126" width="149" height="1" fill="#FFF68D"/><rect x="171" y="127" width="149" height="1" fill="#FFF68D"/><rect x="149" y="128" width="192" height="1" fill="#FFF68D"/><rect x="149" y="129" width="192" height="1" fill="#FFF68D"/><rect x="149" y="130" width="192" height="1" fill="#FFF68D"/><rect x="149" y="131" width="192" height="1" fill="#FFF68D"/><rect x="149" y="132" width="192" height="1" fill="#FFF68D"/><rect x="149" y="133" width="192" height="1" fill="#FFF68D"/><rect x="149" y="134" width="192" height="1" fill="#FFF68D"/><rect x="149" y="135" width="192" height="1" fill="#FFF68D"/><rect x="149" y="136" width="192" height="1" fill="#FFF68D"/><rect x="149" y="137" width="192" height="1" fill="#FFF68D"/><rect x="149" y="138" width="192" height="1" fill="#FFF68D"/><rect x="149" y="139" width="192" height="1" fill="#FFF68D"/><rect x="149" y="140" width="192" height="1" fill="#FFF68D"/><rect x="149" y="141" width="192" height="1" fill="#FFF68D"/><rect x="149" y="142" width="192" height="1" fill="#FFF68D"/><rect x="149" y="143" width="192" height="1" fill="#FFF68D"/><rect x="149" y="144" width="192" height="1" fill="#FFF68D"/><rect x="149" y="145" width="192" height="1" fill="#FFF68D"/><rect x="149" y="146" width="192" height="1" fill="#FFF68D"/><rect x="149" y="147" width="192" height="1" fill="#FFF68D"/><rect x="149" y="148" width="192" height="1" fill="#FFF68D"/><rect x="149" y="149" width="214" height="1" fill="#FFF68D"/><rect x="149" y="150" width="214" height="1" fill="#FFF68D"/><rect x="149" y="151" width="214" height="1" fill="#FFF68D"/><rect x="149" y="152" width="214" height="1" fill="#FFF68D"/><rect x="149" y="153" width="214" height="1" fill="#FFF68D"/><rect x="149" y="154" width="214" height="1" fill="#FFF68D"/><rect x="149" y="155" width="214" height="1" fill="#FFF68D"/><rect x="149" y="156" width="214" height="1" fill="#FFF68D"/><rect x="149" y="157" width="214" height="1" fill="#FFF68D"/><rect x="149" y="158" width="214" height="1" fill="#FFF68D"/><rect x="149" y="159" width="214" height="1" fill="#FFF68D"/><rect x="149" y="160" width="214" height="1" fill="#FFF68D"/><rect x="149" y="161" width="214" height="1" fill="#FFF68D"/><rect x="149" y="162" width="214" height="1" fill="#FFF68D"/><rect x="149" y="163" width="214" height="1" fill="#FFF68D"/><rect x="149" y="164" width="214" height="1" fill="#FFF68D"/><rect x="149" y="165" width="214" height="1" fill="#FFF68D"/><rect x="149" y="166" width="214" height="1" fill="#FFF68D"/><rect x="149" y="167" width="214" height="1" fill="#FFF68D"/><rect x="149" y="168" width="214" height="1" fill="#FFF68D"/><rect x="149" y="169" width="214" height="1" fill="#FFF68D"/><rect x="149" y="170" width="214" height="1" fill="#FFF68D"/><rect x="128" y="171" width="171" height="1" fill="#FFF68D"/><rect x="320" y="171" width="64" height="1" fill="#FFF68D"/><rect x="128" y="172" width="171" height="1" fill="#FFF68D"/><rect x="320" y="172" width="64" height="1" fill="#FFF68D"/><rect x="128" y="173" width="171" height="1" fill="#FFF68D"/><rect x="320" y="173" width="64" height="1" fill="#FFF68D"/><rect x="128" y="174" width="171" height="1" fill="#FFF68D"/><rect x="320" y="174" width="64" height="1" fill="#FFF68D"/><rect x="128" y="175" width="171" height="1" fill="#FFF68D"/><rect x="320" y="175" width="64" height="1" fill="#FFF68D"/><rect x="128" y="176" width="171" height="1" fill="#FFF68D"/><rect x="320" y="176" width="64" height="1" fill="#FFF68D"/><rect x="128" y="177" width="171" height="1" fill="#FFF68D"/><rect x="320" y="177" width="64" height="1" fill="#FFF68D"/><rect x="128" y="178" width="171" height="1" fill="#FFF68D"/><rect x="320" y="178" width="64" height="1" fill="#FFF68D"/><rect x="128" y="179" width="171" height="1" fill="#FFF68D"/><rect x="320" y="179" width="64" height="1" fill="#FFF68D"/><rect x="128" y="180" width="171" height="1" fill="#FFF68D"/><rect x="320" y="180" width="64" height="1" fill="#FFF68D"/><rect x="128" y="181" width="171" height="1" fill="#FFF68D"/><rect x="320" y="181" width="64" height="1" fill="#FFF68D"/><rect x="128" y="182" width="171" height="1" fill="#FFF68D"/><rect x="320" y="182" width="64" height="1" fill="#FFF68D"/><rect x="128" y="183" width="171" height="1" fill="#FFF68D"/><rect x="320" y="183" width="64" height="1" fill="#FFF68D"/><rect x="128" y="184" width="171" height="1" fill="#FFF68D"/><rect x="320" y="184" width="64" height="1" fill="#FFF68D"/><rect x="128" y="185" width="171" height="1" fill="#FFF68D"/><rect x="320" y="185" width="64" height="1" fill="#FFF68D"/><rect x="128" y="186" width="171" height="1" fill="#FFF68D"/><rect x="320" y="186" width="64" height="1" fill="#FFF68D"/><rect x="128" y="187" width="171" height="1" fill="#FFF68D"/><rect x="320" y="187" width="64" height="1" fill="#FFF68D"/><rect x="128" y="188" width="171" height="1" fill="#FFF68D"/><rect x="320" y="188" width="64" height="1" fill="#FFF68D"/><rect x="128" y="189" width="171" height="1" fill="#FFF68D"/><rect x="320" y="189" width="64" height="1" fill="#FFF68D"/><rect x="128" y="190" width="171" height="1" fill="#FFF68D"/><rect x="320" y="190" width="64" height="1" fill="#FFF68D"/><rect x="128" y="191" width="171" height="1" fill="#FFF68D"/><rect x="320" y="191" width="64" height="1" fill="#FFF68D"/><rect x="128" y="192" width="43" height="1" fill="#FFF68D"/><rect x="192" y="192" width="85" height="1" fill="#FFF68D"/><rect x="341" y="192" width="43" height="1" fill="#FFF68D"/><rect x="128" y="193" width="43" height="1" fill="#FFF68D"/><rect x="192" y="193" width="85" height="1" fill="#FFF68D"/><rect x="341" y="193" width="43" height="1" fill="#FFF68D"/><rect x="128" y="194" width="43" height="1" fill="#FFF68D"/><rect x="192" y="194" width="85" height="1" fill="#FFF68D"/><rect x="341" y="194" width="43" height="1" fill="#FFF68D"/><rect x="128" y="195" width="43" height="1" fill="#FFF68D"/><rect x="192" y="195" width="85" height="1" fill="#FFF68D"/><rect x="341" y="195" width="43" height="1" fill="#FFF68D"/><rect x="128" y="196" width="43" height="1" fill="#FFF68D"/><rect x="192" y="196" width="85" height="1" fill="#FFF68D"/><rect x="341" y="196" width="43" height="1" fill="#FFF68D"/><rect x="128" y="197" width="43" height="1" fill="#FFF68D"/><rect x="192" y="197" width="85" height="1" fill="#FFF68D"/><rect x="341" y="197" width="43" height="1" fill="#FFF68D"/><rect x="128" y="198" width="43" height="1" fill="#FFF68D"/><rect x="192" y="198" width="85" height="1" fill="#FFF68D"/><rect x="341" y="198" width="43" height="1" fill="#FFF68D"/><rect x="128" y="199" width="43" height="1" fill="#FFF68D"/><rect x="192" y="199" width="85" height="1" fill="#FFF68D"/><rect x="341" y="199" width="43" height="1" fill="#FFF68D"/><rect x="128" y="200" width="43" height="1" fill="#FFF68D"/><rect x="192" y="200" width="85" height="1" fill="#FFF68D"/><rect x="341" y="200" width="43" height="1" fill="#FFF68D"/><rect x="128" y="201" width="43" height="1" fill="#FFF68D"/><rect x="192" y="201" width="85" height="1" fill="#FFF68D"/><rect x="341" y="201" width="43" height="1" fill="#FFF68D"/><rect x="128" y="202" width="43" height="1" fill="#FFF68D"/><rect x="192" y="202" width="85" height="1" fill="#FFF68D"/><rect x="341" y="202" width="43" height="1" fill="#FFF68D"/><rect x="128" y="203" width="43" height="1" fill="#FFF68D"/><rect x="192" y="203" width="85" height="1" fill="#FFF68D"/><rect x="341" y="203" width="43" height="1" fill="#FFF68D"/><rect x="128" y="204" width="43" height="1" fill="#FFF68D"/><rect x="192" y="204" width="85" height="1" fill="#FFF68D"/><rect x="341" y="204" width="43" height="1" fill="#FFF68D"/><rect x="128" y="205" width="43" height="1" fill="#FFF68D"/><rect x="192" y="205" width="85" height="1" fill="#FFF68D"/><rect x="341" y="205" width="43" height="1" fill="#FFF68D"/><rect x="128" y="206" width="43" height="1" fill="#FFF68D"/><rect x="192" y="206" width="85" height="1" fill="#FFF68D"/><rect x="341" y="206" width="43" height="1" fill="#FFF68D"/><rect x="128" y="207" width="43" height="1" fill="#FFF68D"/><rect x="192" y="207" width="85" height="1" fill="#FFF68D"/><rect x="341" y="207" width="43" height="1" fill="#FFF68D"/><rect x="128" y="208" width="43" height="1" fill="#FFF68D"/><rect x="192" y="208" width="85" height="1" fill="#FFF68D"/><rect x="341" y="208" width="43" height="1" fill="#FFF68D"/><rect x="128" y="209" width="43" height="1" fill="#FFF68D"/><rect x="192" y="209" width="85" height="1" fill="#FFF68D"/><rect x="341" y="209" width="43" height="1" fill="#FFF68D"/><rect x="128" y="210" width="43" height="1" fill="#FFF68D"/><rect x="192" y="210" width="85" height="1" fill="#FFF68D"/><rect x="341" y="210" width="43" height="1" fill="#FFF68D"/><rect x="128" y="211" width="43" height="1" fill="#FFF68D"/><rect x="192" y="211" width="85" height="1" fill="#FFF68D"/><rect x="341" y="211" width="43" height="1" fill="#FFF68D"/><rect x="128" y="212" width="43" height="1" fill="#FFF68D"/><rect x="192" y="212" width="85" height="1" fill="#FFF68D"/><rect x="341" y="212" width="43" height="1" fill="#FFF68D"/><rect x="128" y="213" width="43" height="1" fill="#FFF68D"/><rect x="235" y="213" width="21" height="1" fill="#FFF68D"/><rect x="341" y="213" width="43" height="1" fill="#FFF68D"/><rect x="128" y="214" width="43" height="1" fill="#FFF68D"/><rect x="235" y="214" width="21" height="1" fill="#FFF68D"/><rect x="341" y="214" width="43" height="1" fill="#FFF68D"/><rect x="128" y="215" width="43" height="1" fill="#FFF68D"/><rect x="235" y="215" width="21" height="1" fill="#FFF68D"/><rect x="341" y="215" width="43" height="1" fill="#FFF68D"/><rect x="128" y="216" width="43" height="1" fill="#FFF68D"/><rect x="235" y="216" width="21" height="1" fill="#FFF68D"/><rect x="341" y="216" width="43" height="1" fill="#FFF68D"/><rect x="128" y="217" width="43" height="1" fill="#FFF68D"/><rect x="235" y="217" width="21" height="1" fill="#FFF68D"/><rect x="341" y="217" width="43" height="1" fill="#FFF68D"/><rect x="128" y="218" width="43" height="1" fill="#FFF68D"/><rect x="235" y="218" width="21" height="1" fill="#FFF68D"/><rect x="341" y="218" width="43" height="1" fill="#FFF68D"/><rect x="128" y="219" width="43" height="1" fill="#FFF68D"/><rect x="235" y="219" width="21" height="1" fill="#FFF68D"/><rect x="341" y="219" width="43" height="1" fill="#FFF68D"/><rect x="128" y="220" width="43" height="1" fill="#FFF68D"/><rect x="235" y="220" width="21" height="1" fill="#FFF68D"/><rect x="341" y="220" width="43" height="1" fill="#FFF68D"/><rect x="128" y="221" width="43" height="1" fill="#FFF68D"/><rect x="235" y="221" width="21" height="1" fill="#FFF68D"/><rect x="341" y="221" width="43" height="1" fill="#FFF68D"/><rect x="128" y="222" width="43" height="1" fill="#FFF68D"/><rect x="235" y="222" width="21" height="1" fill="#FFF68D"/><rect x="341" y="222" width="43" height="1" fill="#FFF68D"/><rect x="128" y="223" width="43" height="1" fill="#FFF68D"/><rect x="235" y="223" width="21" height="1" fill="#FFF68D"/><rect x="341" y="223" width="43" height="1" fill="#FFF68D"/><rect x="128" y="224" width="43" height="1" fill="#FFF68D"/><rect x="235" y="224" width="21" height="1" fill="#FFF68D"/><rect x="341" y="224" width="43" height="1" fill="#FFF68D"/><rect x="128" y="225" width="43" height="1" fill="#FFF68D"/><rect x="235" y="225" width="21" height="1" fill="#FFF68D"/><rect x="341" y="225" width="43" height="1" fill="#FFF68D"/><rect x="128" y="226" width="43" height="1" fill="#FFF68D"/><rect x="235" y="226" width="21" height="1" fill="#FFF68D"/><rect x="341" y="226" width="43" height="1" fill="#FFF68D"/><rect x="128" y="227" width="43" height="1" fill="#FFF68D"/><rect x="235" y="227" width="21" height="1" fill="#FFF68D"/><rect x="341" y="227" width="43" height="1" fill="#FFF68D"/><rect x="128" y="228" width="43" height="1" fill="#FFF68D"/><rect x="235" y="228" width="21" height="1" fill="#FFF68D"/><rect x="341" y="228" width="43" height="1" fill="#FFF68D"/><rect x="128" y="229" width="43" height="1" fill="#FFF68D"/><rect x="235" y="229" width="21" height="1" fill="#FFF68D"/><rect x="341" y="229" width="43" height="1" fill="#FFF68D"/><rect x="128" y="230" width="43" height="1" fill="#FFF68D"/><rect x="235" y="230" width="21" height="1" fill="#FFF68D"/><rect x="341" y="230" width="43" height="1" fill="#FFF68D"/><rect x="128" y="231" width="43" height="1" fill="#FFF68D"/><rect x="235" y="231" width="21" height="1" fill="#FFF68D"/><rect x="341" y="231" width="43" height="1" fill="#FFF68D"/><rect x="128" y="232" width="43" height="1" fill="#FFF68D"/><rect x="235" y="232" width="21" height="1" fill="#FFF68D"/><rect x="341" y="232" width="43" height="1" fill="#FFF68D"/><rect x="128" y="233" width="43" height="1" fill="#FFF68D"/><rect x="235" y="233" width="21" height="1" fill="#FFF68D"/><rect x="341" y="233" width="43" height="1" fill="#FFF68D"/><rect x="128" y="234" width="43" height="1" fill="#FFF68D"/><rect x="235" y="234" width="21" height="1" fill="#FFF68D"/><rect x="341" y="234" width="43" height="1" fill="#FFF68D"/><rect x="107" y="235" width="64" height="1" fill="#FFF68D"/><rect x="341" y="235" width="43" height="1" fill="#FFF68D"/><rect x="107" y="236" width="64" height="1" fill="#FFF68D"/><rect x="341" y="236" width="43" height="1" fill="#FFF68D"/><rect x="107" y="237" width="64" height="1" fill="#FFF68D"/><rect x="341" y="237" width="43" height="1" fill="#FFF68D"/><rect x="107" y="238" width="64" height="1" fill="#FFF68D"/><rect x="341" y="238" width="43" height="1" fill="#FFF68D"/><rect x="107" y="239" width="64" height="1" fill="#FFF68D"/><rect x="341" y="239" width="43" height="1" fill="#FFF68D"/><rect x="107" y="240" width="64" height="1" fill="#FFF68D"/><rect x="341" y="240" width="43" height="1" fill="#FFF68D"/><rect x="107" y="241" width="64" height="1" fill="#FFF68D"/><rect x="341" y="241" width="43" height="1" fill="#FFF68D"/><rect x="107" y="242" width="64" height="1" fill="#FFF68D"/><rect x="341" y="242" width="43" height="1" fill="#FFF68D"/><rect x="107" y="243" width="64" height="1" fill="#FFF68D"/><rect x="341" y="243" width="43" height="1" fill="#FFF68D"/><rect x="107" y="244" width="64" height="1" fill="#FFF68D"/><rect x="341" y="244" width="43" height="1" fill="#FFF68D"/><rect x="107" y="245" width="64" height="1" fill="#FFF68D"/><rect x="341" y="245" width="43" height="1" fill="#FFF68D"/><rect x="107" y="246" width="64" height="1" fill="#FFF68D"/><rect x="341" y="246" width="43" height="1" fill="#FFF68D"/><rect x="107" y="247" width="64" height="1" fill="#FFF68D"/><rect x="341" y="247" width="43" height="1" fill="#FFF68D"/><rect x="107" y="248" width="64" height="1" fill="#FFF68D"/><rect x="341" y="248" width="43" height="1" fill="#FFF68D"/><rect x="107" y="249" width="64" height="1" fill="#FFF68D"/><rect x="341" y="249" width="43" height="1" fill="#FFF68D"/><rect x="107" y="250" width="64" height="1" fill="#FFF68D"/><rect x="341" y="250" width="43" height="1" fill="#FFF68D"/><rect x="107" y="251" width="64" height="1" fill="#FFF68D"/><rect x="341" y="251" width="43" height="1" fill="#FFF68D"/><rect x="107" y="252" width="64" height="1" fill="#FFF68D"/><rect x="341" y="252" width="43" height="1" fill="#FFF68D"/><rect x="107" y="253" width="64" height="1" fill="#FFF68D"/><rect x="341" y="253" width="43" height="1" fill="#FFF68D"/><rect x="107" y="254" width="64" height="1" fill="#FFF68D"/><rect x="341" y="254" width="43" height="1" fill="#FFF68D"/><rect x="107" y="255" width="64" height="1" fill="#FFF68D"/><rect x="341" y="255" width="43" height="1" fill="#FFF68D"/><rect x="107" y="256" width="42" height="1" fill="#FFF68D"/><rect x="341" y="256" width="43" height="1" fill="#FFF68D"/><rect x="107" y="257" width="42" height="1" fill="#FFF68D"/><rect x="341" y="257" width="43" height="1" fill="#FFF68D"/><rect x="107" y="258" width="42" height="1" fill="#FFF68D"/><rect x="341" y="258" width="43" height="1" fill="#FFF68D"/><rect x="107" y="259" width="42" height="1" fill="#FFF68D"/><rect x="341" y="259" width="43" height="1" fill="#FFF68D"/><rect x="107" y="260" width="42" height="1" fill="#FFF68D"/><rect x="341" y="260" width="43" height="1" fill="#FFF68D"/><rect x="107" y="261" width="42" height="1" fill="#FFF68D"/><rect x="341" y="261" width="43" height="1" fill="#FFF68D"/><rect x="107" y="262" width="42" height="1" fill="#FFF68D"/><rect x="341" y="262" width="43" height="1" fill="#FFF68D"/><rect x="107" y="263" width="42" height="1" fill="#FFF68D"/><rect x="341" y="263" width="43" height="1" fill="#FFF68D"/><rect x="107" y="264" width="42" height="1" fill="#FFF68D"/><rect x="341" y="264" width="43" height="1" fill="#FFF68D"/><rect x="107" y="265" width="42" height="1" fill="#FFF68D"/><rect x="341" y="265" width="43" height="1" fill="#FFF68D"/><rect x="107" y="266" width="42" height="1" fill="#FFF68D"/><rect x="341" y="266" width="43" height="1" fill="#FFF68D"/><rect x="107" y="267" width="42" height="1" fill="#FFF68D"/><rect x="341" y="267" width="43" height="1" fill="#FFF68D"/><rect x="107" y="268" width="42" height="1" fill="#FFF68D"/><rect x="341" y="268" width="43" height="1" fill="#FFF68D"/><rect x="107" y="269" width="42" height="1" fill="#FFF68D"/><rect x="341" y="269" width="43" height="1" fill="#FFF68D"/><rect x="107" y="270" width="42" height="1" fill="#FFF68D"/><rect x="341" y="270" width="43" height="1" fill="#FFF68D"/><rect x="107" y="271" width="42" height="1" fill="#FFF68D"/><rect x="341" y="271" width="43" height="1" fill="#FFF68D"/><rect x="107" y="272" width="42" height="1" fill="#FFF68D"/><rect x="341" y="272" width="43" height="1" fill="#FFF68D"/><rect x="107" y="273" width="42" height="1" fill="#FFF68D"/><rect x="341" y="273" width="43" height="1" fill="#FFF68D"/><rect x="107" y="274" width="42" height="1" fill="#FFF68D"/><rect x="341" y="274" width="43" height="1" fill="#FFF68D"/><rect x="107" y="275" width="42" height="1" fill="#FFF68D"/><rect x="341" y="275" width="43" height="1" fill="#FFF68D"/><rect x="107" y="276" width="42" height="1" fill="#FFF68D"/><rect x="341" y="276" width="43" height="1" fill="#FFF68D"/><rect x="107" y="277" width="42" height="1" fill="#FFF68D"/><rect x="341" y="277" width="43" height="1" fill="#FFF68D"/><rect x="107" y="278" width="42" height="1" fill="#FFF68D"/><rect x="341" y="278" width="43" height="1" fill="#FFF68D"/><rect x="107" y="279" width="42" height="1" fill="#FFF68D"/><rect x="341" y="279" width="43" height="1" fill="#FFF68D"/><rect x="107" y="280" width="42" height="1" fill="#FFF68D"/><rect x="341" y="280" width="43" height="1" fill="#FFF68D"/><rect x="107" y="281" width="42" height="1" fill="#FFF68D"/><rect x="341" y="281" width="43" height="1" fill="#FFF68D"/><rect x="107" y="282" width="42" height="1" fill="#FFF68D"/><rect x="341" y="282" width="43" height="1" fill="#FFF68D"/><rect x="107" y="283" width="42" height="1" fill="#FFF68D"/><rect x="341" y="283" width="43" height="1" fill="#FFF68D"/><rect x="107" y="284" width="42" height="1" fill="#FFF68D"/><rect x="341" y="284" width="43" height="1" fill="#FFF68D"/><rect x="107" y="285" width="42" height="1" fill="#FFF68D"/><rect x="341" y="285" width="43" height="1" fill="#FFF68D"/><rect x="107" y="286" width="42" height="1" fill="#FFF68D"/><rect x="341" y="286" width="43" height="1" fill="#FFF68D"/><rect x="107" y="287" width="42" height="1" fill="#FFF68D"/><rect x="341" y="287" width="43" height="1" fill="#FFF68D"/><rect x="107" y="288" width="42" height="1" fill="#FFF68D"/><rect x="341" y="288" width="43" height="1" fill="#FFF68D"/><rect x="107" y="289" width="42" height="1" fill="#FFF68D"/><rect x="341" y="289" width="43" height="1" fill="#FFF68D"/><rect x="107" y="290" width="42" height="1" fill="#FFF68D"/><rect x="341" y="290" width="43" height="1" fill="#FFF68D"/><rect x="107" y="291" width="42" height="1" fill="#FFF68D"/><rect x="341" y="291" width="43" height="1" fill="#FFF68D"/><rect x="107" y="292" width="42" height="1" fill="#FFF68D"/><rect x="341" y="292" width="43" height="1" fill="#FFF68D"/><rect x="107" y="293" width="42" height="1" fill="#FFF68D"/><rect x="341" y="293" width="43" height="1" fill="#FFF68D"/><rect x="107" y="294" width="42" height="1" fill="#FFF68D"/><rect x="341" y="294" width="43" height="1" fill="#FFF68D"/><rect x="107" y="295" width="42" height="1" fill="#FFF68D"/><rect x="341" y="295" width="43" height="1" fill="#FFF68D"/><rect x="107" y="296" width="42" height="1" fill="#FFF68D"/><rect x="341" y="296" width="43" height="1" fill="#FFF68D"/><rect x="107" y="297" width="42" height="1" fill="#FFF68D"/><rect x="341" y="297" width="43" height="1" fill="#FFF68D"/><rect x="107" y="298" width="42" height="1" fill="#FFF68D"/><rect x="341" y="298" width="43" height="1" fill="#FFF68D"/><rect x="107" y="299" width="64" height="1" fill="#FFF68D"/><rect x="341" y="299" width="43" height="1" fill="#FFF68D"/><rect x="107" y="300" width="64" height="1" fill="#FFF68D"/><rect x="341" y="300" width="43" height="1" fill="#FFF68D"/><rect x="107" y="301" width="64" height="1" fill="#FFF68D"/><rect x="341" y="301" width="43" height="1" fill="#FFF68D"/><rect x="107" y="302" width="64" height="1" fill="#FFF68D"/><rect x="341" y="302" width="43" height="1" fill="#FFF68D"/><rect x="107" y="303" width="64" height="1" fill="#FFF68D"/><rect x="341" y="303" width="43" height="1" fill="#FFF68D"/><rect x="107" y="304" width="64" height="1" fill="#FFF68D"/><rect x="341" y="304" width="43" height="1" fill="#FFF68D"/><rect x="107" y="305" width="64" height="1" fill="#FFF68D"/><rect x="341" y="305" width="43" height="1" fill="#FFF68D"/><rect x="107" y="306" width="64" height="1" fill="#FFF68D"/><rect x="341" y="306" width="43" height="1" fill="#FFF68D"/><rect x="107" y="307" width="64" height="1" fill="#FFF68D"/><rect x="341" y="307" width="43" height="1" fill="#FFF68D"/><rect x="107" y="308" width="64" height="1" fill="#FFF68D"/><rect x="341" y="308" width="43" height="1" fill="#FFF68D"/><rect x="107" y="309" width="64" height="1" fill="#FFF68D"/><rect x="341" y="309" width="43" height="1" fill="#FFF68D"/><rect x="107" y="310" width="64" height="1" fill="#FFF68D"/><rect x="341" y="310" width="43" height="1" fill="#FFF68D"/><rect x="107" y="311" width="64" height="1" fill="#FFF68D"/><rect x="341" y="311" width="43" height="1" fill="#FFF68D"/><rect x="107" y="312" width="64" height="1" fill="#FFF68D"/><rect x="341" y="312" width="43" height="1" fill="#FFF68D"/><rect x="107" y="313" width="64" height="1" fill="#FFF68D"/><rect x="341" y="313" width="43" height="1" fill="#FFF68D"/><rect x="107" y="314" width="64" height="1" fill="#FFF68D"/><rect x="341" y="314" width="43" height="1" fill="#FFF68D"/><rect x="107" y="315" width="64" height="1" fill="#FFF68D"/><rect x="341" y="315" width="43" height="1" fill="#FFF68D"/><rect x="107" y="316" width="64" height="1" fill="#FFF68D"/><rect x="341" y="316" width="43" height="1" fill="#FFF68D"/><rect x="107" y="317" width="64" height="1" fill="#FFF68D"/><rect x="341" y="317" width="43" height="1" fill="#FFF68D"/><rect x="107" y="318" width="64" height="1" fill="#FFF68D"/><rect x="341" y="318" width="43" height="1" fill="#FFF68D"/><rect x="107" y="319" width="64" height="1" fill="#FFF68D"/><rect x="341" y="319" width="43" height="1" fill="#FFF68D"/><rect x="107" y="320" width="64" height="1" fill="#FFF68D"/><rect x="341" y="320" width="64" height="1" fill="#FFF68D"/><rect x="107" y="321" width="64" height="1" fill="#FFF68D"/><rect x="341" y="321" width="64" height="1" fill="#FFF68D"/><rect x="107" y="322" width="64" height="1" fill="#FFF68D"/><rect x="341" y="322" width="64" height="1" fill="#FFF68D"/><rect x="107" y="323" width="64" height="1" fill="#FFF68D"/><rect x="341" y="323" width="64" height="1" fill="#FFF68D"/><rect x="107" y="324" width="64" height="1" fill="#FFF68D"/><rect x="341" y="324" width="64" height="1" fill="#FFF68D"/><rect x="107" y="325" width="64" height="1" fill="#FFF68D"/><rect x="341" y="325" width="64" height="1" fill="#FFF68D"/><rect x="107" y="326" width="64" height="1" fill="#FFF68D"/><rect x="341" y="326" width="64" height="1" fill="#FFF68D"/><rect x="107" y="327" width="64" height="1" fill="#FFF68D"/><rect x="341" y="327" width="64" height="1" fill="#FFF68D"/><rect x="107" y="328" width="64" height="1" fill="#FFF68D"/><rect x="341" y="328" width="64" height="1" fill="#FFF68D"/><rect x="107" y="329" width="64" height="1" fill="#FFF68D"/><rect x="341" y="329" width="64" height="1" fill="#FFF68D"/><rect x="107" y="330" width="64" height="1" fill="#FFF68D"/><rect x="341" y="330" width="64" height="1" fill="#FFF68D"/><rect x="107" y="331" width="64" height="1" fill="#FFF68D"/><rect x="341" y="331" width="64" height="1" fill="#FFF68D"/><rect x="107" y="332" width="64" height="1" fill="#FFF68D"/><rect x="341" y="332" width="64" height="1" fill="#FFF68D"/><rect x="107" y="333" width="64" height="1" fill="#FFF68D"/><rect x="341" y="333" width="64" height="1" fill="#FFF68D"/><rect x="107" y="334" width="64" height="1" fill="#FFF68D"/><rect x="341" y="334" width="64" height="1" fill="#FFF68D"/><rect x="107" y="335" width="64" height="1" fill="#FFF68D"/><rect x="341" y="335" width="64" height="1" fill="#FFF68D"/><rect x="107" y="336" width="64" height="1" fill="#FFF68D"/><rect x="341" y="336" width="64" height="1" fill="#FFF68D"/><rect x="107" y="337" width="64" height="1" fill="#FFF68D"/><rect x="341" y="337" width="64" height="1" fill="#FFF68D"/><rect x="107" y="338" width="64" height="1" fill="#FFF68D"/><rect x="341" y="338" width="64" height="1" fill="#FFF68D"/><rect x="107" y="339" width="64" height="1" fill="#FFF68D"/><rect x="341" y="339" width="64" height="1" fill="#FFF68D"/><rect x="107" y="340" width="64" height="1" fill="#FFF68D"/><rect x="341" y="340" width="64" height="1" fill="#FFF68D"/><rect x="107" y="341" width="64" height="1" fill="#FFF68D"/><rect x="341" y="341" width="64" height="1" fill="#FFF68D"/><rect x="107" y="342" width="64" height="1" fill="#FFF68D"/><rect x="341" y="342" width="64" height="1" fill="#FFF68D"/><rect x="107" y="343" width="64" height="1" fill="#FFF68D"/><rect x="341" y="343" width="64" height="1" fill="#FFF68D"/><rect x="107" y="344" width="64" height="1" fill="#FFF68D"/><rect x="341" y="344" width="64" height="1" fill="#FFF68D"/><rect x="107" y="345" width="64" height="1" fill="#FFF68D"/><rect x="341" y="345" width="64" height="1" fill="#FFF68D"/><rect x="107" y="346" width="64" height="1" fill="#FFF68D"/><rect x="341" y="346" width="64" height="1" fill="#FFF68D"/><rect x="107" y="347" width="64" height="1" fill="#FFF68D"/><rect x="341" y="347" width="64" height="1" fill="#FFF68D"/><rect x="107" y="348" width="64" height="1" fill="#FFF68D"/><rect x="341" y="348" width="64" height="1" fill="#FFF68D"/><rect x="107" y="349" width="64" height="1" fill="#FFF68D"/><rect x="341" y="349" width="64" height="1" fill="#FFF68D"/><rect x="107" y="350" width="64" height="1" fill="#FFF68D"/><rect x="341" y="350" width="64" height="1" fill="#FFF68D"/><rect x="107" y="351" width="64" height="1" fill="#FFF68D"/><rect x="341" y="351" width="64" height="1" fill="#FFF68D"/><rect x="107" y="352" width="64" height="1" fill="#FFF68D"/><rect x="341" y="352" width="64" height="1" fill="#FFF68D"/><rect x="107" y="353" width="64" height="1" fill="#FFF68D"/><rect x="341" y="353" width="64" height="1" fill="#FFF68D"/><rect x="107" y="354" width="64" height="1" fill="#FFF68D"/><rect x="341" y="354" width="64" height="1" fill="#FFF68D"/><rect x="107" y="355" width="64" height="1" fill="#FFF68D"/><rect x="341" y="355" width="64" height="1" fill="#FFF68D"/><rect x="107" y="356" width="64" height="1" fill="#FFF68D"/><rect x="341" y="356" width="64" height="1" fill="#FFF68D"/><rect x="107" y="357" width="64" height="1" fill="#FFF68D"/><rect x="341" y="357" width="64" height="1" fill="#FFF68D"/><rect x="107" y="358" width="64" height="1" fill="#FFF68D"/><rect x="341" y="358" width="64" height="1" fill="#FFF68D"/><rect x="107" y="359" width="64" height="1" fill="#FFF68D"/><rect x="341" y="359" width="64" height="1" fill="#FFF68D"/><rect x="107" y="360" width="64" height="1" fill="#FFF68D"/><rect x="341" y="360" width="64" height="1" fill="#FFF68D"/><rect x="107" y="361" width="64" height="1" fill="#FFF68D"/><rect x="341" y="361" width="64" height="1" fill="#FFF68D"/><rect x="107" y="362" width="64" height="1" fill="#FFF68D"/><rect x="341" y="362" width="64" height="1" fill="#FFF68D"/><rect x="85" y="363" width="107" height="1" fill="#FFF68D"/><rect x="341" y="363" width="86" height="1" fill="#FFF68D"/><rect x="85" y="364" width="107" height="1" fill="#FFF68D"/><rect x="341" y="364" width="86" height="1" fill="#FFF68D"/><rect x="85" y="365" width="107" height="1" fill="#FFF68D"/><rect x="341" y="365" width="86" height="1" fill="#FFF68D"/><rect x="85" y="366" width="107" height="1" fill="#FFF68D"/><rect x="341" y="366" width="86" height="1" fill="#FFF68D"/><rect x="85" y="367" width="107" height="1" fill="#FFF68D"/><rect x="341" y="367" width="86" height="1" fill="#FFF68D"/><rect x="85" y="368" width="107" height="1" fill="#FFF68D"/><rect x="341" y="368" width="86" height="1" fill="#FFF68D"/><rect x="85" y="369" width="107" height="1" fill="#FFF68D"/><rect x="341" y="369" width="86" height="1" fill="#FFF68D"/><rect x="85" y="370" width="107" height="1" fill="#FFF68D"/><rect x="341" y="370" width="86" height="1" fill="#FFF68D"/><rect x="85" y="371" width="107" height="1" fill="#FFF68D"/><rect x="341" y="371" width="86" height="1" fill="#FFF68D"/><rect x="85" y="372" width="107" height="1" fill="#FFF68D"/><rect x="341" y="372" width="86" height="1" fill="#FFF68D"/><rect x="85" y="373" width="107" height="1" fill="#FFF68D"/><rect x="341" y="373" width="86" height="1" fill="#FFF68D"/><rect x="85" y="374" width="107" height="1" fill="#FFF68D"/><rect x="341" y="374" width="86" height="1" fill="#FFF68D"/><rect x="85" y="375" width="107" height="1" fill="#FFF68D"/><rect x="341" y="375" width="86" height="1" fill="#FFF68D"/><rect x="85" y="376" width="107" height="1" fill="#FFF68D"/><rect x="341" y="376" width="86" height="1" fill="#FFF68D"/><rect x="85" y="377" width="107" height="1" fill="#FFF68D"/><rect x="341" y="377" width="86" height="1" fill="#FFF68D"/><rect x="85" y="378" width="107" height="1" fill="#FFF68D"/><rect x="341" y="378" width="86" height="1" fill="#FFF68D"/><rect x="85" y="379" width="107" height="1" fill="#FFF68D"/><rect x="341" y="379" width="86" height="1" fill="#FFF68D"/><rect x="85" y="380" width="107" height="1" fill="#FFF68D"/><rect x="341" y="380" width="86" height="1" fill="#FFF68D"/><rect x="85" y="381" width="107" height="1" fill="#FFF68D"/><rect x="341" y="381" width="86" height="1" fill="#FFF68D"/><rect x="85" y="382" width="107" height="1" fill="#FFF68D"/><rect x="341" y="382" width="86" height="1" fill="#FFF68D"/><rect x="85" y="383" width="107" height="1" fill="#FFF68D"/><rect x="341" y="383" width="86" height="1" fill="#FFF68D"/><rect x="128" y="384" width="85" height="1" fill="#FFF68D"/><rect x="320" y="384" width="43" height="1" fill="#FFF68D"/><rect x="128" y="385" width="85" height="1" fill="#FFF68D"/><rect x="320" y="385" width="43" height="1" fill="#FFF68D"/><rect x="128" y="386" width="85" height="1" fill="#FFF68D"/><rect x="320" y="386" width="43" height="1" fill="#FFF68D"/><rect x="128" y="387" width="85" height="1" fill="#FFF68D"/><rect x="320" y="387" width="43" height="1" fill="#FFF68D"/><rect x="128" y="388" width="85" height="1" fill="#FFF68D"/><rect x="320" y="388" width="43" height="1" fill="#FFF68D"/><rect x="128" y="389" width="85" height="1" fill="#FFF68D"/><rect x="320" y="389" width="43" height="1" fill="#FFF68D"/><rect x="128" y="390" width="85" height="1" fill="#FFF68D"/><rect x="320" y="390" width="43" height="1" fill="#FFF68D"/><rect x="128" y="391" width="85" height="1" fill="#FFF68D"/><rect x="320" y="391" width="43" height="1" fill="#FFF68D"/><rect x="128" y="392" width="85" height="1" fill="#FFF68D"/><rect x="320" y="392" width="43" height="1" fill="#FFF68D"/><rect x="128" y="393" width="85" height="1" fill="#FFF68D"/><rect x="320" y="393" width="43" height="1" fill="#FFF68D"/><rect x="128" y="394" width="85" height="1" fill="#FFF68D"/><rect x="320" y="394" width="43" height="1" fill="#FFF68D"/><rect x="128" y="395" width="85" height="1" fill="#FFF68D"/><rect x="320" y="395" width="43" height="1" fill="#FFF68D"/><rect x="128" y="396" width="85" height="1" fill="#FFF68D"/><rect x="320" y="396" width="43" height="1" fill="#FFF68D"/><rect x="128" y="397" width="85" height="1" fill="#FFF68D"/><rect x="320" y="397" width="43" height="1" fill="#FFF68D"/><rect x="128" y="398" width="85" height="1" fill="#FFF68D"/><rect x="320" y="398" width="43" height="1" fill="#FFF68D"/><rect x="128" y="399" width="85" height="1" fill="#FFF68D"/><rect x="320" y="399" width="43" height="1" fill="#FFF68D"/><rect x="128" y="400" width="85" height="1" fill="#FFF68D"/><rect x="320" y="400" width="43" height="1" fill="#FFF68D"/><rect x="128" y="401" width="85" height="1" fill="#FFF68D"/><rect x="320" y="401" width="43" height="1" fill="#FFF68D"/><rect x="128" y="402" width="85" height="1" fill="#FFF68D"/><rect x="320" y="402" width="43" height="1" fill="#FFF68D"/><rect x="128" y="403" width="85" height="1" fill="#FFF68D"/><rect x="320" y="403" width="43" height="1" fill="#FFF68D"/><rect x="128" y="404" width="85" height="1" fill="#FFF68D"/><rect x="320" y="404" width="43" height="1" fill="#FFF68D"/></svg>