<svg xmlns="http://www.w3.org/2000/svg" viewBox="0 0 512 512" width="512" height="512" shape-rendering="crispEdges"><rect x="192" y="107" width="64" height="1" fill="#000000"/><rect x="192" y="108" width="64" height="1" fill="#000000"/><rect x="192" y="109" width="64" height="1" fill="#000000"/><rect x="192" y="110" width="64" height="1" fill="#000000"/><rect x="192" y="111" width="64" height="1" fill="#000000"/><rect x="192" y="112" width="64" height="1" fill="#000000"/><rect x="192" y="113" width="64" height="1" fill="#000000"/><rect x="192" y="114" width="64" height="1" fill="#000000"/><rect x="192" y="115" width="64" height="1" fill="#000000"/><rect x="192" y="116" width="64" height="1" fill="#000000"/><rect x="192" y="117" width="64" height="1" fill="#000000"/><rect x="192" y="118" width="64" height="1" fill="#000000"/><rect x="192" y="119" width="64" height="1" fill="#000000"/><rect x="192" y="120" width="64" height="1" fill="#000000"/><rect x="192" y="121" width="64" height="1" fill="#000000"/><rect x="192" y="122" width="64" height="1" fill="#000000"/><rect x="192" y="123" width="64" height="1" fill="#000000"/><rect x="192" y="124" width="64" height="1" fill="#000000"/><rect x="192" y="125" width="64" height="1" fill="#000000"/><rect x="192" y="126" width="64" height="1" fill="#000000"/><rect x="192" y="127" width="64" height="1" fill="#000000"/><rect x="149" y="128" width="128" height="1" fill="#000000"/><rect x="149" y="129" width="128" height="1" fill="#000000"/><rect x="149" y="130" width="128" height="1" fill="#000000"/><rect x="149" y="131" width="128" height="1" fill="#000000"/><rect x="149" y="132" width="128" height="1" fill="#000000"/><rect x="149" y="133" width="128" height="1" fill="#000000"/><rect x="149" y="134" width="128" height="1" fill="#000000"/><rect x="149" y="135" width="128" height="1" fill="#000000"/><rect x="149" y="136" width="128" height="1" fill="#000000"/><rect x="149" y="137" width="128" height="1" fill="#000000"/><rect x="149" y="138" width="128" height="1" fill="#000000"/><rect x="149" y="139" width="128" height="1" fill="#000000"/><rect x="149" y="140" width="128" height="1" fill="#000000"/><rect x="149" y="141" width="128" height="1" fill="#000000"/><rect x="149" y="142" width="128" height="1" fill="#000000"/><rect x="149" y="143" width="128" height="1" fill="#000000"/><rect x="149" y="144" width="128" height="1" fill="#000000"/><rect x="149" y="145" width="128" height="1" fill="#000000"/><rect x="149" y="146" width="128" height="1" fill="#000000"/><rect x="149" y="147" width="128" height="1" fill="#000000"/><rect x="149" y="148" width="128" height="1" fill="#000000"/><rect x="128" y="149" width="171" height="1" fill="#000000"/><rect x="128" y="150" width="171" height="1" fill="#000000"/><rect x="128" y="151" width="171" height="1" fill="#000000"/><rect x="128" y="152" width="171" height="1" fill="#000000"/><rect x="128" y="153" width="171" height="1" fill="#000000"/><rect x="128" y="154" width="171" height="1" fill="#000000"/><rect x="128" y="155" width="171" height="1" fill="#000000"/><rect x="128" y="156" width="171" height="1" fill="#000000"/><rect x="128" y="157" width="171" height="1" fill="#000000"/><rect x="128" y="158" width="171" height="1" fill="#000000"/><rect x="128" y="159" width="171" height="1" fill="#000000"/><rect x="128" y="160" width="171" height="1" fill="#000000"/><rect x="128" y="161" width="171" height="1" fill="#000000"/><rect x="128" y="162" width="171" height="1" fill="#000000"/><rect x="128" y="163" width="171" height="1" fill="#000000"/><rect x="128" y="164" width="171" height="1" fill="#000000"/><rect x="128" y="165" width="171" height="1" fill="#000000"/><rect x="128" y="166" width="171" height="1" fill="#000000"/><rect x="128" y="167" width="171" height="1" fill="#000000"/><rect x="128" y="168" width="171" height="1" fill="#000000"/><rect x="128" y="169" width="171" height="1" fill="#000000"/><rect x="128" y="170" width="171" height="1" fill="#000000"/><rect x="107" y="171" width="128" height="1" fill="#000000"/><rect x="107" y="172" width="128" height="1" fill="#000000"/><rect x="107" y="173" width="128" height="1" fill="#000000"/><rect x="107" y="174" width="128" height="1" fill="#000000"/><rect x="107" y="175" width="128" height="1" fill="#000000"/><rect x="107" y="176" width="128" height="1" fill="#000000"/><rect x="107" y="177" width="128" height="1" fill="#000000"/><rect x="107" y="178" width="128" height="1" fill="#000000"/><rect x="107" y="179" width="128" height="1" fill="#000000"/><rect x="107" y="180" width="128" height="1" fill="#000000"/><rect x="107" y="181" width="128" height="1" fill="#000000"/><rect x="107" y="182" width="128" height="1" fill="#000000"/><rect x="107" y="183" width="128" height="1" fill="#000000"/><rect x="107" y="184" width="128" height="1" fill="#000000"/><rect x="107" y="185" width="128" height="1" fill="#000000"/><rect x="107" y="186" width="128" height="1" fill="#000000"/><rect x="107" y="187" width="128" height="1" fill="#000000"/><rect x="107" y="188" width="128" height="1" fill="#000000"/><rect x="107" y="189" width="128" height="1" fill="#000000"/><rect x="107" y="190" width="128" height="1" fill="#000000"/><rect x="107" y="191" width="128" height="1" fill="#000000"/><rect x="107" y="192" width="106" height="1" fill="#000000"/><rect x="107" y="193" width="106" height="1" fill="#000000"/><rect x="107" y="194" width="106" height="1" fill="#000000"/><rect x="107" y="195" width="106" height="1" fill="#000000"/><rect x="107" y="196" width="106" height="1" fill="#000000"/><rect x="107" y="197" width="106" height="1" fill="#000000"/><rect x="107" y="198" width="106" height="1" fill="#000000"/><rect x="107" y="199" width="106" height="1" fill="#000000"/><rect x="107" y="200" width="106" height="1" fill="#000000"/><rect x="107" y="201" width="106" height="1" fill="#000000"/><rect x="107" y="202" width="106" height="1" fill="#000000"/><rect x="107" y="203" width="106" height="1" fill="#000000"/><rect x="107" y="204" width="106" height="1" fill="#000000"/><rect x="107" y="205" width="106" height="1" fill="#000000"/><rect x="107" y="206" width="106" height="1" fill="#000000"/><rect x="107" y="207" width="106" height="1" fill="#000000"/><rect x="107" y="208" width="106" height="1" fill="#000000"/><rect x="107" y="209" width="106" height="1" fill="#000000"/><rect x="107" y="210" width="106" height="1" fill="#000000"/><rect x="107" y="211" width="106" height="1" fill="#000000"/><rect x="107" y="212" width="106" height="1" fill="#000000"/><rect x="107" y="213" width="85" height="1" fill="#000000"/><rect x="107" y="214" width="85" height="1" fill="#000000"/><rect x="107" y="215" width="85" height="1" fill="#000000"/><rect x="107" y="216" width="85" height="1" fill="#000000"/><rect x="107" y="217" width="85" height="1" fill="#000000"/><rect x="107" y="218" width="85" height="1" fill="#000000"/><rect x="107" y="219" width="85" height="1" fill="#000000"/><rect x="107" y="220" width="85" height="1" fill="#000000"/><rect x="107" y="221" width="85" height="1" fill="#000000"/><rect x="107" y="222" width="85" height="1" fill="#000000"/><rect x="107" y="223" width="85" height="1" fill="#000000"/><rect x="107" y="224" width="85" height="1" fill="#000000"/><rect x="107" y="225" width="85" height="1" fill="#000000"/><rect x="107" y="226" width="85" height="1" fill="#000000"/><rect x="107" y="227" width="85" height="1" fill="#000000"/><rect x="107" y="228" width="85" height="1" fill="#000000"/><rect x="107" y="229" width="85" height="1" fill="#000000"/><rect x="107" y="230" width="85" height="1" fill="#000000"/><rect x="107" y="231" width="85" height="1" fill="#000000"/><rect x="107" y="232" width="85" height="1" fill="#000000"/><rect x="107" y="233" width="85" height="1" fill="#000000"/><rect x="107" y="234" width="85" height="1" fill="#000000"/><rect x="85" y="235" width="107" height="1" fill="#000000"/><rect x="85" y="236" width="107" height="1" fill="#000000"/><rect x="85" y="237" width="107" height="1" fill="#000000"/><rect x="85" y="238" width="107" height="1" fill="#000000"/><rect x="85" y="239" width="107" height="1" fill="#000000"/><rect x="85" y="240" width="107" height="1" fill="#000000"/><rect x="85" y="241" width="107" height="1" fill="#000000"/><rect x="85" y="242" width="107" height="1" fill="#000000"/><rect x="85" y="243" width="107" height="1" fill="#000000"/><rect x="85" y="244" width="107" height="1" fill="#000000"/><rect x="85" y="245" width="107" height="1" fill="#000000"/><rect x="85" y="246" width="107" height="1" fill="#000000"/><rect x="85" y="247" width="107" height="1" fill="#000000"/><rect x="85" y="248" width="107" height="1" fill="#000000"/><rect x="85" y="249" width="107" height="1" fill="#000000"/><rect x="85" y="250" width="107" height="1" fill="#000000"/><rect x="85" y="251" width="107" height="1" fill="#000000"/><rect x="85" y="252" width="107" height="1" fill="#000000"/><rect x="85" y="253" width="107" height="1" fill="#000000"/><rect x="85" y="254" width="107" height="1" fill="#000000"/><rect x="85" y="255" width="107" height="1" fill="#000000"/><rect x="85" y="256" width="107" height="1" fill="#000000"/><rect x="85" y="257" width="107" height="1" fill="#000000"/><rect x="85" y="258" width="107" height="1" fill="#000000"/><rect x="85" y="259" width="107" height="1" fill="#000000"/><rect x="85" y="260" width="107" height="1" fill="#000000"/><rect x="85" y="261" width="107" height="1" fill="#000000"/><rect x="85" y="262" width="107" height="1" fill="#000000"/><rect x="85" y="263" width="107" height="1" fill="#000000"/><rect x="85" y="264" width="107" height="1" fill="#000000"/><rect x="85" y="265" width="107" height="1" fill="#000000"/><rect x="85" y="266" width="107" height="1" fill="#000000"/><rect x="85" y="267" width="107" height="1" fill="#000000"/><rect x="85" y="268" width="107" height="1" fill="#000000"/><rect x="85" y="269" width="107" height="1" fill="#000000"/><rect x="85" y="270" width="107" height="1" fill="#000000"/><rect x="85" y="271" width="107" height="1" fill="#000000"/><rect x="85" y="272" width="107" height="1" fill="#000000"/><rect x="85" y="273" width="107" height="1" fill="#000000"/><rect x="85" y="274" width="107" height="1" fill="#000000"/><rect x="85" y="275" width="107" height="1" fill="#000000"/><rect x="85" y="276" width="107" height="1" fill="#000000"/><rect x="85" y="277" width="86" height="1" fill="#000000"/><rect x="85" y="278" width="86" height="1" fill="#000000"/><rect x="85" y="279" width="86" height="1" fill="#000000"/><rect x="85" y="280" width="86" height="1" fill="#000000"/><rect x="85" y="281" width="86" height="1" fill="#000000"/><rect x="85" y="282" width="86" height="1" fill="#000000"/><rect x="85" y="283" width="86" height="1" fill="#000000"/><rect x="85" y="284" width="86" height="1" fill="#000000"/><rect x="85" y="285" width="86" height="1" fill="#000000"/><rect x="85" y="286" width="86" height="1" fill="#000000"/><rect x="85" y="287" width="86" height="1" fill="#000000"/><rect x="85" y="288" width="86" height="1" fill="#000000"/><rect x="85" y="289" width="86" height="1" fill="#000000"/><rect x="85" y="290" width="86" height="1" fill="#000000"/><rect x="85" y="291" width="86" height="1" fill="#000000"/><rect x="85" y="292" width="86" height="1" fill="#000000"/><rect x="85" y="293" width="86" height="1" fill="#000000"/><rect x="85" y="294" width="86" height="1" fill="#000000"/><rect x="85" y="295" width="86" height="1" fill="#000000"/><rect x="85" y="296" width="86" height="1" fill="#000000"/><rect x="85" y="297" width="86" height="1" fill="#000000"/><rect x="85" y="298" width="86" height="1" fill="#000000"/><rect x="85" y="299" width="86" height="1" fill="#000000"/><rect x="85" y="300" width="86" height="1" fill="#000000"/><rect x="85" y="301" width="86" height="1" fill="#000000"/><rect x="85" y="302" width="86" height="1" fill="#000000"/><rect x="85" y="303" width="86" height="1" fill="#000000"/><rect x="85" y="304" width="86" height="1" fill="#000000"/><rect x="85" y="305" width="86" height="1" fill="#000000"/><rect x="85" y="306" width="86" height="1" fill="#000000"/><rect x="85" y="307" width="86" height="1" fill="#000000"/><rect x="85" y="308" width="86" height="1" fill="#000000"/><rect x="85" y="309" width="86" height="1" fill="#000000"/><rect x="85" y="310" width="86" height="1" fill="#000000"/><rect x="85" y="311" width="86" height="1" fill="#000000"/><rect x="85" y="312" width="86" height="1" fill="#000000"/><rect x="85" y="313" width="86" height="1" fill="#000000"/><rect x="85" y="314" width="86" height="1" fill="#000000"/><rect x="85" y="315" width="86" height="1" fill="#000000"/><rect x="85" y="316" width="86" height="1" fill="#000000"/><rect x="85" y="317" width="86" height="1" fill="#000000"/><rect x="85" y="318" width="86" height="1" fill="#000000"/><rect x="85" y="319" width="86" height="1" fill="#000000"/><rect x="85" y="320" width="86" height="1" fill="#000000"/><rect x="85" y="321" width="86" height="1" fill="#000000"/><rect x="85" y="322" width="86" height="1" fill="#000000"/><rect x="85" y="323" width="86" height="1" fill="#000000"/><rect x="85" y="324" width="86" height="1" fill="#000000"/><rect x="85" y="325" width="86" height="1" fill="#000000"/><rect x="85" y="326" width="86" height="1" fill="#000000"/><rect x="85" y="327" width="86" height="1" fill="#000000"/><rect x="85" y="328" width="86" height="1" fill="#000000"/><rect x="85" y="329" width="86" height="1" fill="#000000"/><rect x="85" y="330" width="86" height="1" fill="#000000"/><rect x="85" y="331" width="86" height="1" fill="#000000"/><rect x="85" y="332" width="86" height="1" fill="#000000"/><rect x="85" y="333" width="86" height="1" fill="#000000"/><rect x="85" y="334" width="86" height="1" fill="#000000"/><rect x="85" y="335" width="86" height="1" fill="#000000"/><rect x="85" y="336" width="86" height="1" fill="#000000"/><rect x="85" y="337" width="86" height="1" fill="#000000"/><rect x="85" y="338" width="86" height="1" fill="#000000"/><rect x="85" y="339" width="86" height="1" fill="#000000"/><rect x="85" y="340" width="86" height="1" fill="#000000"/><rect x="85" y="341" width="86" height="1" fill="#000000"/><rect x="85" y="342" width="86" height="1" fill="#000000"/><rect x="85" y="343" width="86" height="1" fill="#000000"/><rect x="85" y="344" width="86" height="1" fill="#000000"/><rect x="85" y="345" width="86" height="1" fill="#000000"/><rect x="85" y="346" width="86" height="1" fill="#000000"/><rect x="85" y="347" width="86" height="1" fill="#000000"/><rect x="85" y="348" width="86" height="1" fill="#000000"/><rect x="85" y="349" width="86" height="1" fill="#000000"/><rect x="85" y="350" width="86" height="1" fill="#000000"/><rect x="85" y="351" width="86" height="1" fill="#000000"/><rect x="85" y="352" width="86" height="1" fill="#000000"/><rect x="85" y="353" width="86" height="1" fill="#000000"/><rect x="85" y="354" width="86" height="1" fill="#000000"/><rect x="85" y="355" width="86" height="1" fill="#000000"/><rect x="85" y="356" width="86" height="1" fill="#000000"/><rect x="85" y="357" width="86" height="1" fill="#000000"/><rect x="85" y="358" width="86" height="1" fill="#000000"/><rect x="85" y="359" width="86" height="1" fill="#000000"/><rect x="85" y="360" width="86" height="1" fill="#000000"/><rect x="85" y="361" width="86" height="1" fill="#000000"/><rect x="85" y="362" width="86" height="1" fill="#000000"/><rect x="85" y="363" width="86" height="1" fill="#000000"/><rect x="85" y="364" width="86" height="1" fill="#000000"/><rect x="85" y="365" width="86" height="1" fill="#000000"/><rect x="85" y="366" width="86" height="1" fill="#000000"/><rect x="85" y="367" width="86" height="1" fill="#000000"/><rect x="85" y="368" width="86" height="1" fill="#000000"/><rect x="85" y="369" width="86" height="1" fill="#000000"/><rect x="85" y="370" width="86" height="1" fill="#000000"/><rect x="85" y="371" width="86" height="1" fill="#000000"/><rect x="85" y="372" width="86" height="1" fill="#000000"/><rect x="85" y="373" width="86" height="1" fill="#000000"/><rect x="85" y="374" width="86" height="1" fill="#000000"/><rect x="85" y="375" width="86" height="1" fill="#000000"/><rect x="85" y="376" width="86" height="1" fill="#000000"/><rect x="85" y="377" width="86" height="1" fill="#000000"/><rect x="85" y="378" width="86" height="1" fill="#000000"/><rect x="85" y="379" width="86" height="1" fill="#000000"/><rect x="85" y="380" width="86" height="1" fill="#000000"/><rect x="85" y="381" width="86" height="1" fill="#000000"/><rect x="85" y="382" width="86" height="1" fill="#000000"/><rect x="85" y="383" width="86" height="1" fill="#000000"/><rect x="85" y="384" width="107" height="1" fill="#000000"/><rect x="85" y="385" width="107" height="1" fill="#000000"/><rect x="85" y="386" width="107" height="1" fill="#000000"/><rect x="85" y="387" width="107" height="1" fill="#000000"/><rect x="85" y="388" width="107" height="1" fill="#000000"/><rect x="85" y="389" width="107" height="1" fill="#000000"/><rect x="85" y="390" width="107" height="1" fill="#000000"/><rect x="85" y="391" width="107" height="1" fill="#000000"/><rect x="85" y="392" width="107" height="1" fill="#000000"/><rect x="85" y="393" width="107" height="1" fill="#000000"/><rect x="85" y="394" width="107" height="1" fill="#000000"/><rect x="85" y="395" width="107" height="1" fill="#000000"/><rect x="85" y="396" width="107" height="1" fill="#000000"/><rect x="85" y="397" width="107" height="1" fill="#000000"/><rect x="85" y="398" width="107" height="1" fill="#000000"/><rect x="85" y="399" width="107" height="1" fill="#000000"/><rect x="85" y="400" width="107" height="1" fill="#000000"/><rect x="85" y="401" width="107" height="1" fill="#000000"/><rect x="85" y="402" width="107" height="1" fill="#000000"/><rect x="85" y="403" width="107" height="1" fill="#000000"/><rect x="85" y="404" width="107" height="1" fill="#000000"/><rect x="64" y="405" width="128" height="1" fill="#000000"/><rect x="64" y="406" width="128" height="1" fill="#000000"/><rect x="64" y="407" width="128" height="1" fill="#000000"/><rect x="64" y="408" width="128" height="1" fill="#000000"/><rect x="64" y="409" width="128" height="1" fill="#000000"/><rect x="64" y="410" width="128" height="1" fill="#000000"/><rect x="64" y="411" width="128" height="1" fill="#000000"/><rect x="64" y="412" width="128" height="1" fill="#000000"/><rect x="64" y="413" width="128" height="1" fill="#000000"/><rect x="64" y="414" width="128" height="1" fill="#000000"/><rect x="64" y="415" width="128" height="1" fill="#000000"/><rect x="64" y="416" width="128" height="1" fill="#000000"/><rect x="64" y="417" width="128" height="1" fill="#000000"/><rect x="64" y="418" width="128" height="1" fill="#000000"/><rect x="64" y="419" width="128" height="1" fill="#000000"/><rect x="64" y="420" width="128" height="1" fill="#000000"/><rect x="64" y="421" width="128" height="1" fill="#000000"/><rect x="64" y="422" width="128" height="1" fill="#000000"/><rect x="64" y="423" width="128" height="1" fill="#000000"/><rect x="64" y="424" width="128" height="1" fill="#000000"/><rect x="64" y="425" width="128" height="1" fill="#000000"/><rect x="64" y="426" width="128" height="1" fill="#000000"/><rect x="64" y="427" width="128" height="1" fill="#000000"/><rect x="64" y="428" width="128" height="1" fill="#000000"/><rect x="64" y="429" width="128" height="1" fill="#000000"/><rect x="64" y="430" width="128" height="1" fill="#000000"/><rect x="64" y="431" width="128" height="1" fill="#000000"/><rect x="64" y="432" width="128" height="1" fill="#000000"/><rect x="64" y="433" width="128" height="1" fill="#000000"/><rect x="64" y="434" width="128" height="1" fill="#000000"/><rect x="64" y="435" width="128" height="1" fill="#000000"/><rect x="64" y="436" width="128" height="1" fill="#000000"/><rect x="64" y="437" width="128" height="1" fill="#000000"/><rect x="64" y="438" width="128" height="1" fill="#000000"/><rect x="64" y="439" width="128" height="1" fill="#000000"/><rect x="64" y="440" width="128" height="1" fill="#000000"/><rect x="64" y="441" width="128" height="1" fill="#000000"/><rect x="64" y="442" width="128" height="1" fill="#000000"/><rect x="64" y="443" width="128" height="1" fill="#000000"/><rect x="64" y="444" width="128" height="1" fill="#000000"/><rect x="64" y="445" width="128" height="1" fill="#000000"/><rect x="64" y="446" width="128" height="1" fill="#000000"/><rect x="64" y="447" width="128" height="1" fill="#000000"/><rect x="64" y="448" width="128" height="1" fill="#000000"/><rect x="64" y="449" width="128" height="1" fill="#000000"/><rect x="64" y="450" width="128" height="1" fill="#000000"/><rect x="64" y="451" width="128" height="1" fill="#000000"/><rect x="64" y="452" width="128" height="1" fill="#000000"/><rect x="64" y="453" width="128" height="1" fill="#000000"/><rect x="64" y="454" width="128" height="1" fill="#000000"/><rect x="64" y="455" width="128" height="1" fill="#000000"/><rect x="64" y="456" width="128" height="1" fill="#000000"/><rect x="64" y="457" width="128" height="1" fill="#000000"/><rect x="64" y="458" width="128" height="1" fill="#000000"/><rect x="64" y="459" width="128" height="1" fill="#000000"/><rect x="64" y="460" width="128" height="1" fill="#000000"/><rect x="64" y="461" width="128" height="1" fill="#000000"/><rect x="64" y="462" width="128" height="1" fill="#000000"/><rect x="64" y="463" width="128" height="1" fill="#000000"/><rect x="64" y="464" width="128" height="1" fill="#000000"/><rect x="64" y="465" width="128" height="1" fill="#000000"/><rect x="64" y="466" width="128" height="1" fill="#000000"/><rect x="64" y="467" width="128" height="1" fill="#000000"/><rect x="64" y="468" width="128" height="1" fill="#000000"/></svg>