<svg xmlns="http://www.w3.org/2000/svg" viewBox="0 0 512 512" width="512" height="512" shape-rendering="crispEdges"><rect x="213" y="128" width="86" height="1" fill="#E65700"/><rect x="213" y="129" width="86" height="1" fill="#E65700"/><rect x="213" y="130" width="86" height="1" fill="#E65700"/><rect x="213" y="131" width="86" height="1" fill="#E65700"/><rect x="213" y="132" width="86" height="1" fill="#E65700"/><rect x="213" y="133" width="86" height="1" fill="#E65700"/><rect x="213" y="134" width="86" height="1" fill="#E65700"/><rect x="213" y="135" width="86" height="1" fill="#E65700"/><rect x="213" y="136" width="86" height="1" fill="#E65700"/><rect x="213" y="137" width="86" height="1" fill="#E65700"/><rect x="213" y="138" width="86" height="1" fill="#E65700"/><rect x="213" y="139" width="86" height="1" fill="#E65700"/><rect x="213" y="140" width="86" height="1" fill="#E65700"/><rect x="213" y="141" width="86" height="1" fill="#E65700"/><rect x="213" y="142" width="86" height="1" fill="#E65700"/><rect x="213" y="143" width="86" height="1" fill="#E65700"/><rect x="213" y="144" width="86" height="1" fill="#E65700"/><rect x="213" y="145" width="86" height="1" fill="#E65700"/><rect x="213" y="146" width="86" height="1" fill="#E65700"/><rect x="213" y="147" width="86" height="1" fill="#E65700"/><rect x="213" y="148" width="86" height="1" fill="#E65700"/><rect x="171" y="149" width="170" height="1" fill="#E65700"/><rect x="171" y="150" width="170" height="1" fill="#E65700"/><rect x="171" y="151" width="170" height="1" fill="#E65700"/><rect x="171" y="152" width="170" height="1" fill="#E65700"/><rect x="171" y="153" width="170" height="1" fill="#E65700"/><rect x="171" y="154" width="170" height="1" fill="#E65700"/><rect x="171" y="155" width="170" height="1" fill="#E65700"/><rect x="171" y="156" width="170" height="1" fill="#E65700"/><rect x="171" y="157" width="170" height="1" fill="#E65700"/><rect x="171" y="158" width="170" height="1" fill="#E65700"/><rect x="171" y="159" width="170" height="1" fill="#E65700"/><rect x="171" y="160" width="170" height="1" fill="#E65700"/><rect x="171" y="161" width="170" height="1" fill="#E65700"/><rect x="171" y="162" width="170" height="1" fill="#E65700"/><rect x="171" y="163" width="170" height="1" fill="#E65700"/><rect x="171" y="164" width="170" height="1" fill="#E65700"/><rect x="171" y="165" width="170" height="1" fill="#E65700"/><rect x="171" y="166" width="170" height="1" fill="#E65700"/><rect x="171" y="167" width="170" height="1" fill="#E65700"/><rect x="171" y="168" width="170" height="1" fill="#E65700"/><rect x="171" y="169" width="170" height="1" fill="#E65700"/><rect x="171" y="170" width="170" height="1" fill="#E65700"/><rect x="149" y="171" width="214" height="1" fill="#E65700"/><rect x="149" y="172" width="214" height="1" fill="#E65700"/><rect x="149" y="173" width="214" height="1" fill="#E65700"/><rect x="149" y="174" width="214" height="1" fill="#E65700"/><rect x="149" y="175" width="214" height="1" fill="#E65700"/><rect x="149" y="176" width="214" height="1" fill="#E65700"/><rect x="149" y="177" width="214" height="1" fill="#E65700"/><rect x="149" y="178" width="214" height="1" fill="#E65700"/><rect x="149" y="179" width="214" height="1" fill="#E65700"/><rect x="149" y="180" width="214" height="1" fill="#E65700"/><rect x="149" y="181" width="214" height="1" fill="#E65700"/><rect x="149" y="182" width="214" height="1" fill="#E65700"/><rect x="149" y="183" width="214" height="1" fill="#E65700"/><rect x="149" y="184" width="214" height="1" fill="#E65700"/><rect x="149" y="185" width="214" height="1" fill="#E65700"/><rect x="149" y="186" width="214" height="1" fill="#E65700"/><rect x="149" y="187" width="214" height="1" fill="#E65700"/><rect x="149" y="188" width="214" height="1" fill="#E65700"/><rect x="149" y="189" width="214" height="1" fill="#E65700"/><rect x="149" y="190" width="214" height="1" fill="#E65700"/><rect x="149" y="191" width="214" height="1" fill="#E65700"/><rect x="149" y="192" width="214" height="1" fill="#E65700"/><rect x="149" y="193" width="214" height="1" fill="#E65700"/><rect x="149" y="194" width="214" height="1" fill="#E65700"/><rect x="149" y="195" width="214" height="1" fill="#E65700"/><rect x="149" y="196" width="214" height="1" fill="#E65700"/><rect x="149" y="197" width="214" height="1" fill="#E65700"/><rect x="149" y="198" width="214" height="1" fill="#E65700"/><rect x="149" y="199" width="214" height="1" fill="#E65700"/><rect x="149" y="200" width="214" height="1" fill="#E65700"/><rect x="149" y="201" width="214" height="1" fill="#E65700"/><rect x="149" y="202" width="214" height="1" fill="#E65700"/><rect x="149" y="203" width="214" height="1" fill="#E65700"/><rect x="149" y="204" width="214" height="1" fill="#E65700"/><rect x="149" y="205" width="214" height="1" fill="#E65700"/><rect x="149" y="206" width="214" height="1" fill="#E65700"/><rect x="149" y="207" width="214" height="1" fill="#E65700"/><rect x="149" y="208" width="214" height="1" fill="#E65700"/><rect x="149" y="209" width="214" height="1" fill="#E65700"/><rect x="149" y="210" width="214" height="1" fill="#E65700"/><rect x="149" y="211" width="214" height="1" fill="#E65700"/><rect x="149" y="212" width="214" height="1" fill="#E65700"/><rect x="149" y="213" width="43" height="1" fill="#E65700"/><rect x="277" y="213" width="22" height="1" fill="#E65700"/><rect x="320" y="213" width="64" height="1" fill="#E65700"/><rect x="149" y="214" width="43" height="1" fill="#E65700"/><rect x="277" y="214" width="22" height="1" fill="#E65700"/><rect x="320" y="214" width="64" height="1" fill="#E65700"/><rect x="149" y="215" width="43" height="1" fill="#E65700"/><rect x="277" y="215" width="22" height="1" fill="#E65700"/><rect x="320" y="215" width="64" height="1" fill="#E65700"/><rect x="149" y="216" width="43" height="1" fill="#E65700"/><rect x="277" y="216" width="22" height="1" fill="#E65700"/><rect x="320" y="216" width="64" height="1" fill="#E65700"/><rect x="149" y="217" width="43" height="1" fill="#E65700"/><rect x="277" y="217" width="22" height="1" fill="#E65700"/><rect x="320" y="217" width="64" height="1" fill="#E65700"/><rect x="149" y="218" width="43" height="1" fill="#E65700"/><rect x="277" y="218" width="22" height="1" fill="#E65700"/><rect x="320" y="218" width="64" height="1" fill="#E65700"/><rect x="149" y="219" width="43" height="1" fill="#E65700"/><rect x="277" y="219" width="22" height="1" fill="#E65700"/><rect x="320" y="219" width="64" height="1" fill="#E65700"/><rect x="149" y="220" width="43" height="1" fill="#E65700"/><rect x="277" y="220" width="22" height="1" fill="#E65700"/><rect x="320" y="220" width="64" height="1" fill="#E65700"/><rect x="149" y="221" width="43" height="1" fill="#E65700"/><rect x="277" y="221" width="22" height="1" fill="#E65700"/><rect x="320" y="221" width="64" height="1" fill="#E65700"/><rect x="149" y="222" width="43" height="1" fill="#E65700"/><rect x="277" y="222" width="22" height="1" fill="#E65700"/><rect x="320" y="222" width="64" height="1" fill="#E65700"/><rect x="149" y="223" width="43" height="1" fill="#E65700"/><rect x="277" y="223" width="22" height="1" fill="#E65700"/><rect x="320" y="223" width="64" height="1" fill="#E65700"/><rect x="149" y="224" width="43" height="1" fill="#E65700"/><rect x="277" y="224" width="22" height="1" fill="#E65700"/><rect x="320" y="224" width="64" height="1" fill="#E65700"/><rect x="149" y="225" width="43" height="1" fill="#E65700"/><rect x="277" y="225" width="22" height="1" fill="#E65700"/><rect x="320" y="225" width="64" height="1" fill="#E65700"/><rect x="149" y="226" width="43" height="1" fill="#E65700"/><rect x="277" y="226" width="22" height="1" fill="#E65700"/><rect x="320" y="226" width="64" height="1" fill="#E65700"/><rect x="149" y="227" width="43" height="1" fill="#E65700"/><rect x="277" y="227" width="22" height="1" fill="#E65700"/><rect x="320" y="227" width="64" height="1" fill="#E65700"/><rect x="149" y="228" width="43" height="1" fill="#E65700"/><rect x="277" y="228" width="22" height="1" fill="#E65700"/><rect x="320" y="228" width="64" height="1" fill="#E65700"/><rect x="149" y="229" width="43" height="1" fill="#E65700"/><rect x="277" y="229" width="22" height="1" fill="#E65700"/><rect x="320" y="229" width="64" height="1" fill="#E65700"/><rect x="149" y="230" width="43" height="1" fill="#E65700"/><rect x="277" y="230" width="22" height="1" fill="#E65700"/><rect x="320" y="230" width="64" height="1" fill="#E65700"/><rect x="149" y="231" width="43" height="1" fill="#E65700"/><rect x="277" y="231" width="22" height="1" fill="#E65700"/><rect x="320" y="231" width="64" height="1" fill="#E65700"/><rect x="149" y="232" width="43" height="1" fill="#E65700"/><rect x="277" y="232" width="22" height="1" fill="#E65700"/><rect x="320" y="232" width="64" height="1" fill="#E65700"/><rect x="149" y="233" width="43" height="1" fill="#E65700"/><rect x="277" y="233" width="22" height="1" fill="#E65700"/><rect x="320" y="233" width="64" height="1" fill="#E65700"/><rect x="149" y="234" width="43" height="1" fill="#E65700"/><rect x="277" y="234" width="22" height="1" fill="#E65700"/><rect x="320" y="234" width="64" height="1" fill="#E65700"/><rect x="128" y="235" width="43" height="1" fill="#E65700"/><rect x="341" y="235" width="43" height="1" fill="#E65700"/><rect x="128" y="236" width="43" height="1" fill="#E65700"/><rect x="341" y="236" width="43" height="1" fill="#E65700"/><rect x="128" y="237" width="43" height="1" fill="#E65700"/><rect x="341" y="237" width="43" height="1" fill="#E65700"/><rect x="128" y="238" width="43" height="1" fill="#E65700"/><rect x="341" y="238" width="43" height="1" fill="#E65700"/><rect x="128" y="239" width="43" height="1" fill="#E65700"/><rect x="341" y="239" width="43" height="1" fill="#E65700"/><rect x="128" y="240" width="43" height="1" fill="#E65700"/><rect x="341" y="240" width="43" height="1" fill="#E65700"/><rect x="128" y="241" width="43" height="1" fill="#E65700"/><rect x="341" y="241" width="43" height="1" fill="#E65700"/><rect x="128" y="242" width="43" height="1" fill="#E65700"/><rect x="341" y="242" width="43" height="1" fill="#E65700"/><rect x="128" y="243" width="43" height="1" fill="#E65700"/><rect x="341" y="243" width="43" height="1" fill="#E65700"/><rect x="128" y="244" width="43" height="1" fill="#E65700"/><rect x="341" y="244" width="43" height="1" fill="#E65700"/><rect x="128" y="245" width="43" height="1" fill="#E65700"/><rect x="341" y="245" width="43" height="1" fill="#E65700"/><rect x="128" y="246" width="43" height="1" fill="#E65700"/><rect x="341" y="246" width="43" height="1" fill="#E65700"/><rect x="128" y="247" width="43" height="1" fill="#E65700"/><rect x="341" y="247" width="43" height="1" fill="#E65700"/><rect x="128" y="248" width="43" height="1" fill="#E65700"/><rect x="341" y="248" width="43" height="1" fill="#E65700"/><rect x="128" y="249" width="43" height="1" fill="#E65700"/><rect x="341" y="249" width="43" height="1" fill="#E65700"/><rect x="128" y="250" width="43" height="1" fill="#E65700"/><rect x="341" y="250" width="43" height="1" fill="#E65700"/><rect x="128" y="251" width="43" height="1" fill="#E65700"/><rect x="341" y="251" width="43" height="1" fill="#E65700"/><rect x="128" y="252" width="43" height="1" fill="#E65700"/><rect x="341" y="252" width="43" height="1" fill="#E65700"/><rect x="128" y="253" width="43" height="1" fill="#E65700"/><rect x="341" y="253" width="43" height="1" fill="#E65700"/><rect x="128" y="254" width="43" height="1" fill="#E65700"/><rect x="341" y="254" width="43" height="1" fill="#E65700"/><rect x="128" y="255" width="43" height="1" fill="#E65700"/><rect x="341" y="255" width="43" height="1" fill="#E65700"/><rect x="128" y="256" width="43" height="1" fill="#E65700"/><rect x="341" y="256" width="43" height="1" fill="#E65700"/><rect x="128" y="257" width="43" height="1" fill="#E65700"/><rect x="341" y="257" width="43" height="1" fill="#E65700"/><rect x="128" y="258" width="43" height="1" fill="#E65700"/><rect x="341" y="258" width="43" height="1" fill="#E65700"/><rect x="128" y="259" width="43" height="1" fill="#E65700"/><rect x="341" y="259" width="43" height="1" fill="#E65700"/><rect x="128" y="260" width="43" height="1" fill="#E65700"/><rect x="341" y="260" width="43" height="1" fill="#E65700"/><rect x="128" y="261" width="43" height="1" fill="#E65700"/><rect x="341" y="261" width="43" height="1" fill="#E65700"/><rect x="128" y="262" width="43" height="1" fill="#E65700"/><rect x="341" y="262" width="43" height="1" fill="#E65700"/><rect x="128" y="263" width="43" height="1" fill="#E65700"/><rect x="341" y="263" width="43" height="1" fill="#E65700"/><rect x="128" y="264" width="43" height="1" fill="#E65700"/><rect x="341" y="264" width="43" height="1" fill="#E65700"/><rect x="128" y="265" width="43" height="1" fill="#E65700"/><rect x="341" y="265" width="43" height="1" fill="#E65700"/><rect x="128" y="266" width="43" height="1" fill="#E65700"/><rect x="341" y="266" width="43" height="1" fill="#E65700"/><rect x="128" y="267" width="43" height="1" fill="#E65700"/><rect x="341" y="267" width="43" height="1" fill="#E65700"/><rect x="128" y="268" width="43" height="1" fill="#E65700"/><rect x="341" y="268" width="43" height="1" fill="#E65700"/><rect x="128" y="269" width="43" height="1" fill="#E65700"/><rect x="341" y="269" width="43" height="1" fill="#E65700"/><rect x="128" y="270" width="43" height="1" fill="#E65700"/><rect x="341" y="270" width="43" height="1" fill="#E65700"/><rect x="128" y="271" width="43" height="1" fill="#E65700"/><rect x="341" y="271" width="43" height="1" fill="#E65700"/><rect x="128" y="272" width="43" height="1" fill="#E65700"/><rect x="341" y="272" width="43" height="1" fill="#E65700"/><rect x="128" y="273" width="43" height="1" fill="#E65700"/><rect x="341" y="273" width="43" height="1" fill="#E65700"/><rect x="128" y="274" width="43" height="1" fill="#E65700"/><rect x="341" y="274" width="43" height="1" fill="#E65700"/><rect x="128" y="275" width="43" height="1" fill="#E65700"/><rect x="341" y="275" width="43" height="1" fill="#E65700"/><rect x="128" y="276" width="43" height="1" fill="#E65700"/><rect x="341" y="276" width="43" height="1" fill="#E65700"/><rect x="128" y="277" width="21" height="1" fill="#E65700"/><rect x="341" y="277" width="43" height="1" fill="#E65700"/><rect x="128" y="278" width="21" height="1" fill="#E65700"/><rect x="341" y="278" width="43" height="1" fill="#E65700"/><rect x="128" y="279" width="21" height="1" fill="#E65700"/><rect x="341" y="279" width="43" height="1" fill="#E65700"/><rect x="128" y="280" width="21" height="1" fill="#E65700"/><rect x="341" y="280" width="43" height="1" fill="#E65700"/><rect x="128" y="281" width="21" height="1" fill="#E65700"/><rect x="341" y="281" width="43" height="1" fill="#E65700"/><rect x="128" y="282" width="21" height="1" fill="#E65700"/><rect x="341" y="282" width="43" height="1" fill="#E65700"/><rect x="128" y="283" width="21" height="1" fill="#E65700"/><rect x="341" y="283" width="43" height="1" fill="#E65700"/><rect x="128" y="284" width="21" height="1" fill="#E65700"/><rect x="341" y="284" width="43" height="1" fill="#E65700"/><rect x="128" y="285" width="21" height="1" fill="#E65700"/><rect x="341" y="285" width="43" height="1" fill="#E65700"/><rect x="128" y="286" width="21" height="1" fill="#E65700"/><rect x="341" y="286" width="43" height="1" fill="#E65700"/><rect x="128" y="287" width="21" height="1" fill="#E65700"/><rect x="341" y="287" width="43" height="1" fill="#E65700"/><rect x="128" y="288" width="21" height="1" fill="#E65700"/><rect x="341" y="288" width="43" height="1" fill="#E65700"/><rect x="128" y="289" width="21" height="1" fill="#E65700"/><rect x="341" y="289" width="43" height="1" fill="#E65700"/><rect x="128" y="290" width="21" height="1" fill="#E65700"/><rect x="341" y="290" width="43" height="1" fill="#E65700"/><rect x="128" y="291" width="21" height="1" fill="#E65700"/><rect x="341" y="291" width="43" height="1" fill="#E65700"/><rect x="128" y="292" width="21" height="1" fill="#E65700"/><rect x="341" y="292" width="43" height="1" fill="#E65700"/><rect x="128" y="293" width="21" height="1" fill="#E65700"/><rect x="341" y="293" width="43" height="1" fill="#E65700"/><rect x="128" y="294" width="21" height="1" fill="#E65700"/><rect x="341" y="294" width="43" height="1" fill="#E65700"/><rect x="128" y="295" width="21" height="1" fill="#E65700"/><rect x="341" y="295" width="43" height="1" fill="#E65700"/><rect x="128" y="296" width="21" height="1" fill="#E65700"/><rect x="341" y="296" width="43" height="1" fill="#E65700"/><rect x="128" y="297" width="21" height="1" fill="#E65700"/><rect x="341" y="297" width="43" height="1" fill="#E65700"/><rect x="128" y="298" width="21" height="1" fill="#E65700"/><rect x="341" y="298" width="43" height="1" fill="#E65700"/><rect x="128" y="299" width="21" height="1" fill="#E65700"/><rect x="341" y="299" width="43" height="1" fill="#E65700"/><rect x="128" y="300" width="21" height="1" fill="#E65700"/><rect x="341" y="300" width="43" height="1" fill="#E65700"/><rect x="128" y="301" width="21" height="1" fill="#E65700"/><rect x="341" y="301" width="43" height="1" fill="#E65700"/><rect x="128" y="302" width="21" height="1" fill="#E65700"/><rect x="341" y="302" width="43" height="1" fill="#E65700"/><rect x="128" y="303" width="21" height="1" fill="#E65700"/><rect x="341" y="303" width="43" height="1" fill="#E65700"/><rect x="128" y="304" width="21" height="1" fill="#E65700"/><rect x="341" y="304" width="43" height="1" fill="#E65700"/><rect x="128" y="305" width="21" height="1" fill="#E65700"/><rect x="341" y="305" width="43" height="1" fill="#E65700"/><rect x="128" y="306" width="21" height="1" fill="#E65700"/><rect x="341" y="306" width="43" height="1" fill="#E65700"/><rect x="128" y="307" width="21" height="1" fill="#E65700"/><rect x="341" y="307" width="43" height="1" fill="#E65700"/><rect x="128" y="308" width="21" height="1" fill="#E65700"/><rect x="341" y="308" width="43" height="1" fill="#E65700"/><rect x="128" y="309" width="21" height="1" fill="#E65700"/><rect x="341" y="309" width="43" height="1" fill="#E65700"/><rect x="128" y="310" width="21" height="1" fill="#E65700"/><rect x="341" y="310" width="43" height="1" fill="#E65700"/><rect x="128" y="311" width="21" height="1" fill="#E65700"/><rect x="341" y="311" width="43" height="1" fill="#E65700"/><rect x="128" y="312" width="21" height="1" fill="#E65700"/><rect x="341" y="312" width="43" height="1" fill="#E65700"/><rect x="128" y="313" width="21" height="1" fill="#E65700"/><rect x="341" y="313" width="43" height="1" fill="#E65700"/><rect x="128" y="314" width="21" height="1" fill="#E65700"/><rect x="341" y="314" width="43" height="1" fill="#E65700"/><rect x="128" y="315" width="21" height="1" fill="#E65700"/><rect x="341" y="315" width="43" height="1" fill="#E65700"/><rect x="128" y="316" width="21" height="1" fill="#E65700"/><rect x="341" y="316" width="43" height="1" fill="#E65700"/><rect x="128" y="317" width="21" height="1" fill="#E65700"/><rect x="341" y="317" width="43" height="1" fill="#E65700"/><rect x="128" y="318" width="21" height="1" fill="#E65700"/><rect x="341" y="318" width="43" height="1" fill="#E65700"/><rect x="128" y="319" width="21" height="1" fill="#E65700"/><rect x="341" y="319" width="43" height="1" fill="#E65700"/><rect x="341" y="320" width="64" height="1" fill="#E65700"/><rect x="341" y="321" width="64" height="1" fill="#E65700"/><rect x="341" y="322" width="64" height="1" fill="#E65700"/><rect x="341" y="323" width="64" height="1" fill="#E65700"/><rect x="341" y="324" width="64" height="1" fill="#E65700"/><rect x="341" y="325" width="64" height="1" fill="#E65700"/><rect x="341" y="326" width="64" height="1" fill="#E65700"/><rect x="341" y="327" width="64" height="1" fill="#E65700"/><rect x="341" y="328" width="64" height="1" fill="#E65700"/><rect x="341" y="329" width="64" height="1" fill="#E65700"/><rect x="341" y="330" width="64" height="1" fill="#E65700"/><rect x="341" y="331" width="64" height="1" fill="#E65700"/><rect x="341" y="332" width="64" height="1" fill="#E65700"/><rect x="341" y="333" width="64" height="1" fill="#E65700"/><rect x="341" y="334" width="64" height="1" fill="#E65700"/><rect x="341" y="335" width="64" height="1" fill="#E65700"/><rect x="341" y="336" width="64" height="1" fill="#E65700"/><rect x="341" y="337" width="64" height="1" fill="#E65700"/><rect x="341" y="338" width="64" height="1" fill="#E65700"/><rect x="341" y="339" width="64" height="1" fill="#E65700"/><rect x="341" y="340" width="64" height="1" fill="#E65700"/><rect x="341" y="341" width="64" height="1" fill="#E65700"/><rect x="341" y="342" width="64" height="1" fill="#E65700"/><rect x="341" y="343" width="64" height="1" fill="#E65700"/><rect x="341" y="344" width="64" height="1" fill="#E65700"/><rect x="341" y="345" width="64" height="1" fill="#E65700"/><rect x="341" y="346" width="64" height="1" fill="#E65700"/><rect x="341" y="347" width="64" height="1" fill="#E65700"/><rect x="341" y="348" width="64" height="1" fill="#E65700"/><rect x="341" y="349" width="64" height="1" fill="#E65700"/><rect x="341" y="350" width="64" height="1" fill="#E65700"/><rect x="341" y="351" width="64" height="1" fill="#E65700"/><rect x="341" y="352" width="64" height="1" fill="#E65700"/><rect x="341" y="353" width="64" height="1" fill="#E65700"/><rect x="341" y="354" width="64" height="1" fill="#E65700"/><rect x="341" y="355" width="64" height="1" fill="#E65700"/><rect x="341" y="356" width="64" height="1" fill="#E65700"/><rect x="341" y="357" width="64" height="1" fill="#E65700"/><rect x="341" y="358" width="64" height="1" fill="#E65700"/><rect x="341" y="359" width="64" height="1" fill="#E65700"/><rect x="341" y="360" width="64" height="1" fill="#E65700"/><rect x="341" y="361" width="64" height="1" fill="#E65700"/><rect x="341" y="362" width="64" height="1" fill="#E65700"/><rect x="341" y="363" width="64" height="1" fill="#E65700"/><rect x="341" y="364" width="64" height="1" fill="#E65700"/><rect x="341" y="365" width="64" height="1" fill="#E65700"/><rect x="341" y="366" width="64" height="1" fill="#E65700"/><rect x="341" y="367" width="64" height="1" fill="#E65700"/><rect x="341" y="368" width="64" height="1" fill="#E65700"/><rect x="341" y="369" width="64" height="1" fill="#E65700"/><rect x="341" y="370" width="64" height="1" fill="#E65700"/><rect x="341" y="371" width="64" height="1" fill="#E65700"/><rect x="341" y="372" width="64" height="1" fill="#E65700"/><rect x="341" y="373" width="64" height="1" fill="#E65700"/><rect x="341" y="374" width="64" height="1" fill="#E65700"/><rect x="341" y="375" width="64" height="1" fill="#E65700"/><rect x="341" y="376" width="64" height="1" fill="#E65700"/><rect x="341" y="377" width="64" height="1" fill="#E65700"/><rect x="341" y="378" width="64" height="1" fill="#E65700"/><rect x="341" y="379" width="64" height="1" fill="#E65700"/><rect x="341" y="380" width="64" height="1" fill="#E65700"/><rect x="341" y="381" width="64" height="1" fill="#E65700"/><rect x="341" y="382" width="64" height="1" fill="#E65700"/><rect x="341" y="383" width="64" height="1" fill="#E65700"/><rect x="341" y="384" width="64" height="1" fill="#E65700"/><rect x="341" y="385" width="64" height="1" fill="#E65700"/><rect x="341" y="386" width="64" height="1" fill="#E65700"/><rect x="341" y="387" width="64" height="1" fill="#E65700"/><rect x="341" y="388" width="64" height="1" fill="#E65700"/><rect x="341" y="389" width="64" height="1" fill="#E65700"/><rect x="341" y="390" width="64" height="1" fill="#E65700"/><rect x="341" y="391" width="64" height="1" fill="#E65700"/><rect x="341" y="392" width="64" height="1" fill="#E65700"/><rect x="341" y="393" width="64" height="1" fill="#E65700"/><rect x="341" y="394" width="64" height="1" fill="#E65700"/><rect x="341" y="395" width="64" height="1" fill="#E65700"/><rect x="341" y="396" width="64" height="1" fill="#E65700"/><rect x="341" y="397" width="64" height="1" fill="#E65700"/><rect x="341" y="398" width="64" height="1" fill="#E65700"/><rect x="341" y="399" width="64" height="1" fill="#E65700"/><rect x="341" y="400" width="64" height="1" fill="#E65700"/><rect x="341" y="401" width="64" height="1" fill="#E65700"/><rect x="341" y="402" width="64" height="1" fill="#E65700"/><rect x="341" y="403" width="64" height="1" fill="#E65700"/><rect x="341" y="404" width="64" height="1" fill="#E65700"/><rect x="341" y="405" width="64" height="1" fill="#E65700"/><rect x="341" y="406" width="64" height="1" fill="#E65700"/><rect x="341" y="407" width="64" height="1" fill="#E65700"/><rect x="341" y="408" width="64" height="1" fill="#E65700"/><rect x="341" y="409" width="64" height="1" fill="#E65700"/><rect x="341" y="410" width="64" height="1" fill="#E65700"/><rect x="341" y="411" width="64" height="1" fill="#E65700"/><rect x="341" y="412" width="64" height="1" fill="#E65700"/><rect x="341" y="413" width="64" height="1" fill="#E65700"/><rect x="341" y="414" width="64" height="1" fill="#E65700"/><rect x="341" y="415" width="64" height="1" fill="#E65700"/><rect x="341" y="416" width="64" height="1" fill="#E65700"/><rect x="341" y="417" width="64" height="1" fill="#E65700"/><rect x="341" y="418" width="64" height="1" fill="#E65700"/><rect x="341" y="419" width="64" height="1" fill="#E65700"/><rect x="341" y="420" width="64" height="1" fill="#E65700"/><rect x="341" y="421" width="64" height="1" fill="#E65700"/><rect x="341" y="422" width="64" height="1" fill="#E65700"/><rect x="341" y="423" width="64" height="1" fill="#E65700"/><rect x="341" y="424" width="64" height="1" fill="#E65700"/><rect x="341" y="425" width="64" height="1" fill="#E65700"/><rect x="341" y="426" width="64" height="1" fill="#E65700"/><rect x="320" y="427" width="85" height="1" fill="#E65700"/><rect x="320" y="428" width="85" height="1" fill="#E65700"/><rect x="320" y="429" width="85" height="1" fill="#E65700"/><rect x="320" y="430" width="85" height="1" fill="#E65700"/><rect x="320" y="431" width="85" height="1" fill="#E65700"/><rect x="320" y="432" width="85" height="1" fill="#E65700"/><rect x="320" y="433" width="85" height="1" fill="#E65700"/><rect x="320" y="434" width="85" height="1" fill="#E65700"/><rect x="320" y="435" width="85" height="1" fill="#E65700"/><rect x="320" y="436" width="85" height="1" fill="#E65700"/><rect x="320" y="437" width="85" height="1" fill="#E65700"/><rect x="320" y="438" width="85" height="1" fill="#E65700"/><rect x="320" y="439" width="85" height="1" fill="#E65700"/><rect x="320" y="440" width="85" height="1" fill="#E65700"/><rect x="320" y="441" width="85" height="1" fill="#E65700"/><rect x="320" y="442" width="85" height="1" fill="#E65700"/><rect x="320" y="443" width="85" height="1" fill="#E65700"/><rect x="320" y="444" width="85" height="1" fill="#E65700"/><rect x="320" y="445" width="85" height="1" fill="#E65700"/><rect x="320" y="446" width="85" height="1" fill="#E65700"/><rect x="320" y="447" width="85" height="1" fill="#E65700"/><rect x="299" y="448" width="106" height="1" fill="#E65700"/><rect x="299" y="449" width="106" height="1" fill="#E65700"/><rect x="299" y="450" width="106" height="1" fill="#E65700"/><rect x="299" y="451" width="106" height="1" fill="#E65700"/><rect x="299" y="452" width="106" height="1" fill="#E65700"/><rect x="299" y="453" width="106" height="1" fill="#E65700"/><rect x="299" y="454" width="106" height="1" fill="#E65700"/><rect x="299" y="455" width="106" height="1" fill="#E65700"/><rect x="299" y="456" width="106" height="1" fill="#E65700"/><rect x="299" y="457" width="106" height="1" fill="#E65700"/><rect x="299" y="458" width="106" height="1" fill="#E65700"/><rect x="299" y="459" width="106" height="1" fill="#E65700"/><rect x="299" y="460" width="106" height="1" fill="#E65700"/><rect x="299" y="461" width="106" height="1" fill="#E65700"/><rect x="299" y="462" width="106" height="1" fill="#E65700"/><rect x="299" y="463" width="106" height="1" fill="#E65700"/><rect x="299" y="464" width="106" height="1" fill="#E65700"/><rect x="299" y="465" width="106" height="1" fill="#E65700"/><rect x="299" y="466" width="106" height="1" fill="#E65700"/><rect x="299" y="467" width="106" height="1" fill="#E65700"/><rect x="299" y="468" width="106" height="1" fill="#E65700"/><rect x="299" y="469" width="64" height="1" fill="#E65700"/><rect x="299" y="470" width="64" height="1" fill="#E65700"/><rect x="299" y="471" width="64" height="1" fill="#E65700"/><rect x="299" y="472" width="64" height="1" fill="#E65700"/><rect x="299" y="473" width="64" height="1" fill="#E65700"/><rect x="299" y="474" width="64" height="1" fill="#E65700"/><rect x="299" y="475" width="64" height="1" fill="#E65700"/><rect x="299" y="476" width="64" height="1" fill="#E65700"/><rect x="299" y="477" width="64" height="1" fill="#E65700"/><rect x="299" y="478" width="64" height="1" fill="#E65700"/><rect x="299" y="479" width="64" height="1" fill="#E65700"/><rect x="299" y="480" width="64" height="1" fill="#E65700"/><rect x="299" y="481" width="64" height="1" fill="#E65700"/><rect x="299" y="482" width="64" height="1" fill="#E65700"/><rect x="299" y="483" width="64" height="1" fill="#E65700"/><rect x="299" y="484" width="64" height="1" fill="#E65700"/><rect x="299" y="485" width="64" height="1" fill="#E65700"/><rect x="299" y="486" width="64" height="1" fill="#E65700"/><rect x="299" y="487" width="64" height="1" fill="#E65700"/><rect x="299" y="488" width="64" height="1" fill="#E65700"/><rect x="299" y="489" width="64" height="1" fill="#E65700"/><rect x="299" y="490" width="64" height="1" fill="#E65700"/></svg>