<svg xmlns="http://www.w3.org/2000/svg" viewBox="0 0 512 512" width="512" height="512" shape-rendering="crispEdges"><rect x="192" y="107" width="128" height="1" fill="#000000"/><rect x="192" y="108" width="128" height="1" fill="#000000"/><rect x="192" y="109" width="128" height="1" fill="#000000"/><rect x="192" y="110" width="128" height="1" fill="#000000"/><rect x="192" y="111" width="128" height="1" fill="#000000"/><rect x="192" y="112" width="128" height="1" fill="#000000"/><rect x="192" y="113" width="128" height="1" fill="#000000"/><rect x="192" y="114" width="128" height="1" fill="#000000"/><rect x="192" y="115" width="128" height="1" fill="#000000"/><rect x="192" y="116" width="128" height="1" fill="#000000"/><rect x="192" y="117" width="128" height="1" fill="#000000"/><rect x="192" y="118" width="128" height="1" fill="#000000"/><rect x="192" y="119" width="128" height="1" fill="#000000"/><rect x="192" y="120" width="128" height="1" fill="#000000"/><rect x="192" y="121" width="128" height="1" fill="#000000"/><rect x="192" y="122" width="128" height="1" fill="#000000"/><rect x="192" y="123" width="128" height="1" fill="#000000"/><rect x="192" y="124" width="128" height="1" fill="#000000"/><rect x="192" y="125" width="128" height="1" fill="#000000"/><rect x="192" y="126" width="128" height="1" fill="#000000"/><rect x="192" y="127" width="128" height="1" fill="#000000"/><rect x="85" y="128" width="43" height="1" fill="#000000"/><rect x="171" y="128" width="170" height="1" fill="#000000"/><rect x="384" y="128" width="43" height="1" fill="#000000"/><rect x="85" y="129" width="43" height="1" fill="#000000"/><rect x="171" y="129" width="170" height="1" fill="#000000"/><rect x="384" y="129" width="43" height="1" fill="#000000"/><rect x="85" y="130" width="43" height="1" fill="#000000"/><rect x="171" y="130" width="170" height="1" fill="#000000"/><rect x="384" y="130" width="43" height="1" fill="#000000"/><rect x="85" y="131" width="43" height="1" fill="#000000"/><rect x="171" y="131" width="170" height="1" fill="#000000"/><rect x="384" y="131" width="43" height="1" fill="#000000"/><rect x="85" y="132" width="43" height="1" fill="#000000"/><rect x="171" y="132" width="170" height="1" fill="#000000"/><rect x="384" y="132" width="43" height="1" fill="#000000"/><rect x="85" y="133" width="43" height="1" fill="#000000"/><rect x="171" y="133" width="170" height="1" fill="#000000"/><rect x="384" y="133" width="43" height="1" fill="#000000"/><rect x="85" y="134" width="43" height="1" fill="#000000"/><rect x="171" y="134" width="170" height="1" fill="#000000"/><rect x="384" y="134" width="43" height="1" fill="#000000"/><rect x="85" y="135" width="43" height="1" fill="#000000"/><rect x="171" y="135" width="170" height="1" fill="#000000"/><rect x="384" y="135" width="43" height="1" fill="#000000"/><rect x="85" y="136" width="43" height="1" fill="#000000"/><rect x="171" y="136" width="170" height="1" fill="#000000"/><rect x="384" y="136" width="43" height="1" fill="#000000"/><rect x="85" y="137" width="43" height="1" fill="#000000"/><rect x="171" y="137" width="170" height="1" fill="#000000"/><rect x="384" y="137" width="43" height="1" fill="#000000"/><rect x="85" y="138" width="43" height="1" fill="#000000"/><rect x="171" y="138" width="170" height="1" fill="#000000"/><rect x="384" y="138" width="43" height="1" fill="#000000"/><rect x="85" y="139" width="43" height="1" fill="#000000"/><rect x="171" y="139" width="170" height="1" fill="#000000"/><rect x="384" y="139" width="43" height="1" fill="#000000"/><rect x="85" y="140" width="43" height="1" fill="#000000"/><rect x="171" y="140" width="170" height="1" fill="#000000"/><rect x="384" y="140" width="43" height="1" fill="#000000"/><rect x="85" y="141" width="43" height="1" fill="#000000"/><rect x="171" y="141" width="170" height="1" fill="#000000"/><rect x="384" y="141" width="43" height="1" fill="#000000"/><rect x="85" y="142" width="43" height="1" fill="#000000"/><rect x="171" y="142" width="170" height="1" fill="#000000"/><rect x="384" y="142" width="43" height="1" fill="#000000"/><rect x="85" y="143" width="43" height="1" fill="#000000"/><rect x="171" y="143" width="170" height="1" fill="#000000"/><rect x="384" y="143" width="43" height="1" fill="#000000"/><rect x="85" y="144" width="43" height="1" fill="#000000"/><rect x="171" y="144" width="170" height="1" fill="#000000"/><rect x="384" y="144" width="43" height="1" fill="#000000"/><rect x="85" y="145" width="43" height="1" fill="#000000"/><rect x="171" y="145" width="170" height="1" fill="#000000"/><rect x="384" y="145" width="43" height="1" fill="#000000"/><rect x="85" y="146" width="43" height="1" fill="#000000"/><rect x="171" y="146" width="170" height="1" fill="#000000"/><rect x="384" y="146" width="43" height="1" fill="#000000"/><rect x="85" y="147" width="43" height="1" fill="#000000"/><rect x="171" y="147" width="170" height="1" fill="#000000"/><rect x="384" y="147" width="43" height="1" fill="#000000"/><rect x="85" y="148" width="43" height="1" fill="#000000"/><rect x="171" y="148" width="170" height="1" fill="#000000"/><rect x="384" y="148" width="43" height="1" fill="#000000"/><rect x="64" y="149" width="85" height="1" fill="#000000"/><rect x="149" y="149" width="22" height="1" fill="#FFD62C"/><rect x="171" y="149" width="170" height="1" fill="#000000"/><rect x="341" y="149" width="22" height="1" fill="#FFD62C"/><rect x="363" y="149" width="85" height="1" fill="#000000"/><rect x="64" y="150" width="85" height="1" fill="#000000"/><rect x="149" y="150" width="22" height="1" fill="#FFD62C"/><rect x="171" y="150" width="170" height="1" fill="#000000"/><rect x="341" y="150" width="22" height="1" fill="#FFD62C"/><rect x="363" y="150" width="85" height="1" fill="#000000"/><rect x="64" y="151" width="85" height="1" fill="#000000"/><rect x="149" y="151" width="22" height="1" fill="#FFD62C"/><rect x="171" y="151" width="170" height="1" fill="#000000"/><rect x="341" y="151" width="22" height="1" fill="#FFD62C"/><rect x="363" y="151" width="85" height="1" fill="#000000"/><rect x="64" y="152" width="85" height="1" fill="#000000"/><rect x="149" y="152" width="22" height="1" fill="#FFD62C"/><rect x="171" y="152" width="170" height="1" fill="#000000"/><rect x="341" y="152" width="22" height="1" fill="#FFD62C"/><rect x="363" y="152" width="85" height="1" fill="#000000"/><rect x="64" y="153" width="85" height="1" fill="#000000"/><rect x="149" y="153" width="22" height="1" fill="#FFD62C"/><rect x="171" y="153" width="170" height="1" fill="#000000"/><rect x="341" y="153" width="22" height="1" fill="#FFD62C"/><rect x="363" y="153" width="85" height="1" fill="#000000"/><rect x="64" y="154" width="85" height="1" fill="#000000"/><rect x="149" y="154" width="22" height="1" fill="#FFD62C"/><rect x="171" y="154" width="170" height="1" fill="#000000"/><rect x="341" y="154" width="22" height="1" fill="#FFD62C"/><rect x="363" y="154" width="85" height="1" fill="#000000"/><rect x="64" y="155" width="85" height="1" fill="#000000"/><rect x="149" y="155" width="22" height="1" fill="#FFD62C"/><rect x="171" y="155" width="170" height="1" fill="#000000"/><rect x="341" y="155" width="22" height="1" fill="#FFD62C"/><rect x="363" y="155" width="85" height="1" fill="#000000"/><rect x="64" y="156" width="85" height="1" fill="#000000"/><rect x="149" y="156" width="22" height="1" fill="#FFD62C"/><rect x="171" y="156" width="170" height="1" fill="#000000"/><rect x="341" y="156" width="22" height="1" fill="#FFD62C"/><rect x="363" y="156" width="85" height="1" fill="#000000"/><rect x="64" y="157" width="85" height="1" fill="#000000"/><rect x="149" y="157" width="22" height="1" fill="#FFD62C"/><rect x="171" y="157" width="170" height="1" fill="#000000"/><rect x="341" y="157" width="22" height="1" fill="#FFD62C"/><rect x="363" y="157" width="85" height="1" fill="#000000"/><rect x="64" y="158" width="85" height="1" fill="#000000"/><rect x="149" y="158" width="22" height="1" fill="#FFD62C"/><rect x="171" y="158" width="170" height="1" fill="#000000"/><rect x="341" y="158" width="22" height="1" fill="#FFD62C"/><rect x="363" y="158" width="85" height="1" fill="#000000"/><rect x="64" y="159" width="85" height="1" fill="#000000"/><rect x="149" y="159" width="22" height="1" fill="#FFD62C"/><rect x="171" y="159" width="170" height="1" fill="#000000"/><rect x="341" y="159" width="22" height="1" fill="#FFD62C"/><rect x="363" y="159" width="85" height="1" fill="#000000"/><rect x="64" y="160" width="85" height="1" fill="#000000"/><rect x="149" y="160" width="22" height="1" fill="#FFD62C"/><rect x="171" y="160" width="170" height="1" fill="#000000"/><rect x="341" y="160" width="22" height="1" fill="#FFD62C"/><rect x="363" y="160" width="85" height="1" fill="#000000"/><rect x="64" y="161" width="85" height="1" fill="#000000"/><rect x="149" y="161" width="22" height="1" fill="#FFD62C"/><rect x="171" y="161" width="170" height="1" fill="#000000"/><rect x="341" y="161" width="22" height="1" fill="#FFD62C"/><rect x="363" y="161" width="85" height="1" fill="#000000"/><rect x="64" y="162" width="85" height="1" fill="#000000"/><rect x="149" y="162" width="22" height="1" fill="#FFD62C"/><rect x="171" y="162" width="170" height="1" fill="#000000"/><rect x="341" y="162" width="22" height="1" fill="#FFD62C"/><rect x="363" y="162" width="85" height="1" fill="#000000"/><rect x="64" y="163" width="85" height="1" fill="#000000"/><rect x="149" y="163" width="22" height="1" fill="#FFD62C"/><rect x="171" y="163" width="170" height="1" fill="#000000"/><rect x="341" y="163" width="22" height="1" fill="#FFD62C"/><rect x="363" y="163" width="85" height="1" fill="#000000"/><rect x="64" y="164" width="85" height="1" fill="#000000"/><rect x="149" y="164" width="22" height="1" fill="#FFD62C"/><rect x="171" y="164" width="170" height="1" fill="#000000"/><rect x="341" y="164" width="22" height="1" fill="#FFD62C"/><rect x="363" y="164" width="85" height="1" fill="#000000"/><rect x="64" y="165" width="85" height="1" fill="#000000"/><rect x="149" y="165" width="22" height="1" fill="#FFD62C"/><rect x="171" y="165" width="170" height="1" fill="#000000"/><rect x="341" y="165" width="22" height="1" fill="#FFD62C"/><rect x="363" y="165" width="85" height="1" fill="#000000"/><rect x="64" y="166" width="85" height="1" fill="#000000"/><rect x="149" y="166" width="22" height="1" fill="#FFD62C"/><rect x="171" y="166" width="170" height="1" fill="#000000"/><rect x="341" y="166" width="22" height="1" fill="#FFD62C"/><rect x="363" y="166" width="85" height="1" fill="#000000"/><rect x="64" y="167" width="85" height="1" fill="#000000"/><rect x="149" y="167" width="22" height="1" fill="#FFD62C"/><rect x="171" y="167" width="170" height="1" fill="#000000"/><rect x="341" y="167" width="22" height="1" fill="#FFD62C"/><rect x="363" y="167" width="85" height="1" fill="#000000"/><rect x="64" y="168" width="85" height="1" fill="#000000"/><rect x="149" y="168" width="22" height="1" fill="#FFD62C"/><rect x="171" y="168" width="170" height="1" fill="#000000"/><rect x="341" y="168" width="22" height="1" fill="#FFD62C"/><rect x="363" y="168" width="85" height="1" fill="#000000"/><rect x="64" y="169" width="85" height="1" fill="#000000"/><rect x="149" y="169" width="22" height="1" fill="#FFD62C"/><rect x="171" y="169" width="170" height="1" fill="#000000"/><rect x="341" y="169" width="22" height="1" fill="#FFD62C"/><rect x="363" y="169" width="85" height="1" fill="#000000"/><rect x="64" y="170" width="85" height="1" fill="#000000"/><rect x="149" y="170" width="22" height="1" fill="#FFD62C"/><rect x="171" y="170" width="170" height="1" fill="#000000"/><rect x="341" y="170" width="22" height="1" fill="#FFD62C"/><rect x="363" y="170" width="85" height="1" fill="#000000"/><rect x="43" y="171" width="426" height="1" fill="#000000"/><rect x="43" y="172" width="426" height="1" fill="#000000"/><rect x="43" y="173" width="426" height="1" fill="#000000"/><rect x="43" y="174" width="426" height="1" fill="#000000"/><rect x="43" y="175" width="426" height="1" fill="#000000"/><rect x="43" y="176" width="426" height="1" fill="#000000"/><rect x="43" y="177" width="426" height="1" fill="#000000"/><rect x="43" y="178" width="426" height="1" fill="#000000"/><rect x="43" y="179" width="426" height="1" fill="#000000"/><rect x="43" y="180" width="426" height="1" fill="#000000"/><rect x="43" y="181" width="426" height="1" fill="#000000"/><rect x="43" y="182" width="426" height="1" fill="#000000"/><rect x="43" y="183" width="426" height="1" fill="#000000"/><rect x="43" y="184" width="426" height="1" fill="#000000"/><rect x="43" y="185" width="426" height="1" fill="#000000"/><rect x="43" y="186" width="426" height="1" fill="#000000"/><rect x="43" y="187" width="426" height="1" fill="#000000"/><rect x="43" y="188" width="426" height="1" fill="#000000"/><rect x="43" y="189" width="426" height="1" fill="#000000"/><rect x="43" y="190" width="426" height="1" fill="#000000"/><rect x="43" y="191" width="426" height="1" fill="#000000"/><rect x="43" y="192" width="85" height="1" fill="#000000"/><rect x="149" y="192" width="64" height="1" fill="#000000"/><rect x="320" y="192" width="43" height="1" fill="#000000"/><rect x="384" y="192" width="85" height="1" fill="#000000"/><rect x="43" y="193" width="85" height="1" fill="#000000"/><rect x="149" y="193" width="64" height="1" fill="#000000"/><rect x="320" y="193" width="43" height="1" fill="#000000"/><rect x="384" y="193" width="85" height="1" fill="#000000"/><rect x="43" y="194" width="85" height="1" fill="#000000"/><rect x="149" y="194" width="64" height="1" fill="#000000"/><rect x="320" y="194" width="43" height="1" fill="#000000"/><rect x="384" y="194" width="85" height="1" fill="#000000"/><rect x="43" y="195" width="85" height="1" fill="#000000"/><rect x="149" y="195" width="64" height="1" fill="#000000"/><rect x="320" y="195" width="43" height="1" fill="#000000"/><rect x="384" y="195" width="85" height="1" fill="#000000"/><rect x="43" y="196" width="85" height="1" fill="#000000"/><rect x="149" y="196" width="64" height="1" fill="#000000"/><rect x="320" y="196" width="43" height="1" fill="#000000"/><rect x="384" y="196" width="85" height="1" fill="#000000"/><rect x="43" y="197" width="85" height="1" fill="#000000"/><rect x="149" y="197" width="64" height="1" fill="#000000"/><rect x="320" y="197" width="43" height="1" fill="#000000"/><rect x="384" y="197" width="85" height="1" fill="#000000"/><rect x="43" y="198" width="85" height="1" fill="#000000"/><rect x="149" y="198" width="64" height="1" fill="#000000"/><rect x="320" y="198" width="43" height="1" fill="#000000"/><rect x="384" y="198" width="85" height="1" fill="#000000"/><rect x="43" y="199" width="85" height="1" fill="#000000"/><rect x="149" y="199" width="64" height="1" fill="#000000"/><rect x="320" y="199" width="43" height="1" fill="#000000"/><rect x="384" y="199" width="85" height="1" fill="#000000"/><rect x="43" y="200" width="85" height="1" fill="#000000"/><rect x="149" y="200" width="64" height="1" fill="#000000"/><rect x="320" y="200" width="43" height="1" fill="#000000"/><rect x="384" y="200" width="85" height="1" fill="#000000"/><rect x="43" y="201" width="85" height="1" fill="#000000"/><rect x="149" y="201" width="64" height="1" fill="#000000"/><rect x="320" y="201" width="43" height="1" fill="#000000"/><rect x="384" y="201" width="85" height="1" fill="#000000"/><rect x="43" y="202" width="85" height="1" fill="#000000"/><rect x="149" y="202" width="64" height="1" fill="#000000"/><rect x="320" y="202" width="43" height="1" fill="#000000"/><rect x="384" y="202" width="85" height="1" fill="#000000"/><rect x="43" y="203" width="85" height="1" fill="#000000"/><rect x="149" y="203" width="64" height="1" fill="#000000"/><rect x="320" y="203" width="43" height="1" fill="#000000"/><rect x="384" y="203" width="85" height="1" fill="#000000"/><rect x="43" y="204" width="85" height="1" fill="#000000"/><rect x="149" y="204" width="64" height="1" fill="#000000"/><rect x="320" y="204" width="43" height="1" fill="#000000"/><rect x="384" y="204" width="85" height="1" fill="#000000"/><rect x="43" y="205" width="85" height="1" fill="#000000"/><rect x="149" y="205" width="64" height="1" fill="#000000"/><rect x="320" y="205" width="43" height="1" fill="#000000"/><rect x="384" y="205" width="85" height="1" fill="#000000"/><rect x="43" y="206" width="85" height="1" fill="#000000"/><rect x="149" y="206" width="64" height="1" fill="#000000"/><rect x="320" y="206" width="43" height="1" fill="#000000"/><rect x="384" y="206" width="85" height="1" fill="#000000"/><rect x="43" y="207" width="85" height="1" fill="#000000"/><rect x="149" y="207" width="64" height="1" fill="#000000"/><rect x="320" y="207" width="43" height="1" fill="#000000"/><rect x="384" y="207" width="85" height="1" fill="#000000"/><rect x="43" y="208" width="85" height="1" fill="#000000"/><rect x="149" y="208" width="64" height="1" fill="#000000"/><rect x="320" y="208" width="43" height="1" fill="#000000"/><rect x="384" y="208" width="85" height="1" fill="#000000"/><rect x="43" y="209" width="85" height="1" fill="#000000"/><rect x="149" y="209" width="64" height="1" fill="#000000"/><rect x="320" y="209" width="43" height="1" fill="#000000"/><rect x="384" y="209" width="85" height="1" fill="#000000"/><rect x="43" y="210" width="85" height="1" fill="#000000"/><rect x="149" y="210" width="64" height="1" fill="#000000"/><rect x="320" y="210" width="43" height="1" fill="#000000"/><rect x="384" y="210" width="85" height="1" fill="#000000"/><rect x="43" y="211" width="85" height="1" fill="#000000"/><rect x="149" y="211" width="64" height="1" fill="#000000"/><rect x="320" y="211" width="43" height="1" fill="#000000"/><rect x="384" y="211" width="85" height="1" fill="#000000"/><rect x="43" y="212" width="85" height="1" fill="#000000"/><rect x="149" y="212" width="64" height="1" fill="#000000"/><rect x="320" y="212" width="43" height="1" fill="#000000"/><rect x="384" y="212" width="85" height="1" fill="#000000"/><rect x="43" y="213" width="64" height="1" fill="#000000"/><rect x="149" y="213" width="43" height="1" fill="#000000"/><rect x="341" y="213" width="22" height="1" fill="#000000"/><rect x="405" y="213" width="64" height="1" fill="#000000"/><rect x="43" y="214" width="64" height="1" fill="#000000"/><rect x="149" y="214" width="43" height="1" fill="#000000"/><rect x="341" y="214" width="22" height="1" fill="#000000"/><rect x="405" y="214" width="64" height="1" fill="#000000"/><rect x="43" y="215" width="64" height="1" fill="#000000"/><rect x="149" y="215" width="43" height="1" fill="#000000"/><rect x="341" y="215" width="22" height="1" fill="#000000"/><rect x="405" y="215" width="64" height="1" fill="#000000"/><rect x="43" y="216" width="64" height="1" fill="#000000"/><rect x="149" y="216" width="43" height="1" fill="#000000"/><rect x="341" y="216" width="22" height="1" fill="#000000"/><rect x="405" y="216" width="64" height="1" fill="#000000"/><rect x="43" y="217" width="64" height="1" fill="#000000"/><rect x="149" y="217" width="43" height="1" fill="#000000"/><rect x="341" y="217" width="22" height="1" fill="#000000"/><rect x="405" y="217" width="64" height="1" fill="#000000"/><rect x="43" y="218" width="64" height="1" fill="#000000"/><rect x="149" y="218" width="43" height="1" fill="#000000"/><rect x="341" y="218" width="22" height="1" fill="#000000"/><rect x="405" y="218" width="64" height="1" fill="#000000"/><rect x="43" y="219" width="64" height="1" fill="#000000"/><rect x="149" y="219" width="43" height="1" fill="#000000"/><rect x="341" y="219" width="22" height="1" fill="#000000"/><rect x="405" y="219" width="64" height="1" fill="#000000"/><rect x="43" y="220" width="64" height="1" fill="#000000"/><rect x="149" y="220" width="43" height="1" fill="#000000"/><rect x="341" y="220" width="22" height="1" fill="#000000"/><rect x="405" y="220" width="64" height="1" fill="#000000"/><rect x="43" y="221" width="64" height="1" fill="#000000"/><rect x="149" y="221" width="43" height="1" fill="#000000"/><rect x="341" y="221" width="22" height="1" fill="#000000"/><rect x="405" y="221" width="64" height="1" fill="#000000"/><rect x="43" y="222" width="64" height="1" fill="#000000"/><rect x="149" y="222" width="43" height="1" fill="#000000"/><rect x="341" y="222" width="22" height="1" fill="#000000"/><rect x="405" y="222" width="64" height="1" fill="#000000"/><rect x="43" y="223" width="64" height="1" fill="#000000"/><rect x="149" y="223" width="43" height="1" fill="#000000"/><rect x="341" y="223" width="22" height="1" fill="#000000"/><rect x="405" y="223" width="64" height="1" fill="#000000"/><rect x="43" y="224" width="64" height="1" fill="#000000"/><rect x="149" y="224" width="43" height="1" fill="#000000"/><rect x="341" y="224" width="22" height="1" fill="#000000"/><rect x="405" y="224" width="64" height="1" fill="#000000"/><rect x="43" y="225" width="64" height="1" fill="#000000"/><rect x="149" y="225" width="43" height="1" fill="#000000"/><rect x="341" y="225" width="22" height="1" fill="#000000"/><rect x="405" y="225" width="64" height="1" fill="#000000"/><rect x="43" y="226" width="64" height="1" fill="#000000"/><rect x="149" y="226" width="43" height="1" fill="#000000"/><rect x="341" y="226" width="22" height="1" fill="#000000"/><rect x="405" y="226" width="64" height="1" fill="#000000"/><rect x="43" y="227" width="64" height="1" fill="#000000"/><rect x="149" y="227" width="43" height="1" fill="#000000"/><rect x="341" y="227" width="22" height="1" fill="#000000"/><rect x="405" y="227" width="64" height="1" fill="#000000"/><rect x="43" y="228" width="64" height="1" fill="#000000"/><rect x="149" y="228" width="43" height="1" fill="#000000"/><rect x="341" y="228" width="22" height="1" fill="#000000"/><rect x="405" y="228" width="64" height="1" fill="#000000"/><rect x="43" y="229" width="64" height="1" fill="#000000"/><rect x="149" y="229" width="43" height="1" fill="#000000"/><rect x="341" y="229" width="22" height="1" fill="#000000"/><rect x="405" y="229" width="64" height="1" fill="#000000"/><rect x="43" y="230" width="64" height="1" fill="#000000"/><rect x="149" y="230" width="43" height="1" fill="#000000"/><rect x="341" y="230" width="22" height="1" fill="#000000"/><rect x="405" y="230" width="64" height="1" fill="#000000"/><rect x="43" y="231" width="64" height="1" fill="#000000"/><rect x="149" y="231" width="43" height="1" fill="#000000"/><rect x="341" y="231" width="22" height="1" fill="#000000"/><rect x="405" y="231" width="64" height="1" fill="#000000"/><rect x="43" y="232" width="64" height="1" fill="#000000"/><rect x="149" y="232" width="43" height="1" fill="#000000"/><rect x="341" y="232" width="22" height="1" fill="#000000"/><rect x="405" y="232" width="64" height="1" fill="#000000"/><rect x="43" y="233" width="64" height="1" fill="#000000"/><rect x="149" y="233" width="43" height="1" fill="#000000"/><rect x="341" y="233" width="22" height="1" fill="#000000"/><rect x="405" y="233" width="64" height="1" fill="#000000"/><rect x="43" y="234" width="64" height="1" fill="#000000"/><rect x="149" y="234" width="43" height="1" fill="#000000"/><rect x="341" y="234" width="22" height="1" fill="#000000"/><rect x="405" y="234" width="64" height="1" fill="#000000"/><rect x="43" y="235" width="64" height="1" fill="#000000"/><rect x="149" y="235" width="22" height="1" fill="#000000"/><rect x="405" y="235" width="64" height="1" fill="#000000"/><rect x="43" y="236" width="64" height="1" fill="#000000"/><rect x="149" y="236" width="22" height="1" fill="#000000"/><rect x="405" y="236" width="64" height="1" fill="#000000"/><rect x="43" y="237" width="64" height="1" fill="#000000"/><rect x="149" y="237" width="22" height="1" fill="#000000"/><rect x="405" y="237" width="64" height="1" fill="#000000"/><rect x="43" y="238" width="64" height="1" fill="#000000"/><rect x="149" y="238" width="22" height="1" fill="#000000"/><rect x="405" y="238" width="64" height="1" fill="#000000"/><rect x="43" y="239" width="64" height="1" fill="#000000"/><rect x="149" y="239" width="22" height="1" fill="#000000"/><rect x="405" y="239" width="64" height="1" fill="#000000"/><rect x="43" y="240" width="64" height="1" fill="#000000"/><rect x="149" y="240" width="22" height="1" fill="#000000"/><rect x="405" y="240" width="64" height="1" fill="#000000"/><rect x="43" y="241" width="64" height="1" fill="#000000"/><rect x="149" y="241" width="22" height="1" fill="#000000"/><rect x="405" y="241" width="64" height="1" fill="#000000"/><rect x="43" y="242" width="64" height="1" fill="#000000"/><rect x="149" y="242" width="22" height="1" fill="#000000"/><rect x="405" y="242" width="64" height="1" fill="#000000"/><rect x="43" y="243" width="64" height="1" fill="#000000"/><rect x="149" y="243" width="22" height="1" fill="#000000"/><rect x="405" y="243" width="64" height="1" fill="#000000"/><rect x="43" y="244" width="64" height="1" fill="#000000"/><rect x="149" y="244" width="22" height="1" fill="#000000"/><rect x="405" y="244" width="64" height="1" fill="#000000"/><rect x="43" y="245" width="64" height="1" fill="#000000"/><rect x="149" y="245" width="22" height="1" fill="#000000"/><rect x="405" y="245" width="64" height="1" fill="#000000"/><rect x="43" y="246" width="64" height="1" fill="#000000"/><rect x="149" y="246" width="22" height="1" fill="#000000"/><rect x="405" y="246" width="64" height="1" fill="#000000"/><rect x="43" y="247" width="64" height="1" fill="#000000"/><rect x="149" y="247" width="22" height="1" fill="#000000"/><rect x="405" y="247" width="64" height="1" fill="#000000"/><rect x="43" y="248" width="64" height="1" fill="#000000"/><rect x="149" y="248" width="22" height="1" fill="#000000"/><rect x="405" y="248" width="64" height="1" fill="#000000"/><rect x="43" y="249" width="64" height="1" fill="#000000"/><rect x="149" y="249" width="22" height="1" fill="#000000"/><rect x="405" y="249" width="64" height="1" fill="#000000"/><rect x="43" y="250" width="64" height="1" fill="#000000"/><rect x="149" y="250" width="22" height="1" fill="#000000"/><rect x="405" y="250" width="64" height="1" fill="#000000"/><rect x="43" y="251" width="64" height="1" fill="#000000"/><rect x="149" y="251" width="22" height="1" fill="#000000"/><rect x="405" y="251" width="64" height="1" fill="#000000"/><rect x="43" y="252" width="64" height="1" fill="#000000"/><rect x="149" y="252" width="22" height="1" fill="#000000"/><rect x="405" y="252" width="64" height="1" fill="#000000"/><rect x="43" y="253" width="64" height="1" fill="#000000"/><rect x="149" y="253" width="22" height="1" fill="#000000"/><rect x="405" y="253" width="64" height="1" fill="#000000"/><rect x="43" y="254" width="64" height="1" fill="#000000"/><rect x="149" y="254" width="22" height="1" fill="#000000"/><rect x="405" y="254" width="64" height="1" fill="#000000"/><rect x="43" y="255" width="64" height="1" fill="#000000"/><rect x="149" y="255" width="22" height="1" fill="#000000"/><rect x="405" y="255" width="64" height="1" fill="#000000"/><rect x="64" y="256" width="21" height="1" fill="#000000"/><rect x="427" y="256" width="21" height="1" fill="#000000"/><rect x="64" y="257" width="21" height="1" fill="#000000"/><rect x="427" y="257" width="21" height="1" fill="#000000"/><rect x="64" y="258" width="21" height="1" fill="#000000"/><rect x="427" y="258" width="21" height="1" fill="#000000"/><rect x="64" y="259" width="21" height="1" fill="#000000"/><rect x="427" y="259" width="21" height="1" fill="#000000"/><rect x="64" y="260" width="21" height="1" fill="#000000"/><rect x="427" y="260" width="21" height="1" fill="#000000"/><rect x="64" y="261" width="21" height="1" fill="#000000"/><rect x="427" y="261" width="21" height="1" fill="#000000"/><rect x="64" y="262" width="21" height="1" fill="#000000"/><rect x="427" y="262" width="21" height="1" fill="#000000"/><rect x="64" y="263" width="21" height="1" fill="#000000"/><rect x="427" y="263" width="21" height="1" fill="#000000"/><rect x="64" y="264" width="21" height="1" fill="#000000"/><rect x="427" y="264" width="21" height="1" fill="#000000"/><rect x="64" y="265" width="21" height="1" fill="#000000"/><rect x="427" y="265" width="21" height="1" fill="#000000"/><rect x="64" y="266" width="21" height="1" fill="#000000"/><rect x="427" y="266" width="21" height="1" fill="#000000"/><rect x="64" y="267" width="21" height="1" fill="#000000"/><rect x="427" y="267" width="21" height="1" fill="#000000"/><rect x="64" y="268" width="21" height="1" fill="#000000"/><rect x="427" y="268" width="21" height="1" fill="#000000"/><rect x="64" y="269" width="21" height="1" fill="#000000"/><rect x="427" y="269" width="21" height="1" fill="#000000"/><rect x="64" y="270" width="21" height="1" fill="#000000"/><rect x="427" y="270" width="21" height="1" fill="#000000"/><rect x="64" y="271" width="21" height="1" fill="#000000"/><rect x="427" y="271" width="21" height="1" fill="#000000"/><rect x="64" y="272" width="21" height="1" fill="#000000"/><rect x="427" y="272" width="21" height="1" fill="#000000"/><rect x="64" y="273" width="21" height="1" fill="#000000"/><rect x="427" y="273" width="21" height="1" fill="#000000"/><rect x="64" y="274" width="21" height="1" fill="#000000"/><rect x="427" y="274" width="21" height="1" fill="#000000"/><rect x="64" y="275" width="21" height="1" fill="#000000"/><rect x="427" y="275" width="21" height="1" fill="#000000"/><rect x="64" y="276" width="21" height="1" fill="#000000"/><rect x="427" y="276" width="21" height="1" fill="#000000"/></svg>