<svg xmlns="http://www.w3.org/2000/svg" viewBox="0 0 512 512" width="512" height="512" shape-rendering="crispEdges"><rect x="213" y="107" width="86" height="1" fill="#FFFFFF"/><rect x="320" y="107" width="21" height="1" fill="#FFFFFF"/><rect x="213" y="108" width="86" height="1" fill="#FFFFFF"/><rect x="320" y="108" width="21" height="1" fill="#FFFFFF"/><rect x="213" y="109" width="86" height="1" fill="#FFFFFF"/><rect x="320" y="109" width="21" height="1" fill="#FFFFFF"/><rect x="213" y="110" width="86" height="1" fill="#FFFFFF"/><rect x="320" y="110" width="21" height="1" fill="#FFFFFF"/><rect x="213" y="111" width="86" height="1" fill="#FFFFFF"/><rect x="320" y="111" width="21" height="1" fill="#FFFFFF"/><rect x="213" y="112" width="86" height="1" fill="#FFFFFF"/><rect x="320" y="112" width="21" height="1" fill="#FFFFFF"/><rect x="213" y="113" width="86" height="1" fill="#FFFFFF"/><rect x="320" y="113" width="21" height="1" fill="#FFFFFF"/><rect x="213" y="114" width="86" height="1" fill="#FFFFFF"/><rect x="320" y="114" width="21" height="1" fill="#FFFFFF"/><rect x="213" y="115" width="86" height="1" fill="#FFFFFF"/><rect x="320" y="115" width="21" height="1" fill="#FFFFFF"/><rect x="213" y="116" width="86" height="1" fill="#FFFFFF"/><rect x="320" y="116" width="21" height="1" fill="#FFFFFF"/><rect x="213" y="117" width="86" height="1" fill="#FFFFFF"/><rect x="320" y="117" width="21" height="1" fill="#FFFFFF"/><rect x="213" y="118" width="86" height="1" fill="#FFFFFF"/><rect x="320" y="118" width="21" height="1" fill="#FFFFFF"/><rect x="213" y="119" width="86" height="1" fill="#FFFFFF"/><rect x="320" y="119" width="21" height="1" fill="#FFFFFF"/><rect x="213" y="120" width="86" height="1" fill="#FFFFFF"/><rect x="320" y="120" width="21" height="1" fill="#FFFFFF"/><rect x="213" y="121" width="86" height="1" fill="#FFFFFF"/><rect x="320" y="121" width="21" height="1" fill="#FFFFFF"/><rect x="213" y="122" width="86" height="1" fill="#FFFFFF"/><rect x="320" y="122" width="21" height="1" fill="#FFFFFF"/><rect x="213" y="123" width="86" height="1" fill="#FFFFFF"/><rect x="320" y="123" width="21" height="1" fill="#FFFFFF"/><rect x="213" y="124" width="86" height="1" fill="#FFFFFF"/><rect x="320" y="124" width="21" height="1" fill="#FFFFFF"/><rect x="213" y="125" width="86" height="1" fill="#FFFFFF"/><rect x="320" y="125" width="21" height="1" fill="#FFFFFF"/><rect x="213" y="126" width="86" height="1" fill="#FFFFFF"/><rect x="320" y="126" width="21" height="1" fill="#FFFFFF"/><rect x="213" y="127" width="86" height="1" fill="#FFFFFF"/><rect x="320" y="127" width="21" height="1" fill="#FFFFFF"/><rect x="149" y="128" width="22" height="1" fill="#FFFFFF"/><rect x="192" y="128" width="128" height="1" fill="#FFFFFF"/><rect x="149" y="129" width="22" height="1" fill="#FFFFFF"/><rect x="192" y="129" width="128" height="1" fill="#FFFFFF"/><rect x="149" y="130" width="22" height="1" fill="#FFFFFF"/><rect x="192" y="130" width="128" height="1" fill="#FFFFFF"/><rect x="149" y="131" width="22" height="1" fill="#FFFFFF"/><rect x="192" y="131" width="128" height="1" fill="#FFFFFF"/><rect x="149" y="132" width="22" height="1" fill="#FFFFFF"/><rect x="192" y="132" width="128" height="1" fill="#FFFFFF"/><rect x="149" y="133" width="22" height="1" fill="#FFFFFF"/><rect x="192" y="133" width="128" height="1" fill="#FFFFFF"/><rect x="149" y="134" width="22" height="1" fill="#FFFFFF"/><rect x="192" y="134" width="128" height="1" fill="#FFFFFF"/><rect x="149" y="135" width="22" height="1" fill="#FFFFFF"/><rect x="192" y="135" width="128" height="1" fill="#FFFFFF"/><rect x="149" y="136" width="22" height="1" fill="#FFFFFF"/><rect x="192" y="136" width="128" height="1" fill="#FFFFFF"/><rect x="149" y="137" width="22" height="1" fill="#FFFFFF"/><rect x="192" y="137" width="128" height="1" fill="#FFFFFF"/><rect x="149" y="138" width="22" height="1" fill="#FFFFFF"/><rect x="192" y="138" width="128" height="1" fill="#FFFFFF"/><rect x="149" y="139" width="22" height="1" fill="#FFFFFF"/><rect x="192" y="139" width="128" height="1" fill="#FFFFFF"/><rect x="149" y="140" width="22" height="1" fill="#FFFFFF"/><rect x="192" y="140" width="128" height="1" fill="#FFFFFF"/><rect x="149" y="141" width="22" height="1" fill="#FFFFFF"/><rect x="192" y="141" width="128" height="1" fill="#FFFFFF"/><rect x="149" y="142" width="22" height="1" fill="#FFFFFF"/><rect x="192" y="142" width="128" height="1" fill="#FFFFFF"/><rect x="149" y="143" width="22" height="1" fill="#FFFFFF"/><rect x="192" y="143" width="128" height="1" fill="#FFFFFF"/><rect x="149" y="144" width="22" height="1" fill="#FFFFFF"/><rect x="192" y="144" width="128" height="1" fill="#FFFFFF"/><rect x="149" y="145" width="22" height="1" fill="#FFFFFF"/><rect x="192" y="145" width="128" height="1" fill="#FFFFFF"/><rect x="149" y="146" width="22" height="1" fill="#FFFFFF"/><rect x="192" y="146" width="128" height="1" fill="#FFFFFF"/><rect x="149" y="147" width="22" height="1" fill="#FFFFFF"/><rect x="192" y="147" width="128" height="1" fill="#FFFFFF"/><rect x="149" y="148" width="22" height="1" fill="#FFFFFF"/><rect x="192" y="148" width="128" height="1" fill="#FFFFFF"/><rect x="149" y="149" width="192" height="1" fill="#FFFFFF"/><rect x="363" y="149" width="21" height="1" fill="#FFFFFF"/><rect x="149" y="150" width="192" height="1" fill="#FFFFFF"/><rect x="363" y="150" width="21" height="1" fill="#FFFFFF"/><rect x="149" y="151" width="192" height="1" fill="#FFFFFF"/><rect x="363" y="151" width="21" height="1" fill="#FFFFFF"/><rect x="149" y="152" width="192" height="1" fill="#FFFFFF"/><rect x="363" y="152" width="21" height="1" fill="#FFFFFF"/><rect x="149" y="153" width="192" height="1" fill="#FFFFFF"/><rect x="363" y="153" width="21" height="1" fill="#FFFFFF"/><rect x="149" y="154" width="192" height="1" fill="#FFFFFF"/><rect x="363" y="154" width="21" height="1" fill="#FFFFFF"/><rect x="149" y="155" width="192" height="1" fill="#FFFFFF"/><rect x="363" y="155" width="21" height="1" fill="#FFFFFF"/><rect x="149" y="156" width="192" height="1" fill="#FFFFFF"/><rect x="363" y="156" width="21" height="1" fill="#FFFFFF"/><rect x="149" y="157" width="192" height="1" fill="#FFFFFF"/><rect x="363" y="157" width="21" height="1" fill="#FFFFFF"/><rect x="149" y="158" width="192" height="1" fill="#FFFFFF"/><rect x="363" y="158" width="21" height="1" fill="#FFFFFF"/><rect x="149" y="159" width="192" height="1" fill="#FFFFFF"/><rect x="363" y="159" width="21" height="1" fill="#FFFFFF"/><rect x="149" y="160" width="192" height="1" fill="#FFFFFF"/><rect x="363" y="160" width="21" height="1" fill="#FFFFFF"/><rect x="149" y="161" width="192" height="1" fill="#FFFFFF"/><rect x="363" y="161" width="21" height="1" fill="#FFFFFF"/><rect x="149" y="162" width="192" height="1" fill="#FFFFFF"/><rect x="363" y="162" width="21" height="1" fill="#FFFFFF"/><rect x="149" y="163" width="192" height="1" fill="#FFFFFF"/><rect x="363" y="163" width="21" height="1" fill="#FFFFFF"/><rect x="149" y="164" width="192" height="1" fill="#FFFFFF"/><rect x="363" y="164" width="21" height="1" fill="#FFFFFF"/><rect x="149" y="165" width="192" height="1" fill="#FFFFFF"/><rect x="363" y="165" width="21" height="1" fill="#FFFFFF"/><rect x="149" y="166" width="192" height="1" fill="#FFFFFF"/><rect x="363" y="166" width="21" height="1" fill="#FFFFFF"/><rect x="149" y="167" width="192" height="1" fill="#FFFFFF"/><rect x="363" y="167" width="21" height="1" fill="#FFFFFF"/><rect x="149" y="168" width="192" height="1" fill="#FFFFFF"/><rect x="363" y="168" width="21" height="1" fill="#FFFFFF"/><rect x="149" y="169" width="192" height="1" fill="#FFFFFF"/><rect x="363" y="169" width="21" height="1" fill="#FFFFFF"/><rect x="149" y="170" width="192" height="1" fill="#FFFFFF"/><rect x="363" y="170" width="21" height="1" fill="#FFFFFF"/><rect x="107" y="171" width="256" height="1" fill="#FFFFFF"/><rect x="384" y="171" width="21" height="1" fill="#FFFFFF"/><rect x="107" y="172" width="256" height="1" fill="#FFFFFF"/><rect x="384" y="172" width="21" height="1" fill="#FFFFFF"/><rect x="107" y="173" width="256" height="1" fill="#FFFFFF"/><rect x="384" y="173" width="21" height="1" fill="#FFFFFF"/><rect x="107" y="174" width="256" height="1" fill="#FFFFFF"/><rect x="384" y="174" width="21" height="1" fill="#FFFFFF"/><rect x="107" y="175" width="256" height="1" fill="#FFFFFF"/><rect x="384" y="175" width="21" height="1" fill="#FFFFFF"/><rect x="107" y="176" width="256" height="1" fill="#FFFFFF"/><rect x="384" y="176" width="21" height="1" fill="#FFFFFF"/><rect x="107" y="177" width="256" height="1" fill="#FFFFFF"/><rect x="384" y="177" width="21" height="1" fill="#FFFFFF"/><rect x="107" y="178" width="256" height="1" fill="#FFFFFF"/><rect x="384" y="178" width="21" height="1" fill="#FFFFFF"/><rect x="107" y="179" width="256" height="1" fill="#FFFFFF"/><rect x="384" y="179" width="21" height="1" fill="#FFFFFF"/><rect x="107" y="180" width="256" height="1" fill="#FFFFFF"/><rect x="384" y="180" width="21" height="1" fill="#FFFFFF"/><rect x="107" y="181" width="256" height="1" fill="#FFFFFF"/><rect x="384" y="181" width="21" height="1" fill="#FFFFFF"/><rect x="107" y="182" width="256" height="1" fill="#FFFFFF"/><rect x="384" y="182" width="21" height="1" fill="#FFFFFF"/><rect x="107" y="183" width="256" height="1" fill="#FFFFFF"/><rect x="384" y="183" width="21" height="1" fill="#FFFFFF"/><rect x="107" y="184" width="256" height="1" fill="#FFFFFF"/><rect x="384" y="184" width="21" height="1" fill="#FFFFFF"/><rect x="107" y="185" width="256" height="1" fill="#FFFFFF"/><rect x="384" y="185" width="21" height="1" fill="#FFFFFF"/><rect x="107" y="186" width="256" height="1" fill="#FFFFFF"/><rect x="384" y="186" width="21" height="1" fill="#FFFFFF"/><rect x="107" y="187" width="256" height="1" fill="#FFFFFF"/><rect x="384" y="187" width="21" height="1" fill="#FFFFFF"/><rect x="107" y="188" width="256" height="1" fill="#FFFFFF"/><rect x="384" y="188" width="21" height="1" fill="#FFFFFF"/><rect x="107" y="189" width="256" height="1" fill="#FFFFFF"/><rect x="384" y="189" width="21" height="1" fill="#FFFFFF"/><rect x="107" y="190" width="256" height="1" fill="#FFFFFF"/><rect x="384" y="190" width="21" height="1" fill="#FFFFFF"/><rect x="107" y="191" width="256" height="1" fill="#FFFFFF"/><rect x="384" y="191" width="21" height="1" fill="#FFFFFF"/><rect x="128" y="192" width="85" height="1" fill="#FFFFFF"/><rect x="235" y="192" width="170" height="1" fill="#FFFFFF"/><rect x="128" y="193" width="85" height="1" fill="#FFFFFF"/><rect x="235" y="193" width="170" height="1" fill="#FFFFFF"/><rect x="128" y="194" width="85" height="1" fill="#FFFFFF"/><rect x="235" y="194" width="170" height="1" fill="#FFFFFF"/><rect x="128" y="195" width="85" height="1" fill="#FFFFFF"/><rect x="235" y="195" width="170" height="1" fill="#FFFFFF"/><rect x="128" y="196" width="85" height="1" fill="#FFFFFF"/><rect x="235" y="196" width="170" height="1" fill="#FFFFFF"/><rect x="128" y="197" width="85" height="1" fill="#FFFFFF"/><rect x="235" y="197" width="170" height="1" fill="#FFFFFF"/><rect x="128" y="198" width="85" height="1" fill="#FFFFFF"/><rect x="235" y="198" width="170" height="1" fill="#FFFFFF"/><rect x="128" y="199" width="85" height="1" fill="#FFFFFF"/><rect x="235" y="199" width="170" height="1" fill="#FFFFFF"/><rect x="128" y="200" width="85" height="1" fill="#FFFFFF"/><rect x="235" y="200" width="170" height="1" fill="#FFFFFF"/><rect x="128" y="201" width="85" height="1" fill="#FFFFFF"/><rect x="235" y="201" width="170" height="1" fill="#FFFFFF"/><rect x="128" y="202" width="85" height="1" fill="#FFFFFF"/><rect x="235" y="202" width="170" height="1" fill="#FFFFFF"/><rect x="128" y="203" width="85" height="1" fill="#FFFFFF"/><rect x="235" y="203" width="170" height="1" fill="#FFFFFF"/><rect x="128" y="204" width="85" height="1" fill="#FFFFFF"/><rect x="235" y="204" width="170" height="1" fill="#FFFFFF"/><rect x="128" y="205" width="85" height="1" fill="#FFFFFF"/><rect x="235" y="205" width="170" height="1" fill="#FFFFFF"/><rect x="128" y="206" width="85" height="1" fill="#FFFFFF"/><rect x="235" y="206" width="170" height="1" fill="#FFFFFF"/><rect x="128" y="207" width="85" height="1" fill="#FFFFFF"/><rect x="235" y="207" width="170" height="1" fill="#FFFFFF"/><rect x="128" y="208" width="85" height="1" fill="#FFFFFF"/><rect x="235" y="208" width="170" height="1" fill="#FFFFFF"/><rect x="128" y="209" width="85" height="1" fill="#FFFFFF"/><rect x="235" y="209" width="170" height="1" fill="#FFFFFF"/><rect x="128" y="210" width="85" height="1" fill="#FFFFFF"/><rect x="235" y="210" width="170" height="1" fill="#FFFFFF"/><rect x="128" y="211" width="85" height="1" fill="#FFFFFF"/><rect x="235" y="211" width="170" height="1" fill="#FFFFFF"/><rect x="128" y="212" width="85" height="1" fill="#FFFFFF"/><rect x="235" y="212" width="170" height="1" fill="#FFFFFF"/><rect x="107" y="213" width="85" height="1" fill="#FFFFFF"/><rect x="213" y="213" width="22" height="1" fill="#FFFFFF"/><rect x="256" y="213" width="21" height="1" fill="#FFFFFF"/><rect x="320" y="213" width="64" height="1" fill="#FFFFFF"/><rect x="107" y="214" width="85" height="1" fill="#FFFFFF"/><rect x="213" y="214" width="22" height="1" fill="#FFFFFF"/><rect x="256" y="214" width="21" height="1" fill="#FFFFFF"/><rect x="320" y="214" width="64" height="1" fill="#FFFFFF"/><rect x="107" y="215" width="85" height="1" fill="#FFFFFF"/><rect x="213" y="215" width="22" height="1" fill="#FFFFFF"/><rect x="256" y="215" width="21" height="1" fill="#FFFFFF"/><rect x="320" y="215" width="64" height="1" fill="#FFFFFF"/><rect x="107" y="216" width="85" height="1" fill="#FFFFFF"/><rect x="213" y="216" width="22" height="1" fill="#FFFFFF"/><rect x="256" y="216" width="21" height="1" fill="#FFFFFF"/><rect x="320" y="216" width="64" height="1" fill="#FFFFFF"/><rect x="107" y="217" width="85" height="1" fill="#FFFFFF"/><rect x="213" y="217" width="22" height="1" fill="#FFFFFF"/><rect x="256" y="217" width="21" height="1" fill="#FFFFFF"/><rect x="320" y="217" width="64" height="1" fill="#FFFFFF"/><rect x="107" y="218" width="85" height="1" fill="#FFFFFF"/><rect x="213" y="218" width="22" height="1" fill="#FFFFFF"/><rect x="256" y="218" width="21" height="1" fill="#FFFFFF"/><rect x="320" y="218" width="64" height="1" fill="#FFFFFF"/><rect x="107" y="219" width="85" height="1" fill="#FFFFFF"/><rect x="213" y="219" width="22" height="1" fill="#FFFFFF"/><rect x="256" y="219" width="21" height="1" fill="#FFFFFF"/><rect x="320" y="219" width="64" height="1" fill="#FFFFFF"/><rect x="107" y="220" width="85" height="1" fill="#FFFFFF"/><rect x="213" y="220" width="22" height="1" fill="#FFFFFF"/><rect x="256" y="220" width="21" height="1" fill="#FFFFFF"/><rect x="320" y="220" width="64" height="1" fill="#FFFFFF"/><rect x="107" y="221" width="85" height="1" fill="#FFFFFF"/><rect x="213" y="221" width="22" height="1" fill="#FFFFFF"/><rect x="256" y="221" width="21" height="1" fill="#FFFFFF"/><rect x="320" y="221" width="64" height="1" fill="#FFFFFF"/><rect x="107" y="222" width="85" height="1" fill="#FFFFFF"/><rect x="213" y="222" width="22" height="1" fill="#FFFFFF"/><rect x="256" y="222" width="21" height="1" fill="#FFFFFF"/><rect x="320" y="222" width="64" height="1" fill="#FFFFFF"/><rect x="107" y="223" width="85" height="1" fill="#FFFFFF"/><rect x="213" y="223" width="22" height="1" fill="#FFFFFF"/><rect x="256" y="223" width="21" height="1" fill="#FFFFFF"/><rect x="320" y="223" width="64" height="1" fill="#FFFFFF"/><rect x="107" y="224" width="85" height="1" fill="#FFFFFF"/><rect x="213" y="224" width="22" height="1" fill="#FFFFFF"/><rect x="256" y="224" width="21" height="1" fill="#FFFFFF"/><rect x="320" y="224" width="64" height="1" fill="#FFFFFF"/><rect x="107" y="225" width="85" height="1" fill="#FFFFFF"/><rect x="213" y="225" width="22" height="1" fill="#FFFFFF"/><rect x="256" y="225" width="21" height="1" fill="#FFFFFF"/><rect x="320" y="225" width="64" height="1" fill="#FFFFFF"/><rect x="107" y="226" width="85" height="1" fill="#FFFFFF"/><rect x="213" y="226" width="22" height="1" fill="#FFFFFF"/><rect x="256" y="226" width="21" height="1" fill="#FFFFFF"/><rect x="320" y="226" width="64" height="1" fill="#FFFFFF"/><rect x="107" y="227" width="85" height="1" fill="#FFFFFF"/><rect x="213" y="227" width="22" height="1" fill="#FFFFFF"/><rect x="256" y="227" width="21" height="1" fill="#FFFFFF"/><rect x="320" y="227" width="64" height="1" fill="#FFFFFF"/><rect x="107" y="228" width="85" height="1" fill="#FFFFFF"/><rect x="213" y="228" width="22" height="1" fill="#FFFFFF"/><rect x="256" y="228" width="21" height="1" fill="#FFFFFF"/><rect x="320" y="228" width="64" height="1" fill="#FFFFFF"/><rect x="107" y="229" width="85" height="1" fill="#FFFFFF"/><rect x="213" y="229" width="22" height="1" fill="#FFFFFF"/><rect x="256" y="229" width="21" height="1" fill="#FFFFFF"/><rect x="320" y="229" width="64" height="1" fill="#FFFFFF"/><rect x="107" y="230" width="85" height="1" fill="#FFFFFF"/><rect x="213" y="230" width="22" height="1" fill="#FFFFFF"/><rect x="256" y="230" width="21" height="1" fill="#FFFFFF"/><rect x="320" y="230" width="64" height="1" fill="#FFFFFF"/><rect x="107" y="231" width="85" height="1" fill="#FFFFFF"/><rect x="213" y="231" width="22" height="1" fill="#FFFFFF"/><rect x="256" y="231" width="21" height="1" fill="#FFFFFF"/><rect x="320" y="231" width="64" height="1" fill="#FFFFFF"/><rect x="107" y="232" width="85" height="1" fill="#FFFFFF"/><rect x="213" y="232" width="22" height="1" fill="#FFFFFF"/><rect x="256" y="232" width="21" height="1" fill="#FFFFFF"/><rect x="320" y="232" width="64" height="1" fill="#FFFFFF"/><rect x="107" y="233" width="85" height="1" fill="#FFFFFF"/><rect x="213" y="233" width="22" height="1" fill="#FFFFFF"/><rect x="256" y="233" width="21" height="1" fill="#FFFFFF"/><rect x="320" y="233" width="64" height="1" fill="#FFFFFF"/><rect x="107" y="234" width="85" height="1" fill="#FFFFFF"/><rect x="213" y="234" width="22" height="1" fill="#FFFFFF"/><rect x="256" y="234" width="21" height="1" fill="#FFFFFF"/><rect x="320" y="234" width="64" height="1" fill="#FFFFFF"/><rect x="85" y="235" width="22" height="1" fill="#FFFFFF"/><rect x="128" y="235" width="64" height="1" fill="#FFFFFF"/><rect x="256" y="235" width="21" height="1" fill="#FFFFFF"/><rect x="341" y="235" width="64" height="1" fill="#FFFFFF"/><rect x="85" y="236" width="22" height="1" fill="#FFFFFF"/><rect x="128" y="236" width="64" height="1" fill="#FFFFFF"/><rect x="256" y="236" width="21" height="1" fill="#FFFFFF"/><rect x="341" y="236" width="64" height="1" fill="#FFFFFF"/><rect x="85" y="237" width="22" height="1" fill="#FFFFFF"/><rect x="128" y="237" width="64" height="1" fill="#FFFFFF"/><rect x="256" y="237" width="21" height="1" fill="#FFFFFF"/><rect x="341" y="237" width="64" height="1" fill="#FFFFFF"/><rect x="85" y="238" width="22" height="1" fill="#FFFFFF"/><rect x="128" y="238" width="64" height="1" fill="#FFFFFF"/><rect x="256" y="238" width="21" height="1" fill="#FFFFFF"/><rect x="341" y="238" width="64" height="1" fill="#FFFFFF"/><rect x="85" y="239" width="22" height="1" fill="#FFFFFF"/><rect x="128" y="239" width="64" height="1" fill="#FFFFFF"/><rect x="256" y="239" width="21" height="1" fill="#FFFFFF"/><rect x="341" y="239" width="64" height="1" fill="#FFFFFF"/><rect x="85" y="240" width="22" height="1" fill="#FFFFFF"/><rect x="128" y="240" width="64" height="1" fill="#FFFFFF"/><rect x="256" y="240" width="21" height="1" fill="#FFFFFF"/><rect x="341" y="240" width="64" height="1" fill="#FFFFFF"/><rect x="85" y="241" width="22" height="1" fill="#FFFFFF"/><rect x="128" y="241" width="64" height="1" fill="#FFFFFF"/><rect x="256" y="241" width="21" height="1" fill="#FFFFFF"/><rect x="341" y="241" width="64" height="1" fill="#FFFFFF"/><rect x="85" y="242" width="22" height="1" fill="#FFFFFF"/><rect x="128" y="242" width="64" height="1" fill="#FFFFFF"/><rect x="256" y="242" width="21" height="1" fill="#FFFFFF"/><rect x="341" y="242" width="64" height="1" fill="#FFFFFF"/><rect x="85" y="243" width="22" height="1" fill="#FFFFFF"/><rect x="128" y="243" width="64" height="1" fill="#FFFFFF"/><rect x="256" y="243" width="21" height="1" fill="#FFFFFF"/><rect x="341" y="243" width="64" height="1" fill="#FFFFFF"/><rect x="85" y="244" width="22" height="1" fill="#FFFFFF"/><rect x="128" y="244" width="64" height="1" fill="#FFFFFF"/><rect x="256" y="244" width="21" height="1" fill="#FFFFFF"/><rect x="341" y="244" width="64" height="1" fill="#FFFFFF"/><rect x="85" y="245" width="22" height="1" fill="#FFFFFF"/><rect x="128" y="245" width="64" height="1" fill="#FFFFFF"/><rect x="256" y="245" width="21" height="1" fill="#FFFFFF"/><rect x="341" y="245" width="64" height="1" fill="#FFFFFF"/><rect x="85" y="246" width="22" height="1" fill="#FFFFFF"/><rect x="128" y="246" width="64" height="1" fill="#FFFFFF"/><rect x="256" y="246" width="21" height="1" fill="#FFFFFF"/><rect x="341" y="246" width="64" height="1" fill="#FFFFFF"/><rect x="85" y="247" width="22" height="1" fill="#FFFFFF"/><rect x="128" y="247" width="64" height="1" fill="#FFFFFF"/><rect x="256" y="247" width="21" height="1" fill="#FFFFFF"/><rect x="341" y="247" width="64" height="1" fill="#FFFFFF"/><rect x="85" y="248" width="22" height="1" fill="#FFFFFF"/><rect x="128" y="248" width="64" height="1" fill="#FFFFFF"/><rect x="256" y="248" width="21" height="1" fill="#FFFFFF"/><rect x="341" y="248" width="64" height="1" fill="#FFFFFF"/><rect x="85" y="249" width="22" height="1" fill="#FFFFFF"/><rect x="128" y="249" width="64" height="1" fill="#FFFFFF"/><rect x="256" y="249" width="21" height="1" fill="#FFFFFF"/><rect x="341" y="249" width="64" height="1" fill="#FFFFFF"/><rect x="85" y="250" width="22" height="1" fill="#FFFFFF"/><rect x="128" y="250" width="64" height="1" fill="#FFFFFF"/><rect x="256" y="250" width="21" height="1" fill="#FFFFFF"/><rect x="341" y="250" width="64" height="1" fill="#FFFFFF"/><rect x="85" y="251" width="22" height="1" fill="#FFFFFF"/><rect x="128" y="251" width="64" height="1" fill="#FFFFFF"/><rect x="256" y="251" width="21" height="1" fill="#FFFFFF"/><rect x="341" y="251" width="64" height="1" fill="#FFFFFF"/><rect x="85" y="252" width="22" height="1" fill="#FFFFFF"/><rect x="128" y="252" width="64" height="1" fill="#FFFFFF"/><rect x="256" y="252" width="21" height="1" fill="#FFFFFF"/><rect x="341" y="252" width="64" height="1" fill="#FFFFFF"/><rect x="85" y="253" width="22" height="1" fill="#FFFFFF"/><rect x="128" y="253" width="64" height="1" fill="#FFFFFF"/><rect x="256" y="253" width="21" height="1" fill="#FFFFFF"/><rect x="341" y="253" width="64" height="1" fill="#FFFFFF"/><rect x="85" y="254" width="22" height="1" fill="#FFFFFF"/><rect x="128" y="254" width="64" height="1" fill="#FFFFFF"/><rect x="256" y="254" width="21" height="1" fill="#FFFFFF"/><rect x="341" y="254" width="64" height="1" fill="#FFFFFF"/><rect x="85" y="255" width="22" height="1" fill="#FFFFFF"/><rect x="128" y="255" width="64" height="1" fill="#FFFFFF"/><rect x="256" y="255" width="21" height="1" fill="#FFFFFF"/><rect x="341" y="255" width="64" height="1" fill="#FFFFFF"/><rect x="107" y="256" width="64" height="1" fill="#FFFFFF"/><rect x="256" y="256" width="21" height="1" fill="#FFFFFF"/><rect x="363" y="256" width="21" height="1" fill="#FFFFFF"/><rect x="405" y="256" width="22" height="1" fill="#FFFFFF"/><rect x="107" y="257" width="64" height="1" fill="#FFFFFF"/><rect x="256" y="257" width="21" height="1" fill="#FFFFFF"/><rect x="363" y="257" width="21" height="1" fill="#FFFFFF"/><rect x="405" y="257" width="22" height="1" fill="#FFFFFF"/><rect x="107" y="258" width="64" height="1" fill="#FFFFFF"/><rect x="256" y="258" width="21" height="1" fill="#FFFFFF"/><rect x="363" y="258" width="21" height="1" fill="#FFFFFF"/><rect x="405" y="258" width="22" height="1" fill="#FFFFFF"/><rect x="107" y="259" width="64" height="1" fill="#FFFFFF"/><rect x="256" y="259" width="21" height="1" fill="#FFFFFF"/><rect x="363" y="259" width="21" height="1" fill="#FFFFFF"/><rect x="405" y="259" width="22" height="1" fill="#FFFFFF"/><rect x="107" y="260" width="64" height="1" fill="#FFFFFF"/><rect x="256" y="260" width="21" height="1" fill="#FFFFFF"/><rect x="363" y="260" width="21" height="1" fill="#FFFFFF"/><rect x="405" y="260" width="22" height="1" fill="#FFFFFF"/><rect x="107" y="261" width="64" height="1" fill="#FFFFFF"/><rect x="256" y="261" width="21" height="1" fill="#FFFFFF"/><rect x="363" y="261" width="21" height="1" fill="#FFFFFF"/><rect x="405" y="261" width="22" height="1" fill="#FFFFFF"/><rect x="107" y="262" width="64" height="1" fill="#FFFFFF"/><rect x="256" y="262" width="21" height="1" fill="#FFFFFF"/><rect x="363" y="262" width="21" height="1" fill="#FFFFFF"/><rect x="405" y="262" width="22" height="1" fill="#FFFFFF"/><rect x="107" y="263" width="64" height="1" fill="#FFFFFF"/><rect x="256" y="263" width="21" height="1" fill="#FFFFFF"/><rect x="363" y="263" width="21" height="1" fill="#FFFFFF"/><rect x="405" y="263" width="22" height="1" fill="#FFFFFF"/><rect x="107" y="264" width="64" height="1" fill="#FFFFFF"/><rect x="256" y="264" width="21" height="1" fill="#FFFFFF"/><rect x="363" y="264" width="21" height="1" fill="#FFFFFF"/><rect x="405" y="264" width="22" height="1" fill="#FFFFFF"/><rect x="107" y="265" width="64" height="1" fill="#FFFFFF"/><rect x="256" y="265" width="21" height="1" fill="#FFFFFF"/><rect x="363" y="265" width="21" height="1" fill="#FFFFFF"/><rect x="405" y="265" width="22" height="1" fill="#FFFFFF"/><rect x="107" y="266" width="64" height="1" fill="#FFFFFF"/><rect x="256" y="266" width="21" height="1" fill="#FFFFFF"/><rect x="363" y="266" width="21" height="1" fill="#FFFFFF"/><rect x="405" y="266" width="22" height="1" fill="#FFFFFF"/><rect x="107" y="267" width="64" height="1" fill="#FFFFFF"/><rect x="256" y="267" width="21" height="1" fill="#FFFFFF"/><rect x="363" y="267" width="21" height="1" fill="#FFFFFF"/><rect x="405" y="267" width="22" height="1" fill="#FFFFFF"/><rect x="107" y="268" width="64" height="1" fill="#FFFFFF"/><rect x="256" y="268" width="21" height="1" fill="#FFFFFF"/><rect x="363" y="268" width="21" height="1" fill="#FFFFFF"/><rect x="405" y="268" width="22" height="1" fill="#FFFFFF"/><rect x="107" y="269" width="64" height="1" fill="#FFFFFF"/><rect x="256" y="269" width="21" height="1" fill="#FFFFFF"/><rect x="363" y="269" width="21" height="1" fill="#FFFFFF"/><rect x="405" y="269" width="22" height="1" fill="#FFFFFF"/><rect x="107" y="270" width="64" height="1" fill="#FFFFFF"/><rect x="256" y="270" width="21" height="1" fill="#FFFFFF"/><rect x="363" y="270" width="21" height="1" fill="#FFFFFF"/><rect x="405" y="270" width="22" height="1" fill="#FFFFFF"/><rect x="107" y="271" width="64" height="1" fill="#FFFFFF"/><rect x="256" y="271" width="21" height="1" fill="#FFFFFF"/><rect x="363" y="271" width="21" height="1" fill="#FFFFFF"/><rect x="405" y="271" width="22" height="1" fill="#FFFFFF"/><rect x="107" y="272" width="64" height="1" fill="#FFFFFF"/><rect x="256" y="272" width="21" height="1" fill="#FFFFFF"/><rect x="363" y="272" width="21" height="1" fill="#FFFFFF"/><rect x="405" y="272" width="22" height="1" fill="#FFFFFF"/><rect x="107" y="273" width="64" height="1" fill="#FFFFFF"/><rect x="256" y="273" width="21" height="1" fill="#FFFFFF"/><rect x="363" y="273" width="21" height="1" fill="#FFFFFF"/><rect x="405" y="273" width="22" height="1" fill="#FFFFFF"/><rect x="107" y="274" width="64" height="1" fill="#FFFFFF"/><rect x="256" y="274" width="21" height="1" fill="#FFFFFF"/><rect x="363" y="274" width="21" height="1" fill="#FFFFFF"/><rect x="405" y="274" width="22" height="1" fill="#FFFFFF"/><rect x="107" y="275" width="64" height="1" fill="#FFFFFF"/><rect x="256" y="275" width="21" height="1" fill="#FFFFFF"/><rect x="363" y="275" width="21" height="1" fill="#FFFFFF"/><rect x="405" y="275" width="22" height="1" fill="#FFFFFF"/><rect x="107" y="276" width="64" height="1" fill="#FFFFFF"/><rect x="256" y="276" width="21" height="1" fill="#FFFFFF"/><rect x="363" y="276" width="21" height="1" fill="#FFFFFF"/><rect x="405" y="276" width="22" height="1" fill="#FFFFFF"/><rect x="85" y="277" width="22" height="1" fill="#FFFFFF"/><rect x="128" y="277" width="21" height="1" fill="#FFFFFF"/><rect x="277" y="277" width="22" height="1" fill="#FFFFFF"/><rect x="363" y="277" width="42" height="1" fill="#FFFFFF"/><rect x="85" y="278" width="22" height="1" fill="#FFFFFF"/><rect x="128" y="278" width="21" height="1" fill="#FFFFFF"/><rect x="277" y="278" width="22" height="1" fill="#FFFFFF"/><rect x="363" y="278" width="42" height="1" fill="#FFFFFF"/><rect x="85" y="279" width="22" height="1" fill="#FFFFFF"/><rect x="128" y="279" width="21" height="1" fill="#FFFFFF"/><rect x="277" y="279" width="22" height="1" fill="#FFFFFF"/><rect x="363" y="279" width="42" height="1" fill="#FFFFFF"/><rect x="85" y="280" width="22" height="1" fill="#FFFFFF"/><rect x="128" y="280" width="21" height="1" fill="#FFFFFF"/><rect x="277" y="280" width="22" height="1" fill="#FFFFFF"/><rect x="363" y="280" width="42" height="1" fill="#FFFFFF"/><rect x="85" y="281" width="22" height="1" fill="#FFFFFF"/><rect x="128" y="281" width="21" height="1" fill="#FFFFFF"/><rect x="277" y="281" width="22" height="1" fill="#FFFFFF"/><rect x="363" y="281" width="42" height="1" fill="#FFFFFF"/><rect x="85" y="282" width="22" height="1" fill="#FFFFFF"/><rect x="128" y="282" width="21" height="1" fill="#FFFFFF"/><rect x="277" y="282" width="22" height="1" fill="#FFFFFF"/><rect x="363" y="282" width="42" height="1" fill="#FFFFFF"/><rect x="85" y="283" width="22" height="1" fill="#FFFFFF"/><rect x="128" y="283" width="21" height="1" fill="#FFFFFF"/><rect x="277" y="283" width="22" height="1" fill="#FFFFFF"/><rect x="363" y="283" width="42" height="1" fill="#FFFFFF"/><rect x="85" y="284" width="22" height="1" fill="#FFFFFF"/><rect x="128" y="284" width="21" height="1" fill="#FFFFFF"/><rect x="277" y="284" width="22" height="1" fill="#FFFFFF"/><rect x="363" y="284" width="42" height="1" fill="#FFFFFF"/><rect x="85" y="285" width="22" height="1" fill="#FFFFFF"/><rect x="128" y="285" width="21" height="1" fill="#FFFFFF"/><rect x="277" y="285" width="22" height="1" fill="#FFFFFF"/><rect x="363" y="285" width="42" height="1" fill="#FFFFFF"/><rect x="85" y="286" width="22" height="1" fill="#FFFFFF"/><rect x="128" y="286" width="21" height="1" fill="#FFFFFF"/><rect x="277" y="286" width="22" height="1" fill="#FFFFFF"/><rect x="363" y="286" width="42" height="1" fill="#FFFFFF"/><rect x="85" y="287" width="22" height="1" fill="#FFFFFF"/><rect x="128" y="287" width="21" height="1" fill="#FFFFFF"/><rect x="277" y="287" width="22" height="1" fill="#FFFFFF"/><rect x="363" y="287" width="42" height="1" fill="#FFFFFF"/><rect x="85" y="288" width="22" height="1" fill="#FFFFFF"/><rect x="128" y="288" width="21" height="1" fill="#FFFFFF"/><rect x="277" y="288" width="22" height="1" fill="#FFFFFF"/><rect x="363" y="288" width="42" height="1" fill="#FFFFFF"/><rect x="85" y="289" width="22" height="1" fill="#FFFFFF"/><rect x="128" y="289" width="21" height="1" fill="#FFFFFF"/><rect x="277" y="289" width="22" height="1" fill="#FFFFFF"/><rect x="363" y="289" width="42" height="1" fill="#FFFFFF"/><rect x="85" y="290" width="22" height="1" fill="#FFFFFF"/><rect x="128" y="290" width="21" height="1" fill="#FFFFFF"/><rect x="277" y="290" width="22" height="1" fill="#FFFFFF"/><rect x="363" y="290" width="42" height="1" fill="#FFFFFF"/><rect x="85" y="291" width="22" height="1" fill="#FFFFFF"/><rect x="128" y="291" width="21" height="1" fill="#FFFFFF"/><rect x="277" y="291" width="22" height="1" fill="#FFFFFF"/><rect x="363" y="291" width="42" height="1" fill="#FFFFFF"/><rect x="85" y="292" width="22" height="1" fill="#FFFFFF"/><rect x="128" y="292" width="21" height="1" fill="#FFFFFF"/><rect x="277" y="292" width="22" height="1" fill="#FFFFFF"/><rect x="363" y="292" width="42" height="1" fill="#FFFFFF"/><rect x="85" y="293" width="22" height="1" fill="#FFFFFF"/><rect x="128" y="293" width="21" height="1" fill="#FFFFFF"/><rect x="277" y="293" width="22" height="1" fill="#FFFFFF"/><rect x="363" y="293" width="42" height="1" fill="#FFFFFF"/><rect x="85" y="294" width="22" height="1" fill="#FFFFFF"/><rect x="128" y="294" width="21" height="1" fill="#FFFFFF"/><rect x="277" y="294" width="22" height="1" fill="#FFFFFF"/><rect x="363" y="294" width="42" height="1" fill="#FFFFFF"/><rect x="85" y="295" width="22" height="1" fill="#FFFFFF"/><rect x="128" y="295" width="21" height="1" fill="#FFFFFF"/><rect x="277" y="295" width="22" height="1" fill="#FFFFFF"/><rect x="363" y="295" width="42" height="1" fill="#FFFFFF"/><rect x="85" y="296" width="22" height="1" fill="#FFFFFF"/><rect x="128" y="296" width="21" height="1" fill="#FFFFFF"/><rect x="277" y="296" width="22" height="1" fill="#FFFFFF"/><rect x="363" y="296" width="42" height="1" fill="#FFFFFF"/><rect x="85" y="297" width="22" height="1" fill="#FFFFFF"/><rect x="128" y="297" width="21" height="1" fill="#FFFFFF"/><rect x="277" y="297" width="22" height="1" fill="#FFFFFF"/><rect x="363" y="297" width="42" height="1" fill="#FFFFFF"/><rect x="85" y="298" width="22" height="1" fill="#FFFFFF"/><rect x="128" y="298" width="21" height="1" fill="#FFFFFF"/><rect x="277" y="298" width="22" height="1" fill="#FFFFFF"/><rect x="363" y="298" width="42" height="1" fill="#FFFFFF"/><rect x="64" y="299" width="85" height="1" fill="#FFFFFF"/><rect x="363" y="299" width="42" height="1" fill="#FFFFFF"/><rect x="64" y="300" width="85" height="1" fill="#FFFFFF"/><rect x="363" y="300" width="42" height="1" fill="#FFFFFF"/><rect x="64" y="301" width="85" height="1" fill="#FFFFFF"/><rect x="363" y="301" width="42" height="1" fill="#FFFFFF"/><rect x="64" y="302" width="85" height="1" fill="#FFFFFF"/><rect x="363" y="302" width="42" height="1" fill="#FFFFFF"/><rect x="64" y="303" width="85" height="1" fill="#FFFFFF"/><rect x="363" y="303" width="42" height="1" fill="#FFFFFF"/><rect x="64" y="304" width="85" height="1" fill="#FFFFFF"/><rect x="363" y="304" width="42" height="1" fill="#FFFFFF"/><rect x="64" y="305" width="85" height="1" fill="#FFFFFF"/><rect x="363" y="305" width="42" height="1" fill="#FFFFFF"/><rect x="64" y="306" width="85" height="1" fill="#FFFFFF"/><rect x="363" y="306" width="42" height="1" fill="#FFFFFF"/><rect x="64" y="307" width="85" height="1" fill="#FFFFFF"/><rect x="363" y="307" width="42" height="1" fill="#FFFFFF"/><rect x="64" y="308" width="85" height="1" fill="#FFFFFF"/><rect x="363" y="308" width="42" height="1" fill="#FFFFFF"/><rect x="64" y="309" width="85" height="1" fill="#FFFFFF"/><rect x="363" y="309" width="42" height="1" fill="#FFFFFF"/><rect x="64" y="310" width="85" height="1" fill="#FFFFFF"/><rect x="363" y="310" width="42" height="1" fill="#FFFFFF"/><rect x="64" y="311" width="85" height="1" fill="#FFFFFF"/><rect x="363" y="311" width="42" height="1" fill="#FFFFFF"/><rect x="64" y="312" width="85" height="1" fill="#FFFFFF"/><rect x="363" y="312" width="42" height="1" fill="#FFFFFF"/><rect x="64" y="313" width="85" height="1" fill="#FFFFFF"/><rect x="363" y="313" width="42" height="1" fill="#FFFFFF"/><rect x="64" y="314" width="85" height="1" fill="#FFFFFF"/><rect x="363" y="314" width="42" height="1" fill="#FFFFFF"/><rect x="64" y="315" width="85" height="1" fill="#FFFFFF"/><rect x="363" y="315" width="42" height="1" fill="#FFFFFF"/><rect x="64" y="316" width="85" height="1" fill="#FFFFFF"/><rect x="363" y="316" width="42" height="1" fill="#FFFFFF"/><rect x="64" y="317" width="85" height="1" fill="#FFFFFF"/><rect x="363" y="317" width="42" height="1" fill="#FFFFFF"/><rect x="64" y="318" width="85" height="1" fill="#FFFFFF"/><rect x="363" y="318" width="42" height="1" fill="#FFFFFF"/><rect x="64" y="319" width="85" height="1" fill="#FFFFFF"/><rect x="363" y="319" width="42" height="1" fill="#FFFFFF"/><rect x="107" y="320" width="42" height="1" fill="#FFFFFF"/><rect x="363" y="320" width="64" height="1" fill="#FFFFFF"/><rect x="107" y="321" width="42" height="1" fill="#FFFFFF"/><rect x="363" y="321" width="64" height="1" fill="#FFFFFF"/><rect x="107" y="322" width="42" height="1" fill="#FFFFFF"/><rect x="363" y="322" width="64" height="1" fill="#FFFFFF"/><rect x="107" y="323" width="42" height="1" fill="#FFFFFF"/><rect x="363" y="323" width="64" height="1" fill="#FFFFFF"/><rect x="107" y="324" width="42" height="1" fill="#FFFFFF"/><rect x="363" y="324" width="64" height="1" fill="#FFFFFF"/><rect x="107" y="325" width="42" height="1" fill="#FFFFFF"/><rect x="363" y="325" width="64" height="1" fill="#FFFFFF"/><rect x="107" y="326" width="42" height="1" fill="#FFFFFF"/><rect x="363" y="326" width="64" height="1" fill="#FFFFFF"/><rect x="107" y="327" width="42" height="1" fill="#FFFFFF"/><rect x="363" y="327" width="64" height="1" fill="#FFFFFF"/><rect x="107" y="328" width="42" height="1" fill="#FFFFFF"/><rect x="363" y="328" width="64" height="1" fill="#FFFFFF"/><rect x="107" y="329" width="42" height="1" fill="#FFFFFF"/><rect x="363" y="329" width="64" height="1" fill="#FFFFFF"/><rect x="107" y="330" width="42" height="1" fill="#FFFFFF"/><rect x="363" y="330" width="64" height="1" fill="#FFFFFF"/><rect x="107" y="331" width="42" height="1" fill="#FFFFFF"/><rect x="363" y="331" width="64" height="1" fill="#FFFFFF"/><rect x="107" y="332" width="42" height="1" fill="#FFFFFF"/><rect x="363" y="332" width="64" height="1" fill="#FFFFFF"/><rect x="107" y="333" width="42" height="1" fill="#FFFFFF"/><rect x="363" y="333" width="64" height="1" fill="#FFFFFF"/><rect x="107" y="334" width="42" height="1" fill="#FFFFFF"/><rect x="363" y="334" width="64" height="1" fill="#FFFFFF"/><rect x="107" y="335" width="42" height="1" fill="#FFFFFF"/><rect x="363" y="335" width="64" height="1" fill="#FFFFFF"/><rect x="107" y="336" width="42" height="1" fill="#FFFFFF"/><rect x="363" y="336" width="64" height="1" fill="#FFFFFF"/><rect x="107" y="337" width="42" height="1" fill="#FFFFFF"/><rect x="363" y="337" width="64" height="1" fill="#FFFFFF"/><rect x="107" y="338" width="42" height="1" fill="#FFFFFF"/><rect x="363" y="338" width="64" height="1" fill="#FFFFFF"/><rect x="107" y="339" width="42" height="1" fill="#FFFFFF"/><rect x="363" y="339" width="64" height="1" fill="#FFFFFF"/><rect x="107" y="340" width="42" height="1" fill="#FFFFFF"/><rect x="363" y="340" width="64" height="1" fill="#FFFFFF"/><rect x="107" y="341" width="42" height="1" fill="#FFFFFF"/><rect x="363" y="341" width="21" height="1" fill="#FFFFFF"/><rect x="107" y="342" width="42" height="1" fill="#FFFFFF"/><rect x="363" y="342" width="21" height="1" fill="#FFFFFF"/><rect x="107" y="343" width="42" height="1" fill="#FFFFFF"/><rect x="363" y="343" width="21" height="1" fill="#FFFFFF"/><rect x="107" y="344" width="42" height="1" fill="#FFFFFF"/><rect x="363" y="344" width="21" height="1" fill="#FFFFFF"/><rect x="107" y="345" width="42" height="1" fill="#FFFFFF"/><rect x="363" y="345" width="21" height="1" fill="#FFFFFF"/><rect x="107" y="346" width="42" height="1" fill="#FFFFFF"/><rect x="363" y="346" width="21" height="1" fill="#FFFFFF"/><rect x="107" y="347" width="42" height="1" fill="#FFFFFF"/><rect x="363" y="347" width="21" height="1" fill="#FFFFFF"/><rect x="107" y="348" width="42" height="1" fill="#FFFFFF"/><rect x="363" y="348" width="21" height="1" fill="#FFFFFF"/><rect x="107" y="349" width="42" height="1" fill="#FFFFFF"/><rect x="363" y="349" width="21" height="1" fill="#FFFFFF"/><rect x="107" y="350" width="42" height="1" fill="#FFFFFF"/><rect x="363" y="350" width="21" height="1" fill="#FFFFFF"/><rect x="107" y="351" width="42" height="1" fill="#FFFFFF"/><rect x="363" y="351" width="21" height="1" fill="#FFFFFF"/><rect x="107" y="352" width="42" height="1" fill="#FFFFFF"/><rect x="363" y="352" width="21" height="1" fill="#FFFFFF"/><rect x="107" y="353" width="42" height="1" fill="#FFFFFF"/><rect x="363" y="353" width="21" height="1" fill="#FFFFFF"/><rect x="107" y="354" width="42" height="1" fill="#FFFFFF"/><rect x="363" y="354" width="21" height="1" fill="#FFFFFF"/><rect x="107" y="355" width="42" height="1" fill="#FFFFFF"/><rect x="363" y="355" width="21" height="1" fill="#FFFFFF"/><rect x="107" y="356" width="42" height="1" fill="#FFFFFF"/><rect x="363" y="356" width="21" height="1" fill="#FFFFFF"/><rect x="107" y="357" width="42" height="1" fill="#FFFFFF"/><rect x="363" y="357" width="21" height="1" fill="#FFFFFF"/><rect x="107" y="358" width="42" height="1" fill="#FFFFFF"/><rect x="363" y="358" width="21" height="1" fill="#FFFFFF"/><rect x="107" y="359" width="42" height="1" fill="#FFFFFF"/><rect x="363" y="359" width="21" height="1" fill="#FFFFFF"/><rect x="107" y="360" width="42" height="1" fill="#FFFFFF"/><rect x="363" y="360" width="21" height="1" fill="#FFFFFF"/><rect x="107" y="361" width="42" height="1" fill="#FFFFFF"/><rect x="363" y="361" width="21" height="1" fill="#FFFFFF"/><rect x="107" y="362" width="42" height="1" fill="#FFFFFF"/><rect x="363" y="362" width="21" height="1" fill="#FFFFFF"/><rect x="85" y="363" width="22" height="1" fill="#FFFFFF"/><rect x="384" y="363" width="21" height="1" fill="#FFFFFF"/><rect x="85" y="364" width="22" height="1" fill="#FFFFFF"/><rect x="384" y="364" width="21" height="1" fill="#FFFFFF"/><rect x="85" y="365" width="22" height="1" fill="#FFFFFF"/><rect x="384" y="365" width="21" height="1" fill="#FFFFFF"/><rect x="85" y="366" width="22" height="1" fill="#FFFFFF"/><rect x="384" y="366" width="21" height="1" fill="#FFFFFF"/><rect x="85" y="367" width="22" height="1" fill="#FFFFFF"/><rect x="384" y="367" width="21" height="1" fill="#FFFFFF"/><rect x="85" y="368" width="22" height="1" fill="#FFFFFF"/><rect x="384" y="368" width="21" height="1" fill="#FFFFFF"/><rect x="85" y="369" width="22" height="1" fill="#FFFFFF"/><rect x="384" y="369" width="21" height="1" fill="#FFFFFF"/><rect x="85" y="370" width="22" height="1" fill="#FFFFFF"/><rect x="384" y="370" width="21" height="1" fill="#FFFFFF"/><rect x="85" y="371" width="22" height="1" fill="#FFFFFF"/><rect x="384" y="371" width="21" height="1" fill="#FFFFFF"/><rect x="85" y="372" width="22" height="1" fill="#FFFFFF"/><rect x="384" y="372" width="21" height="1" fill="#FFFFFF"/><rect x="85" y="373" width="22" height="1" fill="#FFFFFF"/><rect x="384" y="373" width="21" height="1" fill="#FFFFFF"/><rect x="85" y="374" width="22" height="1" fill="#FFFFFF"/><rect x="384" y="374" width="21" height="1" fill="#FFFFFF"/><rect x="85" y="375" width="22" height="1" fill="#FFFFFF"/><rect x="384" y="375" width="21" height="1" fill="#FFFFFF"/><rect x="85" y="376" width="22" height="1" fill="#FFFFFF"/><rect x="384" y="376" width="21" height="1" fill="#FFFFFF"/><rect x="85" y="377" width="22" height="1" fill="#FFFFFF"/><rect x="384" y="377" width="21" height="1" fill="#FFFFFF"/><rect x="85" y="378" width="22" height="1" fill="#FFFFFF"/><rect x="384" y="378" width="21" height="1" fill="#FFFFFF"/><rect x="85" y="379" width="22" height="1" fill="#FFFFFF"/><rect x="384" y="379" width="21" height="1" fill="#FFFFFF"/><rect x="85" y="380" width="22" height="1" fill="#FFFFFF"/><rect x="384" y="380" width="21" height="1" fill="#FFFFFF"/><rect x="85" y="381" width="22" height="1" fill="#FFFFFF"/><rect x="384" y="381" width="21" height="1" fill="#FFFFFF"/><rect x="85" y="382" width="22" height="1" fill="#FFFFFF"/><rect x="384" y="382" width="21" height="1" fill="#FFFFFF"/><rect x="85" y="383" width="22" height="1" fill="#FFFFFF"/><rect x="384" y="383" width="21" height="1" fill="#FFFFFF"/></svg>