<svg xmlns="http://www.w3.org/2000/svg" viewBox="0 0 512 512" width="512" height="512" shape-rendering="crispEdges"><rect x="256" y="85" width="21" height="1" fill="#E12625"/><rect x="256" y="86" width="21" height="1" fill="#E12625"/><rect x="256" y="87" width="21" height="1" fill="#E12625"/><rect x="256" y="88" width="21" height="1" fill="#E12625"/><rect x="256" y="89" width="21" height="1" fill="#E12625"/><rect x="256" y="90" width="21" height="1" fill="#E12625"/><rect x="256" y="91" width="21" height="1" fill="#E12625"/><rect x="256" y="92" width="21" height="1" fill="#E12625"/><rect x="256" y="93" width="21" height="1" fill="#E12625"/><rect x="256" y="94" width="21" height="1" fill="#E12625"/><rect x="256" y="95" width="21" height="1" fill="#E12625"/><rect x="256" y="96" width="21" height="1" fill="#E12625"/><rect x="256" y="97" width="21" height="1" fill="#E12625"/><rect x="256" y="98" width="21" height="1" fill="#E12625"/><rect x="256" y="99" width="21" height="1" fill="#E12625"/><rect x="256" y="100" width="21" height="1" fill="#E12625"/><rect x="256" y="101" width="21" height="1" fill="#E12625"/><rect x="256" y="102" width="21" height="1" fill="#E12625"/><rect x="256" y="103" width="21" height="1" fill="#E12625"/><rect x="256" y="104" width="21" height="1" fill="#E12625"/><rect x="256" y="105" width="21" height="1" fill="#E12625"/><rect x="256" y="106" width="21" height="1" fill="#E12625"/><rect x="235" y="107" width="42" height="1" fill="#E12625"/><rect x="235" y="108" width="42" height="1" fill="#E12625"/><rect x="235" y="109" width="42" height="1" fill="#E12625"/><rect x="235" y="110" width="42" height="1" fill="#E12625"/><rect x="235" y="111" width="42" height="1" fill="#E12625"/><rect x="235" y="112" width="42" height="1" fill="#E12625"/><rect x="235" y="113" width="42" height="1" fill="#E12625"/><rect x="235" y="114" width="42" height="1" fill="#E12625"/><rect x="235" y="115" width="42" height="1" fill="#E12625"/><rect x="235" y="116" width="42" height="1" fill="#E12625"/><rect x="235" y="117" width="42" height="1" fill="#E12625"/><rect x="235" y="118" width="42" height="1" fill="#E12625"/><rect x="235" y="119" width="42" height="1" fill="#E12625"/><rect x="235" y="120" width="42" height="1" fill="#E12625"/><rect x="235" y="121" width="42" height="1" fill="#E12625"/><rect x="235" y="122" width="42" height="1" fill="#E12625"/><rect x="235" y="123" width="42" height="1" fill="#E12625"/><rect x="235" y="124" width="42" height="1" fill="#E12625"/><rect x="235" y="125" width="42" height="1" fill="#E12625"/><rect x="235" y="126" width="42" height="1" fill="#E12625"/><rect x="235" y="127" width="42" height="1" fill="#E12625"/><rect x="213" y="128" width="64" height="1" fill="#E12625"/><rect x="213" y="129" width="64" height="1" fill="#E12625"/><rect x="213" y="130" width="64" height="1" fill="#E12625"/><rect x="213" y="131" width="64" height="1" fill="#E12625"/><rect x="213" y="132" width="64" height="1" fill="#E12625"/><rect x="213" y="133" width="64" height="1" fill="#E12625"/><rect x="213" y="134" width="64" height="1" fill="#E12625"/><rect x="213" y="135" width="64" height="1" fill="#E12625"/><rect x="213" y="136" width="64" height="1" fill="#E12625"/><rect x="213" y="137" width="64" height="1" fill="#E12625"/><rect x="213" y="138" width="64" height="1" fill="#E12625"/><rect x="213" y="139" width="64" height="1" fill="#E12625"/><rect x="213" y="140" width="64" height="1" fill="#E12625"/><rect x="213" y="141" width="64" height="1" fill="#E12625"/><rect x="213" y="142" width="64" height="1" fill="#E12625"/><rect x="213" y="143" width="64" height="1" fill="#E12625"/><rect x="213" y="144" width="64" height="1" fill="#E12625"/><rect x="213" y="145" width="64" height="1" fill="#E12625"/><rect x="213" y="146" width="64" height="1" fill="#E12625"/><rect x="213" y="147" width="64" height="1" fill="#E12625"/><rect x="213" y="148" width="64" height="1" fill="#E12625"/><rect x="235" y="149" width="42" height="1" fill="#E12625"/><rect x="235" y="150" width="42" height="1" fill="#E12625"/><rect x="235" y="151" width="42" height="1" fill="#E12625"/><rect x="235" y="152" width="42" height="1" fill="#E12625"/><rect x="235" y="153" width="42" height="1" fill="#E12625"/><rect x="235" y="154" width="42" height="1" fill="#E12625"/><rect x="235" y="155" width="42" height="1" fill="#E12625"/><rect x="235" y="156" width="42" height="1" fill="#E12625"/><rect x="235" y="157" width="42" height="1" fill="#E12625"/><rect x="235" y="158" width="42" height="1" fill="#E12625"/><rect x="235" y="159" width="42" height="1" fill="#E12625"/><rect x="235" y="160" width="42" height="1" fill="#E12625"/><rect x="235" y="161" width="42" height="1" fill="#E12625"/><rect x="235" y="162" width="42" height="1" fill="#E12625"/><rect x="235" y="163" width="42" height="1" fill="#E12625"/><rect x="235" y="164" width="42" height="1" fill="#E12625"/><rect x="235" y="165" width="42" height="1" fill="#E12625"/><rect x="235" y="166" width="42" height="1" fill="#E12625"/><rect x="235" y="167" width="42" height="1" fill="#E12625"/><rect x="235" y="168" width="42" height="1" fill="#E12625"/><rect x="235" y="169" width="42" height="1" fill="#E12625"/><rect x="235" y="170" width="42" height="1" fill="#E12625"/></svg>