<svg xmlns="http://www.w3.org/2000/svg" viewBox="0 0 512 512" width="512" height="512" shape-rendering="crispEdges"><rect x="192" y="128" width="128" height="1" fill="#000000"/><rect x="192" y="129" width="128" height="1" fill="#000000"/><rect x="192" y="130" width="128" height="1" fill="#000000"/><rect x="192" y="131" width="128" height="1" fill="#000000"/><rect x="192" y="132" width="128" height="1" fill="#000000"/><rect x="192" y="133" width="128" height="1" fill="#000000"/><rect x="192" y="134" width="128" height="1" fill="#000000"/><rect x="192" y="135" width="128" height="1" fill="#000000"/><rect x="192" y="136" width="128" height="1" fill="#000000"/><rect x="192" y="137" width="128" height="1" fill="#000000"/><rect x="192" y="138" width="128" height="1" fill="#000000"/><rect x="192" y="139" width="128" height="1" fill="#000000"/><rect x="192" y="140" width="128" height="1" fill="#000000"/><rect x="192" y="141" width="128" height="1" fill="#000000"/><rect x="192" y="142" width="128" height="1" fill="#000000"/><rect x="192" y="143" width="128" height="1" fill="#000000"/><rect x="192" y="144" width="128" height="1" fill="#000000"/><rect x="192" y="145" width="128" height="1" fill="#000000"/><rect x="192" y="146" width="128" height="1" fill="#000000"/><rect x="192" y="147" width="128" height="1" fill="#000000"/><rect x="192" y="148" width="128" height="1" fill="#000000"/><rect x="171" y="149" width="64" height="1" fill="#000000"/><rect x="235" y="149" width="21" height="1" fill="#FFFFFF"/><rect x="256" y="149" width="85" height="1" fill="#000000"/><rect x="171" y="150" width="64" height="1" fill="#000000"/><rect x="235" y="150" width="21" height="1" fill="#FFFFFF"/><rect x="256" y="150" width="85" height="1" fill="#000000"/><rect x="171" y="151" width="64" height="1" fill="#000000"/><rect x="235" y="151" width="21" height="1" fill="#FFFFFF"/><rect x="256" y="151" width="85" height="1" fill="#000000"/><rect x="171" y="152" width="64" height="1" fill="#000000"/><rect x="235" y="152" width="21" height="1" fill="#FFFFFF"/><rect x="256" y="152" width="85" height="1" fill="#000000"/><rect x="171" y="153" width="64" height="1" fill="#000000"/><rect x="235" y="153" width="21" height="1" fill="#FFFFFF"/><rect x="256" y="153" width="85" height="1" fill="#000000"/><rect x="171" y="154" width="64" height="1" fill="#000000"/><rect x="235" y="154" width="21" height="1" fill="#FFFFFF"/><rect x="256" y="154" width="85" height="1" fill="#000000"/><rect x="171" y="155" width="64" height="1" fill="#000000"/><rect x="235" y="155" width="21" height="1" fill="#FFFFFF"/><rect x="256" y="155" width="85" height="1" fill="#000000"/><rect x="171" y="156" width="64" height="1" fill="#000000"/><rect x="235" y="156" width="21" height="1" fill="#FFFFFF"/><rect x="256" y="156" width="85" height="1" fill="#000000"/><rect x="171" y="157" width="64" height="1" fill="#000000"/><rect x="235" y="157" width="21" height="1" fill="#FFFFFF"/><rect x="256" y="157" width="85" height="1" fill="#000000"/><rect x="171" y="158" width="64" height="1" fill="#000000"/><rect x="235" y="158" width="21" height="1" fill="#FFFFFF"/><rect x="256" y="158" width="85" height="1" fill="#000000"/><rect x="171" y="159" width="64" height="1" fill="#000000"/><rect x="235" y="159" width="21" height="1" fill="#FFFFFF"/><rect x="256" y="159" width="85" height="1" fill="#000000"/><rect x="171" y="160" width="64" height="1" fill="#000000"/><rect x="235" y="160" width="21" height="1" fill="#FFFFFF"/><rect x="256" y="160" width="85" height="1" fill="#000000"/><rect x="171" y="161" width="64" height="1" fill="#000000"/><rect x="235" y="161" width="21" height="1" fill="#FFFFFF"/><rect x="256" y="161" width="85" height="1" fill="#000000"/><rect x="171" y="162" width="64" height="1" fill="#000000"/><rect x="235" y="162" width="21" height="1" fill="#FFFFFF"/><rect x="256" y="162" width="85" height="1" fill="#000000"/><rect x="171" y="163" width="64" height="1" fill="#000000"/><rect x="235" y="163" width="21" height="1" fill="#FFFFFF"/><rect x="256" y="163" width="85" height="1" fill="#000000"/><rect x="171" y="164" width="64" height="1" fill="#000000"/><rect x="235" y="164" width="21" height="1" fill="#FFFFFF"/><rect x="256" y="164" width="85" height="1" fill="#000000"/><rect x="171" y="165" width="64" height="1" fill="#000000"/><rect x="235" y="165" width="21" height="1" fill="#FFFFFF"/><rect x="256" y="165" width="85" height="1" fill="#000000"/><rect x="171" y="166" width="64" height="1" fill="#000000"/><rect x="235" y="166" width="21" height="1" fill="#FFFFFF"/><rect x="256" y="166" width="85" height="1" fill="#000000"/><rect x="171" y="167" width="64" height="1" fill="#000000"/><rect x="235" y="167" width="21" height="1" fill="#FFFFFF"/><rect x="256" y="167" width="85" height="1" fill="#000000"/><rect x="171" y="168" width="64" height="1" fill="#000000"/><rect x="235" y="168" width="21" height="1" fill="#FFFFFF"/><rect x="256" y="168" width="85" height="1" fill="#000000"/><rect x="171" y="169" width="64" height="1" fill="#000000"/><rect x="235" y="169" width="21" height="1" fill="#FFFFFF"/><rect x="256" y="169" width="85" height="1" fill="#000000"/><rect x="171" y="170" width="64" height="1" fill="#000000"/><rect x="235" y="170" width="21" height="1" fill="#FFFFFF"/><rect x="256" y="170" width="85" height="1" fill="#000000"/><rect x="149" y="171" width="107" height="1" fill="#000000"/><rect x="256" y="171" width="21" height="1" fill="#FFFFFF"/><rect x="277" y="171" width="86" height="1" fill="#000000"/><rect x="149" y="172" width="107" height="1" fill="#000000"/><rect x="256" y="172" width="21" height="1" fill="#FFFFFF"/><rect x="277" y="172" width="86" height="1" fill="#000000"/><rect x="149" y="173" width="107" height="1" fill="#000000"/><rect x="256" y="173" width="21" height="1" fill="#FFFFFF"/><rect x="277" y="173" width="86" height="1" fill="#000000"/><rect x="149" y="174" width="107" height="1" fill="#000000"/><rect x="256" y="174" width="21" height="1" fill="#FFFFFF"/><rect x="277" y="174" width="86" height="1" fill="#000000"/><rect x="149" y="175" width="107" height="1" fill="#000000"/><rect x="256" y="175" width="21" height="1" fill="#FFFFFF"/><rect x="277" y="175" width="86" height="1" fill="#000000"/><rect x="149" y="176" width="107" height="1" fill="#000000"/><rect x="256" y="176" width="21" height="1" fill="#FFFFFF"/><rect x="277" y="176" width="86" height="1" fill="#000000"/><rect x="149" y="177" width="107" height="1" fill="#000000"/><rect x="256" y="177" width="21" height="1" fill="#FFFFFF"/><rect x="277" y="177" width="86" height="1" fill="#000000"/><rect x="149" y="178" width="107" height="1" fill="#000000"/><rect x="256" y="178" width="21" height="1" fill="#FFFFFF"/><rect x="277" y="178" width="86" height="1" fill="#000000"/><rect x="149" y="179" width="107" height="1" fill="#000000"/><rect x="256" y="179" width="21" height="1" fill="#FFFFFF"/><rect x="277" y="179" width="86" height="1" fill="#000000"/><rect x="149" y="180" width="107" height="1" fill="#000000"/><rect x="256" y="180" width="21" height="1" fill="#FFFFFF"/><rect x="277" y="180" width="86" height="1" fill="#000000"/><rect x="149" y="181" width="107" height="1" fill="#000000"/><rect x="256" y="181" width="21" height="1" fill="#FFFFFF"/><rect x="277" y="181" width="86" height="1" fill="#000000"/><rect x="149" y="182" width="107" height="1" fill="#000000"/><rect x="256" y="182" width="21" height="1" fill="#FFFFFF"/><rect x="277" y="182" width="86" height="1" fill="#000000"/><rect x="149" y="183" width="107" height="1" fill="#000000"/><rect x="256" y="183" width="21" height="1" fill="#FFFFFF"/><rect x="277" y="183" width="86" height="1" fill="#000000"/><rect x="149" y="184" width="107" height="1" fill="#000000"/><rect x="256" y="184" width="21" height="1" fill="#FFFFFF"/><rect x="277" y="184" width="86" height="1" fill="#000000"/><rect x="149" y="185" width="107" height="1" fill="#000000"/><rect x="256" y="185" width="21" height="1" fill="#FFFFFF"/><rect x="277" y="185" width="86" height="1" fill="#000000"/><rect x="149" y="186" width="107" height="1" fill="#000000"/><rect x="256" y="186" width="21" height="1" fill="#FFFFFF"/><rect x="277" y="186" width="86" height="1" fill="#000000"/><rect x="149" y="187" width="107" height="1" fill="#000000"/><rect x="256" y="187" width="21" height="1" fill="#FFFFFF"/><rect x="277" y="187" width="86" height="1" fill="#000000"/><rect x="149" y="188" width="107" height="1" fill="#000000"/><rect x="256" y="188" width="21" height="1" fill="#FFFFFF"/><rect x="277" y="188" width="86" height="1" fill="#000000"/><rect x="149" y="189" width="107" height="1" fill="#000000"/><rect x="256" y="189" width="21" height="1" fill="#FFFFFF"/><rect x="277" y="189" width="86" height="1" fill="#000000"/><rect x="149" y="190" width="107" height="1" fill="#000000"/><rect x="256" y="190" width="21" height="1" fill="#FFFFFF"/><rect x="277" y="190" width="86" height="1" fill="#000000"/><rect x="149" y="191" width="107" height="1" fill="#000000"/><rect x="256" y="191" width="21" height="1" fill="#FFFFFF"/><rect x="277" y="191" width="86" height="1" fill="#000000"/><rect x="149" y="192" width="214" height="1" fill="#000000"/><rect x="149" y="193" width="214" height="1" fill="#000000"/><rect x="149" y="194" width="214" height="1" fill="#000000"/><rect x="149" y="195" width="214" height="1" fill="#000000"/><rect x="149" y="196" width="214" height="1" fill="#000000"/><rect x="149" y="197" width="214" height="1" fill="#000000"/><rect x="149" y="198" width="214" height="1" fill="#000000"/><rect x="149" y="199" width="214" height="1" fill="#000000"/><rect x="149" y="200" width="214" height="1" fill="#000000"/><rect x="149" y="201" width="214" height="1" fill="#000000"/><rect x="149" y="202" width="214" height="1" fill="#000000"/><rect x="149" y="203" width="214" height="1" fill="#000000"/><rect x="149" y="204" width="214" height="1" fill="#000000"/><rect x="149" y="205" width="214" height="1" fill="#000000"/><rect x="149" y="206" width="214" height="1" fill="#000000"/><rect x="149" y="207" width="214" height="1" fill="#000000"/><rect x="149" y="208" width="214" height="1" fill="#000000"/><rect x="149" y="209" width="214" height="1" fill="#000000"/><rect x="149" y="210" width="214" height="1" fill="#000000"/><rect x="149" y="211" width="214" height="1" fill="#000000"/><rect x="149" y="212" width="214" height="1" fill="#000000"/><rect x="149" y="213" width="214" height="1" fill="#FF8EBC"/><rect x="149" y="214" width="214" height="1" fill="#FF8EBC"/><rect x="149" y="215" width="214" height="1" fill="#FF8EBC"/><rect x="149" y="216" width="214" height="1" fill="#FF8EBC"/><rect x="149" y="217" width="214" height="1" fill="#FF8EBC"/><rect x="149" y="218" width="214" height="1" fill="#FF8EBC"/><rect x="149" y="219" width="214" height="1" fill="#FF8EBC"/><rect x="149" y="220" width="214" height="1" fill="#FF8EBC"/><rect x="149" y="221" width="214" height="1" fill="#FF8EBC"/><rect x="149" y="222" width="214" height="1" fill="#FF8EBC"/><rect x="149" y="223" width="214" height="1" fill="#FF8EBC"/><rect x="149" y="224" width="214" height="1" fill="#FF8EBC"/><rect x="149" y="225" width="214" height="1" fill="#FF8EBC"/><rect x="149" y="226" width="214" height="1" fill="#FF8EBC"/><rect x="149" y="227" width="214" height="1" fill="#FF8EBC"/><rect x="149" y="228" width="214" height="1" fill="#FF8EBC"/><rect x="149" y="229" width="214" height="1" fill="#FF8EBC"/><rect x="149" y="230" width="214" height="1" fill="#FF8EBC"/><rect x="149" y="231" width="214" height="1" fill="#FF8EBC"/><rect x="149" y="232" width="214" height="1" fill="#FF8EBC"/><rect x="149" y="233" width="214" height="1" fill="#FF8EBC"/><rect x="149" y="234" width="214" height="1" fill="#FF8EBC"/><rect x="128" y="235" width="64" height="1" fill="#FF8EBC"/><rect x="235" y="235" width="64" height="1" fill="#FF8EBC"/><rect x="341" y="235" width="43" height="1" fill="#FF8EBC"/><rect x="128" y="236" width="64" height="1" fill="#FF8EBC"/><rect x="235" y="236" width="64" height="1" fill="#FF8EBC"/><rect x="341" y="236" width="43" height="1" fill="#FF8EBC"/><rect x="128" y="237" width="64" height="1" fill="#FF8EBC"/><rect x="235" y="237" width="64" height="1" fill="#FF8EBC"/><rect x="341" y="237" width="43" height="1" fill="#FF8EBC"/><rect x="128" y="238" width="64" height="1" fill="#FF8EBC"/><rect x="235" y="238" width="64" height="1" fill="#FF8EBC"/><rect x="341" y="238" width="43" height="1" fill="#FF8EBC"/><rect x="128" y="239" width="64" height="1" fill="#FF8EBC"/><rect x="235" y="239" width="64" height="1" fill="#FF8EBC"/><rect x="341" y="239" width="43" height="1" fill="#FF8EBC"/><rect x="128" y="240" width="64" height="1" fill="#FF8EBC"/><rect x="235" y="240" width="64" height="1" fill="#FF8EBC"/><rect x="341" y="240" width="43" height="1" fill="#FF8EBC"/><rect x="128" y="241" width="64" height="1" fill="#FF8EBC"/><rect x="235" y="241" width="64" height="1" fill="#FF8EBC"/><rect x="341" y="241" width="43" height="1" fill="#FF8EBC"/><rect x="128" y="242" width="64" height="1" fill="#FF8EBC"/><rect x="235" y="242" width="64" height="1" fill="#FF8EBC"/><rect x="341" y="242" width="43" height="1" fill="#FF8EBC"/><rect x="128" y="243" width="64" height="1" fill="#FF8EBC"/><rect x="235" y="243" width="64" height="1" fill="#FF8EBC"/><rect x="341" y="243" width="43" height="1" fill="#FF8EBC"/><rect x="128" y="244" width="64" height="1" fill="#FF8EBC"/><rect x="235" y="244" width="64" height="1" fill="#FF8EBC"/><rect x="341" y="244" width="43" height="1" fill="#FF8EBC"/><rect x="128" y="245" width="64" height="1" fill="#FF8EBC"/><rect x="235" y="245" width="64" height="1" fill="#FF8EBC"/><rect x="341" y="245" width="43" height="1" fill="#FF8EBC"/><rect x="128" y="246" width="64" height="1" fill="#FF8EBC"/><rect x="235" y="246" width="64" height="1" fill="#FF8EBC"/><rect x="341" y="246" width="43" height="1" fill="#FF8EBC"/><rect x="128" y="247" width="64" height="1" fill="#FF8EBC"/><rect x="235" y="247" width="64" height="1" fill="#FF8EBC"/><rect x="341" y="247" width="43" height="1" fill="#FF8EBC"/><rect x="128" y="248" width="64" height="1" fill="#FF8EBC"/><rect x="235" y="248" width="64" height="1" fill="#FF8EBC"/><rect x="341" y="248" width="43" height="1" fill="#FF8EBC"/><rect x="128" y="249" width="64" height="1" fill="#FF8EBC"/><rect x="235" y="249" width="64" height="1" fill="#FF8EBC"/><rect x="341" y="249" width="43" height="1" fill="#FF8EBC"/><rect x="128" y="250" width="64" height="1" fill="#FF8EBC"/><rect x="235" y="250" width="64" height="1" fill="#FF8EBC"/><rect x="341" y="250" width="43" height="1" fill="#FF8EBC"/><rect x="128" y="251" width="64" height="1" fill="#FF8EBC"/><rect x="235" y="251" width="64" height="1" fill="#FF8EBC"/><rect x="341" y="251" width="43" height="1" fill="#FF8EBC"/><rect x="128" y="252" width="64" height="1" fill="#FF8EBC"/><rect x="235" y="252" width="64" height="1" fill="#FF8EBC"/><rect x="341" y="252" width="43" height="1" fill="#FF8EBC"/><rect x="128" y="253" width="64" height="1" fill="#FF8EBC"/><rect x="235" y="253" width="64" height="1" fill="#FF8EBC"/><rect x="341" y="253" width="43" height="1" fill="#FF8EBC"/><rect x="128" y="254" width="64" height="1" fill="#FF8EBC"/><rect x="235" y="254" width="64" height="1" fill="#FF8EBC"/><rect x="341" y="254" width="43" height="1" fill="#FF8EBC"/><rect x="128" y="255" width="64" height="1" fill="#FF8EBC"/><rect x="235" y="255" width="64" height="1" fill="#FF8EBC"/><rect x="341" y="255" width="43" height="1" fill="#FF8EBC"/><rect x="128" y="256" width="43" height="1" fill="#FF8EBC"/><rect x="256" y="256" width="21" height="1" fill="#FF8EBC"/><rect x="341" y="256" width="43" height="1" fill="#FF8EBC"/><rect x="128" y="257" width="43" height="1" fill="#FF8EBC"/><rect x="256" y="257" width="21" height="1" fill="#FF8EBC"/><rect x="341" y="257" width="43" height="1" fill="#FF8EBC"/><rect x="128" y="258" width="43" height="1" fill="#FF8EBC"/><rect x="256" y="258" width="21" height="1" fill="#FF8EBC"/><rect x="341" y="258" width="43" height="1" fill="#FF8EBC"/><rect x="128" y="259" width="43" height="1" fill="#FF8EBC"/><rect x="256" y="259" width="21" height="1" fill="#FF8EBC"/><rect x="341" y="259" width="43" height="1" fill="#FF8EBC"/><rect x="128" y="260" width="43" height="1" fill="#FF8EBC"/><rect x="256" y="260" width="21" height="1" fill="#FF8EBC"/><rect x="341" y="260" width="43" height="1" fill="#FF8EBC"/><rect x="128" y="261" width="43" height="1" fill="#FF8EBC"/><rect x="256" y="261" width="21" height="1" fill="#FF8EBC"/><rect x="341" y="261" width="43" height="1" fill="#FF8EBC"/><rect x="128" y="262" width="43" height="1" fill="#FF8EBC"/><rect x="256" y="262" width="21" height="1" fill="#FF8EBC"/><rect x="341" y="262" width="43" height="1" fill="#FF8EBC"/><rect x="128" y="263" width="43" height="1" fill="#FF8EBC"/><rect x="256" y="263" width="21" height="1" fill="#FF8EBC"/><rect x="341" y="263" width="43" height="1" fill="#FF8EBC"/><rect x="128" y="264" width="43" height="1" fill="#FF8EBC"/><rect x="256" y="264" width="21" height="1" fill="#FF8EBC"/><rect x="341" y="264" width="43" height="1" fill="#FF8EBC"/><rect x="128" y="265" width="43" height="1" fill="#FF8EBC"/><rect x="256" y="265" width="21" height="1" fill="#FF8EBC"/><rect x="341" y="265" width="43" height="1" fill="#FF8EBC"/><rect x="128" y="266" width="43" height="1" fill="#FF8EBC"/><rect x="256" y="266" width="21" height="1" fill="#FF8EBC"/><rect x="341" y="266" width="43" height="1" fill="#FF8EBC"/><rect x="128" y="267" width="43" height="1" fill="#FF8EBC"/><rect x="256" y="267" width="21" height="1" fill="#FF8EBC"/><rect x="341" y="267" width="43" height="1" fill="#FF8EBC"/><rect x="128" y="268" width="43" height="1" fill="#FF8EBC"/><rect x="256" y="268" width="21" height="1" fill="#FF8EBC"/><rect x="341" y="268" width="43" height="1" fill="#FF8EBC"/><rect x="128" y="269" width="43" height="1" fill="#FF8EBC"/><rect x="256" y="269" width="21" height="1" fill="#FF8EBC"/><rect x="341" y="269" width="43" height="1" fill="#FF8EBC"/><rect x="128" y="270" width="43" height="1" fill="#FF8EBC"/><rect x="256" y="270" width="21" height="1" fill="#FF8EBC"/><rect x="341" y="270" width="43" height="1" fill="#FF8EBC"/><rect x="128" y="271" width="43" height="1" fill="#FF8EBC"/><rect x="256" y="271" width="21" height="1" fill="#FF8EBC"/><rect x="341" y="271" width="43" height="1" fill="#FF8EBC"/><rect x="128" y="272" width="43" height="1" fill="#FF8EBC"/><rect x="256" y="272" width="21" height="1" fill="#FF8EBC"/><rect x="341" y="272" width="43" height="1" fill="#FF8EBC"/><rect x="128" y="273" width="43" height="1" fill="#FF8EBC"/><rect x="256" y="273" width="21" height="1" fill="#FF8EBC"/><rect x="341" y="273" width="43" height="1" fill="#FF8EBC"/><rect x="128" y="274" width="43" height="1" fill="#FF8EBC"/><rect x="256" y="274" width="21" height="1" fill="#FF8EBC"/><rect x="341" y="274" width="43" height="1" fill="#FF8EBC"/><rect x="128" y="275" width="43" height="1" fill="#FF8EBC"/><rect x="256" y="275" width="21" height="1" fill="#FF8EBC"/><rect x="341" y="275" width="43" height="1" fill="#FF8EBC"/><rect x="128" y="276" width="43" height="1" fill="#FF8EBC"/><rect x="256" y="276" width="21" height="1" fill="#FF8EBC"/><rect x="341" y="276" width="43" height="1" fill="#FF8EBC"/><rect x="107" y="277" width="42" height="1" fill="#FF8EBC"/><rect x="341" y="277" width="64" height="1" fill="#FF8EBC"/><rect x="107" y="278" width="42" height="1" fill="#FF8EBC"/><rect x="341" y="278" width="64" height="1" fill="#FF8EBC"/><rect x="107" y="279" width="42" height="1" fill="#FF8EBC"/><rect x="341" y="279" width="64" height="1" fill="#FF8EBC"/><rect x="107" y="280" width="42" height="1" fill="#FF8EBC"/><rect x="341" y="280" width="64" height="1" fill="#FF8EBC"/><rect x="107" y="281" width="42" height="1" fill="#FF8EBC"/><rect x="341" y="281" width="64" height="1" fill="#FF8EBC"/><rect x="107" y="282" width="42" height="1" fill="#FF8EBC"/><rect x="341" y="282" width="64" height="1" fill="#FF8EBC"/><rect x="107" y="283" width="42" height="1" fill="#FF8EBC"/><rect x="341" y="283" width="64" height="1" fill="#FF8EBC"/><rect x="107" y="284" width="42" height="1" fill="#FF8EBC"/><rect x="341" y="284" width="64" height="1" fill="#FF8EBC"/><rect x="107" y="285" width="42" height="1" fill="#FF8EBC"/><rect x="341" y="285" width="64" height="1" fill="#FF8EBC"/><rect x="107" y="286" width="42" height="1" fill="#FF8EBC"/><rect x="341" y="286" width="64" height="1" fill="#FF8EBC"/><rect x="107" y="287" width="42" height="1" fill="#FF8EBC"/><rect x="341" y="287" width="64" height="1" fill="#FF8EBC"/><rect x="107" y="288" width="42" height="1" fill="#FF8EBC"/><rect x="341" y="288" width="64" height="1" fill="#FF8EBC"/><rect x="107" y="289" width="42" height="1" fill="#FF8EBC"/><rect x="341" y="289" width="64" height="1" fill="#FF8EBC"/><rect x="107" y="290" width="42" height="1" fill="#FF8EBC"/><rect x="341" y="290" width="64" height="1" fill="#FF8EBC"/><rect x="107" y="291" width="42" height="1" fill="#FF8EBC"/><rect x="341" y="291" width="64" height="1" fill="#FF8EBC"/><rect x="107" y="292" width="42" height="1" fill="#FF8EBC"/><rect x="341" y="292" width="64" height="1" fill="#FF8EBC"/><rect x="107" y="293" width="42" height="1" fill="#FF8EBC"/><rect x="341" y="293" width="64" height="1" fill="#FF8EBC"/><rect x="107" y="294" width="42" height="1" fill="#FF8EBC"/><rect x="341" y="294" width="64" height="1" fill="#FF8EBC"/><rect x="107" y="295" width="42" height="1" fill="#FF8EBC"/><rect x="341" y="295" width="64" height="1" fill="#FF8EBC"/><rect x="107" y="296" width="42" height="1" fill="#FF8EBC"/><rect x="341" y="296" width="64" height="1" fill="#FF8EBC"/><rect x="107" y="297" width="42" height="1" fill="#FF8EBC"/><rect x="341" y="297" width="64" height="1" fill="#FF8EBC"/><rect x="107" y="298" width="42" height="1" fill="#FF8EBC"/><rect x="341" y="298" width="64" height="1" fill="#FF8EBC"/><rect x="107" y="299" width="64" height="1" fill="#FF8EBC"/><rect x="341" y="299" width="64" height="1" fill="#FF8EBC"/><rect x="107" y="300" width="64" height="1" fill="#FF8EBC"/><rect x="341" y="300" width="64" height="1" fill="#FF8EBC"/><rect x="107" y="301" width="64" height="1" fill="#FF8EBC"/><rect x="341" y="301" width="64" height="1" fill="#FF8EBC"/><rect x="107" y="302" width="64" height="1" fill="#FF8EBC"/><rect x="341" y="302" width="64" height="1" fill="#FF8EBC"/><rect x="107" y="303" width="64" height="1" fill="#FF8EBC"/><rect x="341" y="303" width="64" height="1" fill="#FF8EBC"/><rect x="107" y="304" width="64" height="1" fill="#FF8EBC"/><rect x="341" y="304" width="64" height="1" fill="#FF8EBC"/><rect x="107" y="305" width="64" height="1" fill="#FF8EBC"/><rect x="341" y="305" width="64" height="1" fill="#FF8EBC"/><rect x="107" y="306" width="64" height="1" fill="#FF8EBC"/><rect x="341" y="306" width="64" height="1" fill="#FF8EBC"/><rect x="107" y="307" width="64" height="1" fill="#FF8EBC"/><rect x="341" y="307" width="64" height="1" fill="#FF8EBC"/><rect x="107" y="308" width="64" height="1" fill="#FF8EBC"/><rect x="341" y="308" width="64" height="1" fill="#FF8EBC"/><rect x="107" y="309" width="64" height="1" fill="#FF8EBC"/><rect x="341" y="309" width="64" height="1" fill="#FF8EBC"/><rect x="107" y="310" width="64" height="1" fill="#FF8EBC"/><rect x="341" y="310" width="64" height="1" fill="#FF8EBC"/><rect x="107" y="311" width="64" height="1" fill="#FF8EBC"/><rect x="341" y="311" width="64" height="1" fill="#FF8EBC"/><rect x="107" y="312" width="64" height="1" fill="#FF8EBC"/><rect x="341" y="312" width="64" height="1" fill="#FF8EBC"/><rect x="107" y="313" width="64" height="1" fill="#FF8EBC"/><rect x="341" y="313" width="64" height="1" fill="#FF8EBC"/><rect x="107" y="314" width="64" height="1" fill="#FF8EBC"/><rect x="341" y="314" width="64" height="1" fill="#FF8EBC"/><rect x="107" y="315" width="64" height="1" fill="#FF8EBC"/><rect x="341" y="315" width="64" height="1" fill="#FF8EBC"/><rect x="107" y="316" width="64" height="1" fill="#FF8EBC"/><rect x="341" y="316" width="64" height="1" fill="#FF8EBC"/><rect x="107" y="317" width="64" height="1" fill="#FF8EBC"/><rect x="341" y="317" width="64" height="1" fill="#FF8EBC"/><rect x="107" y="318" width="64" height="1" fill="#FF8EBC"/><rect x="341" y="318" width="64" height="1" fill="#FF8EBC"/><rect x="107" y="319" width="64" height="1" fill="#FF8EBC"/><rect x="341" y="319" width="64" height="1" fill="#FF8EBC"/><rect x="107" y="320" width="64" height="1" fill="#FF8EBC"/><rect x="341" y="320" width="64" height="1" fill="#FF8EBC"/><rect x="107" y="321" width="64" height="1" fill="#FF8EBC"/><rect x="341" y="321" width="64" height="1" fill="#FF8EBC"/><rect x="107" y="322" width="64" height="1" fill="#FF8EBC"/><rect x="341" y="322" width="64" height="1" fill="#FF8EBC"/><rect x="107" y="323" width="64" height="1" fill="#FF8EBC"/><rect x="341" y="323" width="64" height="1" fill="#FF8EBC"/><rect x="107" y="324" width="64" height="1" fill="#FF8EBC"/><rect x="341" y="324" width="64" height="1" fill="#FF8EBC"/><rect x="107" y="325" width="64" height="1" fill="#FF8EBC"/><rect x="341" y="325" width="64" height="1" fill="#FF8EBC"/><rect x="107" y="326" width="64" height="1" fill="#FF8EBC"/><rect x="341" y="326" width="64" height="1" fill="#FF8EBC"/><rect x="107" y="327" width="64" height="1" fill="#FF8EBC"/><rect x="341" y="327" width="64" height="1" fill="#FF8EBC"/><rect x="107" y="328" width="64" height="1" fill="#FF8EBC"/><rect x="341" y="328" width="64" height="1" fill="#FF8EBC"/><rect x="107" y="329" width="64" height="1" fill="#FF8EBC"/><rect x="341" y="329" width="64" height="1" fill="#FF8EBC"/><rect x="107" y="330" width="64" height="1" fill="#FF8EBC"/><rect x="341" y="330" width="64" height="1" fill="#FF8EBC"/><rect x="107" y="331" width="64" height="1" fill="#FF8EBC"/><rect x="341" y="331" width="64" height="1" fill="#FF8EBC"/><rect x="107" y="332" width="64" height="1" fill="#FF8EBC"/><rect x="341" y="332" width="64" height="1" fill="#FF8EBC"/><rect x="107" y="333" width="64" height="1" fill="#FF8EBC"/><rect x="341" y="333" width="64" height="1" fill="#FF8EBC"/><rect x="107" y="334" width="64" height="1" fill="#FF8EBC"/><rect x="341" y="334" width="64" height="1" fill="#FF8EBC"/><rect x="107" y="335" width="64" height="1" fill="#FF8EBC"/><rect x="341" y="335" width="64" height="1" fill="#FF8EBC"/><rect x="107" y="336" width="64" height="1" fill="#FF8EBC"/><rect x="341" y="336" width="64" height="1" fill="#FF8EBC"/><rect x="107" y="337" width="64" height="1" fill="#FF8EBC"/><rect x="341" y="337" width="64" height="1" fill="#FF8EBC"/><rect x="107" y="338" width="64" height="1" fill="#FF8EBC"/><rect x="341" y="338" width="64" height="1" fill="#FF8EBC"/><rect x="107" y="339" width="64" height="1" fill="#FF8EBC"/><rect x="341" y="339" width="64" height="1" fill="#FF8EBC"/><rect x="107" y="340" width="64" height="1" fill="#FF8EBC"/><rect x="341" y="340" width="64" height="1" fill="#FF8EBC"/><rect x="107" y="341" width="64" height="1" fill="#FF8EBC"/><rect x="341" y="341" width="64" height="1" fill="#FF8EBC"/><rect x="107" y="342" width="64" height="1" fill="#FF8EBC"/><rect x="341" y="342" width="64" height="1" fill="#FF8EBC"/><rect x="107" y="343" width="64" height="1" fill="#FF8EBC"/><rect x="341" y="343" width="64" height="1" fill="#FF8EBC"/><rect x="107" y="344" width="64" height="1" fill="#FF8EBC"/><rect x="341" y="344" width="64" height="1" fill="#FF8EBC"/><rect x="107" y="345" width="64" height="1" fill="#FF8EBC"/><rect x="341" y="345" width="64" height="1" fill="#FF8EBC"/><rect x="107" y="346" width="64" height="1" fill="#FF8EBC"/><rect x="341" y="346" width="64" height="1" fill="#FF8EBC"/><rect x="107" y="347" width="64" height="1" fill="#FF8EBC"/><rect x="341" y="347" width="64" height="1" fill="#FF8EBC"/><rect x="107" y="348" width="64" height="1" fill="#FF8EBC"/><rect x="341" y="348" width="64" height="1" fill="#FF8EBC"/><rect x="107" y="349" width="64" height="1" fill="#FF8EBC"/><rect x="341" y="349" width="64" height="1" fill="#FF8EBC"/><rect x="107" y="350" width="64" height="1" fill="#FF8EBC"/><rect x="341" y="350" width="64" height="1" fill="#FF8EBC"/><rect x="107" y="351" width="64" height="1" fill="#FF8EBC"/><rect x="341" y="351" width="64" height="1" fill="#FF8EBC"/><rect x="107" y="352" width="64" height="1" fill="#FF8EBC"/><rect x="341" y="352" width="64" height="1" fill="#FF8EBC"/><rect x="107" y="353" width="64" height="1" fill="#FF8EBC"/><rect x="341" y="353" width="64" height="1" fill="#FF8EBC"/><rect x="107" y="354" width="64" height="1" fill="#FF8EBC"/><rect x="341" y="354" width="64" height="1" fill="#FF8EBC"/><rect x="107" y="355" width="64" height="1" fill="#FF8EBC"/><rect x="341" y="355" width="64" height="1" fill="#FF8EBC"/><rect x="107" y="356" width="64" height="1" fill="#FF8EBC"/><rect x="341" y="356" width="64" height="1" fill="#FF8EBC"/><rect x="107" y="357" width="64" height="1" fill="#FF8EBC"/><rect x="341" y="357" width="64" height="1" fill="#FF8EBC"/><rect x="107" y="358" width="64" height="1" fill="#FF8EBC"/><rect x="341" y="358" width="64" height="1" fill="#FF8EBC"/><rect x="107" y="359" width="64" height="1" fill="#FF8EBC"/><rect x="341" y="359" width="64" height="1" fill="#FF8EBC"/><rect x="107" y="360" width="64" height="1" fill="#FF8EBC"/><rect x="341" y="360" width="64" height="1" fill="#FF8EBC"/><rect x="107" y="361" width="64" height="1" fill="#FF8EBC"/><rect x="341" y="361" width="64" height="1" fill="#FF8EBC"/><rect x="107" y="362" width="64" height="1" fill="#FF8EBC"/><rect x="341" y="362" width="64" height="1" fill="#FF8EBC"/><rect x="107" y="363" width="64" height="1" fill="#FF8EBC"/><rect x="341" y="363" width="64" height="1" fill="#FF8EBC"/><rect x="107" y="364" width="64" height="1" fill="#FF8EBC"/><rect x="341" y="364" width="64" height="1" fill="#FF8EBC"/><rect x="107" y="365" width="64" height="1" fill="#FF8EBC"/><rect x="341" y="365" width="64" height="1" fill="#FF8EBC"/><rect x="107" y="366" width="64" height="1" fill="#FF8EBC"/><rect x="341" y="366" width="64" height="1" fill="#FF8EBC"/><rect x="107" y="367" width="64" height="1" fill="#FF8EBC"/><rect x="341" y="367" width="64" height="1" fill="#FF8EBC"/><rect x="107" y="368" width="64" height="1" fill="#FF8EBC"/><rect x="341" y="368" width="64" height="1" fill="#FF8EBC"/><rect x="107" y="369" width="64" height="1" fill="#FF8EBC"/><rect x="341" y="369" width="64" height="1" fill="#FF8EBC"/><rect x="107" y="370" width="64" height="1" fill="#FF8EBC"/><rect x="341" y="370" width="64" height="1" fill="#FF8EBC"/><rect x="107" y="371" width="64" height="1" fill="#FF8EBC"/><rect x="341" y="371" width="64" height="1" fill="#FF8EBC"/><rect x="107" y="372" width="64" height="1" fill="#FF8EBC"/><rect x="341" y="372" width="64" height="1" fill="#FF8EBC"/><rect x="107" y="373" width="64" height="1" fill="#FF8EBC"/><rect x="341" y="373" width="64" height="1" fill="#FF8EBC"/><rect x="107" y="374" width="64" height="1" fill="#FF8EBC"/><rect x="341" y="374" width="64" height="1" fill="#FF8EBC"/><rect x="107" y="375" width="64" height="1" fill="#FF8EBC"/><rect x="341" y="375" width="64" height="1" fill="#FF8EBC"/><rect x="107" y="376" width="64" height="1" fill="#FF8EBC"/><rect x="341" y="376" width="64" height="1" fill="#FF8EBC"/><rect x="107" y="377" width="64" height="1" fill="#FF8EBC"/><rect x="341" y="377" width="64" height="1" fill="#FF8EBC"/><rect x="107" y="378" width="64" height="1" fill="#FF8EBC"/><rect x="341" y="378" width="64" height="1" fill="#FF8EBC"/><rect x="107" y="379" width="64" height="1" fill="#FF8EBC"/><rect x="341" y="379" width="64" height="1" fill="#FF8EBC"/><rect x="107" y="380" width="64" height="1" fill="#FF8EBC"/><rect x="341" y="380" width="64" height="1" fill="#FF8EBC"/><rect x="107" y="381" width="64" height="1" fill="#FF8EBC"/><rect x="341" y="381" width="64" height="1" fill="#FF8EBC"/><rect x="107" y="382" width="64" height="1" fill="#FF8EBC"/><rect x="341" y="382" width="64" height="1" fill="#FF8EBC"/><rect x="107" y="383" width="64" height="1" fill="#FF8EBC"/><rect x="341" y="383" width="64" height="1" fill="#FF8EBC"/><rect x="128" y="384" width="43" height="1" fill="#FF8EBC"/><rect x="341" y="384" width="43" height="1" fill="#FF8EBC"/><rect x="128" y="385" width="43" height="1" fill="#FF8EBC"/><rect x="341" y="385" width="43" height="1" fill="#FF8EBC"/><rect x="128" y="386" width="43" height="1" fill="#FF8EBC"/><rect x="341" y="386" width="43" height="1" fill="#FF8EBC"/><rect x="128" y="387" width="43" height="1" fill="#FF8EBC"/><rect x="341" y="387" width="43" height="1" fill="#FF8EBC"/><rect x="128" y="388" width="43" height="1" fill="#FF8EBC"/><rect x="341" y="388" width="43" height="1" fill="#FF8EBC"/><rect x="128" y="389" width="43" height="1" fill="#FF8EBC"/><rect x="341" y="389" width="43" height="1" fill="#FF8EBC"/><rect x="128" y="390" width="43" height="1" fill="#FF8EBC"/><rect x="341" y="390" width="43" height="1" fill="#FF8EBC"/><rect x="128" y="391" width="43" height="1" fill="#FF8EBC"/><rect x="341" y="391" width="43" height="1" fill="#FF8EBC"/><rect x="128" y="392" width="43" height="1" fill="#FF8EBC"/><rect x="341" y="392" width="43" height="1" fill="#FF8EBC"/><rect x="128" y="393" width="43" height="1" fill="#FF8EBC"/><rect x="341" y="393" width="43" height="1" fill="#FF8EBC"/><rect x="128" y="394" width="43" height="1" fill="#FF8EBC"/><rect x="341" y="394" width="43" height="1" fill="#FF8EBC"/><rect x="128" y="395" width="43" height="1" fill="#FF8EBC"/><rect x="341" y="395" width="43" height="1" fill="#FF8EBC"/><rect x="128" y="396" width="43" height="1" fill="#FF8EBC"/><rect x="341" y="396" width="43" height="1" fill="#FF8EBC"/><rect x="128" y="397" width="43" height="1" fill="#FF8EBC"/><rect x="341" y="397" width="43" height="1" fill="#FF8EBC"/><rect x="128" y="398" width="43" height="1" fill="#FF8EBC"/><rect x="341" y="398" width="43" height="1" fill="#FF8EBC"/><rect x="128" y="399" width="43" height="1" fill="#FF8EBC"/><rect x="341" y="399" width="43" height="1" fill="#FF8EBC"/><rect x="128" y="400" width="43" height="1" fill="#FF8EBC"/><rect x="341" y="400" width="43" height="1" fill="#FF8EBC"/><rect x="128" y="401" width="43" height="1" fill="#FF8EBC"/><rect x="341" y="401" width="43" height="1" fill="#FF8EBC"/><rect x="128" y="402" width="43" height="1" fill="#FF8EBC"/><rect x="341" y="402" width="43" height="1" fill="#FF8EBC"/><rect x="128" y="403" width="43" height="1" fill="#FF8EBC"/><rect x="341" y="403" width="43" height="1" fill="#FF8EBC"/><rect x="128" y="404" width="43" height="1" fill="#FF8EBC"/><rect x="341" y="404" width="43" height="1" fill="#FF8EBC"/><rect x="128" y="405" width="64" height="1" fill="#FF8EBC"/><rect x="320" y="405" width="64" height="1" fill="#FF8EBC"/><rect x="128" y="406" width="64" height="1" fill="#FF8EBC"/><rect x="320" y="406" width="64" height="1" fill="#FF8EBC"/><rect x="128" y="407" width="64" height="1" fill="#FF8EBC"/><rect x="320" y="407" width="64" height="1" fill="#FF8EBC"/><rect x="128" y="408" width="64" height="1" fill="#FF8EBC"/><rect x="320" y="408" width="64" height="1" fill="#FF8EBC"/><rect x="128" y="409" width="64" height="1" fill="#FF8EBC"/><rect x="320" y="409" width="64" height="1" fill="#FF8EBC"/><rect x="128" y="410" width="64" height="1" fill="#FF8EBC"/><rect x="320" y="410" width="64" height="1" fill="#FF8EBC"/><rect x="128" y="411" width="64" height="1" fill="#FF8EBC"/><rect x="320" y="411" width="64" height="1" fill="#FF8EBC"/><rect x="128" y="412" width="64" height="1" fill="#FF8EBC"/><rect x="320" y="412" width="64" height="1" fill="#FF8EBC"/><rect x="128" y="413" width="64" height="1" fill="#FF8EBC"/><rect x="320" y="413" width="64" height="1" fill="#FF8EBC"/><rect x="128" y="414" width="64" height="1" fill="#FF8EBC"/><rect x="320" y="414" width="64" height="1" fill="#FF8EBC"/><rect x="128" y="415" width="64" height="1" fill="#FF8EBC"/><rect x="320" y="415" width="64" height="1" fill="#FF8EBC"/><rect x="128" y="416" width="64" height="1" fill="#FF8EBC"/><rect x="320" y="416" width="64" height="1" fill="#FF8EBC"/><rect x="128" y="417" width="64" height="1" fill="#FF8EBC"/><rect x="320" y="417" width="64" height="1" fill="#FF8EBC"/><rect x="128" y="418" width="64" height="1" fill="#FF8EBC"/><rect x="320" y="418" width="64" height="1" fill="#FF8EBC"/><rect x="128" y="419" width="64" height="1" fill="#FF8EBC"/><rect x="320" y="419" width="64" height="1" fill="#FF8EBC"/><rect x="128" y="420" width="64" height="1" fill="#FF8EBC"/><rect x="320" y="420" width="64" height="1" fill="#FF8EBC"/><rect x="128" y="421" width="64" height="1" fill="#FF8EBC"/><rect x="320" y="421" width="64" height="1" fill="#FF8EBC"/><rect x="128" y="422" width="64" height="1" fill="#FF8EBC"/><rect x="320" y="422" width="64" height="1" fill="#FF8EBC"/><rect x="128" y="423" width="64" height="1" fill="#FF8EBC"/><rect x="320" y="423" width="64" height="1" fill="#FF8EBC"/><rect x="128" y="424" width="64" height="1" fill="#FF8EBC"/><rect x="320" y="424" width="64" height="1" fill="#FF8EBC"/><rect x="128" y="425" width="64" height="1" fill="#FF8EBC"/><rect x="320" y="425" width="64" height="1" fill="#FF8EBC"/><rect x="128" y="426" width="64" height="1" fill="#FF8EBC"/><rect x="320" y="426" width="64" height="1" fill="#FF8EBC"/><rect x="149" y="427" width="43" height="1" fill="#FF8EBC"/><rect x="320" y="427" width="43" height="1" fill="#FF8EBC"/><rect x="149" y="428" width="43" height="1" fill="#FF8EBC"/><rect x="320" y="428" width="43" height="1" fill="#FF8EBC"/><rect x="149" y="429" width="43" height="1" fill="#FF8EBC"/><rect x="320" y="429" width="43" height="1" fill="#FF8EBC"/><rect x="149" y="430" width="43" height="1" fill="#FF8EBC"/><rect x="320" y="430" width="43" height="1" fill="#FF8EBC"/><rect x="149" y="431" width="43" height="1" fill="#FF8EBC"/><rect x="320" y="431" width="43" height="1" fill="#FF8EBC"/><rect x="149" y="432" width="43" height="1" fill="#FF8EBC"/><rect x="320" y="432" width="43" height="1" fill="#FF8EBC"/><rect x="149" y="433" width="43" height="1" fill="#FF8EBC"/><rect x="320" y="433" width="43" height="1" fill="#FF8EBC"/><rect x="149" y="434" width="43" height="1" fill="#FF8EBC"/><rect x="320" y="434" width="43" height="1" fill="#FF8EBC"/><rect x="149" y="435" width="43" height="1" fill="#FF8EBC"/><rect x="320" y="435" width="43" height="1" fill="#FF8EBC"/><rect x="149" y="436" width="43" height="1" fill="#FF8EBC"/><rect x="320" y="436" width="43" height="1" fill="#FF8EBC"/><rect x="149" y="437" width="43" height="1" fill="#FF8EBC"/><rect x="320" y="437" width="43" height="1" fill="#FF8EBC"/><rect x="149" y="438" width="43" height="1" fill="#FF8EBC"/><rect x="320" y="438" width="43" height="1" fill="#FF8EBC"/><rect x="149" y="439" width="43" height="1" fill="#FF8EBC"/><rect x="320" y="439" width="43" height="1" fill="#FF8EBC"/><rect x="149" y="440" width="43" height="1" fill="#FF8EBC"/><rect x="320" y="440" width="43" height="1" fill="#FF8EBC"/><rect x="149" y="441" width="43" height="1" fill="#FF8EBC"/><rect x="320" y="441" width="43" height="1" fill="#FF8EBC"/><rect x="149" y="442" width="43" height="1" fill="#FF8EBC"/><rect x="320" y="442" width="43" height="1" fill="#FF8EBC"/><rect x="149" y="443" width="43" height="1" fill="#FF8EBC"/><rect x="320" y="443" width="43" height="1" fill="#FF8EBC"/><rect x="149" y="444" width="43" height="1" fill="#FF8EBC"/><rect x="320" y="444" width="43" height="1" fill="#FF8EBC"/><rect x="149" y="445" width="43" height="1" fill="#FF8EBC"/><rect x="320" y="445" width="43" height="1" fill="#FF8EBC"/><rect x="149" y="446" width="43" height="1" fill="#FF8EBC"/><rect x="320" y="446" width="43" height="1" fill="#FF8EBC"/><rect x="149" y="447" width="43" height="1" fill="#FF8EBC"/><rect x="320" y="447" width="43" height="1" fill="#FF8EBC"/></svg>