<svg xmlns="http://www.w3.org/2000/svg" viewBox="0 0 512 512" width="512" height="512" shape-rendering="crispEdges"><rect x="192" y="171" width="64" height="1" fill="#FED62C"/><rect x="277" y="171" width="43" height="1" fill="#FED62C"/><rect x="192" y="172" width="64" height="1" fill="#FED62C"/><rect x="277" y="172" width="43" height="1" fill="#FED62C"/><rect x="192" y="173" width="64" height="1" fill="#FED62C"/><rect x="277" y="173" width="43" height="1" fill="#FED62C"/><rect x="192" y="174" width="64" height="1" fill="#FED62C"/><rect x="277" y="174" width="43" height="1" fill="#FED62C"/><rect x="192" y="175" width="64" height="1" fill="#FED62C"/><rect x="277" y="175" width="43" height="1" fill="#FED62C"/><rect x="192" y="176" width="64" height="1" fill="#FED62C"/><rect x="277" y="176" width="43" height="1" fill="#FED62C"/><rect x="192" y="177" width="64" height="1" fill="#FED62C"/><rect x="277" y="177" width="43" height="1" fill="#FED62C"/><rect x="192" y="178" width="64" height="1" fill="#FED62C"/><rect x="277" y="178" width="43" height="1" fill="#FED62C"/><rect x="192" y="179" width="64" height="1" fill="#FED62C"/><rect x="277" y="179" width="43" height="1" fill="#FED62C"/><rect x="192" y="180" width="64" height="1" fill="#FED62C"/><rect x="277" y="180" width="43" height="1" fill="#FED62C"/><rect x="192" y="181" width="64" height="1" fill="#FED62C"/><rect x="277" y="181" width="43" height="1" fill="#FED62C"/><rect x="192" y="182" width="64" height="1" fill="#FED62C"/><rect x="277" y="182" width="43" height="1" fill="#FED62C"/><rect x="192" y="183" width="64" height="1" fill="#FED62C"/><rect x="277" y="183" width="43" height="1" fill="#FED62C"/><rect x="192" y="184" width="64" height="1" fill="#FED62C"/><rect x="277" y="184" width="43" height="1" fill="#FED62C"/><rect x="192" y="185" width="64" height="1" fill="#FED62C"/><rect x="277" y="185" width="43" height="1" fill="#FED62C"/><rect x="192" y="186" width="64" height="1" fill="#FED62C"/><rect x="277" y="186" width="43" height="1" fill="#FED62C"/><rect x="192" y="187" width="64" height="1" fill="#FED62C"/><rect x="277" y="187" width="43" height="1" fill="#FED62C"/><rect x="192" y="188" width="64" height="1" fill="#FED62C"/><rect x="277" y="188" width="43" height="1" fill="#FED62C"/><rect x="192" y="189" width="64" height="1" fill="#FED62C"/><rect x="277" y="189" width="43" height="1" fill="#FED62C"/><rect x="192" y="190" width="64" height="1" fill="#FED62C"/><rect x="277" y="190" width="43" height="1" fill="#FED62C"/><rect x="192" y="191" width="64" height="1" fill="#FED62C"/><rect x="277" y="191" width="43" height="1" fill="#FED62C"/><rect x="256" y="192" width="21" height="1" fill="#FED62C"/><rect x="256" y="193" width="21" height="1" fill="#FED62C"/><rect x="256" y="194" width="21" height="1" fill="#FED62C"/><rect x="256" y="195" width="21" height="1" fill="#FED62C"/><rect x="256" y="196" width="21" height="1" fill="#FED62C"/><rect x="256" y="197" width="21" height="1" fill="#FED62C"/><rect x="256" y="198" width="21" height="1" fill="#FED62C"/><rect x="256" y="199" width="21" height="1" fill="#FED62C"/><rect x="256" y="200" width="21" height="1" fill="#FED62C"/><rect x="256" y="201" width="21" height="1" fill="#FED62C"/><rect x="256" y="202" width="21" height="1" fill="#FED62C"/><rect x="256" y="203" width="21" height="1" fill="#FED62C"/><rect x="256" y="204" width="21" height="1" fill="#FED62C"/><rect x="256" y="205" width="21" height="1" fill="#FED62C"/><rect x="256" y="206" width="21" height="1" fill="#FED62C"/><rect x="256" y="207" width="21" height="1" fill="#FED62C"/><rect x="256" y="208" width="21" height="1" fill="#FED62C"/><rect x="256" y="209" width="21" height="1" fill="#FED62C"/><rect x="256" y="210" width="21" height="1" fill="#FED62C"/><rect x="256" y="211" width="21" height="1" fill="#FED62C"/><rect x="256" y="212" width="21" height="1" fill="#FED62C"/><rect x="235" y="213" width="21" height="1" fill="#FED62C"/><rect x="256" y="213" width="21" height="1" fill="#FE0044"/><rect x="277" y="213" width="22" height="1" fill="#FED62C"/><rect x="235" y="214" width="21" height="1" fill="#FED62C"/><rect x="256" y="214" width="21" height="1" fill="#FE0044"/><rect x="277" y="214" width="22" height="1" fill="#FED62C"/><rect x="235" y="215" width="21" height="1" fill="#FED62C"/><rect x="256" y="215" width="21" height="1" fill="#FE0044"/><rect x="277" y="215" width="22" height="1" fill="#FED62C"/><rect x="235" y="216" width="21" height="1" fill="#FED62C"/><rect x="256" y="216" width="21" height="1" fill="#FE0044"/><rect x="277" y="216" width="22" height="1" fill="#FED62C"/><rect x="235" y="217" width="21" height="1" fill="#FED62C"/><rect x="256" y="217" width="21" height="1" fill="#FE0044"/><rect x="277" y="217" width="22" height="1" fill="#FED62C"/><rect x="235" y="218" width="21" height="1" fill="#FED62C"/><rect x="256" y="218" width="21" height="1" fill="#FE0044"/><rect x="277" y="218" width="22" height="1" fill="#FED62C"/><rect x="235" y="219" width="21" height="1" fill="#FED62C"/><rect x="256" y="219" width="21" height="1" fill="#FE0044"/><rect x="277" y="219" width="22" height="1" fill="#FED62C"/><rect x="235" y="220" width="21" height="1" fill="#FED62C"/><rect x="256" y="220" width="21" height="1" fill="#FE0044"/><rect x="277" y="220" width="22" height="1" fill="#FED62C"/><rect x="235" y="221" width="21" height="1" fill="#FED62C"/><rect x="256" y="221" width="21" height="1" fill="#FE0044"/><rect x="277" y="221" width="22" height="1" fill="#FED62C"/><rect x="235" y="222" width="21" height="1" fill="#FED62C"/><rect x="256" y="222" width="21" height="1" fill="#FE0044"/><rect x="277" y="222" width="22" height="1" fill="#FED62C"/><rect x="235" y="223" width="21" height="1" fill="#FED62C"/><rect x="256" y="223" width="21" height="1" fill="#FE0044"/><rect x="277" y="223" width="22" height="1" fill="#FED62C"/><rect x="235" y="224" width="21" height="1" fill="#FED62C"/><rect x="256" y="224" width="21" height="1" fill="#FE0044"/><rect x="277" y="224" width="22" height="1" fill="#FED62C"/><rect x="235" y="225" width="21" height="1" fill="#FED62C"/><rect x="256" y="225" width="21" height="1" fill="#FE0044"/><rect x="277" y="225" width="22" height="1" fill="#FED62C"/><rect x="235" y="226" width="21" height="1" fill="#FED62C"/><rect x="256" y="226" width="21" height="1" fill="#FE0044"/><rect x="277" y="226" width="22" height="1" fill="#FED62C"/><rect x="235" y="227" width="21" height="1" fill="#FED62C"/><rect x="256" y="227" width="21" height="1" fill="#FE0044"/><rect x="277" y="227" width="22" height="1" fill="#FED62C"/><rect x="235" y="228" width="21" height="1" fill="#FED62C"/><rect x="256" y="228" width="21" height="1" fill="#FE0044"/><rect x="277" y="228" width="22" height="1" fill="#FED62C"/><rect x="235" y="229" width="21" height="1" fill="#FED62C"/><rect x="256" y="229" width="21" height="1" fill="#FE0044"/><rect x="277" y="229" width="22" height="1" fill="#FED62C"/><rect x="235" y="230" width="21" height="1" fill="#FED62C"/><rect x="256" y="230" width="21" height="1" fill="#FE0044"/><rect x="277" y="230" width="22" height="1" fill="#FED62C"/><rect x="235" y="231" width="21" height="1" fill="#FED62C"/><rect x="256" y="231" width="21" height="1" fill="#FE0044"/><rect x="277" y="231" width="22" height="1" fill="#FED62C"/><rect x="235" y="232" width="21" height="1" fill="#FED62C"/><rect x="256" y="232" width="21" height="1" fill="#FE0044"/><rect x="277" y="232" width="22" height="1" fill="#FED62C"/><rect x="235" y="233" width="21" height="1" fill="#FED62C"/><rect x="256" y="233" width="21" height="1" fill="#FE0044"/><rect x="277" y="233" width="22" height="1" fill="#FED62C"/><rect x="235" y="234" width="21" height="1" fill="#FED62C"/><rect x="256" y="234" width="21" height="1" fill="#FE0044"/><rect x="277" y="234" width="22" height="1" fill="#FED62C"/><rect x="256" y="235" width="21" height="1" fill="#FED62C"/><rect x="256" y="236" width="21" height="1" fill="#FED62C"/><rect x="256" y="237" width="21" height="1" fill="#FED62C"/><rect x="256" y="238" width="21" height="1" fill="#FED62C"/><rect x="256" y="239" width="21" height="1" fill="#FED62C"/><rect x="256" y="240" width="21" height="1" fill="#FED62C"/><rect x="256" y="241" width="21" height="1" fill="#FED62C"/><rect x="256" y="242" width="21" height="1" fill="#FED62C"/><rect x="256" y="243" width="21" height="1" fill="#FED62C"/><rect x="256" y="244" width="21" height="1" fill="#FED62C"/><rect x="256" y="245" width="21" height="1" fill="#FED62C"/><rect x="256" y="246" width="21" height="1" fill="#FED62C"/><rect x="256" y="247" width="21" height="1" fill="#FED62C"/><rect x="256" y="248" width="21" height="1" fill="#FED62C"/><rect x="256" y="249" width="21" height="1" fill="#FED62C"/><rect x="256" y="250" width="21" height="1" fill="#FED62C"/><rect x="256" y="251" width="21" height="1" fill="#FED62C"/><rect x="256" y="252" width="21" height="1" fill="#FED62C"/><rect x="256" y="253" width="21" height="1" fill="#FED62C"/><rect x="256" y="254" width="21" height="1" fill="#FED62C"/><rect x="256" y="255" width="21" height="1" fill="#FED62C"/></svg>